<svg width="1440" height="141" viewBox="0 0 1440 141" fill="none" xmlns="http://www.w3.org/2000/svg">
<rect width="1440" height="141" fill="white"/>
<mask id="mask0" mask-type="alpha" maskUnits="userSpaceOnUse" x="0" y="0" width="1440" height="141">
<path d="M0 141V0H1440V141H0Z" fill="#C4C4C4"/>
</mask>
<g mask="url(#mask0)">
<rect width="2072" height="14427" transform="translate(-316 -265.5)" fill="#171717"/>
<path fill-rule="evenodd" clip-rule="evenodd" d="M352.5 126.5C354.433 126.5 356 124.933 356 123C356 121.067 354.433 119.5 352.5 119.5C350.567 119.5 349 121.067 349 123C349 124.933 350.567 126.5 352.5 126.5Z" fill="#202020"/>
<path fill-rule="evenodd" clip-rule="evenodd" d="M317.5 126.5C319.433 126.5 321 124.933 321 123C321 121.067 319.433 119.5 317.5 119.5C315.567 119.5 314 121.067 314 123C314 124.933 315.567 126.5 317.5 126.5Z" fill="#202020"/>
<path fill-rule="evenodd" clip-rule="evenodd" d="M282.5 126.5C284.433 126.5 286 124.933 286 123C286 121.067 284.433 119.5 282.5 119.5C280.567 119.5 279 121.067 279 123C279 124.933 280.567 126.5 282.5 126.5Z" fill="#202020"/>
<path fill-rule="evenodd" clip-rule="evenodd" d="M247.5 126.5C249.433 126.5 251 124.933 251 123C251 121.067 249.433 119.5 247.5 119.5C245.567 119.5 244 121.067 244 123C244 124.933 245.567 126.5 247.5 126.5Z" fill="#202020"/>
<path fill-rule="evenodd" clip-rule="evenodd" d="M212.5 126.5C214.433 126.5 216 124.933 216 123C216 121.067 214.433 119.5 212.5 119.5C210.567 119.5 209 121.067 209 123C209 124.933 210.567 126.5 212.5 126.5Z" fill="#202020"/>
<path fill-rule="evenodd" clip-rule="evenodd" d="M177.5 126.5C179.433 126.5 181 124.933 181 123C181 121.067 179.433 119.5 177.5 119.5C175.567 119.5 174 121.067 174 123C174 124.933 175.567 126.5 177.5 126.5Z" fill="#202020"/>
<path fill-rule="evenodd" clip-rule="evenodd" d="M142.5 126.5C144.433 126.5 146 124.933 146 123C146 121.067 144.433 119.5 142.5 119.5C140.567 119.5 139 121.067 139 123C139 124.933 140.567 126.5 142.5 126.5Z" fill="#202020"/>
<path fill-rule="evenodd" clip-rule="evenodd" d="M107.5 126.5C109.433 126.5 111 124.933 111 123C111 121.067 109.433 119.5 107.5 119.5C105.567 119.5 104 121.067 104 123C104 124.933 105.567 126.5 107.5 126.5Z" fill="#202020"/>
<path fill-rule="evenodd" clip-rule="evenodd" d="M72.5 126.5C74.433 126.5 76 124.933 76 123C76 121.067 74.433 119.5 72.5 119.5C70.567 119.5 69 121.067 69 123C69 124.933 70.567 126.5 72.5 126.5Z" fill="#202020"/>
<path fill-rule="evenodd" clip-rule="evenodd" d="M37.5 126.5C39.433 126.5 41 124.933 41 123C41 121.067 39.433 119.5 37.5 119.5C35.567 119.5 34 121.067 34 123C34 124.933 35.567 126.5 37.5 126.5Z" fill="#202020"/>
<path fill-rule="evenodd" clip-rule="evenodd" d="M2.5 126.5C4.433 126.5 6 124.933 6 123C6 121.067 4.433 119.5 2.5 119.5C0.567003 119.5 -1 121.067 -1 123C-1 124.933 0.567003 126.5 2.5 126.5Z" fill="#202020"/>
<path fill-rule="evenodd" clip-rule="evenodd" d="M352.5 91.5C354.433 91.5 356 89.933 356 88C356 86.067 354.433 84.5 352.5 84.5C350.567 84.5 349 86.067 349 88C349 89.933 350.567 91.5 352.5 91.5Z" fill="#202020"/>
<path fill-rule="evenodd" clip-rule="evenodd" d="M317.5 91.5C319.433 91.5 321 89.933 321 88C321 86.067 319.433 84.5 317.5 84.5C315.567 84.5 314 86.067 314 88C314 89.933 315.567 91.5 317.5 91.5Z" fill="#202020"/>
<path fill-rule="evenodd" clip-rule="evenodd" d="M282.5 91.5C284.433 91.5 286 89.933 286 88C286 86.067 284.433 84.5 282.5 84.5C280.567 84.5 279 86.067 279 88C279 89.933 280.567 91.5 282.5 91.5Z" fill="#202020"/>
<path fill-rule="evenodd" clip-rule="evenodd" d="M247.5 91.5C249.433 91.5 251 89.933 251 88C251 86.067 249.433 84.5 247.5 84.5C245.567 84.5 244 86.067 244 88C244 89.933 245.567 91.5 247.5 91.5Z" fill="#202020"/>
<path fill-rule="evenodd" clip-rule="evenodd" d="M212.5 91.5C214.433 91.5 216 89.933 216 88C216 86.067 214.433 84.5 212.5 84.5C210.567 84.5 209 86.067 209 88C209 89.933 210.567 91.5 212.5 91.5Z" fill="#202020"/>
<path fill-rule="evenodd" clip-rule="evenodd" d="M177.5 91.5C179.433 91.5 181 89.933 181 88C181 86.067 179.433 84.5 177.5 84.5C175.567 84.5 174 86.067 174 88C174 89.933 175.567 91.5 177.5 91.5Z" fill="#202020"/>
<path fill-rule="evenodd" clip-rule="evenodd" d="M142.5 91.5C144.433 91.5 146 89.933 146 88C146 86.067 144.433 84.5 142.5 84.5C140.567 84.5 139 86.067 139 88C139 89.933 140.567 91.5 142.5 91.5Z" fill="#202020"/>
<path fill-rule="evenodd" clip-rule="evenodd" d="M107.5 91.5C109.433 91.5 111 89.933 111 88C111 86.067 109.433 84.5 107.5 84.5C105.567 84.5 104 86.067 104 88C104 89.933 105.567 91.5 107.5 91.5Z" fill="#202020"/>
<path fill-rule="evenodd" clip-rule="evenodd" d="M72.5 91.5C74.433 91.5 76 89.933 76 88C76 86.067 74.433 84.5 72.5 84.5C70.567 84.5 69 86.067 69 88C69 89.933 70.567 91.5 72.5 91.5Z" fill="#202020"/>
<path fill-rule="evenodd" clip-rule="evenodd" d="M37.5 91.5C39.433 91.5 41 89.933 41 88C41 86.067 39.433 84.5 37.5 84.5C35.567 84.5 34 86.067 34 88C34 89.933 35.567 91.5 37.5 91.5Z" fill="#202020"/>
<path fill-rule="evenodd" clip-rule="evenodd" d="M2.5 91.5C4.433 91.5 6 89.933 6 88C6 86.067 4.433 84.5 2.5 84.5C0.567003 84.5 -1 86.067 -1 88C-1 89.933 0.567003 91.5 2.5 91.5Z" fill="#202020"/>
<path fill-rule="evenodd" clip-rule="evenodd" d="M352.5 56.5C354.433 56.5 356 54.933 356 53C356 51.067 354.433 49.5 352.5 49.5C350.567 49.5 349 51.067 349 53C349 54.933 350.567 56.5 352.5 56.5Z" fill="#202020"/>
<path fill-rule="evenodd" clip-rule="evenodd" d="M317.5 56.5C319.433 56.5 321 54.933 321 53C321 51.067 319.433 49.5 317.5 49.5C315.567 49.5 314 51.067 314 53C314 54.933 315.567 56.5 317.5 56.5Z" fill="#202020"/>
<path fill-rule="evenodd" clip-rule="evenodd" d="M282.5 56.5C284.433 56.5 286 54.933 286 53C286 51.067 284.433 49.5 282.5 49.5C280.567 49.5 279 51.067 279 53C279 54.933 280.567 56.5 282.5 56.5Z" fill="#202020"/>
<path fill-rule="evenodd" clip-rule="evenodd" d="M247.5 56.5C249.433 56.5 251 54.933 251 53C251 51.067 249.433 49.5 247.5 49.5C245.567 49.5 244 51.067 244 53C244 54.933 245.567 56.5 247.5 56.5Z" fill="#202020"/>
<path fill-rule="evenodd" clip-rule="evenodd" d="M212.5 56.5C214.433 56.5 216 54.933 216 53C216 51.067 214.433 49.5 212.5 49.5C210.567 49.5 209 51.067 209 53C209 54.933 210.567 56.5 212.5 56.5Z" fill="#202020"/>
<path fill-rule="evenodd" clip-rule="evenodd" d="M177.5 56.5C179.433 56.5 181 54.933 181 53C181 51.067 179.433 49.5 177.5 49.5C175.567 49.5 174 51.067 174 53C174 54.933 175.567 56.5 177.5 56.5Z" fill="#202020"/>
<path fill-rule="evenodd" clip-rule="evenodd" d="M142.5 56.5C144.433 56.5 146 54.933 146 53C146 51.067 144.433 49.5 142.5 49.5C140.567 49.5 139 51.067 139 53C139 54.933 140.567 56.5 142.5 56.5Z" fill="#202020"/>
<path fill-rule="evenodd" clip-rule="evenodd" d="M107.5 56.5C109.433 56.5 111 54.933 111 53C111 51.067 109.433 49.5 107.5 49.5C105.567 49.5 104 51.067 104 53C104 54.933 105.567 56.5 107.5 56.5Z" fill="#202020"/>
<path fill-rule="evenodd" clip-rule="evenodd" d="M72.5 56.5C74.433 56.5 76 54.933 76 53C76 51.067 74.433 49.5 72.5 49.5C70.567 49.5 69 51.067 69 53C69 54.933 70.567 56.5 72.5 56.5Z" fill="#202020"/>
<path fill-rule="evenodd" clip-rule="evenodd" d="M37.5 56.5C39.433 56.5 41 54.933 41 53C41 51.067 39.433 49.5 37.5 49.5C35.567 49.5 34 51.067 34 53C34 54.933 35.567 56.5 37.5 56.5Z" fill="#202020"/>
<path fill-rule="evenodd" clip-rule="evenodd" d="M2.5 56.5C4.433 56.5 6 54.933 6 53C6 51.067 4.433 49.5 2.5 49.5C0.567003 49.5 -1 51.067 -1 53C-1 54.933 0.567003 56.5 2.5 56.5Z" fill="#202020"/>
<path fill-rule="evenodd" clip-rule="evenodd" d="M352.5 21.5C354.433 21.5 356 19.933 356 18C356 16.067 354.433 14.5 352.5 14.5C350.567 14.5 349 16.067 349 18C349 19.933 350.567 21.5 352.5 21.5Z" fill="#202020"/>
<path fill-rule="evenodd" clip-rule="evenodd" d="M317.5 21.5C319.433 21.5 321 19.933 321 18C321 16.067 319.433 14.5 317.5 14.5C315.567 14.5 314 16.067 314 18C314 19.933 315.567 21.5 317.5 21.5Z" fill="#202020"/>
<path fill-rule="evenodd" clip-rule="evenodd" d="M282.5 21.5C284.433 21.5 286 19.933 286 18C286 16.067 284.433 14.5 282.5 14.5C280.567 14.5 279 16.067 279 18C279 19.933 280.567 21.5 282.5 21.5Z" fill="#202020"/>
<path fill-rule="evenodd" clip-rule="evenodd" d="M247.5 21.5C249.433 21.5 251 19.933 251 18C251 16.067 249.433 14.5 247.5 14.5C245.567 14.5 244 16.067 244 18C244 19.933 245.567 21.5 247.5 21.5Z" fill="#202020"/>
<path fill-rule="evenodd" clip-rule="evenodd" d="M212.5 21.5C214.433 21.5 216 19.933 216 18C216 16.067 214.433 14.5 212.5 14.5C210.567 14.5 209 16.067 209 18C209 19.933 210.567 21.5 212.5 21.5Z" fill="#202020"/>
<path fill-rule="evenodd" clip-rule="evenodd" d="M177.5 21.5C179.433 21.5 181 19.933 181 18C181 16.067 179.433 14.5 177.5 14.5C175.567 14.5 174 16.067 174 18C174 19.933 175.567 21.5 177.5 21.5Z" fill="#202020"/>
<path fill-rule="evenodd" clip-rule="evenodd" d="M142.5 21.5C144.433 21.5 146 19.933 146 18C146 16.067 144.433 14.5 142.5 14.5C140.567 14.5 139 16.067 139 18C139 19.933 140.567 21.5 142.5 21.5Z" fill="#202020"/>
<path fill-rule="evenodd" clip-rule="evenodd" d="M107.5 21.5C109.433 21.5 111 19.933 111 18C111 16.067 109.433 14.5 107.5 14.5C105.567 14.5 104 16.067 104 18C104 19.933 105.567 21.5 107.5 21.5Z" fill="#202020"/>
<path fill-rule="evenodd" clip-rule="evenodd" d="M72.5 21.5C74.433 21.5 76 19.933 76 18C76 16.067 74.433 14.5 72.5 14.5C70.567 14.5 69 16.067 69 18C69 19.933 70.567 21.5 72.5 21.5Z" fill="#202020"/>
<path fill-rule="evenodd" clip-rule="evenodd" d="M37.5 21.5C39.433 21.5 41 19.933 41 18C41 16.067 39.433 14.5 37.5 14.5C35.567 14.5 34 16.067 34 18C34 19.933 35.567 21.5 37.5 21.5Z" fill="#202020"/>
<path fill-rule="evenodd" clip-rule="evenodd" d="M2.5 21.5C4.433 21.5 6 19.933 6 18C6 16.067 4.433 14.5 2.5 14.5C0.567003 14.5 -1 16.067 -1 18C-1 19.933 0.567003 21.5 2.5 21.5Z" fill="#202020"/>
<path fill-rule="evenodd" clip-rule="evenodd" d="M1052.5 126.5C1054.43 126.5 1056 124.933 1056 123C1056 121.067 1054.43 119.5 1052.5 119.5C1050.57 119.5 1049 121.067 1049 123C1049 124.933 1050.57 126.5 1052.5 126.5Z" fill="#202020"/>
<path fill-rule="evenodd" clip-rule="evenodd" d="M1017.5 126.5C1019.43 126.5 1021 124.933 1021 123C1021 121.067 1019.43 119.5 1017.5 119.5C1015.57 119.5 1014 121.067 1014 123C1014 124.933 1015.57 126.5 1017.5 126.5Z" fill="#202020"/>
<path fill-rule="evenodd" clip-rule="evenodd" d="M982.5 126.5C984.433 126.5 986 124.933 986 123C986 121.067 984.433 119.5 982.5 119.5C980.567 119.5 979 121.067 979 123C979 124.933 980.567 126.5 982.5 126.5Z" fill="#202020"/>
<path fill-rule="evenodd" clip-rule="evenodd" d="M947.5 126.5C949.433 126.5 951 124.933 951 123C951 121.067 949.433 119.5 947.5 119.5C945.567 119.5 944 121.067 944 123C944 124.933 945.567 126.5 947.5 126.5Z" fill="#202020"/>
<path fill-rule="evenodd" clip-rule="evenodd" d="M912.5 126.5C914.433 126.5 916 124.933 916 123C916 121.067 914.433 119.5 912.5 119.5C910.567 119.5 909 121.067 909 123C909 124.933 910.567 126.5 912.5 126.5Z" fill="#202020"/>
<path fill-rule="evenodd" clip-rule="evenodd" d="M877.5 126.5C879.433 126.5 881 124.933 881 123C881 121.067 879.433 119.5 877.5 119.5C875.567 119.5 874 121.067 874 123C874 124.933 875.567 126.5 877.5 126.5Z" fill="#202020"/>
<path fill-rule="evenodd" clip-rule="evenodd" d="M842.5 126.5C844.433 126.5 846 124.933 846 123C846 121.067 844.433 119.5 842.5 119.5C840.567 119.5 839 121.067 839 123C839 124.933 840.567 126.5 842.5 126.5Z" fill="#202020"/>
<path fill-rule="evenodd" clip-rule="evenodd" d="M807.5 126.5C809.433 126.5 811 124.933 811 123C811 121.067 809.433 119.5 807.5 119.5C805.567 119.5 804 121.067 804 123C804 124.933 805.567 126.5 807.5 126.5Z" fill="#202020"/>
<path fill-rule="evenodd" clip-rule="evenodd" d="M772.5 126.5C774.433 126.5 776 124.933 776 123C776 121.067 774.433 119.5 772.5 119.5C770.567 119.5 769 121.067 769 123C769 124.933 770.567 126.5 772.5 126.5Z" fill="#202020"/>
<path fill-rule="evenodd" clip-rule="evenodd" d="M737.5 126.5C739.433 126.5 741 124.933 741 123C741 121.067 739.433 119.5 737.5 119.5C735.567 119.5 734 121.067 734 123C734 124.933 735.567 126.5 737.5 126.5Z" fill="#202020"/>
<path fill-rule="evenodd" clip-rule="evenodd" d="M702.5 126.5C704.433 126.5 706 124.933 706 123C706 121.067 704.433 119.5 702.5 119.5C700.567 119.5 699 121.067 699 123C699 124.933 700.567 126.5 702.5 126.5Z" fill="#202020"/>
<path fill-rule="evenodd" clip-rule="evenodd" d="M667.5 126.5C669.433 126.5 671 124.933 671 123C671 121.067 669.433 119.5 667.5 119.5C665.567 119.5 664 121.067 664 123C664 124.933 665.567 126.5 667.5 126.5Z" fill="#202020"/>
<path fill-rule="evenodd" clip-rule="evenodd" d="M632.5 126.5C634.433 126.5 636 124.933 636 123C636 121.067 634.433 119.5 632.5 119.5C630.567 119.5 629 121.067 629 123C629 124.933 630.567 126.5 632.5 126.5Z" fill="#202020"/>
<path fill-rule="evenodd" clip-rule="evenodd" d="M597.5 126.5C599.433 126.5 601 124.933 601 123C601 121.067 599.433 119.5 597.5 119.5C595.567 119.5 594 121.067 594 123C594 124.933 595.567 126.5 597.5 126.5Z" fill="#202020"/>
<path fill-rule="evenodd" clip-rule="evenodd" d="M562.5 126.5C564.433 126.5 566 124.933 566 123C566 121.067 564.433 119.5 562.5 119.5C560.567 119.5 559 121.067 559 123C559 124.933 560.567 126.5 562.5 126.5Z" fill="#202020"/>
<path fill-rule="evenodd" clip-rule="evenodd" d="M527.5 126.5C529.433 126.5 531 124.933 531 123C531 121.067 529.433 119.5 527.5 119.5C525.567 119.5 524 121.067 524 123C524 124.933 525.567 126.5 527.5 126.5Z" fill="#202020"/>
<path fill-rule="evenodd" clip-rule="evenodd" d="M492.5 126.5C494.433 126.5 496 124.933 496 123C496 121.067 494.433 119.5 492.5 119.5C490.567 119.5 489 121.067 489 123C489 124.933 490.567 126.5 492.5 126.5Z" fill="#202020"/>
<path fill-rule="evenodd" clip-rule="evenodd" d="M457.5 126.5C459.433 126.5 461 124.933 461 123C461 121.067 459.433 119.5 457.5 119.5C455.567 119.5 454 121.067 454 123C454 124.933 455.567 126.5 457.5 126.5Z" fill="#202020"/>
<path fill-rule="evenodd" clip-rule="evenodd" d="M422.5 126.5C424.433 126.5 426 124.933 426 123C426 121.067 424.433 119.5 422.5 119.5C420.567 119.5 419 121.067 419 123C419 124.933 420.567 126.5 422.5 126.5Z" fill="#202020"/>
<path fill-rule="evenodd" clip-rule="evenodd" d="M387.5 126.5C389.433 126.5 391 124.933 391 123C391 121.067 389.433 119.5 387.5 119.5C385.567 119.5 384 121.067 384 123C384 124.933 385.567 126.5 387.5 126.5Z" fill="#202020"/>
<path fill-rule="evenodd" clip-rule="evenodd" d="M1052.5 91.5C1054.43 91.5 1056 89.933 1056 88C1056 86.067 1054.43 84.5 1052.5 84.5C1050.57 84.5 1049 86.067 1049 88C1049 89.933 1050.57 91.5 1052.5 91.5Z" fill="#202020"/>
<path fill-rule="evenodd" clip-rule="evenodd" d="M1017.5 91.5C1019.43 91.5 1021 89.933 1021 88C1021 86.067 1019.43 84.5 1017.5 84.5C1015.57 84.5 1014 86.067 1014 88C1014 89.933 1015.57 91.5 1017.5 91.5Z" fill="#202020"/>
<path fill-rule="evenodd" clip-rule="evenodd" d="M982.5 91.5C984.433 91.5 986 89.933 986 88C986 86.067 984.433 84.5 982.5 84.5C980.567 84.5 979 86.067 979 88C979 89.933 980.567 91.5 982.5 91.5Z" fill="#202020"/>
<path fill-rule="evenodd" clip-rule="evenodd" d="M947.5 91.5C949.433 91.5 951 89.933 951 88C951 86.067 949.433 84.5 947.5 84.5C945.567 84.5 944 86.067 944 88C944 89.933 945.567 91.5 947.5 91.5Z" fill="#202020"/>
<path fill-rule="evenodd" clip-rule="evenodd" d="M912.5 91.5C914.433 91.5 916 89.933 916 88C916 86.067 914.433 84.5 912.5 84.5C910.567 84.5 909 86.067 909 88C909 89.933 910.567 91.5 912.5 91.5Z" fill="#202020"/>
<path fill-rule="evenodd" clip-rule="evenodd" d="M877.5 91.5C879.433 91.5 881 89.933 881 88C881 86.067 879.433 84.5 877.5 84.5C875.567 84.5 874 86.067 874 88C874 89.933 875.567 91.5 877.5 91.5Z" fill="#202020"/>
<path fill-rule="evenodd" clip-rule="evenodd" d="M842.5 91.5C844.433 91.5 846 89.933 846 88C846 86.067 844.433 84.5 842.5 84.5C840.567 84.5 839 86.067 839 88C839 89.933 840.567 91.5 842.5 91.5Z" fill="#202020"/>
<path fill-rule="evenodd" clip-rule="evenodd" d="M807.5 91.5C809.433 91.5 811 89.933 811 88C811 86.067 809.433 84.5 807.5 84.5C805.567 84.5 804 86.067 804 88C804 89.933 805.567 91.5 807.5 91.5Z" fill="#202020"/>
<path fill-rule="evenodd" clip-rule="evenodd" d="M772.5 91.5C774.433 91.5 776 89.933 776 88C776 86.067 774.433 84.5 772.5 84.5C770.567 84.5 769 86.067 769 88C769 89.933 770.567 91.5 772.5 91.5Z" fill="#202020"/>
<path fill-rule="evenodd" clip-rule="evenodd" d="M737.5 91.5C739.433 91.5 741 89.933 741 88C741 86.067 739.433 84.5 737.5 84.5C735.567 84.5 734 86.067 734 88C734 89.933 735.567 91.5 737.5 91.5Z" fill="#202020"/>
<path fill-rule="evenodd" clip-rule="evenodd" d="M702.5 91.5C704.433 91.5 706 89.933 706 88C706 86.067 704.433 84.5 702.5 84.5C700.567 84.5 699 86.067 699 88C699 89.933 700.567 91.5 702.5 91.5Z" fill="#202020"/>
<path fill-rule="evenodd" clip-rule="evenodd" d="M667.5 91.5C669.433 91.5 671 89.933 671 88C671 86.067 669.433 84.5 667.5 84.5C665.567 84.5 664 86.067 664 88C664 89.933 665.567 91.5 667.5 91.5Z" fill="#202020"/>
<path fill-rule="evenodd" clip-rule="evenodd" d="M632.5 91.5C634.433 91.5 636 89.933 636 88C636 86.067 634.433 84.5 632.5 84.5C630.567 84.5 629 86.067 629 88C629 89.933 630.567 91.5 632.5 91.5Z" fill="#202020"/>
<path fill-rule="evenodd" clip-rule="evenodd" d="M597.5 91.5C599.433 91.5 601 89.933 601 88C601 86.067 599.433 84.5 597.5 84.5C595.567 84.5 594 86.067 594 88C594 89.933 595.567 91.5 597.5 91.5Z" fill="#202020"/>
<path fill-rule="evenodd" clip-rule="evenodd" d="M562.5 91.5C564.433 91.5 566 89.933 566 88C566 86.067 564.433 84.5 562.5 84.5C560.567 84.5 559 86.067 559 88C559 89.933 560.567 91.5 562.5 91.5Z" fill="#202020"/>
<path fill-rule="evenodd" clip-rule="evenodd" d="M527.5 91.5C529.433 91.5 531 89.933 531 88C531 86.067 529.433 84.5 527.5 84.5C525.567 84.5 524 86.067 524 88C524 89.933 525.567 91.5 527.5 91.5Z" fill="#202020"/>
<path fill-rule="evenodd" clip-rule="evenodd" d="M492.5 91.5C494.433 91.5 496 89.933 496 88C496 86.067 494.433 84.5 492.5 84.5C490.567 84.5 489 86.067 489 88C489 89.933 490.567 91.5 492.5 91.5Z" fill="#202020"/>
<path fill-rule="evenodd" clip-rule="evenodd" d="M457.5 91.5C459.433 91.5 461 89.933 461 88C461 86.067 459.433 84.5 457.5 84.5C455.567 84.5 454 86.067 454 88C454 89.933 455.567 91.5 457.5 91.5Z" fill="#202020"/>
<path fill-rule="evenodd" clip-rule="evenodd" d="M422.5 91.5C424.433 91.5 426 89.933 426 88C426 86.067 424.433 84.5 422.5 84.5C420.567 84.5 419 86.067 419 88C419 89.933 420.567 91.5 422.5 91.5Z" fill="#202020"/>
<path fill-rule="evenodd" clip-rule="evenodd" d="M387.5 91.5C389.433 91.5 391 89.933 391 88C391 86.067 389.433 84.5 387.5 84.5C385.567 84.5 384 86.067 384 88C384 89.933 385.567 91.5 387.5 91.5Z" fill="#202020"/>
<path fill-rule="evenodd" clip-rule="evenodd" d="M1052.5 56.5C1054.43 56.5 1056 54.933 1056 53C1056 51.067 1054.43 49.5 1052.5 49.5C1050.57 49.5 1049 51.067 1049 53C1049 54.933 1050.57 56.5 1052.5 56.5Z" fill="#202020"/>
<path fill-rule="evenodd" clip-rule="evenodd" d="M1017.5 56.5C1019.43 56.5 1021 54.933 1021 53C1021 51.067 1019.43 49.5 1017.5 49.5C1015.57 49.5 1014 51.067 1014 53C1014 54.933 1015.57 56.5 1017.5 56.5Z" fill="#202020"/>
<path fill-rule="evenodd" clip-rule="evenodd" d="M982.5 56.5C984.433 56.5 986 54.933 986 53C986 51.067 984.433 49.5 982.5 49.5C980.567 49.5 979 51.067 979 53C979 54.933 980.567 56.5 982.5 56.5Z" fill="#202020"/>
<path fill-rule="evenodd" clip-rule="evenodd" d="M947.5 56.5C949.433 56.5 951 54.933 951 53C951 51.067 949.433 49.5 947.5 49.5C945.567 49.5 944 51.067 944 53C944 54.933 945.567 56.5 947.5 56.5Z" fill="#202020"/>
<path fill-rule="evenodd" clip-rule="evenodd" d="M912.5 56.5C914.433 56.5 916 54.933 916 53C916 51.067 914.433 49.5 912.5 49.5C910.567 49.5 909 51.067 909 53C909 54.933 910.567 56.5 912.5 56.5Z" fill="#202020"/>
<path fill-rule="evenodd" clip-rule="evenodd" d="M877.5 56.5C879.433 56.5 881 54.933 881 53C881 51.067 879.433 49.5 877.5 49.5C875.567 49.5 874 51.067 874 53C874 54.933 875.567 56.5 877.5 56.5Z" fill="#202020"/>
<path fill-rule="evenodd" clip-rule="evenodd" d="M842.5 56.5C844.433 56.5 846 54.933 846 53C846 51.067 844.433 49.5 842.5 49.5C840.567 49.5 839 51.067 839 53C839 54.933 840.567 56.5 842.5 56.5Z" fill="#202020"/>
<path fill-rule="evenodd" clip-rule="evenodd" d="M807.5 56.5C809.433 56.5 811 54.933 811 53C811 51.067 809.433 49.5 807.5 49.5C805.567 49.5 804 51.067 804 53C804 54.933 805.567 56.5 807.5 56.5Z" fill="#202020"/>
<path fill-rule="evenodd" clip-rule="evenodd" d="M772.5 56.5C774.433 56.5 776 54.933 776 53C776 51.067 774.433 49.5 772.5 49.5C770.567 49.5 769 51.067 769 53C769 54.933 770.567 56.5 772.5 56.5Z" fill="#202020"/>
<path fill-rule="evenodd" clip-rule="evenodd" d="M737.5 56.5C739.433 56.5 741 54.933 741 53C741 51.067 739.433 49.5 737.5 49.5C735.567 49.5 734 51.067 734 53C734 54.933 735.567 56.5 737.5 56.5Z" fill="#202020"/>
<path fill-rule="evenodd" clip-rule="evenodd" d="M702.5 56.5C704.433 56.5 706 54.933 706 53C706 51.067 704.433 49.5 702.5 49.5C700.567 49.5 699 51.067 699 53C699 54.933 700.567 56.5 702.5 56.5Z" fill="#202020"/>
<path fill-rule="evenodd" clip-rule="evenodd" d="M667.5 56.5C669.433 56.5 671 54.933 671 53C671 51.067 669.433 49.5 667.5 49.5C665.567 49.5 664 51.067 664 53C664 54.933 665.567 56.5 667.5 56.5Z" fill="#202020"/>
<path fill-rule="evenodd" clip-rule="evenodd" d="M632.5 56.5C634.433 56.5 636 54.933 636 53C636 51.067 634.433 49.5 632.5 49.5C630.567 49.5 629 51.067 629 53C629 54.933 630.567 56.5 632.5 56.5Z" fill="#202020"/>
<path fill-rule="evenodd" clip-rule="evenodd" d="M597.5 56.5C599.433 56.5 601 54.933 601 53C601 51.067 599.433 49.5 597.5 49.5C595.567 49.5 594 51.067 594 53C594 54.933 595.567 56.5 597.5 56.5Z" fill="#202020"/>
<path fill-rule="evenodd" clip-rule="evenodd" d="M562.5 56.5C564.433 56.5 566 54.933 566 53C566 51.067 564.433 49.5 562.5 49.5C560.567 49.5 559 51.067 559 53C559 54.933 560.567 56.5 562.5 56.5Z" fill="#202020"/>
<path fill-rule="evenodd" clip-rule="evenodd" d="M527.5 56.5C529.433 56.5 531 54.933 531 53C531 51.067 529.433 49.5 527.5 49.5C525.567 49.5 524 51.067 524 53C524 54.933 525.567 56.5 527.5 56.5Z" fill="#202020"/>
<path fill-rule="evenodd" clip-rule="evenodd" d="M492.5 56.5C494.433 56.5 496 54.933 496 53C496 51.067 494.433 49.5 492.5 49.5C490.567 49.5 489 51.067 489 53C489 54.933 490.567 56.5 492.5 56.5Z" fill="#202020"/>
<path fill-rule="evenodd" clip-rule="evenodd" d="M457.5 56.5C459.433 56.5 461 54.933 461 53C461 51.067 459.433 49.5 457.5 49.5C455.567 49.5 454 51.067 454 53C454 54.933 455.567 56.5 457.5 56.5Z" fill="#202020"/>
<path fill-rule="evenodd" clip-rule="evenodd" d="M422.5 56.5C424.433 56.5 426 54.933 426 53C426 51.067 424.433 49.5 422.5 49.5C420.567 49.5 419 51.067 419 53C419 54.933 420.567 56.5 422.5 56.5Z" fill="#202020"/>
<path fill-rule="evenodd" clip-rule="evenodd" d="M387.5 56.5C389.433 56.5 391 54.933 391 53C391 51.067 389.433 49.5 387.5 49.5C385.567 49.5 384 51.067 384 53C384 54.933 385.567 56.5 387.5 56.5Z" fill="#202020"/>
<path fill-rule="evenodd" clip-rule="evenodd" d="M1052.5 21.5C1054.43 21.5 1056 19.933 1056 18C1056 16.067 1054.43 14.5 1052.5 14.5C1050.57 14.5 1049 16.067 1049 18C1049 19.933 1050.57 21.5 1052.5 21.5Z" fill="#202020"/>
<path fill-rule="evenodd" clip-rule="evenodd" d="M1017.5 21.5C1019.43 21.5 1021 19.933 1021 18C1021 16.067 1019.43 14.5 1017.5 14.5C1015.57 14.5 1014 16.067 1014 18C1014 19.933 1015.57 21.5 1017.5 21.5Z" fill="#202020"/>
<path fill-rule="evenodd" clip-rule="evenodd" d="M982.5 21.5C984.433 21.5 986 19.933 986 18C986 16.067 984.433 14.5 982.5 14.5C980.567 14.5 979 16.067 979 18C979 19.933 980.567 21.5 982.5 21.5Z" fill="#202020"/>
<path fill-rule="evenodd" clip-rule="evenodd" d="M947.5 21.5C949.433 21.5 951 19.933 951 18C951 16.067 949.433 14.5 947.5 14.5C945.567 14.5 944 16.067 944 18C944 19.933 945.567 21.5 947.5 21.5Z" fill="#202020"/>
<path fill-rule="evenodd" clip-rule="evenodd" d="M912.5 21.5C914.433 21.5 916 19.933 916 18C916 16.067 914.433 14.5 912.5 14.5C910.567 14.5 909 16.067 909 18C909 19.933 910.567 21.5 912.5 21.5Z" fill="#202020"/>
<path fill-rule="evenodd" clip-rule="evenodd" d="M877.5 21.5C879.433 21.5 881 19.933 881 18C881 16.067 879.433 14.5 877.5 14.5C875.567 14.5 874 16.067 874 18C874 19.933 875.567 21.5 877.5 21.5Z" fill="#202020"/>
<path fill-rule="evenodd" clip-rule="evenodd" d="M842.5 21.5C844.433 21.5 846 19.933 846 18C846 16.067 844.433 14.5 842.5 14.5C840.567 14.5 839 16.067 839 18C839 19.933 840.567 21.5 842.5 21.5Z" fill="#202020"/>
<path fill-rule="evenodd" clip-rule="evenodd" d="M807.5 21.5C809.433 21.5 811 19.933 811 18C811 16.067 809.433 14.5 807.5 14.5C805.567 14.5 804 16.067 804 18C804 19.933 805.567 21.5 807.5 21.5Z" fill="#202020"/>
<path fill-rule="evenodd" clip-rule="evenodd" d="M772.5 21.5C774.433 21.5 776 19.933 776 18C776 16.067 774.433 14.5 772.5 14.5C770.567 14.5 769 16.067 769 18C769 19.933 770.567 21.5 772.5 21.5Z" fill="#202020"/>
<path fill-rule="evenodd" clip-rule="evenodd" d="M737.5 21.5C739.433 21.5 741 19.933 741 18C741 16.067 739.433 14.5 737.5 14.5C735.567 14.5 734 16.067 734 18C734 19.933 735.567 21.5 737.5 21.5Z" fill="#202020"/>
<path fill-rule="evenodd" clip-rule="evenodd" d="M702.5 21.5C704.433 21.5 706 19.933 706 18C706 16.067 704.433 14.5 702.5 14.5C700.567 14.5 699 16.067 699 18C699 19.933 700.567 21.5 702.5 21.5Z" fill="#202020"/>
<path fill-rule="evenodd" clip-rule="evenodd" d="M667.5 21.5C669.433 21.5 671 19.933 671 18C671 16.067 669.433 14.5 667.5 14.5C665.567 14.5 664 16.067 664 18C664 19.933 665.567 21.5 667.5 21.5Z" fill="#202020"/>
<path fill-rule="evenodd" clip-rule="evenodd" d="M632.5 21.5C634.433 21.5 636 19.933 636 18C636 16.067 634.433 14.5 632.5 14.5C630.567 14.5 629 16.067 629 18C629 19.933 630.567 21.5 632.5 21.5Z" fill="#202020"/>
<path fill-rule="evenodd" clip-rule="evenodd" d="M597.5 21.5C599.433 21.5 601 19.933 601 18C601 16.067 599.433 14.5 597.5 14.5C595.567 14.5 594 16.067 594 18C594 19.933 595.567 21.5 597.5 21.5Z" fill="#202020"/>
<path fill-rule="evenodd" clip-rule="evenodd" d="M562.5 21.5C564.433 21.5 566 19.933 566 18C566 16.067 564.433 14.5 562.5 14.5C560.567 14.5 559 16.067 559 18C559 19.933 560.567 21.5 562.5 21.5Z" fill="#202020"/>
<path fill-rule="evenodd" clip-rule="evenodd" d="M527.5 21.5C529.433 21.5 531 19.933 531 18C531 16.067 529.433 14.5 527.5 14.5C525.567 14.5 524 16.067 524 18C524 19.933 525.567 21.5 527.5 21.5Z" fill="#202020"/>
<path fill-rule="evenodd" clip-rule="evenodd" d="M492.5 21.5C494.433 21.5 496 19.933 496 18C496 16.067 494.433 14.5 492.5 14.5C490.567 14.5 489 16.067 489 18C489 19.933 490.567 21.5 492.5 21.5Z" fill="#202020"/>
<path fill-rule="evenodd" clip-rule="evenodd" d="M457.5 21.5C459.433 21.5 461 19.933 461 18C461 16.067 459.433 14.5 457.5 14.5C455.567 14.5 454 16.067 454 18C454 19.933 455.567 21.5 457.5 21.5Z" fill="#202020"/>
<path fill-rule="evenodd" clip-rule="evenodd" d="M422.5 21.5C424.433 21.5 426 19.933 426 18C426 16.067 424.433 14.5 422.5 14.5C420.567 14.5 419 16.067 419 18C419 19.933 420.567 21.5 422.5 21.5Z" fill="#202020"/>
<path fill-rule="evenodd" clip-rule="evenodd" d="M387.5 21.5C389.433 21.5 391 19.933 391 18C391 16.067 389.433 14.5 387.5 14.5C385.567 14.5 384 16.067 384 18C384 19.933 385.567 21.5 387.5 21.5Z" fill="#202020"/>
<path fill-rule="evenodd" clip-rule="evenodd" d="M1437.5 126.5C1439.43 126.5 1441 124.933 1441 123C1441 121.067 1439.43 119.5 1437.5 119.5C1435.57 119.5 1434 121.067 1434 123C1434 124.933 1435.57 126.5 1437.5 126.5Z" fill="#202020"/>
<path fill-rule="evenodd" clip-rule="evenodd" d="M1402.5 126.5C1404.43 126.5 1406 124.933 1406 123C1406 121.067 1404.43 119.5 1402.5 119.5C1400.57 119.5 1399 121.067 1399 123C1399 124.933 1400.57 126.5 1402.5 126.5Z" fill="#202020"/>
<path fill-rule="evenodd" clip-rule="evenodd" d="M1367.5 126.5C1369.43 126.5 1371 124.933 1371 123C1371 121.067 1369.43 119.5 1367.5 119.5C1365.57 119.5 1364 121.067 1364 123C1364 124.933 1365.57 126.5 1367.5 126.5Z" fill="#202020"/>
<path fill-rule="evenodd" clip-rule="evenodd" d="M1332.5 126.5C1334.43 126.5 1336 124.933 1336 123C1336 121.067 1334.43 119.5 1332.5 119.5C1330.57 119.5 1329 121.067 1329 123C1329 124.933 1330.57 126.5 1332.5 126.5Z" fill="#202020"/>
<path fill-rule="evenodd" clip-rule="evenodd" d="M1297.5 126.5C1299.43 126.5 1301 124.933 1301 123C1301 121.067 1299.43 119.5 1297.5 119.5C1295.57 119.5 1294 121.067 1294 123C1294 124.933 1295.57 126.5 1297.5 126.5Z" fill="#202020"/>
<path fill-rule="evenodd" clip-rule="evenodd" d="M1262.5 126.5C1264.43 126.5 1266 124.933 1266 123C1266 121.067 1264.43 119.5 1262.5 119.5C1260.57 119.5 1259 121.067 1259 123C1259 124.933 1260.57 126.5 1262.5 126.5Z" fill="#202020"/>
<path fill-rule="evenodd" clip-rule="evenodd" d="M1227.5 126.5C1229.43 126.5 1231 124.933 1231 123C1231 121.067 1229.43 119.5 1227.5 119.5C1225.57 119.5 1224 121.067 1224 123C1224 124.933 1225.57 126.5 1227.5 126.5Z" fill="#202020"/>
<path fill-rule="evenodd" clip-rule="evenodd" d="M1192.5 126.5C1194.43 126.5 1196 124.933 1196 123C1196 121.067 1194.43 119.5 1192.5 119.5C1190.57 119.5 1189 121.067 1189 123C1189 124.933 1190.57 126.5 1192.5 126.5Z" fill="#202020"/>
<path fill-rule="evenodd" clip-rule="evenodd" d="M1157.5 126.5C1159.43 126.5 1161 124.933 1161 123C1161 121.067 1159.43 119.5 1157.5 119.5C1155.57 119.5 1154 121.067 1154 123C1154 124.933 1155.57 126.5 1157.5 126.5Z" fill="#202020"/>
<path fill-rule="evenodd" clip-rule="evenodd" d="M1122.5 126.5C1124.43 126.5 1126 124.933 1126 123C1126 121.067 1124.43 119.5 1122.5 119.5C1120.57 119.5 1119 121.067 1119 123C1119 124.933 1120.57 126.5 1122.5 126.5Z" fill="#202020"/>
<path fill-rule="evenodd" clip-rule="evenodd" d="M1087.5 126.5C1089.43 126.5 1091 124.933 1091 123C1091 121.067 1089.43 119.5 1087.5 119.5C1085.57 119.5 1084 121.067 1084 123C1084 124.933 1085.57 126.5 1087.5 126.5Z" fill="#202020"/>
<path fill-rule="evenodd" clip-rule="evenodd" d="M1437.5 91.5C1439.43 91.5 1441 89.933 1441 88C1441 86.067 1439.43 84.5 1437.5 84.5C1435.57 84.5 1434 86.067 1434 88C1434 89.933 1435.57 91.5 1437.5 91.5Z" fill="#202020"/>
<path fill-rule="evenodd" clip-rule="evenodd" d="M1402.5 91.5C1404.43 91.5 1406 89.933 1406 88C1406 86.067 1404.43 84.5 1402.5 84.5C1400.57 84.5 1399 86.067 1399 88C1399 89.933 1400.57 91.5 1402.5 91.5Z" fill="#202020"/>
<path fill-rule="evenodd" clip-rule="evenodd" d="M1367.5 91.5C1369.43 91.5 1371 89.933 1371 88C1371 86.067 1369.43 84.5 1367.5 84.5C1365.57 84.5 1364 86.067 1364 88C1364 89.933 1365.57 91.5 1367.5 91.5Z" fill="#202020"/>
<path fill-rule="evenodd" clip-rule="evenodd" d="M1332.5 91.5C1334.43 91.5 1336 89.933 1336 88C1336 86.067 1334.43 84.5 1332.5 84.5C1330.57 84.5 1329 86.067 1329 88C1329 89.933 1330.57 91.5 1332.5 91.5Z" fill="#202020"/>
<path fill-rule="evenodd" clip-rule="evenodd" d="M1297.5 91.5C1299.43 91.5 1301 89.933 1301 88C1301 86.067 1299.43 84.5 1297.5 84.5C1295.57 84.5 1294 86.067 1294 88C1294 89.933 1295.57 91.5 1297.5 91.5Z" fill="#202020"/>
<path fill-rule="evenodd" clip-rule="evenodd" d="M1262.5 91.5C1264.43 91.5 1266 89.933 1266 88C1266 86.067 1264.43 84.5 1262.5 84.5C1260.57 84.5 1259 86.067 1259 88C1259 89.933 1260.57 91.5 1262.5 91.5Z" fill="#202020"/>
<path fill-rule="evenodd" clip-rule="evenodd" d="M1227.5 91.5C1229.43 91.5 1231 89.933 1231 88C1231 86.067 1229.43 84.5 1227.5 84.5C1225.57 84.5 1224 86.067 1224 88C1224 89.933 1225.57 91.5 1227.5 91.5Z" fill="#202020"/>
<path fill-rule="evenodd" clip-rule="evenodd" d="M1192.5 91.5C1194.43 91.5 1196 89.933 1196 88C1196 86.067 1194.43 84.5 1192.5 84.5C1190.57 84.5 1189 86.067 1189 88C1189 89.933 1190.57 91.5 1192.5 91.5Z" fill="#202020"/>
<path fill-rule="evenodd" clip-rule="evenodd" d="M1157.5 91.5C1159.43 91.5 1161 89.933 1161 88C1161 86.067 1159.43 84.5 1157.5 84.5C1155.57 84.5 1154 86.067 1154 88C1154 89.933 1155.57 91.5 1157.5 91.5Z" fill="#202020"/>
<path fill-rule="evenodd" clip-rule="evenodd" d="M1122.5 91.5C1124.43 91.5 1126 89.933 1126 88C1126 86.067 1124.43 84.5 1122.5 84.5C1120.57 84.5 1119 86.067 1119 88C1119 89.933 1120.57 91.5 1122.5 91.5Z" fill="#202020"/>
<path fill-rule="evenodd" clip-rule="evenodd" d="M1087.5 91.5C1089.43 91.5 1091 89.933 1091 88C1091 86.067 1089.43 84.5 1087.5 84.5C1085.57 84.5 1084 86.067 1084 88C1084 89.933 1085.57 91.5 1087.5 91.5Z" fill="#202020"/>
<path fill-rule="evenodd" clip-rule="evenodd" d="M1437.5 56.5C1439.43 56.5 1441 54.933 1441 53C1441 51.067 1439.43 49.5 1437.5 49.5C1435.57 49.5 1434 51.067 1434 53C1434 54.933 1435.57 56.5 1437.5 56.5Z" fill="#202020"/>
<path fill-rule="evenodd" clip-rule="evenodd" d="M1402.5 56.5C1404.43 56.5 1406 54.933 1406 53C1406 51.067 1404.43 49.5 1402.5 49.5C1400.57 49.5 1399 51.067 1399 53C1399 54.933 1400.57 56.5 1402.5 56.5Z" fill="#202020"/>
<path fill-rule="evenodd" clip-rule="evenodd" d="M1367.5 56.5C1369.43 56.5 1371 54.933 1371 53C1371 51.067 1369.43 49.5 1367.5 49.5C1365.57 49.5 1364 51.067 1364 53C1364 54.933 1365.57 56.5 1367.5 56.5Z" fill="#202020"/>
<path fill-rule="evenodd" clip-rule="evenodd" d="M1332.5 56.5C1334.43 56.5 1336 54.933 1336 53C1336 51.067 1334.43 49.5 1332.5 49.5C1330.57 49.5 1329 51.067 1329 53C1329 54.933 1330.57 56.5 1332.5 56.5Z" fill="#202020"/>
<path fill-rule="evenodd" clip-rule="evenodd" d="M1297.5 56.5C1299.43 56.5 1301 54.933 1301 53C1301 51.067 1299.43 49.5 1297.5 49.5C1295.57 49.5 1294 51.067 1294 53C1294 54.933 1295.57 56.5 1297.5 56.5Z" fill="#202020"/>
<path fill-rule="evenodd" clip-rule="evenodd" d="M1262.5 56.5C1264.43 56.5 1266 54.933 1266 53C1266 51.067 1264.43 49.5 1262.5 49.5C1260.57 49.5 1259 51.067 1259 53C1259 54.933 1260.57 56.5 1262.5 56.5Z" fill="#202020"/>
<path fill-rule="evenodd" clip-rule="evenodd" d="M1227.5 56.5C1229.43 56.5 1231 54.933 1231 53C1231 51.067 1229.43 49.5 1227.5 49.5C1225.57 49.5 1224 51.067 1224 53C1224 54.933 1225.57 56.5 1227.5 56.5Z" fill="#202020"/>
<path fill-rule="evenodd" clip-rule="evenodd" d="M1192.5 56.5C1194.43 56.5 1196 54.933 1196 53C1196 51.067 1194.43 49.5 1192.5 49.5C1190.57 49.5 1189 51.067 1189 53C1189 54.933 1190.57 56.5 1192.5 56.5Z" fill="#202020"/>
<path fill-rule="evenodd" clip-rule="evenodd" d="M1157.5 56.5C1159.43 56.5 1161 54.933 1161 53C1161 51.067 1159.43 49.5 1157.5 49.5C1155.57 49.5 1154 51.067 1154 53C1154 54.933 1155.57 56.5 1157.5 56.5Z" fill="#202020"/>
<path fill-rule="evenodd" clip-rule="evenodd" d="M1122.5 56.5C1124.43 56.5 1126 54.933 1126 53C1126 51.067 1124.43 49.5 1122.5 49.5C1120.57 49.5 1119 51.067 1119 53C1119 54.933 1120.57 56.5 1122.5 56.5Z" fill="#202020"/>
<path fill-rule="evenodd" clip-rule="evenodd" d="M1087.5 56.5C1089.43 56.5 1091 54.933 1091 53C1091 51.067 1089.43 49.5 1087.5 49.5C1085.57 49.5 1084 51.067 1084 53C1084 54.933 1085.57 56.5 1087.5 56.5Z" fill="#202020"/>
<path fill-rule="evenodd" clip-rule="evenodd" d="M1437.5 21.5C1439.43 21.5 1441 19.933 1441 18C1441 16.067 1439.43 14.5 1437.5 14.5C1435.57 14.5 1434 16.067 1434 18C1434 19.933 1435.57 21.5 1437.5 21.5Z" fill="#202020"/>
<path fill-rule="evenodd" clip-rule="evenodd" d="M1402.5 21.5C1404.43 21.5 1406 19.933 1406 18C1406 16.067 1404.43 14.5 1402.5 14.5C1400.57 14.5 1399 16.067 1399 18C1399 19.933 1400.57 21.5 1402.5 21.5Z" fill="#202020"/>
<path fill-rule="evenodd" clip-rule="evenodd" d="M1367.5 21.5C1369.43 21.5 1371 19.933 1371 18C1371 16.067 1369.43 14.5 1367.5 14.5C1365.57 14.5 1364 16.067 1364 18C1364 19.933 1365.57 21.5 1367.5 21.5Z" fill="#202020"/>
<path fill-rule="evenodd" clip-rule="evenodd" d="M1332.5 21.5C1334.43 21.5 1336 19.933 1336 18C1336 16.067 1334.43 14.5 1332.5 14.5C1330.57 14.5 1329 16.067 1329 18C1329 19.933 1330.57 21.5 1332.5 21.5Z" fill="#202020"/>
<path fill-rule="evenodd" clip-rule="evenodd" d="M1297.5 21.5C1299.43 21.5 1301 19.933 1301 18C1301 16.067 1299.43 14.5 1297.5 14.5C1295.57 14.5 1294 16.067 1294 18C1294 19.933 1295.57 21.5 1297.5 21.5Z" fill="#202020"/>
<path fill-rule="evenodd" clip-rule="evenodd" d="M1262.5 21.5C1264.43 21.5 1266 19.933 1266 18C1266 16.067 1264.43 14.5 1262.5 14.5C1260.57 14.5 1259 16.067 1259 18C1259 19.933 1260.57 21.5 1262.5 21.5Z" fill="#202020"/>
<path fill-rule="evenodd" clip-rule="evenodd" d="M1227.5 21.5C1229.43 21.5 1231 19.933 1231 18C1231 16.067 1229.43 14.5 1227.5 14.5C1225.57 14.5 1224 16.067 1224 18C1224 19.933 1225.57 21.5 1227.5 21.5Z" fill="#202020"/>
<path fill-rule="evenodd" clip-rule="evenodd" d="M1192.5 21.5C1194.43 21.5 1196 19.933 1196 18C1196 16.067 1194.43 14.5 1192.5 14.5C1190.57 14.5 1189 16.067 1189 18C1189 19.933 1190.57 21.5 1192.5 21.5Z" fill="#202020"/>
<path fill-rule="evenodd" clip-rule="evenodd" d="M1157.5 21.5C1159.43 21.5 1161 19.933 1161 18C1161 16.067 1159.43 14.5 1157.5 14.5C1155.57 14.5 1154 16.067 1154 18C1154 19.933 1155.57 21.5 1157.5 21.5Z" fill="#202020"/>
<path fill-rule="evenodd" clip-rule="evenodd" d="M1122.5 21.5C1124.43 21.5 1126 19.933 1126 18C1126 16.067 1124.43 14.5 1122.5 14.5C1120.57 14.5 1119 16.067 1119 18C1119 19.933 1120.57 21.5 1122.5 21.5Z" fill="#202020"/>
<path fill-rule="evenodd" clip-rule="evenodd" d="M1087.5 21.5C1089.43 21.5 1091 19.933 1091 18C1091 16.067 1089.43 14.5 1087.5 14.5C1085.57 14.5 1084 16.067 1084 18C1084 19.933 1085.57 21.5 1087.5 21.5Z" fill="#202020"/>
</g>
</svg>
