<svg width="1440" height="127" viewBox="0 0 1440 127" fill="none" xmlns="http://www.w3.org/2000/svg">
<g clip-path="url(#clip0)">
<rect width="1440" height="127" fill="white"/>
<mask id="mask0" mask-type="alpha" maskUnits="userSpaceOnUse" x="0" y="-14" width="1440" height="141">
<path d="M0 127V-14H1440V127H0Z" fill="#C4C4C4"/>
</mask>
<g mask="url(#mask0)">
<rect width="2072" height="14427" transform="translate(-316 -279.5)" fill="#171717"/>
<path fill-rule="evenodd" clip-rule="evenodd" d="M352.5 112.5C354.433 112.5 356 110.933 356 109C356 107.067 354.433 105.5 352.5 105.5C350.567 105.5 349 107.067 349 109C349 110.933 350.567 112.5 352.5 112.5Z" fill="#202020"/>
<path fill-rule="evenodd" clip-rule="evenodd" d="M317.5 112.5C319.433 112.5 321 110.933 321 109C321 107.067 319.433 105.5 317.5 105.5C315.567 105.5 314 107.067 314 109C314 110.933 315.567 112.5 317.5 112.5Z" fill="#202020"/>
<path fill-rule="evenodd" clip-rule="evenodd" d="M282.5 112.5C284.433 112.5 286 110.933 286 109C286 107.067 284.433 105.5 282.5 105.5C280.567 105.5 279 107.067 279 109C279 110.933 280.567 112.5 282.5 112.5Z" fill="#202020"/>
<path fill-rule="evenodd" clip-rule="evenodd" d="M247.5 112.5C249.433 112.5 251 110.933 251 109C251 107.067 249.433 105.5 247.5 105.5C245.567 105.5 244 107.067 244 109C244 110.933 245.567 112.5 247.5 112.5Z" fill="#202020"/>
<path fill-rule="evenodd" clip-rule="evenodd" d="M212.5 112.5C214.433 112.5 216 110.933 216 109C216 107.067 214.433 105.5 212.5 105.5C210.567 105.5 209 107.067 209 109C209 110.933 210.567 112.5 212.5 112.5Z" fill="#202020"/>
<path fill-rule="evenodd" clip-rule="evenodd" d="M177.5 112.5C179.433 112.5 181 110.933 181 109C181 107.067 179.433 105.5 177.5 105.5C175.567 105.5 174 107.067 174 109C174 110.933 175.567 112.5 177.5 112.5Z" fill="#202020"/>
<path fill-rule="evenodd" clip-rule="evenodd" d="M142.5 112.5C144.433 112.5 146 110.933 146 109C146 107.067 144.433 105.5 142.5 105.5C140.567 105.5 139 107.067 139 109C139 110.933 140.567 112.5 142.5 112.5Z" fill="#202020"/>
<path fill-rule="evenodd" clip-rule="evenodd" d="M107.5 112.5C109.433 112.5 111 110.933 111 109C111 107.067 109.433 105.5 107.5 105.5C105.567 105.5 104 107.067 104 109C104 110.933 105.567 112.5 107.5 112.5Z" fill="#202020"/>
<path fill-rule="evenodd" clip-rule="evenodd" d="M72.5 112.5C74.433 112.5 76 110.933 76 109C76 107.067 74.433 105.5 72.5 105.5C70.567 105.5 69 107.067 69 109C69 110.933 70.567 112.5 72.5 112.5Z" fill="#202020"/>
<path fill-rule="evenodd" clip-rule="evenodd" d="M37.5 112.5C39.433 112.5 41 110.933 41 109C41 107.067 39.433 105.5 37.5 105.5C35.567 105.5 34 107.067 34 109C34 110.933 35.567 112.5 37.5 112.5Z" fill="#202020"/>
<path fill-rule="evenodd" clip-rule="evenodd" d="M2.5 112.5C4.433 112.5 6 110.933 6 109C6 107.067 4.433 105.5 2.5 105.5C0.567003 105.5 -1 107.067 -1 109C-1 110.933 0.567003 112.5 2.5 112.5Z" fill="#202020"/>
<path fill-rule="evenodd" clip-rule="evenodd" d="M352.5 77.5C354.433 77.5 356 75.933 356 74C356 72.067 354.433 70.5 352.5 70.5C350.567 70.5 349 72.067 349 74C349 75.933 350.567 77.5 352.5 77.5Z" fill="#202020"/>
<path fill-rule="evenodd" clip-rule="evenodd" d="M317.5 77.5C319.433 77.5 321 75.933 321 74C321 72.067 319.433 70.5 317.5 70.5C315.567 70.5 314 72.067 314 74C314 75.933 315.567 77.5 317.5 77.5Z" fill="#202020"/>
<path fill-rule="evenodd" clip-rule="evenodd" d="M282.5 77.5C284.433 77.5 286 75.933 286 74C286 72.067 284.433 70.5 282.5 70.5C280.567 70.5 279 72.067 279 74C279 75.933 280.567 77.5 282.5 77.5Z" fill="#202020"/>
<path fill-rule="evenodd" clip-rule="evenodd" d="M247.5 77.5C249.433 77.5 251 75.933 251 74C251 72.067 249.433 70.5 247.5 70.5C245.567 70.5 244 72.067 244 74C244 75.933 245.567 77.5 247.5 77.5Z" fill="#202020"/>
<path fill-rule="evenodd" clip-rule="evenodd" d="M212.5 77.5C214.433 77.5 216 75.933 216 74C216 72.067 214.433 70.5 212.5 70.5C210.567 70.5 209 72.067 209 74C209 75.933 210.567 77.5 212.5 77.5Z" fill="#202020"/>
<path fill-rule="evenodd" clip-rule="evenodd" d="M177.5 77.5C179.433 77.5 181 75.933 181 74C181 72.067 179.433 70.5 177.5 70.5C175.567 70.5 174 72.067 174 74C174 75.933 175.567 77.5 177.5 77.5Z" fill="#202020"/>
<path fill-rule="evenodd" clip-rule="evenodd" d="M142.5 77.5C144.433 77.5 146 75.933 146 74C146 72.067 144.433 70.5 142.5 70.5C140.567 70.5 139 72.067 139 74C139 75.933 140.567 77.5 142.5 77.5Z" fill="#202020"/>
<path fill-rule="evenodd" clip-rule="evenodd" d="M107.5 77.5C109.433 77.5 111 75.933 111 74C111 72.067 109.433 70.5 107.5 70.5C105.567 70.5 104 72.067 104 74C104 75.933 105.567 77.5 107.5 77.5Z" fill="#202020"/>
<path fill-rule="evenodd" clip-rule="evenodd" d="M72.5 77.5C74.433 77.5 76 75.933 76 74C76 72.067 74.433 70.5 72.5 70.5C70.567 70.5 69 72.067 69 74C69 75.933 70.567 77.5 72.5 77.5Z" fill="#202020"/>
<path fill-rule="evenodd" clip-rule="evenodd" d="M37.5 77.5C39.433 77.5 41 75.933 41 74C41 72.067 39.433 70.5 37.5 70.5C35.567 70.5 34 72.067 34 74C34 75.933 35.567 77.5 37.5 77.5Z" fill="#202020"/>
<path fill-rule="evenodd" clip-rule="evenodd" d="M2.5 77.5C4.433 77.5 6 75.933 6 74C6 72.067 4.433 70.5 2.5 70.5C0.567003 70.5 -1 72.067 -1 74C-1 75.933 0.567003 77.5 2.5 77.5Z" fill="#202020"/>
<path fill-rule="evenodd" clip-rule="evenodd" d="M352.5 42.5C354.433 42.5 356 40.933 356 39C356 37.067 354.433 35.5 352.5 35.5C350.567 35.5 349 37.067 349 39C349 40.933 350.567 42.5 352.5 42.5Z" fill="#202020"/>
<path fill-rule="evenodd" clip-rule="evenodd" d="M317.5 42.5C319.433 42.5 321 40.933 321 39C321 37.067 319.433 35.5 317.5 35.5C315.567 35.5 314 37.067 314 39C314 40.933 315.567 42.5 317.5 42.5Z" fill="#202020"/>
<path fill-rule="evenodd" clip-rule="evenodd" d="M282.5 42.5C284.433 42.5 286 40.933 286 39C286 37.067 284.433 35.5 282.5 35.5C280.567 35.5 279 37.067 279 39C279 40.933 280.567 42.5 282.5 42.5Z" fill="#202020"/>
<path fill-rule="evenodd" clip-rule="evenodd" d="M247.5 42.5C249.433 42.5 251 40.933 251 39C251 37.067 249.433 35.5 247.5 35.5C245.567 35.5 244 37.067 244 39C244 40.933 245.567 42.5 247.5 42.5Z" fill="#202020"/>
<path fill-rule="evenodd" clip-rule="evenodd" d="M212.5 42.5C214.433 42.5 216 40.933 216 39C216 37.067 214.433 35.5 212.5 35.5C210.567 35.5 209 37.067 209 39C209 40.933 210.567 42.5 212.5 42.5Z" fill="#202020"/>
<path fill-rule="evenodd" clip-rule="evenodd" d="M177.5 42.5C179.433 42.5 181 40.933 181 39C181 37.067 179.433 35.5 177.5 35.5C175.567 35.5 174 37.067 174 39C174 40.933 175.567 42.5 177.5 42.5Z" fill="#202020"/>
<path fill-rule="evenodd" clip-rule="evenodd" d="M142.5 42.5C144.433 42.5 146 40.933 146 39C146 37.067 144.433 35.5 142.5 35.5C140.567 35.5 139 37.067 139 39C139 40.933 140.567 42.5 142.5 42.5Z" fill="#202020"/>
<path fill-rule="evenodd" clip-rule="evenodd" d="M107.5 42.5C109.433 42.5 111 40.933 111 39C111 37.067 109.433 35.5 107.5 35.5C105.567 35.5 104 37.067 104 39C104 40.933 105.567 42.5 107.5 42.5Z" fill="#202020"/>
<path fill-rule="evenodd" clip-rule="evenodd" d="M72.5 42.5C74.433 42.5 76 40.933 76 39C76 37.067 74.433 35.5 72.5 35.5C70.567 35.5 69 37.067 69 39C69 40.933 70.567 42.5 72.5 42.5Z" fill="#202020"/>
<path fill-rule="evenodd" clip-rule="evenodd" d="M37.5 42.5C39.433 42.5 41 40.933 41 39C41 37.067 39.433 35.5 37.5 35.5C35.567 35.5 34 37.067 34 39C34 40.933 35.567 42.5 37.5 42.5Z" fill="#202020"/>
<path fill-rule="evenodd" clip-rule="evenodd" d="M2.5 42.5C4.433 42.5 6 40.933 6 39C6 37.067 4.433 35.5 2.5 35.5C0.567003 35.5 -1 37.067 -1 39C-1 40.933 0.567003 42.5 2.5 42.5Z" fill="#202020"/>
<path fill-rule="evenodd" clip-rule="evenodd" d="M352.5 7.5C354.433 7.5 356 5.933 356 4C356 2.067 354.433 0.5 352.5 0.5C350.567 0.5 349 2.067 349 4C349 5.933 350.567 7.5 352.5 7.5Z" fill="#202020"/>
<path fill-rule="evenodd" clip-rule="evenodd" d="M317.5 7.5C319.433 7.5 321 5.933 321 4C321 2.067 319.433 0.5 317.5 0.5C315.567 0.5 314 2.067 314 4C314 5.933 315.567 7.5 317.5 7.5Z" fill="#202020"/>
<path fill-rule="evenodd" clip-rule="evenodd" d="M282.5 7.5C284.433 7.5 286 5.933 286 4C286 2.067 284.433 0.5 282.5 0.5C280.567 0.5 279 2.067 279 4C279 5.933 280.567 7.5 282.5 7.5Z" fill="#202020"/>
<path fill-rule="evenodd" clip-rule="evenodd" d="M247.5 7.5C249.433 7.5 251 5.933 251 4C251 2.067 249.433 0.5 247.5 0.5C245.567 0.5 244 2.067 244 4C244 5.933 245.567 7.5 247.5 7.5Z" fill="#202020"/>
<path fill-rule="evenodd" clip-rule="evenodd" d="M212.5 7.5C214.433 7.5 216 5.933 216 4C216 2.067 214.433 0.5 212.5 0.5C210.567 0.5 209 2.067 209 4C209 5.933 210.567 7.5 212.5 7.5Z" fill="#202020"/>
<path fill-rule="evenodd" clip-rule="evenodd" d="M177.5 7.5C179.433 7.5 181 5.933 181 4C181 2.067 179.433 0.5 177.5 0.5C175.567 0.5 174 2.067 174 4C174 5.933 175.567 7.5 177.5 7.5Z" fill="#202020"/>
<path fill-rule="evenodd" clip-rule="evenodd" d="M142.5 7.5C144.433 7.5 146 5.933 146 4C146 2.067 144.433 0.5 142.5 0.5C140.567 0.5 139 2.067 139 4C139 5.933 140.567 7.5 142.5 7.5Z" fill="#202020"/>
<path fill-rule="evenodd" clip-rule="evenodd" d="M107.5 7.5C109.433 7.5 111 5.933 111 4C111 2.067 109.433 0.5 107.5 0.5C105.567 0.5 104 2.067 104 4C104 5.933 105.567 7.5 107.5 7.5Z" fill="#202020"/>
<path fill-rule="evenodd" clip-rule="evenodd" d="M72.5 7.5C74.433 7.5 76 5.933 76 4C76 2.067 74.433 0.5 72.5 0.5C70.567 0.5 69 2.067 69 4C69 5.933 70.567 7.5 72.5 7.5Z" fill="#202020"/>
<path fill-rule="evenodd" clip-rule="evenodd" d="M37.5 7.5C39.433 7.5 41 5.933 41 4C41 2.067 39.433 0.5 37.5 0.5C35.567 0.5 34 2.067 34 4C34 5.933 35.567 7.5 37.5 7.5Z" fill="#202020"/>
<path fill-rule="evenodd" clip-rule="evenodd" d="M2.5 7.5C4.433 7.5 6 5.933 6 4C6 2.067 4.433 0.5 2.5 0.5C0.567003 0.5 -1 2.067 -1 4C-1 5.933 0.567003 7.5 2.5 7.5Z" fill="#202020"/>
<path fill-rule="evenodd" clip-rule="evenodd" d="M1052.5 112.5C1054.43 112.5 1056 110.933 1056 109C1056 107.067 1054.43 105.5 1052.5 105.5C1050.57 105.5 1049 107.067 1049 109C1049 110.933 1050.57 112.5 1052.5 112.5Z" fill="#202020"/>
<path fill-rule="evenodd" clip-rule="evenodd" d="M1017.5 112.5C1019.43 112.5 1021 110.933 1021 109C1021 107.067 1019.43 105.5 1017.5 105.5C1015.57 105.5 1014 107.067 1014 109C1014 110.933 1015.57 112.5 1017.5 112.5Z" fill="#202020"/>
<path fill-rule="evenodd" clip-rule="evenodd" d="M982.5 112.5C984.433 112.5 986 110.933 986 109C986 107.067 984.433 105.5 982.5 105.5C980.567 105.5 979 107.067 979 109C979 110.933 980.567 112.5 982.5 112.5Z" fill="#202020"/>
<path fill-rule="evenodd" clip-rule="evenodd" d="M947.5 112.5C949.433 112.5 951 110.933 951 109C951 107.067 949.433 105.5 947.5 105.5C945.567 105.5 944 107.067 944 109C944 110.933 945.567 112.5 947.5 112.5Z" fill="#202020"/>
<path fill-rule="evenodd" clip-rule="evenodd" d="M912.5 112.5C914.433 112.5 916 110.933 916 109C916 107.067 914.433 105.5 912.5 105.5C910.567 105.5 909 107.067 909 109C909 110.933 910.567 112.5 912.5 112.5Z" fill="#202020"/>
<path fill-rule="evenodd" clip-rule="evenodd" d="M877.5 112.5C879.433 112.5 881 110.933 881 109C881 107.067 879.433 105.5 877.5 105.5C875.567 105.5 874 107.067 874 109C874 110.933 875.567 112.5 877.5 112.5Z" fill="#202020"/>
<path fill-rule="evenodd" clip-rule="evenodd" d="M842.5 112.5C844.433 112.5 846 110.933 846 109C846 107.067 844.433 105.5 842.5 105.5C840.567 105.5 839 107.067 839 109C839 110.933 840.567 112.5 842.5 112.5Z" fill="#202020"/>
<path fill-rule="evenodd" clip-rule="evenodd" d="M807.5 112.5C809.433 112.5 811 110.933 811 109C811 107.067 809.433 105.5 807.5 105.5C805.567 105.5 804 107.067 804 109C804 110.933 805.567 112.5 807.5 112.5Z" fill="#202020"/>
<path fill-rule="evenodd" clip-rule="evenodd" d="M772.5 112.5C774.433 112.5 776 110.933 776 109C776 107.067 774.433 105.5 772.5 105.5C770.567 105.5 769 107.067 769 109C769 110.933 770.567 112.5 772.5 112.5Z" fill="#202020"/>
<path fill-rule="evenodd" clip-rule="evenodd" d="M737.5 112.5C739.433 112.5 741 110.933 741 109C741 107.067 739.433 105.5 737.5 105.5C735.567 105.5 734 107.067 734 109C734 110.933 735.567 112.5 737.5 112.5Z" fill="#202020"/>
<path fill-rule="evenodd" clip-rule="evenodd" d="M702.5 112.5C704.433 112.5 706 110.933 706 109C706 107.067 704.433 105.5 702.5 105.5C700.567 105.5 699 107.067 699 109C699 110.933 700.567 112.5 702.5 112.5Z" fill="#202020"/>
<path fill-rule="evenodd" clip-rule="evenodd" d="M667.5 112.5C669.433 112.5 671 110.933 671 109C671 107.067 669.433 105.5 667.5 105.5C665.567 105.5 664 107.067 664 109C664 110.933 665.567 112.5 667.5 112.5Z" fill="#202020"/>
<path fill-rule="evenodd" clip-rule="evenodd" d="M632.5 112.5C634.433 112.5 636 110.933 636 109C636 107.067 634.433 105.5 632.5 105.5C630.567 105.5 629 107.067 629 109C629 110.933 630.567 112.5 632.5 112.5Z" fill="#202020"/>
<path fill-rule="evenodd" clip-rule="evenodd" d="M597.5 112.5C599.433 112.5 601 110.933 601 109C601 107.067 599.433 105.5 597.5 105.5C595.567 105.5 594 107.067 594 109C594 110.933 595.567 112.5 597.5 112.5Z" fill="#202020"/>
<path fill-rule="evenodd" clip-rule="evenodd" d="M562.5 112.5C564.433 112.5 566 110.933 566 109C566 107.067 564.433 105.5 562.5 105.5C560.567 105.5 559 107.067 559 109C559 110.933 560.567 112.5 562.5 112.5Z" fill="#202020"/>
<path fill-rule="evenodd" clip-rule="evenodd" d="M527.5 112.5C529.433 112.5 531 110.933 531 109C531 107.067 529.433 105.5 527.5 105.5C525.567 105.5 524 107.067 524 109C524 110.933 525.567 112.5 527.5 112.5Z" fill="#202020"/>
<path fill-rule="evenodd" clip-rule="evenodd" d="M492.5 112.5C494.433 112.5 496 110.933 496 109C496 107.067 494.433 105.5 492.5 105.5C490.567 105.5 489 107.067 489 109C489 110.933 490.567 112.5 492.5 112.5Z" fill="#202020"/>
<path fill-rule="evenodd" clip-rule="evenodd" d="M457.5 112.5C459.433 112.5 461 110.933 461 109C461 107.067 459.433 105.5 457.5 105.5C455.567 105.5 454 107.067 454 109C454 110.933 455.567 112.5 457.5 112.5Z" fill="#202020"/>
<path fill-rule="evenodd" clip-rule="evenodd" d="M422.5 112.5C424.433 112.5 426 110.933 426 109C426 107.067 424.433 105.5 422.5 105.5C420.567 105.5 419 107.067 419 109C419 110.933 420.567 112.5 422.5 112.5Z" fill="#202020"/>
<path fill-rule="evenodd" clip-rule="evenodd" d="M387.5 112.5C389.433 112.5 391 110.933 391 109C391 107.067 389.433 105.5 387.5 105.5C385.567 105.5 384 107.067 384 109C384 110.933 385.567 112.5 387.5 112.5Z" fill="#202020"/>
<path fill-rule="evenodd" clip-rule="evenodd" d="M1052.5 77.5C1054.43 77.5 1056 75.933 1056 74C1056 72.067 1054.43 70.5 1052.5 70.5C1050.57 70.5 1049 72.067 1049 74C1049 75.933 1050.57 77.5 1052.5 77.5Z" fill="#202020"/>
<path fill-rule="evenodd" clip-rule="evenodd" d="M1017.5 77.5C1019.43 77.5 1021 75.933 1021 74C1021 72.067 1019.43 70.5 1017.5 70.5C1015.57 70.5 1014 72.067 1014 74C1014 75.933 1015.57 77.5 1017.5 77.5Z" fill="#202020"/>
<path fill-rule="evenodd" clip-rule="evenodd" d="M982.5 77.5C984.433 77.5 986 75.933 986 74C986 72.067 984.433 70.5 982.5 70.5C980.567 70.5 979 72.067 979 74C979 75.933 980.567 77.5 982.5 77.5Z" fill="#202020"/>
<path fill-rule="evenodd" clip-rule="evenodd" d="M947.5 77.5C949.433 77.5 951 75.933 951 74C951 72.067 949.433 70.5 947.5 70.5C945.567 70.5 944 72.067 944 74C944 75.933 945.567 77.5 947.5 77.5Z" fill="#202020"/>
<path fill-rule="evenodd" clip-rule="evenodd" d="M912.5 77.5C914.433 77.5 916 75.933 916 74C916 72.067 914.433 70.5 912.5 70.5C910.567 70.5 909 72.067 909 74C909 75.933 910.567 77.5 912.5 77.5Z" fill="#202020"/>
<path fill-rule="evenodd" clip-rule="evenodd" d="M877.5 77.5C879.433 77.5 881 75.933 881 74C881 72.067 879.433 70.5 877.5 70.5C875.567 70.5 874 72.067 874 74C874 75.933 875.567 77.5 877.5 77.5Z" fill="#202020"/>
<path fill-rule="evenodd" clip-rule="evenodd" d="M842.5 77.5C844.433 77.5 846 75.933 846 74C846 72.067 844.433 70.5 842.5 70.5C840.567 70.5 839 72.067 839 74C839 75.933 840.567 77.5 842.5 77.5Z" fill="#202020"/>
<path fill-rule="evenodd" clip-rule="evenodd" d="M807.5 77.5C809.433 77.5 811 75.933 811 74C811 72.067 809.433 70.5 807.5 70.5C805.567 70.5 804 72.067 804 74C804 75.933 805.567 77.5 807.5 77.5Z" fill="#202020"/>
<path fill-rule="evenodd" clip-rule="evenodd" d="M772.5 77.5C774.433 77.5 776 75.933 776 74C776 72.067 774.433 70.5 772.5 70.5C770.567 70.5 769 72.067 769 74C769 75.933 770.567 77.5 772.5 77.5Z" fill="#202020"/>
<path fill-rule="evenodd" clip-rule="evenodd" d="M737.5 77.5C739.433 77.5 741 75.933 741 74C741 72.067 739.433 70.5 737.5 70.5C735.567 70.5 734 72.067 734 74C734 75.933 735.567 77.5 737.5 77.5Z" fill="#202020"/>
<path fill-rule="evenodd" clip-rule="evenodd" d="M702.5 77.5C704.433 77.5 706 75.933 706 74C706 72.067 704.433 70.5 702.5 70.5C700.567 70.5 699 72.067 699 74C699 75.933 700.567 77.5 702.5 77.5Z" fill="#202020"/>
<path fill-rule="evenodd" clip-rule="evenodd" d="M667.5 77.5C669.433 77.5 671 75.933 671 74C671 72.067 669.433 70.5 667.5 70.5C665.567 70.5 664 72.067 664 74C664 75.933 665.567 77.5 667.5 77.5Z" fill="#202020"/>
<path fill-rule="evenodd" clip-rule="evenodd" d="M632.5 77.5C634.433 77.5 636 75.933 636 74C636 72.067 634.433 70.5 632.5 70.5C630.567 70.5 629 72.067 629 74C629 75.933 630.567 77.5 632.5 77.5Z" fill="#202020"/>
<path fill-rule="evenodd" clip-rule="evenodd" d="M597.5 77.5C599.433 77.5 601 75.933 601 74C601 72.067 599.433 70.5 597.5 70.5C595.567 70.5 594 72.067 594 74C594 75.933 595.567 77.5 597.5 77.5Z" fill="#202020"/>
<path fill-rule="evenodd" clip-rule="evenodd" d="M562.5 77.5C564.433 77.5 566 75.933 566 74C566 72.067 564.433 70.5 562.5 70.5C560.567 70.5 559 72.067 559 74C559 75.933 560.567 77.5 562.5 77.5Z" fill="#202020"/>
<path fill-rule="evenodd" clip-rule="evenodd" d="M527.5 77.5C529.433 77.5 531 75.933 531 74C531 72.067 529.433 70.5 527.5 70.5C525.567 70.5 524 72.067 524 74C524 75.933 525.567 77.5 527.5 77.5Z" fill="#202020"/>
<path fill-rule="evenodd" clip-rule="evenodd" d="M492.5 77.5C494.433 77.5 496 75.933 496 74C496 72.067 494.433 70.5 492.5 70.5C490.567 70.5 489 72.067 489 74C489 75.933 490.567 77.5 492.5 77.5Z" fill="#202020"/>
<path fill-rule="evenodd" clip-rule="evenodd" d="M457.5 77.5C459.433 77.5 461 75.933 461 74C461 72.067 459.433 70.5 457.5 70.5C455.567 70.5 454 72.067 454 74C454 75.933 455.567 77.5 457.5 77.5Z" fill="#202020"/>
<path fill-rule="evenodd" clip-rule="evenodd" d="M422.5 77.5C424.433 77.5 426 75.933 426 74C426 72.067 424.433 70.5 422.5 70.5C420.567 70.5 419 72.067 419 74C419 75.933 420.567 77.5 422.5 77.5Z" fill="#202020"/>
<path fill-rule="evenodd" clip-rule="evenodd" d="M387.5 77.5C389.433 77.5 391 75.933 391 74C391 72.067 389.433 70.5 387.5 70.5C385.567 70.5 384 72.067 384 74C384 75.933 385.567 77.5 387.5 77.5Z" fill="#202020"/>
<path fill-rule="evenodd" clip-rule="evenodd" d="M1052.5 42.5C1054.43 42.5 1056 40.933 1056 39C1056 37.067 1054.43 35.5 1052.5 35.5C1050.57 35.5 1049 37.067 1049 39C1049 40.933 1050.57 42.5 1052.5 42.5Z" fill="#202020"/>
<path fill-rule="evenodd" clip-rule="evenodd" d="M1017.5 42.5C1019.43 42.5 1021 40.933 1021 39C1021 37.067 1019.43 35.5 1017.5 35.5C1015.57 35.5 1014 37.067 1014 39C1014 40.933 1015.57 42.5 1017.5 42.5Z" fill="#202020"/>
<path fill-rule="evenodd" clip-rule="evenodd" d="M982.5 42.5C984.433 42.5 986 40.933 986 39C986 37.067 984.433 35.5 982.5 35.5C980.567 35.5 979 37.067 979 39C979 40.933 980.567 42.5 982.5 42.5Z" fill="#202020"/>
<path fill-rule="evenodd" clip-rule="evenodd" d="M947.5 42.5C949.433 42.5 951 40.933 951 39C951 37.067 949.433 35.5 947.5 35.5C945.567 35.5 944 37.067 944 39C944 40.933 945.567 42.5 947.5 42.5Z" fill="#202020"/>
<path fill-rule="evenodd" clip-rule="evenodd" d="M912.5 42.5C914.433 42.5 916 40.933 916 39C916 37.067 914.433 35.5 912.5 35.5C910.567 35.5 909 37.067 909 39C909 40.933 910.567 42.5 912.5 42.5Z" fill="#202020"/>
<path fill-rule="evenodd" clip-rule="evenodd" d="M877.5 42.5C879.433 42.5 881 40.933 881 39C881 37.067 879.433 35.5 877.5 35.5C875.567 35.5 874 37.067 874 39C874 40.933 875.567 42.5 877.5 42.5Z" fill="#202020"/>
<path fill-rule="evenodd" clip-rule="evenodd" d="M842.5 42.5C844.433 42.5 846 40.933 846 39C846 37.067 844.433 35.5 842.5 35.5C840.567 35.5 839 37.067 839 39C839 40.933 840.567 42.5 842.5 42.5Z" fill="#202020"/>
<path fill-rule="evenodd" clip-rule="evenodd" d="M807.5 42.5C809.433 42.5 811 40.933 811 39C811 37.067 809.433 35.5 807.5 35.5C805.567 35.5 804 37.067 804 39C804 40.933 805.567 42.5 807.5 42.5Z" fill="#202020"/>
<path fill-rule="evenodd" clip-rule="evenodd" d="M772.5 42.5C774.433 42.5 776 40.933 776 39C776 37.067 774.433 35.5 772.5 35.5C770.567 35.5 769 37.067 769 39C769 40.933 770.567 42.5 772.5 42.5Z" fill="#202020"/>
<path fill-rule="evenodd" clip-rule="evenodd" d="M737.5 42.5C739.433 42.5 741 40.933 741 39C741 37.067 739.433 35.5 737.5 35.5C735.567 35.5 734 37.067 734 39C734 40.933 735.567 42.5 737.5 42.5Z" fill="#202020"/>
<path fill-rule="evenodd" clip-rule="evenodd" d="M702.5 42.5C704.433 42.5 706 40.933 706 39C706 37.067 704.433 35.5 702.5 35.5C700.567 35.5 699 37.067 699 39C699 40.933 700.567 42.5 702.5 42.5Z" fill="#202020"/>
<path fill-rule="evenodd" clip-rule="evenodd" d="M667.5 42.5C669.433 42.5 671 40.933 671 39C671 37.067 669.433 35.5 667.5 35.5C665.567 35.5 664 37.067 664 39C664 40.933 665.567 42.5 667.5 42.5Z" fill="#202020"/>
<path fill-rule="evenodd" clip-rule="evenodd" d="M632.5 42.5C634.433 42.5 636 40.933 636 39C636 37.067 634.433 35.5 632.5 35.5C630.567 35.5 629 37.067 629 39C629 40.933 630.567 42.5 632.5 42.5Z" fill="#202020"/>
<path fill-rule="evenodd" clip-rule="evenodd" d="M597.5 42.5C599.433 42.5 601 40.933 601 39C601 37.067 599.433 35.5 597.5 35.5C595.567 35.5 594 37.067 594 39C594 40.933 595.567 42.5 597.5 42.5Z" fill="#202020"/>
<path fill-rule="evenodd" clip-rule="evenodd" d="M562.5 42.5C564.433 42.5 566 40.933 566 39C566 37.067 564.433 35.5 562.5 35.5C560.567 35.5 559 37.067 559 39C559 40.933 560.567 42.5 562.5 42.5Z" fill="#202020"/>
<path fill-rule="evenodd" clip-rule="evenodd" d="M527.5 42.5C529.433 42.5 531 40.933 531 39C531 37.067 529.433 35.5 527.5 35.5C525.567 35.5 524 37.067 524 39C524 40.933 525.567 42.5 527.5 42.5Z" fill="#202020"/>
<path fill-rule="evenodd" clip-rule="evenodd" d="M492.5 42.5C494.433 42.5 496 40.933 496 39C496 37.067 494.433 35.5 492.5 35.5C490.567 35.5 489 37.067 489 39C489 40.933 490.567 42.5 492.5 42.5Z" fill="#202020"/>
<path fill-rule="evenodd" clip-rule="evenodd" d="M457.5 42.5C459.433 42.5 461 40.933 461 39C461 37.067 459.433 35.5 457.5 35.5C455.567 35.5 454 37.067 454 39C454 40.933 455.567 42.5 457.5 42.5Z" fill="#202020"/>
<path fill-rule="evenodd" clip-rule="evenodd" d="M422.5 42.5C424.433 42.5 426 40.933 426 39C426 37.067 424.433 35.5 422.5 35.5C420.567 35.5 419 37.067 419 39C419 40.933 420.567 42.5 422.5 42.5Z" fill="#202020"/>
<path fill-rule="evenodd" clip-rule="evenodd" d="M387.5 42.5C389.433 42.5 391 40.933 391 39C391 37.067 389.433 35.5 387.5 35.5C385.567 35.5 384 37.067 384 39C384 40.933 385.567 42.5 387.5 42.5Z" fill="#202020"/>
<path fill-rule="evenodd" clip-rule="evenodd" d="M1052.5 7.5C1054.43 7.5 1056 5.933 1056 4C1056 2.067 1054.43 0.5 1052.5 0.5C1050.57 0.5 1049 2.067 1049 4C1049 5.933 1050.57 7.5 1052.5 7.5Z" fill="#202020"/>
<path fill-rule="evenodd" clip-rule="evenodd" d="M1017.5 7.5C1019.43 7.5 1021 5.933 1021 4C1021 2.067 1019.43 0.5 1017.5 0.5C1015.57 0.5 1014 2.067 1014 4C1014 5.933 1015.57 7.5 1017.5 7.5Z" fill="#202020"/>
<path fill-rule="evenodd" clip-rule="evenodd" d="M982.5 7.5C984.433 7.5 986 5.933 986 4C986 2.067 984.433 0.5 982.5 0.5C980.567 0.5 979 2.067 979 4C979 5.933 980.567 7.5 982.5 7.5Z" fill="#202020"/>
<path fill-rule="evenodd" clip-rule="evenodd" d="M947.5 7.5C949.433 7.5 951 5.933 951 4C951 2.067 949.433 0.5 947.5 0.5C945.567 0.5 944 2.067 944 4C944 5.933 945.567 7.5 947.5 7.5Z" fill="#202020"/>
<path fill-rule="evenodd" clip-rule="evenodd" d="M912.5 7.5C914.433 7.5 916 5.933 916 4C916 2.067 914.433 0.5 912.5 0.5C910.567 0.5 909 2.067 909 4C909 5.933 910.567 7.5 912.5 7.5Z" fill="#202020"/>
<path fill-rule="evenodd" clip-rule="evenodd" d="M877.5 7.5C879.433 7.5 881 5.933 881 4C881 2.067 879.433 0.5 877.5 0.5C875.567 0.5 874 2.067 874 4C874 5.933 875.567 7.5 877.5 7.5Z" fill="#202020"/>
<path fill-rule="evenodd" clip-rule="evenodd" d="M842.5 7.5C844.433 7.5 846 5.933 846 4C846 2.067 844.433 0.5 842.5 0.5C840.567 0.5 839 2.067 839 4C839 5.933 840.567 7.5 842.5 7.5Z" fill="#202020"/>
<path fill-rule="evenodd" clip-rule="evenodd" d="M807.5 7.5C809.433 7.5 811 5.933 811 4C811 2.067 809.433 0.5 807.5 0.5C805.567 0.5 804 2.067 804 4C804 5.933 805.567 7.5 807.5 7.5Z" fill="#202020"/>
<path fill-rule="evenodd" clip-rule="evenodd" d="M772.5 7.5C774.433 7.5 776 5.933 776 4C776 2.067 774.433 0.5 772.5 0.5C770.567 0.5 769 2.067 769 4C769 5.933 770.567 7.5 772.5 7.5Z" fill="#202020"/>
<path fill-rule="evenodd" clip-rule="evenodd" d="M737.5 7.5C739.433 7.5 741 5.933 741 4C741 2.067 739.433 0.5 737.5 0.5C735.567 0.5 734 2.067 734 4C734 5.933 735.567 7.5 737.5 7.5Z" fill="#202020"/>
<path fill-rule="evenodd" clip-rule="evenodd" d="M702.5 7.5C704.433 7.5 706 5.933 706 4C706 2.067 704.433 0.5 702.5 0.5C700.567 0.5 699 2.067 699 4C699 5.933 700.567 7.5 702.5 7.5Z" fill="#202020"/>
<path fill-rule="evenodd" clip-rule="evenodd" d="M667.5 7.5C669.433 7.5 671 5.933 671 4C671 2.067 669.433 0.5 667.5 0.5C665.567 0.5 664 2.067 664 4C664 5.933 665.567 7.5 667.5 7.5Z" fill="#202020"/>
<path fill-rule="evenodd" clip-rule="evenodd" d="M632.5 7.5C634.433 7.5 636 5.933 636 4C636 2.067 634.433 0.5 632.5 0.5C630.567 0.5 629 2.067 629 4C629 5.933 630.567 7.5 632.5 7.5Z" fill="#202020"/>
<path fill-rule="evenodd" clip-rule="evenodd" d="M597.5 7.5C599.433 7.5 601 5.933 601 4C601 2.067 599.433 0.5 597.5 0.5C595.567 0.5 594 2.067 594 4C594 5.933 595.567 7.5 597.5 7.5Z" fill="#202020"/>
<path fill-rule="evenodd" clip-rule="evenodd" d="M562.5 7.5C564.433 7.5 566 5.933 566 4C566 2.067 564.433 0.5 562.5 0.5C560.567 0.5 559 2.067 559 4C559 5.933 560.567 7.5 562.5 7.5Z" fill="#202020"/>
<path fill-rule="evenodd" clip-rule="evenodd" d="M527.5 7.5C529.433 7.5 531 5.933 531 4C531 2.067 529.433 0.5 527.5 0.5C525.567 0.5 524 2.067 524 4C524 5.933 525.567 7.5 527.5 7.5Z" fill="#202020"/>
<path fill-rule="evenodd" clip-rule="evenodd" d="M492.5 7.5C494.433 7.5 496 5.933 496 4C496 2.067 494.433 0.5 492.5 0.5C490.567 0.5 489 2.067 489 4C489 5.933 490.567 7.5 492.5 7.5Z" fill="#202020"/>
<path fill-rule="evenodd" clip-rule="evenodd" d="M457.5 7.5C459.433 7.5 461 5.933 461 4C461 2.067 459.433 0.5 457.5 0.5C455.567 0.5 454 2.067 454 4C454 5.933 455.567 7.5 457.5 7.5Z" fill="#202020"/>
<path fill-rule="evenodd" clip-rule="evenodd" d="M422.5 7.5C424.433 7.5 426 5.933 426 4C426 2.067 424.433 0.5 422.5 0.5C420.567 0.5 419 2.067 419 4C419 5.933 420.567 7.5 422.5 7.5Z" fill="#202020"/>
<path fill-rule="evenodd" clip-rule="evenodd" d="M387.5 7.5C389.433 7.5 391 5.933 391 4C391 2.067 389.433 0.5 387.5 0.5C385.567 0.5 384 2.067 384 4C384 5.933 385.567 7.5 387.5 7.5Z" fill="#202020"/>
<path fill-rule="evenodd" clip-rule="evenodd" d="M1437.5 112.5C1439.43 112.5 1441 110.933 1441 109C1441 107.067 1439.43 105.5 1437.5 105.5C1435.57 105.5 1434 107.067 1434 109C1434 110.933 1435.57 112.5 1437.5 112.5Z" fill="#202020"/>
<path fill-rule="evenodd" clip-rule="evenodd" d="M1402.5 112.5C1404.43 112.5 1406 110.933 1406 109C1406 107.067 1404.43 105.5 1402.5 105.5C1400.57 105.5 1399 107.067 1399 109C1399 110.933 1400.57 112.5 1402.5 112.5Z" fill="#202020"/>
<path fill-rule="evenodd" clip-rule="evenodd" d="M1367.5 112.5C1369.43 112.5 1371 110.933 1371 109C1371 107.067 1369.43 105.5 1367.5 105.5C1365.57 105.5 1364 107.067 1364 109C1364 110.933 1365.57 112.5 1367.5 112.5Z" fill="#202020"/>
<path fill-rule="evenodd" clip-rule="evenodd" d="M1332.5 112.5C1334.43 112.5 1336 110.933 1336 109C1336 107.067 1334.43 105.5 1332.5 105.5C1330.57 105.5 1329 107.067 1329 109C1329 110.933 1330.57 112.5 1332.5 112.5Z" fill="#202020"/>
<path fill-rule="evenodd" clip-rule="evenodd" d="M1297.5 112.5C1299.43 112.5 1301 110.933 1301 109C1301 107.067 1299.43 105.5 1297.5 105.5C1295.57 105.5 1294 107.067 1294 109C1294 110.933 1295.57 112.5 1297.5 112.5Z" fill="#202020"/>
<path fill-rule="evenodd" clip-rule="evenodd" d="M1262.5 112.5C1264.43 112.5 1266 110.933 1266 109C1266 107.067 1264.43 105.5 1262.5 105.5C1260.57 105.5 1259 107.067 1259 109C1259 110.933 1260.57 112.5 1262.5 112.5Z" fill="#202020"/>
<path fill-rule="evenodd" clip-rule="evenodd" d="M1227.5 112.5C1229.43 112.5 1231 110.933 1231 109C1231 107.067 1229.43 105.5 1227.5 105.5C1225.57 105.5 1224 107.067 1224 109C1224 110.933 1225.57 112.5 1227.5 112.5Z" fill="#202020"/>
<path fill-rule="evenodd" clip-rule="evenodd" d="M1192.5 112.5C1194.43 112.5 1196 110.933 1196 109C1196 107.067 1194.43 105.5 1192.5 105.5C1190.57 105.5 1189 107.067 1189 109C1189 110.933 1190.57 112.5 1192.5 112.5Z" fill="#202020"/>
<path fill-rule="evenodd" clip-rule="evenodd" d="M1157.5 112.5C1159.43 112.5 1161 110.933 1161 109C1161 107.067 1159.43 105.5 1157.5 105.5C1155.57 105.5 1154 107.067 1154 109C1154 110.933 1155.57 112.5 1157.5 112.5Z" fill="#202020"/>
<path fill-rule="evenodd" clip-rule="evenodd" d="M1122.5 112.5C1124.43 112.5 1126 110.933 1126 109C1126 107.067 1124.43 105.5 1122.5 105.5C1120.57 105.5 1119 107.067 1119 109C1119 110.933 1120.57 112.5 1122.5 112.5Z" fill="#202020"/>
<path fill-rule="evenodd" clip-rule="evenodd" d="M1087.5 112.5C1089.43 112.5 1091 110.933 1091 109C1091 107.067 1089.43 105.5 1087.5 105.5C1085.57 105.5 1084 107.067 1084 109C1084 110.933 1085.57 112.5 1087.5 112.5Z" fill="#202020"/>
<path fill-rule="evenodd" clip-rule="evenodd" d="M1437.5 77.5C1439.43 77.5 1441 75.933 1441 74C1441 72.067 1439.43 70.5 1437.5 70.5C1435.57 70.5 1434 72.067 1434 74C1434 75.933 1435.57 77.5 1437.5 77.5Z" fill="#202020"/>
<path fill-rule="evenodd" clip-rule="evenodd" d="M1402.5 77.5C1404.43 77.5 1406 75.933 1406 74C1406 72.067 1404.43 70.5 1402.5 70.5C1400.57 70.5 1399 72.067 1399 74C1399 75.933 1400.57 77.5 1402.5 77.5Z" fill="#202020"/>
<path fill-rule="evenodd" clip-rule="evenodd" d="M1367.5 77.5C1369.43 77.5 1371 75.933 1371 74C1371 72.067 1369.43 70.5 1367.5 70.5C1365.57 70.5 1364 72.067 1364 74C1364 75.933 1365.57 77.5 1367.5 77.5Z" fill="#202020"/>
<path fill-rule="evenodd" clip-rule="evenodd" d="M1332.5 77.5C1334.43 77.5 1336 75.933 1336 74C1336 72.067 1334.43 70.5 1332.5 70.5C1330.57 70.5 1329 72.067 1329 74C1329 75.933 1330.57 77.5 1332.5 77.5Z" fill="#202020"/>
<path fill-rule="evenodd" clip-rule="evenodd" d="M1297.5 77.5C1299.43 77.5 1301 75.933 1301 74C1301 72.067 1299.43 70.5 1297.5 70.5C1295.57 70.5 1294 72.067 1294 74C1294 75.933 1295.57 77.5 1297.5 77.5Z" fill="#202020"/>
<path fill-rule="evenodd" clip-rule="evenodd" d="M1262.5 77.5C1264.43 77.5 1266 75.933 1266 74C1266 72.067 1264.43 70.5 1262.5 70.5C1260.57 70.5 1259 72.067 1259 74C1259 75.933 1260.57 77.5 1262.5 77.5Z" fill="#202020"/>
<path fill-rule="evenodd" clip-rule="evenodd" d="M1227.5 77.5C1229.43 77.5 1231 75.933 1231 74C1231 72.067 1229.43 70.5 1227.5 70.5C1225.57 70.5 1224 72.067 1224 74C1224 75.933 1225.57 77.5 1227.5 77.5Z" fill="#202020"/>
<path fill-rule="evenodd" clip-rule="evenodd" d="M1192.5 77.5C1194.43 77.5 1196 75.933 1196 74C1196 72.067 1194.43 70.5 1192.5 70.5C1190.57 70.5 1189 72.067 1189 74C1189 75.933 1190.57 77.5 1192.5 77.5Z" fill="#202020"/>
<path fill-rule="evenodd" clip-rule="evenodd" d="M1157.5 77.5C1159.43 77.5 1161 75.933 1161 74C1161 72.067 1159.43 70.5 1157.5 70.5C1155.57 70.5 1154 72.067 1154 74C1154 75.933 1155.57 77.5 1157.5 77.5Z" fill="#202020"/>
<path fill-rule="evenodd" clip-rule="evenodd" d="M1122.5 77.5C1124.43 77.5 1126 75.933 1126 74C1126 72.067 1124.43 70.5 1122.5 70.5C1120.57 70.5 1119 72.067 1119 74C1119 75.933 1120.57 77.5 1122.5 77.5Z" fill="#202020"/>
<path fill-rule="evenodd" clip-rule="evenodd" d="M1087.5 77.5C1089.43 77.5 1091 75.933 1091 74C1091 72.067 1089.43 70.5 1087.5 70.5C1085.57 70.5 1084 72.067 1084 74C1084 75.933 1085.57 77.5 1087.5 77.5Z" fill="#202020"/>
<path fill-rule="evenodd" clip-rule="evenodd" d="M1437.5 42.5C1439.43 42.5 1441 40.933 1441 39C1441 37.067 1439.43 35.5 1437.5 35.5C1435.57 35.5 1434 37.067 1434 39C1434 40.933 1435.57 42.5 1437.5 42.5Z" fill="#202020"/>
<path fill-rule="evenodd" clip-rule="evenodd" d="M1402.5 42.5C1404.43 42.5 1406 40.933 1406 39C1406 37.067 1404.43 35.5 1402.5 35.5C1400.57 35.5 1399 37.067 1399 39C1399 40.933 1400.57 42.5 1402.5 42.5Z" fill="#202020"/>
<path fill-rule="evenodd" clip-rule="evenodd" d="M1367.5 42.5C1369.43 42.5 1371 40.933 1371 39C1371 37.067 1369.43 35.5 1367.5 35.5C1365.57 35.5 1364 37.067 1364 39C1364 40.933 1365.57 42.5 1367.5 42.5Z" fill="#202020"/>
<path fill-rule="evenodd" clip-rule="evenodd" d="M1332.5 42.5C1334.43 42.5 1336 40.933 1336 39C1336 37.067 1334.43 35.5 1332.5 35.5C1330.57 35.5 1329 37.067 1329 39C1329 40.933 1330.57 42.5 1332.5 42.5Z" fill="#202020"/>
<path fill-rule="evenodd" clip-rule="evenodd" d="M1297.5 42.5C1299.43 42.5 1301 40.933 1301 39C1301 37.067 1299.43 35.5 1297.5 35.5C1295.57 35.5 1294 37.067 1294 39C1294 40.933 1295.57 42.5 1297.5 42.5Z" fill="#202020"/>
<path fill-rule="evenodd" clip-rule="evenodd" d="M1262.5 42.5C1264.43 42.5 1266 40.933 1266 39C1266 37.067 1264.43 35.5 1262.5 35.5C1260.57 35.5 1259 37.067 1259 39C1259 40.933 1260.57 42.5 1262.5 42.5Z" fill="#202020"/>
<path fill-rule="evenodd" clip-rule="evenodd" d="M1227.5 42.5C1229.43 42.5 1231 40.933 1231 39C1231 37.067 1229.43 35.5 1227.5 35.5C1225.57 35.5 1224 37.067 1224 39C1224 40.933 1225.57 42.5 1227.5 42.5Z" fill="#202020"/>
<path fill-rule="evenodd" clip-rule="evenodd" d="M1192.5 42.5C1194.43 42.5 1196 40.933 1196 39C1196 37.067 1194.43 35.5 1192.5 35.5C1190.57 35.5 1189 37.067 1189 39C1189 40.933 1190.57 42.5 1192.5 42.5Z" fill="#202020"/>
<path fill-rule="evenodd" clip-rule="evenodd" d="M1157.5 42.5C1159.43 42.5 1161 40.933 1161 39C1161 37.067 1159.43 35.5 1157.5 35.5C1155.57 35.5 1154 37.067 1154 39C1154 40.933 1155.57 42.5 1157.5 42.5Z" fill="#202020"/>
<path fill-rule="evenodd" clip-rule="evenodd" d="M1122.5 42.5C1124.43 42.5 1126 40.933 1126 39C1126 37.067 1124.43 35.5 1122.5 35.5C1120.57 35.5 1119 37.067 1119 39C1119 40.933 1120.57 42.5 1122.5 42.5Z" fill="#202020"/>
<path fill-rule="evenodd" clip-rule="evenodd" d="M1087.5 42.5C1089.43 42.5 1091 40.933 1091 39C1091 37.067 1089.43 35.5 1087.5 35.5C1085.57 35.5 1084 37.067 1084 39C1084 40.933 1085.57 42.5 1087.5 42.5Z" fill="#202020"/>
<path fill-rule="evenodd" clip-rule="evenodd" d="M1437.5 7.5C1439.43 7.5 1441 5.933 1441 4C1441 2.067 1439.43 0.5 1437.5 0.5C1435.57 0.5 1434 2.067 1434 4C1434 5.933 1435.57 7.5 1437.5 7.5Z" fill="#202020"/>
<path fill-rule="evenodd" clip-rule="evenodd" d="M1402.5 7.5C1404.43 7.5 1406 5.933 1406 4C1406 2.067 1404.43 0.5 1402.5 0.5C1400.57 0.5 1399 2.067 1399 4C1399 5.933 1400.57 7.5 1402.5 7.5Z" fill="#202020"/>
<path fill-rule="evenodd" clip-rule="evenodd" d="M1367.5 7.5C1369.43 7.5 1371 5.933 1371 4C1371 2.067 1369.43 0.5 1367.5 0.5C1365.57 0.5 1364 2.067 1364 4C1364 5.933 1365.57 7.5 1367.5 7.5Z" fill="#202020"/>
<path fill-rule="evenodd" clip-rule="evenodd" d="M1332.5 7.5C1334.43 7.5 1336 5.933 1336 4C1336 2.067 1334.43 0.5 1332.5 0.5C1330.57 0.5 1329 2.067 1329 4C1329 5.933 1330.57 7.5 1332.5 7.5Z" fill="#202020"/>
<path fill-rule="evenodd" clip-rule="evenodd" d="M1297.5 7.5C1299.43 7.5 1301 5.933 1301 4C1301 2.067 1299.43 0.5 1297.5 0.5C1295.57 0.5 1294 2.067 1294 4C1294 5.933 1295.57 7.5 1297.5 7.5Z" fill="#202020"/>
<path fill-rule="evenodd" clip-rule="evenodd" d="M1262.5 7.5C1264.43 7.5 1266 5.933 1266 4C1266 2.067 1264.43 0.5 1262.5 0.5C1260.57 0.5 1259 2.067 1259 4C1259 5.933 1260.57 7.5 1262.5 7.5Z" fill="#202020"/>
<path fill-rule="evenodd" clip-rule="evenodd" d="M1227.5 7.5C1229.43 7.5 1231 5.933 1231 4C1231 2.067 1229.43 0.5 1227.5 0.5C1225.57 0.5 1224 2.067 1224 4C1224 5.933 1225.57 7.5 1227.5 7.5Z" fill="#202020"/>
<path fill-rule="evenodd" clip-rule="evenodd" d="M1192.5 7.5C1194.43 7.5 1196 5.933 1196 4C1196 2.067 1194.43 0.5 1192.5 0.5C1190.57 0.5 1189 2.067 1189 4C1189 5.933 1190.57 7.5 1192.5 7.5Z" fill="#202020"/>
<path fill-rule="evenodd" clip-rule="evenodd" d="M1157.5 7.5C1159.43 7.5 1161 5.933 1161 4C1161 2.067 1159.43 0.5 1157.5 0.5C1155.57 0.5 1154 2.067 1154 4C1154 5.933 1155.57 7.5 1157.5 7.5Z" fill="#202020"/>
<path fill-rule="evenodd" clip-rule="evenodd" d="M1122.5 7.5C1124.43 7.5 1126 5.933 1126 4C1126 2.067 1124.43 0.5 1122.5 0.5C1120.57 0.5 1119 2.067 1119 4C1119 5.933 1120.57 7.5 1122.5 7.5Z" fill="#202020"/>
<path fill-rule="evenodd" clip-rule="evenodd" d="M1087.5 7.5C1089.43 7.5 1091 5.933 1091 4C1091 2.067 1089.43 0.5 1087.5 0.5C1085.57 0.5 1084 2.067 1084 4C1084 5.933 1085.57 7.5 1087.5 7.5Z" fill="#202020"/>
</g>
</g>
<defs>
<clipPath id="clip0">
<rect width="1440" height="127" fill="white"/>
</clipPath>
</defs>
</svg>
