<svg width="223" height="308" viewBox="0 0 223 308" fill="none" xmlns="http://www.w3.org/2000/svg">
<g filter="url(#filter0_d)">
<rect x="18.5" y="12.5" width="198" height="283" rx="13.5" fill="#343434" stroke="#555555"/>
<rect x="16.5" y="10.5" width="198" height="283" rx="13.5" fill="#555555" stroke="#707070"/>
<rect x="14.5" y="8.5" width="198" height="283" rx="13.5" fill="#575757" stroke="#707070"/>
<rect x="12.5" y="6.5" width="198" height="283" rx="13.5" fill="#575757" stroke="#707070"/>
<rect x="10.5" y="4.5" width="198" height="283" rx="13.5" fill="#575757" stroke="#707070"/>
<rect x="8.5" y="2.5" width="198" height="283" rx="13.5" fill="#575757" stroke="#707070"/>
<path fill-rule="evenodd" clip-rule="evenodd" d="M6 269.46C6 277.192 12.268 283.46 20 283.46H190.43C198.162 283.46 204.43 277.192 204.43 269.46V14C204.43 6.26802 198.162 0 190.43 0H20C12.268 0 6 6.26801 6 14V269.46Z" fill="#1A1919"/>
<path fill-rule="evenodd" clip-rule="evenodd" d="M67.8575 140.494L69.7765 141.858C68.8815 143.306 67.8955 144.377 66.8175 145.071C65.7385 145.764 64.3675 146.111 62.7035 146.111C60.3915 146.111 58.4845 145.325 56.9825 143.752C55.4795 142.181 54.7285 140.162 54.7285 137.697C54.7285 135.263 55.5065 133.251 57.0635 131.664C58.6195 130.077 60.5385 129.284 62.8185 129.284C64.4205 129.284 65.8315 129.665 67.0485 130.428C68.2655 131.19 69.1595 132.204 69.7295 133.467L67.7425 134.9C66.5865 132.666 64.9295 131.549 62.7725 131.549C61.2315 131.549 59.9205 132.135 58.8425 133.306C57.7635 134.476 57.2245 135.94 57.2245 137.697C57.2245 139.453 57.7495 140.918 58.7965 142.089C59.8445 143.26 61.1625 143.846 62.7495 143.846C64.9675 143.846 66.6705 142.728 67.8575 140.494Z" fill="#F7CB36"/>
<path fill-rule="evenodd" clip-rule="evenodd" d="M73.8516 145.787V129.607H76.3476V136.402H83.8826V129.607H86.3796V145.787H83.8826V138.667H76.3476V145.787H73.8516Z" fill="#F7CB36"/>
<mask id="mask0" mask-type="alpha" maskUnits="userSpaceOnUse" x="5" y="-1" width="200" height="285">
<path fill-rule="evenodd" clip-rule="evenodd" d="M6 278.46C6 281.221 8.23858 283.46 11 283.46H199.43C202.191 283.46 204.43 281.221 204.43 278.46V5C204.43 2.23857 202.191 0 199.43 0H11C8.23858 0 6 2.23858 6 5V278.46Z" fill="white" stroke="white" stroke-width="0.5"/>
</mask>
<g mask="url(#mask0)">
<path fill-rule="evenodd" clip-rule="evenodd" d="M91.4277 145.787H93.9237V129.607H91.4277V145.787Z" fill="#F7CB36"/>
<path fill-rule="evenodd" clip-rule="evenodd" d="M111.375 140.494L113.294 141.858C112.399 143.306 111.413 144.377 110.335 145.071C109.256 145.764 107.885 146.111 106.221 146.111C103.909 146.111 102.002 145.325 100.5 143.752C98.9971 142.181 98.2461 140.162 98.2461 137.697C98.2461 135.263 99.0241 133.251 100.581 131.664C102.137 130.077 104.056 129.284 106.336 129.284C107.938 129.284 109.349 129.665 110.566 130.428C111.783 131.19 112.677 132.204 113.247 133.467L111.26 134.9C110.104 132.666 108.447 131.549 106.29 131.549C104.749 131.549 103.438 132.135 102.36 133.306C101.281 134.476 100.742 135.94 100.742 137.697C100.742 139.453 101.267 140.918 102.314 142.089C103.362 143.26 104.68 143.846 106.267 143.846C108.485 143.846 110.188 142.728 111.375 140.494Z" fill="#F7CB36"/>
<path fill-rule="evenodd" clip-rule="evenodd" d="M117.369 145.787V129.607H119.865V136.402L120.975 135.177L126.199 129.607H129.389L123.702 135.616L129.805 145.787H126.892L121.899 137.465L119.865 139.592V145.787H117.369Z" fill="#F7CB36"/>
<path fill-rule="evenodd" clip-rule="evenodd" d="M133.248 145.787V129.607H143.881V131.779H135.744V136.356H143.233V138.529H135.744V143.613H143.95V145.787H133.248Z" fill="#F7CB36"/>
<path fill-rule="evenodd" clip-rule="evenodd" d="M148.262 145.787V129.607H150.759L158.037 140.886C158.408 141.472 158.64 141.88 158.733 142.111V129.607H161.09V145.787H158.594L151.315 134.507C150.945 133.921 150.712 133.513 150.619 133.282V145.787H148.262Z" fill="#F7CB36"/>
<path fill-rule="evenodd" clip-rule="evenodd" d="M127.414 78.7241C127.414 80.9771 127.055 83.4151 126.298 86.0191C125.599 88.4281 123.937 90.7781 121.771 92.7601C121.723 92.8081 121.684 92.8471 121.626 92.8951C121.393 93.1091 121.14 93.3231 120.897 93.5271C120.78 93.6241 120.644 93.7211 120.528 93.8181C119.217 94.8571 117.779 95.7511 116.303 96.4601C115.662 96.7611 115.06 97.0141 114.467 97.2371C114.409 97.2571 114.36 97.2761 114.302 97.2951C113.573 97.5671 112.864 97.7711 112.165 97.9171C111.709 98.0241 111.252 98.0921 110.806 98.1411C110.611 98.1701 110.417 98.1801 110.223 98.1991C110.193 98.1701 110.154 98.1311 110.115 98.1011C109.853 97.8781 109.591 97.6641 109.319 97.4511C107.823 96.2861 106.464 95.4011 105.143 94.7611C104.871 94.6241 104.599 94.4981 104.336 94.3911C103.666 94.1101 102.996 93.8861 102.326 93.7211C102.102 93.6631 101.869 93.6141 101.646 93.5661C101.626 93.5661 101.607 93.5561 101.587 93.5561C100.306 93.3131 98.975 93.2451 97.518 93.3321C97.304 93.0701 97.1 92.7981 96.906 92.5161C96.877 92.4681 96.848 92.4191 96.809 92.3611C96.76 92.3031 96.712 92.2351 96.663 92.1571C96.653 92.1381 96.643 92.1191 96.634 92.1091C96.012 91.1281 95.497 90.0691 95.09 88.9721C95.002 88.7381 94.915 88.4951 94.837 88.2531C94.575 87.4371 94.361 86.6011 94.206 85.7561C93.982 84.5621 93.875 83.3481 93.875 82.1341C93.875 77.1511 95.711 72.1681 99.247 68.6711C104.434 63.5331 113.768 61.0371 120.014 64.8151C121.324 65.6021 122.471 66.5441 123.471 67.6511L123.48 67.6611C124.928 69.2731 126.006 71.1971 126.667 73.4021V73.4111C127.152 75.0331 127.414 76.8111 127.414 78.7241Z" fill="#FFFFFE"/>
<path fill-rule="evenodd" clip-rule="evenodd" d="M105.141 94.7607C104.869 94.6247 104.597 94.4977 104.335 94.3917C103.664 94.1097 102.995 93.8857 102.324 93.7207C102.101 93.6627 101.868 93.6147 101.644 93.5657C101.625 93.5657 101.605 93.5557 101.586 93.5557C100.304 93.3137 98.9728 93.2447 97.5158 93.3327C97.4678 93.3237 97.4188 93.3327 97.3698 93.3427C97.0788 93.3517 96.7778 93.3717 96.4668 93.4107C95.6128 93.4787 94.7088 93.6047 93.7468 93.7607C92.9408 92.4687 91.8438 91.0507 91.0768 89.7487C90.5418 88.8167 90.1728 87.9517 90.2118 87.2327C90.2308 86.8837 90.2898 86.5337 90.4838 86.2417C90.9018 85.6597 91.7368 85.6397 92.4558 85.6687C93.0378 85.6977 93.6208 85.7277 94.2038 85.7567C95.7098 85.8247 97.2048 85.8927 98.7008 85.9607C99.7798 86.0097 100.916 86.0677 101.829 86.6497C101.994 86.7467 102.14 86.8637 102.295 86.9897C102.693 87.3397 103.043 87.7667 103.334 88.2527C103.432 88.3887 103.509 88.5347 103.577 88.6797C104.111 89.6807 104.422 90.8267 104.539 91.8467C104.665 93.0027 104.869 93.9257 105.141 94.7607Z" fill="#DCA841"/>
<path fill-rule="evenodd" clip-rule="evenodd" d="M124.568 96.6352C124.627 97.4312 122.616 99.4902 121.023 101.171H121.013C119.672 102.356 118.954 102.2 117.866 102.385C117.691 102.424 117.516 102.443 117.341 102.463C116.681 102.521 116.031 102.463 115.399 102.239C115.293 102.2 115.195 102.161 115.098 102.123C114.953 102.065 114.816 101.996 114.68 101.919C113.962 101.53 113.34 100.977 112.718 100.433C112.214 99.9862 111.718 99.5302 111.213 99.0732C111.426 98.7142 111.67 98.3832 111.98 98.0822C112.039 98.0242 112.096 97.9752 112.165 97.9172C112.825 97.3642 113.757 97.0142 114.059 96.2072C114.156 95.9742 114.214 95.7222 114.253 95.4792C114.253 95.4792 114.253 95.4692 114.262 95.4692C114.321 95.1002 114.34 94.7312 114.36 94.3722V94.3622C114.389 93.2942 114.38 92.3322 115.273 91.7882C115.71 91.5162 116.371 91.3512 117.371 91.3222C118.148 91.2932 119.906 91.7202 120.595 92.1092C121.013 92.3322 121.402 92.5462 121.771 92.7602C122.82 93.3712 123.626 93.9542 124.092 94.8862H124.102C124.344 95.3632 124.501 95.9262 124.568 96.6352Z" fill="#DCA841"/>
<path fill-rule="evenodd" clip-rule="evenodd" d="M124.733 78.6466C124.704 78.6276 124.646 78.6176 124.568 78.6276C124.063 78.6176 123.083 78.6466 122.421 78.6076C122.325 79.1226 122.247 79.6666 122.188 80.2976V80.3076C122.256 80.2686 122.325 80.2296 122.402 80.1906C122.626 80.0746 122.869 79.9586 123.121 79.8216C123.432 79.6766 123.753 79.5116 124.053 79.3166L123.578 79.6666C123.859 79.4816 124.141 79.2976 124.413 79.0936C124.462 79.0546 124.548 78.9866 124.627 78.9086C124.713 78.8216 124.782 78.7336 124.762 78.6756L124.733 78.6466ZM112.33 69.6526C112.32 69.6136 112.3 69.5746 112.271 69.5356C112.174 69.3326 112.039 69.1476 111.883 68.9826L111.776 68.8756C111.99 69.1376 112.165 69.3996 112.359 69.7206C112.359 69.6916 112.349 69.6716 112.33 69.6526ZM124.733 78.6466C124.704 78.6276 124.646 78.6176 124.568 78.6276C124.063 78.6176 123.083 78.6466 122.421 78.6076C122.325 79.1226 122.247 79.6666 122.188 80.2976V80.3076C122.256 80.2686 122.325 80.2296 122.402 80.1906C122.626 80.0746 122.869 79.9586 123.121 79.8216C123.432 79.6766 123.753 79.5116 124.053 79.3166L123.578 79.6666C123.859 79.4816 124.141 79.2976 124.413 79.0936C124.462 79.0546 124.548 78.9866 124.627 78.9086C124.713 78.8216 124.782 78.7336 124.762 78.6756L124.733 78.6466ZM112.33 69.6526C112.32 69.6136 112.3 69.5746 112.271 69.5356C112.174 69.3326 112.039 69.1476 111.883 68.9826L111.776 68.8756C111.99 69.1376 112.165 69.3996 112.359 69.7206C112.359 69.6916 112.349 69.6716 112.33 69.6526ZM124.733 78.6466C124.704 78.6276 124.646 78.6176 124.568 78.6276C124.063 78.6176 123.083 78.6466 122.421 78.6076C122.325 79.1226 122.247 79.6666 122.188 80.2976V80.3076C122.256 80.2686 122.325 80.2296 122.402 80.1906C122.626 80.0746 122.869 79.9586 123.121 79.8216C123.432 79.6766 123.753 79.5116 124.053 79.3166L123.578 79.6666C123.859 79.4816 124.141 79.2976 124.413 79.0936C124.462 79.0546 124.548 78.9866 124.627 78.9086C124.713 78.8216 124.782 78.7336 124.762 78.6756L124.733 78.6466ZM112.33 69.6526C112.32 69.6136 112.3 69.5746 112.271 69.5356C112.174 69.3326 112.039 69.1476 111.883 68.9826L111.776 68.8756C111.99 69.1376 112.165 69.3996 112.359 69.7206C112.359 69.6916 112.349 69.6716 112.33 69.6526ZM124.733 78.6466C124.704 78.6276 124.646 78.6176 124.568 78.6276C124.063 78.6176 123.083 78.6466 122.421 78.6076C122.325 79.1226 122.247 79.6666 122.188 80.2976V80.3076C122.256 80.2686 122.325 80.2296 122.402 80.1906C122.626 80.0746 122.869 79.9586 123.121 79.8216C123.432 79.6766 123.753 79.5116 124.053 79.3166L123.578 79.6666C123.859 79.4816 124.141 79.2976 124.413 79.0936C124.462 79.0546 124.548 78.9866 124.627 78.9086C124.713 78.8216 124.782 78.7336 124.762 78.6756L124.733 78.6466ZM112.33 69.6526C112.32 69.6136 112.3 69.5746 112.271 69.5356C112.174 69.3326 112.039 69.1476 111.883 68.9826L111.776 68.8756C111.99 69.1376 112.165 69.3996 112.359 69.7206C112.359 69.6916 112.349 69.6716 112.33 69.6526ZM124.733 78.6466C124.704 78.6276 124.646 78.6176 124.568 78.6276C124.063 78.6176 123.083 78.6466 122.421 78.6076C122.325 79.1226 122.247 79.6666 122.188 80.2976V80.3076C122.256 80.2686 122.325 80.2296 122.402 80.1906C122.626 80.0746 122.869 79.9586 123.121 79.8216C123.432 79.6766 123.753 79.5116 124.053 79.3166L123.578 79.6666C123.859 79.4816 124.141 79.2976 124.413 79.0936C124.462 79.0546 124.548 78.9866 124.627 78.9086C124.713 78.8216 124.782 78.7336 124.762 78.6756L124.733 78.6466ZM112.33 69.6526C112.32 69.6136 112.3 69.5746 112.271 69.5356C112.174 69.3326 112.039 69.1476 111.883 68.9826L111.776 68.8756C111.99 69.1376 112.165 69.3996 112.359 69.7206C112.359 69.6916 112.349 69.6716 112.33 69.6526ZM124.733 78.6466C124.704 78.6276 124.646 78.6176 124.568 78.6276C124.063 78.6176 123.083 78.6466 122.421 78.6076C122.325 79.1226 122.247 79.6666 122.188 80.2976V80.3076C122.256 80.2686 122.325 80.2296 122.402 80.1906C122.626 80.0746 122.869 79.9586 123.121 79.8216C123.432 79.6766 123.753 79.5116 124.053 79.3166L123.578 79.6666C123.859 79.4816 124.141 79.2976 124.413 79.0936C124.462 79.0546 124.548 78.9866 124.627 78.9086C124.713 78.8216 124.782 78.7336 124.762 78.6756L124.733 78.6466ZM112.33 69.6526C112.32 69.6136 112.3 69.5746 112.271 69.5356C112.174 69.3326 112.039 69.1476 111.883 68.9826L111.776 68.8756C111.99 69.1376 112.165 69.3996 112.359 69.7206C112.359 69.6916 112.349 69.6716 112.33 69.6526ZM124.733 78.6466C124.704 78.6276 124.646 78.6176 124.568 78.6276C124.063 78.6176 123.083 78.6466 122.421 78.6076C122.325 79.1226 122.247 79.6666 122.188 80.2976V80.3076C122.256 80.2686 122.325 80.2296 122.402 80.1906C122.626 80.0746 122.869 79.9586 123.121 79.8216C123.432 79.6766 123.753 79.5116 124.053 79.3166L123.578 79.6666C123.859 79.4816 124.141 79.2976 124.413 79.0936C124.462 79.0546 124.548 78.9866 124.627 78.9086C124.713 78.8216 124.782 78.7336 124.762 78.6756L124.733 78.6466ZM112.33 69.6526C112.32 69.6136 112.3 69.5746 112.271 69.5356C112.174 69.3326 112.039 69.1476 111.883 68.9826L111.776 68.8756C111.99 69.1376 112.165 69.3996 112.359 69.7206C112.359 69.6916 112.349 69.6716 112.33 69.6526ZM124.733 78.6466C124.704 78.6276 124.646 78.6176 124.568 78.6276C124.063 78.6176 123.083 78.6466 122.421 78.6076C122.325 79.1226 122.247 79.6666 122.188 80.2976V80.3076C122.256 80.2686 122.325 80.2296 122.402 80.1906C122.626 80.0746 122.869 79.9586 123.121 79.8216C123.432 79.6766 123.753 79.5116 124.053 79.3166L123.578 79.6666C123.859 79.4816 124.141 79.2976 124.413 79.0936C124.462 79.0546 124.548 78.9866 124.627 78.9086C124.713 78.8216 124.782 78.7336 124.762 78.6756L124.733 78.6466ZM112.33 69.6526C112.32 69.6136 112.3 69.5746 112.271 69.5356C112.174 69.3326 112.039 69.1476 111.883 68.9826L111.776 68.8756C111.99 69.1376 112.165 69.3996 112.359 69.7206C112.359 69.6916 112.349 69.6716 112.33 69.6526ZM124.733 78.6466C124.704 78.6276 124.646 78.6176 124.568 78.6276C124.063 78.6176 123.083 78.6466 122.421 78.6076C122.325 79.1226 122.247 79.6666 122.188 80.2976V80.3076C122.256 80.2686 122.325 80.2296 122.402 80.1906C122.626 80.0746 122.869 79.9586 123.121 79.8216C123.432 79.6766 123.753 79.5116 124.053 79.3166L123.578 79.6666C123.859 79.4816 124.141 79.2976 124.413 79.0936C124.462 79.0546 124.548 78.9866 124.627 78.9086C124.713 78.8216 124.782 78.7336 124.762 78.6756L124.733 78.6466ZM112.33 69.6526C112.32 69.6136 112.3 69.5746 112.271 69.5356C112.174 69.3326 112.039 69.1476 111.883 68.9826L111.776 68.8756C111.99 69.1376 112.165 69.3996 112.359 69.7206C112.359 69.6916 112.349 69.6716 112.33 69.6526ZM124.733 78.6466C124.704 78.6276 124.646 78.6176 124.568 78.6276C124.063 78.6176 123.083 78.6466 122.421 78.6076C122.325 79.1226 122.247 79.6666 122.188 80.2976V80.3076C122.256 80.2686 122.325 80.2296 122.402 80.1906C122.626 80.0746 122.869 79.9586 123.121 79.8216C123.432 79.6766 123.753 79.5116 124.053 79.3166L123.578 79.6666C123.859 79.4816 124.141 79.2976 124.413 79.0936C124.462 79.0546 124.548 78.9866 124.627 78.9086C124.713 78.8216 124.782 78.7336 124.762 78.6756L124.733 78.6466ZM112.33 69.6526C112.32 69.6136 112.3 69.5746 112.271 69.5356C112.174 69.3326 112.039 69.1476 111.883 68.9826L111.776 68.8756C111.99 69.1376 112.165 69.3996 112.359 69.7206C112.359 69.6916 112.349 69.6716 112.33 69.6526ZM124.733 78.6466C124.704 78.6276 124.646 78.6176 124.568 78.6276C124.063 78.6176 123.083 78.6466 122.421 78.6076C122.325 79.1226 122.247 79.6666 122.188 80.2976V80.3076C122.256 80.2686 122.325 80.2296 122.402 80.1906C122.626 80.0746 122.869 79.9586 123.121 79.8216C123.432 79.6766 123.753 79.5116 124.053 79.3166L123.578 79.6666C123.859 79.4816 124.141 79.2976 124.413 79.0936C124.462 79.0546 124.548 78.9866 124.627 78.9086C124.713 78.8216 124.782 78.7336 124.762 78.6756L124.733 78.6466ZM112.33 69.6526C112.32 69.6136 112.3 69.5746 112.271 69.5356C112.174 69.3326 112.039 69.1476 111.883 68.9826L111.776 68.8756C111.99 69.1376 112.165 69.3996 112.359 69.7206C112.359 69.6916 112.349 69.6716 112.33 69.6526ZM124.733 78.6466C124.704 78.6276 124.646 78.6176 124.568 78.6276C124.063 78.6176 123.083 78.6466 122.421 78.6076C122.325 79.1226 122.247 79.6666 122.188 80.2976V80.3076C122.256 80.2686 122.325 80.2296 122.402 80.1906C122.626 80.0746 122.869 79.9586 123.121 79.8216C123.432 79.6766 123.753 79.5116 124.053 79.3166L123.578 79.6666C123.859 79.4816 124.141 79.2976 124.413 79.0936C124.462 79.0546 124.548 78.9866 124.627 78.9086C124.713 78.8216 124.782 78.7336 124.762 78.6756L124.733 78.6466ZM112.33 69.6526C112.32 69.6136 112.3 69.5746 112.271 69.5356C112.174 69.3326 112.039 69.1476 111.883 68.9826L111.776 68.8756C111.99 69.1376 112.165 69.3996 112.359 69.7206C112.359 69.6916 112.349 69.6716 112.33 69.6526ZM124.733 78.6466C124.704 78.6276 124.646 78.6176 124.568 78.6276C124.063 78.6176 123.083 78.6466 122.421 78.6076C122.325 79.1226 122.247 79.6666 122.188 80.2976V80.3076C122.256 80.2686 122.325 80.2296 122.402 80.1906C122.626 80.0746 122.869 79.9586 123.121 79.8216C123.432 79.6766 123.753 79.5116 124.053 79.3166L123.578 79.6666C123.859 79.4816 124.141 79.2976 124.413 79.0936C124.462 79.0546 124.548 78.9866 124.627 78.9086C124.713 78.8216 124.782 78.7336 124.762 78.6756L124.733 78.6466ZM112.33 69.6526C112.32 69.6136 112.3 69.5746 112.271 69.5356C112.174 69.3326 112.039 69.1476 111.883 68.9826L111.776 68.8756C111.99 69.1376 112.165 69.3996 112.359 69.7206C112.359 69.6916 112.349 69.6716 112.33 69.6526ZM124.733 78.6466C124.704 78.6276 124.646 78.6176 124.568 78.6276C124.063 78.6176 123.083 78.6466 122.421 78.6076C122.325 79.1226 122.247 79.6666 122.188 80.2976C122.256 80.2686 122.335 80.2296 122.402 80.1906C122.626 80.0746 122.869 79.9586 123.121 79.8216C123.432 79.6766 123.753 79.5116 124.053 79.3166L123.578 79.6666C123.859 79.4816 124.141 79.2976 124.413 79.0936C124.462 79.0546 124.548 78.9866 124.627 78.9086C124.713 78.8216 124.782 78.7336 124.762 78.6756L124.733 78.6466ZM112.33 69.6526C112.32 69.6136 112.3 69.5746 112.271 69.5356C112.174 69.3326 112.039 69.1476 111.883 68.9826L111.776 68.8756C111.99 69.1376 112.165 69.3996 112.359 69.7206C112.359 69.6916 112.349 69.6716 112.33 69.6526ZM124.733 78.6466C124.704 78.6276 124.646 78.6176 124.568 78.6276C124.063 78.6176 123.083 78.6466 122.421 78.6076C122.325 79.1226 122.247 79.6666 122.188 80.2976C122.256 80.2686 122.335 80.2296 122.402 80.1906C122.626 80.0746 122.869 79.9586 123.121 79.8216C123.432 79.6766 123.753 79.5116 124.053 79.3166L123.578 79.6666C123.859 79.4816 124.141 79.2976 124.413 79.0936C124.462 79.0546 124.548 78.9866 124.627 78.9086C124.713 78.8216 124.782 78.7336 124.762 78.6756L124.733 78.6466ZM112.33 69.6526C112.32 69.6136 112.3 69.5746 112.271 69.5356C112.174 69.3326 112.039 69.1476 111.883 68.9826L111.776 68.8756C111.99 69.1376 112.165 69.3996 112.359 69.7206C112.359 69.6916 112.349 69.6716 112.33 69.6526ZM124.733 78.6466C124.704 78.6276 124.646 78.6176 124.568 78.6276C124.063 78.6176 123.083 78.6466 122.421 78.6076C122.325 79.1226 122.247 79.6666 122.188 80.2976C122.256 80.2686 122.335 80.2296 122.402 80.1906C122.626 80.0746 122.869 79.9586 123.121 79.8216C123.432 79.6766 123.753 79.5116 124.053 79.3166L123.578 79.6666C123.859 79.4816 124.141 79.2976 124.413 79.0936C124.462 79.0546 124.548 78.9866 124.627 78.9086C124.713 78.8216 124.782 78.7336 124.762 78.6756L124.733 78.6466ZM112.33 69.6526C112.32 69.6136 112.3 69.5746 112.271 69.5356C112.174 69.3326 112.039 69.1476 111.883 68.9826L111.776 68.8756C111.99 69.1376 112.165 69.3996 112.359 69.7206C112.359 69.6916 112.349 69.6716 112.33 69.6526ZM124.733 78.6466C124.704 78.6276 124.646 78.6176 124.568 78.6276C124.063 78.6176 123.083 78.6466 122.421 78.6076C122.325 79.1226 122.247 79.6666 122.188 80.2976C122.256 80.2686 122.335 80.2296 122.402 80.1906C122.626 80.0746 122.869 79.9586 123.121 79.8216C123.432 79.6766 123.753 79.5116 124.053 79.3166L123.578 79.6666C123.859 79.4816 124.141 79.2976 124.413 79.0936C124.462 79.0546 124.548 78.9866 124.627 78.9086C124.713 78.8216 124.782 78.7336 124.762 78.6756L124.733 78.6466ZM112.33 69.6526C112.32 69.6136 112.3 69.5746 112.271 69.5356C112.174 69.3326 112.039 69.1476 111.883 68.9826L111.776 68.8756C111.99 69.1376 112.165 69.3996 112.359 69.7206C112.359 69.6916 112.349 69.6716 112.33 69.6526ZM124.733 78.6466C124.704 78.6276 124.646 78.6176 124.568 78.6276C124.063 78.6176 123.083 78.6466 122.421 78.6076C122.325 79.1226 122.247 79.6666 122.188 80.2976C122.256 80.2686 122.335 80.2296 122.402 80.1906C122.626 80.0746 122.869 79.9586 123.121 79.8216C123.432 79.6766 123.753 79.5116 124.053 79.3166L123.578 79.6666C123.859 79.4816 124.141 79.2976 124.413 79.0936C124.462 79.0546 124.548 78.9866 124.627 78.9086C124.713 78.8216 124.782 78.7336 124.762 78.6756L124.733 78.6466ZM112.33 69.6526C112.32 69.6136 112.3 69.5746 112.271 69.5356C112.174 69.3326 112.039 69.1476 111.883 68.9826L111.776 68.8756C111.99 69.1376 112.165 69.3996 112.359 69.7206C112.359 69.6916 112.349 69.6716 112.33 69.6526ZM124.733 78.6466C124.704 78.6276 124.646 78.6176 124.568 78.6276C124.063 78.6176 123.083 78.6466 122.421 78.6076C122.325 79.1226 122.247 79.6666 122.188 80.2976C122.256 80.2686 122.335 80.2296 122.402 80.1906C122.626 80.0746 122.869 79.9586 123.121 79.8216C123.432 79.6766 123.753 79.5116 124.053 79.3166L123.578 79.6666C123.859 79.4816 124.141 79.2976 124.413 79.0936C124.462 79.0546 124.548 78.9866 124.627 78.9086C124.713 78.8216 124.782 78.7336 124.762 78.6756L124.733 78.6466ZM112.33 69.6526C112.32 69.6136 112.3 69.5746 112.271 69.5356C112.174 69.3326 112.039 69.1476 111.883 68.9826L111.776 68.8756C111.99 69.1376 112.165 69.3996 112.359 69.7206C112.359 69.6916 112.349 69.6716 112.33 69.6526ZM124.733 78.6466C124.704 78.6276 124.646 78.6176 124.568 78.6276C124.063 78.6176 123.083 78.6466 122.421 78.6076C122.325 79.1226 122.247 79.6666 122.188 80.2976C122.256 80.2686 122.335 80.2296 122.402 80.1906C122.626 80.0746 122.869 79.9586 123.121 79.8216C123.432 79.6766 123.753 79.5116 124.053 79.3166L123.578 79.6666C123.859 79.4816 124.141 79.2976 124.413 79.0936C124.462 79.0546 124.548 78.9866 124.627 78.9086C124.713 78.8216 124.782 78.7336 124.762 78.6756L124.733 78.6466ZM112.33 69.6526C112.32 69.6136 112.3 69.5746 112.271 69.5356C112.174 69.3326 112.039 69.1476 111.883 68.9826L111.776 68.8756C111.99 69.1376 112.165 69.3996 112.359 69.7206C112.359 69.6916 112.349 69.6716 112.33 69.6526ZM124.733 78.6466C124.704 78.6276 124.646 78.6176 124.568 78.6276C124.063 78.6176 123.083 78.6466 122.421 78.6076C122.325 79.1226 122.247 79.6666 122.188 80.2976C122.256 80.2686 122.335 80.2296 122.402 80.1906C122.626 80.0746 122.869 79.9586 123.121 79.8216C123.432 79.6766 123.753 79.5116 124.053 79.3166L123.578 79.6666C123.859 79.4816 124.141 79.2976 124.413 79.0936C124.462 79.0546 124.548 78.9866 124.627 78.9086C124.713 78.8216 124.782 78.7336 124.762 78.6756L124.733 78.6466ZM112.33 69.6526C112.32 69.6136 112.3 69.5746 112.271 69.5356C112.174 69.3326 112.039 69.1476 111.883 68.9826L111.776 68.8756C111.99 69.1376 112.165 69.3996 112.359 69.7206C112.359 69.6916 112.349 69.6716 112.33 69.6526ZM124.733 78.6466C124.704 78.6276 124.646 78.6176 124.568 78.6276C124.063 78.6176 123.083 78.6466 122.421 78.6076C122.325 79.1226 122.247 79.6666 122.188 80.2976C122.256 80.2686 122.335 80.2296 122.402 80.1906C122.626 80.0746 122.869 79.9586 123.121 79.8216C123.432 79.6766 123.753 79.5116 124.053 79.3166L123.578 79.6666C123.859 79.4816 124.141 79.2976 124.413 79.0936C124.462 79.0546 124.548 78.9866 124.627 78.9086C124.713 78.8216 124.782 78.7336 124.762 78.6756L124.733 78.6466ZM112.33 69.6526C112.32 69.6136 112.3 69.5746 112.271 69.5356C112.174 69.3326 112.039 69.1476 111.883 68.9826L111.776 68.8756C111.99 69.1376 112.165 69.3996 112.359 69.7206C112.359 69.6916 112.349 69.6716 112.33 69.6526ZM124.733 78.6466C124.704 78.6276 124.646 78.6176 124.568 78.6276C124.063 78.6176 123.083 78.6466 122.421 78.6076C122.325 79.1226 122.247 79.6666 122.188 80.2976C122.256 80.2686 122.335 80.2296 122.402 80.1906C122.626 80.0746 122.869 79.9586 123.121 79.8216C123.432 79.6766 123.753 79.5116 124.053 79.3166L123.578 79.6666C123.859 79.4816 124.141 79.2976 124.413 79.0936C124.462 79.0546 124.548 78.9866 124.627 78.9086C124.713 78.8216 124.782 78.7336 124.762 78.6756L124.733 78.6466ZM112.33 69.6526C112.32 69.6136 112.3 69.5746 112.271 69.5356C112.174 69.3326 112.039 69.1476 111.883 68.9826L111.776 68.8756C111.99 69.1376 112.165 69.3996 112.359 69.7206C112.359 69.6916 112.349 69.6716 112.33 69.6526ZM113.962 91.1566C113.855 91.2056 113.748 91.2446 113.651 91.2836C112.796 91.6426 111.98 91.8666 111.106 91.8276H111.087C110.786 91.8176 110.504 91.7696 110.183 91.6916C110.173 91.6916 110.154 91.6816 110.144 91.6816C109.921 91.6326 109.708 91.5555 109.474 91.4676C108.726 91.1766 108.115 90.7196 107.561 90.1756C107.522 90.1376 107.493 90.0986 107.463 90.0696C107.444 90.0596 107.424 90.0406 107.415 90.0206C106.56 89.1266 105.861 88.0196 105.103 86.9706C104.346 85.9216 103.53 84.9406 102.432 84.3096C101.422 83.7266 100.189 83.4646 99.4019 82.5996C98.6829 81.8226 98.4789 80.6966 98.4309 79.6376C98.2359 74.6936 101.286 69.7786 105.803 67.7486C106.346 67.5056 106.852 67.3316 107.318 67.2246C107.328 67.2246 107.337 67.2246 107.347 67.2146C107.347 67.2146 107.347 67.2046 107.357 67.2146C109.378 66.7676 110.727 67.5356 111.747 68.8366C111.756 68.8556 111.766 68.8656 111.776 68.8756C111.99 69.1376 112.165 69.3996 112.359 69.7206C112.379 69.7396 112.388 69.7596 112.388 69.7786C112.408 69.7976 112.408 69.8176 112.418 69.8466C112.427 69.8466 112.427 69.8466 112.418 69.8566C112.418 69.8566 112.427 69.8566 112.427 69.8666C112.437 69.8856 112.446 69.9046 112.456 69.9246H112.465C112.465 69.9246 112.465 69.9346 112.456 69.9346L112.465 69.9436C113.223 71.2746 113.816 72.8576 114.476 74.2566C115.175 75.7426 116.448 76.7816 117.954 77.3546C117.983 77.3646 118.692 77.6366 119.712 77.7726C119.809 77.7926 119.916 77.8016 120.022 77.8116C120.061 77.8116 120.1 77.8206 120.139 77.8206C120.216 77.8406 120.304 77.8406 120.391 77.8506H120.401C121.139 77.8986 121.897 77.8306 122.616 77.6756C122.567 77.8696 122.529 78.0736 122.48 78.2876V78.2966C122.461 78.3946 122.441 78.5006 122.421 78.6076C122.325 79.1226 122.247 79.6666 122.188 80.2976V80.3076C122.179 80.4046 122.17 80.5116 122.16 80.6086C122.14 80.7936 122.13 81.0456 122.101 81.3276C121.995 82.6776 121.722 84.9116 120.615 86.2326C118.779 88.4276 117.42 89.5056 115.156 90.5936C114.953 90.6906 114.749 90.7886 114.554 90.8856C114.496 90.9146 114.437 90.9436 114.389 90.9626C114.234 91.0306 114.097 91.0986 113.962 91.1566ZM135.476 84.3386C134.553 82.1526 132.552 80.6276 131.348 78.5886C129.036 74.6836 129.842 69.3906 127.958 65.4376C127.783 64.9606 127.57 64.4946 127.317 64.0476C126.958 63.4066 126.51 62.7756 125.879 62.4066C124.578 61.6586 122.956 62.1926 121.461 62.2706C116.526 62.5326 112.087 57.6376 107.298 58.8326C105.376 59.3176 103.84 60.7066 102.209 61.8136C97.7409 64.8636 92.2429 65.9906 87.5909 68.7496C85.6089 69.9146 83.7539 71.4296 82.6469 73.4406C81.8119 74.9756 81.4419 76.7136 81.2679 78.4426C81.0149 80.9195 81.1699 83.4936 82.2389 85.7376C83.3069 87.9806 85.3959 89.8356 87.8729 90.1176C88.9699 90.2446 90.0289 90.0696 91.0779 89.7486C92.3499 89.3696 93.5929 88.7776 94.8369 88.2526C95.1079 88.1466 95.3799 88.0396 95.6429 87.9326C96.4399 87.6316 97.3229 87.3976 98.2069 87.2916C98.5369 87.2526 98.8779 87.2326 99.2169 87.2326C99.5869 87.2236 99.9559 87.2526 100.305 87.3106C100.315 87.3106 100.325 87.3206 100.334 87.3206H100.344C100.383 87.3306 100.441 87.3396 100.49 87.3496C100.587 87.3596 100.693 87.3786 100.791 87.4176C100.888 87.4466 100.995 87.4656 101.102 87.4956C101.121 87.5046 101.14 87.5146 101.16 87.5146C101.17 87.5246 101.179 87.5246 101.189 87.5246C101.665 87.6796 102.102 87.9136 102.49 88.2336H102.5C102.743 88.4276 102.966 88.6606 103.171 88.9326C104.297 90.4576 104.093 92.4876 104.336 94.3916C104.598 94.4986 104.87 94.6245 105.142 94.7606C106.463 95.4016 107.823 96.2856 109.319 97.4516C109.59 97.6646 109.853 97.8786 110.115 98.1016C110.154 98.1306 110.193 98.1696 110.222 98.1986C110.474 98.4126 110.717 98.6266 110.961 98.8496C111.047 98.9276 111.135 99.0046 111.212 99.0736C111.718 99.5296 112.213 99.9866 112.718 100.434C113.34 100.978 113.962 101.531 114.68 101.919C114.67 101.512 114.651 101.113 114.631 100.725C114.574 99.7236 114.399 98.5096 114.301 97.2956C114.262 96.6836 114.234 96.0716 114.253 95.4796C114.253 95.4796 114.253 95.4696 114.262 95.4696C114.272 95.0905 114.301 94.7316 114.36 94.3726V94.3626C114.486 93.4986 114.768 92.7305 115.273 92.1385L115.302 92.1086C116.263 90.9916 119.022 92.0015 120.43 92.4296C120.858 92.5555 121.247 92.7105 121.626 92.8955C122.519 93.3236 123.305 93.9445 124.092 94.8866H124.102C125.51 95.4016 127.288 95.2166 128.774 95.0036C131.105 94.6726 133.465 93.0415 134.767 91.0886C136.068 89.1175 136.399 86.5046 135.476 84.3386ZM112.271 69.5356C112.174 69.3326 112.039 69.1476 111.883 68.9826L111.776 68.8756C111.99 69.1376 112.165 69.3996 112.359 69.7206C112.359 69.6916 112.349 69.6716 112.33 69.6526C112.32 69.6136 112.3 69.5746 112.271 69.5356ZM124.733 78.6466C124.704 78.6276 124.646 78.6176 124.568 78.6276C124.063 78.6176 123.083 78.6466 122.421 78.6076C122.325 79.1226 122.247 79.6666 122.188 80.2976C122.256 80.2686 122.335 80.2296 122.402 80.1906C122.626 80.0746 122.869 79.9586 123.121 79.8216C123.432 79.6766 123.753 79.5116 124.053 79.3166L123.578 79.6666C123.859 79.4816 124.141 79.2976 124.413 79.0936C124.462 79.0546 124.548 78.9866 124.627 78.9086C124.713 78.8216 124.782 78.7336 124.762 78.6756L124.733 78.6466ZM112.33 69.6526C112.32 69.6136 112.3 69.5746 112.271 69.5356C112.174 69.3326 112.039 69.1476 111.883 68.9826L111.776 68.8756C111.99 69.1376 112.165 69.3996 112.359 69.7206C112.359 69.6916 112.349 69.6716 112.33 69.6526ZM124.733 78.6466C124.704 78.6276 124.646 78.6176 124.568 78.6276C124.063 78.6176 123.083 78.6466 122.421 78.6076C122.325 79.1226 122.247 79.6666 122.188 80.2976C122.256 80.2686 122.335 80.2296 122.402 80.1906C122.626 80.0746 122.869 79.9586 123.121 79.8216C123.432 79.6766 123.753 79.5116 124.053 79.3166L123.578 79.6666C123.859 79.4816 124.141 79.2976 124.413 79.0936C124.462 79.0546 124.548 78.9866 124.627 78.9086C124.713 78.8216 124.782 78.7336 124.762 78.6756L124.733 78.6466ZM112.33 69.6526C112.32 69.6136 112.3 69.5746 112.271 69.5356C112.174 69.3326 112.039 69.1476 111.883 68.9826L111.776 68.8756C111.99 69.1376 112.165 69.3996 112.359 69.7206C112.359 69.6916 112.349 69.6716 112.33 69.6526ZM124.733 78.6466C124.704 78.6276 124.646 78.6176 124.568 78.6276C124.063 78.6176 123.083 78.6466 122.421 78.6076C122.325 79.1226 122.247 79.6666 122.188 80.2976C122.256 80.2686 122.335 80.2296 122.402 80.1906C122.626 80.0746 122.869 79.9586 123.121 79.8216C123.432 79.6766 123.753 79.5116 124.053 79.3166L123.578 79.6666C123.859 79.4816 124.141 79.2976 124.413 79.0936C124.462 79.0546 124.548 78.9866 124.627 78.9086C124.713 78.8216 124.782 78.7336 124.762 78.6756L124.733 78.6466ZM112.33 69.6526C112.32 69.6136 112.3 69.5746 112.271 69.5356C112.174 69.3326 112.039 69.1476 111.883 68.9826L111.776 68.8756C111.99 69.1376 112.165 69.3996 112.359 69.7206C112.359 69.6916 112.349 69.6716 112.33 69.6526ZM124.733 78.6466C124.704 78.6276 124.646 78.6176 124.568 78.6276C124.063 78.6176 123.083 78.6466 122.421 78.6076C122.325 79.1226 122.247 79.6666 122.188 80.2976C122.256 80.2686 122.335 80.2296 122.402 80.1906C122.626 80.0746 122.869 79.9586 123.121 79.8216C123.432 79.6766 123.753 79.5116 124.053 79.3166L123.578 79.6666C123.859 79.4816 124.141 79.2976 124.413 79.0936C124.462 79.0546 124.548 78.9866 124.627 78.9086C124.713 78.8216 124.782 78.7336 124.762 78.6756L124.733 78.6466ZM112.33 69.6526C112.32 69.6136 112.3 69.5746 112.271 69.5356C112.174 69.3326 112.039 69.1476 111.883 68.9826L111.776 68.8756C111.99 69.1376 112.165 69.3996 112.359 69.7206C112.359 69.6916 112.349 69.6716 112.33 69.6526ZM124.733 78.6466C124.704 78.6276 124.646 78.6176 124.568 78.6276C124.063 78.6176 123.083 78.6466 122.421 78.6076C122.325 79.1226 122.247 79.6666 122.188 80.2976C122.256 80.2686 122.335 80.2296 122.402 80.1906C122.626 80.0746 122.869 79.9586 123.121 79.8216C123.432 79.6766 123.753 79.5116 124.053 79.3166L123.578 79.6666C123.859 79.4816 124.141 79.2976 124.413 79.0936C124.462 79.0546 124.548 78.9866 124.627 78.9086C124.713 78.8216 124.782 78.7336 124.762 78.6756L124.733 78.6466ZM112.33 69.6526C112.32 69.6136 112.3 69.5746 112.271 69.5356C112.174 69.3326 112.039 69.1476 111.883 68.9826L111.776 68.8756C111.99 69.1376 112.165 69.3996 112.359 69.7206C112.359 69.6916 112.349 69.6716 112.33 69.6526ZM124.733 78.6466C124.704 78.6276 124.646 78.6176 124.568 78.6276C124.063 78.6176 123.083 78.6466 122.421 78.6076C122.325 79.1226 122.247 79.6666 122.188 80.2976C122.256 80.2686 122.335 80.2296 122.402 80.1906C122.626 80.0746 122.869 79.9586 123.121 79.8216C123.432 79.6766 123.753 79.5116 124.053 79.3166L123.578 79.6666C123.859 79.4816 124.141 79.2976 124.413 79.0936C124.462 79.0546 124.548 78.9866 124.627 78.9086C124.713 78.8216 124.782 78.7336 124.762 78.6756L124.733 78.6466ZM112.33 69.6526C112.32 69.6136 112.3 69.5746 112.271 69.5356C112.174 69.3326 112.039 69.1476 111.883 68.9826L111.776 68.8756C111.99 69.1376 112.165 69.3996 112.359 69.7206C112.359 69.6916 112.349 69.6716 112.33 69.6526ZM124.733 78.6466C124.704 78.6276 124.646 78.6176 124.568 78.6276C124.063 78.6176 123.083 78.6466 122.421 78.6076C122.325 79.1226 122.247 79.6666 122.188 80.2976C122.256 80.2686 122.335 80.2296 122.402 80.1906C122.626 80.0746 122.869 79.9586 123.121 79.8216C123.432 79.6766 123.753 79.5116 124.053 79.3166L123.578 79.6666C123.859 79.4816 124.141 79.2976 124.413 79.0936C124.462 79.0546 124.548 78.9866 124.627 78.9086C124.713 78.8216 124.782 78.7336 124.762 78.6756L124.733 78.6466ZM112.33 69.6526C112.32 69.6136 112.3 69.5746 112.271 69.5356C112.174 69.3326 112.039 69.1476 111.883 68.9826L111.776 68.8756C111.99 69.1376 112.165 69.3996 112.359 69.7206C112.359 69.6916 112.349 69.6716 112.33 69.6526ZM124.733 78.6466C124.704 78.6276 124.646 78.6176 124.568 78.6276C124.063 78.6176 123.083 78.6466 122.421 78.6076C122.325 79.1226 122.247 79.6666 122.188 80.2976C122.256 80.2686 122.335 80.2296 122.402 80.1906C122.626 80.0746 122.869 79.9586 123.121 79.8216C123.432 79.6766 123.753 79.5116 124.053 79.3166L123.578 79.6666C123.859 79.4816 124.141 79.2976 124.413 79.0936C124.462 79.0546 124.548 78.9866 124.627 78.9086C124.713 78.8216 124.782 78.7336 124.762 78.6756L124.733 78.6466ZM112.33 69.6526C112.32 69.6136 112.3 69.5746 112.271 69.5356C112.174 69.3326 112.039 69.1476 111.883 68.9826L111.776 68.8756C111.99 69.1376 112.165 69.3996 112.359 69.7206C112.359 69.6916 112.349 69.6716 112.33 69.6526ZM124.733 78.6466C124.704 78.6276 124.646 78.6176 124.568 78.6276C124.063 78.6176 123.083 78.6466 122.421 78.6076C122.325 79.1226 122.247 79.6666 122.188 80.2976C122.256 80.2686 122.335 80.2296 122.402 80.1906C122.626 80.0746 122.869 79.9586 123.121 79.8216C123.432 79.6766 123.753 79.5116 124.053 79.3166L123.578 79.6666C123.859 79.4816 124.141 79.2976 124.413 79.0936C124.462 79.0546 124.548 78.9866 124.627 78.9086C124.713 78.8216 124.782 78.7336 124.762 78.6756L124.733 78.6466ZM112.33 69.6526C112.32 69.6136 112.3 69.5746 112.271 69.5356C112.174 69.3326 112.039 69.1476 111.883 68.9826L111.776 68.8756C111.99 69.1376 112.165 69.3996 112.359 69.7206C112.359 69.6916 112.349 69.6716 112.33 69.6526ZM124.733 78.6466C124.704 78.6276 124.646 78.6176 124.568 78.6276C124.063 78.6176 123.083 78.6466 122.421 78.6076C122.325 79.1226 122.247 79.6666 122.188 80.2976C122.256 80.2686 122.335 80.2296 122.402 80.1906C122.626 80.0746 122.869 79.9586 123.121 79.8216C123.432 79.6766 123.753 79.5116 124.053 79.3166L123.578 79.6666C123.859 79.4816 124.141 79.2976 124.413 79.0936C124.462 79.0546 124.548 78.9866 124.627 78.9086C124.713 78.8216 124.782 78.7336 124.762 78.6756L124.733 78.6466ZM112.33 69.6526C112.32 69.6136 112.3 69.5746 112.271 69.5356C112.174 69.3326 112.039 69.1476 111.883 68.9826L111.776 68.8756C111.99 69.1376 112.165 69.3996 112.359 69.7206C112.359 69.6916 112.349 69.6716 112.33 69.6526ZM124.733 78.6466C124.704 78.6276 124.646 78.6176 124.568 78.6276C124.063 78.6176 123.083 78.6466 122.421 78.6076C122.325 79.1226 122.247 79.6666 122.188 80.2976V80.3076C122.256 80.2686 122.325 80.2296 122.402 80.1906C122.626 80.0746 122.869 79.9586 123.121 79.8216C123.432 79.6766 123.753 79.5116 124.053 79.3166L123.578 79.6666C123.859 79.4816 124.141 79.2976 124.413 79.0936C124.462 79.0546 124.548 78.9866 124.627 78.9086C124.713 78.8216 124.782 78.7336 124.762 78.6756L124.733 78.6466ZM112.33 69.6526C112.32 69.6136 112.3 69.5746 112.271 69.5356C112.174 69.3326 112.039 69.1476 111.883 68.9826L111.776 68.8756C111.99 69.1376 112.165 69.3996 112.359 69.7206C112.359 69.6916 112.349 69.6716 112.33 69.6526ZM124.733 78.6466C124.704 78.6276 124.646 78.6176 124.568 78.6276C124.063 78.6176 123.083 78.6466 122.421 78.6076C122.325 79.1226 122.247 79.6666 122.188 80.2976V80.3076C122.256 80.2686 122.325 80.2296 122.402 80.1906C122.626 80.0746 122.869 79.9586 123.121 79.8216C123.432 79.6766 123.753 79.5116 124.053 79.3166L123.578 79.6666C123.859 79.4816 124.141 79.2976 124.413 79.0936C124.462 79.0546 124.548 78.9866 124.627 78.9086C124.713 78.8216 124.782 78.7336 124.762 78.6756L124.733 78.6466ZM112.33 69.6526C112.32 69.6136 112.3 69.5746 112.271 69.5356C112.174 69.3326 112.039 69.1476 111.883 68.9826L111.776 68.8756C111.99 69.1376 112.165 69.3996 112.359 69.7206C112.359 69.6916 112.349 69.6716 112.33 69.6526ZM124.733 78.6466C124.704 78.6276 124.646 78.6176 124.568 78.6276C124.063 78.6176 123.083 78.6466 122.421 78.6076C122.325 79.1226 122.247 79.6666 122.188 80.2976V80.3076C122.256 80.2686 122.325 80.2296 122.402 80.1906C122.626 80.0746 122.869 79.9586 123.121 79.8216C123.432 79.6766 123.753 79.5116 124.053 79.3166L123.578 79.6666C123.859 79.4816 124.141 79.2976 124.413 79.0936C124.462 79.0546 124.548 78.9866 124.627 78.9086C124.713 78.8216 124.782 78.7336 124.762 78.6756L124.733 78.6466ZM112.33 69.6526C112.32 69.6136 112.3 69.5746 112.271 69.5356C112.174 69.3326 112.039 69.1476 111.883 68.9826L111.776 68.8756C111.99 69.1376 112.165 69.3996 112.359 69.7206C112.359 69.6916 112.349 69.6716 112.33 69.6526ZM124.733 78.6466C124.704 78.6276 124.646 78.6176 124.568 78.6276C124.063 78.6176 123.083 78.6466 122.421 78.6076C122.325 79.1226 122.247 79.6666 122.188 80.2976V80.3076C122.256 80.2686 122.325 80.2296 122.402 80.1906C122.626 80.0746 122.869 79.9586 123.121 79.8216C123.432 79.6766 123.753 79.5116 124.053 79.3166L123.578 79.6666C123.859 79.4816 124.141 79.2976 124.413 79.0936C124.462 79.0546 124.548 78.9866 124.627 78.9086C124.713 78.8216 124.782 78.7336 124.762 78.6756L124.733 78.6466ZM112.33 69.6526C112.32 69.6136 112.3 69.5746 112.271 69.5356C112.174 69.3326 112.039 69.1476 111.883 68.9826L111.776 68.8756C111.99 69.1376 112.165 69.3996 112.359 69.7206C112.359 69.6916 112.349 69.6716 112.33 69.6526ZM124.733 78.6466C124.704 78.6276 124.646 78.6176 124.568 78.6276C124.063 78.6176 123.083 78.6466 122.421 78.6076C122.325 79.1226 122.247 79.6666 122.188 80.2976V80.3076C122.256 80.2686 122.325 80.2296 122.402 80.1906C122.626 80.0746 122.869 79.9586 123.121 79.8216C123.432 79.6766 123.753 79.5116 124.053 79.3166L123.578 79.6666C123.859 79.4816 124.141 79.2976 124.413 79.0936C124.462 79.0546 124.548 78.9866 124.627 78.9086C124.713 78.8216 124.782 78.7336 124.762 78.6756L124.733 78.6466ZM112.33 69.6526C112.32 69.6136 112.3 69.5746 112.271 69.5356C112.174 69.3326 112.039 69.1476 111.883 68.9826L111.776 68.8756C111.99 69.1376 112.165 69.3996 112.359 69.7206C112.359 69.6916 112.349 69.6716 112.33 69.6526ZM124.733 78.6466C124.704 78.6276 124.646 78.6176 124.568 78.6276C124.063 78.6176 123.083 78.6466 122.421 78.6076C122.325 79.1226 122.247 79.6666 122.188 80.2976V80.3076C122.256 80.2686 122.325 80.2296 122.402 80.1906C122.626 80.0746 122.869 79.9586 123.121 79.8216C123.432 79.6766 123.753 79.5116 124.053 79.3166L123.578 79.6666C123.859 79.4816 124.141 79.2976 124.413 79.0936C124.462 79.0546 124.548 78.9866 124.627 78.9086C124.713 78.8216 124.782 78.7336 124.762 78.6756L124.733 78.6466ZM112.33 69.6526C112.32 69.6136 112.3 69.5746 112.271 69.5356C112.174 69.3326 112.039 69.1476 111.883 68.9826L111.776 68.8756C111.99 69.1376 112.165 69.3996 112.359 69.7206C112.359 69.6916 112.349 69.6716 112.33 69.6526ZM124.733 78.6466C124.704 78.6276 124.646 78.6176 124.568 78.6276C124.063 78.6176 123.083 78.6466 122.421 78.6076C122.325 79.1226 122.247 79.6666 122.188 80.2976V80.3076C122.256 80.2686 122.325 80.2296 122.402 80.1906C122.626 80.0746 122.869 79.9586 123.121 79.8216C123.432 79.6766 123.753 79.5116 124.053 79.3166L123.578 79.6666C123.859 79.4816 124.141 79.2976 124.413 79.0936C124.462 79.0546 124.548 78.9866 124.627 78.9086C124.713 78.8216 124.782 78.7336 124.762 78.6756L124.733 78.6466ZM112.33 69.6526C112.32 69.6136 112.3 69.5746 112.271 69.5356C112.174 69.3326 112.039 69.1476 111.883 68.9826L111.776 68.8756C111.99 69.1376 112.165 69.3996 112.359 69.7206C112.359 69.6916 112.349 69.6716 112.33 69.6526ZM124.733 78.6466C124.704 78.6276 124.646 78.6176 124.568 78.6276C124.063 78.6176 123.083 78.6466 122.421 78.6076C122.325 79.1226 122.247 79.6666 122.188 80.2976V80.3076C122.256 80.2686 122.325 80.2296 122.402 80.1906C122.626 80.0746 122.869 79.9586 123.121 79.8216C123.432 79.6766 123.753 79.5116 124.053 79.3166L123.578 79.6666C123.859 79.4816 124.141 79.2976 124.413 79.0936C124.462 79.0546 124.548 78.9866 124.627 78.9086C124.713 78.8216 124.782 78.7336 124.762 78.6756L124.733 78.6466ZM112.33 69.6526C112.32 69.6136 112.3 69.5746 112.271 69.5356C112.174 69.3326 112.039 69.1476 111.883 68.9826L111.776 68.8756C111.99 69.1376 112.165 69.3996 112.359 69.7206C112.359 69.6916 112.349 69.6716 112.33 69.6526ZM124.733 78.6466C124.704 78.6276 124.646 78.6176 124.568 78.6276C124.063 78.6176 123.083 78.6466 122.421 78.6076C122.325 79.1226 122.247 79.6666 122.188 80.2976V80.3076C122.256 80.2686 122.325 80.2296 122.402 80.1906C122.626 80.0746 122.869 79.9586 123.121 79.8216C123.432 79.6766 123.753 79.5116 124.053 79.3166L123.578 79.6666C123.859 79.4816 124.141 79.2976 124.413 79.0936C124.462 79.0546 124.548 78.9866 124.627 78.9086C124.713 78.8216 124.782 78.7336 124.762 78.6756L124.733 78.6466ZM112.33 69.6526C112.32 69.6136 112.3 69.5746 112.271 69.5356C112.174 69.3326 112.039 69.1476 111.883 68.9826L111.776 68.8756C111.99 69.1376 112.165 69.3996 112.359 69.7206C112.359 69.6916 112.349 69.6716 112.33 69.6526ZM124.733 78.6466C124.704 78.6276 124.646 78.6176 124.568 78.6276C124.063 78.6176 123.083 78.6466 122.421 78.6076C122.325 79.1226 122.247 79.6666 122.188 80.2976V80.3076C122.256 80.2686 122.325 80.2296 122.402 80.1906C122.626 80.0746 122.869 79.9586 123.121 79.8216C123.432 79.6766 123.753 79.5116 124.053 79.3166L123.578 79.6666C123.859 79.4816 124.141 79.2976 124.413 79.0936C124.462 79.0546 124.548 78.9866 124.627 78.9086C124.713 78.8216 124.782 78.7336 124.762 78.6756L124.733 78.6466ZM112.33 69.6526C112.32 69.6136 112.3 69.5746 112.271 69.5356C112.174 69.3326 112.039 69.1476 111.883 68.9826L111.776 68.8756C111.99 69.1376 112.165 69.3996 112.359 69.7206C112.359 69.6916 112.349 69.6716 112.33 69.6526ZM124.733 78.6466C124.704 78.6276 124.646 78.6176 124.568 78.6276C124.063 78.6176 123.083 78.6466 122.421 78.6076C122.325 79.1226 122.247 79.6666 122.188 80.2976V80.3076C122.256 80.2686 122.325 80.2296 122.402 80.1906C122.626 80.0746 122.869 79.9586 123.121 79.8216C123.432 79.6766 123.753 79.5116 124.053 79.3166L123.578 79.6666C123.859 79.4816 124.141 79.2976 124.413 79.0936C124.462 79.0546 124.548 78.9866 124.627 78.9086C124.713 78.8216 124.782 78.7336 124.762 78.6756L124.733 78.6466ZM112.33 69.6526C112.32 69.6136 112.3 69.5746 112.271 69.5356C112.174 69.3326 112.039 69.1476 111.883 68.9826L111.776 68.8756C111.99 69.1376 112.165 69.3996 112.359 69.7206C112.359 69.6916 112.349 69.6716 112.33 69.6526ZM124.733 78.6466C124.704 78.6276 124.646 78.6176 124.568 78.6276C124.063 78.6176 123.083 78.6466 122.421 78.6076C122.325 79.1226 122.247 79.6666 122.188 80.2976V80.3076C122.256 80.2686 122.325 80.2296 122.402 80.1906C122.626 80.0746 122.869 79.9586 123.121 79.8216C123.432 79.6766 123.753 79.5116 124.053 79.3166L123.578 79.6666C123.859 79.4816 124.141 79.2976 124.413 79.0936C124.462 79.0546 124.548 78.9866 124.627 78.9086C124.713 78.8216 124.782 78.7336 124.762 78.6756L124.733 78.6466ZM112.33 69.6526C112.32 69.6136 112.3 69.5746 112.271 69.5356C112.174 69.3326 112.039 69.1476 111.883 68.9826L111.776 68.8756C111.99 69.1376 112.165 69.3996 112.359 69.7206C112.359 69.6916 112.349 69.6716 112.33 69.6526ZM124.733 78.6466C124.704 78.6276 124.646 78.6176 124.568 78.6276C124.063 78.6176 123.083 78.6466 122.421 78.6076C122.325 79.1226 122.247 79.6666 122.188 80.2976V80.3076C122.256 80.2686 122.325 80.2296 122.402 80.1906C122.626 80.0746 122.869 79.9586 123.121 79.8216C123.432 79.6766 123.753 79.5116 124.053 79.3166L123.578 79.6666C123.859 79.4816 124.141 79.2976 124.413 79.0936C124.462 79.0546 124.548 78.9866 124.627 78.9086C124.713 78.8216 124.782 78.7336 124.762 78.6756L124.733 78.6466Z" fill="#E58C3A"/>
<path fill-rule="evenodd" clip-rule="evenodd" d="M111.69 80.5112C111.936 80.3182 112.188 80.1272 112.476 80.0042C113.128 79.7262 113.899 79.8442 114.532 80.1662C115.164 80.4902 115.68 80.9982 116.159 81.5222C117.283 82.7552 118.26 84.1202 119.064 85.5812C119.253 85.9262 119.439 86.3212 119.327 86.6972C119.196 87.1352 118.723 87.3622 118.292 87.5142C116.389 88.1872 114.364 88.4172 112.359 88.6422C112.066 88.6752 111.762 88.7072 111.483 88.6132C111.211 88.5222 110.993 88.3212 110.792 88.1172C110.12 87.4362 109.548 86.6582 109.1 85.8142C108.829 85.3032 108.598 84.7532 108.579 84.1752C108.526 82.5482 110.583 81.3772 111.69 80.5112Z" fill="#DCA841"/>
<path fill-rule="evenodd" clip-rule="evenodd" d="M119.001 79.8481C119.538 79.8481 119.667 79.2811 119.719 78.6121C119.725 78.5391 119.756 78.4001 119.813 78.3531C119.847 78.3241 119.895 78.3231 119.939 78.3221C120.332 78.3151 120.48 78.1131 120.396 77.8451C119.01 77.7581 117.988 77.3601 117.95 77.3511C117.878 77.8181 118.292 77.7201 118.332 78.0051C118.375 78.8691 118.491 79.8481 119.001 79.8481Z" fill="#581F2E"/>
<path fill-rule="evenodd" clip-rule="evenodd" d="M110.907 73.4883C111.253 73.5933 111.725 72.0223 111.361 71.6913C111.187 71.4903 110.844 71.6183 110.673 71.8233C110.503 72.0283 110.414 72.5153 110.175 72.5433C109.934 72.5783 110.901 70.9673 109.582 71.0283C109.357 71.0383 108.883 71.1273 108.67 71.2003C107.606 71.5673 106.529 72.0553 105.592 72.6773C105.164 72.9613 104.4 73.7633 104.666 73.8753C105.063 73.9393 106.634 73.3383 107.538 73.1353C108.7 72.8753 109.8 73.0443 110.907 73.4883Z" fill="#581F2E"/>
<path fill-rule="evenodd" clip-rule="evenodd" d="M108.093 75.9805C108.107 76.3365 108.119 76.7815 108.178 77.1325C108.251 77.5775 108.262 77.8315 108.505 78.1695C108.668 78.3955 109.079 78.5145 109.332 78.3965C109.521 78.3085 109.617 78.0975 109.684 77.8995C109.85 77.4065 109.929 76.8845 109.917 76.3645C109.922 76.2505 110.715 76.3985 110.478 75.9385C110.393 75.7735 109.981 75.8695 109.219 75.6425C108.179 75.3315 107.812 75.3295 107.75 75.5445C107.639 75.9375 108.077 75.8635 108.093 75.9805Z" fill="#581F2E"/>
<path fill-rule="evenodd" clip-rule="evenodd" d="M110.936 83.3237C111.043 83.2137 111.089 83.0587 110.976 82.9617C110.87 82.8707 110.708 82.9107 110.577 82.9547C110.389 83.0177 110.199 83.0827 110.043 83.2057C109.521 83.6197 109.647 84.4317 109.823 85.0747C109.85 85.1757 109.885 85.2857 109.975 85.3377C110.116 85.4177 110.298 85.2957 110.352 85.1427C110.406 84.9907 110.374 84.8237 110.366 84.6617C110.339 84.1447 110.525 83.6607 110.924 83.3337C110.928 83.3307 110.932 83.3277 110.935 83.3237H110.936Z" fill="#E58C3A"/>
<path fill-rule="evenodd" clip-rule="evenodd" d="M107.608 67.0606C105.032 68.4826 102.866 70.6396 101.431 73.2086C100.819 74.3056 100.335 75.4876 100.15 76.7296C99.9644 77.9716 100.091 79.2796 100.648 80.4056C101.499 82.1256 103.103 82.8466 104.463 84.2016C105.659 85.3936 106.458 86.9196 107.188 88.4416C107.439 88.9656 107.687 89.4956 108.02 89.9716C108.959 91.3106 110.587 92.1356 112.22 92.1026C111.046 91.9806 109.963 91.3496 109.147 90.4986C108.33 89.6476 107.757 88.5886 107.321 87.4926C106.832 86.2666 106.479 84.9436 105.629 83.9336C105.082 83.2816 104.362 82.8036 103.708 82.2596C103.054 81.7146 102.438 81.0586 102.22 80.2356C102.109 80.2726 102.243 80.3536 102.204 80.2436C101.6 78.5396 101.577 76.6346 102.138 74.9156C102.996 72.2886 105.134 70.2386 107.534 68.8666C108.299 68.4296 109.14 68.0396 110.02 68.0816C111.115 68.1326 112.135 68.9226 112.461 69.9686C112.414 68.9026 111.847 67.8716 110.973 67.2606C110.099 66.6496 108.542 66.5446 107.608 67.0606Z" fill="#E58C3A"/>
<path fill-rule="evenodd" clip-rule="evenodd" d="M111.1 84.5566C111.088 84.7786 111.235 84.9816 111.415 85.1106C113.13 86.3416 116.126 86.4266 116.126 86.0296C116.126 85.8976 115.149 85.6346 114.473 85.3626C114.223 85.2626 113.083 84.7076 112.686 84.3956C112.104 83.9416 111.138 83.7996 111.1 84.5566Z" fill="#E58C3A"/>
<path fill-rule="evenodd" clip-rule="evenodd" d="M108.421 76.27C108.368 76.377 108.364 76.501 108.361 76.622C108.359 76.736 108.356 76.854 108.393 76.963C108.429 77.072 108.514 77.173 108.626 77.196C108.758 77.223 108.892 77.136 108.961 77.021C109.03 76.906 109.049 76.769 109.065 76.635C109.075 76.533 109.085 76.425 109.041 76.332C108.924 76.078 108.561 75.989 108.421 76.27Z" fill="#FFFFFE"/>
<path fill-rule="evenodd" clip-rule="evenodd" d="M118.617 78.165C118.571 78.264 118.571 78.373 118.575 78.478C118.578 78.589 118.581 78.706 118.634 78.807C118.696 78.925 118.868 79.107 119.105 78.915C119.167 78.866 119.182 78.738 119.19 78.654C119.205 78.502 119.219 78.346 119.166 78.201C119.071 77.94 118.747 77.889 118.617 78.165Z" fill="#FFFFFE"/>
<path fill-rule="evenodd" clip-rule="evenodd" d="M119.662 70.7672C120.303 70.4892 120.952 69.7542 121.324 69.1632C121.848 68.3322 121.775 67.2732 121.684 66.2952C121.672 65.8602 122.36 66.6872 122.554 67.0252C122.748 67.3642 122.864 67.7412 123.04 68.0892C123.07 68.1492 123.109 68.2142 123.174 68.2342C123.311 68.2762 123.405 68.0952 123.431 67.9532C123.615 66.9552 123.566 65.9152 123.29 64.9392C123.22 64.4302 124.654 65.7842 124.966 66.5352C125.292 67.3182 125.489 68.1552 125.549 69.0012C125.791 69.0272 125.903 68.7132 125.941 68.4722C125.978 68.2312 126.028 67.7002 126.364 67.9872C126.66 68.4272 126.837 68.9352 126.986 69.4442C127.149 70.0012 127.285 70.5722 127.295 71.1522C127.32 72.5882 126.539 73.9792 125.383 74.8312C124.226 75.6822 122.735 76.0171 121.305 75.9002C120.091 75.8001 118.864 75.5462 118.056 74.6372C117.941 74.4472 119.202 74.6162 118.742 74.4652C117.48 73.9722 116.417 72.9922 115.822 71.7752C115.649 71.4442 116.681 72.0152 116.407 71.7852C115.973 71.4082 115.618 70.8192 115.651 70.5442C116.185 70.6322 118.056 71.4652 119.662 70.7672Z" fill="#DCA841"/>
<path fill-rule="evenodd" clip-rule="evenodd" d="M114.592 95.0908C114.504 95.8868 114.465 96.5958 114.465 97.2368C114.436 99.1988 114.728 100.549 115.038 101.871C115.059 101.958 115.077 102.036 115.097 102.123C114.951 102.065 114.815 101.997 114.679 101.919C113.96 101.53 113.339 100.977 112.717 100.433C112.212 99.9868 111.717 99.5298 111.212 99.0728C111.135 99.0048 111.047 98.9268 110.96 98.8498C110.717 98.6268 110.474 98.4128 110.222 98.1988C110.193 98.1698 110.153 98.1308 110.113 98.1018C109.988 96.9658 109.823 96.0328 109.649 95.4108C108.755 92.4198 106.413 90.0108 103.577 88.6798C103.227 88.5058 102.859 88.3598 102.5 88.2338H102.49C102.082 88.0878 101.674 87.9618 101.257 87.8638C100.556 87.6988 99.8385 87.5828 99.2165 87.2328C99.2065 87.2228 99.1965 87.2228 99.1875 87.2138C99.4785 87.1748 99.8575 87.2228 100.304 87.3108C100.314 87.3108 100.324 87.3198 100.334 87.3198H100.342C100.382 87.3298 100.441 87.3398 100.488 87.3498C100.587 87.3688 100.684 87.3878 100.789 87.4178C100.887 87.4468 100.993 87.4658 101.1 87.4948C101.12 87.5048 101.139 87.5148 101.158 87.5148C101.168 87.5248 101.178 87.5248 101.188 87.5248C101.867 87.7188 102.606 87.9708 103.334 88.2528C104.966 88.8648 106.521 89.5838 107.027 89.8258C107.162 89.8948 107.287 89.9628 107.413 90.0208C107.842 90.2438 108.231 90.4478 108.58 90.6328C108.59 90.6418 108.599 90.6418 108.609 90.6518C108.609 90.6518 108.618 90.6518 108.618 90.6618C108.618 90.6618 108.628 90.6618 108.628 90.6718C108.628 90.6718 108.639 90.6718 108.639 90.6808C109.366 91.0308 109.921 91.3318 110.465 91.5258H110.474C111.416 91.8468 112.28 91.8268 113.651 91.2828C113.747 91.2448 113.854 91.2058 113.96 91.1568C114.096 91.0988 114.234 91.0308 114.389 90.9628C114.437 90.9438 114.495 90.9138 114.554 90.8848C115.038 90.9728 115.233 91.3218 115.272 91.7888C115.281 91.9048 115.281 92.0118 115.272 92.1378C115.213 93.1768 114.641 94.5668 114.592 95.0908Z" fill="#E37D7E"/>
<path fill-rule="evenodd" clip-rule="evenodd" d="M110.96 98.8496C110.717 98.6266 110.474 98.4126 110.222 98.1986C110.192 98.1696 110.153 98.1306 110.114 98.1016C109.853 97.8786 109.59 97.6646 109.318 97.4516C107.822 96.2856 106.463 95.4016 105.142 94.7606C104.87 94.6246 104.598 94.4976 104.335 94.3916C103.665 94.1096 102.995 93.8866 102.325 93.7216C102.102 93.6626 101.868 93.6146 101.645 93.5656C101.626 93.5656 101.606 93.5566 101.586 93.5566C100.159 91.3806 98.469 89.0786 98.207 87.2906C99.353 87.0386 100.343 86.9226 101.218 86.9226C101.596 86.9226 101.956 86.9416 102.296 86.9906C104.394 87.2716 105.793 88.3786 107.414 90.0206C107.424 90.0396 107.443 90.0596 107.463 90.0696C107.492 90.0986 107.522 90.1376 107.561 90.1756C108.551 91.3226 110.008 94.9646 110.357 96.3046C110.523 96.9356 110.668 97.5486 110.805 98.1406C110.862 98.3836 110.921 98.6166 110.96 98.8496Z" fill="#DCA841"/>
<path fill-rule="evenodd" clip-rule="evenodd" d="M124.813 78.2822C124.071 78.2822 123.327 78.2222 122.586 78.2822C121.944 78.3342 121.755 78.2922 121.764 78.4432C121.778 78.7052 123.769 78.6042 124.565 78.6282C125.035 78.6002 124.558 78.9802 124.408 79.0932C124.138 79.2952 123.86 79.4842 123.574 79.6632C123.57 79.6642 123.567 79.6652 123.563 79.6662L124.099 79.2892C123.783 79.4872 123.454 79.6622 123.117 79.8242C120.989 80.9322 119.915 81.4492 119.042 81.3982C118.366 81.3582 117.752 80.9222 117.189 80.5472C116.578 80.1402 115.993 79.6952 115.439 79.2142C115.118 78.9362 114.803 78.6432 114.43 78.4402C113.522 77.9462 112.783 77.9802 111.53 78.6432C111.145 78.8462 110.68 79.1022 110.2 79.3752C109.887 79.5312 108.323 80.4712 107.593 80.3682C106.988 80.2832 106.321 79.7892 105.85 79.3992C104.894 78.6072 103.938 77.8162 102.982 77.0242C102.973 77.0172 102.964 77.0102 102.955 77.0022C102.945 76.9722 102.943 76.9402 102.955 76.9062C102.99 76.7962 103.128 76.7672 103.242 76.7562C104.038 76.6782 104.833 76.5992 105.628 76.5212C105.765 76.5072 105.945 76.4442 105.928 76.3072C105.913 76.1812 105.745 76.1522 105.618 76.1562C104.411 76.1862 103.697 76.2052 102.489 76.2362C102.525 76.3822 102.492 76.2352 102.489 76.2362C101.517 76.1552 102.553 77.3332 102.856 77.7742C103.538 78.7672 104.705 79.7482 105.718 80.6082C106.432 81.2132 107.227 81.7492 108.14 81.5442C108.5 81.4642 108.823 81.2752 109.14 81.0882C110.145 80.4972 111.142 79.8952 112.153 79.3142C112.994 78.8322 113.387 78.8172 113.823 78.9682C114.259 79.1182 114.447 79.2932 114.783 79.6092C115.569 80.3522 116.518 81.2452 117.304 81.9872C117.809 82.4632 118.409 82.9732 119.098 82.9002C119.393 82.8682 119.665 82.7292 119.926 82.5902C121.375 81.8182 122.769 80.9412 124.091 79.9672C124.138 79.9322 125.181 79.1682 125.342 79.0112C125.599 78.7612 125.718 78.5872 125.545 78.4432C125.417 78.3362 124.979 78.2822 124.813 78.2822Z" fill="#DA5335"/>
<path fill-rule="evenodd" clip-rule="evenodd" d="M113.931 77.6299C114.119 77.6219 114.31 77.5939 114.497 77.5719C114.928 77.5219 115.313 77.4539 115.735 77.3519C116.046 77.2759 116.009 77.0689 115.798 77.0849C114.665 77.1799 114.429 77.2799 113.657 77.2009C112.689 77.1019 111.492 76.2799 111.414 76.6489C111.402 76.7079 111.447 76.8179 111.492 76.8569C112.17 77.4449 112.937 77.6719 113.931 77.6299Z" fill="#DA5335"/>
<path fill-rule="evenodd" clip-rule="evenodd" d="M100.275 90.0596C100.974 91.1476 101.673 92.3806 102.324 93.7216C102.101 93.6636 101.868 93.6146 101.645 93.5656C101.188 92.8086 100.567 91.9346 100.197 91.3226C99.4108 90.0006 100.051 89.7006 100.275 90.0596Z" fill="#E58C3A"/>
<path fill-rule="evenodd" clip-rule="evenodd" d="M97.3714 93.3423C97.0794 93.3523 96.7794 93.3713 96.4684 93.4103C95.5064 91.8663 94.7484 90.9433 95.2444 90.9143C95.6714 90.8943 96.2934 91.6423 96.6334 92.1093C96.6424 92.1183 96.6524 92.1383 96.6624 92.1573C96.7114 92.2353 96.7594 92.3033 96.8084 92.3613C96.8474 92.4193 96.8764 92.4683 96.9054 92.5163C97.0514 92.7503 97.2064 93.0313 97.3714 93.3423Z" fill="#E58C3A"/>
<path fill-rule="evenodd" clip-rule="evenodd" d="M121.74 96.373C121.381 96.868 120.915 97.257 120.448 97.665C119.001 98.917 117.719 100.209 117.845 102.113C117.845 102.191 117.854 102.278 117.864 102.385C117.689 102.424 117.514 102.443 117.34 102.463C117.272 101.715 117.311 100.977 117.553 100.307C118.205 98.461 121.002 97.092 121.634 95.236C121.866 94.547 121.167 94.1 120.526 93.818C120.195 93.683 119.885 93.585 119.729 93.527C119.263 93.352 118.176 93.07 118.602 92.847C118.855 92.711 120.108 93.109 120.895 93.527C120.963 93.556 121.031 93.595 121.09 93.634C121.604 93.935 121.973 94.197 122.158 94.77C122.352 95.363 122.168 95.8 121.74 96.373Z" fill="#E58C3A"/>
</g>
</g>
<defs>
<filter id="filter0_d" x="0" y="0" width="223" height="308" filterUnits="userSpaceOnUse" color-interpolation-filters="sRGB">
<feFlood flood-opacity="0" result="BackgroundImageFix"/>
<feColorMatrix in="SourceAlpha" type="matrix" values="0 0 0 0 0 0 0 0 0 0 0 0 0 0 0 0 0 0 127 0"/>
<feOffset dy="6"/>
<feGaussianBlur stdDeviation="3"/>
<feColorMatrix type="matrix" values="0 0 0 0 0 0 0 0 0 0 0 0 0 0 0 0 0 0 0.5 0"/>
<feBlend mode="normal" in2="BackgroundImageFix" result="effect1_dropShadow"/>
<feBlend mode="normal" in="SourceGraphic" in2="effect1_dropShadow" result="shape"/>
</filter>
</defs>
</svg>
