<svg width="199" height="284" viewBox="0 0 199 284" fill="none" xmlns="http://www.w3.org/2000/svg">
<path fill-rule="evenodd" clip-rule="evenodd" d="M0 269.46C0 277.192 6.26801 283.46 14 283.46H184.43C192.162 283.46 198.43 277.192 198.43 269.46V14C198.43 6.26802 192.162 0 184.43 0H14C6.268 0 0 6.26801 0 14V269.46Z" fill="#7E689E"/>
<mask id="mask0" mask-type="alpha" maskUnits="userSpaceOnUse" x="0" y="0" width="199" height="284">
<path fill-rule="evenodd" clip-rule="evenodd" d="M0 283.46H198.43V0H0V283.46Z" fill="white"/>
</mask>
<g mask="url(#mask0)">
<path fill-rule="evenodd" clip-rule="evenodd" d="M11.3242 12.7642V11.0002H21.0442V12.7642H17.1562V23.6002H15.2122V12.7642H11.3242Z" fill="#FFFFFE"/>
<path fill-rule="evenodd" clip-rule="evenodd" d="M23.3588 21.314C23.9248 21.878 24.6098 22.16 25.4168 22.16C26.2238 22.16 26.9098 21.878 27.4758 21.314C28.0408 20.75 28.3238 20.024 28.3238 19.136C28.3238 18.248 28.0408 17.522 27.4758 16.958C26.9098 16.394 26.2238 16.112 25.4168 16.112C24.6098 16.112 23.9248 16.394 23.3588 16.958C22.7928 17.522 22.5098 18.248 22.5098 19.136C22.5098 20.024 22.7928 20.75 23.3588 21.314M28.7458 15.68C29.6888 16.52 30.1598 17.672 30.1598 19.136C30.1598 20.6 29.6888 21.752 28.7458 22.592C27.8018 23.432 26.6928 23.852 25.4168 23.852C24.1408 23.852 23.0318 23.432 22.0878 22.592C21.1458 21.752 20.6738 20.6 20.6738 19.136C20.6738 17.672 21.1458 16.52 22.0878 15.68C23.0318 14.84 24.1408 14.42 25.4168 14.42C26.6928 14.42 27.8018 14.84 28.7458 15.68" fill="#FFFFFE"/>
<path fill-rule="evenodd" clip-rule="evenodd" d="M33.0797 14.6719L34.7897 17.3899L36.5177 14.6719H38.6777L35.8697 18.7939L38.9837 23.5999H36.8417L34.7897 20.2879L32.7197 23.5999H30.5957L33.8177 18.8479L30.9737 14.6719H33.0797Z" fill="#FFFFFE"/>
<path fill-rule="evenodd" clip-rule="evenodd" d="M40.2582 13.25H42.2022V11.18H40.2582V13.25ZM40.2402 23.6H42.0762V14.672H40.2402V23.6Z" fill="#FFFFFE"/>
<path fill-rule="evenodd" clip-rule="evenodd" d="M51.2915 20.3599L52.7135 21.2779C51.8495 22.9939 50.4815 23.8519 48.6095 23.8519C47.3015 23.8519 46.2085 23.4109 45.3335 22.5289C44.4575 21.6469 44.0195 20.5159 44.0195 19.1359C44.0195 17.7679 44.4635 16.6399 45.3515 15.7519C46.2395 14.8639 47.3255 14.4199 48.6095 14.4199C49.5815 14.4199 50.4155 14.6329 51.1115 15.0589C51.8075 15.4849 52.3175 16.0829 52.6415 16.8499L51.1835 17.8219C50.6195 16.6819 49.7675 16.1119 48.6275 16.1119C47.8475 16.1119 47.1905 16.3879 46.6565 16.9399C46.1225 17.4919 45.8555 18.2239 45.8555 19.1359C45.8555 20.0599 46.1135 20.7959 46.6295 21.3409C47.1455 21.8869 47.8115 22.1599 48.6275 22.1599C49.2635 22.1599 49.7855 22.0099 50.1935 21.7099C50.6015 21.4099 50.9675 20.9609 51.2915 20.3599" fill="#FFFFFE"/>
<path fill-rule="evenodd" clip-rule="evenodd" d="M61.7487 12.6919V17.2999H65.2407C66.1047 17.2999 66.7647 17.0949 67.2207 16.6829C67.6767 16.2719 67.9047 15.7099 67.9047 14.9959C67.9047 14.2829 67.6767 13.7199 67.2207 13.3089C66.7647 12.8979 66.1047 12.6919 65.2407 12.6919H61.7487ZM59.8047 23.5999V10.9999H65.3127C66.7047 10.9999 67.8087 11.3519 68.6247 12.0549C69.4407 12.7579 69.8487 13.7379 69.8487 14.9959C69.8487 16.2539 69.4407 17.2339 68.6247 17.9379C67.8087 18.6409 66.7047 18.9919 65.3127 18.9919H61.7487V23.5999H59.8047Z" fill="#FFFFFE"/>
<path fill-rule="evenodd" clip-rule="evenodd" d="M73.7729 21.314C74.3389 21.878 75.0239 22.16 75.8309 22.16C76.6379 22.16 77.3239 21.878 77.8899 21.314C78.4549 20.75 78.7379 20.024 78.7379 19.136C78.7379 18.248 78.4549 17.522 77.8899 16.958C77.3239 16.394 76.6379 16.112 75.8309 16.112C75.0239 16.112 74.3389 16.394 73.7729 16.958C73.2069 17.522 72.9239 18.248 72.9239 19.136C72.9239 20.024 73.2069 20.75 73.7729 21.314M79.1599 15.68C80.1029 16.52 80.5739 17.672 80.5739 19.136C80.5739 20.6 80.1029 21.752 79.1599 22.592C78.2159 23.432 77.1069 23.852 75.8309 23.852C74.5549 23.852 73.4459 23.432 72.5019 22.592C71.5599 21.752 71.0879 20.6 71.0879 19.136C71.0879 17.672 71.5599 16.52 72.5019 15.68C73.4459 14.84 74.5549 14.42 75.8309 14.42C77.1069 14.42 78.2159 14.84 79.1599 15.68" fill="#FFFFFE"/>
<path fill-rule="evenodd" clip-rule="evenodd" d="M90.4842 17.5342V23.6002H88.6482V18.0742C88.6482 17.4622 88.4742 16.9822 88.1262 16.6342C87.7782 16.2862 87.2922 16.1122 86.6682 16.1122C86.0082 16.1122 85.4532 16.3672 85.0032 16.8772C84.5532 17.3872 84.3282 18.0562 84.3282 18.8842V23.6002H82.4922V14.6722H84.3282V16.1662C84.6522 15.6382 85.0812 15.2152 85.6152 14.8972C86.1492 14.5792 86.7342 14.4202 87.3702 14.4202C88.2822 14.4202 89.0292 14.6962 89.6112 15.2482C90.1932 15.8002 90.4842 16.5622 90.4842 17.5342" fill="#FFFFFE"/>
<path fill-rule="evenodd" clip-rule="evenodd" d="M95.0062 21.314C95.5422 21.878 96.2012 22.16 96.9842 22.16C97.7662 22.16 98.4172 21.878 98.9342 21.314C99.4522 20.75 99.7112 20.024 99.7112 19.136C99.7112 18.248 99.4522 17.522 98.9342 16.958C98.4172 16.394 97.7662 16.112 96.9842 16.112C96.2012 16.112 95.5422 16.394 95.0062 16.958C94.4702 17.522 94.2032 18.248 94.2032 19.136C94.2032 20.024 94.4702 20.75 95.0062 21.314V21.314ZM101.475 11V23.6H99.6392V22.16C98.9882 23.288 98.0012 23.852 96.6772 23.852C95.4372 23.852 94.4082 23.418 93.5922 22.547C92.7752 21.677 92.3672 20.54 92.3672 19.136C92.3672 17.756 92.7932 16.625 93.6452 15.743C94.4982 14.861 95.4962 14.42 96.6412 14.42C98.0732 14.42 99.0732 14.954 99.6392 16.022V11H101.475Z" fill="#FFFFFE"/>
<path fill-rule="evenodd" clip-rule="evenodd" d="M13.8505 52.02C14.6375 52.02 15.2625 51.807 15.7255 51.38C16.1885 50.954 16.4205 50.327 16.4205 49.5C16.4205 48.673 16.1885 48.047 15.7255 47.62C15.2625 47.193 14.6375 46.98 13.8505 46.98H12.8905V52.02H13.8505ZM11.8105 53V46H13.8235C14.9195 46 15.8065 46.305 16.4835 46.915C17.1615 47.525 17.5005 48.387 17.5005 49.5C17.5005 50.613 17.1615 51.475 16.4835 52.085C15.8065 52.695 14.9195 53 13.8235 53H11.8105Z" fill="#FFFFFE"/>
<path fill-rule="evenodd" clip-rule="evenodd" d="M21.6872 47.9487L21.5172 48.8997C21.3902 48.8597 21.2602 48.8397 21.1272 48.8397C20.7672 48.8397 20.4702 48.9857 20.2372 49.2777C20.0032 49.5687 19.8872 49.9357 19.8872 50.3777V52.9997H18.8672V48.0397H19.8872V48.8607C20.1932 48.2197 20.6702 47.8997 21.3172 47.8997C21.4172 47.8997 21.5402 47.9167 21.6872 47.9487" fill="#FFFFFE"/>
<path fill-rule="evenodd" clip-rule="evenodd" d="M22.5666 47.25H23.6466V46.1H22.5666V47.25ZM22.5566 53H23.5766V48.04H22.5566V53Z" fill="#FFFFFE"/>
<path fill-rule="evenodd" clip-rule="evenodd" d="M29.5064 49.6299V52.9999H28.4864V49.9299C28.4864 49.5899 28.3894 49.3229 28.1964 49.1299C28.0034 48.9369 27.7334 48.8399 27.3864 48.8399C27.0194 48.8399 26.7114 48.9819 26.4614 49.2649C26.2114 49.5479 26.0864 49.9199 26.0864 50.3799V52.9999H25.0664V48.0399H26.0864V48.8699C26.2664 48.5769 26.5044 48.3419 26.8014 48.1649C27.0974 47.9879 27.4234 47.8999 27.7764 47.8999C28.2824 47.8999 28.6974 48.0529 29.0214 48.3599C29.3444 48.6669 29.5064 49.0899 29.5064 49.6299" fill="#FFFFFE"/>
<path fill-rule="evenodd" clip-rule="evenodd" d="M31.9712 46V49.71L33.6612 48.04H34.9112L33.1612 49.76L35.2112 53H34.0212L32.4312 50.48L31.9712 50.94V53H30.9512V46H31.9712Z" fill="#FFFFFE"/>
<path fill-rule="evenodd" clip-rule="evenodd" d="M40.5286 52.2798C40.9666 52.2798 41.3196 52.1238 41.5886 51.8098C41.8576 51.4968 41.9916 51.1028 41.9916 50.6278V50.4898L40.6536 50.7228C40.0186 50.8348 39.7016 51.1108 39.7016 51.5508C39.7016 51.7738 39.7766 51.9518 39.9256 52.0828C40.0756 52.2148 40.2766 52.2798 40.5286 52.2798M43.3116 52.9998H42.2916C42.1186 52.7988 42.0256 52.5058 42.0116 52.1208C41.6866 52.8008 41.1386 53.1398 40.3696 53.1398C39.8696 53.1398 39.4636 52.9978 39.1516 52.7138C38.8386 52.4298 38.6816 52.0608 38.6816 51.6058C38.6816 51.1398 38.8416 50.7728 39.1636 50.5038C39.4856 50.2348 39.9046 50.0598 40.4216 49.9798L41.9916 49.7298V49.5238C41.9916 48.9618 41.6466 48.6798 40.9566 48.6798C40.6246 48.6798 40.3716 48.7408 40.1956 48.8628C40.0196 48.9858 39.9316 49.1398 39.9316 49.3248C39.9316 49.3708 39.9386 49.4208 39.9516 49.4728L39.0326 49.7808C38.9786 49.6548 38.9516 49.5228 38.9516 49.3838C38.9516 48.9808 39.1356 48.6318 39.5036 48.3398C39.8706 48.0468 40.3556 47.8998 40.9566 47.8998C41.6286 47.8998 42.1386 48.0458 42.4876 48.3388C42.8376 48.6308 43.0116 49.0488 43.0116 49.5918V51.7548C43.0116 52.2498 43.1116 52.6648 43.3116 52.9998" fill="#FFFFFE"/>
<path fill-rule="evenodd" clip-rule="evenodd" d="M50.9306 51.2002L51.7206 51.7102C51.2406 52.6632 50.4806 53.1402 49.4406 53.1402C48.7136 53.1402 48.1066 52.8952 47.6206 52.4052C47.1336 51.9152 46.8906 51.2862 46.8906 50.5202C46.8906 49.7602 47.1376 49.1332 47.6306 48.6402C48.1236 48.1462 48.7266 47.9002 49.4406 47.9002C49.9806 47.9002 50.4436 48.0182 50.8306 48.2552C51.2176 48.4922 51.5006 48.8232 51.6806 49.2502L50.8706 49.7902C50.5566 49.1572 50.0836 48.8402 49.4506 48.8402C49.0166 48.8402 48.6516 48.9932 48.3556 49.3002C48.0586 49.6072 47.9106 50.0132 47.9106 50.5202C47.9106 51.0332 48.0536 51.4422 48.3406 51.7452C48.6266 52.0482 48.9966 52.2002 49.4506 52.2002C49.8036 52.2002 50.0936 52.1172 50.3206 51.9502C50.5466 51.7832 50.7506 51.5332 50.9306 51.2002" fill="#FFFFFE"/>
<path fill-rule="evenodd" clip-rule="evenodd" d="M53.9988 51.73C54.3128 52.043 54.6938 52.2 55.1428 52.2C55.5908 52.2 55.9718 52.043 56.2858 51.73C56.6008 51.417 56.7578 51.014 56.7578 50.52C56.7578 50.027 56.6008 49.624 56.2858 49.31C55.9718 48.997 55.5908 48.84 55.1428 48.84C54.6938 48.84 54.3128 48.997 53.9988 49.31C53.6848 49.624 53.5278 50.027 53.5278 50.52C53.5278 51.014 53.6848 51.417 53.9988 51.73M56.9918 48.6C57.5158 49.067 57.7778 49.707 57.7778 50.52C57.7778 51.334 57.5158 51.974 56.9918 52.44C56.4678 52.907 55.8518 53.14 55.1428 53.14C54.4338 53.14 53.8168 52.907 53.2928 52.44C52.7698 51.974 52.5078 51.334 52.5078 50.52C52.5078 49.707 52.7698 49.067 53.2928 48.6C53.8168 48.133 54.4338 47.9 55.1428 47.9C55.8518 47.9 56.4678 48.133 56.9918 48.6" fill="#FFFFFE"/>
<path fill-rule="evenodd" clip-rule="evenodd" d="M62.7119 51.2002L63.5019 51.7102C63.0219 52.6632 62.2619 53.1402 61.2219 53.1402C60.4949 53.1402 59.8879 52.8952 59.4019 52.4052C58.9149 51.9152 58.6719 51.2862 58.6719 50.5202C58.6719 49.7602 58.9189 49.1332 59.4119 48.6402C59.9049 48.1462 60.5079 47.9002 61.2219 47.9002C61.7619 47.9002 62.2249 48.0182 62.6119 48.2552C62.9989 48.4922 63.2819 48.8232 63.4619 49.2502L62.6519 49.7902C62.3379 49.1572 61.8649 48.8402 61.2319 48.8402C60.7979 48.8402 60.4329 48.9932 60.1369 49.3002C59.8399 49.6072 59.6919 50.0132 59.6919 50.5202C59.6919 51.0332 59.8349 51.4422 60.1219 51.7452C60.4079 52.0482 60.7779 52.2002 61.2319 52.2002C61.5849 52.2002 61.8749 52.1172 62.1019 51.9502C62.3279 51.7832 62.5319 51.5332 62.7119 51.2002" fill="#FFFFFE"/>
<path fill-rule="evenodd" clip-rule="evenodd" d="M65.6079 46V49.71L67.2979 48.04H68.5479L66.7979 49.76L68.8479 53H67.6579L66.0679 50.48L65.6079 50.94V53H64.5879V46H65.6079Z" fill="#FFFFFE"/>
<path fill-rule="evenodd" clip-rule="evenodd" d="M69.4316 48.8599V48.0399H70.2316V46.6999H71.2516V48.0399H72.3616V48.8599H71.2516V51.4749C71.2516 51.9579 71.4776 52.1999 71.9316 52.1999C72.0446 52.1999 72.1676 52.1799 72.3016 52.1399L72.3916 53.0179C72.1716 53.0989 71.9246 53.1399 71.6516 53.1399C71.2316 53.1399 70.8896 53.0269 70.6266 52.7999C70.3636 52.5729 70.2316 52.1969 70.2316 51.6699V48.8599H69.4316Z" fill="#FFFFFE"/>
<path fill-rule="evenodd" clip-rule="evenodd" d="M75.0755 52.2798C75.5135 52.2798 75.8665 52.1238 76.1355 51.8098C76.4045 51.4968 76.5385 51.1028 76.5385 50.6278V50.4898L75.2005 50.7228C74.5655 50.8348 74.2485 51.1108 74.2485 51.5508C74.2485 51.7738 74.3235 51.9518 74.4725 52.0828C74.6225 52.2148 74.8235 52.2798 75.0755 52.2798M77.8585 52.9998H76.8385C76.6655 52.7988 76.5725 52.5058 76.5585 52.1208C76.2335 52.8008 75.6855 53.1398 74.9165 53.1398C74.4165 53.1398 74.0105 52.9978 73.6985 52.7138C73.3855 52.4298 73.2285 52.0608 73.2285 51.6058C73.2285 51.1398 73.3885 50.7728 73.7105 50.5038C74.0325 50.2348 74.4515 50.0598 74.9685 49.9798L76.5385 49.7298V49.5238C76.5385 48.9618 76.1935 48.6798 75.5035 48.6798C75.1715 48.6798 74.9185 48.7408 74.7425 48.8628C74.5665 48.9858 74.4785 49.1398 74.4785 49.3248C74.4785 49.3708 74.4855 49.4208 74.4985 49.4728L73.5795 49.7808C73.5255 49.6548 73.4985 49.5228 73.4985 49.3838C73.4985 48.9808 73.6825 48.6318 74.0505 48.3398C74.4175 48.0468 74.9025 47.8998 75.5035 47.8998C76.1755 47.8998 76.6855 48.0458 77.0345 48.3388C77.3845 48.6308 77.5585 49.0488 77.5585 49.5918V51.7548C77.5585 52.2498 77.6585 52.6648 77.8585 52.9998" fill="#FFFFFE"/>
<path fill-rule="evenodd" clip-rule="evenodd" d="M78.9944 47.25H80.0744V46.1H78.9944V47.25ZM78.9844 53H80.0044V48.04H78.9844V53Z" fill="#FFFFFE"/>
<path fill-rule="evenodd" clip-rule="evenodd" d="M81.4961 53H82.5161V46H81.4961V53Z" fill="#FFFFFE"/>
<path fill-rule="evenodd" clip-rule="evenodd" d="M90.4052 51.2002L91.1952 51.7102C90.7152 52.6632 89.9552 53.1402 88.9152 53.1402C88.1882 53.1402 87.5812 52.8952 87.0952 52.4052C86.6082 51.9152 86.3652 51.2862 86.3652 50.5202C86.3652 49.7602 86.6122 49.1332 87.1052 48.6402C87.5982 48.1462 88.2012 47.9002 88.9152 47.9002C89.4552 47.9002 89.9182 48.0182 90.3052 48.2552C90.6922 48.4922 90.9752 48.8232 91.1552 49.2502L90.3452 49.7902C90.0312 49.1572 89.5582 48.8402 88.9252 48.8402C88.4912 48.8402 88.1262 48.9932 87.8302 49.3002C87.5332 49.6072 87.3852 50.0132 87.3852 50.5202C87.3852 51.0332 87.5282 51.4422 87.8152 51.7452C88.1012 52.0482 88.4712 52.2002 88.9252 52.2002C89.2782 52.2002 89.5682 52.1172 89.7952 51.9502C90.0212 51.7832 90.2252 51.5332 90.4052 51.2002" fill="#FFFFFE"/>
<path fill-rule="evenodd" clip-rule="evenodd" d="M93.4734 51.73C93.7874 52.043 94.1684 52.2 94.6174 52.2C95.0654 52.2 95.4464 52.043 95.7604 51.73C96.0754 51.417 96.2324 51.014 96.2324 50.52C96.2324 50.027 96.0754 49.624 95.7604 49.31C95.4464 48.997 95.0654 48.84 94.6174 48.84C94.1684 48.84 93.7874 48.997 93.4734 49.31C93.1594 49.624 93.0024 50.027 93.0024 50.52C93.0024 51.014 93.1594 51.417 93.4734 51.73M96.4664 48.6C96.9904 49.067 97.2524 49.707 97.2524 50.52C97.2524 51.334 96.9904 51.974 96.4664 52.44C95.9424 52.907 95.3264 53.14 94.6174 53.14C93.9084 53.14 93.2914 52.907 92.7674 52.44C92.2444 51.974 91.9824 51.334 91.9824 50.52C91.9824 49.707 92.2444 49.067 92.7674 48.6C93.2914 48.133 93.9084 47.9 94.6174 47.9C95.3264 47.9 95.9424 48.133 96.4664 48.6" fill="#FFFFFE"/>
<path fill-rule="evenodd" clip-rule="evenodd" d="M102.864 49.6299V52.9999H101.844V49.9299C101.844 49.5899 101.747 49.3229 101.553 49.1299C101.36 48.9369 101.091 48.8399 100.744 48.8399C100.378 48.8399 100.069 48.9819 99.8188 49.2649C99.5688 49.5479 99.4438 49.9199 99.4438 50.3799V52.9999H98.4238V48.0399H99.4438V48.8699C99.6238 48.5769 99.8618 48.3419 100.159 48.1649C100.456 47.9879 100.78 47.8999 101.134 47.8999C101.64 47.8999 102.055 48.0529 102.379 48.3599C102.702 48.6669 102.864 49.0899 102.864 49.6299" fill="#FFFFFE"/>
<path fill-rule="evenodd" clip-rule="evenodd" d="M108.053 51.2002L108.844 51.7102C108.364 52.6632 107.604 53.1402 106.563 53.1402C105.836 53.1402 105.23 52.8952 104.743 52.4052C104.256 51.9152 104.014 51.2862 104.014 50.5202C104.014 49.7602 104.26 49.1332 104.753 48.6402C105.246 48.1462 105.85 47.9002 106.563 47.9002C107.104 47.9002 107.567 48.0182 107.953 48.2552C108.34 48.4922 108.623 48.8232 108.803 49.2502L107.993 49.7902C107.68 49.1572 107.207 48.8402 106.574 48.8402C106.14 48.8402 105.775 48.9932 105.479 49.3002C105.182 49.6072 105.033 50.0132 105.033 50.5202C105.033 51.0332 105.176 51.4422 105.463 51.7452C105.75 52.0482 106.119 52.2002 106.574 52.2002C106.926 52.2002 107.217 52.1172 107.444 51.9502C107.67 51.7832 107.873 51.5332 108.053 51.2002" fill="#FFFFFE"/>
<path fill-rule="evenodd" clip-rule="evenodd" d="M111.121 51.73C111.435 52.043 111.816 52.2 112.266 52.2C112.713 52.2 113.094 52.043 113.408 51.73C113.723 51.417 113.881 51.014 113.881 50.52C113.881 50.027 113.723 49.624 113.408 49.31C113.094 48.997 112.713 48.84 112.266 48.84C111.816 48.84 111.435 48.997 111.121 49.31C110.807 49.624 110.65 50.027 110.65 50.52C110.65 51.014 110.807 51.417 111.121 51.73M114.114 48.6C114.639 49.067 114.9 49.707 114.9 50.52C114.9 51.334 114.639 51.974 114.114 52.44C113.59 52.907 112.975 53.14 112.266 53.14C111.557 53.14 110.939 52.907 110.416 52.44C109.892 51.974 109.631 51.334 109.631 50.52C109.631 49.707 109.892 49.067 110.416 48.6C110.939 48.133 111.557 47.9 112.266 47.9C112.975 47.9 113.59 48.133 114.114 48.6" fill="#FFFFFE"/>
<path fill-rule="evenodd" clip-rule="evenodd" d="M119.836 51.2002L120.625 51.7102C120.146 52.6632 119.385 53.1402 118.346 53.1402C117.619 53.1402 117.012 52.8952 116.525 52.4052C116.039 51.9152 115.795 51.2862 115.795 50.5202C115.795 49.7602 116.042 49.1332 116.535 48.6402C117.028 48.1462 117.632 47.9002 118.346 47.9002C118.885 47.9002 119.349 48.0182 119.735 48.2552C120.122 48.4922 120.405 48.8232 120.586 49.2502L119.775 49.7902C119.462 49.1572 118.988 48.8402 118.356 48.8402C117.922 48.8402 117.557 48.9932 117.26 49.3002C116.963 49.6072 116.815 50.0132 116.815 50.5202C116.815 51.0332 116.959 51.4422 117.245 51.7452C117.531 52.0482 117.902 52.2002 118.356 52.2002C118.709 52.2002 118.998 52.1172 119.225 51.9502C119.451 51.7832 119.655 51.5332 119.836 51.2002" fill="#FFFFFE"/>
<path fill-rule="evenodd" clip-rule="evenodd" d="M121.35 48.8599V48.0399H122.151V46.6999H123.17V48.0399H124.281V48.8599H123.17V51.4749C123.17 51.9579 123.397 52.1999 123.85 52.1999C123.963 52.1999 124.086 52.1799 124.221 52.1399L124.311 53.0179C124.09 53.0989 123.844 53.1399 123.571 53.1399C123.151 53.1399 122.809 53.0269 122.545 52.7999C122.282 52.5729 122.151 52.1969 122.151 51.6699V48.8599H121.35Z" fill="#FFFFFE"/>
<path fill-rule="evenodd" clip-rule="evenodd" d="M128.436 49.0498C128.155 48.8298 127.832 48.7198 127.465 48.7198C127.098 48.7198 126.78 48.8348 126.51 49.0648C126.241 49.2948 126.055 49.5928 125.956 49.9598H128.915C128.875 49.5728 128.715 49.2698 128.436 49.0498V49.0498ZM129.885 50.7398H125.956C125.975 51.1958 126.123 51.5658 126.401 51.8518C126.676 52.1368 127.032 52.2798 127.465 52.2798C127.838 52.2798 128.137 52.1898 128.36 52.0098C128.583 51.8298 128.779 51.5698 128.946 51.2298L129.735 51.7088C129.268 52.6628 128.502 53.1398 127.436 53.1398C126.743 53.1398 126.152 52.8968 125.665 52.4088C125.178 51.9218 124.936 51.2958 124.936 50.5288C124.936 49.7628 125.18 49.1328 125.67 48.6398C126.161 48.1468 126.766 47.8998 127.485 47.8998C128.199 47.8998 128.777 48.1318 129.22 48.5948C129.664 49.0588 129.885 49.6538 129.885 50.3798V50.7398Z" fill="#FFFFFE"/>
<path fill-rule="evenodd" clip-rule="evenodd" d="M132.24 51.73C132.538 52.043 132.904 52.2 133.339 52.2C133.773 52.2 134.135 52.043 134.422 51.73C134.71 51.417 134.853 51.014 134.853 50.52C134.853 50.027 134.71 49.624 134.422 49.31C134.135 48.997 133.773 48.84 133.339 48.84C132.904 48.84 132.538 48.997 132.24 49.31C131.942 49.624 131.794 50.027 131.794 50.52C131.794 51.014 131.942 51.417 132.24 51.73V51.73ZM135.834 46V53H134.814V52.2C134.453 52.827 133.904 53.14 133.168 53.14C132.479 53.14 131.908 52.898 131.455 52.415C131 51.932 130.773 51.3 130.773 50.52C130.773 49.753 131.011 49.125 131.484 48.635C131.957 48.145 132.511 47.9 133.148 47.9C133.944 47.9 134.5 48.197 134.814 48.79V46H135.834Z" fill="#FFFFFE"/>
<path fill-rule="evenodd" clip-rule="evenodd" d="M141.414 51.73C141.7 52.043 142.06 52.2 142.494 52.2C142.927 52.2 143.292 52.043 143.589 51.73C143.885 51.417 144.033 51.014 144.033 50.52C144.033 50.027 143.885 49.624 143.589 49.31C143.292 48.997 142.927 48.84 142.494 48.84C142.06 48.84 141.7 48.997 141.414 49.31C141.127 49.624 140.984 50.027 140.984 50.52C140.984 51.014 141.127 51.417 141.414 51.73V51.73ZM140.004 53V46H141.023V48.79C141.203 48.517 141.449 48.3 141.759 48.14C142.068 47.98 142.4 47.9 142.754 47.9C143.414 47.9 143.963 48.142 144.399 48.625C144.836 49.108 145.054 49.74 145.054 50.52C145.054 51.3 144.829 51.932 144.379 52.415C143.93 52.898 143.371 53.14 142.703 53.14C142.324 53.14 141.986 53.057 141.693 52.89C141.4 52.724 141.177 52.517 141.023 52.27V53H140.004Z" fill="#FFFFFE"/>
<path fill-rule="evenodd" clip-rule="evenodd" d="M146.033 55L146.193 54.07C146.353 54.137 146.504 54.17 146.644 54.17C146.783 54.17 146.896 54.135 146.984 54.065C147.07 53.995 147.157 53.854 147.244 53.64L147.473 53.03L145.453 48.04H146.624L148.023 51.62L149.414 48.04H150.544L148.144 54C147.85 54.74 147.387 55.11 146.754 55.11C146.494 55.11 146.254 55.073 146.033 55" fill="#FFFFFE"/>
<path fill-rule="evenodd" clip-rule="evenodd" d="M157.254 49.0498C156.973 48.8298 156.65 48.7198 156.283 48.7198C155.916 48.7198 155.598 48.8348 155.328 49.0648C155.059 49.2948 154.873 49.5928 154.774 49.9598H157.733C157.693 49.5728 157.533 49.2698 157.254 49.0498V49.0498ZM158.703 50.7398H154.774C154.793 51.1958 154.941 51.5658 155.219 51.8518C155.494 52.1368 155.85 52.2798 156.283 52.2798C156.656 52.2798 156.955 52.1898 157.178 52.0098C157.401 51.8298 157.597 51.5698 157.764 51.2298L158.553 51.7088C158.086 52.6628 157.32 53.1398 156.254 53.1398C155.561 53.1398 154.97 52.8968 154.483 52.4088C153.996 51.9218 153.754 51.2958 153.754 50.5288C153.754 49.7628 153.998 49.1328 154.488 48.6398C154.979 48.1468 155.584 47.8998 156.303 47.8998C157.017 47.8998 157.595 48.1318 158.038 48.5948C158.482 49.0588 158.703 49.6538 158.703 50.3798V50.7398Z" fill="#FFFFFE"/>
<path fill-rule="evenodd" clip-rule="evenodd" d="M161.445 52.2798C161.883 52.2798 162.236 52.1238 162.505 51.8098C162.774 51.4968 162.908 51.1028 162.908 50.6278V50.4898L161.57 50.7228C160.935 50.8348 160.618 51.1108 160.618 51.5508C160.618 51.7738 160.692 51.9518 160.842 52.0828C160.992 52.2148 161.192 52.2798 161.445 52.2798M164.228 52.9998H163.208C163.035 52.7988 162.942 52.5058 162.928 52.1208C162.602 52.8008 162.055 53.1398 161.286 53.1398C160.786 53.1398 160.38 52.9978 160.067 52.7138C159.755 52.4298 159.598 52.0608 159.598 51.6058C159.598 51.1398 159.758 50.7728 160.081 50.5038C160.402 50.2348 160.821 50.0598 161.339 49.9798L162.908 49.7298V49.5238C162.908 48.9618 162.563 48.6798 161.874 48.6798C161.542 48.6798 161.288 48.7408 161.112 48.8628C160.936 48.9858 160.848 49.1398 160.848 49.3248C160.848 49.3708 160.854 49.4208 160.868 49.4728L159.95 49.7808C159.895 49.6548 159.868 49.5228 159.868 49.3838C159.868 48.9808 160.051 48.6318 160.42 48.3398C160.787 48.0468 161.272 47.8998 161.874 47.8998C162.545 47.8998 163.055 48.0458 163.405 48.3388C163.754 48.6308 163.928 49.0488 163.928 49.5918V51.7548C163.928 52.2498 164.028 52.6648 164.228 52.9998" fill="#FFFFFE"/>
<path fill-rule="evenodd" clip-rule="evenodd" d="M169.115 51.2002L169.906 51.7102C169.426 52.6632 168.666 53.1402 167.625 53.1402C166.898 53.1402 166.292 52.8952 165.805 52.4052C165.318 51.9152 165.076 51.2862 165.076 50.5202C165.076 49.7602 165.322 49.1332 165.815 48.6402C166.308 48.1462 166.912 47.9002 167.625 47.9002C168.166 47.9002 168.629 48.0182 169.015 48.2552C169.402 48.4922 169.685 48.8232 169.865 49.2502L169.055 49.7902C168.742 49.1572 168.269 48.8402 167.636 48.8402C167.202 48.8402 166.837 48.9932 166.541 49.3002C166.244 49.6072 166.095 50.0132 166.095 50.5202C166.095 51.0332 166.238 51.4422 166.525 51.7452C166.812 52.0482 167.181 52.2002 167.636 52.2002C167.988 52.2002 168.279 52.1172 168.506 51.9502C168.732 51.7832 168.935 51.5332 169.115 51.2002" fill="#FFFFFE"/>
<path fill-rule="evenodd" clip-rule="evenodd" d="M175.49 49.6499V52.9999H174.469V49.9599C174.469 49.6069 174.372 49.3319 174.175 49.1349C173.978 48.9389 173.71 48.8399 173.37 48.8399C172.99 48.8399 172.669 48.9819 172.405 49.2649C172.141 49.5479 172.011 49.9199 172.011 50.3799V52.9999H170.99V45.9999H172.011V48.8699C172.196 48.5699 172.441 48.3339 172.745 48.1599C173.048 47.9869 173.376 47.8999 173.729 47.8999C174.237 47.8999 174.657 48.0549 174.99 48.3649C175.323 48.6749 175.49 49.1039 175.49 49.6499" fill="#FFFFFE"/>
<path fill-rule="evenodd" clip-rule="evenodd" d="M15.2862 61.3101C14.9892 60.9971 14.6242 60.8401 14.1912 60.8401C13.7572 60.8401 13.3972 60.9971 13.1112 61.3101C12.8242 61.6231 12.6812 62.0271 12.6812 62.5201C12.6812 63.0141 12.8242 63.4161 13.1112 63.7301C13.3972 64.0431 13.7572 64.2001 14.1912 64.2001C14.6242 64.2001 14.9892 64.0431 15.2862 63.7301C15.5822 63.4161 15.7312 63.0141 15.7312 62.5201C15.7312 62.0271 15.5822 61.6231 15.2862 61.3101V61.3101ZM11.7012 67.0401V60.0401H12.7212V60.8001C12.8812 60.5471 13.1212 60.3331 13.4412 60.1601C13.7612 59.9871 14.1072 59.9001 14.4812 59.9001C15.1222 59.9001 15.6612 60.1391 16.0972 60.6151C16.5332 61.0921 16.7512 61.7271 16.7512 62.5201C16.7512 63.3071 16.5262 63.9401 16.0772 64.4201C15.6272 64.9001 15.0652 65.1401 14.3912 65.1401C14.0372 65.1401 13.7112 65.0661 13.4112 64.9201C13.1112 64.7731 12.8812 64.5731 12.7212 64.3201V67.0401H11.7012Z" fill="#FFFFFE"/>
<path fill-rule="evenodd" clip-rule="evenodd" d="M17.9414 65H18.9614V58H17.9414V65Z" fill="#FFFFFE"/>
<path fill-rule="evenodd" clip-rule="evenodd" d="M22.0365 64.2798C22.4745 64.2798 22.8275 64.1238 23.0965 63.8098C23.3655 63.4968 23.4995 63.1028 23.4995 62.6278V62.4898L22.1615 62.7228C21.5265 62.8348 21.2095 63.1108 21.2095 63.5508C21.2095 63.7738 21.2845 63.9518 21.4335 64.0828C21.5835 64.2148 21.7845 64.2798 22.0365 64.2798M24.8195 64.9998H23.7995C23.6265 64.7988 23.5335 64.5058 23.5195 64.1208C23.1945 64.8008 22.6465 65.1398 21.8775 65.1398C21.3775 65.1398 20.9715 64.9978 20.6595 64.7138C20.3465 64.4298 20.1895 64.0608 20.1895 63.6058C20.1895 63.1398 20.3495 62.7728 20.6715 62.5038C20.9935 62.2348 21.4125 62.0598 21.9295 61.9798L23.4995 61.7298V61.5238C23.4995 60.9618 23.1545 60.6798 22.4645 60.6798C22.1325 60.6798 21.8795 60.7408 21.7035 60.8628C21.5275 60.9858 21.4395 61.1398 21.4395 61.3248C21.4395 61.3708 21.4465 61.4208 21.4595 61.4728L20.5405 61.7808C20.4865 61.6548 20.4595 61.5228 20.4595 61.3838C20.4595 60.9808 20.6435 60.6318 21.0115 60.3398C21.3785 60.0468 21.8635 59.8998 22.4645 59.8998C23.1365 59.8998 23.6465 60.0458 23.9955 60.3388C24.3455 60.6308 24.5195 61.0488 24.5195 61.5918V63.7548C24.5195 64.2498 24.6195 64.6648 24.8195 64.9998" fill="#FFFFFE"/>
<path fill-rule="evenodd" clip-rule="evenodd" d="M25.7948 67L25.9548 66.07C26.1148 66.137 26.2648 66.17 26.4048 66.17C26.5448 66.17 26.6578 66.135 26.7448 66.065C26.8318 65.995 26.9188 65.854 27.0048 65.64L27.2348 65.03L25.2148 60.04H26.3848L27.7848 63.62L29.1748 60.04H30.3048L27.9048 66C27.6118 66.74 27.1488 67.11 26.5148 67.11C26.2548 67.11 26.0148 67.073 25.7948 67" fill="#FFFFFE"/>
<path fill-rule="evenodd" clip-rule="evenodd" d="M34.1855 61.0498C33.9055 60.8298 33.5815 60.7198 33.2155 60.7198C32.8485 60.7198 32.5305 60.8348 32.2605 61.0648C31.9905 61.2948 31.8055 61.5928 31.7055 61.9598H34.6655C34.6255 61.5728 34.4655 61.2698 34.1855 61.0498V61.0498ZM35.6355 62.7398H31.7055C31.7255 63.1958 31.8735 63.5658 32.1505 63.8518C32.4265 64.1368 32.7815 64.2798 33.2155 64.2798C33.5885 64.2798 33.8875 64.1898 34.1105 64.0098C34.3335 63.8298 34.5285 63.5698 34.6955 63.2298L35.4855 63.7088C35.0185 64.6628 34.2515 65.1398 33.1855 65.1398C32.4925 65.1398 31.9015 64.8968 31.4155 64.4088C30.9285 63.9218 30.6855 63.2958 30.6855 62.5288C30.6855 61.7628 30.9305 61.1328 31.4205 60.6398C31.9105 60.1468 32.5155 59.8998 33.2355 59.8998C33.9485 59.8998 34.5265 60.1318 34.9705 60.5948C35.4135 61.0588 35.6355 61.6538 35.6355 62.3798V62.7398Z" fill="#FFFFFE"/>
<path fill-rule="evenodd" clip-rule="evenodd" d="M39.6364 59.9487L39.4664 60.8997C39.3394 60.8597 39.2094 60.8397 39.0764 60.8397C38.7164 60.8397 38.4194 60.9857 38.1864 61.2777C37.9524 61.5687 37.8364 61.9357 37.8364 62.3777V64.9997H36.8164V60.0397H37.8364V60.8607C38.1424 60.2197 38.6194 59.8997 39.2664 59.8997C39.3664 59.8997 39.4894 59.9167 39.6364 59.9487" fill="#FFFFFE"/>
<path fill-rule="evenodd" clip-rule="evenodd" d="M44.8841 64.2798C45.3221 64.2798 45.6751 64.1238 45.9441 63.8098C46.2131 63.4968 46.3471 63.1028 46.3471 62.6278V62.4898L45.0091 62.7228C44.3741 62.8348 44.0571 63.1108 44.0571 63.5508C44.0571 63.7738 44.1321 63.9518 44.2811 64.0828C44.4311 64.2148 44.6321 64.2798 44.8841 64.2798M47.6671 64.9998H46.6471C46.4741 64.7988 46.3811 64.5058 46.3671 64.1208C46.0421 64.8008 45.4941 65.1398 44.7251 65.1398C44.2251 65.1398 43.8191 64.9978 43.5071 64.7138C43.1941 64.4298 43.0371 64.0608 43.0371 63.6058C43.0371 63.1398 43.1971 62.7728 43.5191 62.5038C43.8411 62.2348 44.2601 62.0598 44.7771 61.9798L46.3471 61.7298V61.5238C46.3471 60.9618 46.0021 60.6798 45.3121 60.6798C44.9801 60.6798 44.7271 60.7408 44.5511 60.8628C44.3751 60.9858 44.2871 61.1398 44.2871 61.3248C44.2871 61.3708 44.2941 61.4208 44.3071 61.4728L43.3881 61.7808C43.3341 61.6548 43.3071 61.5228 43.3071 61.3838C43.3071 60.9808 43.4911 60.6318 43.8591 60.3398C44.2261 60.0468 44.7111 59.8998 45.3121 59.8998C45.9841 59.8998 46.4941 60.0458 46.8431 60.3388C47.1931 60.6308 47.3671 61.0488 47.3671 61.5918V63.7548C47.3671 64.2498 47.4671 64.6648 47.6671 64.9998" fill="#FFFFFE"/>
<path fill-rule="evenodd" clip-rule="evenodd" d="M49.9797 63.73C50.2777 64.043 50.6437 64.2 51.0787 64.2C51.5127 64.2 51.8747 64.043 52.1617 63.73C52.4497 63.417 52.5937 63.014 52.5937 62.52C52.5937 62.027 52.4497 61.624 52.1617 61.31C51.8747 60.997 51.5127 60.84 51.0787 60.84C50.6437 60.84 50.2777 60.997 49.9797 61.31C49.6817 61.624 49.5337 62.027 49.5337 62.52C49.5337 63.014 49.6817 63.417 49.9797 63.73V63.73ZM53.5737 58V65H52.5537V64.2C52.1917 64.827 51.6437 65.14 50.9077 65.14C50.2187 65.14 49.6477 64.898 49.1937 64.415C48.7397 63.932 48.5137 63.3 48.5137 62.52C48.5137 61.753 48.7507 61.125 49.2237 60.635C49.6967 60.145 50.2517 59.9 50.8877 59.9C51.6837 59.9 52.2387 60.197 52.5537 60.79V58H53.5737Z" fill="#FFFFFE"/>
<path fill-rule="evenodd" clip-rule="evenodd" d="M56.2121 63.73C56.5101 64.043 56.8761 64.2 57.3111 64.2C57.7451 64.2 58.1071 64.043 58.3941 63.73C58.6821 63.417 58.8261 63.014 58.8261 62.52C58.8261 62.027 58.6821 61.624 58.3941 61.31C58.1071 60.997 57.7451 60.84 57.3111 60.84C56.8761 60.84 56.5101 60.997 56.2121 61.31C55.9141 61.624 55.7661 62.027 55.7661 62.52C55.7661 63.014 55.9141 63.417 56.2121 63.73V63.73ZM59.8061 58V65H58.7861V64.2C58.4241 64.827 57.8761 65.14 57.1401 65.14C56.4511 65.14 55.8801 64.898 55.4261 64.415C54.9721 63.932 54.7461 63.3 54.7461 62.52C54.7461 61.753 54.9831 61.125 55.4561 60.635C55.9291 60.145 56.4841 59.9 57.1201 59.9C57.9161 59.9 58.4711 60.197 58.7861 60.79V58H59.8061Z" fill="#FFFFFE"/>
<path fill-rule="evenodd" clip-rule="evenodd" d="M61.2258 59.25H62.3058V58.1H61.2258V59.25ZM61.2148 65H62.2348V60.04H61.2148V65Z" fill="#FFFFFE"/>
<path fill-rule="evenodd" clip-rule="evenodd" d="M68.1646 61.6299V64.9999H67.1446V61.9299C67.1446 61.5899 67.0476 61.3229 66.8546 61.1299C66.6616 60.9369 66.3916 60.8399 66.0446 60.8399C65.6776 60.8399 65.3696 60.9819 65.1196 61.2649C64.8696 61.5479 64.7446 61.9199 64.7446 62.3799V64.9999H63.7246V60.0399H64.7446V60.8699C64.9246 60.5769 65.1626 60.3419 65.4596 60.1649C65.7556 59.9879 66.0816 59.8999 66.4346 59.8999C66.9406 59.8999 67.3556 60.0529 67.6796 60.3599C68.0026 60.6669 68.1646 61.0899 68.1646 61.6299" fill="#FFFFFE"/>
<path fill-rule="evenodd" clip-rule="evenodd" d="M72.8565 61.2661C72.5775 60.9821 72.2235 60.8401 71.7935 60.8401C71.3635 60.8401 71.0135 60.9821 70.7415 61.2661C70.4695 61.5501 70.3345 61.9361 70.3345 62.4251C70.3345 62.9131 70.4695 63.3001 70.7415 63.5841C71.0135 63.8681 71.3635 64.0101 71.7935 64.0101C72.2235 64.0101 72.5775 63.8681 72.8565 63.5841C73.1345 63.3001 73.2745 62.9131 73.2745 62.4251C73.2745 61.9361 73.1345 61.5501 72.8565 61.2661M69.6645 65.0601L70.6345 65.3441C70.5815 65.4531 70.5545 65.5751 70.5545 65.7101C70.5545 65.8991 70.6685 66.0551 70.8975 66.1771C71.1255 66.2991 71.4275 66.3601 71.8035 66.3601C72.7445 66.3601 73.2145 65.8561 73.2145 64.8481V64.0611C73.0805 64.3231 72.8795 64.5371 72.6145 64.7021C72.3495 64.8681 72.0425 64.9501 71.6925 64.9501C71.0295 64.9501 70.4675 64.7151 70.0055 64.2451C69.5445 63.7761 69.3145 63.1691 69.3145 62.4251C69.3145 61.6741 69.5435 61.0651 70.0015 60.5991C70.4585 60.1331 71.0125 59.9001 71.6625 59.9001C71.9985 59.9001 72.3045 59.9751 72.5795 60.1251C72.8555 60.2751 73.0665 60.4741 73.2145 60.7201V60.0401H74.2345V64.7001C74.2345 65.4861 74.0185 66.0971 73.5865 66.5301C73.1545 66.9631 72.5605 67.1801 71.8035 67.1801C71.0935 67.1801 70.5385 67.0391 70.1365 66.7571C69.7345 66.4751 69.5345 66.0991 69.5345 65.6291C69.5345 65.4121 69.5775 65.2231 69.6645 65.0601" fill="#FFFFFE"/>
<path fill-rule="evenodd" clip-rule="evenodd" d="M79.3158 61.2417C79.3158 61.4427 79.4188 61.6037 79.6238 61.7277C79.8298 61.8517 80.1378 61.9537 80.5488 62.0337C81.1148 62.1477 81.5348 62.3247 81.8118 62.5657C82.0868 62.8057 82.2258 63.1307 82.2258 63.5377C82.2258 63.9957 82.0538 64.3767 81.7098 64.6817C81.3648 64.9877 80.8958 65.1397 80.3008 65.1397C79.7388 65.1397 79.2728 65.0027 78.8998 64.7277C78.5278 64.4517 78.2578 64.1027 78.0918 63.6787L78.9218 63.1567C79.0498 63.4977 79.2328 63.7707 79.4688 63.9737C79.7058 64.1787 79.9858 64.2797 80.3108 64.2797C80.5758 64.2797 80.7978 64.2147 80.9768 64.0847C81.1558 63.9537 81.2458 63.7827 81.2458 63.5677C81.2458 63.3677 81.1538 63.2087 80.9718 63.0917C80.7898 62.9747 80.4928 62.8767 80.0818 62.7957C78.9178 62.5617 78.3358 62.0607 78.3358 61.2917C78.3358 60.8647 78.5148 60.5257 78.8718 60.2757C79.2298 60.0257 79.6588 59.8997 80.1608 59.8997C80.6758 59.8997 81.0908 60.0017 81.4088 60.2047C81.7258 60.4087 81.9748 60.7177 82.1548 61.1317L81.3978 61.5727C81.1648 60.9777 80.7588 60.6797 80.1808 60.6797C79.9358 60.6797 79.7298 60.7317 79.5648 60.8357C79.3988 60.9397 79.3158 61.0747 79.3158 61.2417" fill="#FFFFFE"/>
<path fill-rule="evenodd" clip-rule="evenodd" d="M84.5457 63.73C84.8597 64.043 85.2407 64.2 85.6897 64.2C86.1377 64.2 86.5187 64.043 86.8327 63.73C87.1477 63.417 87.3047 63.014 87.3047 62.52C87.3047 62.027 87.1477 61.624 86.8327 61.31C86.5187 60.997 86.1377 60.84 85.6897 60.84C85.2407 60.84 84.8597 60.997 84.5457 61.31C84.2317 61.624 84.0747 62.027 84.0747 62.52C84.0747 63.014 84.2317 63.417 84.5457 63.73M87.5387 60.6C88.0627 61.067 88.3247 61.707 88.3247 62.52C88.3247 63.334 88.0627 63.974 87.5387 64.44C87.0147 64.907 86.3987 65.14 85.6897 65.14C84.9807 65.14 84.3637 64.907 83.8397 64.44C83.3167 63.974 83.0547 63.334 83.0547 62.52C83.0547 61.707 83.3167 61.067 83.8397 60.6C84.3637 60.133 84.9807 59.9 85.6897 59.9C86.3987 59.9 87.0147 60.133 87.5387 60.6" fill="#FFFFFE"/>
<path fill-rule="evenodd" clip-rule="evenodd" d="M96.4441 61.3701V65.0001H95.4241V61.7511C95.4241 61.1431 95.1371 60.8401 94.5641 60.8401C94.2441 60.8401 93.9831 60.9601 93.7791 61.2021C93.5761 61.4431 93.4741 61.8071 93.4741 62.2961V65.0001H92.4541V61.7811C92.4541 61.4971 92.3821 61.2691 92.2391 61.0981C92.0961 60.9261 91.8941 60.8401 91.6341 60.8401C91.3141 60.8401 91.0481 60.9651 90.8341 61.2161C90.6211 61.4671 90.5141 61.8271 90.5141 62.2961V65.0001H89.4941V60.0401H90.5141V60.7871C90.6671 60.5161 90.8741 60.3001 91.1341 60.1401C91.3941 59.9801 91.6741 59.9001 91.9741 59.9001C92.6671 59.9001 93.1211 60.2061 93.3341 60.8191C93.6811 60.2061 94.2071 59.9001 94.9141 59.9001C95.3811 59.9001 95.7531 60.0351 96.0291 60.3051C96.3061 60.5751 96.4441 60.9301 96.4441 61.3701" fill="#FFFFFE"/>
<path fill-rule="evenodd" clip-rule="evenodd" d="M101.1 61.0498C100.821 60.8298 100.496 60.7198 100.13 60.7198C99.7636 60.7198 99.4446 60.8348 99.1746 61.0648C98.9046 61.2948 98.7196 61.5928 98.6206 61.9598H101.58C101.54 61.5728 101.38 61.2698 101.1 61.0498V61.0498ZM102.55 62.7398H98.6206C98.6406 63.1958 98.7876 63.5658 99.0646 63.8518C99.3416 64.1368 99.6966 64.2798 100.13 64.2798C100.504 64.2798 100.802 64.1898 101.026 64.0098C101.248 63.8298 101.444 63.5698 101.61 63.2298L102.401 63.7088C101.934 64.6628 101.166 65.1398 100.1 65.1398C99.4066 65.1398 98.8166 64.8968 98.3296 64.4088C97.8436 63.9218 97.5996 63.2958 97.5996 62.5288C97.5996 61.7628 97.8446 61.1328 98.3346 60.6398C98.8256 60.1468 99.4306 59.8998 100.151 59.8998C100.864 59.8998 101.442 60.1318 101.885 60.5948C102.329 61.0588 102.55 61.6538 102.55 62.3798V62.7398Z" fill="#FFFFFE"/>
<path fill-rule="evenodd" clip-rule="evenodd" d="M103.203 60.8599V60.0399H104.002V58.6999H105.022V60.0399H106.133V60.8599H105.022V63.4749C105.022 63.9579 105.249 64.1999 105.703 64.1999C105.816 64.1999 105.939 64.1799 106.072 64.1399L106.162 65.0179C105.942 65.0989 105.695 65.1399 105.423 65.1399C105.002 65.1399 104.661 65.0269 104.397 64.7999C104.135 64.5729 104.002 64.1969 104.002 63.6699V60.8599H103.203Z" fill="#FFFFFE"/>
<path fill-rule="evenodd" clip-rule="evenodd" d="M111.693 61.6499V64.9999H110.672V61.9599C110.672 61.6069 110.574 61.3319 110.377 61.1349C110.181 60.9389 109.912 60.8399 109.572 60.8399C109.193 60.8399 108.871 60.9819 108.607 61.2649C108.343 61.5479 108.213 61.9199 108.213 62.3799V64.9999H107.193V57.9999H108.213V60.8699C108.399 60.5699 108.644 60.3339 108.947 60.1599C109.251 59.9869 109.579 59.8999 109.932 59.8999C110.439 59.8999 110.859 60.0549 111.193 60.3649C111.525 60.6749 111.693 61.1039 111.693 61.6499" fill="#FFFFFE"/>
<path fill-rule="evenodd" clip-rule="evenodd" d="M113.104 59.25H114.184V58.1H113.104V59.25ZM113.094 65H114.114V60.04H113.094V65Z" fill="#FFFFFE"/>
<path fill-rule="evenodd" clip-rule="evenodd" d="M120.044 61.6299V64.9999H119.023V61.9299C119.023 61.5899 118.928 61.3229 118.734 61.1299C118.541 60.9369 118.271 60.8399 117.924 60.8399C117.557 60.8399 117.249 60.9819 116.999 61.2649C116.749 61.5479 116.624 61.9199 116.624 62.3799V64.9999H115.604V60.0399H116.624V60.8699C116.804 60.5769 117.042 60.3419 117.339 60.1649C117.635 59.9879 117.961 59.8999 118.315 59.8999C118.82 59.8999 119.235 60.0529 119.559 60.3599C119.883 60.6669 120.044 61.0899 120.044 61.6299" fill="#FFFFFE"/>
<path fill-rule="evenodd" clip-rule="evenodd" d="M124.735 61.2661C124.457 60.9821 124.102 60.8401 123.672 60.8401C123.242 60.8401 122.892 60.9821 122.621 61.2661C122.348 61.5501 122.213 61.9361 122.213 62.4251C122.213 62.9131 122.348 63.3001 122.621 63.5841C122.892 63.8681 123.242 64.0101 123.672 64.0101C124.102 64.0101 124.457 63.8681 124.735 63.5841C125.013 63.3001 125.153 62.9131 125.153 62.4251C125.153 61.9361 125.013 61.5501 124.735 61.2661M121.543 65.0601L122.513 65.3441C122.46 65.4531 122.433 65.5751 122.433 65.7101C122.433 65.8991 122.547 66.0551 122.775 66.1771C123.004 66.2991 123.306 66.3601 123.682 66.3601C124.623 66.3601 125.093 65.8561 125.093 64.8481V64.0611C124.959 64.3231 124.758 64.5371 124.494 64.7021C124.228 64.8681 123.921 64.9501 123.572 64.9501C122.908 64.9501 122.345 64.7151 121.884 64.2451C121.423 63.7761 121.193 63.1691 121.193 62.4251C121.193 61.6741 121.422 61.0651 121.88 60.5991C122.338 60.1331 122.89 59.9001 123.541 59.9001C123.877 59.9001 124.183 59.9751 124.459 60.1251C124.734 60.2751 124.945 60.4741 125.093 60.7201V60.0401H126.113V64.7001C126.113 65.4861 125.897 66.0971 125.464 66.5301C125.033 66.9631 124.439 67.1801 123.682 67.1801C122.972 67.1801 122.417 67.0391 122.015 66.7571C121.613 66.4751 121.413 66.0991 121.413 65.6291C121.413 65.4121 121.457 65.2231 121.543 65.0601" fill="#FFFFFE"/>
<path fill-rule="evenodd" clip-rule="evenodd" d="M129.762 60.8599V60.0399H130.562V58.6999H131.581V60.0399H132.693V60.8599H131.581V63.4749C131.581 63.9579 131.808 64.1999 132.262 64.1999C132.375 64.1999 132.498 64.1799 132.632 64.1399L132.722 65.0179C132.501 65.0989 132.255 65.1399 131.982 65.1399C131.562 65.1399 131.22 65.0269 130.956 64.7999C130.694 64.5729 130.562 64.1969 130.562 63.6699V60.8599H129.762Z" fill="#FFFFFE"/>
<path fill-rule="evenodd" clip-rule="evenodd" d="M134.844 63.73C135.158 64.043 135.539 64.2 135.989 64.2C136.436 64.2 136.817 64.043 137.131 63.73C137.446 63.417 137.604 63.014 137.604 62.52C137.604 62.027 137.446 61.624 137.131 61.31C136.817 60.997 136.436 60.84 135.989 60.84C135.539 60.84 135.158 60.997 134.844 61.31C134.53 61.624 134.373 62.027 134.373 62.52C134.373 63.014 134.53 63.417 134.844 63.73M137.837 60.6C138.362 61.067 138.623 61.707 138.623 62.52C138.623 63.334 138.362 63.974 137.837 64.44C137.313 64.907 136.698 65.14 135.989 65.14C135.28 65.14 134.662 64.907 134.139 64.44C133.615 63.974 133.354 63.334 133.354 62.52C133.354 61.707 133.615 61.067 134.139 60.6C134.662 60.133 135.28 59.9 135.989 59.9C136.698 59.9 137.313 60.133 137.837 60.6" fill="#FFFFFE"/>
<path fill-rule="evenodd" clip-rule="evenodd" d="M142.434 67L142.594 66.07C142.754 66.137 142.904 66.17 143.044 66.17C143.184 66.17 143.297 66.135 143.384 66.065C143.47 65.995 143.558 65.854 143.644 65.64L143.874 65.03L141.854 60.04H143.025L144.424 63.62L145.814 60.04H146.945L144.544 66C144.251 66.74 143.788 67.11 143.154 67.11C142.894 67.11 142.654 67.073 142.434 67" fill="#FFFFFE"/>
<path fill-rule="evenodd" clip-rule="evenodd" d="M148.818 63.73C149.132 64.043 149.513 64.2 149.963 64.2C150.41 64.2 150.791 64.043 151.105 63.73C151.42 63.417 151.578 63.014 151.578 62.52C151.578 62.027 151.42 61.624 151.105 61.31C150.791 60.997 150.41 60.84 149.963 60.84C149.513 60.84 149.132 60.997 148.818 61.31C148.504 61.624 148.347 62.027 148.347 62.52C148.347 63.014 148.504 63.417 148.818 63.73M151.811 60.6C152.336 61.067 152.597 61.707 152.597 62.52C152.597 63.334 152.336 63.974 151.811 64.44C151.287 64.907 150.672 65.14 149.963 65.14C149.254 65.14 148.636 64.907 148.113 64.44C147.589 63.974 147.328 63.334 147.328 62.52C147.328 61.707 147.589 61.067 148.113 60.6C148.636 60.133 149.254 59.9 149.963 59.9C150.672 59.9 151.287 60.133 151.811 60.6" fill="#FFFFFE"/>
<path fill-rule="evenodd" clip-rule="evenodd" d="M153.752 63.23V60.04H154.772V63.02C154.772 63.4 154.867 63.692 155.057 63.895C155.246 64.099 155.519 64.2 155.871 64.2C156.238 64.2 156.547 64.06 156.797 63.78C157.047 63.5 157.172 63.147 157.172 62.72V60.04H158.191V65H157.172V64.2C156.832 64.827 156.295 65.14 155.562 65.14C155.042 65.14 154.609 64.977 154.267 64.65C153.924 64.323 153.752 63.85 153.752 63.23" fill="#FFFFFE"/>
<path fill-rule="evenodd" clip-rule="evenodd" d="M162.463 59.9487L162.293 60.8997C162.166 60.8597 162.035 60.8397 161.902 60.8397C161.543 60.8397 161.246 60.9857 161.012 61.2777C160.779 61.5687 160.662 61.9357 160.662 62.3777V64.9997H159.643V60.0397H160.662V60.8607C160.969 60.2197 161.445 59.8997 162.092 59.8997C162.192 59.8997 162.316 59.9167 162.463 59.9487" fill="#FFFFFE"/>
<path fill-rule="evenodd" clip-rule="evenodd" d="M169.803 63.2002L170.592 63.7102C170.113 64.6632 169.352 65.1402 168.313 65.1402C167.586 65.1402 166.979 64.8952 166.492 64.4052C166.006 63.9152 165.762 63.2862 165.762 62.5202C165.762 61.7602 166.009 61.1332 166.502 60.6402C166.995 60.1462 167.599 59.9002 168.313 59.9002C168.852 59.9002 169.316 60.0182 169.702 60.2552C170.089 60.4922 170.372 60.8232 170.553 61.2502L169.742 61.7902C169.429 61.1572 168.955 60.8402 168.323 60.8402C167.889 60.8402 167.524 60.9932 167.227 61.3002C166.93 61.6072 166.782 62.0132 166.782 62.5202C166.782 63.0332 166.926 63.4422 167.212 63.7452C167.498 64.0482 167.869 64.2002 168.323 64.2002C168.676 64.2002 168.965 64.1172 169.192 63.9502C169.418 63.7832 169.622 63.5332 169.803 63.2002" fill="#FFFFFE"/>
<path fill-rule="evenodd" clip-rule="evenodd" d="M171.639 63.23V60.04H172.659V63.02C172.659 63.4 172.753 63.692 172.944 63.895C173.133 64.099 173.405 64.2 173.758 64.2C174.125 64.2 174.434 64.06 174.684 63.78C174.934 63.5 175.059 63.147 175.059 62.72V60.04H176.078V65H175.059V64.2C174.718 64.827 174.182 65.14 173.448 65.14C172.928 65.14 172.496 64.977 172.153 64.65C171.81 64.323 171.639 63.85 171.639 63.23" fill="#FFFFFE"/>
<path fill-rule="evenodd" clip-rule="evenodd" d="M181.113 61.3101C180.816 60.9971 180.451 60.8401 180.018 60.8401C179.585 60.8401 179.224 60.9971 178.938 61.3101C178.652 61.6231 178.509 62.0271 178.509 62.5201C178.509 63.0141 178.652 63.4161 178.938 63.7301C179.224 64.0431 179.585 64.2001 180.018 64.2001C180.451 64.2001 180.816 64.0431 181.113 63.7301C181.41 63.4161 181.558 63.0141 181.558 62.5201C181.558 62.0271 181.41 61.6231 181.113 61.3101V61.3101ZM177.529 67.0401V60.0401H178.549V60.8001C178.709 60.5471 178.949 60.3331 179.268 60.1601C179.588 59.9871 179.935 59.9001 180.308 59.9001C180.949 59.9001 181.488 60.1391 181.924 60.6151C182.36 61.0921 182.578 61.7271 182.578 62.5201C182.578 63.3071 182.353 63.9401 181.904 64.4201C181.455 64.9001 180.892 65.1401 180.218 65.1401C179.865 65.1401 179.539 65.0661 179.238 64.9201C178.938 64.7731 178.709 64.5731 178.549 64.3201V67.0401H177.529Z" fill="#FFFFFE"/>
<path fill-rule="evenodd" clip-rule="evenodd" d="M183.572 65H184.652V63.84H183.572V65Z" fill="#FFFFFE"/>
<path fill-rule="evenodd" clip-rule="evenodd" d="M77.5667 130.603C74.7567 130.236 73.0297 126.446 73.3957 123.817C73.7217 121.483 74.4577 119.936 76.1597 118.694C76.8787 118.17 79.1117 117.197 76.9477 116.354C75.3347 115.727 71.7537 118.811 71.7787 123.609C71.7837 124.49 72.5627 127.944 72.4137 128.197C70.7357 130.075 68.7527 123.558 67.9877 120.516C66.5187 117.402 66.4127 122.8 68.0847 127.913C62.1657 126.019 56.1267 133.533 53.7867 138.212C50.6837 144.42 49.7227 150.285 50.0837 157.404C50.4087 163.83 51.4577 171.117 53.6037 176.716C53.8427 177.34 54.6727 178.776 55.6637 178.588C56.5687 178.416 56.6407 177.806 56.6807 176.948C56.9077 172.021 58.1857 167.164 58.8907 163.2C59.5657 159.413 60.4237 155.832 61.7087 152.256C62.7827 149.266 64.0637 145.946 65.8857 143.14C67.6957 140.353 69.8737 137.28 72.3007 134.848C73.3667 133.778 77.5707 130.824 77.5667 130.603" fill="#80C6D3"/>
<path fill-rule="evenodd" clip-rule="evenodd" d="M54.1215 209.066C51.0125 209.066 46.4336 209.073 43.9516 209.459C42.0326 209.757 41.3386 209.946 39.6056 210.761C35.6446 212.626 34.8426 216.142 35.2716 220.392C35.7926 225.536 37.9286 230.656 39.2926 235.737C46.0156 260.759 58.8836 292.557 59.8806 295.222C62.7946 295.222 77.9326 295.205 80.1426 295.205C80.7886 292.635 77.3255 240.439 75.2725 233.963C73.4505 228.215 68.6835 209.404 54.1215 209.066" fill="#DCA841"/>
<path fill-rule="evenodd" clip-rule="evenodd" d="M101.14 257.955C95.318 257.729 80.514 258.528 70.735 263.068C61.041 267.57 56.772 272.379 58.891 280.392C61.452 290.08 69.968 294.197 72.3 295.204C75.116 295.204 204.352 295.223 207.208 295.223C207.208 286.854 207.167 263.252 207.167 256.611C197.676 256.512 110.86 258.333 101.14 257.955" fill="#383A39"/>
<path fill-rule="evenodd" clip-rule="evenodd" d="M166.697 192.867C167.259 191.59 169.582 188.991 170.707 187.349C172.618 184.562 180.565 170.463 181.707 166.059C183.636 158.617 182.725 149.068 180.57 141.809C176.428 127.861 172.482 116.208 165.805 103.211C164.268 100.221 162.367 96.7302 158.77 95.7012C156.132 94.9462 151.12 95.1782 148.335 95.4922C134.415 97.0622 146.305 109.578 152.465 130.343C154.439 137.001 156.006 143.53 151.156 150.727C149.356 153.397 147.711 155.945 147.088 159.072C146.65 161.27 147.75 163.609 148.496 165.602C149.473 168.211 150.234 170.888 151.306 173.368C154.169 179.985 158.681 186.35 162.89 191.973C164.288 193.841 165.188 194.842 166.718 192.314C166.438 192.493 166.608 192.656 166.489 192.867" fill="#80C6D3"/>
<path fill-rule="evenodd" clip-rule="evenodd" d="M177.959 100.437C176.795 103.529 176.345 103.868 165.236 104.833C161.554 105.153 156.277 105.394 152.563 105.394C145.207 105.394 139.078 105.971 131.754 105.628C129.277 105.512 124.473 105.51 121.897 105.198C122.327 103.438 122.742 101.681 123.097 99.409C123.407 97.416 126.124 84.559 124.518 83.173C121.662 80.708 120.724 85.171 120.64 95.028C120.613 98.164 121.552 103.001 119.081 104.729C116.873 106.272 116.107 96.048 116.187 94.089C116.616 83.45 119.975 78.752 122.719 79.03C124.659 79.227 126.157 79.577 128.16 79.888C131.637 80.428 158.309 83.171 163.573 83.711C175.523 84.937 177.013 84.606 178.235 88.876C179.313 92.643 179.349 96.744 177.959 100.437" fill="#80C6D3"/>
<path fill-rule="evenodd" clip-rule="evenodd" d="M137.701 77.8174C140.517 77.9354 144.948 80.9854 147.949 80.9854C151.47 80.9854 155.197 79.8694 156.638 79.6734C159.605 79.6554 161.273 80.6624 163.165 83.1374C165.072 85.6334 165.122 89.8864 164.189 92.9424C162.525 98.3944 157.68 107.268 151.118 105.98C146.535 105.081 142.246 97.7074 139.384 94.3244C135.833 90.1294 129.957 78.3264 137.701 77.8174" fill="#80C6D3"/>
<path fill-rule="evenodd" clip-rule="evenodd" d="M170.137 188.136C166.718 192.315 160.491 178.277 156.265 171.798C154.162 168.574 152.599 165.246 151.207 161.784C150.642 160.376 148.346 155.969 150.032 152.431C148.73 150.806 142.95 157.738 142.238 158.859C140.481 161.62 138.939 164.751 138.742 168.043C138.63 169.926 138.838 171.357 138.117 172.887C137.577 174.034 123.097 189.739 120.176 193.076C117.82 195.769 131.128 222.464 134.023 233.26C137.387 228.914 149.351 211.046 152.902 207.648C154.128 206.647 155.223 207.209 156.22 208.022C159.057 210.915 173.686 190.234 170.137 188.136" fill="#DA5335"/>
<path fill-rule="evenodd" clip-rule="evenodd" d="M127.687 175.762C130.317 178.149 133.459 180.826 136.245 183.271C138.756 185.475 140.682 185.73 139.323 189.316C138.288 192.044 137.232 194.726 136.24 197.468C135.362 199.894 133.948 202.095 137.45 202.557C141.22 203.298 140.046 204.279 139.578 211.175C139.162 217.286 139.136 223.388 139.416 229.533C140.208 246.996 140.674 255.11 140.34 257.611C140.125 257.611 139.532 257.627 139.263 257.627C137.533 257.732 137.483 248.799 137.074 246.715C136.585 244.227 136.136 240.075 135.823 237.606C134.883 230.209 135.197 227.299 134.179 222.355C132.552 214.441 131 208.147 128.985 200.424C127.937 196.409 127.3 193.486 127.3 189.256C127.3 186.982 126.708 175.096 127.687 175.762" fill="#DCA841"/>
<path fill-rule="evenodd" clip-rule="evenodd" d="M119.134 126.737C119.021 128.602 117.704 129.369 117.096 130.956C116.46 132.611 116.808 134.269 117.629 135.545C126.202 148.849 127.585 162.774 127.944 167.12C128.617 175.308 129.363 182.019 128.903 193.44C128.739 197.492 128.596 200.326 127.689 204.278C127.991 196.205 116.001 188.976 109.528 187.073C106.701 186.243 103.851 186.41 100.99 185.988C98.0547 185.553 95.1947 184.537 92.2187 184.314C85.3807 183.805 78.6367 182.612 71.7787 182.018C69.3477 181.808 66.9107 181.664 64.4787 181.464C62.6147 181.31 58.3387 181.73 56.7157 180.767C56.0997 162.383 61.7667 145.616 69.6417 136.871C74.0037 132.027 80.1997 128.162 85.5997 126.222C87.8207 125.425 90.9007 124.902 92.7987 123.299C95.5827 120.947 96.1657 117.24 97.7037 114.211C100.193 109.313 105.393 108.953 107.621 114.099C109.572 117.901 109.142 120.8 113.608 122.252C116.036 123.043 119.337 123.419 119.134 126.737" fill="#383D84"/>
<path fill-rule="evenodd" clip-rule="evenodd" d="M139.264 257.627C138.092 253.365 135.406 225.543 135.406 220.764C135.406 216.375 135.198 212.037 134.989 207.68C134.958 207.035 135.198 205.723 133.579 204.278C130.04 200.13 128.399 198.761 126.556 193.362C125.407 189.993 125.474 184.675 121.43 183.678C108.678 180.533 63.1481 175.337 55.0901 177.43C53.1731 177.929 52.8491 177.827 52.2071 179.931C51.5741 182.007 51.6151 183.622 51.7531 185.826C51.9401 188.819 53.8161 191.777 55.9971 193.816C56.0721 193.761 56.0701 193.734 55.9921 193.737C53.3171 196.425 52.3041 198.582 51.4301 202.046C50.3431 206.35 51.6721 211.565 53.8391 215.342C56.0141 219.135 58.5511 223.596 61.1401 226.715C65.9911 232.556 71.4031 235.181 71.3351 235.806C71.2581 236.523 66.2771 234.851 61.1141 229.796C60.2051 228.906 55.9081 224.334 54.1431 219.883C53.5051 220.587 55.7121 231.101 56.1961 232.812C58.7631 241.892 62.8961 260.76 67.9841 264.437C76.4901 259.693 88.0981 258.544 97.4921 257.941C100.863 257.726 103.936 262.087 106.664 264.006C109.163 265.764 118.136 268.698 123.921 264.85C125.77 263.619 127.168 262.079 128.464 260.41C129.241 259.41 129.657 258.191 130.584 257.756C132.785 257.725 135.824 257.902 139.264 257.627" fill="#DA5335"/>
<path fill-rule="evenodd" clip-rule="evenodd" d="M90.5551 159.489C95.4511 162.985 98.7001 169.681 101.137 175.043C103.846 181.003 106.83 186.496 111.358 191.354C116.523 196.896 122.347 203.024 126.556 210.39C130.078 216.552 133.529 225.723 132.785 240.43C132.588 244.343 131.606 248.575 129.826 252.113C128.528 254.689 126.016 258.429 122.889 258.372C119.194 258.303 116.732 257.028 114.649 254.382C113.5 252.919 112.179 249.994 111.671 248.103C111.167 246.223 110.569 244.226 110.385 242.308C108.704 224.889 100.555 216.645 94.5231 211.276C90.9821 208.124 87.6361 205.015 84.7721 201.165C82.0441 197.498 78.9511 194.009 77.6731 189.586C75.4661 181.944 76.4921 174.189 79.5511 167C80.7281 164.232 82.4581 160.61 85.3401 159.28C87.1771 158.432 88.8001 158.342 90.5551 159.489" fill="#80C6D3"/>
<path fill-rule="evenodd" clip-rule="evenodd" d="M207.209 250.783C204.704 248.849 197.233 247.38 192.578 249.923C189.389 251.665 168.522 273.34 167.634 277.46C167.033 280.242 168.105 283.691 170.557 286.064C171.949 287.412 175.133 288.224 177.128 287.733C180.31 286.951 184.341 284.314 188.352 282.044C193.04 279.389 197.009 276.339 201.374 273.275C202.751 272.308 205.772 270.13 207.181 269.245C207.181 266.82 207.209 254.226 207.209 250.783" fill="#80C6D3"/>
<path fill-rule="evenodd" clip-rule="evenodd" d="M170.689 219.484C170.149 230.893 169.117 239.883 167.956 250.651C167.493 254.939 166.847 262.774 166.085 267.758C165.408 272.189 163.986 273 156.789 273C152.618 273 149.577 273.085 148.966 269.01C148.202 263.91 144.161 226.212 143.907 222.156C143.703 218.895 146.407 217.06 149.044 216.68C155.068 215.814 170.689 215.277 170.689 219.484" fill="#80C6D3"/>
<path fill-rule="evenodd" clip-rule="evenodd" d="M157.988 295.216C158.283 291.797 156.703 286.535 153.346 285.959C149.689 285.332 107.17 281.513 106.45 281.778C104.589 282.462 103.459 286.138 103.117 287.785C102.673 289.93 102.097 293.097 102.377 295.208C104.57 295.208 106.42 295.233 107.855 295.209C107.582 293.067 107.588 292.303 107.52 290.585C107.456 288.957 108.663 286.014 109.85 288.58C110.589 290.176 109.758 293.461 110.047 295.21C113.566 295.21 149.383 295.216 157.988 295.216" fill="#80C6D3"/>
<path fill-rule="evenodd" clip-rule="evenodd" d="M204.038 266.09C200.409 266.09 197.182 265.45 194.698 262.691C191.47 259.102 193.086 253.887 192.324 253.61C190.947 252.947 191.037 259.339 191.312 260.562C192.017 263.692 193.99 265.203 192.576 266.133C191.151 266.836 189.743 266.245 188.752 267.701C187.589 269.411 189.464 270.161 189.23 271.52C189.016 272.777 183.258 276.803 187.089 277.875C189.293 278.492 191.023 274.935 192.773 274.527C195.145 273.973 196.46 276.084 198.196 273.287C199.607 271.013 198.456 268.482 201.9 268.488C202.72 268.489 204.794 268.333 205.514 267.82C207.36 266.506 205.42 266.012 204.038 266.09" fill="#DCA841"/>
<path fill-rule="evenodd" clip-rule="evenodd" d="M163.203 219.257C163.203 211.042 171.633 204.476 179.123 207.322C187.759 210.605 190.396 224 182.257 230.014C180.78 231.104 179.039 231.703 177.293 231.938C175.937 232.12 173.206 232.57 171.97 231.891C170.688 231.187 171.221 223.574 172.121 219.45C173.451 217.221 176.485 222.326 177.806 223.638C178.783 224.609 182.393 225.649 181.313 222.738C180.518 220.595 178.029 219.384 176.372 218.37C173.321 216.505 175.88 215.099 176.972 212.816C177.284 212.163 178.057 210.007 177.292 209.549C176.152 208.866 175.405 211.006 175.133 211.624C174 214.196 174.349 216.444 171.078 215.763C170.088 215.556 167.776 213.152 166.697 213.468C165.059 213.947 166.19 215.561 166.489 216.476C167.471 219.485 163.203 221.844 163.203 219.257" fill="#DCA841"/>
<path fill-rule="evenodd" clip-rule="evenodd" d="M168.812 221.685C168.366 230.894 164.535 226.219 163.79 224.894C162.662 222.888 163.116 222.121 164.955 221.37C165.984 220.95 167.231 220.446 168.332 220.414C168.812 220.414 168.812 220.9 168.812 221.685" fill="#DCA841"/>
<path fill-rule="evenodd" clip-rule="evenodd" d="M167.472 234.902C167.045 241.551 166.556 243.093 166.086 250.353C165.702 256.289 165.213 261.334 163.995 266.82C163.179 270.497 160.305 271.012 157.777 270.888C155.629 270.782 153.294 270.6 151.94 268.698C150.531 266.719 149.261 254.17 148.967 251.174C148.422 245.619 147.574 239.959 147.559 234.433C147.552 232.007 151.409 231.69 154.547 231.2C160.023 230.343 168.055 231.564 167.472 234.902" fill="#DCA841"/>
<path fill-rule="evenodd" clip-rule="evenodd" d="M99.8371 295.223C99.1331 293.576 93.2811 294.647 93.2581 292.543C93.6051 290.577 99.5761 292.071 100.411 290.055C101.7 286.94 97.3831 285.049 94.9871 284.664C92.2421 284.226 89.5551 284.188 86.6941 284.188C85.3851 284.188 83.8531 284.396 82.6271 283.992C81.2541 283.54 80.4491 282.703 79.0361 282.475C77.4681 282.221 75.1741 282.182 73.9901 283.244C72.4771 284.605 72.6961 285.608 73.0301 286.952C73.2651 288.751 71.6811 289.611 74.2121 290.923C75.6881 291.688 77.7961 291.505 79.3331 291.389C80.5651 291.295 82.3021 291.178 83.2171 291.975C85.3191 293.806 81.3801 293.852 81.1661 295.219C83.8521 295.14 97.9601 295.223 99.8371 295.223" fill="#DCA841"/>
<path fill-rule="evenodd" clip-rule="evenodd" d="M86.3478 276.112C87.5168 276.423 88.9798 276.885 89.3748 277.714C90.1228 279.28 88.2038 279.735 86.9728 280.154C85.2398 280.744 80.0178 281.151 79.6438 278.467C79.4398 276.657 81.6498 275.014 86.3478 276.112" fill="#DCA841"/>
<path fill-rule="evenodd" clip-rule="evenodd" d="M139.696 102.538C138.132 102.46 136.716 102.124 135.667 101.83C134.216 101.423 132.427 100.957 131.012 100.621C128.933 100.129 124.993 99.3151 123.737 101.756C122.329 104.494 131.196 104.189 132.89 104.102C134.221 104.035 137.075 103.829 138.6 103.672C140.002 103.529 141.114 102.742 139.696 102.538" fill="#DCA841"/>
<path fill-rule="evenodd" clip-rule="evenodd" d="M118.533 107.623C119.954 111.496 123.252 117.642 118.964 120.727C116.989 122.147 114.919 121.675 113.84 119.539C112.356 116.605 114.901 111.621 115.012 111.378C116.18 108.835 117.125 105.433 118.029 106.594C118.208 106.917 118.35 107.153 118.533 107.623" fill="#DCA841"/>
<path fill-rule="evenodd" clip-rule="evenodd" d="M119.765 102.878C118.712 103.404 118.367 102.874 118.474 102.245C118.658 101.172 119.602 101.055 119.965 101.199C120.141 101.475 120.191 102.477 119.765 102.878" fill="#DCA841"/>
<path fill-rule="evenodd" clip-rule="evenodd" d="M145.294 179.438C145.776 181.442 145.951 184.59 146.423 186.713C146.985 189.24 147.519 191.407 148.453 193.84C149.228 195.856 149.934 197.801 150.882 199.779C151.652 201.386 153.581 203.455 152.85 204.367C150.285 205.758 146.445 194.572 145.841 192.659C144.333 187.888 143.916 183.562 143.791 178.493C143.791 177.365 144.819 177.834 145.294 179.438" fill="#DCA841"/>
<path fill-rule="evenodd" clip-rule="evenodd" d="M104.217 232.868C103.158 234.063 102.234 236.757 101.753 238.345C101.177 240.25 100.857 242.293 100.776 244.29C100.633 247.785 101.82 251.009 101.82 254.163C101.82 255.045 101.061 255.344 100.646 254.123C98.8594 248.86 98.2614 243.64 99.3764 238.18C99.8764 235.728 100.482 233.173 102.375 231.343C104.6 229.191 105.664 230.893 104.217 232.868" fill="#DCA841"/>
<path fill-rule="evenodd" clip-rule="evenodd" d="M76.9119 194.888C75.9369 192.855 73.3729 190.65 71.6649 189.409C69.7449 188.013 67.5689 186.876 65.2599 186.396C63.8309 186.1 58.0449 185.666 60.8779 187.809C62.0059 188.661 64.4769 188.36 66.0019 188.943C68.0199 189.714 69.8279 190.647 71.5569 192.014C73.1659 193.286 76.5929 197.159 77.1009 196.883C77.5789 196.623 77.2199 195.447 76.9119 194.888" fill="#DCA841"/>
<path fill-rule="evenodd" clip-rule="evenodd" d="M67.4495 192.815C68.3755 193.297 69.5915 194.195 70.4305 195.086C71.6925 196.428 71.1925 196.897 69.5215 196.217C68.1495 195.66 66.0285 193.323 61.2435 192.722C60.1925 192.59 59.9785 191.38 64.2415 191.824C65.4365 191.948 66.7095 192.378 67.4495 192.815" fill="#DCA841"/>
<path fill-rule="evenodd" clip-rule="evenodd" d="M94.274 121.677C93.317 121.966 92.722 121.909 91.075 122.596C87.947 123.901 90.36 125.982 91.975 126.902C93.562 127.806 94.673 129.228 94.368 131.17C94.221 132.109 93.326 133.536 92.448 133.956C91.301 134.505 89.45 133.962 90.254 132.578C90.815 131.615 92.215 132.128 92.013 130.388C91.88 129.245 90.708 128.649 89.823 128.076C87.739 126.725 85.959 125.584 86.221 122.725C86.553 119.105 90.387 119.36 93.304 119.358C94.978 119.358 95.241 119.182 96.156 117.931C96.304 117.895 95.378 120.583 94.274 121.677" fill="#80C6D3"/>
<path fill-rule="evenodd" clip-rule="evenodd" d="M82.7229 133.554C83.0229 133.863 83.8509 134.584 84.1039 135.172C85.8039 135.002 87.2649 135.5 87.0229 135.813C86.8199 136.157 85.5379 136.077 85.2439 136.711C85.0349 137.161 85.3669 138.203 85.6459 138.304C86.4069 138.491 87.2309 138.573 87.8869 139.016C88.3839 139.402 87.3429 139.7 86.8579 140.068C86.2789 140.509 85.7069 140.608 85.8399 141.555C86.0519 141.691 86.1099 141.84 86.3339 141.96C87.3039 142.48 88.0159 143.108 86.4109 143.505C84.7999 143.904 84.4609 146.221 83.7839 145.752C83.2569 145.52 84.2209 143.454 84.5269 142.343C84.8509 141.166 84.8959 139.929 84.7139 138.707C84.5639 137.7 84.2159 136.658 83.5989 135.819C83.0829 135.118 81.4419 133.555 81.9769 133.304C82.1459 133.156 82.3979 133.331 82.7229 133.554" fill="#80C6D3"/>
<path fill-rule="evenodd" clip-rule="evenodd" d="M108.39 121C107.874 122.702 108.354 123.557 109.286 124.719C110.22 125.884 110.206 127.015 108.359 125.885C107.051 125.085 105.73 123.503 106.27 121.313C106.617 119.905 108.39 119.435 108.39 121" fill="#80C6D3"/>
<path fill-rule="evenodd" clip-rule="evenodd" d="M52.1163 221.134C50.0903 221.141 48.7893 221.659 46.7973 221.76C45.1363 221.844 42.6053 221.112 43.0173 223.521C43.1053 223.493 47.4033 223.143 49.7303 223.089C50.6103 223.069 51.5363 223.143 52.3903 222.933C53.9493 222.55 53.8423 221.199 52.1163 221.134" fill="#E58C3A"/>
<path fill-rule="evenodd" clip-rule="evenodd" d="M42.8855 219.413C43.5105 222.448 44.6245 225.967 44.8955 228.934C44.3775 228.971 43.8385 229.085 43.3855 229.255C43.0415 226.162 41.3935 223.287 41.3125 220.11C41.3125 218.67 42.2205 218.318 42.8855 219.413" fill="#E58C3A"/>
<path fill-rule="evenodd" clip-rule="evenodd" d="M46.6409 236.937C46.3049 240.115 49.8089 244.408 47.9449 244.697C46.4069 243.868 46.2139 241.405 45.8249 239.789C45.6929 239.242 45.1749 238.294 45.4319 237.606C45.7419 236.776 47.8829 236.507 48.8219 236.53" fill="#E58C3A"/>
<path fill-rule="evenodd" clip-rule="evenodd" d="M51.8052 252.895C51.8772 253.615 54.0922 263.411 51.4772 261.175C50.3792 260.237 49.8092 253.531 50.3932 252.487C51.2192 252.342 51.6242 252.92 51.6492 253.677" fill="#E58C3A"/>
<path fill-rule="evenodd" clip-rule="evenodd" d="M55.5593 267.446C56.6033 267.984 58.7743 274.93 57.5933 275.894C56.1563 277.067 53.6763 268.74 53.6543 267.356C54.1553 266.925 55.0493 267.092 55.5593 267.446" fill="#E58C3A"/>
<path fill-rule="evenodd" clip-rule="evenodd" d="M58.688 260.561C58.75 261.41 60.989 267.401 58.884 266.311C57.662 265.679 56.376 260.496 57.437 259.693C58.193 259.999 59.259 260.455 59.001 261.5" fill="#E58C3A"/>
<path fill-rule="evenodd" clip-rule="evenodd" d="M55.0684 244.944C55.2814 245.772 58.5734 252.048 56.6324 252.143C55.1384 252.216 53.0024 245.723 53.5044 244.537C53.6544 243.625 54.3854 243.703 55.0684 244.944" fill="#E58C3A"/>
<path fill-rule="evenodd" clip-rule="evenodd" d="M51.1782 229.739C51.9182 231.184 52.8722 234.939 52.7152 236.596C50.3922 238.022 49.2752 230.511 49.2932 229.176C49.5352 228.605 50.8932 228.271 51.1782 229.739" fill="#E58C3A"/>
<path fill-rule="evenodd" clip-rule="evenodd" d="M47.8921 215.658C48.0081 216.756 50.2491 222.262 48.9871 222.55C46.8901 223.027 46.4571 217.661 46.4751 216.51C46.4821 216.472 46.5991 216.046 46.6321 215.884C46.6571 215.837 46.7481 215.684 46.7931 215.562C47.3521 215.324 47.6431 215.406 47.7351 215.814" fill="#E58C3A"/>
<path fill-rule="evenodd" clip-rule="evenodd" d="M63.8272 266.483C62.5992 267.446 59.9702 266.818 58.2262 267.29C57.3592 267.524 53.3252 269.475 53.6692 267.204C53.9152 266.038 64.6262 263.682 63.8272 266.483" fill="#E58C3A"/>
<path fill-rule="evenodd" clip-rule="evenodd" d="M60.6041 258.802C61.3471 258.372 63.1641 258.162 62.8761 259.588C62.5201 261.361 57.8781 261.582 56.4971 261.657C55.3441 261.72 53.7071 261.913 52.5851 261.657C51.4181 261.391 50.4841 260.634 51.7641 259.866C52.9681 259.145 55.5961 259.455 56.9661 259.428C57.7311 259.412 59.3131 259.467 60.6041 258.802" fill="#E58C3A"/>
<path fill-rule="evenodd" clip-rule="evenodd" d="M60.0974 251.605C61.6224 252.974 56.8034 252.884 54.6214 253.514C53.6814 253.786 52.2144 254.643 51.1804 254.303C49.9494 253.9 50.3184 253.13 50.3924 252.488C51.7644 251.469 54.5534 251.914 56.2254 251.718C57.1174 251.614 59.2374 251.214 60.0974 251.605" fill="#E58C3A"/>
<path fill-rule="evenodd" clip-rule="evenodd" d="M56.3419 242.726C57.5109 242.924 57.1199 243.779 56.3419 244.289C55.5699 244.797 53.9449 244.719 53.0599 244.763C51.7149 244.83 47.6129 245.643 47.2559 243.886C48.8439 243.413 49.8579 243.209 51.6869 243.118C53.0049 243.052 55.3539 243.018 56.3419 242.726" fill="#E58C3A"/>
<path fill-rule="evenodd" clip-rule="evenodd" d="M52.4292 236.154C53.9932 236.154 56.7782 236.858 55.7262 237.921C55.2512 238.401 52.5172 238.108 51.8032 238.222C50.5002 238.432 49.2122 238.803 47.8922 239.005C45.1722 239.42 44.3042 237.172 46.9842 236.754C48.3642 236.538 49.9262 236.442 51.3682 236.276C51.6532 236.243 52.0152 236.168 52.2732 236.154" fill="#E58C3A"/>
<path fill-rule="evenodd" clip-rule="evenodd" d="M51.0217 228.175C51.7647 227.863 52.7487 227.51 53.3337 228.088C54.4797 229.735 49.5077 229.74 48.5187 229.739C47.1517 229.737 43.0097 230.193 42.7227 228.55C42.7197 227.237 46.0027 228.466 47.0667 228.409C48.2567 228.347 49.7507 228.378 51.0217 228.175" fill="#E58C3A"/>
<path fill-rule="evenodd" clip-rule="evenodd" d="M51.0213 215.33C52.7503 216.762 48.4833 217.101 47.2663 217.187C46.4463 217.245 44.6113 217.526 43.8163 217.276C42.6573 216.913 42.8593 216.131 43.7853 215.707C44.6723 215.301 50.0433 214.764 51.0213 215.33" fill="#E58C3A"/>
<path fill-rule="evenodd" clip-rule="evenodd" d="M64.5908 130.398C64.8078 130.572 64.9468 130.825 65.0538 131.083C65.4168 131.961 65.4568 132.949 65.8408 133.818C66.1948 134.621 66.8428 135.334 66.8788 136.21C66.8828 136.296 66.8788 136.387 66.8338 136.46C66.7978 136.521 66.7378 136.563 66.6748 136.593C66.3108 136.764 65.8878 136.553 65.5528 136.332C64.3408 135.531 63.2418 134.46 62.7508 133.093C62.5568 132.554 62.4648 131.959 62.6248 131.409C62.8328 130.693 63.8598 129.813 64.5908 130.398" fill="#383D84"/>
<path fill-rule="evenodd" clip-rule="evenodd" d="M59.6079 135.46C60.0629 135.366 60.5379 135.579 60.8729 135.9C61.2089 136.222 61.4309 136.641 61.6469 137.052C62.1329 137.977 62.6199 138.902 63.1069 139.828C63.2069 140.018 63.3089 140.237 63.2359 140.439C63.1429 140.695 62.8139 140.779 62.5429 140.746C61.9489 140.674 61.4659 140.248 61.0359 139.832C60.4029 139.219 57.3529 135.925 59.6079 135.46" fill="#383D84"/>
<path fill-rule="evenodd" clip-rule="evenodd" d="M59.6865 141.702C60.1755 141.982 60.7135 142.36 60.7515 142.922C60.7615 143.063 60.7285 143.221 60.6155 143.306C60.5405 143.362 60.4445 143.378 60.3525 143.39C59.5105 143.511 58.6225 143.567 57.8375 143.241C57.6235 143.151 57.4165 143.031 57.2655 142.855C57.0365 142.588 56.9595 142.222 56.9535 141.87C56.9225 140.357 59.0305 141.327 59.6865 141.702" fill="#383D84"/>
<path fill-rule="evenodd" clip-rule="evenodd" d="M59.8844 160.012C60.3654 161.06 61.4134 162.24 62.5634 162.336C63.0584 162.378 63.5824 162.276 64.0404 162.469C64.3204 162.587 64.5344 162.816 64.7754 163.001C68.0244 165.513 70.7624 163.87 70.3544 164.618C70.1584 165.06 69.6254 165.233 69.1464 165.296C67.5104 165.511 65.7914 164.98 64.5624 163.879C64.3754 163.712 64.1954 163.53 63.9674 163.425C63.5024 163.212 62.9634 163.369 62.4524 163.388C61.1464 163.437 59.9514 162.521 59.3114 161.381C58.6714 160.241 58.4884 158.907 58.3704 157.605C58.3454 157.324 58.3244 157.034 58.4234 156.771C58.5214 156.509 58.8994 156.076 59.0544 156.31C59.2954 156.67 59.6024 159.398 59.8844 160.012" fill="#80C6D3"/>
<path fill-rule="evenodd" clip-rule="evenodd" d="M73.5522 169.092C73.4942 169.03 73.4352 168.968 73.3582 168.933C73.1182 168.823 72.8602 169.025 72.6582 169.196C71.5692 170.119 70.0492 170.512 68.6482 170.233C68.5262 170.371 68.7312 170.562 68.9062 170.621C69.8772 170.947 70.9842 170.839 71.8742 170.332C72.3272 170.074 72.8212 169.703 73.3142 169.874C73.4812 169.933 73.6212 170.048 73.7572 170.162C74.3072 170.626 75.0372 171.224 75.8072 171.033C76.0512 170.716 75.3072 170.595 74.7402 170.29C74.2522 170.028 73.9312 169.494 73.5522 169.092" fill="#80C6D3"/>
<path fill-rule="evenodd" clip-rule="evenodd" d="M120.36 160.51C119.274 160.719 118.153 160.557 117.07 160.334C116.897 160.299 116.722 160.262 116.547 160.278C116.342 160.297 116.151 160.387 115.964 160.471C113.89 161.393 111.521 161.633 109.305 161.144C108.885 161.06 111.076 163.14 114.835 161.831C115.212 161.7 115.548 161.466 115.93 161.347C116.753 161.089 117.627 161.433 118.481 161.55C119.877 161.741 120.877 161.338 121.923 160.403C122.353 160.018 122.795 159.307 122.433 159.431C122.252 159.492 121.776 159.969 121.56 160.087C121.187 160.29 120.777 160.43 120.36 160.51" fill="#80C6D3"/>
<path fill-rule="evenodd" clip-rule="evenodd" d="M107.561 168.455C106.252 169.848 104.185 170.207 102.274 170.221C101.923 170.285 101.897 170.572 102.284 170.614C103.907 170.794 105.733 170.916 106.979 169.861C107.076 169.779 107.175 169.687 107.3 169.671C107.45 169.65 107.587 169.741 107.712 169.824C108.765 170.524 109.981 170.976 111.232 171.148C111.588 171.197 113.768 171.015 113.588 170.556C113.468 170.25 112.418 170.548 112.079 170.523C111.499 170.481 110.926 170.361 110.372 170.187C108.103 169.476 107.885 168.12 107.561 168.455" fill="#80C6D3"/>
<path fill-rule="evenodd" clip-rule="evenodd" d="M121.162 173.922C119.491 175.927 116.289 176.439 114.077 175.054C113.6 174.613 111.936 176.947 107.791 175.681C107.321 175.578 107.921 176.387 108.861 176.576C110.133 176.833 111.487 176.868 112.643 176.28C112.805 176.198 112.963 176.108 113.138 176.061C113.445 175.98 113.771 176.047 114.081 176.12C115.048 176.349 116.009 176.637 117 176.689C117.991 176.741 119.043 176.527 119.783 175.866C120.053 175.625 120.737 175.193 121.059 175.029C121.649 174.729 121.898 175.094 122.541 175.252C123.534 175.495 125.325 175.2 125.939 174.196C126.07 173.922 124.402 174.643 123.853 174.666C122.002 174.744 121.399 173.685 121.162 173.922" fill="#80C6D3"/>
<path fill-rule="evenodd" clip-rule="evenodd" d="M164.583 91.2422C164.558 94.6032 163.274 97.8222 161.307 100.546C159.794 102.639 158.451 104.361 155.392 105.615C152.955 106.615 149.334 106.106 147.72 105.25C144.387 103.482 142.274 101.435 140.126 98.3402C139.055 96.7972 138.207 94.9982 137.57 93.2292C136.823 91.1552 136.428 88.5342 136.449 86.3452C136.475 83.6062 136.24 81.3642 135.24 80.7502C135.614 80.3212 136.086 80.5532 136.345 80.9472C136.603 81.3412 136.779 82.1972 136.859 82.6612C137.199 84.6342 137.518 88.6912 138.642 92.0842C139.332 94.1712 140.447 96.0842 141.815 97.7912C143.079 99.3682 144.805 101.186 146.566 102.262C148.47 103.425 150.027 103.874 151.938 103.946C153.85 104.018 155.89 103.309 157.389 102.121C158.64 101.13 161.77 98.8092 163.555 91.2572C163.614 91.0032 163.705 89.8842 163.966 89.8842C164.583 89.8842 164.583 90.3542 164.583 91.2422" fill="#383D84"/>
<path fill-rule="evenodd" clip-rule="evenodd" d="M159.24 83.4687C159.868 84.8077 160.344 86.3097 160.517 87.7787C160.73 89.5857 160.79 91.5237 160.752 93.3427C160.736 94.0967 160.576 95.3377 160.178 95.3377C159.666 95.3377 159.927 92.9057 159.898 91.6897C159.851 89.7547 159.485 87.2517 158.902 85.4057C157.518 81.0217 155.615 81.4157 156.109 80.8787C157.021 79.7347 158.943 82.8377 159.24 83.4687" fill="#383D84"/>
<path fill-rule="evenodd" clip-rule="evenodd" d="M148.318 88.4414C148.561 89.7934 148.804 91.1444 149.047 92.4954C149.597 95.5514 150.519 101.718 149.888 101.718C149.403 101.718 149.361 100.656 149.27 100.082C148.257 93.6704 148.056 86.9644 144.586 81.1924C144.586 80.7384 145.372 80.8424 145.961 81.9114C146.283 82.4964 146.607 83.0224 146.854 83.6064C147.467 85.0594 148.042 86.9034 148.318 88.4414" fill="#383D84"/>
<path fill-rule="evenodd" clip-rule="evenodd" d="M157.137 236.745C157.401 237.259 157.332 238.02 156.907 238.35C156.652 238.548 156.328 238.565 156.023 238.566C155.855 238.567 155.681 238.563 155.53 238.477C155.43 238.422 155.346 238.333 155.271 238.238C155.068 237.979 154.917 237.649 154.903 237.298C154.889 236.945 155.029 236.575 155.29 236.403C155.86 236.028 156.772 236.032 157.137 236.745" fill="#E58C3A"/>
<path fill-rule="evenodd" clip-rule="evenodd" d="M161.011 237.564C161.159 237.708 161.313 238.005 161.317 238.211C161.323 238.506 161.185 238.804 160.949 238.983C160.713 239.161 160.382 239.21 160.109 239.097C159.965 239.038 159.838 238.936 159.749 238.808C159.661 238.682 159.611 238.534 159.584 238.383C159.563 238.263 159.556 238.138 159.589 238.02C159.65 237.799 159.839 237.636 160.038 237.523C160.193 237.434 160.363 237.366 160.54 237.361C160.718 237.356 160.904 237.423 161.011 237.564" fill="#E58C3A"/>
<path fill-rule="evenodd" clip-rule="evenodd" d="M159.187 232.977C159.648 232.969 160.098 233.284 160.248 233.72C160.397 234.157 160.236 234.681 159.867 234.957C159.689 235.091 159.481 235.186 159.259 235.193C158.803 235.205 158.302 235.073 158.043 234.697C157.741 234.258 157.816 233.534 158.263 233.22C158.39 233.131 158.537 233.076 158.684 233.031C158.796 232.997 158.914 232.967 159.031 232.979C159.05 232.965 159.164 232.978 159.187 232.977" fill="#E58C3A"/>
<path fill-rule="evenodd" clip-rule="evenodd" d="M162.834 246.443C162.878 246.722 162.765 247.036 162.519 247.175C162.351 247.27 162.148 247.277 161.956 247.274C161.899 247.273 161.843 247.272 161.789 247.255C161.741 247.242 161.698 247.215 161.656 247.188C161.509 247.088 161.383 246.955 161.293 246.8C161.244 246.717 161.205 246.628 161.187 246.533C161.146 246.33 161.201 246.11 161.334 245.952C161.8 245.396 162.731 245.781 162.834 246.443" fill="#E58C3A"/>
<path fill-rule="evenodd" clip-rule="evenodd" d="M163.826 234.733C164.003 234.841 164.305 235.062 164.381 235.453C164.456 235.842 164.283 236.263 163.972 236.51C163.66 236.756 163.228 236.832 162.843 236.733C162.72 236.702 162.6 236.654 162.495 236.585C162.126 236.344 161.96 235.863 162.02 235.426C162.046 235.242 162.11 235.057 162.234 234.918C162.4 234.73 162.652 234.643 162.898 234.596C163.215 234.535 163.571 234.535 163.826 234.733" fill="#E58C3A"/>
<path fill-rule="evenodd" clip-rule="evenodd" d="M94.3981 166.865C94.8851 170.493 95.8741 175.734 98.6461 180.797C100.281 183.784 102.466 186.423 104.731 188.966C108.373 193.056 112.015 197.146 115.656 201.236C121.239 207.506 125.829 214.785 128.038 222.885C129.567 228.487 129.773 234.241 129.517 239.907C129.333 243.969 128.243 248.253 126.947 252.107C126.252 254.173 125.41 256.259 123.898 257.827C122.889 258.372 124.1 256.469 124.412 255.815C125.395 253.762 127.401 246.649 127.896 243.559C128.887 237.361 128.417 230.935 127.407 225.773C126.724 222.281 125.666 218.302 123.982 215.173C122.034 211.551 118.906 207.514 116.37 204.278C115.274 202.881 110.547 197.306 107.66 194.127C106.151 192.465 104.421 190.411 102.914 188.747C100.647 186.242 98.9821 183.381 97.3861 180.402C95.1011 176.136 93.5761 166.963 93.5781 165.45C93.5781 164.548 93.9961 163.87 94.3981 166.865" fill="#383D84"/>
<path fill-rule="evenodd" clip-rule="evenodd" d="M90.6578 162.306C88.6648 174.927 94.8648 187.7 104.051 196.581C110.016 202.349 115.725 208.216 119.355 215.677C122.162 221.448 123.702 227.462 124.182 233.862C124.557 238.867 123.39 249.369 122.635 253.122C122.321 254.674 121.116 257.25 120.547 257.25C120.08 256.783 121.637 254.721 122.194 249.724C122.588 246.202 122.879 242.67 123.049 239.131C123.396 231.919 123.13 225.141 119.343 217.693C117.948 214.95 116.166 211.671 114.387 209.155C112.569 206.58 110.564 204.822 108.651 202.672C106.804 200.598 105.075 198.363 103.123 196.898C100.255 194.745 95.5708 188.263 94.4158 185.748C92.7538 182.128 91.2668 178.098 90.3268 174.227C89.5518 171.035 89.5418 167.709 89.4938 164.425C89.4768 163.275 89.4928 162.022 90.2078 161.119C90.4878 160.894 90.8148 161.315 90.6578 162.306" fill="#383D84"/>
<path fill-rule="evenodd" clip-rule="evenodd" d="M85.5267 162.444C84.6597 167.022 84.3427 170.968 84.8817 175.596C86.0657 185.761 91.8977 193.973 98.6897 201.629C104.246 207.89 112.188 213.129 116.546 220.276C119.454 225.044 119.483 231.981 119.667 237.562C119.899 244.539 118.873 256.089 117.994 256.089C117.204 256.089 119.636 241.705 118.561 232.086C118.226 229.096 117.783 225.302 116.475 222.594C115.461 220.499 114.285 218.449 112.772 216.68C107.609 210.651 99.7327 204.485 96.6967 200.695C96.1497 200.011 95.4517 199.464 94.8887 198.794C92.6557 196.14 90.6347 193.302 88.9287 190.284C86.3817 185.774 84.4227 180.998 83.9827 177.169C83.4617 172.632 83.5427 169.733 84.0917 166.134C84.2827 164.879 84.4027 163.609 84.6667 162.366C84.9437 161.059 85.8597 160.682 85.5267 162.444" fill="#383D84"/>
<path fill-rule="evenodd" clip-rule="evenodd" d="M79.1911 174.634C78.7471 186.092 84.8811 196.934 92.8301 205.199C95.9941 208.489 99.7711 211.093 103.198 214.11C106.005 216.58 109.442 219.454 110.997 222.856C114.735 231.034 115.821 239.492 115.795 248.41C115.792 249.546 115.794 253.021 114.667 251.894C115.2 241.168 114.298 229.569 108.311 220.653C106.043 217.275 99.7261 212.463 96.9441 210.443C91.1271 206.219 84.6601 197.979 82.6261 193.128C81.2641 189.881 80.1591 187.166 79.2361 183.769C78.5801 181.35 78.3511 179.203 78.3911 176.266C78.4041 175.363 78.3341 173.689 78.8691 173.689C79.3931 173.689 79.2011 174.382 79.1911 174.634" fill="#383D84"/>
<path fill-rule="evenodd" clip-rule="evenodd" d="M163.637 105.528C166.189 110.593 168.525 115.767 170.639 121.029C171.926 124.234 172.8 127.53 173.898 130.804C176.536 138.679 178.531 145.755 178.738 154.118C178.883 159.991 177.928 166.548 175.511 171.901C174.012 175.22 172.403 178.735 170.451 181.81C169.464 183.367 167.172 186.087 166.801 185.761C166.553 185.513 167.482 184.554 168.053 183.793C174.375 175.347 177.945 164.716 177.753 154.17C177.675 149.865 176.848 143.983 175.772 139.827C174.333 134.273 172.57 129.374 171.026 124.599C168.327 116.254 165.706 112.76 162.793 106.165C162.45 105.385 162.825 104.157 163.637 105.528" fill="#383D84"/>
<path fill-rule="evenodd" clip-rule="evenodd" d="M159.513 106.554C161.157 109.757 162.302 113.074 163.498 116.469C165.846 123.129 168.313 129.915 170.504 136.63C175.235 151.127 174.185 165.425 166.12 178.526C165.823 179.008 164.423 181.52 163.881 181.356C163.307 181.356 166.795 175.413 167.021 174.991C169.923 169.556 171.703 164.079 172.225 157.332C172.536 153.31 172.375 149.871 171.495 144.73C170.709 140.141 167.062 129.301 166.258 127.069C163.586 119.656 161.926 113.686 159.004 106.893C158.692 106.166 159.148 105.85 159.513 106.554" fill="#383D84"/>
<path fill-rule="evenodd" clip-rule="evenodd" d="M154.291 107.329C156.462 112.064 158.335 117.185 159.919 122.147C162.305 129.625 166.15 137.444 166.927 145.269C167.66 152.668 166.357 161.485 162.668 168.042C161.744 169.683 159.509 174.216 159.124 173.831C158.635 173.342 161.17 169.268 162.307 166.634C163.038 164.941 163.999 162.538 164.531 160.772C165.734 156.78 166.101 152.967 166.115 148.798C166.134 143.617 164.615 138.559 162.849 133.689C161.805 130.812 160.571 127.442 159.581 124.547C157.154 117.454 155.935 114.281 153.693 108.379C153.139 106.919 154.2 107.129 154.291 107.329" fill="#383D84"/>
<path fill-rule="evenodd" clip-rule="evenodd" d="M149.13 108.011C150.53 111.435 151.744 114.402 153.145 117.825C155.18 122.798 156.426 127.767 157.473 133.036C158.631 138.868 159.926 143.593 159.58 149.528C159.282 154.635 157.634 160.357 155.413 164.966C155.199 165.41 154.69 165.925 154.313 165.606C153.882 165.122 154.401 164.379 154.807 163.501C155.213 162.624 155.705 161.321 156.114 160.445C156.667 159.261 157.94 154.321 158.145 153.23C158.801 149.731 159.509 145.877 155.901 130.244C155.155 127.011 154.317 124.326 153.532 121.838C151.939 116.776 150.879 115.003 148.866 109.909C148.68 109.438 148.192 108.521 148.184 108.014C148.17 107.187 148.757 106.919 149.13 108.011" fill="#383D84"/>
<path fill-rule="evenodd" clip-rule="evenodd" d="M154.841 98.6133C154.823 98.9593 154.695 100.085 154.443 99.5143C154.089 98.3923 154.754 89.6693 151.43 83.7283C151.202 83.3213 150.977 82.8993 150.916 82.4373C150.694 80.7513 151.51 81.3323 152.153 82.2383C153.007 83.4413 153.876 85.7803 154.128 87.2143C154.789 90.9713 155.03 94.8023 154.841 98.6133" fill="#383D84"/>
<path fill-rule="evenodd" clip-rule="evenodd" d="M142.863 95.3711C142.863 96.3971 142.324 95.9701 142.257 95.0871C141.847 89.6501 140.329 84.9721 139.431 80.0891C139.323 79.4991 139.929 79.3631 140.399 79.6951C140.792 79.9731 141.086 81.0371 141.181 81.4551C141.518 82.9271 141.758 85.0651 141.964 86.5591C142.379 89.5671 142.736 92.3371 142.863 95.3711" fill="#383D84"/>
<rect y="-0.539978" width="199" height="284" rx="14" fill="black" fill-opacity="0.693318"/>
<path fill-rule="evenodd" clip-rule="evenodd" d="M190 30.46C190 44.2663 178.358 55.46 164 55.46C149.642 55.46 138 44.2663 138 30.46C138 16.6538 149.642 5.46002 164 5.46002C178.358 5.46002 190 16.6538 190 30.46" fill="#FFFFFE"/>
<path fill-rule="evenodd" clip-rule="evenodd" d="M157.312 33.3913L160.192 34.1166C160.117 34.4793 160.078 34.8016 160.078 35.0836C160.078 36.091 160.449 36.9321 161.191 37.607C161.931 38.2836 162.863 38.6194 163.986 38.6194C165.201 38.6194 166.161 38.2869 166.864 37.6221C167.569 36.9573 167.919 36.0104 167.919 34.7815C167.919 33.4719 167.43 32.5049 166.452 31.8804C165.472 31.2575 164.174 30.9435 162.56 30.9435V28.4655C164.079 28.4655 165.21 28.1549 165.953 27.5321C166.693 26.9109 167.064 26.0949 167.064 25.0876C167.064 24.2364 166.764 23.5615 166.167 23.0562C165.567 22.5525 164.775 22.3007 163.785 22.3007C162.874 22.3007 162.102 22.5676 161.477 23.1015C160.848 23.6354 160.536 24.3472 160.536 25.2354C160.536 25.5527 160.582 25.8381 160.678 26.0949L157.882 26.6574C157.711 26.1638 157.627 25.6601 157.627 25.1464C157.627 23.5565 158.198 22.2117 159.337 21.112C160.477 20.0107 161.969 19.46 163.813 19.46C165.754 19.46 167.265 19.9519 168.348 20.9324C169.43 21.9129 169.972 23.1703 169.972 24.7015C169.972 25.7323 169.696 26.6859 169.147 27.5589C168.595 28.4303 167.865 29.0464 166.95 29.4023C168.147 29.765 169.121 30.3996 169.874 31.3062C170.623 32.2128 171 33.351 171 34.721C171 36.776 170.339 38.4129 169.018 39.6317C167.696 40.8506 166.018 41.46 163.986 41.46C161.855 41.46 160.159 40.8405 158.896 39.6015C157.63 38.3625 157 36.8884 157 35.1743C157 34.4893 157.103 33.895 157.312 33.3913" fill="#7E689E"/>
</g>
</svg>
