<svg width="360" height="527" viewBox="0 0 360 527" fill="none" xmlns="http://www.w3.org/2000/svg">
<path d="M331.16 0H28C12.536 0 0 12.536 0 28V498.137C0 513.601 12.5361 526.137 28 526.137H331.16C346.624 526.137 359.16 513.601 359.16 498.137V28C359.16 12.536 346.624 0 331.16 0Z" fill="#F7E2C8"/>
<path d="M151.686 291.676C149.827 296.754 146.379 302.143 146.481 308.461C146.574 314.04 150.561 316.819 158.833 316.739C159.995 316.739 162.718 314.96 163.48 314.06C171.297 305.342 175.219 289.936 176.669 275.78C171.79 274.68 162.226 269.871 158.842 275.18C154.734 281.638 156.351 285.337 151.639 291.666" fill="#1E0E00"/>
<path d="M191.801 281.579C179.049 293.389 164.027 302.019 147.81 306.852C137.763 309.851 127.781 313.09 119.787 320.278C117.5 322.335 115.419 324.644 113.579 327.167C112.928 328.046 112.101 329.556 112.436 330.166C115.618 330.521 118.822 330.612 122.018 330.436C108.076 341.683 93.2053 357.479 83.2323 372.844C78.9383 379.443 74.9231 386.841 75.1648 394.929L81.8196 393.929C77.4174 399.766 74.0867 406.449 72.0046 413.624C69.0803 424.881 67.5183 436.497 67.3574 448.185C67.3574 454.733 70.3409 483.245 73.7613 483.035L78.8825 477.157C81.3675 479.874 82.974 483.379 83.4647 487.154C90.5285 486.055 99.0608 484.845 106.125 483.745C107.326 483.413 108.596 483.526 109.731 484.065C110.79 484.735 111.199 486.635 110.168 487.354C114.49 486.355 116.256 484.565 121.182 483.145C127.957 486.615 136.053 482.716 143.377 480.206C172.243 470.375 202.023 463.975 232.185 461.121C275.163 457.062 316.161 435.848 358.962 430.009C358.962 412.444 358.906 400.137 358.962 386.211C355.597 373.214 348.673 360.218 342.362 348.761C339.48 343.532 336.264 338.374 331.831 334.595C330.957 333.855 329.972 332.415 330.902 331.675C332.082 331.533 333.276 331.663 334.406 332.056C335.536 332.449 336.575 333.096 337.454 333.955C340.809 330.426 337.612 323.477 334.452 319.748C325.35 309.064 313.129 302.041 299.812 299.844C285.34 297.504 269.066 300.604 257.262 291.306C253.042 287.987 249.873 283.358 245.969 279.629C232.287 266.532 205.668 268.632 191.792 281.539" fill="#EB6447"/>
<path d="M178.973 206.559C173.741 217.106 175.674 230.553 170.218 240.96C167.225 246.679 162.299 250.897 157.494 254.956L150.17 261.145C147.381 263.544 145.829 266.563 143.515 269.533C141.656 271.982 138.542 272.862 135.838 274.161C133.133 275.461 130.354 277.85 130.419 281.039C130.493 285.038 134.797 287.198 138.375 288.378L156.035 294.176C160.77 295.876 165.621 297.179 170.543 298.075C177.208 299.056 183.99 298.554 190.467 296.598C196.944 294.643 202.978 291.276 208.195 286.708C209.506 285.538 210.556 284.189 212.136 283.509C220.741 279.829 229.581 276.822 238.588 274.511C243.235 273.312 246.47 270.212 249.741 266.513C257.539 257.666 259.101 244.439 258.738 232.252C258.571 226.644 259.203 221.595 259.166 215.987C259.166 213.987 259.287 211.758 260.737 210.538C262.326 209.198 264.622 209.828 266.555 210.428C273.238 212.528 280.413 213.647 287.133 211.728C293.853 209.808 300.015 204.32 301.493 197.002C301.92 194.882 302.478 192.913 302.729 190.763C303.51 184.065 303.194 179.766 298.844 175.607C296.868 173.526 294.237 172.32 291.473 172.228C276.11 171.308 272.345 185.555 267.419 189.714C262.493 193.872 255.885 196.592 249.946 194.472C248.087 194.742 247.222 193.842 245.512 193.133C233.039 187.954 220.594 184.325 207.349 186.304C202.247 186.804 198.585 188.374 194.337 189.863C184.504 193.293 178.378 197.721 170.757 187.264C167.104 182.266 163.758 176.837 159.009 173.028C154.259 169.219 147.577 166.89 142.632 171.258C140.703 173.07 139.164 175.311 138.121 177.826C137.078 180.342 136.556 183.071 136.591 185.825C136.591 189.824 138.05 193.942 139.788 197.432C141.647 201.241 145.244 203.76 148.887 205.569C158.114 210.113 168.52 211.074 178.332 208.289" fill="#959CA5"/>
<path d="M159.363 302.464C160.516 304.804 163.425 305.223 165.869 305.333C170.73 305.543 175.703 305.643 180.332 304.064C184.96 302.484 189.115 299.175 192.647 295.456C186.689 295.576 180.731 295.706 174.774 295.456C171.827 295.336 168.881 295.126 165.953 294.776C164.196 294.566 161.529 293.776 160.042 295.256C158.555 296.736 158.415 300.595 159.345 302.474" fill="#959CA5"/>
<path d="M99.8418 339.384C110.988 338.867 121.878 335.626 131.685 329.906C133.701 328.726 136.034 327.417 138.191 328.337C139.483 328.896 140.496 330.236 141.908 330.336C143.321 330.436 144.567 329.096 145.515 327.867C147.652 325.087 150.487 317.949 152.151 314.87C155.097 309.332 160.758 298.304 163.351 296.875C164.28 297.005 165.721 297.675 165.442 298.654C167.022 300.424 161.724 310.561 159.085 312.651C157.69 313.75 155.042 313.57 153.508 317.05C152.513 319.369 153.759 322.118 152.114 323.988C151.184 324.987 149.502 326.137 149.325 327.507C149.209 328.192 149.278 328.899 149.525 329.542C149.772 330.186 150.187 330.739 150.72 331.136C152.393 332.196 154.54 330.906 155.804 329.316C158.155 326.317 159.047 322.368 160.544 318.809C163.443 311.438 165.769 303.82 167.496 296.035C168.128 295.575 170.786 304.033 170.349 303.343C169.299 301.714 169.318 302.893 169.374 303.713C169.618 305.402 169.428 307.13 168.825 308.712C168.01 310.36 167.045 311.917 165.944 313.36C164.355 315.36 162.654 319.979 167.31 320.459C167.551 320.671 167.703 320.978 167.735 321.311C167.766 321.645 167.674 321.978 167.477 322.238C167.062 322.742 166.572 323.167 166.028 323.498C164.905 324.373 164.108 325.649 163.778 327.097C163.499 328.337 163.908 330.096 165.089 330.156C165.673 330.137 166.227 329.871 166.632 329.416C169.829 326.417 170.6 322.708 171.279 316.05C171.604 312.821 171.725 306.232 170.349 303.333C169.652 301.834 167.496 298.124 167.496 296.025C168.426 296.025 169.866 295.905 170.554 295.955C170.415 297.665 172.85 300.954 173.342 302.303C176.753 311.881 175.415 316.83 173.584 322.368C171.558 328.506 169.736 333.535 169.364 340.133C168.881 348.671 170.991 353.28 171.223 361.818C171.223 363.597 170.628 365.897 168.983 365.937C167.338 365.977 166.585 363.477 166.502 361.578L166.26 355.579C166.158 353.13 165.172 349.821 162.923 350.171C161.678 350.371 160.897 351.68 160.293 352.87L150.664 371.375C150.199 372.285 149.623 373.285 148.684 373.535C147.439 373.865 146.323 372.715 145.403 371.745C142.543 368.709 139.032 366.477 135.179 365.247C129.742 363.527 123.896 363.887 118.394 362.368C108.356 359.608 101.664 350.371 99.8511 339.374" fill="#E2A749"/>
<path d="M145.998 362.457C142.717 361.188 139.12 361.548 135.634 361.458C125.205 361.044 115.327 356.316 108.058 348.261C105.809 345.752 103.847 342.953 101.459 340.603C99.0701 338.254 95.5103 336.084 92.1643 337.014C88.4465 338.074 86.3088 342.753 86.7177 346.902C87.1267 351.051 89.5061 354.69 92.0249 357.819C98.0105 365.117 105.623 370.725 113.727 375.054C116.295 376.501 119.004 377.637 121.804 378.443C125.454 379.247 129.177 379.602 132.902 379.503C136.359 379.503 142.735 379.503 146.035 378.333C153.136 375.884 155.329 366.057 145.933 362.448" fill="#EF8C45"/>
<path d="M118.57 340.004C115.837 341.633 113.728 344.932 114.285 348.241C114.364 348.824 114.582 349.376 114.917 349.841C115.292 350.278 115.752 350.619 116.265 350.841C118.363 351.766 120.629 352.171 122.893 352.025C125.157 351.88 127.361 351.188 129.342 350.001C130.744 349.278 131.956 348.189 132.865 346.832C133.311 346.149 133.596 345.36 133.693 344.532C133.79 343.704 133.697 342.863 133.423 342.083C131.155 336.545 122.344 337.784 118.551 340.034" fill="#EF8C45"/>
<path d="M140.739 349.351C141.723 348.296 142.958 347.552 144.308 347.199C145.658 346.847 147.073 346.899 148.397 347.352C151.037 348.262 150.591 350.801 150.581 352.7C150.616 353.652 150.428 354.598 150.033 355.451C149.638 356.304 149.05 357.036 148.323 357.579C147.608 357.993 146.831 358.267 146.027 358.389C143.759 358.839 138.908 360.188 137.662 357.389C136.584 355.01 139.279 350.761 140.767 349.391" fill="#EF8C45"/>
<path d="M150.877 311.181C151.407 310.631 153.861 308.602 154.716 309.872C155.571 311.141 154.484 313.681 153.61 314.55C151.268 316.89 148.526 318.089 146.463 320.719C144.399 323.348 142.652 326.717 143.265 330.076C144.548 331.196 146.983 329.776 147.913 331.196C148.132 331.595 148.212 332.065 148.137 332.522C148.062 332.979 147.837 333.392 147.504 333.685C146.815 334.249 145.995 334.596 145.133 334.685C144.613 334.827 144.065 334.81 143.553 334.635C142.773 334.285 142.42 333.345 141.88 332.636C140.022 330.246 136.518 331.016 133.776 332.006L122.427 336.085C119.639 336.755 118.254 336.085 120.057 335.315C120.057 335.405 135.467 326.167 136.49 325.318C141.574 320.969 146.137 315.98 150.85 311.181" fill="#EF8C45"/>
<path d="M152.828 331.186C154.519 330.536 155.941 329.776 157.177 325.737C157.698 324.028 159.566 316.06 160.895 318.629C160.812 320.878 159.613 325.907 159.529 328.156C159.471 328.888 159.506 329.624 159.631 330.346C159.877 331.198 160.221 332.014 160.654 332.775C161.219 333.79 161.538 334.942 161.583 336.124C161.593 336.713 161.46 337.295 161.197 337.812C160.935 338.329 160.552 338.764 160.087 339.074C159.594 339.363 159.018 339.453 158.507 339.693C157.28 340.273 156.49 341.593 155.356 342.363C154.222 343.132 152.233 342.843 152.121 341.363C152.01 339.883 153.701 339.363 154.566 338.244C155.198 337.464 156.053 335.564 155.495 334.695C154.938 333.825 153.692 334.695 152.307 334.865C149.221 335.964 149.156 331.865 152.781 331.156" fill="#EF8C45"/>
<path d="M110.084 339.694C111.496 338.984 114.192 338.414 114.526 339.694C115.186 341.004 111.85 343.313 110.548 343.853C109.247 344.393 107.36 345.562 106.44 343.793C106.254 343.464 106.161 343.084 106.171 342.699C106.181 342.314 106.293 341.941 106.496 341.623C106.747 340.944 108.401 340.164 110.074 339.704" fill="#EF8C45"/>
<path d="M117.352 376.574C110.494 376.7 103.682 375.34 97.3223 372.575C96.7558 372.395 96.2471 372.049 95.8538 371.575C95.5221 370.937 95.3824 370.203 95.4541 369.476L95.5192 361.368C95.5192 357.539 95.4634 353.37 93.177 350.421C89.9332 346.262 84.0034 346.592 78.9936 347.292C76.9953 349.101 76.1031 352.21 75.5268 354.95C75.0391 357.713 74.8303 360.526 74.9041 363.337C74.7354 364.329 74.8492 365.352 75.2307 366.273C75.6122 367.193 76.2435 367.968 77.0418 368.496L85.695 375.894C89.9983 379.573 91.6434 386.111 94.85 390.89C95.3651 391.624 95.837 392.392 96.2627 393.19C97.8614 396.329 98.0101 400.188 99.869 403.187C100.213 408.635 104.172 413.384 108.894 415.374C111.17 416.151 113.493 416.759 115.846 417.193C120.573 418.382 124.934 420.865 128.505 424.401C129.3 425.33 130.245 426.095 131.294 426.661C132.303 427.043 133.383 427.163 134.444 427.011C138.062 426.626 141.504 425.143 144.367 422.733C147.231 420.324 149.398 417.089 150.617 413.404C151.676 410.035 151.788 406.016 149.687 403.237C151.054 401.359 151.988 399.16 152.413 396.819C152.838 394.479 152.741 392.063 152.132 389.77C156.84 389.812 161.457 388.381 165.423 385.652C168.025 383.852 170.47 381.113 170.488 377.794C170.488 372.795 165.228 369.796 160.608 369.246C156.412 368.784 152.175 369.418 148.256 371.095C145.849 372.095 143.562 373.565 141.034 374.215C138.717 374.669 136.362 374.857 134.008 374.774C128.431 374.894 122.947 376.444 117.398 376.554" fill="#959CA5"/>
<path d="M0.0244942 507.919C0.0102171 507.679 0.0666792 507.489 0.29911 507.426C24.0659 501.063 329.283 434.266 358.185 428.744C358.797 428.627 359.16 429.136 359.16 429.76V499.594C359.16 514.506 347.071 526.594 332.16 526.594H19.842C9.3353 526.594 0.64792 518.408 0.0244942 507.919Z" fill="#2C3032"/>
<path d="M227.77 412.444C230.291 434.285 233.365 456.04 236.99 477.707C237.185 478.877 237.482 479.957 238.486 480.446C239.525 480.858 240.636 481.015 241.739 480.906L267.094 480.426C272.151 469.989 273.6 456.983 274.242 445.226L276.036 413.764C260.235 413.844 243.561 412.384 227.77 412.474" fill="#EF8C45"/>
<path d="M248.218 389.57C236.135 389.57 227.696 390.91 225.53 391.819C223.365 392.729 219.173 406.585 219.071 408.455C218.764 413.973 227.268 417.093 242.26 418.162C258.525 419.322 281.539 419.502 281.539 412.014C281.539 408.335 280.823 405.416 279.94 401.857C279.057 398.298 278.657 395.148 275.637 393.419C274.125 392.638 272.516 392.099 270.859 391.819C263.415 390.177 255.825 389.422 248.227 389.57" fill="#EDEEF2"/>
<path d="M218.791 336.375C220.094 337.243 221.459 338.002 222.871 338.644C228.011 341.283 232.165 343.393 236.19 346.752C247.65 356.359 245.828 372.285 246.414 389.011C246.488 391.01 246.414 395.579 246.897 396.599C247.715 398.378 251.024 398.158 252.316 396.739C253.022 395.799 250.773 373.605 249.425 362.198C248.877 357.569 248.273 352.77 245.912 348.861C244.019 346.015 241.606 343.613 238.82 341.803C235.205 339.214 226.505 333.615 222.49 331.806C218.772 330.226 217.127 334.805 218.772 336.345" fill="#E2A749"/>
<path d="M314.17 353.42C310.628 349.301 307.803 344.532 304.652 340.054C301.501 335.575 297.904 331.296 293.313 328.627C288.721 325.957 282.959 325.108 278.265 327.557C272.447 330.556 266.136 328.327 259.797 329.716C257.399 330.236 254.936 330.866 252.975 332.436C252.194 333.065 251.516 333.835 250.679 334.385C249.673 334.974 248.597 335.414 247.482 335.695C242.63 337.224 237.993 339.453 233.698 342.323C231.672 343.673 229.59 345.322 228.995 347.852C228.759 349.125 228.862 350.445 229.293 351.659C229.723 352.872 230.465 353.93 231.43 354.71C233.391 356.233 235.76 357.03 238.178 356.979C237.788 362.578 242.993 367.796 248.151 366.977C248.421 372.715 254.657 377.114 259.658 375.104C260.096 376.222 260.745 377.23 261.564 378.063C262.383 378.897 263.354 379.539 264.416 379.948C265.477 380.356 266.606 380.524 267.731 380.438C268.856 380.353 269.952 380.018 270.95 379.453C273.618 377.834 275.217 374.664 275.821 371.455C276.278 368.193 276.3 364.877 275.886 361.608C281.541 361.681 287.194 361.324 292.802 360.538C296.226 367.402 300.428 373.782 305.312 379.533C305.62 379.964 306.023 380.308 306.483 380.533C307.914 381.083 309.16 379.343 309.773 377.844C312.809 370.12 314.292 361.793 314.123 353.41" fill="#959CA5"/>
<path d="M77.7844 333.145C77.5766 333.029 77.3358 333.001 77.1101 333.068C76.8844 333.135 76.6904 333.291 76.5668 333.504C76.3525 333.965 76.2624 334.481 76.3066 334.994V342.922C76.2463 344.899 76.3865 346.876 76.7248 348.82C77.0724 350.777 78.006 352.557 79.3831 353.889C79.9585 354.059 80.5731 353.98 81.0946 353.668C81.6161 353.355 82.0028 352.835 82.1714 352.22C82.1714 352.459 82.1714 351.48 82.2272 351.13C82.5618 346.131 81.0282 341.132 79.5225 336.384C79.2033 335.161 78.5986 334.045 77.7658 333.145" fill="#1E0E00"/>
<path d="M164.205 376.683C163.359 377.983 163.415 380.103 164.707 380.872C165.087 381.082 165.507 381.195 165.934 381.202C166.886 381.2 167.829 381.017 168.722 380.662C172.262 379.46 175.673 377.858 178.9 375.884C180.099 375.144 181.418 374.104 181.446 372.614C181.467 372.287 181.367 371.964 181.167 371.715C180.927 371.503 180.631 371.377 180.322 371.355C175.814 370.595 167.086 372.355 164.252 376.683" fill="#1E0E00"/>
<path d="M137.224 397.038C138.46 395.946 139.929 395.204 141.5 394.879C142.113 394.7 142.763 394.731 143.359 394.969C143.735 395.204 144.053 395.535 144.285 395.932C144.516 396.329 144.655 396.781 144.688 397.248C144.985 399.398 143.963 401.037 142.336 402.867C142.002 403.198 141.691 403.555 141.407 403.937C141.992 405.026 142.764 406.996 142.513 407.646C141.526 408.592 140.402 409.358 139.185 409.915C138.98 409.223 138.716 408.554 138.395 407.915C138.228 407.586 137.884 406.816 137.531 406.806C137.41 406.812 137.292 406.85 137.187 406.916C136.066 407.621 134.849 408.134 133.581 408.435C132.944 408.575 132.283 408.51 131.679 408.249C131.076 407.987 130.558 407.541 130.188 406.966C129.956 406.425 129.854 405.83 129.893 405.235C129.932 404.641 130.111 404.067 130.411 403.567C131.024 402.575 131.766 401.683 132.614 400.917C132.743 400.831 132.852 400.714 132.934 400.577C133.015 400.439 133.067 400.283 133.084 400.121C133.102 399.958 133.086 399.794 133.037 399.639C132.988 399.485 132.907 399.344 132.8 399.228C131.967 397.515 130.823 395.999 129.436 394.769C131.158 394.224 132.815 393.463 134.371 392.5C134.956 392.799 136.834 396.239 137.234 396.998" fill="#EB6447"/>
<path d="M234.861 345.782C234.261 345.349 233.558 345.109 232.835 345.092C229.703 344.862 226.785 346.702 224.238 348.691C221.988 350.45 219.855 352.374 217.853 354.45C217.548 354.694 217.336 355.05 217.258 355.45C217.273 355.716 217.374 355.969 217.544 356.164C217.713 356.359 217.941 356.485 218.187 356.519C218.688 356.567 219.193 356.481 219.656 356.269C224.014 354.707 228.284 352.874 232.445 350.781C233.529 350.382 234.445 349.581 235.029 348.521C235.475 347.432 236.098 346.782 234.861 345.782Z" fill="#1E0E00"/>
<path d="M243.821 363.637C243.569 365.475 243.426 367.328 243.394 369.186C243.282 372.235 241.814 378.863 243.626 381.463C243.819 381.771 244.116 381.986 244.455 382.063C244.793 382.139 245.146 382.071 245.438 381.872C245.666 381.632 245.833 381.332 245.922 381.003C248.174 374.814 249.571 368.303 250.067 361.678C250.169 359.778 249.389 356.159 246.879 356.779C244.732 357.309 244.091 361.778 243.821 363.637Z" fill="#1E0E00"/>
<path d="M252.818 377.133C252.13 380.872 250.308 387.451 251.795 391.13C251.832 391.265 251.895 391.391 251.98 391.498C252.065 391.605 252.171 391.692 252.289 391.752C252.408 391.813 252.537 391.846 252.668 391.849C252.799 391.852 252.929 391.825 253.05 391.77C253.298 391.585 253.484 391.318 253.58 391.01C256.368 384.421 259.203 377.553 259.091 370.305C259.036 366.676 255.913 365.886 254.082 368.826C252.567 371.255 253.329 374.454 252.827 377.173" fill="#1E0E00"/>
<path d="M266.063 373.185C265.701 372.965 265.255 373.255 264.966 373.575C263.851 374.834 263.572 376.684 263.442 378.413C263.288 380.435 263.256 382.466 263.349 384.492C263.461 387.051 263.145 389.75 263.191 392.32C263.16 392.768 263.261 393.216 263.479 393.599C263.736 393.87 264.082 394.021 264.441 394.021C264.801 394.021 265.146 393.87 265.403 393.599C265.872 393.033 266.193 392.343 266.333 391.6C266.89 389.6 267.448 387.601 267.857 385.602C268.342 383.205 268.622 380.765 268.693 378.313C268.853 377.402 268.828 376.464 268.619 375.564C268.438 374.952 268.097 374.408 267.638 373.997C267.178 373.586 266.619 373.325 266.026 373.245" fill="#1E0E00"/>
<path d="M278.611 350.231C277.796 350.217 276.985 350.335 276.203 350.581C275.81 350.723 275.447 350.947 275.134 351.241C274.927 351.526 274.818 351.879 274.828 352.241C274.787 352.644 274.838 353.053 274.976 353.431C275.441 354.52 276.91 354.65 278.006 354.43C279.131 354.286 280.197 353.816 281.092 353.071C281.699 355.816 281.909 358.645 281.715 361.458C282.883 361.513 284.053 361.45 285.21 361.268C285.923 358.226 285.745 355.02 284.698 352.091C285.426 352.033 286.141 351.854 286.818 351.561C287.155 351.41 287.455 351.177 287.696 350.88C287.936 350.584 288.109 350.232 288.202 349.851C288.254 349.24 288.092 348.631 287.749 348.141C287.405 347.651 286.904 347.316 286.344 347.202C285.219 347 284.065 347.249 283.1 347.902C282.867 348.042 282.579 348.192 282.347 348.042C282.228 347.943 282.135 347.812 282.077 347.662C281.733 347.049 281.252 346.539 280.677 346.177C280.102 345.816 279.453 345.615 278.787 345.593C277.551 345.523 275.488 346.002 274.781 347.132C275.426 347.409 276.048 347.743 276.64 348.132C278.09 349.272 278.722 350.131 278.611 350.131" fill="#EDEEF2"/>
<path d="M110.446 490.504C114.13 486.309 118.257 482.592 122.743 479.427C122.952 479.242 123.216 479.143 123.486 479.147C123.83 479.147 124.053 479.546 124.221 479.866C125.819 482.812 127.288 485.835 128.626 488.934L132.093 486.295C132.224 486.1 132.404 485.949 132.611 485.858C132.818 485.767 133.045 485.741 133.265 485.782C133.486 485.822 133.691 485.928 133.858 486.088C134.026 486.247 134.148 486.454 134.212 486.685L138.255 494.103C138.831 494.952 136.591 496.202 135.467 497.032L124.788 504.74L144.185 503.74C144.571 503.681 144.965 503.755 145.31 503.95C145.643 504.269 145.853 504.712 145.895 505.19C146.358 507.578 146.499 510.026 146.313 512.458C146.315 512.874 146.201 513.281 145.988 513.628C145.593 514.023 145.068 514.235 144.529 514.217L138.859 514.797C133.785 515.317 129.016 515.467 123.449 515.857C121.934 516.016 120.404 515.905 118.923 515.527C116.924 514.687 114.471 512.068 113.169 510.238C109.303 504.82 108.95 497.742 110.493 490.464" fill="#E2A749"/>
<path d="M177.087 513.627C175.73 513.697 173.871 514.067 173.871 515.527C173.923 515.901 174.046 516.259 174.233 516.579C174.42 516.899 174.667 517.174 174.959 517.386C177.282 519.615 179.931 521.985 183.045 521.915C185.22 521.915 187.209 520.615 188.975 519.256C195.369 514.347 200.732 506.699 200.332 498.261C200.332 497.451 193.947 498.351 192.98 498.981C191.503 499.981 191.122 504.1 189.848 506.159C185.852 512.627 182.115 513.387 177.096 513.637" fill="#E2A749"/>
<path d="M246.349 469.489C245.643 464.33 247.381 459.012 250.346 454.893C253.435 450.853 257.312 447.594 261.703 445.345C267.179 442.15 273.284 440.405 279.512 440.257C286.399 440.257 293.1 442.886 299.03 446.595C305.378 450.534 310.425 455.873 316.076 460.661C324.062 467.449 331.006 475.546 336.654 484.655C334.46 486.945 331.412 487.814 328.633 489.174C323.893 491.503 319.041 493.873 313.855 494.453C307.023 495.212 300.173 492.773 294.169 489.194C291.288 487.484 286.873 484.665 284.029 487.834C282.681 489.334 282.04 491.373 281.073 493.183C278.117 498.691 272.401 501.661 266.983 504.18C262.335 506.399 257.493 508.609 253.636 512.238C252.79 513.028 251.266 513.797 250.206 513.428C246.473 509.564 243.336 505.086 240.912 500.161C238.735 495.9 235.472 492.396 231.506 490.064C229.422 488.92 227.244 487.986 225 487.274L218.493 484.955C216.635 484.295 214.46 483.186 214.357 481.096C214.375 480.476 214.546 479.872 214.851 479.345C215.156 478.818 215.586 478.388 216.095 478.097C217.134 477.525 218.269 477.185 219.432 477.097C224.334 476.438 229.297 476.502 234.182 477.287C235.266 477.543 236.381 477.6 237.482 477.457C238.63 477.156 239.692 476.559 240.577 475.717C242.743 473.848 245.15 472.228 246.312 469.519" fill="#3A6D53"/>
<path d="M255.643 478.077C255.18 480.227 254.869 482.413 254.714 484.615C254.62 486.298 254.924 487.98 255.597 489.504C256.576 491.237 258.004 492.627 259.705 493.503C263.423 495.682 267.624 496.602 271.788 497.202C273.479 497.441 275.283 497.611 276.807 496.792C278.137 495.907 279.232 494.667 279.986 493.193L282.858 488.534C283.16 487.952 283.583 487.453 284.094 487.074C285.692 486.074 287.533 487.674 288.983 488.904C291.394 490.921 294.302 492.134 297.348 492.393C299.569 492.573 301.511 493.742 303.733 493.972C305.175 494.198 306.645 494.109 308.055 493.712C309.199 493.249 310.238 492.527 311.102 491.596C311.967 490.665 312.635 489.546 313.064 488.314C313.904 485.845 314.408 483.259 314.561 480.636C314.662 480.23 314.672 479.805 314.589 479.395C314.507 478.984 314.335 478.601 314.087 478.277C313.78 478.037 313.422 477.882 313.046 477.827C302.385 475.367 291.585 477.897 280.692 478.516C276.416 478.756 272.243 477.907 267.959 478.047C263.516 478.187 259.956 477.107 255.597 478.047" fill="#E2A749"/>
<path d="M249.037 479.527C271.381 480.4 293.734 480.71 316.097 480.456C316.97 480.456 318.058 480.266 318.309 479.367C318.349 479.054 318.327 478.736 318.246 478.433C318.164 478.129 318.024 477.848 317.835 477.607L306.681 458.662C306.499 458.259 306.215 457.918 305.862 457.68C305.508 457.441 305.1 457.314 304.683 457.312C293.576 455.336 282.379 454.001 271.139 453.314C269.257 453.074 267.349 453.22 265.516 453.743C261.529 455.163 258.713 460.182 256.528 463.821C253.582 468.729 251.472 474.328 249.093 479.557" fill="#EF8C45"/>
<path d="M253.656 445.286C250.186 447.036 246.988 449.352 244.176 452.154C243.182 453.033 242.395 454.154 241.88 455.423C241.633 456.061 241.568 456.765 241.693 457.443C241.819 458.122 242.13 458.745 242.587 459.232C244.037 460.552 246.5 459.752 247.912 461.111C249.771 462.921 248.173 466.73 249.827 468.779C251.361 470.669 254.195 469.579 256.333 468.539C258.471 467.5 261.631 467.04 262.523 469.359C262.914 470.359 262.709 471.679 263.453 472.418C263.933 472.808 264.525 473.002 265.126 472.968C267.799 473.071 270.439 472.304 272.701 470.769C273.853 469.989 275.201 468.959 276.419 469.559C277.636 470.159 277.868 472.119 278.742 473.348C280.034 475.168 282.674 475.048 284.626 474.118C286.577 473.188 288.343 471.909 290.342 471.049C293.214 469.799 293.214 470.729 298.865 473.658C299.719 474.057 300.664 474.176 301.58 473.998C302.496 473.82 303.343 473.354 304.014 472.658C304.943 471.659 305.436 470.319 306.263 469.219C307.09 468.12 308.512 467.3 309.674 467.95C311.868 469.169 315.437 469.129 317.184 467.25C318.662 465.66 317.797 463.061 318.876 462.171C319.805 461.431 321.078 461.601 322.147 461.171C324.006 460.382 324.657 457.822 324.08 455.803C323.366 453.826 322.108 452.132 320.474 450.944C313.039 444.656 303.503 442.046 294.301 439.597C289.998 438.447 285.639 437.298 281.214 437.398C274.708 437.548 268.555 440.397 262.626 443.146C259.14 444.766 257.133 443.536 253.684 445.266" fill="#3A6D53"/>
<path d="M275.357 428.03C273.741 428.183 272.165 428.657 270.71 429.429C266.063 431.589 261.499 434.338 258.107 438.427C254.714 442.516 252.604 448.055 253.404 453.423C254.203 458.792 258.395 463.71 263.46 464.05C276.63 464.94 289.196 466.26 301.958 462.641C307.739 461.001 314.161 457.822 315.546 451.564C317.033 444.895 311.912 438.637 306.559 434.918C297.589 428.69 286.036 427.64 275.366 428.03" fill="#E2A749"/>
<path d="M250.264 513.428C252.596 510.745 255.381 508.564 258.471 506.999C262.542 504.87 266.929 503.67 270.702 501.001C274.589 498.402 277.835 494.832 280.164 490.594C280.954 489.224 282.367 485.245 283.724 484.595C286.559 483.176 289.663 485.595 292.34 487.275C298.957 491.534 307.09 492.773 314.646 492.203C322.426 491.513 329.957 488.933 336.674 484.655C339.044 488.334 324.248 499.701 315 503.101C305.752 506.5 295.881 507.469 286.447 510.239C280.787 511.898 275.294 514.238 269.54 515.507C263.787 516.777 251.667 515.717 250.227 513.508" fill="#3A6D53"/>
<path d="M254.166 200.081C257.963 202.919 262.437 204.525 267.057 204.71C268.149 204.82 269.25 204.705 270.301 204.37C271.63 203.758 272.824 202.852 273.805 201.711C275.372 200.223 276.801 198.576 278.071 196.792C279.586 194.513 280.581 191.863 282.226 189.704C283.638 187.892 285.453 186.495 287.502 185.642C289.552 184.788 291.769 184.508 293.946 184.825C297.255 185.355 299.123 188.354 299.579 191.823C300.127 196.002 300.359 200.721 298.157 204.28C296.275 207.404 293.561 209.843 290.368 211.278C288.449 212.102 286.451 212.692 284.41 213.038C280.019 213.77 275.54 213.614 271.203 212.578C267.505 211.546 263.999 209.838 260.839 207.529C258.125 205.634 255.849 203.096 254.185 200.111" fill="#EE929A"/>
<path d="M172.551 203.69C171.559 203.212 170.677 202.505 169.967 201.62C168.387 199.138 167.001 196.52 165.822 193.793C164.623 191.063 163.173 188.314 160.84 186.644C158.507 184.975 155.384 184.585 152.475 184.725C151.108 184.732 149.757 185.047 148.51 185.65C147.263 186.252 146.147 187.129 145.234 188.224C144.291 189.395 143.584 190.764 143.156 192.243C142.729 193.723 142.592 195.282 142.753 196.822C142.979 198.816 143.62 200.731 144.627 202.423C145.634 204.115 146.982 205.543 148.571 206.599C151.806 208.829 155.653 209.748 159.446 210.398C162.972 210.798 166.536 210.595 170.004 209.798C170.813 207.619 171.482 206.089 172.579 203.69" fill="#EE929A"/>
<path d="M107.555 430.49C103.737 427.85 100.691 424.103 98.7682 419.68C96.8456 415.258 96.1251 410.341 96.6898 405.496C93.3903 404.497 90.4718 407.906 88.6594 411.015C82.9101 420.904 79.1636 431.985 77.6641 443.536L84.5698 437.128C82.6764 446.369 82.1588 455.875 83.0363 465.291L89.3379 455.153C88.9852 458.366 89.2522 461.622 90.1221 464.718C90.9921 467.814 92.4464 470.684 94.3941 473.149L93.6319 448.575C90.4574 449.721 87.6437 451.799 85.5086 454.574C85.2144 446.796 85.953 439.013 87.7021 431.46L81.354 434.539C82.862 426.859 86.3133 419.777 91.3269 414.074C93.2509 419.863 95.686 425.601 99.6176 430.07C102.032 432.704 104.906 434.798 108.076 436.233C111.245 437.667 114.647 438.413 118.086 438.428C123.17 438.508 133.663 436.708 135.16 430.33C135.16 427.961 126.869 433.459 123.077 433.979C117.707 434.741 112.256 433.514 107.62 430.5" fill="#F18288"/>
<path d="M154.353 415.613C159.158 423.791 164.14 432.609 164.028 442.256C164.049 442.583 163.991 442.91 163.861 443.206C163.34 444.206 162.002 443.586 161.193 442.856C160.004 441.727 158.898 441.677 157.401 441.717C156.955 445.895 157.457 450.124 157.252 454.323C156.63 466.89 150.607 474.318 151.927 474.218C153.33 474.718 154.715 473.408 155.561 472.109C159.799 465.71 160.45 457.432 161.277 449.624C161.281 449.171 161.417 448.73 161.667 448.365C162.597 447.365 164.149 448.865 165.441 448.565C166.556 448.305 166.947 446.825 167.067 445.566C167.739 439.866 167.015 434.076 164.967 428.77C163.777 426.058 162.382 423.457 160.794 420.992C158.842 417.783 154.288 413.774 152.921 413.774C153.163 414.434 153.999 414.984 154.353 415.593" fill="#F18288"/>
<path d="M197.692 460.911C200.341 461.621 194.681 455.003 193.454 452.204C191.92 448.705 190.552 445.124 189.355 441.477C188.779 441.067 188.203 442.216 187.496 442.186C186.79 442.156 186.678 441.327 186.632 440.687C186.297 435.748 185.628 430.41 186.009 425.471C186.316 421.472 187.078 417.473 187.487 413.424C187.924 409.125 189.634 405.226 187.831 401.357C186.372 398.218 183.109 397.238 180.72 394.849C188.342 386.901 195.043 379.213 200.778 369.606C204.115 364.017 207.284 358.269 210.481 352.67C211.81 350.361 213.167 347.561 211.132 345.962C208.777 344.11 206.672 341.916 204.877 339.443L211.439 338.994C211.785 339.005 212.128 338.908 212.424 338.714C213.13 338.144 212.712 336.934 212.191 336.164C209.732 332.555 206.449 329.689 202.658 327.845C198.867 326 194.698 325.24 190.554 325.637C192.357 321.542 193.354 317.09 193.482 312.561C189.125 317.72 183.43 321.355 177.133 322.998C176.055 323.098 175.395 323.398 175.869 323.788C179.697 324.28 183.562 323.287 186.771 320.988L186.511 328.986C191.921 328.192 197.43 328.809 202.572 330.786C205.109 331.785 207.823 333.445 208.371 336.284C207.191 336.684 205.908 336.284 204.654 336.364C203.399 336.444 201.977 337.364 202.135 338.684C202.268 339.287 202.566 339.833 202.99 340.253L206.875 344.952C207.386 345.562 207.591 345.792 208.065 346.432C208.363 346.9 208.558 347.435 208.633 347.997C208.709 348.558 208.664 349.131 208.502 349.671C208.169 350.745 207.683 351.757 207.061 352.67L199.625 364.867C199.461 365.395 199.268 365.912 199.049 366.416C196.584 370.468 193.867 374.336 190.916 377.993C187.682 381.992 184.085 385.871 180.804 389.82C179.8 391.03 178.471 392.38 177.421 393.539C176.631 394.409 175.804 395.779 176.492 396.718C176.813 397.06 177.215 397.302 177.653 397.418C180.278 398.43 182.64 400.103 184.54 402.297C185.544 403.457 184.541 410.145 184.448 411.764C184.262 414.824 183.658 417.763 183.332 420.762C182.589 427.76 182.672 434.998 182.403 442.036C182.403 443.176 182.747 449.255 185.888 446.395C186.353 445.975 186.901 445.336 187.45 445.626C187.712 445.815 187.898 446.104 187.97 446.435C190.015 452.364 192.943 457.182 197.692 460.921V460.841" fill="#F18288"/>
<path d="M307.321 378.373C307.895 377.3 308.318 376.141 308.576 374.934C310.589 367.285 312.141 359.504 313.223 351.64C313.307 351.03 313.577 350.251 314.153 350.301C315.724 360.388 312.963 370.645 309.636 380.223C308.902 382.322 308 384.582 306.15 385.611C305.282 386.061 304.326 386.281 303.362 386.251C299.728 386.251 295.926 383.362 295.824 379.453C295.824 377.453 304.347 383.782 307.368 378.363" fill="#F18288"/>
<path d="M315.788 348.551C323.298 353.545 329.378 360.676 333.354 369.156C334.075 370.491 334.504 371.985 334.609 373.525L327.75 372.925C325.305 372.375 329.887 377.204 331.179 379.113C335.186 384.772 338.523 390.944 341.115 397.488C344.545 405.766 345.995 415.763 347.222 424.761L343.885 423.761C344.498 426.76 349.341 430.09 349.657 428.91C351.952 410.795 344.833 393.579 335.241 378.493C336.347 378.833 337.611 378.893 338.717 379.233C337.955 371.285 334.497 364.927 330.111 358.488C328.013 355.49 325.623 352.742 322.982 350.291C320.628 348.006 317.623 346.645 314.459 346.432C312.47 346.432 315.063 348.071 315.788 348.551Z" fill="#F18288"/>
<path d="M157.532 283.208C157.558 283.634 157.623 284.056 157.727 284.467C157.814 284.674 157.963 284.843 158.151 284.947C158.338 285.05 158.553 285.082 158.759 285.037C158.956 284.936 159.116 284.767 159.215 284.557C159.715 283.734 159.983 282.772 159.986 281.788C159.979 281.301 159.888 280.819 159.716 280.368C159.593 280.084 159.383 279.853 159.121 279.713C158.86 279.573 158.562 279.533 158.276 279.599C155.748 279.819 157.346 282.368 157.532 283.208Z" fill="#2C3032"/>
<path d="M161.779 276.74C161.856 276.98 161.991 277.194 162.169 277.36C162.265 277.444 162.381 277.499 162.504 277.518C162.626 277.538 162.752 277.521 162.866 277.47C162.97 277.4 163.054 277.299 163.108 277.18C163.768 275.94 163.768 273.591 162.178 272.761C160.896 272.101 159.251 273.221 160.431 274.451C160.785 274.733 161.098 275.07 161.361 275.451C161.549 275.872 161.71 276.306 161.844 276.75" fill="#2C3032"/>
<path d="M165.515 285.428C165.566 285.95 165.566 286.476 165.515 286.998C165.477 287.28 165.502 287.568 165.59 287.837C165.648 287.983 165.74 288.109 165.857 288.204C165.975 288.298 166.113 288.358 166.259 288.377C166.414 288.378 166.567 288.345 166.709 288.279C166.851 288.214 166.98 288.118 167.086 287.997C167.519 287.595 167.837 287.068 168.001 286.478C168.166 285.889 168.171 285.261 168.016 284.668C167.918 284.345 167.756 284.048 167.542 283.798C167.192 283.355 166.708 283.057 166.175 282.959C165.599 282.849 164.865 283.059 164.856 283.668C164.846 284.278 165.413 284.798 165.478 285.378" fill="#2C3032"/>
<path d="M208.437 266.213C209.673 262.754 211.225 259.215 214.097 257.105C215.173 256.312 216.383 255.755 217.659 255.465C218.934 255.175 220.251 255.158 221.533 255.416C222.044 255.526 222.685 256.006 222.406 256.476C222.283 256.636 222.113 256.745 221.923 256.785C219.344 257.692 217 259.24 215.082 261.304C213.307 263.174 210.491 267.093 207.554 276.75C207.416 277.339 207.107 277.864 206.671 278.25C204.319 280.029 205.964 274.401 206.15 273.671C206.793 271.142 207.553 268.65 208.428 266.203" fill="#2C3032"/>
<path d="M185.906 292.975C184.243 295.975 181.64 297.664 178.945 299.534C178.293 300.104 177.458 300.377 176.621 300.293C176.333 299.814 176.835 299.234 176.9 298.664C176.906 298.393 176.837 298.127 176.701 297.899C176.565 297.671 176.369 297.492 176.138 297.384C175.672 297.178 175.173 297.076 174.669 297.084C173.926 297.084 170.887 297.264 170.831 296.235C170.775 295.205 173.619 295.095 174.409 294.995C176.714 294.735 179.177 294.265 181.092 293.875C184.503 293.175 186.148 292.206 185.906 292.975Z" fill="#2C3032"/>
<path d="M270.256 434.928C269.769 435.066 269.331 435.358 269 435.766C268.669 436.174 268.459 436.679 268.397 437.217C268.374 437.393 268.383 437.572 268.425 437.743C268.466 437.915 268.539 438.076 268.639 438.217C268.806 438.373 269.005 438.484 269.221 438.54C269.436 438.596 269.66 438.595 269.875 438.537C270.246 438.501 270.604 438.377 270.926 438.175C271.247 437.973 271.523 437.697 271.734 437.367C271.929 437.034 272.01 436.638 271.963 436.247C271.915 435.856 271.742 435.496 271.474 435.228C271.128 434.987 270.723 434.865 270.312 434.878" fill="#EF8C45"/>
<path d="M287.31 431.279H286.315C286.002 431.258 285.688 431.295 285.386 431.389C285.233 431.439 285.094 431.531 284.983 431.655C284.873 431.779 284.794 431.932 284.754 432.099C284.739 432.274 284.767 432.451 284.836 432.61C284.904 432.77 285.011 432.908 285.144 433.009C285.423 433.21 285.741 433.34 286.074 433.389C286.809 433.623 287.6 433.537 288.277 433.149C288.467 433.024 288.616 432.839 288.704 432.619C288.755 432.465 288.763 432.298 288.728 432.139C288.694 431.979 288.618 431.834 288.509 431.719C288.176 431.451 287.772 431.304 287.356 431.299" fill="#EF8C45"/>
<path d="M281.279 438.178C280.498 438.438 279.615 438.797 279.336 439.627C279.253 439.845 279.253 440.089 279.336 440.307C279.454 440.484 279.616 440.62 279.804 440.7C279.992 440.78 280.198 440.8 280.396 440.757C281.234 440.682 282.022 440.297 282.626 439.667C282.741 439.557 282.836 439.425 282.905 439.277C282.972 439.079 282.972 438.861 282.906 438.662C282.84 438.464 282.711 438.296 282.543 438.188C282.344 438.092 282.129 438.042 281.911 438.042C281.693 438.042 281.477 438.092 281.279 438.188" fill="#EF8C45"/>
<path d="M294.28 441.757C293.747 441.667 293.201 441.718 292.69 441.907C292.254 442.117 291.919 442.367 291.9 442.907C291.912 443.171 291.992 443.426 292.131 443.643C292.271 443.861 292.465 444.032 292.69 444.136C293.148 444.337 293.637 444.443 294.131 444.446C294.772 444.496 295.535 444.446 295.906 443.926C296.044 443.683 296.101 443.396 296.069 443.114C296.037 442.831 295.918 442.568 295.73 442.367C295.337 441.973 294.816 441.761 294.28 441.777" fill="#EF8C45"/>
<path d="M274.8 442.986C274.207 442.928 273.612 443.071 273.099 443.396C272.625 443.786 272.477 444.676 272.978 445.026C273.178 445.143 273.402 445.205 273.629 445.206C274.301 445.249 274.974 445.249 275.646 445.206C276.269 445.206 277.04 444.986 277.189 444.326C277.22 444.064 277.164 443.798 277.032 443.575C276.899 443.352 276.698 443.186 276.464 443.106C275.927 442.937 275.365 442.883 274.809 442.946" fill="#EF8C45"/>
<path d="M278.146 430.27C277.679 430.144 277.189 430.164 276.733 430.33C276.345 430.447 276.012 430.718 275.804 431.09C275.618 431.46 275.59 431.91 275.952 432.09C276.289 432.248 276.646 432.349 277.012 432.39C277.59 432.518 278.19 432.466 278.741 432.24C278.873 432.177 278.992 432.085 279.091 431.971C279.189 431.856 279.265 431.721 279.313 431.574C279.36 431.427 279.38 431.271 279.369 431.115C279.359 430.96 279.319 430.808 279.252 430.67C278.916 430.433 278.528 430.292 278.127 430.26" fill="#EF8C45"/>
<path d="M262.662 440.137C262.286 439.967 261.88 439.889 261.473 439.907C261.268 439.915 261.07 439.995 260.912 440.137C260.754 440.278 260.644 440.471 260.599 440.687C260.591 440.859 260.616 441.031 260.672 441.192C260.728 441.354 260.814 441.502 260.924 441.626C261.259 442.069 261.686 442.42 262.171 442.653C262.655 442.885 263.183 442.993 263.713 442.966C263.9 442.968 264.086 442.92 264.252 442.826C264.392 442.764 264.516 442.666 264.614 442.541C264.711 442.415 264.778 442.266 264.809 442.106C264.84 441.947 264.834 441.781 264.792 441.624C264.75 441.467 264.673 441.324 264.568 441.206C264.073 440.748 263.493 440.408 262.867 440.207" fill="#EF8C45"/>
<path d="M299.979 435.818C299.481 435.696 298.959 435.763 298.501 436.008C298.391 436.073 298.294 436.162 298.217 436.268C298.139 436.375 298.083 436.497 298.05 436.628C298.018 436.759 298.011 436.896 298.029 437.03C298.048 437.164 298.091 437.292 298.157 437.407C298.408 437.666 298.739 437.816 299.087 437.827L299.709 437.937C300.152 438.056 300.615 438.056 301.057 437.937C301.28 437.88 301.476 437.736 301.606 437.533C301.737 437.33 301.793 437.082 301.763 436.838C301.633 436.198 300.722 435.928 300.007 435.838" fill="#EF8C45"/>
<path d="M285.684 447.536C285.151 447.502 284.618 447.609 284.132 447.846C283.892 447.973 283.703 448.188 283.598 448.452C283.492 448.715 283.477 449.011 283.555 449.285C283.834 449.965 284.717 449.975 285.414 449.885L285.851 449.825C286.241 449.802 286.621 449.69 286.967 449.495C287.151 449.384 287.302 449.219 287.402 449.019C287.503 448.819 287.548 448.592 287.534 448.366C287.468 448.194 287.366 448.042 287.235 447.922C287.104 447.802 286.948 447.718 286.781 447.676C286.442 447.558 286.086 447.507 285.73 447.526" fill="#EF8C45"/>
<path d="M213.698 270.332C212.889 268.532 217.332 270.832 218.735 275.91C218.824 276.544 218.98 277.164 219.2 277.76C219.33 278.051 219.552 278.283 219.826 278.413C220.101 278.543 220.409 278.563 220.697 278.47C220.935 278.325 221.139 278.123 221.291 277.88L225.279 272.551C225.809 271.841 226.617 271.062 227.37 271.451C227.79 271.756 228.081 272.227 228.179 272.761L229.108 275.81C229.143 276.009 229.25 276.185 229.406 276.3C229.694 276.45 230.01 276.14 230.205 275.86C232.528 272.611 235.782 269.492 239.574 269.662C241.07 270.202 237.092 273.661 235.01 277.23C234.322 278.41 232.278 279.439 231.199 280.229C225.338 284.348 218.646 286.898 211.681 287.667C210.973 287.705 210.265 287.624 209.58 287.427C209.088 286.607 208.939 286.008 210.305 284.728C211.672 283.448 212.917 280.569 213.438 279.239C214.469 276.6 215.166 274.391 213.707 270.342" fill="#EB6447"/>
<path d="M296.03 283.679C293.762 246.438 285.62 227.523 284.356 224.534C282.441 220.29 279.934 216.386 276.921 212.957C274.198 212.447 272.199 211.837 269.485 211.328C266.046 210.678 260.516 208.668 254.893 201.28C253.564 199.531 252.105 195.492 253.499 195.552C255.767 195.552 259.8 194.652 261.715 193.342C256.464 188.714 250.562 185.994 244.214 183.735C225.42 177.057 209.824 178.536 194.953 184.405C189.732 186.645 184.885 189.785 180.602 193.702C177.097 196.793 174.162 200.564 171.949 204.819C165.592 217.896 165.768 241.08 164.746 248.548C168.52 245.689 171.038 240.89 172.182 236.171C173.436 232.512 173.604 230.513 174.375 225.894C193.893 222.245 215.271 224.004 234.956 225.894C235.845 221.425 237.28 217.102 239.223 213.037C240.682 211.038 238.879 223.434 239.343 226.624C243.938 228.153 248.081 230.948 251.361 234.731C256.203 241.81 255.181 255.996 253.452 259.045C250.864 263.563 247.476 267.49 243.479 270.602C235.719 275.941 226.749 278.6 219.091 284.298C211.432 289.997 204.471 296.865 199.284 305.453C198.606 306.573 197.119 309.672 197.128 311.011C197.137 312.351 199.117 319.069 200.362 318.939C206.534 298.575 218.366 285.948 232.531 280.599C226.907 287.178 218.7 292.426 211.618 308.342C209.43 313.519 208.202 319.105 208.002 324.788C219.202 330.616 228.971 330.056 241.304 328.237C253.638 326.417 265.47 321.898 277.07 317.06C284.505 313.961 289.152 307.482 294.367 301.064C297.396 297.335 296.3 288.237 296.021 283.689" fill="#1E0E00"/>
<path d="M160.58 300.604C160.465 301.508 160.553 302.43 160.836 303.29C161.119 304.151 161.589 304.927 162.207 305.553C162.669 305.93 163.087 306.367 163.452 306.852C164.335 308.292 163.508 310.171 163.387 311.851C163.387 312.461 163.499 313.221 164.047 313.381C164.596 313.54 165.228 312.701 165.469 311.981C166.008 310.355 166.594 308.745 167.226 307.152C167.514 306.422 167.886 305.623 168.592 305.393C169.522 305.073 170.814 305.942 171.501 305.153C171.629 305 171.724 304.819 171.78 304.623C172.301 302.983 171.297 301.284 170.34 299.894C169.773 298.972 169.08 298.146 168.286 297.445C165.256 295.035 161.157 296.385 160.59 300.564" fill="#EF8C45"/>
<path d="M158.546 300.943C158.57 301.489 158.752 302.014 159.067 302.443C159.652 303.083 160.619 302.913 161.418 302.703C161.662 300.38 161.709 298.037 161.558 295.705C160.256 295.465 159.15 295.035 157.84 294.705C157.998 296.805 158.295 298.834 158.583 300.913" fill="#EDEEF2"/>
<path d="M163.619 303.693C163.604 303.758 163.604 303.827 163.619 303.892C163.66 303.944 163.712 303.985 163.77 304.011C163.828 304.037 163.891 304.048 163.954 304.042C164.229 304.107 164.515 304.107 164.79 304.043C165.066 303.98 165.326 303.853 165.553 303.673C165.751 303.415 165.888 303.11 165.952 302.783C166.571 300.534 167.061 298.247 167.421 295.935H163.257C163.192 297.344 163.508 301.543 163.573 303.683" fill="#EDEEF2"/>
<path d="M237.806 403.127C241.571 404.182 245.442 404.732 249.331 404.767C258.682 404.837 264.398 401.827 264.9 403.097C264.867 403.447 264.754 403.783 264.571 404.075C264.387 404.366 264.139 404.604 263.849 404.767C260.063 406.913 255.876 408.116 251.599 408.286C246.401 408.652 241.181 408.485 236.012 407.786C233.053 407.261 230.156 406.383 227.378 405.167C226.392 404.852 225.497 404.275 224.775 403.487C224.483 403.062 224.276 402.575 224.169 402.058C224.061 401.542 224.056 401.007 224.153 400.488C224.168 399.981 224.321 399.489 224.594 399.075C224.867 398.661 225.247 398.342 225.686 398.158C226.469 397.984 227.285 398.13 227.973 398.568C231.082 400.463 234.381 401.972 237.806 403.067" fill="#959CA5"/>
<path d="M48.3496 496.052C64.2338 491.563 94.5616 479.766 110.241 477.457C112.1 480.976 111.078 490.084 110.585 494.093C109.786 500.741 111.775 508.839 117.352 512.548C122.637 516.097 128.614 518.283 134.816 518.936C135.852 518.941 136.871 519.212 137.79 519.726C139.733 521.076 139.584 524.135 139.212 526.594H48.3496V496.052Z" fill="#EF8C45"/>
<path d="M133.226 391.19C134.505 390.36 135.867 389.689 137.287 389.191C138.16 388.964 139.05 388.821 139.946 388.761C142.907 388.487 145.872 388.327 148.84 388.281C150.616 388.281 148.524 389.37 148.004 389.6C144.9 391.01 141.247 390.3 138.105 391.6C137.069 392.09 136.063 392.651 135.094 393.279C133.305 394.347 131.405 395.183 129.434 395.769C128.709 395.979 123.717 397.478 123.411 396.639C122.686 394.639 132.12 391.84 133.198 391.23" fill="#2C3032"/>
<path d="M246.674 348.661C249.017 347.772 251.563 347.662 253.933 346.912C255.932 346.242 261.313 344.503 259.268 343.453C256.889 343.373 254.816 345.162 252.484 345.702C250.838 346.082 249.138 345.822 247.465 346.002C245.608 346.23 243.842 346.989 242.351 348.201C240.861 349.412 239.699 351.032 238.988 352.89C238.718 353.61 238.505 355.4 239.722 355.22C240.373 355.12 241.061 353.22 241.451 352.71C242.811 350.879 244.62 349.493 246.674 348.711" fill="#2C3032"/>
<path d="M268.851 347.881C269.056 348.331 268.591 348.791 268.182 349.021C265.394 350.571 262.122 351.22 259.975 353.64C259.18 354.612 258.505 355.691 257.967 356.849C257.586 357.589 256.61 358.928 256.229 358.249C255.467 355.479 258.841 352.33 260.691 350.891C261.877 349.967 263.183 349.236 264.567 348.721C265.013 348.551 268.628 347.371 268.861 347.881" fill="#2C3032"/>
<path d="M290.349 341.393C290.422 341.561 290.442 341.75 290.405 341.93C290.368 342.111 290.276 342.274 290.144 342.393C289.872 342.621 289.554 342.779 289.215 342.853L282.885 344.782C282.165 345.049 281.407 345.18 280.645 345.172C280.097 344.402 284.252 342.953 284.596 342.813C285.228 342.553 289.893 340.653 290.358 341.403" fill="#2C3032"/>
<path d="M133.513 412.224C133.227 412.409 132.972 412.646 132.76 412.924C132.659 413.064 132.59 413.227 132.558 413.4C132.525 413.574 132.531 413.753 132.574 413.924C132.59 413.986 132.623 414.041 132.667 414.084C132.712 414.116 132.763 414.136 132.816 414.144C133.533 414.235 134.256 414.043 134.852 413.604C135.768 413.064 136.644 412.449 137.473 411.764C138.164 411.291 138.741 410.646 139.155 409.885C139.038 409.501 138.895 409.127 138.727 408.765C137.994 409.217 137.283 409.711 136.599 410.245C135.539 410.875 134.498 411.504 133.504 412.244" fill="#2C3032"/>
<path d="M131.424 277.07C130.606 278.16 130.174 279.528 130.207 280.929C130.182 281.838 130.478 282.723 131.034 283.408C131.313 283.698 131.536 282.408 131.898 282.258C132.949 281.788 133.404 283.258 133.757 284.198C134.024 285.156 134.405 286.074 134.891 286.927C135.477 287.707 136.75 288.047 137.298 287.267C137.847 286.487 137.512 285.268 137.856 284.268C138.051 283.698 138.442 282.478 139.297 282.628C141.072 282.938 139.613 286.267 140.226 286.297C142.392 286.507 144.158 285.238 145.933 283.888C146.984 283.152 147.784 282.068 148.21 280.799C148.414 280.081 148.427 279.316 148.246 278.591C148.065 277.866 147.699 277.211 147.188 276.7C145.626 275.01 143.888 274.83 142.057 274.78C140.747 274.78 137.865 275.65 136.62 275.2C135.677 274.842 134.652 274.826 133.7 275.155C132.748 275.484 131.923 276.139 131.35 277.02" fill="#2C3032"/>
<path d="M214.07 232.752C209.153 232.472 204.144 232.192 199.385 233.552C194.626 234.911 190.091 238.2 188.297 243.139C188.027 241.27 187.906 234.581 183.649 232.142C182.576 231.595 181.375 231.405 180.201 231.598C179.027 231.79 177.933 232.356 177.06 233.222C175.545 234.841 175.201 237.301 174.885 239.58C174.69 241.14 174.82 241.409 174.615 242.959C173.546 239.38 173.017 237.301 169.541 235.181C167.186 233.808 164.619 232.903 161.966 232.512C154.033 231.142 146.01 230.474 137.977 230.512C138.636 237.301 141.183 244.809 147.094 247.298C148.652 247.886 150.273 248.259 151.918 248.408C159.738 249.413 167.626 249.677 175.489 249.197C175.775 249.208 176.059 249.132 176.307 248.977C176.467 248.834 176.598 248.656 176.689 248.454C176.78 248.252 176.831 248.032 176.837 247.808C177.171 244.889 176.837 241.909 177.413 239.02C178.11 235.251 181.372 233.542 183.631 236.601C185.889 239.66 185.806 244.059 185.666 248.967C185.666 250.357 186.763 250.217 188.055 250.267C196.355 250.577 203.744 251.317 211.849 249.377C215.72 248.447 219.33 246.538 222.379 243.809C225.382 241.339 227.705 237.55 227.584 233.482L214.117 232.702" fill="#EB6447"/>
<path d="M257.847 334.165C257.614 334.037 257.424 333.835 257.303 333.586C257.181 333.337 257.134 333.054 257.169 332.775C257.013 329.524 257.197 326.265 257.717 323.058C257.764 322.69 257.906 322.344 258.126 322.058C258.443 321.764 258.851 321.608 259.269 321.618C260.847 321.652 262.398 322.069 263.805 322.838L267.625 324.557C268.509 324.782 269.28 325.362 269.781 326.177C270.282 326.993 270.475 327.983 270.32 328.946C270.382 330.519 270.447 332.092 270.515 333.665C270.515 333.585 264.716 339.563 264.558 339.573C263.758 339.643 262.494 337.954 261.9 337.454C260.57 336.344 259.195 335.285 257.847 334.205" fill="#F18288"/>
<path d="M263.516 339.693C263.08 340.933 262.922 342.483 263.749 343.472C264.306 344.063 265.041 344.418 265.821 344.472C267.927 344.606 270.03 344.17 271.937 343.203C274.601 342.048 277.141 340.586 279.512 338.844C280.116 338.456 280.635 337.935 281.036 337.314C281.659 336.29 281.91 335.055 281.743 333.845C281.632 333.427 281.411 333.053 281.105 332.769C280.8 332.485 280.424 332.303 280.023 332.245C274.103 330.926 265.877 332.975 263.507 339.723" fill="#EE929A"/>
</svg>
