<svg width="336" height="480" viewBox="0 0 336 480" fill="none" xmlns="http://www.w3.org/2000/svg">
<path d="M318.618 0H17.2129C7.82405 0 0.212891 7.61115 0.212891 17V462.109C0.212891 471.498 7.82402 479.109 17.2129 479.109H318.618C328.007 479.109 335.618 471.498 335.618 462.109V17C335.618 7.61116 328.007 0 318.618 0Z" fill="#255730"/>
<path d="M303.898 32.0825H302.809V24.8579L300.623 25.6606V24.6763L303.729 23.5103H303.898V32.0825Z" fill="#255730"/>
<path d="M172.906 287.745C172.593 285.141 173.276 282.515 174.819 280.393C176.626 278.121 178.962 276.323 181.622 275.158C190.259 271.192 199.978 270.236 209.399 270.236C213.411 270.236 217.236 270.55 221.218 270.785C225.199 271.02 228.961 270.942 232.77 271.334C237.668 271.661 242.415 273.16 246.612 275.707C248.428 277.01 249.867 278.772 250.781 280.812C251.695 282.852 252.052 285.098 251.816 287.322C251.659 290.457 251.346 293.294 248.947 295.441C246.549 297.588 243.994 297.541 241.11 297.698C235.717 297.99 230.308 297.69 224.98 296.805C216.28 295.363 208.442 291.334 199.476 291.005C196.663 291.065 193.85 290.918 191.058 290.566C189.725 290.291 188.373 290.118 187.014 290.049C185.132 290.062 183.262 290.353 181.465 290.911C180.078 291.489 178.594 291.803 177.092 291.836C176.214 291.726 172.844 290.833 172.844 287.729" fill="#F86775"/>
<path d="M181.057 277.713C193.002 271.443 205.166 272.603 214.524 272.603C239.009 272.603 243.617 275.425 246.313 278.356C249.088 282.18 244.746 287.29 231.861 289.939C223.616 291.632 208.144 290.864 199.852 289.751C192.359 288.748 175.508 284.453 175.775 281.726" fill="#8B262D"/>
<path d="M264.027 69.4922C261.193 69.9682 258.336 70.2874 255.468 70.4484C250.922 70.4484 247.364 68.5204 243.225 66.6865C239.991 65.1648 236.629 63.9322 233.177 63.003C224.415 60.6047 212.8 62.7678 204.962 66.7335C186.246 76.2636 185.007 93.2235 183.518 112.331C182.844 120.92 185.274 128.868 186.653 137.269C194.303 181.879 192.657 204.858 192.657 232.21C192.657 251.537 189.067 272.964 191.089 292.15C192.124 302.228 199.084 336.038 216.17 332.339C223.694 330.772 232.801 310.724 234.4 303.153C240.122 276.036 258.164 205.516 263.838 144.62C264.851 135.353 264.961 126.009 264.168 116.72C263.454 108.463 262.039 100.283 259.935 92.2674C261.283 91.7589 262.376 90.7394 262.976 89.4303C263.305 88.7351 263.429 87.9609 263.335 87.1978C263.241 86.4347 262.931 85.714 262.443 85.1198C261.017 83.4112 259.12 82.4551 258.572 80.6368C260.149 80.9532 261.781 80.852 263.307 80.3434C264.833 79.8347 266.199 78.9363 267.271 77.7371C270.406 73.7871 268.839 68.9436 263.901 69.4609" fill="white"/>
<path d="M335.709 330.568V462.477C335.709 471.865 328.098 479.477 318.709 479.477H34.5703C35.1189 458.739 53.0672 381.902 58.8357 351.227C59.9016 345.537 64.4944 341.007 75.0596 336.54C107.342 323.233 140.819 313.03 175.037 306.069C179.097 305.254 234.399 304.642 247.237 305.896C255.075 306.664 317.604 321.806 335.662 330.568" fill="#E7A617"/>
<path d="M246.313 278.262C256.11 280.707 251.376 301.334 250.216 311.57C249.61 317.528 248.445 323.417 246.736 329.157C244.479 335.552 240.153 339.095 238.664 345.929C237.347 351.916 236.109 357.998 234.572 363.97C231.657 375.35 230.481 385.429 228.396 398.36C225.967 413.423 215.151 464.193 207.768 464.193C200.651 464.475 184.098 448.519 183.69 353.39C183.69 347.308 183.393 338.844 181.229 335.615C175.696 327.339 174.74 314.799 173.846 305.065C172.106 286.365 170.711 280.895 181.057 277.713C178.235 279.813 178.862 282.18 184.349 284.829C189.271 287.212 199.052 289.061 204.507 289.296C234.51 290.566 250.875 285.378 246.313 278.23" fill="#F84675"/>
<path d="M0 459.005C36.2956 459.005 140.244 457.81 154.911 459.097C176.197 460.967 208.462 468.601 217 479.5H17C7.61116 479.5 0 471.889 0 462.5V459.005Z" fill="black"/>
<path d="M224.776 87.6747C224.074 88.3679 223.534 89.2083 223.195 90.1352C222.856 91.0621 222.727 92.0526 222.817 93.0354C222.817 94.8223 223.428 97.6594 225.45 98.1767C228.068 98.8507 229.588 95.7158 229.871 93.584C230.067 92.6993 230.083 91.7842 229.919 90.893C229.754 90.0017 229.413 89.1526 228.914 88.3958C228.698 88.0678 228.417 87.7873 228.088 87.5713C227.759 87.3554 227.391 87.2085 227.003 87.1396C226.616 87.0707 226.219 87.0812 225.836 87.1705C225.454 87.2598 225.093 87.426 224.776 87.6591" fill="black"/>
<path d="M196.467 86.6558C195.809 86.7812 195.193 87.0725 194.68 87.5022C194.078 88.1082 193.632 88.8502 193.378 89.6653C192.918 91.3786 192.978 93.1902 193.551 94.8692C193.688 95.5172 194.053 96.0946 194.579 96.4971C195.105 96.8996 195.758 97.1005 196.42 97.0637C197.862 97.0637 198.489 95.8411 198.975 94.6028C199.707 92.7714 199.817 90.7502 199.288 88.8502C198.881 87.6276 197.877 86.3579 196.467 86.6558" fill="black"/>
<path d="M221.013 83.8031C220.621 83.9285 220.292 84.0225 219.759 84.2263C219.142 84.4668 218.544 84.7551 217.972 85.0884C217.674 85.2608 216.404 85.8564 216.404 86.2797C216.404 86.985 217.972 86.5461 218.364 86.4207C219.875 85.8384 221.456 85.4538 223.066 85.2765C224.118 85.2377 225.171 85.3272 226.201 85.543C226.75 85.6527 228.929 86.4207 228.741 85.4332C228.568 85.0855 228.28 84.8085 227.926 84.6495C226.766 84.0895 225.53 83.7039 224.258 83.5053C223.119 83.4142 221.974 83.5202 220.872 83.8188" fill="black"/>
<path d="M192.891 83.897L191.543 84.3359C191.08 84.4833 190.638 84.6887 190.227 84.9472C189.819 85.198 188.408 86.0915 189.317 86.5147C190.226 86.9379 191.747 86.2482 192.609 86.0288C193.719 85.6962 194.868 85.5066 196.026 85.4645C196.838 85.5054 197.645 85.6103 198.44 85.778C199.255 85.9034 199.678 85.3548 198.957 84.8375C197.809 84.0235 196.431 83.5954 195.023 83.6149C194.307 83.66 193.595 83.7543 192.891 83.897" fill="black"/>
<path d="M331.447 355.522C331.288 360.65 330.668 365.755 329.597 370.773C327.81 378.61 325.569 385.397 323.437 392.717C320.302 403.69 317.041 413.22 314.031 424.239C311.751 432.405 309.966 440.702 308.686 449.083C307.965 454.162 304.72 466.325 305.551 466.498C305.88 466.576 308.859 453.394 309.893 448.77C310.928 444.146 312.041 439.882 313.028 435.462C314.596 427.891 316.43 420.211 318.734 412.812C323.923 396.134 330.491 379.096 332.278 361.666C332.625 358.684 332.578 355.67 332.136 352.7C331.792 351.54 331.525 354.675 331.447 355.506" fill="#FF8000"/>
<path d="M119.218 335.443C117.478 335.082 123.121 355.036 124.767 364.566C126.507 374.614 129.376 390.21 130.457 390.053C131.57 389.379 127.589 368.83 125.41 359.127C123.842 351.854 120.347 336.854 119.14 335.427" fill="#FF8000"/>
<path d="M102.085 408.361C103.464 412.217 109.295 428.612 110.377 427.782C111.333 427.233 106.928 416.606 104.624 409.725C102.069 402.044 94.9054 376.212 93.5417 378.266C92.993 380.178 100.141 402.044 102.069 408.361" fill="#FF8000"/>
<path d="M69.9032 355.067C69.0881 353.5 108.214 341.587 118.497 338.515C131.382 334.643 153.703 326.351 155.287 327.982C156.102 329.22 70.4832 356.431 69.9346 355.067" fill="#FF8000"/>
<path d="M104.279 368.265C103.825 367.497 112.242 364.832 115.252 363.798C120.143 362.23 146.305 352.998 146.603 354.08C146.901 355.161 141.116 357.089 137.072 358.327C132.464 359.738 104.875 369.817 104.248 368.265" fill="#FF8000"/>
<path d="M109.154 407.169C104.78 408.941 95.1714 412.279 96.7076 412.781C98.4946 413.188 109.859 408.173 115.518 406.072C121.177 403.972 136.993 397.185 137.213 396.15C136.852 395.398 129.375 398.956 123.732 401.558C120.126 403.235 113.606 405.665 109.232 407.169" fill="#FF8000"/>
<path d="M290.173 322.95C287.806 322.684 282.696 320.035 282.335 320.614C282.022 321.774 289.703 324.282 292.509 325.505C296.928 327.389 301.475 328.961 306.115 330.207C314.815 332.637 322.637 336.179 331.869 338.546C335.004 339.33 325.223 335.411 321.602 333.844C317.981 332.276 313.984 330.913 310.253 329.377C306.914 327.997 293.888 324.22 290.189 322.997" fill="#FF8000"/>
<path d="M324.816 379.802C314.972 375.492 291.161 365.162 290.33 366.055C288.763 367.623 312.433 376.307 317.997 378.391C325.036 381.04 325.114 381.887 332.105 384.113C333.469 384.661 336.275 385.273 333.061 383.768C330.538 382.608 327.998 381.244 324.847 379.802" fill="#FF8000"/>
<path d="M286.443 455.792C295.493 459.838 305.072 462.577 314.893 463.927C323.311 465.228 333.359 468.849 330.757 468.441C325.49 465.871 303.936 462.846 299.72 461.811C294.936 460.826 290.335 459.102 286.082 456.701C284.514 455.839 285.298 455.306 286.458 455.776" fill="#FF8000"/>
<path d="M327.951 448.127C324.816 457.532 317.417 474.398 318.012 474.664C318.608 474.931 323.201 463.018 325.599 457.547C327.559 453.065 331.164 442.578 330.443 442.453C329.785 441.967 328.687 445.792 327.935 448.127" fill="#FF8000"/>
<path d="M305.942 347.465C303.183 356.196 300.581 363.547 297.18 372.09C295.612 376.04 291.505 385.288 292.571 385.742C293.276 386.181 296.819 376.134 297.932 373.203C299.609 368.783 301.443 364.472 302.995 359.989C304.986 354.252 307.369 347.763 308.199 341.791C307.431 340.913 306.883 345.161 305.926 347.481" fill="#FF8000"/>
<path d="M260.013 92.3302C259.614 90.836 259.09 89.3782 258.445 87.9727C259.529 89.1149 260.381 90.4563 260.953 91.9226C260.64 92.1264 260.358 92.1734 260.06 92.3302" fill="#F2F2F2"/>
<path d="M195.291 288.074C204.808 289.083 214.41 288.962 223.898 287.714C229.761 286.977 235.78 285.754 238.696 284.25C238.586 285.19 238.288 285.989 238.1 286.993C231.125 288.999 221.281 289.391 218.083 289.5C206.734 289.861 198.52 288.952 195.291 288.09" fill="#F2F2F2"/>
<path d="M155.176 338.311C150.583 356.07 146.539 373.955 143.733 388.47C142.26 396.119 141.915 401.135 143.89 404.756C145.646 407.985 152.59 417.374 154.22 418.486C164.487 421.041 180.147 427.39 189.756 431.026C188.863 426.778 188.596 424.317 187.844 420.054C187.326 417.091 186.981 413.784 186.543 409.96C185.869 404.317 184.975 395.037 184.803 389.379C184.27 376.385 184.003 365.381 183.705 351.007C183.564 344.173 183.345 341.509 182.295 337.778C181.511 334.972 180.163 334.643 178.611 330.615C176.541 324.64 175.179 318.443 174.551 312.15C174.363 310.583 173.94 304.94 173.564 301.852C172.069 303.16 170.665 304.569 169.363 306.069C162.732 313.106 158.076 327.339 155.255 338.436" fill="#FF8000"/>
<path d="M231.784 374.911C233.586 362.748 237.85 346.321 240.091 341.65C243.007 335.552 247.114 330.944 248.54 322.229C249.387 317.041 251.08 305.175 251.848 297.824C256.3 298.67 260.516 306.884 263.103 312.856C264.811 316.774 282.54 387.216 285.597 406.417C286.067 409.395 289.468 418.643 283.402 426.794C275.972 436.779 251.848 460.98 242.505 470.291C238.304 465.401 233.382 460.886 217.111 446.779C223.215 423.108 228.113 399.142 231.784 374.974" fill="#FF8000"/>
<path d="M203.394 100.528C207.391 99.2111 211.749 100.92 215.37 103.083C218.991 105.246 222.424 107.942 226.546 108.851C230.387 109.697 234.886 109.07 237.801 111.704C238.657 112.524 239.287 113.55 239.633 114.683C239.979 115.816 240.028 117.019 239.777 118.177C239.506 119.329 238.99 120.41 238.266 121.346C237.541 122.281 236.623 123.05 235.575 123.601C233.516 124.475 231.38 125.157 229.196 125.638C225.468 127.051 221.999 129.069 218.928 131.61C212.59 136.495 205.992 141.032 199.162 145.2C196.341 146.878 193.212 147.971 189.96 148.414C168.877 151.141 167.89 139.009 167.905 135.764C143.702 134.197 137.934 125.419 137.135 121.767C136.194 117.503 140.269 113.569 144.596 112.691C148.922 111.813 153.249 112.973 157.591 113.412C166.494 114.306 177.169 114.87 188.722 110.873C194.992 108.726 197.312 102.534 203.425 100.512" fill="#E7B417"/>
<path d="M175.148 130.921C175.631 130.752 176.147 130.703 176.653 130.78C177.158 130.856 177.637 131.055 178.048 131.359C178.91 131.908 179.616 132.676 180.431 133.272C183.723 135.67 188.566 135.419 192.548 134.604C196.921 133.711 201.107 130.152 201.107 130.983C201.107 132.08 198.552 134.745 192.485 136.422C189.46 137.269 185.698 135.999 183.08 137.755C181.669 138.711 180.65 140.184 179.255 141.187C177.86 142.191 175.728 142.598 174.553 141.36C173.377 140.122 173.628 138.099 172.327 137.159C171.323 136.438 168.267 136.579 169.192 135.889C172.907 135.889 172.327 132.143 175.086 130.889" fill="#FF8000"/>
<path d="M212.126 112.112C212.342 112.528 212.653 112.887 213.035 113.16C213.416 113.432 213.857 113.61 214.321 113.679C214.684 113.737 215.056 113.682 215.387 113.522C215.692 113.312 215.936 113.024 216.093 112.688C216.25 112.351 216.315 111.979 216.28 111.61C216.275 110.801 215.999 110.018 215.496 109.384C214.932 108.695 213.537 107.817 212.643 108.287C211.483 108.961 211.609 111.093 212.11 112.096" fill="#FF8000"/>
<path d="M199.428 104.917C199.817 104.6 200.087 104.161 200.195 103.672C200.303 103.183 200.243 102.672 200.024 102.221C198.825 102.974 197.738 103.892 196.795 104.948C197.155 105.275 197.625 105.456 198.112 105.456C198.598 105.456 199.068 105.275 199.428 104.948" fill="#FF8000"/>
<path d="M192.358 111.986C192.025 112.244 191.765 112.584 191.606 112.974C191.528 113.169 191.506 113.383 191.542 113.59C191.578 113.797 191.671 113.991 191.809 114.149C192.064 114.364 192.386 114.481 192.719 114.478C194.082 114.557 196.073 113.397 195.979 111.829C195.853 109.698 193.173 111.296 192.358 111.986" fill="#FF8000"/>
<path d="M208.473 105.842C208.783 105.736 209.055 105.541 209.255 105.282C209.456 105.023 209.576 104.711 209.601 104.384C209.635 103.725 209.459 103.072 209.1 102.519C208.3 101.171 206.608 100.951 206.357 102.66C206.184 103.914 206.67 106.328 208.473 105.795" fill="#FF8000"/>
<path d="M203.254 110.811C203.279 111.072 203.356 111.326 203.481 111.557C203.605 111.788 203.775 111.992 203.979 112.157C204.183 112.322 204.419 112.445 204.671 112.517C204.923 112.59 205.187 112.612 205.448 112.582C205.97 112.479 206.435 112.187 206.754 111.761C207.072 111.336 207.221 110.807 207.173 110.278C206.89 107.676 203.16 108.224 203.254 110.811Z" fill="#FF8000"/>
<path d="M200.056 119.949C200.214 120.627 200.623 121.221 201.2 121.61C201.455 121.791 201.752 121.904 202.062 121.94C203.065 122.018 203.849 120.874 203.802 119.745C203.809 119.236 203.642 118.739 203.328 118.337C203.015 117.936 202.574 117.653 202.078 117.535C201.772 117.512 201.464 117.563 201.182 117.683C200.899 117.803 200.649 117.989 200.453 118.225C200.257 118.462 200.12 118.741 200.053 119.041C199.987 119.341 199.993 119.652 200.071 119.949" fill="#FF8000"/>
<path d="M176.307 113.679C176.271 113.993 176.331 114.312 176.479 114.591C176.628 114.871 176.857 115.099 177.138 115.246C177.402 115.352 177.693 115.378 177.972 115.319C178.251 115.261 178.506 115.121 178.705 114.917C178.896 114.707 179.039 114.458 179.126 114.188C179.212 113.917 179.24 113.632 179.207 113.35C178.141 113.459 177.31 113.6 176.385 113.726" fill="#FF8000"/>
<path d="M248.554 479.46C241.712 468.828 233.158 459.4 223.239 451.56C215.84 445.603 209.131 438.863 201.716 432.907C194.302 426.951 187.17 421.151 179.301 415.869C168.844 408.875 156.564 405.103 143.984 405.022C136.46 405.022 128.701 405.649 121.224 406.151C113.107 406.693 105.036 407.787 97.0681 409.427C92.5066 410.367 87.412 411.934 85.437 416.151C83.4619 420.367 85.5467 425.274 88.9953 428.173C92.4438 431.073 96.974 432.249 101.363 433.158C109.627 434.864 118.014 435.912 126.444 436.293C122.305 439.945 117.509 443.033 114.405 447.594C111.301 452.155 110.439 458.958 114.405 462.861C116.587 464.753 119.283 465.953 122.149 466.31C127.84 467.404 133.683 467.452 139.391 466.451C139.904 467.952 140.728 469.328 141.808 470.489C142.888 471.65 144.201 472.571 145.662 473.191C151.665 476.012 157.324 475.761 163.845 475.871C170.366 475.981 176.385 475.871 188.471 476.357C191.794 476.498 199.443 477.924 201.246 479.492L248.554 479.46Z" fill="white"/>
<path d="M200.73 442.374C203.426 443.77 199.162 440.164 190.713 438.66C187.954 438.174 184.239 438.252 183.283 441.465C181.716 446.92 189.553 449.867 192.516 452.438C188.723 454.256 191.67 460.008 193.958 461.968C195.177 463.058 196.604 463.891 198.153 464.417C199.701 464.942 201.341 465.149 202.971 465.024C200.197 463.821 197.655 462.139 195.463 460.055C192.814 457.344 192.046 454.757 194.585 452.829C193.629 451.873 185.682 447.861 188.033 443.644C190.086 439.945 197.971 440.29 200.73 442.421" fill="#F2F2F2"/>
<path d="M151.117 428.017C149.753 428.256 148.429 428.683 147.182 429.286C145.375 430.008 143.763 431.147 142.48 432.609C141.766 433.437 141.332 434.471 141.242 435.561C141.152 436.651 141.41 437.741 141.978 438.675C144.329 442.343 149.455 442.516 153.28 443.048C149.142 444.616 140.74 449.836 141.821 450.071C142.778 449.945 147.59 447.61 150.364 446.45C153.273 445.223 156.271 444.217 159.331 443.44C160.898 443.096 155.365 441.7 153.296 441.168C150.725 440.494 147.872 440.023 146.352 437.484C143.373 432.452 151.65 428.832 155.286 427.719C156.102 427.39 152.481 427.719 151.148 428.032" fill="#F2F2F2"/>
<path d="M167.09 460.275C165.632 458.065 166.698 455.651 166.572 452.657C163.898 454.074 161.529 456.002 159.597 458.331C159.158 459.021 162.607 456.545 164.143 455.729C163.798 456.924 163.772 458.189 164.069 459.396C164.366 460.604 164.975 461.712 165.836 462.611C167.811 464.46 172.686 464.476 175.241 463.457C171.996 463.457 168.861 462.971 167.074 460.322" fill="#F2F2F2"/>
<path d="M137.574 410.979C135.081 410.273 130.316 412.844 129.893 415.446C129.376 418.581 133.404 420.289 135.897 419.882C136.21 419.537 131.194 417.734 131.758 414.835C132.432 411.59 138.028 411.088 137.574 410.979" fill="#F2F2F2"/>
<path d="M24.3672 400.68C30.026 399.912 35.622 403.063 40.1992 406.464C44.7764 409.865 48.7267 414.098 53.4606 417.279C62.4269 423.314 73.4779 425.117 84.1371 426.904C84.7014 426.998 84.9052 427.734 84.9209 428.299C85.0149 439.292 84.7067 450.264 83.9961 461.215C84.0561 462.875 83.6135 464.514 82.7263 465.918C81.5849 467.101 80.1076 467.905 78.494 468.222C70.9462 470.424 63.1746 471.77 55.3259 472.235C54.0005 472.404 52.6538 472.265 51.3914 471.827C50.145 471.186 49.0986 470.216 48.3662 469.021C42.8798 461.184 42.237 451.09 38.6787 442.249C38.0204 440.682 37.2836 439.114 36.6409 437.421C35.9982 435.728 35.4496 434.098 34.9166 432.405C31.5778 421.982 27.7217 411.104 24.3829 400.68" fill="#8AD2D4"/>
<path d="M21.3887 394.724C23.881 403.737 39.0548 447.547 40.8732 452.595C42.6915 457.642 44.118 462.422 46.1714 467.062C47.4568 469.978 49.855 473.018 53.2879 473.332C56.7208 473.645 60.577 472.282 63.9315 471.765C68.3049 471.059 72.6156 470.197 76.848 469.116C81.0803 468.034 85.5479 468.191 85.6106 463.52C85.689 456.78 85.6105 409.552 85.3284 401.48C85.1403 394.724 85.7045 391.683 84.9208 386.887C84.67 385.319 84.7171 383.752 83.6355 382.702C82.5539 381.651 80.0928 381.354 78.4782 381.275C73.3259 381.172 68.1757 381.571 63.1007 382.466C54.7016 383.751 46.3887 385.546 38.2083 387.843C34.8694 388.783 31.029 389.677 27.6902 390.649C25.4643 391.291 20.6049 392.561 21.6238 393.298C23.1914 393.031 34.1641 390.163 40.638 388.517C47.9897 386.573 56.3134 385.115 63.8219 383.909C67.6316 383.259 71.4807 382.866 75.3432 382.733C78.4782 382.639 82.35 382.451 82.8829 385.194C83.6197 388.987 83.3533 405.775 83.4003 409.74C83.4944 418.22 84.1057 456.012 83.4003 461.2C82.6949 466.388 77.3025 467.47 72.9291 467.705C66.659 468.003 62.0347 467.015 54.4636 469.993C50.9209 471.388 48.6952 467.94 47.1904 464.288C44.9331 458.833 43.4908 452.673 41.1552 447.187C37.284 438.065 33.909 428.741 31.0447 419.255C29.6653 414.772 27.6432 410.555 26.5302 406.01C25.5427 401.997 23.646 398.345 22.4704 394.52C22.1412 394.144 21.3103 393.58 21.4357 394.74" fill="white"/>
<path d="M30.7142 405.226C28.8331 404.693 32.8773 403.658 34.0216 403.376C37.5486 402.467 55.0893 399.207 60.2621 398.58C62.394 398.313 80.013 396.291 78.226 397.812C76.8309 399.003 63.5695 399.959 60.168 400.32C52.3303 401.166 34.1 404.677 30.7142 405.226Z" fill="white"/>
<path d="M44.8233 414.897C46.3908 420.367 47.1276 423.565 48.5383 428.283C50.6075 435.227 54.5107 450.227 55.5923 454.021C56.0155 455.588 57.4575 460.024 56.2505 460.635C55.263 460.933 52.3317 450.51 51.7988 448.535C50.435 443.566 41.9077 413.141 43.2871 412.64C43.6947 412.342 44.4471 413.424 44.8547 414.881" fill="white"/>
<path d="M66.3931 402.608C65.2958 403.549 66.6438 413.831 66.8947 416.794C68.4622 437.171 69.0893 441.45 69.9044 441.262C70.7196 441.074 68.6189 419.317 68.5719 415.556C68.5719 413.126 67.9607 401.934 66.4088 402.608" fill="white"/>
<path d="M192.768 376.165C192.376 371.212 192.297 368.516 192.219 363.845C192.219 359.597 192 355.365 191.577 351.133C191.2 347.324 190.385 340.364 189.225 337.48C184.541 324.679 182.127 311.158 182.093 297.526C182.084 295.374 182.246 293.225 182.579 291.099C183.033 288.654 185.479 286.303 185.15 286.068C183.41 285.143 181.168 288.56 181.168 293.215C181.168 305.896 181.45 318.984 185.871 330.834C186.341 332.073 186.999 333.656 187.626 334.988C189.507 339.189 190.056 347.152 190.228 349.895C190.464 353.672 190.918 357.246 191.169 361.039C191.639 368.453 191.906 376.087 192.376 383.501C193.222 396.871 193.943 412.06 193.395 426.292C193.536 426.449 193.74 426.543 193.928 426.716C193.928 413.706 194.994 401.511 193.426 385.852C193.128 382.843 192.956 379.159 192.705 376.134" fill="#F9838D"/>
<path d="M227.927 321.962C227.363 316.226 227.316 310.457 227.002 304.72C226.877 301.169 226.563 297.627 226.062 294.109C225.986 293.297 225.723 292.513 225.294 291.82C224.98 291.381 224.322 290.786 224.008 290.989C223.695 291.193 224.839 293.936 225.121 295.269C225.43 296.961 225.608 298.675 225.654 300.394C226.156 309.956 227.112 321.492 226.579 329.094C226.368 331.668 225.981 334.223 225.419 336.744V336.744C224.055 341.744 223.726 345.114 223.475 353.562C222.77 376.541 216.625 434.427 217.738 434.427C218.851 434.427 220.748 408.094 221.61 397.388C222.017 392.341 222.535 387.294 222.832 381.902C223.068 377.827 224.181 347.418 226.281 338.295C226.422 337.856 226.579 337.339 226.72 336.728C227.832 331.89 228.233 326.916 227.911 321.962" fill="#F9838D"/>
<path d="M235.922 292.745C235.154 291.178 232.285 288.842 231.674 289.359C231.063 289.877 234.276 290.927 235.279 294.391C235.941 296.841 236.299 299.362 236.345 301.899C236.753 313.969 237.568 329.094 232.865 339.095L232.724 339.408C231.157 343.029 231.455 348.813 231.721 353.515C232.097 360.24 230.577 364.19 231.361 364.19C232.144 364.19 232.74 359.346 232.74 356.807C232.74 353.265 231.643 342.998 233.79 338.813C235.5 335.821 236.568 332.506 236.925 329.079C238.247 318.854 238.331 308.507 237.176 298.263C237.1 296.342 236.691 294.448 235.969 292.667" fill="#F9838D"/>
<path d="M245.31 289.657C245.124 288.702 244.642 287.829 243.93 287.165C242.927 286.209 241.171 286.021 242.159 286.914C245.028 289.626 245.012 292.369 245.012 296.319C245.012 313.64 243.021 326.963 244.291 326.681C245.2 326.477 247.128 301.601 245.31 289.689" fill="#F9838D"/>
<path d="M176.575 282.635C175.712 282.196 175.195 286.052 175.117 286.648C174.572 290.73 174.546 294.864 175.038 298.953C175.038 299.266 175.336 299.674 175.587 299.485C175.587 295.269 175.211 291.053 176.151 286.946C176.292 286.366 177.155 282.964 176.575 282.667" fill="#F9838D"/>
<path d="M198.191 352.214C198.191 351.227 198.833 343.374 197.391 338.954C197.348 338.711 197.263 338.478 197.141 338.264V338.264C197.038 338.007 196.912 337.761 196.764 337.527C194.542 333.215 193.255 328.483 192.987 323.64C192.733 321.37 192.361 319.115 191.874 316.884C191.482 314.862 191.247 312.181 190.933 310.144C190.13 305.598 189.872 300.973 190.165 296.366C190.266 294.366 190.635 292.389 191.262 290.488C191.701 289.485 193.3 288.011 192.736 288.011C189.758 288.011 189.225 296.914 189.178 298.889C189.289 306.176 190.129 313.433 191.686 320.552C192.516 325.035 192.438 329.063 194.162 334.016C194.697 335.498 195.402 336.913 196.263 338.233V338.233C197.956 341.885 197.015 355.631 197.313 359.487C198.018 368.751 198.379 378.689 198.724 387.984C198.88 392.2 198.99 396.432 198.802 400.664C198.379 410.571 197.47 427.813 198.567 428.001C199.664 428.189 198.692 411.887 199.743 400.946C200.573 392.372 199.743 383.422 199.194 374.817C198.739 367.246 198.677 359.816 198.222 352.246" fill="#F9838D"/>
<path d="M203.864 359.769C203.974 356.964 203.723 354.048 203.598 351.242C203.472 348.437 202.5 341.117 202.155 338.17C202.155 337.903 202.155 337.606 202.061 337.276C199.997 322.718 199.278 308 199.914 293.309C199.914 292.714 199.914 288.936 199.302 290.676C198.877 292.701 198.683 294.767 198.722 296.836C198.631 308.875 199.196 320.91 200.416 332.888C200.541 333.875 200.776 335.38 201.058 336.728C201.058 336.869 201.058 337.026 201.168 337.245C202.218 341.603 202.735 360.584 202.892 364.315C203.059 371.703 203.221 379.086 203.378 386.463C203.488 391.62 203.284 396.432 203.253 401.589C203.253 411.778 201.873 426.668 202.751 426.668C203.629 426.668 205.541 389.724 203.895 368.531C203.721 365.587 203.721 362.635 203.895 359.691" fill="#F9838D"/>
<path d="M208.003 337.277C208.332 332.386 208.379 323.169 208.269 317.965C208.097 309.58 208.191 300.034 207.423 293.372C207.157 290.974 205.856 289.971 206.091 291.507C207.878 302.479 206.78 331.759 207.188 338.938C207.188 346.415 207.517 359.817 207.642 367.795C207.799 377.294 208.269 387.325 208.348 396.824C208.348 400.759 208.348 404.662 208.128 408.627C207.799 413.11 207.439 433.174 207.297 437.672L207.878 438.189C210.103 408.831 208.41 358.766 207.987 337.292L208.003 337.277Z" fill="#F9838D"/>
<path d="M216.703 338.044C218.96 322.903 219.572 300.175 215.402 289.563C215.292 289.563 214.509 289.563 214.242 289.563C217.048 296.554 216.938 306.225 216.985 313.717C216.985 318.044 216.782 322.448 216.562 326.774C216.385 330.564 215.971 334.338 215.324 338.076C214.477 343.28 215.731 366.823 214.713 378.5C214.211 384.253 214.368 389.849 213.991 396.965C213.286 410.241 211.342 427.891 211.232 441.183C211.326 441.294 211.438 441.39 211.562 441.465C212.769 421.088 215.23 400.272 215.888 378.642C215.998 374.942 216.264 370.365 216.562 366.666C217.095 360.067 216.217 345.161 216.703 338.06" fill="#F9838D"/>
<path d="M258.524 422.013C259.433 422.372 260.4 422.558 261.377 422.562C263.843 422.776 266.3 422.054 268.258 420.54C269.218 419.769 269.894 418.7 270.178 417.502C270.462 416.304 270.338 415.045 269.826 413.925C269.302 413.138 268.607 412.48 267.793 411.999C266.978 411.519 266.066 411.229 265.123 411.151C262.412 410.759 258.211 411.48 256.392 413.8C255.932 414.463 255.621 415.218 255.482 416.012C255.343 416.807 255.378 417.623 255.585 418.403C255.792 419.183 256.167 419.908 256.682 420.529C257.198 421.15 257.843 421.651 258.571 421.998" fill="#FF8000"/>
<path d="M275.093 416.637C274.998 415.571 271.472 414.772 268.822 415.179C270.618 414.407 272.223 413.251 273.525 411.794C273.819 411.548 274.04 411.227 274.167 410.866C274.294 410.505 274.322 410.116 274.246 409.74C273.792 408.565 272.036 408.925 270.954 409.568C269.977 410.156 269.035 410.799 268.133 411.496C269.963 409.783 271.082 407.444 271.268 404.944C270.578 404.239 269.387 404.866 268.697 405.555C267.784 406.466 266.989 407.488 266.33 408.596C267.084 406.844 267.375 404.928 267.177 403.032C267.175 402.636 267.024 402.255 266.753 401.966C266.001 401.339 264.982 402.373 264.606 403.267C264.06 404.569 263.65 405.924 263.383 407.311C263.1 406.439 262.727 405.598 262.27 404.803C261.818 403.982 261.124 403.321 260.282 402.909C259.441 402.497 258.493 402.353 257.568 402.499C255.89 403.424 256.674 406.652 257.756 408.533C255.243 407.562 252.603 406.96 249.918 406.747C248.648 406.747 247.222 407.389 247.316 408.643C247.457 410.305 250.169 412.186 252.818 413.11C250.847 413.527 248.943 414.212 247.159 415.148C246.031 415.806 244.98 417.39 245.921 418.283C246.236 418.537 246.616 418.7 247.018 418.753C248.705 419.112 250.445 419.144 252.144 418.847C250.947 419.495 249.857 420.326 248.915 421.308C248.382 421.873 247.865 422.735 248.319 423.377C248.519 423.583 248.767 423.736 249.041 423.821C249.315 423.906 249.606 423.92 249.887 423.863C252.356 423.677 254.676 422.609 256.423 420.854C255.529 422.507 255.045 424.351 255.013 426.23C254.988 426.543 255.048 426.857 255.185 427.139C255.702 428.033 257.097 427.562 257.881 426.888C259.767 425.252 261.08 423.055 261.627 420.619C261.525 421.66 261.493 422.708 261.534 423.753C261.534 425.211 262.615 426.888 264.026 426.575C265.437 426.261 265.734 423.174 265.154 420.854C266.267 422.719 268.415 424.694 268.948 423.989C269.841 422.688 269.136 421.59 268.101 420.697C270.092 421.778 272.302 422.264 272.804 420.854C273.259 419.694 272.522 418.863 271.236 418.252C273.353 418.361 275.093 417.828 274.967 416.684L275.093 416.637ZM264.418 414.835C264.239 415.416 263.91 415.939 263.464 416.352C263.018 416.765 262.471 417.052 261.878 417.186C261.279 417.288 260.663 417.154 260.161 416.812C259.658 416.47 259.307 415.947 259.182 415.352C259.139 414.923 259.209 414.491 259.386 414.098C259.637 413.533 260.036 413.047 260.541 412.691C261.046 412.334 261.638 412.122 262.255 412.076C262.636 412.012 263.029 412.066 263.379 412.231C263.73 412.396 264.021 412.665 264.214 413.001C264.376 413.274 264.478 413.58 264.513 413.896C264.548 414.212 264.516 414.532 264.418 414.835" fill="white"/>
<path d="M196.026 90.1672C196.117 90.3669 196.264 90.5357 196.45 90.6531C196.676 90.7598 196.933 90.7821 197.174 90.716C197.416 90.6499 197.626 90.4998 197.766 90.2926C197.898 90.0793 197.983 89.8404 198.015 89.5918C198.048 89.3432 198.027 89.0906 197.954 88.8506C197.914 88.6585 197.834 88.477 197.719 88.3176C197.632 88.2025 197.522 88.1078 197.394 88.0401C197.267 87.9724 197.126 87.9334 196.982 87.9258C196.449 87.9258 196.246 88.2393 196.042 88.6468C195.917 88.8891 195.852 89.1578 195.852 89.4305C195.852 89.7032 195.917 89.972 196.042 90.2143" fill="#2B2729"/>
<path d="M225.983 90.4804C226.081 90.7059 226.245 90.8969 226.453 91.029C226.705 91.1469 226.99 91.1706 227.258 91.0958C227.525 91.021 227.757 90.8527 227.911 90.6215C228.054 90.3894 228.147 90.1304 228.185 89.8607C228.222 89.5909 228.204 89.3163 228.13 89.054C228.082 88.8398 227.991 88.6374 227.864 88.4584C227.768 88.3351 227.648 88.2335 227.51 88.1606C227.372 88.0876 227.22 88.0448 227.064 88.0352C226.469 88.0352 226.249 88.38 226.014 88.8346C225.888 89.0933 225.822 89.3774 225.822 89.6653C225.822 89.9532 225.888 90.2373 226.014 90.4961" fill="#2B2729"/>
</svg>
