<svg width="336" height="480" viewBox="0 0 336 480" fill="none" xmlns="http://www.w3.org/2000/svg">
<path d="M318.985 0H17.5801C8.19124 0 0.580078 7.61115 0.580078 17V462.109C0.580078 471.498 8.19126 479.109 17.5801 479.109H318.985C328.374 479.109 335.985 471.498 335.985 462.109V17C335.985 7.61116 328.374 0 318.985 0Z" fill="#80CFE3"/>
<path d="M280.361 216.524C278.662 216.699 276.95 216.699 275.251 216.524C272.535 216.273 269.883 215.552 267.413 214.392C266.018 213.718 266.144 212.825 268.025 212.825C271.806 213.139 275.606 212.52 279.092 211.022C278.386 208.185 277.524 205.348 276.709 202.558C271.525 203.369 266.216 202.661 261.425 200.52C261.167 200.419 260.94 200.252 260.767 200.034C260.689 199.92 260.657 199.781 260.678 199.644C260.698 199.508 260.769 199.384 260.877 199.297C260.999 199.239 261.134 199.212 261.269 199.219C265.084 199.173 268.862 198.456 272.429 197.103C273.119 196.729 273.831 196.4 274.561 196.116C273.266 192.5 271.844 188.937 270.298 185.426L270.078 185.52C266.395 187.087 258.416 188.075 257.82 186.585C257.522 185.488 259.388 185.222 259.717 185.143C262.424 184.635 264.9 183.279 266.786 181.272C267.194 180.802 267.46 180.284 267.774 179.939C263.999 172.158 259.596 164.699 254.607 157.634C253.384 155.91 251.832 154.061 249.732 154.029C247.631 153.998 246.926 155.33 246.597 157.572C245.593 163.074 253.917 192.463 253.29 206.461C253.055 211.43 252.334 216.743 249.042 220.474C245.75 224.204 241.048 225.458 236.502 226.571C230.42 228.06 214.274 229.565 208.756 233.954C203.693 237.967 207.299 246.494 210.481 251.604C214.07 257.34 224.385 259.002 231.125 259.519C237.865 260.036 244.59 258.265 250.954 255.977C257.136 253.757 263.128 251.042 268.871 247.857C271.787 246.385 274.436 244.435 276.709 242.089C282.681 235.412 282.258 225.396 280.455 216.508" fill="#FF8000"/>
<path d="M103.887 356.435C110.064 336.81 115.801 311.794 130.394 297.295C148.264 279.551 170.366 264.911 196.043 261.086C200.571 260.483 205.129 260.127 209.696 260.02C227.848 259.331 244.95 259.519 260.499 268.877C266.77 272.686 272.648 280.021 271.566 287.326C270.767 292.671 268.807 297.059 263.964 299.458C252.772 305.006 248.288 301.182 242.739 298.862C240.921 298.094 239.134 303.188 238.476 305.054C236.083 311.777 234.351 318.717 233.303 325.775C232.675 328.654 232.772 331.643 233.585 334.475C234.886 338.001 237.488 340.494 238.711 344.099C239.914 347.808 240.388 351.715 240.106 355.604C239.861 360.69 238.364 365.637 235.747 370.005C233.13 374.373 229.474 378.027 225.105 380.642C220.735 383.257 215.787 384.752 210.701 384.995C205.614 385.237 200.547 384.219 195.949 382.031V395.762C183.044 395.261 170.226 393.423 157.701 390.276C154.422 389.338 151.08 388.641 147.7 388.191C140.05 387.423 131.899 389.618 124.861 386.53C121.82 384.997 119.038 382.998 116.616 380.605C112.148 376.624 107.07 374.962 103.903 369.852C100.988 365.15 102.336 361.31 103.903 356.419" fill="#FF8000"/>
<path d="M124.032 350.62C125.803 349.413 128.39 348.864 130.004 350.306C130.361 350.732 130.784 351.097 131.258 351.388C132.653 351.983 133.923 350.228 135.428 350.008C136.014 350.009 136.595 350.128 137.134 350.36C137.673 350.592 138.159 350.931 138.563 351.356L144.833 356.372C145.052 356.56 145.303 356.795 145.272 357.078C145.24 357.36 144.99 357.485 144.786 357.61C140.957 359.828 136.797 361.415 132.465 362.313C130.929 362.704 129.329 362.779 127.763 362.532C126.397 362.172 125.096 361.601 123.906 360.839L120.332 358.802C115.63 356.09 121.524 352.532 124.173 350.651" fill="#FE330A"/>
<path d="M297.65 386.702C299.045 386.546 301.804 388.27 301.695 386.89C301.702 386.205 301.554 385.528 301.26 384.908C300.967 384.289 300.537 383.745 300.002 383.317C295.192 380.146 290.096 377.433 284.781 375.213C279.197 373.212 273.455 371.681 267.616 370.636C263.556 369.676 259.449 368.928 255.311 368.394C253.181 368.185 251.032 368.486 249.041 369.272C247.944 369.962 249.841 371.623 250.954 372.313C254.704 374.714 258.593 376.891 262.6 378.834C273.401 383.834 288.057 387.831 297.682 386.671" fill="#F86775"/>
<path d="M256.644 364.476L260.83 367.015L259.905 308.251C259.888 307.156 260.158 306.075 260.689 305.116C262.915 301.292 267.445 302.906 270.705 304.693C276.421 307.828 282.012 311.161 287.478 314.693C293.967 318.894 300.833 324.255 301.868 331.935C302.106 334.894 301.878 337.872 301.194 340.76C298.356 356.325 294.438 373.912 288.418 388.615C287.682 390.402 285.518 389.445 283.716 390.182C281.668 390.656 279.519 390.39 277.649 389.43C272.038 387.314 256.629 386.702 256.707 381.154C256.786 375.605 254.278 363.676 256.707 364.617" fill="#FF8000"/>
<path d="M254.982 273.265C250.734 260.726 237.394 258.923 234.447 255.788C227.048 247.951 226.155 244.534 218.317 237.089C204.868 224.314 188.017 231.963 185.258 231.696C182.393 231.34 179.55 230.817 176.746 230.129C163.704 227.245 157.199 231.994 149.22 238.17C142.01 243.75 131.805 254.158 126.397 267.309C124.83 270.93 118.559 277.121 116.365 297.295C114.672 312.765 102.163 322.374 104.107 324.239C106.599 326.731 115.644 324.96 120.738 319.631C121.945 318.377 120.378 326.214 120.299 328.926C119.767 333.095 125.096 330.76 127.416 329.459C140.74 321.951 145.584 309.803 145.584 312.013C145.584 312.013 149.267 334.506 151.932 334.506C153.641 334.506 148.421 321.81 149.456 310.602C149.879 306.903 152.591 316.872 155.099 319.004C158.547 319.646 150.114 309.599 154.487 294.128C155.484 293.098 156.576 292.164 157.748 291.338C165.53 290.105 172.857 286.864 179.003 281.933C187.829 274.441 188.189 265.663 190.588 267.544C195.619 274.002 203.959 276.949 212.016 278.313C220.073 279.676 228.726 277.936 236.422 280.711C243.257 283.172 245.827 291.542 244.793 290.696C241.752 288.172 237.723 283.125 238.24 287.388C238.882 296.716 237.944 306.085 235.466 315.101C249.119 308.016 259.935 287.874 254.982 273.297" fill="#E7A617"/>
<path d="M131.822 264.927C123.874 265.617 115.754 268.579 110.738 274.771C105.722 280.962 104.797 290.79 110.111 296.715C113.09 300.054 123.294 303.831 127.668 304.693C145.6 308.22 159.489 295.524 166.386 278.595C167.512 276.189 167.998 273.533 167.796 270.883C166.777 263.203 160.194 265.303 154.849 265.789C147.23 266.479 139.534 264.222 131.806 264.896" fill="#FF8000"/>
<path d="M38.9925 428.93C40.3083 421.287 42.0139 413.717 44.1027 406.249C45.5448 401.076 47.2378 395.809 50.608 391.671C55.8592 385.198 64.3238 382.831 72.0831 380.103C79.8424 377.376 83.4477 375.746 90.2508 373.52C89.9948 369.584 90.2583 365.631 91.0346 361.764C91.2227 358.77 119.799 354.491 128.389 353.472C136.979 352.454 146.024 353.347 153.642 357.548C155.617 358.645 157.498 359.962 159.551 360.902C162.498 362.25 165.821 362.83 168.69 364.225C174.553 367 178.487 372.721 182.139 378.175C189.209 388.74 200.762 395.292 211.797 401.28C232.175 412.33 236.611 411.029 246.001 409.901C247.129 397.001 245.436 368.144 249.34 369.288C248.744 370.636 270.611 378.003 291.914 385.495C294.782 386.514 299.203 386.781 299.595 383.693C300.347 382.408 302.651 385.997 303.075 387.423C305.473 395.527 298.466 456.392 293.669 478.885H37.864C34.8073 462.05 36.0926 445.764 38.9925 428.898" fill="#7E2711"/>
<path d="M185.76 478.9C185.647 474.489 184.755 470.133 183.127 466.031C179.114 455.827 161.464 452.786 150.35 450.137C135.991 446.705 63.1637 433.428 41.1085 430.842C22.5333 428.648 18.4265 439.244 17 443.1C17 451.595 17 472.881 17 478.916H20.6837C21.1069 474.668 21.6398 462.348 22.4079 455.232C23.6776 443.46 28.8818 440.513 42.488 441.516C34.9482 452.238 34.6504 465.028 35.3088 478.916H48.8992C48.8992 466.658 48.3036 452.536 56.5331 443.272C60.013 443.805 63.8221 444.432 67.9917 445.106C62.1448 455.059 62.2545 467.379 63.054 478.916H77.7731C77.3616 472.916 77.4455 466.892 78.024 460.906C78.6051 456.051 80.484 451.443 83.4633 447.567C88.3435 448.351 93.0461 449.129 97.571 449.902C95.0373 453.064 93.195 456.722 92.163 460.639C90.537 466.583 89.8547 472.745 90.141 478.9H103.246C103.246 462.63 104.813 459.715 110.817 452.253C114.84 452.995 118.68 453.727 122.338 454.448C116.068 463.022 116.068 475.656 116.068 478.916H129.329C129.046 474.593 129.432 470.252 130.474 466.047C131.592 462.799 133.309 459.79 135.537 457.175C139.471 458.037 143.076 458.868 146.353 459.683C145.07 461.717 144.142 463.953 143.609 466.298C142.546 470.416 142.066 474.664 142.183 478.916H155.476C155.476 472.944 154.88 467.426 158.266 462.959C163.36 464.527 166.621 465.969 167.859 467.144C171.229 470.279 171.794 474.292 171.637 478.932L185.76 478.9Z" fill="#E47322"/>
<path d="M171.449 326.653C174.193 329.004 177.437 331.026 179.099 334.224C181.199 338.252 180.322 343.158 179.099 347.547C177.876 351.936 176.387 356.513 177.422 360.933C178.362 364.962 181.246 368.191 184.037 371.247C185.526 372.815 189.492 376.42 190.197 375.714C190.902 375.009 188.332 373.175 187.532 372.438C177.328 363.034 178.566 357.72 180.666 349.945C181.905 345.415 183.488 341.654 182.548 337.061C181.419 331.543 177.437 329.224 173.503 325.227C171.355 323.032 168.518 320.665 167.499 317.389C166.339 313.659 163.486 313.486 164.286 317.06C165.085 320.634 168.879 324.506 171.418 326.684" fill="#2B2729"/>
<path d="M184.6 359.57C184.441 360.729 184.53 361.908 184.863 363.03C185.195 364.152 185.763 365.19 186.528 366.075C186.889 366.482 187.485 366.89 187.939 366.592C188.045 365.464 187.816 364.33 187.281 363.332C186.757 361.996 186.729 360.517 187.202 359.162C187.976 357.669 189.042 356.347 190.337 355.275C192.83 352.986 190.541 353.143 188.974 354.052C186.853 355.241 185.288 357.218 184.616 359.554" fill="#2B2729"/>
<path d="M197.908 369.084C198.855 369.56 199.887 369.843 200.945 369.918C202.002 369.994 203.064 369.859 204.069 369.523C206.828 368.504 209.132 365.495 212 366.153C213.408 366.736 214.699 367.57 215.809 368.614C216.799 369.274 217.93 369.695 219.111 369.842C220.292 369.989 221.491 369.858 222.613 369.46C223.698 369.124 224.658 368.472 225.37 367.586C226.082 366.701 226.514 365.623 226.61 364.491C226.923 363.441 225.56 362.83 224.384 364.962C223.617 366.046 222.516 366.85 221.249 367.25C217.252 368.426 214.07 363.614 209.947 364.241C207.204 364.664 204.978 366.529 202.25 367.062C196.78 368.128 194.883 360.886 193.598 360.886C190.933 360.886 193.723 367.031 197.94 369.068" fill="#2B2729"/>
<path d="M202.581 376.498C203.2 376.871 203.897 377.096 204.618 377.156C205.338 377.216 206.063 377.109 206.735 376.843C208.538 376.216 209.65 373.99 211.547 374.006C213.115 374.006 215.09 376.185 216.579 375.668C216.671 375.594 216.748 375.504 216.804 375.401C216.86 375.297 216.895 375.184 216.907 375.067C216.919 374.95 216.907 374.832 216.872 374.72C216.837 374.607 216.78 374.503 216.704 374.414C216.326 373.964 215.888 373.569 215.403 373.238C213.836 372.235 212.692 371.326 211.061 371.576C208.553 371.953 206.766 374.884 204.305 374.319C203.187 374.045 202.171 373.458 201.374 372.627C200.512 371.796 199.023 370.573 198.239 371.263C196.953 372.47 200.716 375.385 202.534 376.483" fill="#2B2729"/>
<path d="M198.536 350.165C199.696 356.184 203.035 359.209 206.609 360.542C208.959 361.38 211.455 361.732 213.945 361.576C217.083 361.387 220.133 360.464 222.849 358.88C223.685 358.416 224.455 357.841 225.137 357.171C226.914 355.281 228.027 352.864 228.31 350.286C228.593 347.707 228.029 345.107 226.705 342.876C226.256 342.2 225.661 341.632 224.965 341.215C224.615 341.011 224.225 340.885 223.823 340.844C223.42 340.804 223.013 340.85 222.629 340.98C222.495 341.027 222.373 341.102 222.269 341.199C222.162 341.358 222.09 341.539 222.058 341.728C222.025 341.917 222.033 342.11 222.081 342.296C222.3 344.883 221.908 348.817 219.902 350.478C213.788 355.51 207.769 352.547 205.935 350.118C205.19 349.115 204.696 347.949 204.493 346.717C204.336 345.76 204.274 344.647 203.49 344.083C203.074 343.83 202.597 343.694 202.11 343.691C197.502 343.315 197.784 346.622 198.458 350.181" fill="#E7A617"/>
<path d="M200.291 343.331C199.207 343.216 198.112 343.274 197.046 343.503C195.74 343.841 194.616 344.673 193.911 345.823C193.676 346.215 193.237 347.626 194.287 348.111C194.586 348.202 194.902 348.221 195.21 348.166C195.518 348.112 195.808 347.986 196.058 347.798C196.57 347.444 197.062 347.062 197.532 346.654C198.878 345.628 200.544 345.111 202.234 345.196C202.793 345.237 203.353 345.237 203.912 345.196C204.194 345.185 204.471 345.11 204.721 344.977C204.97 344.844 205.187 344.656 205.354 344.428C205.505 344.148 205.575 343.831 205.559 343.514C205.542 343.196 205.439 342.889 205.26 342.625C204.895 342.105 204.425 341.667 203.88 341.34C201.725 339.889 199.348 338.798 196.842 338.111C195.656 337.746 194.414 337.592 193.174 337.657C191.918 337.745 190.742 338.305 189.882 339.224C188.424 340.791 188.597 343.378 189.177 345.494C189.215 345.759 189.312 346.012 189.462 346.235C189.611 346.457 189.808 346.643 190.039 346.779C190.209 346.82 190.386 346.826 190.558 346.797C190.731 346.768 190.896 346.703 191.043 346.608C191.189 346.512 191.315 346.388 191.412 346.242C191.509 346.097 191.575 345.933 191.607 345.76C191.708 345.059 191.616 344.344 191.34 343.691C191.066 343.037 191 342.315 191.152 341.622C191.528 340.478 192.908 340.055 194.115 339.945C197.153 339.715 200.175 340.57 202.642 342.359C202.751 342.423 202.834 342.523 202.877 342.641C202.956 342.939 202.579 343.127 202.281 343.19C201.62 343.313 200.947 343.361 200.275 343.331" fill="#2B2729"/>
<path d="M223.177 336.23C225.008 334.957 227.224 334.358 229.447 334.537C230.184 334.537 231.015 334.882 231.156 335.603C231.159 335.839 231.093 336.071 230.964 336.269C230.836 336.468 230.651 336.623 230.435 336.716C230.001 336.899 229.54 337.01 229.071 337.045C226.317 337.459 223.797 338.829 221.954 340.917C221.625 341.293 220.763 342.484 220.183 341.952C219.603 341.419 220.183 340.384 220.371 339.883C220.94 338.423 221.92 337.159 223.193 336.246" fill="#2B2729"/>
<path d="M139.659 278.626C136.188 278.841 132.788 279.713 129.643 281.197C128.254 281.775 127.135 282.855 126.508 284.222C126.329 284.758 126.299 285.333 126.421 285.885C126.542 286.436 126.811 286.945 127.197 287.357C128.036 288.237 129.135 288.824 130.333 289.034C129.69 290.671 129.376 292.418 129.408 294.176C129.427 295.147 129.678 296.1 130.138 296.956C130.599 297.812 131.257 298.546 132.057 299.097C134.612 300.743 138.217 300.101 141.054 298.878C145.845 296.787 150.124 293.68 153.595 289.771C158.83 283.94 160.022 281.934 158.564 280.711C155.57 278.266 143.923 278.266 139.753 278.705" fill="#E7A617"/>
<path d="M165.603 304.709C165.983 305.589 166.556 306.371 167.281 306.998C168.006 307.625 168.863 308.08 169.788 308.33C171.638 308.814 173.552 309.015 175.462 308.925C178.597 308.925 182.312 308.487 185.494 308.502C185.494 310.806 187.438 312.875 190.652 312.875C192.783 312.875 194.523 309.866 194.555 308.267C197.768 308.016 200.935 307.781 204.226 307.734C205.371 307.734 207.988 307.546 207.988 306.402C207.988 303.863 201.044 305.116 199.822 305.195C191.498 305.728 183.253 305.838 174.945 306.355C173.701 306.501 172.442 306.448 171.214 306.198C170.601 306.067 170.026 305.793 169.539 305.398C169.051 305.003 168.664 304.498 168.408 303.925C168.245 303.354 168.12 302.773 168.032 302.185C167.797 301.151 166.857 300.022 165.775 300.79C164.693 301.558 165.289 303.847 165.603 304.709" fill="#2B2729"/>
<path d="M211.656 306.887C213.051 308.283 215.951 308.361 218.271 308.455C218.369 309.593 218.878 310.657 219.703 311.447C220.528 312.238 221.613 312.701 222.754 312.75C224.855 312.656 226.156 311.182 226.83 308.706C228.664 308.706 230.451 308.706 232.285 308.706C233.006 308.706 234.088 308.706 234.464 308.094C234.84 307.483 234.276 306.825 233.618 306.527C232.92 306.215 232.151 306.096 231.392 306.182C227.347 306.276 223.554 306.182 219.51 306.292C218.507 306.347 217.502 306.347 216.5 306.292C214.4 306.088 213.522 305.351 213.365 304.458C213.271 304.035 213.365 303.596 213.24 303.173C213.083 302.232 212.738 301.245 211.782 301.245C209.713 301.245 210.449 305.775 211.703 307.029" fill="#2B2729"/>
<path d="M183.942 315.399C183.854 315.659 183.829 315.937 183.867 316.209C183.905 316.481 184.006 316.74 184.161 316.966C184.326 317.105 184.528 317.194 184.742 317.221C184.956 317.249 185.173 317.215 185.368 317.123C185.76 316.935 186.087 316.635 186.309 316.261C186.635 315.749 186.878 315.188 187.03 314.6C187.123 314.395 187.171 314.174 187.171 313.949C187.171 313.725 187.123 313.503 187.03 313.299C185.885 311.637 184.208 314.396 184.02 315.336" fill="#2B2729"/>
<path d="M190.009 318.972C190.182 318.922 190.342 318.832 190.475 318.71C190.609 318.587 190.712 318.436 190.777 318.267C190.905 317.925 190.979 317.566 190.996 317.201V316.715C190.996 316.088 191.169 315.148 190.746 314.631C188.708 312.326 186.842 319.678 189.962 318.972" fill="#2B2729"/>
<path d="M219.948 317.076C219.921 317.263 219.921 317.453 219.948 317.641C219.985 317.818 220.07 317.983 220.194 318.115C220.318 318.248 220.476 318.344 220.651 318.393C220.826 318.441 221.011 318.441 221.186 318.391C221.361 318.341 221.518 318.244 221.641 318.111C221.95 317.657 222.149 317.137 222.222 316.593C222.296 316.049 222.242 315.495 222.064 314.976C222.009 314.763 221.905 314.566 221.761 314.4C221.617 314.235 221.436 314.104 221.234 314.02C219.666 313.565 219.87 316.34 219.87 317.155" fill="#2B2729"/>
<path d="M224.353 316.637C224.519 317.072 224.788 317.459 225.137 317.766C226.783 318.973 227.237 315.728 225.905 314.02C225.45 313.424 224.823 313.236 224.243 313.816C223.663 314.396 223.946 315.791 224.353 316.637" fill="#2B2729"/>
<path d="M227.394 312.546C227.315 312.724 227.273 312.916 227.273 313.111C227.273 313.305 227.315 313.497 227.394 313.675C227.537 314.037 227.75 314.367 228.021 314.647C228.318 315.024 228.714 315.312 229.165 315.477C229.391 315.557 229.635 315.565 229.865 315.501C230.095 315.436 230.3 315.302 230.451 315.117C230.525 314.996 230.578 314.864 230.608 314.725C230.984 313.267 228.413 310.838 227.473 312.546" fill="#2B2729"/>
<path d="M258.869 338.284C258.946 339.058 259.131 339.818 259.418 340.541C260.086 341.762 261.072 342.78 262.271 343.488C272.728 350.646 284.865 354.967 297.493 356.027C297.77 356.078 298.055 356.039 298.308 355.918C298.528 355.747 298.687 355.511 298.763 355.244C300.722 350.165 301.773 339.475 302.133 334.036C302.411 332.117 302.304 330.161 301.82 328.283C297.666 316.214 272.131 303.361 265.045 302.248C263.18 301.95 260.546 302.044 259.747 304.066C258.744 306.558 258.869 310.587 258.681 313.283C258.211 319.882 257.96 331.669 258.901 338.205" fill="#E7A617"/>
<path d="M268.496 318.189C270.063 319.443 272.023 321.324 273.622 322.547C276.871 325.032 280.395 327.136 284.124 328.816C285.206 329.193 285.096 331.685 285.002 333.19C284.751 337.249 283.215 339.945 284.155 340.572C284.829 341.011 285.613 340.228 285.942 339.491C286.939 337.361 287.636 335.103 288.011 332.782C288.045 332.267 288.213 331.77 288.497 331.34C289.234 330.415 290.692 330.744 291.836 331.089C293.731 331.657 295.691 331.984 297.667 332.061C297.904 332.105 298.146 332.093 298.377 332.028C298.608 331.963 298.821 331.845 299 331.685C299.143 331.456 299.196 331.182 299.15 330.916C299.104 330.65 298.961 330.41 298.749 330.243C298.312 329.917 297.8 329.706 297.26 329.631C293.668 329.031 290.141 328.092 286.726 326.826C277.791 322.97 267.916 314.443 265.157 310.54C264.452 309.521 262.179 307.405 261.771 308.972C261.175 311.214 266.474 316.622 268.496 318.205" fill="#FF8000"/>
<path d="M274.451 330.149C274.341 331.28 274.341 332.419 274.451 333.55C274.53 334.287 274.875 335.212 275.627 335.212C276.38 335.212 276.693 334.318 276.803 333.644C276.982 332.394 277.04 331.128 276.975 329.867C276.961 329.491 276.909 329.118 276.818 328.754C276.694 328.456 276.469 328.211 276.182 328.062C275.896 327.913 275.566 327.87 275.251 327.939C274.702 328.158 274.53 328.848 274.357 330.196" fill="#FF8000"/>
<path d="M278.825 336.795C278.772 337.072 278.785 337.358 278.861 337.63C278.937 337.902 279.075 338.153 279.264 338.362C279.552 338.53 279.893 338.578 280.216 338.495C280.538 338.413 280.816 338.208 280.988 337.924C281.28 337.347 281.415 336.704 281.38 336.058L281.568 332.72C281.638 332.304 281.638 331.881 281.568 331.466C281.098 329.804 279.515 330.478 279.091 331.669C278.795 333.366 278.705 335.092 278.825 336.811" fill="#FF8000"/>
<path d="M161.949 382.423C161.84 383.991 161.714 385.856 163 386.718C163.717 387.094 164.528 387.258 165.335 387.188C173.579 387.322 181.604 389.861 188.425 394.493C189.334 393.16 188.018 391.436 186.748 390.449C181.767 386.585 175.849 384.113 169.599 383.285C168.798 383.292 168.026 382.982 167.452 382.423C167.194 382.005 167.038 381.533 166.997 381.044C165.947 375.009 161.84 370.072 157.889 365.369C157.419 364.805 156.808 364.194 156.087 364.303C154.707 364.507 159.441 370.667 159.959 371.78C161.51 375.114 162.195 378.786 161.949 382.455" fill="#F86775"/>
<path d="M111.711 435.717C111.711 436.751 112.244 438.24 112.996 437.739C115.269 422.926 117.699 407.753 124.142 394.837C124.565 394.182 124.758 393.405 124.69 392.627C123.922 388.928 119.988 398.207 119.643 398.991C118.02 402.813 116.643 406.734 115.52 410.731C113.232 418.877 111.958 427.274 111.727 435.732" fill="#F86775"/>
<path d="M272.916 468.477C272.621 468.562 272.305 468.545 272.021 468.429C271.736 468.312 271.499 468.103 271.349 467.834C271.059 467.299 270.898 466.703 270.878 466.094C269.468 452.489 269.859 437.88 262.759 425.685C259.733 420.466 256.912 416.861 251.566 414.071C248.361 412.474 244.796 411.739 241.221 411.939C240.28 412.049 239.246 412.503 238.791 411.939C238.685 411.78 238.639 411.588 238.662 411.398C238.685 411.208 238.775 411.033 238.916 410.904C239.394 410.601 239.927 410.393 240.484 410.293C244.112 409.638 247.852 410.046 251.253 411.469C260.658 414.917 266.129 424.259 269.091 433.288C270.821 438.519 272.044 443.904 272.744 449.37C273.155 452.64 273.375 455.933 273.402 459.229C273.402 460.248 273.763 468.195 272.963 468.508" fill="#F86775"/>
<path d="M210.84 447.943C211.059 448.899 211.812 449.04 212.219 446.736C214.289 435.293 216.577 425.45 228.443 417.55C230.011 416.515 233.836 414.587 232.989 413.741C231.704 412.456 220.998 418.741 216.609 426.281C214.583 429.739 213.038 433.456 212.016 437.331C211.78 438.256 210.307 445.654 210.84 447.88" fill="#F86775"/>
<path d="M213.976 254.111C208.389 252.526 203.484 249.137 200.025 244.471C199.147 242.904 200.668 243.061 203.552 245.678C208.267 249.534 214.073 251.815 220.152 252.199C222.582 252.356 224.98 252.622 227.394 252.951C230.858 253.422 235.028 256.87 229.087 256.588C223.964 256.419 218.885 255.587 213.976 254.111" fill="#FF8000"/>
<path d="M175.87 340.4C175.775 340.169 175.618 339.969 175.416 339.822C175.214 339.676 174.975 339.588 174.726 339.569C174.24 339.491 173.3 339.789 172.814 339.726C170.066 339.329 167.429 338.369 165.07 336.904C164.43 336.414 163.684 336.081 162.891 335.933C162.225 335.97 161.581 336.189 161.029 336.564C160.476 336.94 160.036 337.458 159.756 338.064C159.645 338.295 159.491 338.503 159.302 338.676C158.659 339.162 157.734 338.676 156.982 338.472C156.348 338.424 155.715 338.562 155.158 338.868C154.601 339.174 154.146 339.636 153.847 340.196C153.26 341.337 152.822 342.549 152.546 343.801C152.036 345.471 151.281 347.056 150.304 348.504C149.755 349.303 147.874 350.432 148.925 351.45C149.376 351.802 149.922 352.009 150.492 352.046L161.073 354.052C164.537 354.711 164.835 352.657 167.923 351.827C169.445 351.368 170.815 350.507 171.889 349.334C172.652 347.989 173.292 346.578 173.801 345.118C174.648 342.876 176.231 341.215 176.012 340.416L175.87 340.4ZM165.666 344.773C165.461 345.486 165.059 346.127 164.506 346.623C164.137 346.999 163.72 347.325 163.268 347.595C162.494 348.029 161.616 348.243 160.73 348.216C159.843 348.188 158.981 347.919 158.236 347.438C158.159 347.398 158.094 347.339 158.048 347.265C157.891 346.983 158.251 346.717 158.502 346.513C159.004 346.09 159.161 345.322 159.741 344.946C160.321 344.569 161.434 345.024 162.045 344.522C162.249 344.366 162.358 344.115 162.562 343.974C163.588 343.696 164.681 343.82 165.619 344.319C165.649 344.379 165.665 344.446 165.665 344.514C165.665 344.582 165.649 344.65 165.619 344.71" fill="#FE330A"/>
<path d="M271.426 478.9C271.357 477.524 271.409 476.144 271.583 474.778C271.601 474.46 271.687 474.15 271.834 473.868C271.909 473.729 272.024 473.615 272.163 473.54C272.302 473.465 272.46 473.432 272.618 473.445C272.758 473.484 272.889 473.554 273 473.649C273.111 473.743 273.2 473.861 273.26 473.994C273.583 474.666 273.764 475.397 273.793 476.141C273.887 477.05 273.95 477.975 274.044 478.884L271.426 478.9Z" fill="#F86775"/>
<path d="M163.988 239.142C163.486 237.314 162.621 235.605 161.444 234.118C160.267 232.632 158.802 231.398 157.137 230.49C154.843 229.491 152.403 228.866 149.911 228.64C142.622 227.574 134.957 227.95 127.966 225.505C119.705 222.543 117.494 219.643 116.099 215.27C115.048 211.296 114.703 207.168 115.08 203.075C112.846 203.639 110.519 203.735 108.246 203.357C105.227 203.105 102.421 201.702 100.408 199.438C100.126 198.968 100.001 197.683 101.364 197.949C103.986 198.512 106.663 198.775 109.343 198.733C111.395 198.696 113.431 198.375 115.394 197.777L115.911 187.071C113.302 187.366 110.661 187.125 108.148 186.362C105.636 185.599 103.306 184.331 101.302 182.635C100.675 182.071 99.7343 180.456 101.553 180.504C104.866 181.298 108.281 181.578 111.679 181.334C113.065 181.208 114.421 180.853 115.692 180.284C115.9 180.147 116.09 179.984 116.256 179.798L117.259 159.217C115.505 159.358 113.743 159.078 112.118 158.402C111.57 158.127 111.076 157.756 110.66 157.305C110.143 156.662 110.409 156.13 111.334 156.318C113.889 156.741 115.363 156.945 117.432 155.847L117.526 153.81C117.755 152.006 117.551 150.174 116.93 148.465C116.594 147.622 115.975 146.923 115.181 146.486C114.386 146.048 113.464 145.9 112.572 146.066C111.416 146.572 110.461 147.449 109.861 148.559C97.4928 166.616 87.821 186.852 84.153 208.436C82.3033 218.906 82.3033 230.584 88.5735 239.126C91.975 243.719 96.9128 246.964 101.819 249.848C112.886 256.447 126.696 259.441 139.283 262.246C145.193 263.563 151.823 264.645 156.949 261.431C160.743 259.064 162.906 254.738 163.941 250.459C164.91 246.781 164.91 242.914 163.941 239.236" fill="#FF8000"/>
<path d="M207.079 358.081C209.15 359.045 211.511 359.18 213.678 358.457C214.024 358.352 214.323 358.13 214.525 357.83C214.626 357.583 214.637 357.308 214.557 357.053C214.477 356.798 214.31 356.58 214.086 356.435C213.613 356.148 213.072 355.991 212.518 355.98C210.29 355.94 208.091 355.467 206.044 354.585C205.294 354.058 204.49 353.611 203.646 353.253C203.035 353.065 202.22 353.253 202.345 354.068C203.445 355.869 205.093 357.269 207.048 358.065" fill="#FF8000"/>
</svg>
