<svg width="336" height="480" viewBox="0 0 336 480" fill="none" xmlns="http://www.w3.org/2000/svg">
<path d="M318.434 0H17.0293C7.64046 0 0.0292969 7.61115 0.0292969 17V462.109C0.0292969 471.498 7.64046 479.109 17.0293 479.109H318.434C327.822 479.109 335.434 471.498 335.434 462.109V17C335.434 7.61116 327.822 0 318.434 0Z" fill="#FEE6C2"/>
<path d="M137.186 270.351C135.415 274.866 132.107 279.662 132.201 285.289C132.28 290.258 136.104 292.735 144.02 292.656C145.697 292.255 147.245 291.435 148.519 290.274C155.996 282.515 159.759 268.815 161.138 256.213C156.435 255.241 147.312 250.946 144.083 255.68C140.149 261.432 141.701 264.708 137.186 270.351" fill="black"/>
<path d="M175.589 261.37C163.38 271.881 148.996 279.562 133.47 283.863C123.845 286.512 114.299 289.412 106.649 295.807C104.46 297.636 102.469 299.691 100.708 301.936C100.081 302.72 99.2819 304.068 99.6111 304.648C102.657 304.961 105.723 305.04 108.781 304.883C94.5968 315.545 82.0855 328.267 71.6619 342.627C67.555 348.489 63.699 355.167 63.9498 362.283L70.3139 361.421C66.0971 366.614 62.9055 372.561 60.9087 378.945C58.1129 388.963 56.622 399.299 56.4727 409.698C56.4727 415.529 59.3256 440.891 62.6017 440.703L67.5081 435.467C69.8807 437.874 71.4189 440.978 71.8971 444.324C78.6531 443.336 86.8201 442.27 93.5761 441.298C94.7248 441.004 95.9391 441.103 97.0246 441.581C98.0435 442.176 98.4354 443.869 97.4322 444.512C101.57 443.603 103.248 442.035 107.982 440.765C114.471 443.9 122.184 440.374 129.222 438.148C156.852 429.402 185.358 423.71 214.229 421.172C255.361 417.551 294.612 398.679 335.571 393.491C335.571 377.816 335.571 366.844 335.571 354.524C332.358 342.972 325.727 331.42 319.677 321.2C317.109 316.441 313.693 312.191 309.597 308.66C308.766 308.002 307.842 306.717 308.672 306.058C309.801 305.927 310.945 306.04 312.027 306.389C313.108 306.738 314.103 307.315 314.943 308.08C318.078 304.945 315.084 298.754 312.074 295.431C303.363 285.923 291.667 279.674 278.921 277.719C265.079 275.634 249.498 278.393 238.165 270.132C234.136 267.17 231.095 263.063 227.365 259.74C214.26 248.094 188.788 249.99 175.511 261.433" fill="#FE330A"/>
<path d="M163.254 194.628C158.238 204.032 160.119 215.961 154.868 225.24C151.999 230.334 147.281 234.08 142.688 237.686L135.681 243.187C132.969 245.319 131.527 247.999 129.317 250.648C127.498 252.827 124.614 253.611 121.965 254.771C119.316 255.931 116.714 258.047 116.777 260.884C116.777 264.473 120.962 266.354 124.395 267.405L141.293 272.562C145.826 274.072 150.469 275.23 155.181 276.026C161.564 276.897 168.057 276.448 174.259 274.706C180.461 272.964 186.239 269.967 191.234 265.9C192.329 264.755 193.599 263.792 194.996 263.047C203.236 259.771 211.702 257.094 220.328 255.037C224.795 253.971 227.868 251.213 231.034 247.874C238.495 240.037 239.985 228.234 239.64 217.387C239.483 212.403 240.079 207.904 240.047 202.904C240.047 201.148 240.173 199.142 241.615 198.06C243.057 196.979 245.33 197.418 247.195 197.966C253.591 199.832 260.457 200.835 266.899 199.126C273.342 197.418 279.236 192.527 280.646 186.022C281.054 184.141 281.587 182.386 281.822 180.473C282.575 174.517 282.261 170.692 278.091 166.993C276.201 165.141 273.683 164.067 271.037 163.984C256.334 163.169 252.729 175.849 248.01 179.549C243.292 183.248 237.038 185.677 231.285 183.781C229.545 184.016 228.683 183.216 227.037 182.589C215.092 177.981 203.195 174.752 190.513 176.523C186.221 177.052 182.009 178.105 177.973 179.658C168.568 182.715 162.705 186.649 155.401 177.338C151.905 172.871 148.692 168.059 144.146 164.673C139.6 161.288 133.173 159.219 128.47 163.106C126.605 164.728 125.117 166.738 124.112 168.997C123.107 171.256 122.61 173.707 122.655 176.179C122.863 179.822 123.938 183.363 125.79 186.508C127.837 189.793 130.887 192.333 134.49 193.75C143.331 197.798 153.304 198.651 162.705 196.164" fill="#999999"/>
<path d="M144.537 279.96C145.65 282.045 148.424 282.421 150.807 282.515C155.451 282.943 160.134 282.561 164.648 281.386C169.12 279.791 173.157 277.171 176.436 273.737C170.73 273.847 165.024 273.957 159.334 273.737C156.513 273.628 153.691 273.439 150.885 273.126C149.208 272.938 146.653 272.233 145.226 273.549C143.8 274.866 143.659 278.252 144.552 279.976" fill="#999999"/>
<path d="M87.5566 312.798C98.228 312.338 108.655 309.454 118.045 304.365C119.973 303.315 122.215 302.155 124.315 302.97C125.554 303.472 126.526 304.663 127.842 304.741C129.159 304.82 130.382 303.628 131.291 302.547C133.329 300.07 135.993 293.722 137.639 290.932C140.461 285.994 145.869 276.198 148.361 274.881C149.255 275.007 150.634 275.602 150.352 276.449C151.92 278.016 146.778 287.045 144.27 288.91C142.938 289.897 140.398 289.725 138.972 292.829C138.016 294.898 139.207 297.343 137.639 299.004C136.793 299.898 135.131 300.917 134.974 302.139C134.862 302.749 134.927 303.378 135.164 303.951C135.4 304.523 135.797 305.016 136.307 305.368C137.875 306.309 139.975 305.164 141.166 303.801C143.424 301.152 144.301 297.625 145.712 294.396C148.485 287.836 150.708 281.057 152.359 274.129C152.97 273.721 155.494 281.229 155.086 280.634C154.083 279.192 154.098 280.226 154.145 280.963C154.384 282.466 154.205 284.006 153.628 285.414C152.848 286.882 151.924 288.268 150.869 289.553C149.302 291.339 147.734 295.431 152.17 295.822C152.396 296.012 152.538 296.281 152.568 296.574C152.597 296.867 152.511 297.16 152.327 297.39C151.934 297.841 151.467 298.222 150.948 298.518C149.888 299.281 149.128 300.39 148.8 301.653C148.534 302.766 148.926 304.287 150.054 304.365C150.613 304.347 151.142 304.111 151.528 303.707C154.663 301.073 155.321 297.735 155.964 291.81C156.277 288.941 156.387 283.079 155.086 280.493C154.412 279.16 152.359 275.79 152.359 273.988C153.252 273.988 154.631 273.878 155.29 273.988C155.164 275.555 157.484 278.439 157.955 279.631C161.215 288.158 159.945 292.546 158.19 297.484C156.246 302.954 154.506 307.422 154.145 313.3C153.691 320.902 155.713 324.993 155.886 332.595C155.886 334.162 155.321 336.231 153.738 336.263C152.155 336.294 151.434 334.068 151.371 332.391L151.136 327.062C151.042 324.883 150.101 321.936 148.001 322.25C146.809 322.422 146.057 323.598 145.477 324.648L136.354 341.153C135.899 341.968 135.366 342.846 134.457 343.066C133.266 343.363 132.2 342.329 131.322 341.498C128.575 338.795 125.205 336.809 121.509 335.714C116.305 334.147 110.709 334.507 105.442 333.159C95.8333 330.698 89.4221 322.469 87.6979 312.782" fill="#E7A617"/>
<path d="M131.746 333.347C128.61 332.219 125.162 332.532 121.823 332.423C111.855 332.055 102.413 327.862 95.457 320.714C93.3094 318.488 91.4284 316.011 89.1868 313.895C86.9452 311.779 83.4966 309.867 80.3302 310.76C76.7405 311.701 74.7185 315.87 75.126 319.57C75.7834 323.253 77.5562 326.645 80.2048 329.288C86.0758 335.688 93.1284 340.893 100.975 344.617C103.432 345.907 106.023 346.921 108.703 347.643C112.193 348.356 115.753 348.671 119.315 348.583C122.622 348.583 128.72 348.583 131.855 347.549C138.643 345.37 140.728 336.576 131.761 333.442" fill="#FF8000"/>
<path d="M105.489 313.346C104.145 314.008 103.034 315.062 102.303 316.369C101.573 317.677 101.257 319.175 101.398 320.666C101.474 321.187 101.684 321.679 102.009 322.093C102.368 322.476 102.807 322.776 103.295 322.971C105.307 323.796 107.48 324.157 109.651 324.026C111.822 323.896 113.936 323.278 115.835 322.218C117.176 321.573 118.334 320.603 119.205 319.397C119.634 318.789 119.906 318.085 119.999 317.347C120.092 316.609 120.002 315.86 119.738 315.165C117.575 310.243 109.126 311.34 105.521 313.346" fill="#FF8000"/>
<path d="M126.713 321.67C127.655 320.734 128.835 320.072 130.125 319.757C131.415 319.442 132.767 319.486 134.034 319.883C136.558 320.698 136.135 323.018 136.119 324.585C136.152 325.433 135.971 326.274 135.593 327.033C135.215 327.792 134.652 328.443 133.956 328.927C133.273 329.296 132.53 329.54 131.761 329.648C129.598 330.056 124.942 331.216 123.735 328.771C122.701 326.654 125.303 322.877 126.698 321.623" fill="#FF8000"/>
<path d="M136.417 287.703C136.935 287.217 139.27 285.414 140.085 286.543C140.901 287.672 139.866 289.929 139.035 290.697C136.794 292.781 134.16 293.832 132.185 296.183C130.21 298.534 128.548 301.512 129.05 304.506C130.288 305.509 132.577 304.24 133.518 305.509C133.727 305.864 133.802 306.281 133.731 306.687C133.659 307.092 133.444 307.458 133.126 307.719C132.468 308.227 131.68 308.537 130.853 308.613C130.341 308.765 129.796 308.765 129.285 308.613C128.548 308.299 128.203 307.469 127.718 306.842C125.946 304.71 122.592 305.399 119.958 306.277L109.095 309.914C106.383 310.509 105.098 309.914 106.822 309.24C106.822 309.318 121.573 301.105 122.498 300.321C127.373 296.449 131.731 292.013 136.245 287.781" fill="#FF8000"/>
<path d="M138.283 305.51C139.85 304.93 141.261 304.256 142.437 300.666C142.938 299.099 144.725 292.045 146.042 294.396C146.042 296.403 144.819 300.87 144.741 302.876C144.685 303.525 144.717 304.179 144.835 304.82C145.075 305.579 145.406 306.305 145.823 306.983C146.349 307.889 146.64 308.913 146.669 309.961C146.678 310.483 146.55 310.999 146.3 311.458C146.051 311.917 145.686 312.303 145.243 312.579C144.772 312.83 144.224 312.924 143.675 313.127C142.499 313.645 141.747 314.82 140.65 315.494C139.552 316.168 137.656 315.917 137.515 314.648C137.374 313.378 139.082 312.83 139.85 311.873C140.462 311.184 141.277 309.491 140.775 308.739C140.274 307.986 139.051 308.739 137.718 308.88C134.756 309.851 134.709 306.168 138.173 305.588" fill="#FF8000"/>
<path d="M97.4168 313.08C98.7649 312.438 101.351 311.936 101.681 313.08C102.308 314.256 99.1099 316.309 97.8715 316.779C96.6331 317.25 94.8147 318.347 93.9368 316.779C93.7487 316.493 93.6484 316.158 93.6484 315.815C93.6484 315.473 93.7487 315.138 93.9368 314.851C94.1876 314.256 95.7708 313.55 97.3697 313.143" fill="#FF8000"/>
<path d="M104.36 345.903C97.7961 346.014 91.2763 344.804 85.1893 342.345C84.6434 342.171 84.1556 341.851 83.7787 341.42C83.4598 340.847 83.3283 340.19 83.4025 339.539C83.4025 337.135 83.4025 334.732 83.4025 332.328C83.4025 328.927 83.4024 325.197 81.1609 322.595C78.0258 318.895 72.3826 319.193 67.586 319.804C65.7923 321.674 64.63 324.058 64.2628 326.623C63.7956 329.086 63.5959 331.593 63.6672 334.1C63.5019 334.983 63.6099 335.896 63.9768 336.717C64.3437 337.537 64.9521 338.226 65.7207 338.692L73.9973 345.276C78.1199 348.552 79.6874 354.367 82.7598 358.63C83.2506 359.281 83.7007 359.962 84.1078 360.668C85.6754 363.458 85.785 366.938 87.5563 369.524C87.8583 371.952 88.8245 374.249 90.3485 376.163C91.8724 378.077 93.895 379.533 96.1934 380.371C98.3753 381.046 100.601 381.57 102.855 381.938C107.364 383.023 111.516 385.253 114.91 388.412C115.661 389.233 116.552 389.913 117.543 390.418C118.507 390.76 119.539 390.867 120.553 390.732C124.014 390.389 127.306 389.07 130.045 386.927C132.785 384.785 134.858 381.907 136.024 378.631C137.043 375.637 137.137 372.063 135.178 369.587C136.484 367.919 137.378 365.967 137.786 363.889C138.195 361.81 138.107 359.665 137.529 357.627C142.038 357.663 146.459 356.389 150.258 353.959C152.75 352.392 155.086 349.915 155.101 346.953C155.101 342.517 150.07 339.805 145.696 339.351C141.681 338.94 137.627 339.505 133.877 340.997C131.643 342.088 129.333 343.016 126.964 343.771C124.747 344.177 122.492 344.345 120.239 344.272C114.926 344.382 109.659 345.762 104.345 345.84" fill="#999999"/>
<path d="M0 458.5C20.6914 453.233 314.457 395.638 335.587 392.096V462.372C335.587 471.761 327.976 479.372 318.587 479.372H17C7.61118 479.372 0 471.761 0 462.372V458.5Z" fill="#2B2729"/>
<path d="M210.012 377.816C212.426 397.253 215.367 416.611 218.837 435.89C218.847 436.386 218.984 436.87 219.234 437.298C219.483 437.726 219.838 438.083 220.263 438.336C221.265 438.703 222.336 438.843 223.398 438.743L247.664 438.32C252.507 429.025 253.934 417.457 254.498 406.971C255.073 397.629 255.648 388.287 256.223 378.945C241.112 378.945 225.138 377.722 210.027 377.8" fill="#FF8000"/>
<path d="M229.576 357.455C218.055 357.455 209.935 358.646 207.866 359.461C205.796 360.276 201.784 372.597 201.69 374.258C201.392 379.164 209.527 381.939 223.886 382.895C239.452 383.929 261.507 384.086 261.507 377.424C261.426 374.355 260.898 371.313 259.939 368.396C259.093 365.261 258.701 362.424 255.817 360.888C254.374 360.192 252.837 359.711 251.255 359.461C244.13 357.997 236.865 357.324 229.592 357.455" fill="#F2F2F2"/>
<path d="M201.424 310.134C202.67 310.908 203.975 311.584 205.327 312.156C209.831 314.081 214.106 316.505 218.071 319.382C229.043 327.94 227.288 342.094 227.852 357.001C227.787 359.262 227.944 361.525 228.322 363.756C229.106 365.324 232.272 365.151 233.511 363.882C234.185 363.035 232.037 343.301 230.752 333.144C230.235 329.021 229.655 324.758 227.397 321.278C225.584 318.749 223.275 316.615 220.61 315.008C215.59 311.702 210.353 308.738 204.935 306.137C201.361 304.726 199.809 308.77 201.392 310.181" fill="#E7A617"/>
<path d="M292.715 325.306C289.329 321.638 286.617 317.469 283.608 313.409C280.75 309.286 277.047 305.818 272.745 303.236C270.583 301.968 268.155 301.222 265.653 301.059C263.152 300.896 260.648 301.319 258.339 302.296C252.774 305.008 246.724 302.986 240.657 304.208C238.332 304.529 236.105 305.359 234.136 306.638C233.384 307.202 232.741 307.876 231.942 308.378C230.955 308.91 229.9 309.306 228.807 309.553C224.161 310.912 219.721 312.895 215.608 315.447C213.542 316.462 211.936 318.22 211.11 320.369C210.885 321.502 210.984 322.675 211.398 323.754C211.811 324.833 212.521 325.773 213.445 326.466C215.332 327.824 217.611 328.528 219.935 328.472C219.907 329.705 220.141 330.929 220.62 332.064C221.099 333.2 221.812 334.222 222.713 335.062C223.615 335.903 224.684 336.543 225.85 336.942C227.016 337.341 228.254 337.489 229.481 337.376C229.623 338.621 230.037 339.82 230.693 340.888C231.349 341.956 232.231 342.867 233.277 343.558C234.323 344.248 235.508 344.701 236.748 344.884C237.988 345.067 239.253 344.976 240.454 344.617C240.878 345.608 241.502 346.501 242.288 347.24C243.073 347.979 244.002 348.548 245.017 348.912C246.033 349.275 247.112 349.425 248.188 349.352C249.263 349.28 250.313 348.986 251.27 348.489C252.513 347.7 253.575 346.656 254.385 345.427C255.196 344.197 255.737 342.81 255.972 341.357C256.388 338.451 256.388 335.501 255.972 332.595C261.386 332.659 266.797 332.339 272.165 331.639C275.439 337.762 279.462 343.453 284.141 348.583C284.434 348.962 284.816 349.264 285.254 349.461C286.633 349.947 287.809 348.395 288.389 347.062C291.29 340.189 292.706 332.781 292.543 325.322" fill="#999999"/>
<path d="M66.4424 307.265C66.3451 307.207 66.2372 307.168 66.1248 307.152C66.0124 307.136 65.8979 307.143 65.7882 307.173C65.6785 307.202 65.5758 307.253 65.4862 307.323C65.3967 307.392 65.322 307.479 65.2667 307.579C65.06 307.99 64.9731 308.452 65.0159 308.911C65.0159 311.262 65.0159 313.613 65.0159 315.964C64.9605 317.724 65.0972 319.485 65.4235 321.215C65.7586 322.959 66.6562 324.545 67.9786 325.73C68.5272 325.875 69.111 325.801 69.6057 325.523C70.1005 325.245 70.4673 324.785 70.628 324.241C70.628 324.444 70.628 323.582 70.628 323.269C70.9572 318.786 69.4836 314.397 68.0414 310.149C67.7366 309.061 67.1592 308.068 66.364 307.265" fill="black"/>
<path d="M149.145 345.997C148.803 346.322 148.568 346.742 148.469 347.204C148.371 347.665 148.415 348.145 148.594 348.581C148.774 349.017 149.082 349.388 149.477 349.646C149.872 349.904 150.335 350.036 150.807 350.025C151.706 350.016 152.597 349.851 153.44 349.539C156.825 348.47 160.088 347.046 163.175 345.292C164.335 344.633 165.589 343.724 165.604 342.392C165.615 342.247 165.597 342.103 165.551 341.965C165.505 341.828 165.433 341.701 165.338 341.592C165.107 341.4 164.822 341.285 164.523 341.263C160.212 340.589 151.857 342.11 149.145 345.966" fill="black"/>
<path d="M123.344 364.116C124.525 363.142 125.932 362.479 127.435 362.188C128.016 362.002 128.641 362.002 129.222 362.188C129.583 362.4 129.887 362.696 130.108 363.051C130.329 363.406 130.461 363.809 130.492 364.226C130.774 366.138 129.802 367.596 128.25 369.226C127.918 369.521 127.609 369.84 127.325 370.182C127.89 371.154 128.627 372.91 128.376 373.49C127.446 374.328 126.388 375.011 125.241 375.512C125.048 374.893 124.796 374.295 124.488 373.725C124.331 373.427 124.002 372.753 123.657 372.737C123.542 372.742 123.429 372.775 123.328 372.831C122.257 373.459 121.093 373.914 119.88 374.179C119.269 374.308 118.634 374.251 118.056 374.016C117.478 373.782 116.983 373.38 116.635 372.863C116.412 372.381 116.316 371.851 116.354 371.322C116.393 370.793 116.565 370.282 116.854 369.838C117.444 368.957 118.157 368.165 118.97 367.486C119.193 367.318 119.353 367.081 119.425 366.812C119.435 366.513 119.34 366.22 119.159 365.982C118.38 364.483 117.315 363.151 116.023 362.063C117.665 361.577 119.244 360.898 120.726 360.041C121.794 361.261 122.715 362.603 123.469 364.038" fill="#FE330A"/>
<path d="M216.801 318.457C216.225 318.07 215.55 317.858 214.857 317.845C211.863 317.642 209.057 319.272 206.627 320.98C204.473 322.546 202.431 324.258 200.514 326.106C200.221 326.337 200.021 326.665 199.949 327.031C199.966 327.271 200.065 327.498 200.231 327.673C200.397 327.847 200.619 327.958 200.858 327.987C201.34 328.031 201.824 327.956 202.269 327.767C206.431 326.369 210.508 324.73 214.481 322.861C215.517 322.497 216.393 321.782 216.957 320.839C217.381 319.867 217.976 319.272 216.801 318.41" fill="black"/>
<path d="M225.375 334.382C225.134 336.017 224.997 337.667 224.967 339.319C224.857 342.031 223.399 347.925 225.186 350.292C225.371 350.563 225.654 350.752 225.976 350.819C226.297 350.887 226.632 350.827 226.911 350.652C227.126 350.434 227.283 350.164 227.365 349.868C229.525 344.346 230.862 338.537 231.331 332.626C231.425 330.933 230.688 327.72 228.274 328.269C226.221 328.739 225.625 332.705 225.343 334.366" fill="black"/>
<path d="M233.995 346.389C233.337 349.712 231.597 355.574 233.023 358.834C233.065 358.949 233.129 359.054 233.212 359.143C233.295 359.233 233.394 359.305 233.505 359.356C233.616 359.407 233.735 359.436 233.857 359.441C233.979 359.445 234.1 359.426 234.215 359.383C234.448 359.216 234.623 358.98 234.716 358.709C237.381 352.847 240.093 346.734 239.999 340.291C239.999 337.062 236.958 336.357 235.202 338.975C233.744 341.138 234.481 343.991 234.011 346.404" fill="black"/>
<path d="M246.615 342.878C246.27 342.69 245.847 342.878 245.565 343.222C244.606 344.454 244.092 345.973 244.107 347.533C243.957 349.332 243.925 351.138 244.013 352.941C244.122 355.214 243.809 357.643 243.872 359.9C243.838 360.3 243.931 360.7 244.138 361.044C244.384 361.288 244.717 361.424 245.063 361.424C245.409 361.424 245.741 361.288 245.988 361.044C246.456 360.534 246.776 359.905 246.913 359.226C247.446 357.455 247.979 355.684 248.37 353.881C248.834 351.747 249.102 349.575 249.17 347.392C249.346 346.586 249.346 345.752 249.17 344.947C248.998 344.401 248.673 343.917 248.234 343.55C247.795 343.183 247.26 342.95 246.693 342.878" fill="black"/>
<path d="M258.668 322.454C257.889 322.443 257.112 322.549 256.364 322.767C255.989 322.891 255.643 323.088 255.345 323.347C255.137 323.609 255.031 323.938 255.047 324.272C255.008 324.633 255.056 324.999 255.188 325.338C255.643 326.309 257.038 326.419 258.088 326.247C259.161 326.119 260.18 325.701 261.035 325.04C261.615 327.482 261.815 329.998 261.631 332.501C262.747 332.548 263.864 332.49 264.97 332.329C265.654 329.621 265.484 326.769 264.483 324.162C265.178 324.11 265.86 323.951 266.506 323.692C266.835 323.554 267.128 323.34 267.359 323.067C267.591 322.795 267.755 322.472 267.838 322.124C267.892 321.585 267.744 321.044 267.423 320.607C267.101 320.17 266.629 319.867 266.098 319.758C265.011 319.57 263.894 319.793 262.963 320.384C262.744 320.51 262.461 320.635 262.242 320.51C262.124 320.421 262.031 320.302 261.975 320.165C261.649 319.62 261.191 319.165 260.643 318.842C260.096 318.518 259.476 318.338 258.84 318.315C258.14 318.254 257.435 318.344 256.772 318.58C256.109 318.815 255.505 319.19 255 319.679C255.604 319.935 256.186 320.239 256.74 320.588C258.119 321.607 258.731 322.391 258.621 322.375" fill="#F2F2F2"/>
<path d="M97.715 447.27C101.241 443.536 105.192 440.227 109.487 437.411C109.686 437.247 109.935 437.159 110.193 437.16C110.522 437.16 110.726 437.521 110.898 437.803C112.434 440.426 113.84 443.117 115.115 445.875L118.438 443.524C118.61 443.363 118.817 443.242 119.042 443.171C119.267 443.101 119.505 443.082 119.739 443.116C120.058 443.278 120.312 443.543 120.46 443.869L124.332 450.468C124.881 451.22 122.764 452.333 121.62 453.07L111.4 459.951L129.959 459.105C130.331 459.049 130.71 459.115 131.041 459.293C131.36 459.574 131.562 459.966 131.605 460.39C132.049 462.512 132.186 464.687 132.013 466.848C132.013 467.216 131.904 467.576 131.699 467.882C131.323 468.237 130.821 468.429 130.304 468.415L124.881 468.933C120.021 469.387 115.475 469.528 110.13 469.873C108.681 470.015 107.219 469.915 105.804 469.575C103.635 468.448 101.753 466.839 100.301 464.873C96.6021 460.045 96.2573 453.76 97.7464 447.27" fill="#E7A617"/>
<path d="M147.813 478.039C148.124 478.161 148.458 478.209 148.79 478.179C149.122 478.149 149.442 478.042 149.726 477.867C150.031 477.528 150.218 477.099 150.259 476.644L151.105 472.444C151.147 472.29 151.147 472.127 151.105 471.973C151.011 471.691 150.666 471.581 150.369 471.519L138.048 468.729C137.24 468.488 136.391 468.419 135.555 468.525C135.144 468.583 134.759 468.763 134.451 469.043C134.144 469.322 133.928 469.688 133.831 470.092C133.831 470.343 133.831 470.625 133.643 470.798C133.478 470.913 133.278 470.963 133.079 470.939C131.511 470.939 128.752 470.139 128.376 470.939C126.808 474.183 127.733 473.431 135.696 475.202C139.725 476.096 143.738 477.036 147.751 477.945" fill="#E7A617"/>
<path d="M161.498 467.851C160.197 467.851 158.363 468.243 158.363 469.544C158.413 469.875 158.531 470.191 158.709 470.475C158.887 470.758 159.121 471.001 159.398 471.19C161.624 473.18 164.1 475.281 167.141 475.218C169.226 475.012 171.202 474.188 172.816 472.851C178.929 468.478 184.071 461.675 183.679 454.167C183.679 453.446 177.565 454.245 176.641 454.81C175.23 455.656 174.869 459.355 173.647 461.205C169.822 466.957 166.248 467.631 161.436 467.867" fill="#E7A617"/>
<path d="M183.631 477.256C183.631 478.902 185.731 476.817 186.625 476.159C193.412 471.127 202.394 470.171 210.827 470.735C211.251 470.735 211.768 470.735 212.003 470.422C212.129 470.209 212.189 469.963 212.175 469.716C212.254 467.24 212.269 466.582 212.364 464.121C212.364 463.306 205.576 461.738 194.102 464.121C191.955 464.56 186.39 466.299 184.979 468.024C183.568 469.748 183.678 475.03 183.631 477.272" fill="#E7A617"/>
<path d="M227.788 428.586C227.532 426.275 227.738 423.936 228.395 421.705C229.052 419.474 230.145 417.396 231.612 415.592C234.572 411.997 238.286 409.097 242.491 407.096C247.73 404.253 253.571 402.7 259.53 402.566C266.153 402.794 272.602 404.739 278.247 408.209C284.329 411.72 289.219 416.47 294.565 420.749C302.21 426.777 308.86 433.971 314.269 442.066C312.168 444.104 309.252 444.872 306.588 446.095C302.042 448.179 297.402 450.28 292.48 450.797C285.943 451.471 279.391 449.23 273.669 446.095C270.91 444.527 266.678 442.066 263.966 444.888C262.835 446.335 261.882 447.914 261.129 449.59C258.292 454.496 252.821 457.13 247.648 459.402C243.165 461.377 238.557 463.337 234.873 466.581C234.438 466.992 233.917 467.3 233.347 467.482C232.777 467.664 232.173 467.715 231.581 467.632C228.016 464.193 225.022 460.209 222.709 455.829C220.622 452.037 217.494 448.921 213.696 446.847C211.687 445.829 209.588 445 207.426 444.37L201.155 442.301C199.384 441.721 197.284 440.734 197.189 438.869C197.202 438.312 197.363 437.769 197.655 437.295C197.947 436.822 198.36 436.434 198.851 436.173C199.826 435.669 200.892 435.365 201.986 435.279C206.675 434.696 211.421 434.754 216.094 435.452C217.124 435.674 218.183 435.722 219.229 435.593C220.329 435.319 221.346 434.781 222.192 434.025C224.261 432.364 226.565 430.89 227.678 428.508" fill="#255730"/>
<path d="M236.692 436.22C236.265 438.134 235.982 440.078 235.846 442.035C235.757 443.536 236.048 445.034 236.692 446.393C237.624 447.947 238.984 449.199 240.611 449.998C244.236 451.8 248.163 452.916 252.195 453.289C253.794 453.646 255.463 453.52 256.991 452.929C258.256 452.161 259.303 451.081 260.032 449.794L262.791 445.64C263.083 445.121 263.491 444.676 263.983 444.339C265.55 443.446 267.274 444.872 268.685 445.907C270.986 447.711 273.765 448.801 276.68 449.042C278.811 449.198 280.661 450.233 282.793 450.437C284.174 450.636 285.581 450.556 286.931 450.201C288.028 449.789 289.024 449.146 289.852 448.316C290.679 447.486 291.319 446.488 291.728 445.389C292.534 443.192 293.02 440.891 293.17 438.555C293.267 438.194 293.276 437.815 293.197 437.45C293.118 437.085 292.953 436.744 292.715 436.455C292.42 436.239 292.075 436.099 291.712 436.047C281.508 433.853 271.162 436.047 260.738 436.659C256.646 436.878 252.649 436.126 248.558 436.235C244.467 436.345 240.893 435.405 236.723 436.235" fill="#E7A617"/>
<path d="M230.375 437.583C251.756 438.357 273.153 438.634 294.565 438.414C295.396 438.414 296.446 438.242 296.681 437.442C296.72 437.164 296.699 436.88 296.621 436.61C296.543 436.34 296.408 436.09 296.227 435.875L285.521 418.962C285.358 418.672 285.145 418.412 284.894 418.194C284.506 417.951 284.065 417.806 283.608 417.771C272.979 416.002 262.263 414.803 251.505 414.181C249.706 413.966 247.881 414.093 246.129 414.557C242.32 415.827 239.624 420.279 237.523 423.523C234.879 428.048 232.497 432.722 230.391 437.521" fill="#FF8000"/>
<path d="M234.795 407.049C231.472 408.606 228.41 410.668 225.719 413.162C224.77 413.943 224.018 414.937 223.524 416.062C223.293 416.63 223.234 417.254 223.353 417.856C223.473 418.458 223.767 419.011 224.198 419.448C225.593 420.623 227.945 419.902 229.293 421.125C231.095 422.692 229.544 426.125 231.127 427.943C232.71 429.762 235.312 428.664 237.397 427.724C239.482 426.783 242.46 426.392 243.322 428.445C243.698 429.338 243.495 430.514 244.216 431.172C244.666 431.511 245.22 431.683 245.783 431.658C248.345 431.752 250.874 431.069 253.041 429.699C254.138 428.994 255.439 428.132 256.615 428.617C257.791 429.103 258.01 430.89 258.841 431.987C260.079 433.555 262.603 433.555 264.468 432.677C266.333 431.799 268.042 430.718 269.939 429.95C272.698 428.837 272.698 429.668 278.09 432.27C278.906 432.632 279.811 432.743 280.69 432.59C281.569 432.436 282.383 432.025 283.028 431.408C283.802 430.404 284.519 429.357 285.175 428.273C285.519 427.752 286.025 427.36 286.614 427.156C287.203 426.952 287.844 426.948 288.436 427.144C290.536 428.241 293.953 428.194 295.63 426.517C297.041 425.106 296.21 422.786 297.198 422.003C298.185 421.219 299.314 421.501 300.333 421.078C301.144 420.636 301.775 419.923 302.113 419.063C302.451 418.203 302.476 417.252 302.183 416.376C301.5 414.616 300.297 413.107 298.734 412.049C291.586 406.454 282.495 404.212 273.654 401.955C269.578 400.752 265.362 400.094 261.114 399.996C254.844 400.121 248.997 402.645 243.291 405.121C239.952 406.563 238.024 405.466 234.732 407.018" fill="#255730"/>
<path d="M255.58 391.688C254.027 391.82 252.512 392.24 251.112 392.927C246.566 394.687 242.455 397.408 239.058 400.905C237.375 402.665 236.1 404.774 235.322 407.082C234.545 409.39 234.284 411.84 234.559 414.26C235.327 419.056 239.262 423.414 244.184 423.664C256.724 424.464 268.81 425.624 281.036 422.41C286.57 420.953 292.714 418.131 294.047 412.551C295.473 406.626 290.567 401.046 285.441 397.739C276.867 392.19 265.8 391.265 255.658 391.61" fill="#E7A617"/>
<path d="M335.587 424.385C334.114 424.235 332.627 424.283 331.167 424.527C330.519 424.633 329.902 424.881 329.36 425.252C328.819 425.623 328.365 426.108 328.032 426.674C327.564 427.859 327.444 429.154 327.687 430.405L328.674 440.609C318.689 452.882 307.544 467.099 297.574 479.388H318.634C328.023 479.388 335.634 471.776 335.634 462.388C335.634 449.838 335.634 437.243 335.634 424.417" fill="#E7A617"/>
<path d="M231.52 467.679C233.747 465.293 236.407 463.352 239.357 461.957C243.26 460.061 247.461 458.995 251.067 456.612C254.786 454.303 257.894 451.131 260.127 447.364C260.879 446.142 262.227 442.662 263.528 442.004C266.24 440.734 269.203 442.85 271.774 444.386C278.298 447.962 285.749 449.492 293.155 448.775C300.601 448.158 307.81 445.859 314.238 442.051C316.511 445.327 302.34 455.437 293.484 458.462C284.627 461.487 275.175 462.349 266.146 464.81C260.723 466.283 255.471 468.337 249.969 469.512C244.467 470.688 232.868 469.7 231.488 467.694" fill="#255730"/>
<path d="M235.281 188.844C238.917 191.365 243.197 192.795 247.618 192.966C248.672 193.068 249.736 192.967 250.753 192.668C252.025 192.124 253.168 191.318 254.107 190.301C255.61 188.98 256.98 187.515 258.199 185.928C259.641 183.906 260.597 181.539 262.18 179.658C263.53 178.048 265.266 176.806 267.226 176.049C269.186 175.293 271.306 175.046 273.388 175.332C274.859 175.622 276.191 176.398 277.168 177.535C278.146 178.672 278.714 180.104 278.78 181.602C279.313 185.317 279.533 189.518 277.417 192.684C275.619 195.479 273.018 197.665 269.955 198.954C268.118 199.687 266.204 200.213 264.249 200.521C260.049 201.173 255.764 201.035 251.615 200.114C248.074 199.194 244.718 197.672 241.693 195.615C239.092 193.929 236.91 191.672 235.313 189.016" fill="#F9838D"/>
<path d="M157.154 192.072C156.205 191.649 155.36 191.023 154.678 190.239C153.166 188.027 151.839 185.694 150.712 183.263C149.744 180.758 148.12 178.56 146.009 176.899C143.594 175.51 140.804 174.912 138.031 175.191C136.716 175.198 135.417 175.481 134.219 176.021C133.02 176.561 131.947 177.346 131.071 178.326C130.167 179.367 129.489 180.584 129.079 181.901C128.669 183.217 128.536 184.605 128.688 185.975C128.904 187.75 129.516 189.453 130.479 190.959C131.442 192.465 132.732 193.735 134.253 194.674C137.452 196.508 140.996 197.661 144.661 198.06C148.039 198.417 151.451 198.237 154.772 197.527C155.54 195.584 156.183 194.22 157.233 192.088" fill="#F9838D"/>
<path d="M323.376 462.318C320.84 463.086 318.704 464.812 317.419 467.13C316.936 468.046 316.558 469.013 316.291 470.014C315.739 471.555 315.706 473.234 316.197 474.795C316.697 475.829 317.497 476.688 318.492 477.261C319.487 477.834 320.632 478.094 321.777 478.008C324.076 477.787 326.241 476.83 327.953 475.281C328.408 474.908 328.838 474.504 329.239 474.074C330.276 472.9 331.016 471.495 331.398 469.975C331.78 468.456 331.792 466.868 331.433 465.343C330.587 461.628 326.731 461.315 323.36 462.302" fill="#FF8000"/>
<path d="M335.586 446.048C334.605 446.395 333.716 446.963 332.988 447.708C332.259 448.452 331.711 449.354 331.386 450.343C330.9 452.113 330.9 453.981 331.386 455.75C331.779 456.661 332.35 457.484 333.066 458.171C333.782 458.857 334.629 459.393 335.555 459.747L335.586 446.048Z" fill="#FF8000"/>
<path d="M94.9552 393.883C91.2932 391.53 88.3732 388.187 86.5338 384.242C84.6943 380.297 84.0108 375.911 84.5625 371.594C81.4274 370.731 78.6058 373.741 76.8815 376.5C71.3809 385.299 67.7968 395.158 66.3633 405.435L72.9784 399.729C71.1619 407.958 70.6644 416.424 71.5048 424.809L77.5398 415.796C77.208 418.648 77.4669 421.538 78.3002 424.286C79.1335 427.034 80.5235 429.581 82.3836 431.768C82.1432 424.453 81.8975 417.165 81.6467 409.902C78.5839 410.92 75.8684 412.778 73.8091 415.263C73.5277 408.359 74.2298 401.451 75.894 394.745L69.812 397.488C71.2465 390.657 74.539 384.354 79.3268 379.274C80.9604 384.515 83.661 389.36 87.2586 393.507C89.5675 395.85 92.3169 397.714 95.3486 398.992C98.3804 400.27 101.635 400.936 104.925 400.952C109.8 400.952 119.832 399.385 121.274 393.742C121.274 391.641 113.342 396.532 109.674 396.986C104.529 397.655 99.309 396.549 94.8768 393.852" fill="#F86775"/>
<path d="M139.74 380.638C144.349 387.911 149.146 395.732 149.005 404.353C149.025 404.644 148.971 404.936 148.848 405.2C148.346 406.046 147.029 405.545 146.293 404.886C145.795 404.471 145.215 404.165 144.591 403.989C143.967 403.814 143.313 403.772 142.672 403.868C142.248 407.582 142.672 411.344 142.53 415.075C141.935 426.251 136.166 432.881 137.436 432.787C138.784 433.242 140.085 432.066 140.916 430.906C144.976 425.216 145.619 417.849 146.387 410.905C146.392 410.504 146.524 410.115 146.763 409.793C147.625 408.868 149.146 410.231 150.368 409.965C151.591 409.699 151.81 408.398 151.936 407.332C152.576 402.263 151.885 397.114 149.929 392.394C148.79 389.983 147.453 387.671 145.932 385.481C144.067 382.628 139.662 379.055 138.392 379.055C138.627 379.65 139.427 380.136 139.756 380.622" fill="#F86775"/>
<path d="M181.233 420.953C183.772 421.58 178.349 415.686 177.173 413.209C175.707 410.096 174.399 406.91 173.254 403.664C172.706 403.287 172.141 404.322 171.483 404.306C170.825 404.291 170.699 403.538 170.652 402.974C170.111 398.481 169.912 393.954 170.056 389.431C170.354 385.889 171.075 382.299 171.467 378.71C171.891 374.885 173.521 371.421 171.796 367.973C170.401 365.183 167.266 364.305 164.993 362.189C172.257 355.484 178.703 347.945 184.196 339.727C187.331 334.743 190.466 329.633 193.475 324.664C194.745 322.61 196.046 320.118 194.087 318.692C191.832 317.045 189.817 315.093 188.099 312.892L194.369 312.485C194.7 312.494 195.027 312.407 195.309 312.234C195.983 311.732 195.576 310.666 195.09 309.961C192.741 306.743 189.6 304.187 185.972 302.539C182.344 300.891 178.352 300.208 174.383 300.556C176.109 296.914 177.064 292.954 177.189 288.926C173.013 293.525 167.552 296.763 161.514 298.221C160.479 298.315 159.852 298.581 160.307 298.926C163.972 299.363 167.674 298.48 170.746 296.434L170.495 303.581C175.663 302.869 180.925 303.407 185.842 305.149C188.271 306.011 190.873 307.516 191.391 310.039C190.214 310.188 189.024 310.188 187.848 310.039C186.657 310.039 185.293 310.917 185.434 312.093C185.561 312.628 185.845 313.114 186.249 313.488L189.964 317.673C190.45 318.222 190.654 318.425 191.093 318.99C191.38 319.406 191.568 319.882 191.641 320.382C191.714 320.882 191.672 321.393 191.516 321.874C191.198 322.833 190.733 323.738 190.137 324.554L183.051 335.401C182.894 335.87 182.711 336.331 182.503 336.78C180.127 340.387 177.509 343.828 174.665 347.078C171.53 350.637 168.128 354.085 164.993 357.612C164.037 358.693 162.752 359.885 161.749 360.919C160.996 361.703 160.181 362.91 160.886 363.756C161.194 364.061 161.579 364.278 161.999 364.383C164.509 365.284 166.767 366.773 168.583 368.725C169.539 369.76 168.583 375.716 168.489 377.142C168.301 379.854 167.737 382.487 167.423 385.183C166.718 391.453 166.796 397.848 166.53 404.118C166.53 405.137 166.859 410.545 169.868 407.99C170.307 407.614 170.84 407.049 171.436 407.316C171.688 407.485 171.867 407.742 171.938 408.037C173.654 413.177 176.896 417.672 181.233 420.921V420.921" fill="#F86775"/>
<path d="M286.162 347.502C286.713 346.548 287.119 345.518 287.37 344.445C289.281 337.639 290.752 330.718 291.774 323.723C291.853 323.175 292.119 322.485 292.652 322.532C294.22 331.498 291.523 340.636 288.326 349.179C287.833 351.13 286.646 352.836 284.987 353.975C284.156 354.372 283.242 354.566 282.322 354.54C278.842 354.54 275.19 351.969 275.111 348.489C275.111 346.671 283.278 352.345 286.162 347.517" fill="#F86775"/>
<path d="M294.266 320.965C301.457 325.409 307.279 331.756 311.086 339.304C311.771 340.493 312.178 341.822 312.277 343.191L305.709 342.658C303.374 342.172 307.747 346.467 309.001 348.16C312.833 353.195 316.024 358.686 318.5 364.508C321.777 371.891 323.203 380.794 324.347 388.741L321.212 387.879C321.808 390.591 326.432 393.506 326.73 392.456C328.924 376.343 322.121 361.029 312.936 347.596C314.002 347.893 315.209 347.956 316.259 348.254C315.538 341.185 312.23 335.526 308.014 329.789C306.007 327.123 303.721 324.68 301.195 322.501C298.944 320.468 296.071 319.258 293.044 319.068C291.132 319.068 293.624 320.526 294.313 320.965" fill="#F86775"/>
<path d="M142.781 262.827C142.806 263.209 142.869 263.587 142.97 263.956C143.044 264.147 143.184 264.305 143.366 264.4C143.548 264.495 143.758 264.521 143.957 264.473C144.146 264.385 144.301 264.236 144.396 264.05C144.874 263.318 145.13 262.463 145.133 261.589C145.128 261.154 145.043 260.724 144.882 260.32C144.764 260.066 144.563 259.859 144.313 259.734C144.062 259.608 143.777 259.572 143.503 259.63C141.073 259.834 142.64 262.091 142.781 262.765" fill="#2B2729"/>
<path d="M146.84 257.059C146.915 257.272 147.045 257.461 147.216 257.608C147.309 257.683 147.421 257.732 147.54 257.749C147.659 257.765 147.78 257.749 147.89 257.702C147.99 257.641 148.071 257.555 148.125 257.451C148.519 256.807 148.644 256.034 148.474 255.298C148.304 254.563 147.853 253.923 147.216 253.517C145.994 252.937 144.41 253.924 145.539 255.084C145.866 255.329 146.157 255.619 146.401 255.946C146.579 256.322 146.731 256.71 146.856 257.106" fill="#2B2729"/>
<path d="M150.43 264.787C150.478 265.251 150.478 265.718 150.43 266.182C150.371 266.424 150.371 266.677 150.43 266.919C150.484 267.049 150.573 267.163 150.686 267.248C150.799 267.334 150.932 267.388 151.073 267.405C151.22 267.403 151.365 267.372 151.5 267.313C151.635 267.254 151.756 267.168 151.856 267.06C152.269 266.7 152.57 266.23 152.726 265.706C152.881 265.181 152.884 264.623 152.734 264.097C152.656 263.835 152.528 263.59 152.358 263.376C152.024 262.986 151.564 262.725 151.057 262.639C150.508 262.545 149.803 262.733 149.787 263.266C149.772 263.799 150.32 264.27 150.383 264.834" fill="#2B2729"/>
<path d="M191.469 247.702C192.426 244.523 194.308 241.702 196.877 239.598C197.903 238.879 199.062 238.371 200.286 238.102C201.51 237.833 202.776 237.809 204.009 238.031C204.495 238.125 205.122 238.564 204.84 238.971C204.72 239.117 204.554 239.216 204.37 239.253C201.899 240.055 199.654 241.43 197.817 243.266C196.124 244.928 193.412 248.423 190.607 257.013C190.474 257.536 190.178 258.003 189.76 258.345C187.503 259.912 189.086 254.912 189.259 254.27C189.875 252.023 190.601 249.808 191.437 247.624" fill="#2B2729"/>
<path d="M169.946 271.433C168.211 273.874 165.929 275.876 163.284 277.279C162.656 277.781 161.859 278.023 161.058 277.954C160.791 277.53 161.262 277.013 161.324 276.496C161.332 276.255 161.268 276.017 161.139 275.813C161.011 275.609 160.824 275.448 160.603 275.352C160.156 275.168 159.676 275.077 159.193 275.085C158.471 275.085 155.572 275.242 155.509 274.333C155.446 273.424 158.189 273.314 158.942 273.235C161.136 273 163.503 272.577 165.337 272.232C168.613 271.605 170.181 270.743 169.946 271.433" fill="#2B2729"/>
<path d="M250.674 397.817C250.204 397.936 249.78 398.194 249.458 398.558C249.137 398.921 248.932 399.373 248.872 399.855C248.843 400.019 248.849 400.188 248.889 400.35C248.93 400.512 249.004 400.664 249.107 400.795C249.266 400.933 249.456 401.03 249.66 401.079C249.865 401.128 250.078 401.127 250.282 401.077C250.63 401.04 250.965 400.928 251.265 400.75C251.565 400.571 251.824 400.33 252.022 400.043C252.196 399.743 252.265 399.395 252.22 399.052C252.174 398.709 252.017 398.39 251.771 398.146C251.441 397.931 251.053 397.822 250.658 397.833" fill="#FF8000"/>
<path d="M267.008 394.572H266.052C265.746 394.549 265.438 394.581 265.143 394.666C264.999 394.712 264.868 394.793 264.764 394.903C264.66 395.013 264.585 395.147 264.547 395.293C264.532 395.448 264.559 395.604 264.625 395.745C264.691 395.886 264.794 396.006 264.923 396.093C265.183 396.265 265.477 396.377 265.786 396.422C266.488 396.625 267.241 396.546 267.886 396.202C268.067 396.091 268.209 395.927 268.293 395.732C268.343 395.595 268.352 395.447 268.318 395.305C268.285 395.163 268.211 395.034 268.105 394.933C267.785 394.69 267.395 394.558 266.993 394.557" fill="#FF8000"/>
<path d="M261.239 400.717C260.486 400.952 259.671 401.265 259.373 402.002C259.292 402.198 259.292 402.418 259.373 402.613C259.487 402.77 259.644 402.89 259.825 402.96C260.006 403.029 260.203 403.045 260.392 403.005C261.194 402.937 261.947 402.594 262.524 402.033C262.635 401.937 262.725 401.82 262.791 401.688C262.854 401.512 262.854 401.318 262.791 401.141C262.729 400.964 262.607 400.814 262.446 400.717C262.256 400.631 262.05 400.587 261.842 400.587C261.634 400.587 261.429 400.631 261.239 400.717" fill="#FF8000"/>
<path d="M273.671 403.93C273.145 403.843 272.606 403.891 272.104 404.071C271.681 404.259 271.367 404.478 271.352 404.933C271.365 405.169 271.444 405.397 271.579 405.591C271.715 405.785 271.902 405.937 272.12 406.03C272.557 406.212 273.025 406.308 273.499 406.312C274.11 406.312 274.847 406.312 275.192 405.858C275.325 405.64 275.381 405.383 275.349 405.13C275.318 404.877 275.202 404.641 275.02 404.463C274.647 404.112 274.152 403.92 273.64 403.93" fill="#FF8000"/>
<path d="M255.032 404.996C254.484 404.959 253.937 405.091 253.465 405.372C253.01 405.717 252.869 406.516 253.355 406.814C253.547 406.919 253.763 406.973 253.982 406.971C254.624 407.007 255.268 407.007 255.91 406.971C256.506 406.971 257.243 406.767 257.384 406.187C257.413 405.955 257.36 405.719 257.234 405.522C257.108 405.324 256.917 405.177 256.694 405.105C256.185 404.958 255.653 404.91 255.126 404.964" fill="#FF8000"/>
<path d="M258.262 393.695C257.822 393.566 257.354 393.566 256.914 393.695C256.555 393.809 256.248 394.048 256.051 394.369C255.879 394.698 255.848 395.09 256.193 395.262C256.511 395.403 256.85 395.493 257.196 395.529C257.745 395.646 258.317 395.603 258.842 395.403C258.968 395.346 259.081 395.264 259.174 395.162C259.267 395.061 259.339 394.941 259.384 394.81C259.43 394.68 259.448 394.541 259.438 394.403C259.429 394.266 259.391 394.131 259.328 394.008C259.004 393.798 258.632 393.673 258.246 393.648" fill="#FF8000"/>
<path d="M243.416 402.457C243.058 402.308 242.673 402.239 242.287 402.253C242.094 402.266 241.909 402.34 241.76 402.464C241.611 402.588 241.505 402.755 241.456 402.942C241.45 403.095 241.474 403.247 241.528 403.39C241.582 403.533 241.664 403.663 241.77 403.773C242.087 404.161 242.49 404.47 242.947 404.677C243.404 404.883 243.902 404.982 244.403 404.965C244.583 404.966 244.761 404.923 244.92 404.839C245.057 404.786 245.177 404.699 245.272 404.588C245.366 404.476 245.431 404.342 245.461 404.199C245.49 404.056 245.484 403.907 245.441 403.767C245.399 403.627 245.322 403.5 245.218 403.397C244.761 402.997 244.228 402.693 243.651 402.504" fill="#FF8000"/>
<path d="M279.125 398.616C278.649 398.509 278.151 398.57 277.714 398.789C277.61 398.847 277.519 398.926 277.445 399.02C277.372 399.115 277.318 399.223 277.288 399.338C277.257 399.454 277.25 399.574 277.267 399.693C277.283 399.811 277.324 399.925 277.385 400.027C277.618 400.252 277.924 400.385 278.247 400.403L278.843 400.497C279.265 400.6 279.706 400.6 280.128 400.497C280.337 400.44 280.518 400.311 280.641 400.133C280.764 399.956 280.821 399.741 280.802 399.525C280.677 398.945 279.799 398.71 279.125 398.616" fill="#FF8000"/>
<path d="M265.441 409.04C264.929 409.011 264.417 409.107 263.952 409.322C263.721 409.434 263.538 409.626 263.437 409.862C263.336 410.098 263.324 410.363 263.403 410.607C263.669 411.219 264.516 411.219 265.174 411.14H265.598C265.97 411.117 266.333 411.015 266.663 410.842C266.838 410.742 266.981 410.595 267.075 410.418C267.169 410.24 267.211 410.04 267.197 409.839C267.135 409.687 267.037 409.551 266.911 409.445C266.785 409.338 266.636 409.264 266.475 409.228C266.151 409.127 265.811 409.084 265.472 409.102" fill="#FF8000"/>
<path d="M196.548 251.354C195.78 249.786 200.028 251.793 201.376 256.323C201.459 256.886 201.607 257.438 201.815 257.968C201.94 258.225 202.152 258.428 202.413 258.543C202.674 258.658 202.968 258.676 203.241 258.595C203.475 258.474 203.674 258.297 203.821 258.078L207.63 253.376C208.132 252.749 208.916 252.043 209.637 252.404C210.035 252.675 210.311 253.091 210.405 253.564L211.314 256.276C211.329 256.364 211.362 256.448 211.411 256.523C211.459 256.599 211.522 256.664 211.596 256.714C211.878 256.856 212.176 256.573 212.364 256.323C214.59 253.423 217.678 250.648 221.331 250.805C222.757 251.275 218.963 254.379 216.957 257.53C215.901 258.611 214.665 259.502 213.305 260.163C207.685 263.814 201.273 266.066 194.604 266.731C193.929 266.767 193.252 266.698 192.598 266.527C192.127 265.79 191.986 265.273 193.287 264.129C194.569 262.69 195.583 261.034 196.281 259.238C196.914 258.037 197.267 256.707 197.313 255.35C197.36 253.993 197.098 252.643 196.548 251.401" fill="#FE330A"/>
<path d="M275.347 263.235C273.168 230.099 265.377 213.265 264.17 210.616C262.352 206.843 259.968 203.37 257.101 200.318C254.499 199.863 252.586 199.314 249.984 198.86C246.692 198.28 241.41 196.493 236.018 189.925C234.748 188.358 233.321 184.768 234.685 184.831C237.412 184.774 240.09 184.105 242.523 182.872C237.523 178.994 231.838 176.091 225.766 174.313C210.486 168.88 193.767 169.091 178.63 174.909C173.628 176.902 168.985 179.697 164.883 183.185C161.511 185.936 158.687 189.296 156.559 193.092C150.477 204.722 150.634 225.35 149.662 232.012C153.221 229.277 155.733 225.404 156.779 221.039C157.792 218.074 158.496 215.011 158.879 211.901C177.564 208.656 197.973 210.224 216.878 211.901C217.725 207.924 219.096 204.076 220.954 200.459C222.349 198.719 220.624 209.707 221.063 212.544C225.462 213.901 229.429 216.387 232.569 219.754C237.271 226.024 236.237 238.673 234.575 241.385C232.099 245.41 228.856 248.909 225.029 251.683C217.599 256.385 209.056 258.784 201.689 263.862C194.184 268.815 187.737 275.208 182.721 282.672C181.721 284.175 181.019 285.857 180.652 287.625C180.652 288.816 182.565 294.788 183.787 294.678C189.697 276.559 201.03 265.351 214.574 260.571C209.181 266.433 201.328 271.088 194.556 285.258C192.457 289.876 191.28 294.86 191.092 299.929C201.814 305.118 211.156 304.632 222.96 303.064C234.763 301.497 246.097 297.421 257.195 293.111C264.296 290.352 268.748 284.584 273.764 278.847C276.648 275.524 275.613 267.436 275.331 263.376" fill="black"/>
<path d="M145.712 278.299C145.603 279.105 145.688 279.925 145.961 280.691C146.234 281.458 146.686 282.147 147.28 282.703C147.723 283.04 148.123 283.429 148.471 283.863C149.317 285.148 148.471 286.81 148.471 288.346C148.471 288.895 148.581 289.569 149.098 289.71C149.615 289.851 150.227 289.098 150.446 288.471C150.958 287.019 151.517 285.587 152.123 284.176C152.39 283.534 152.75 282.813 153.424 282.609C154.349 282.327 155.54 283.095 156.214 282.405C156.336 282.27 156.427 282.109 156.481 281.935C156.983 280.477 156.011 278.957 155.102 277.719C154.555 276.898 153.89 276.164 153.127 275.54C152.52 275.003 151.779 274.642 150.982 274.495C150.186 274.348 149.365 274.422 148.607 274.707C147.849 274.992 147.183 275.479 146.681 276.115C146.18 276.75 145.861 277.511 145.759 278.314" fill="#FF8000"/>
<path d="M143.752 278.596C143.777 279.082 143.952 279.547 144.254 279.928C144.58 280.154 144.958 280.293 145.352 280.334C145.747 280.375 146.145 280.317 146.511 280.164C146.747 278.108 146.794 276.036 146.652 273.972C145.398 273.753 144.348 273.376 143.047 273.063C143.188 274.928 143.486 276.747 143.752 278.596Z" fill="#F2F2F2"/>
<path d="M148.612 281.041C148.599 281.098 148.599 281.157 148.612 281.214C148.651 281.26 148.699 281.296 148.753 281.32C148.807 281.345 148.866 281.357 148.926 281.355C149.195 281.419 149.475 281.422 149.746 281.365C150.017 281.308 150.273 281.192 150.494 281.026C150.686 280.8 150.82 280.531 150.885 280.242C151.479 278.245 151.95 276.214 152.296 274.16H148.314C148.314 275.414 148.55 279.145 148.628 281.057" fill="#F2F2F2"/>
<path d="M219.685 369.524C223.268 370.463 226.953 370.957 230.657 370.998C239.608 370.998 245.079 368.38 245.564 369.509C245.535 369.821 245.427 370.12 245.252 370.38C245.077 370.641 244.839 370.853 244.561 370.998C240.938 372.909 236.93 373.98 232.836 374.133C227.859 374.456 222.862 374.304 217.913 373.678C215.082 373.208 212.311 372.425 209.652 371.342C208.7 371.044 207.842 370.504 207.16 369.775C206.885 369.401 206.689 368.974 206.587 368.521C206.484 368.067 206.477 367.598 206.564 367.142C206.58 366.69 206.728 366.254 206.99 365.886C207.252 365.518 207.616 365.235 208.038 365.073C208.789 364.921 209.569 365.049 210.232 365.433C213.206 367.122 216.361 368.468 219.637 369.446" fill="#999999"/>
<path d="M38 450C53.2051 446.019 82.5248 437.709 97.5261 435.671C99.2974 438.806 98.3256 446.91 97.8554 450.468C97.0873 456.377 99.031 463.587 104.298 466.895C109.355 470.053 115.074 472 121.008 472.585C121.996 472.593 122.968 472.834 123.845 473.29C125.71 474.497 125.569 477.209 125.209 479.403H38.2734L38 450Z" fill="#FF8000"/>
<path d="M119.519 358.897C120.743 358.161 122.047 357.567 123.406 357.126C124.24 356.927 125.09 356.801 125.945 356.75C128.777 356.51 131.615 356.368 134.457 356.327C136.15 356.327 134.144 357.298 133.658 357.502C130.679 358.756 127.199 358.129 124.252 359.305C123.258 359.764 122.295 360.288 121.368 360.872C119.662 361.803 117.852 362.529 115.976 363.035C115.286 363.223 110.505 364.603 110.207 363.803C109.518 362.032 118.547 359.54 119.613 358.991" fill="#2B2729"/>
<path d="M228.102 321.059C230.344 320.259 232.805 320.212 235.046 319.491C236.959 318.896 242.116 317.344 240.156 316.356C237.868 316.356 235.893 317.924 233.667 318.347C232.074 318.524 230.473 318.613 228.87 318.614C227.093 318.817 225.402 319.493 223.975 320.57C222.547 321.648 221.434 323.089 220.751 324.742C220.5 325.385 220.296 326.968 221.456 326.811C222.083 326.733 222.741 325.056 223.118 324.57C224.415 322.928 226.148 321.685 228.118 320.98" fill="#2B2729"/>
<path d="M249.342 320.369C249.545 320.761 249.091 321.169 248.699 321.388C246.066 322.767 242.899 323.347 240.861 325.495C240.098 326.359 239.45 327.317 238.933 328.347C238.573 329.006 237.632 330.197 237.272 329.601C236.551 327.141 239.764 324.335 241.535 323.049C242.673 322.229 243.925 321.58 245.25 321.122C245.674 320.98 249.138 319.93 249.357 320.385" fill="#2B2729"/>
<path d="M269.846 314.601C269.919 314.753 269.939 314.926 269.902 315.091C269.865 315.256 269.773 315.403 269.642 315.51C269.376 315.716 269.064 315.855 268.733 315.918L262.698 317.61C262.007 317.848 261.281 317.965 260.55 317.955C260.033 317.266 263.999 315.98 264.328 315.855C264.94 315.62 269.391 313.943 269.846 314.601" fill="#2B2729"/>
<path d="M119.801 377.612C119.527 377.779 119.283 377.991 119.08 378.239C118.978 378.364 118.907 378.512 118.874 378.671C118.842 378.829 118.848 378.993 118.892 379.148C118.904 379.202 118.932 379.251 118.97 379.289H119.111C119.797 379.368 120.487 379.195 121.055 378.804C121.931 378.348 122.77 377.824 123.563 377.236C124.211 376.809 124.749 376.234 125.131 375.559C125.026 375.205 124.895 374.859 124.739 374.524C124.037 374.927 123.357 375.367 122.701 375.841C121.698 376.39 120.694 376.954 119.738 377.612" fill="#2B2729"/>
<path d="M117.795 257.326C117.013 258.296 116.602 259.513 116.635 260.758C116.608 261.568 116.888 262.357 117.418 262.969C117.685 263.235 117.904 262.091 118.249 261.95C119.252 261.527 119.691 262.859 120.052 263.674C120.307 264.527 120.67 265.343 121.133 266.104C121.698 266.793 122.889 267.107 123.438 266.401C123.986 265.696 123.641 264.646 123.971 263.752C124.159 263.251 124.535 262.185 125.35 262.295C127.043 262.577 125.648 265.539 126.275 265.555C128.3 265.531 130.245 264.767 131.746 263.408C132.751 262.754 133.515 261.791 133.925 260.664C134.113 260.026 134.121 259.348 133.946 258.706C133.772 258.064 133.422 257.483 132.937 257.028C132.283 256.417 131.509 255.95 130.664 255.656C129.819 255.362 128.922 255.247 128.031 255.319C126.777 255.319 124.018 256.087 122.826 255.696C121.929 255.37 120.95 255.348 120.039 255.631C119.128 255.914 118.334 256.487 117.779 257.263" fill="#2B2729"/>
<path d="M196.892 217.92C192.18 217.42 187.42 217.663 182.784 218.641C178.222 219.848 173.88 222.779 172.172 227.168C171.905 225.506 171.796 219.55 167.751 217.34C166.729 216.861 165.587 216.696 164.471 216.867C163.355 217.037 162.315 217.534 161.481 218.296C160.193 219.908 159.462 221.893 159.397 223.955C159.208 225.334 159.396 225.522 159.146 226.964C158.127 223.829 157.578 221.933 154.286 220.036C152.037 218.83 149.59 218.039 147.06 217.701C139.466 216.49 131.786 215.903 124.096 215.945C124.723 221.98 127.231 228.673 132.827 230.883C134.315 231.406 135.864 231.737 137.435 231.87C144.919 232.766 152.467 233.002 159.992 232.576C160.266 232.587 160.537 232.522 160.776 232.388C160.918 232.258 161.031 232.101 161.109 231.926C161.188 231.75 161.229 231.561 161.23 231.369C161.544 228.767 161.231 226.118 161.779 223.531C162.438 220.177 165.573 218.657 167.736 221.384C169.899 224.111 169.821 228.03 169.679 232.356C169.679 233.595 170.73 233.469 171.968 233.516C179.916 233.798 186.985 234.457 194.744 232.717C198.444 231.888 201.894 230.19 204.808 227.764C206.298 226.728 207.525 225.357 208.39 223.762C209.256 222.167 209.736 220.392 209.792 218.578L196.892 217.889" fill="#FE330A"/>
<path d="M238.793 308.159C238.571 308.044 238.39 307.864 238.275 307.642C238.16 307.42 238.117 307.168 238.151 306.92C237.999 304.026 238.172 301.124 238.668 298.268C238.711 297.929 238.847 297.609 239.06 297.343C239.362 297.076 239.755 296.936 240.157 296.951C241.668 296.98 243.152 297.35 244.499 298.033L248.152 299.6C248.996 299.803 249.731 300.319 250.209 301.044C250.686 301.768 250.87 302.648 250.722 303.503C250.785 304.904 250.848 306.304 250.91 307.704C250.91 307.704 245.361 312.939 245.205 312.955C244.437 312.955 243.23 311.513 242.665 311.058C241.396 310.071 240.079 309.13 238.778 308.174" fill="#F86775"/>
<path d="M244.232 313.08C243.967 313.608 243.847 314.197 243.886 314.787C243.925 315.377 244.12 315.945 244.451 316.434C244.991 316.95 245.697 317.255 246.442 317.296C248.455 317.416 250.465 317.028 252.289 316.168C254.842 315.139 257.276 313.836 259.547 312.281C260.125 311.936 260.622 311.471 261.004 310.917C261.611 309.992 261.851 308.874 261.678 307.782C261.574 307.409 261.362 307.075 261.07 306.821C260.777 306.568 260.416 306.406 260.032 306.356C254.358 305.18 246.489 306.998 244.216 313.017" fill="#F9838D"/>
</svg>
