<svg width="174" height="228" viewBox="0 0 174 228" fill="none" xmlns="http://www.w3.org/2000/svg">
<rect x="33.834" y="31.4167" width="30.2083" height="19.3333" fill="black"/>
<path d="M32.6253 61.6251L4 57L5 52.5L6 49.5L9.5 42.2917H32.6253V61.6251Z" fill="black"/>
<path d="M146.208 160.708L47.125 147.228L65.9291 105.125H146.208V160.708Z" fill="black"/>
<path fill-rule="evenodd" clip-rule="evenodd" d="M170.152 106.314C169.232 105.652 168.643 105.548 168.193 105.468C167.55 105.355 167.188 105.291 166.547 103.727C166.115 102.718 166.411 101.367 166.676 100.154C166.812 99.5313 166.941 98.9451 166.958 98.4605C167.141 93.1941 166.305 92.8386 160.818 92.5358C159.953 92.492 158.523 92.6807 156.628 92.9306C146.826 94.2236 124.586 97.1571 103.709 78.0531C98.1835 73.0042 94.3908 65.8282 90.848 59.1252L90.848 59.1251C89.9008 57.333 88.9715 55.5747 88.0317 53.8999L87.5402 53.0284C79.4135 38.6157 70.8533 23.4343 54.0651 19.227C36.1086 14.7374 20.5427 24.454 11.0386 39.5094C8.85297 42.9811 7.02121 46.6666 5.57129 50.5096C7.44234 49.9635 9.68231 49.3859 11.6471 48.8793C12.9267 48.5494 14.0896 48.2495 14.9578 48.0081C15.9195 47.7394 16.9884 47.2744 18.0961 46.7924C20.3816 45.7981 22.8323 44.7318 24.8473 45.1708C25.1935 46.8955 23.5866 50.5557 21.8818 51.0955C20.4447 51.5629 20.0463 50.5425 19.9222 48.7915C19.6199 48.8869 19.3249 48.9808 19.0354 49.0729L19.0354 49.0729C16.2909 49.946 14.044 50.6608 10.8296 51.0955C10.0783 51.1983 9.05813 51.4241 7.96423 51.6662C6.95618 51.8893 5.88553 52.1263 4.90502 52.2936C-0.32061 67.3096 -0.274886 83.5236 0.201953 95.8536C1.00539 116.584 9.60809 140.138 22.8028 156.286C29.3348 164.304 35.279 169.814 43.7053 176.127C68.5924 194.784 99.1754 193.796 115.002 189.609C135.33 184.231 151.967 173.468 159.362 159.808C162.966 153.148 165.324 148.894 166.909 146.035L166.909 146.035L166.909 146.035C169.673 141.05 170.084 140.308 170.649 138.446C170.901 137.602 171.162 136.777 171.421 135.961C172.364 132.988 173.271 130.128 173.543 126.879L173.587 126.357C174.087 120.505 175.001 109.808 170.152 106.314ZM54.0328 37.9756C52.9145 38.16 50.5913 38.9415 47.9987 39.8135C43.1861 41.4324 37.4456 43.3633 36.7621 42.3665C36.0436 39.7333 54.8363 34.7433 59.7026 34.1508C60.8131 40.3323 53.5691 44.0715 54.0328 37.9756ZM138.875 145.487C139.12 145.293 139.362 145.102 139.603 144.917L139.596 144.911C139.87 144.554 138.837 144.902 137.608 145.315C136.526 145.679 135.292 146.094 134.671 146.122C134.089 146.15 133.507 146.182 132.924 146.214C131.303 146.303 129.682 146.392 128.067 146.392C127.586 146.392 127.102 146.397 126.617 146.403C124.621 146.426 122.596 146.449 120.647 146.089C119.603 145.895 118.575 145.624 117.549 145.354C116.487 145.074 115.426 144.795 114.35 144.601C112.045 144.236 109.777 143.67 107.57 142.909C107.381 142.84 107.189 142.753 107.001 142.667C106.21 142.309 105.485 141.98 105.342 143.08C105.26 143.725 105.702 144.461 106.154 145.213C106.561 145.888 106.974 146.576 107.021 147.221C107.138 148.814 106.342 148.92 104.8 149.012C100.783 149.249 96.0405 146.063 92.9117 143.87C89.0447 141.158 85.4064 138.301 81.67 135.352C80.7555 134.628 79.8255 133.924 78.8944 133.219C76.853 131.672 74.8061 130.122 72.9041 128.354C70.1345 125.78 68.1357 122.285 66.6006 118.828C66.5805 118.783 66.5486 118.709 66.5064 118.612C65.8905 117.188 63.0873 110.711 62.91 113.003C65.5714 119.625 69.2625 125.778 73.8447 131.231C79.8215 138.327 86.1053 145.608 94.7929 149.262C95.7113 149.648 96.59 150.063 97.4566 150.472C99.8074 151.582 102.07 152.65 104.8 153.001C106.603 153.231 109.464 153.561 110.411 151.48C111.22 149.723 109.951 147.68 108.923 146.026C108.673 145.624 108.437 145.244 108.249 144.897C108.769 144.969 109.281 145.006 109.789 145.043C110.868 145.122 111.929 145.199 113.017 145.602C113.543 145.797 114.062 145.995 114.577 146.193C117.038 147.136 119.422 148.05 122.123 148.36C122.243 148.374 122.363 148.387 122.482 148.401C126.598 148.869 130.653 149.33 134.678 148.051C136.275 147.543 137.612 146.486 138.875 145.487Z" fill="white"/>
<path d="M30.893 33.859C26.7591 38.338 17.479 37.788 13.449 36.6878C7.66031 35.09 1.28106 31.5015 1.20967 24.0299C1.11233 14.1681 11.3918 10.9987 19.0884 13.3757C16.4926 -2.58261 38.1613 -4.64533 42.8987 9.26336C49.4532 5.29506 58.7852 13.0941 57.948 20.2973C52.5487 19.8455 49.226 20.6575 44.1252 23.7483C41.9382 25.058 34.2805 29.9234 30.9125 33.8851" fill="#B7433C"/>
<path d="M30.9405 56.7985C23.4652 59.7539 16.2047 63.2529 9.21421 67.269C5.28184 69.577 -1.23278 72.2889 4.99347 75.963C13.8216 81.1713 26.4642 78.9305 35.797 80.8483C37.7108 81.2318 38.2089 80.5657 36.0133 79.5899C34.3551 79.0112 32.2186 78.8767 30.4818 78.5873C27.9519 78.1634 24.6356 78.0894 21.6929 77.3155C14.4311 75.4112 12.6812 77.0531 6.54675 73.6145C4.7182 72.5849 18.2324 65.8895 21.0244 64.039C24.0982 62.0203 32.6642 57.2157 30.9143 56.7917" fill="#CC9E4F"/>
<path d="M17.6772 72.126C20.3584 71.8976 22.9431 70.8627 24.1454 70.777C26.2158 70.6271 28.9806 70.3345 30.7423 71.6335C32.2147 72.7184 34.3622 75.1095 35.886 72.6042C37.0562 70.7056 35.1595 68.8998 33.7257 68.1932C32.2918 67.4866 29.9193 67.5579 28.3376 68.0147C26.6016 68.4563 24.8461 68.797 23.0781 69.0354C19.3232 70.0418 15.0796 71.3908 15.7869 72.1189C16.3784 72.4187 17.0021 72.1189 17.6579 72.1189" fill="#CC9E4F"/>
<path d="M48.8526 192.22C43.0183 189.36 33.1529 176.282 29.5661 177.738C24.9583 179.61 44.689 193.175 41.7055 193.019C38.3309 192.22 27.0666 184.303 23.8445 186.714C18.1096 190.991 42.037 198.628 43.8735 199.317C39.1066 201.326 32.7684 200.617 28.0744 202.743C27.9285 203.112 27.7441 203.464 27.5241 203.796C30.9717 207.462 40.353 203.887 44.2448 203.003C49.4692 201.813 56.3643 199.935 60.1566 195.807C61.9003 192.22 54.5345 194.507 48.8393 192.22" fill="#CC9E4F"/>
<path d="M101.331 204.307C100.674 216.394 78.6922 215.253 78.541 218.893C79.5207 224.43 102.258 212.263 101.844 215.207C101.43 218.151 99.8713 219.702 97.6555 221.174C92.9541 224.35 88.8182 225.079 90.6264 226.73C95.2292 228.885 104.836 222.752 106.493 215.127C107.808 212.727 113.679 221.174 115.731 220.485C117.447 219.45 110.471 208.835 107.887 205.852C106.387 204.134 103.6 200.66 102.876 200.587C101.791 200.481 101.463 202.762 101.324 204.287" fill="#CC9E4F"/>
</svg>
