<svg width="493" height="147" viewBox="0 0 493 147" fill="none" xmlns="http://www.w3.org/2000/svg">
<path fill-rule="evenodd" clip-rule="evenodd" d="M29.3052 78.6015C22.2486 76.0381 16.1283 76.6914 14.9622 78.4085C4.45418 73.911 -5.12561 76.4821 3.10803 80.7565C-2.19511 80.6697 -0.0724487 84.0229 5.42117 85.7651C5.47404 85.7373 5.52707 85.7101 5.58028 85.6835C3.92599 89.1394 11.0851 93.9159 17.9057 98.4665L18.3489 98.7622C19.2024 99.3299 20.1199 99.9176 21.0549 100.517C24.5524 102.757 28.2965 105.156 29.8635 107.252C35.8034 115.182 25.3838 117.61 20.7915 118.68C19.9038 118.887 19.2338 119.043 18.9418 119.178C17.1095 120.043 17.0528 120.254 20.909 121.59C21.2641 121.712 21.7336 121.846 22.2323 121.987C23.2037 122.262 24.286 122.569 24.8506 122.892C25.7357 123.388 25.6466 123.457 25.4882 123.578C25.3772 123.663 25.232 123.775 25.3641 124.078C26.0656 125.676 34.1007 128.31 38.4966 129.751L38.889 129.88C41.327 130.681 43.7226 131.29 46.2131 131.924C46.897 132.098 47.5881 132.273 48.2892 132.456C49.8392 132.856 50.5269 132.989 55.145 133.882C57.7932 134.394 61.7341 135.156 67.871 136.361C80.4584 138.833 94.416 139.232 105.88 137.711C114.804 136.525 126.942 132.399 122.822 124.011C121.43 121.171 119.687 118.895 116.361 115.887C109.677 109.822 95.9498 102.5 81.3401 97.0255C73.5691 94.1139 63.4354 90.4488 52.2596 87.4655L52.522 87.2818L39.8451 84.3176L39.3838 84.4945C38.5104 84.3263 37.6375 84.1653 36.7661 84.0116C35.8057 83.8426 34.8524 83.6836 33.9084 83.5352C34.8372 82.2949 34.5218 80.4959 29.3052 78.6015ZM146.762 133.009L146.768 133.009C146.301 133.271 145.299 133.232 144.488 133.201C143.379 133.159 142.627 133.13 144.085 133.9C147.701 135.493 151.408 136.394 154.097 136.993C154.442 137.069 154.892 137.18 155.399 137.304C157.835 137.902 161.578 138.821 161.168 137.84C160.912 137.715 160.658 137.584 160.412 137.448C158.903 136.981 157.6 136.763 156.297 136.544C155.047 136.334 153.798 136.125 152.366 135.697C152.4 135.681 152.473 135.652 152.576 135.611C153.655 135.184 158.004 133.464 153.927 131.901C152.236 131.252 151.476 132.138 150.875 132.839C150.582 133.181 150.327 133.479 150.02 133.534C149.584 133.517 149.466 132.867 149.314 132.035C149.08 130.746 148.765 129.019 147.069 128.521C145.825 128.155 146.19 129.412 146.566 130.707C146.847 131.673 147.133 132.659 146.762 133.009ZM117.497 138.851L117.511 138.858C124.386 141.155 130.505 140.259 134.837 139.624C137.218 139.275 139.059 139.005 140.19 139.388C142.74 140.484 136.568 140.999 131.669 141.408C128.292 141.69 125.52 141.922 126.625 142.258C129.333 143.081 131.359 143.286 133.61 143.354C135.304 143.41 136.708 143.387 137.843 143.368C139.939 143.333 141.117 143.313 141.511 143.839C141.303 145.282 131.757 145.063 124.481 143.03C123.048 142.756 123.748 143.681 124.451 144.607C125.044 145.39 125.638 146.174 124.948 146.239C123.295 146.219 117.312 141.799 115.908 140.45C115.749 140.295 115.553 140.111 115.344 139.915C114.497 139.118 113.424 138.109 113.633 137.992C114.026 137.774 116.128 138.411 117.497 138.851Z" fill="#1C1C1C"/>
<rect width="12.203" height="7.09597" transform="matrix(-1 0 0 1 159.332 74.5308)" fill="black"/>
<path d="M159.82 85.6178L172.023 83.8971L169.706 78.522H159.82V85.6178Z" fill="black"/>
<path d="M113.937 121.984L153.963 117.037L146.367 101.584H113.937V121.984Z" fill="black"/>
<path fill-rule="evenodd" clip-rule="evenodd" d="M104.265 102.02C104.637 101.777 104.875 101.739 105.057 101.71C105.317 101.668 105.463 101.645 105.722 101.071C105.896 100.7 105.777 100.204 105.669 99.7593C105.614 99.5308 105.563 99.3156 105.555 99.1378C105.482 97.2048 105.819 97.0744 108.036 96.9632C108.385 96.9472 108.963 97.0164 109.729 97.1081C113.688 97.5827 122.672 98.6594 131.106 91.6477C133.338 89.7946 134.87 87.1608 136.301 84.7006C136.684 84.0428 137.059 83.3975 137.439 82.7827L137.637 82.4629C140.92 77.173 144.378 71.601 151.16 70.0568C158.414 68.409 164.702 71.9752 168.541 77.501C169.424 78.7752 170.164 80.1279 170.749 81.5384C169.994 81.338 169.089 81.126 168.295 80.9401L168.295 80.9401C167.778 80.819 167.308 80.7089 166.958 80.6203C166.569 80.5217 166.137 80.351 165.69 80.1741C164.767 79.8091 163.777 79.4178 162.963 79.5789C162.823 80.212 163.472 81.5553 164.161 81.7535C164.741 81.925 164.902 81.5505 164.952 80.9078C165.074 80.9428 165.193 80.9772 165.31 81.011L165.31 81.0111L165.31 81.0111C166.419 81.3316 167.327 81.5939 168.625 81.7535C168.929 81.7912 169.341 81.8741 169.783 81.9629C170.19 82.0448 170.622 82.1318 171.019 82.1932C173.13 87.7045 173.111 93.6555 172.918 98.181C172.594 105.789 169.119 114.434 163.789 120.361C161.15 123.304 158.749 125.327 155.345 127.644C145.291 134.491 132.937 134.129 126.544 132.592C118.332 130.618 111.611 126.668 108.624 121.654C107.168 119.209 106.216 117.648 105.575 116.599L105.575 116.599C104.459 114.769 104.293 114.497 104.065 113.814C103.963 113.504 103.857 113.201 103.752 112.901C103.372 111.81 103.005 110.761 102.896 109.568L102.878 109.377C102.676 107.229 102.306 103.303 104.265 102.02ZM153.613 77.6127L153.613 77.6127C155.557 78.2069 157.876 78.9156 158.152 78.5497C158.442 77.5832 150.85 75.7518 148.885 75.5343C148.436 77.8031 151.362 79.1755 151.175 76.9381C151.627 77.0058 152.565 77.2926 153.613 77.6127ZM116.901 116.398C116.802 116.327 116.705 116.257 116.607 116.189L116.61 116.186C116.499 116.055 116.917 116.183 117.413 116.335C117.85 116.468 118.349 116.621 118.599 116.631C118.835 116.641 119.07 116.653 119.305 116.665C119.96 116.697 120.615 116.73 121.267 116.73C121.461 116.73 121.657 116.732 121.853 116.734C122.659 116.742 123.477 116.751 124.265 116.619C124.686 116.548 125.101 116.448 125.516 116.349C125.945 116.247 126.374 116.144 126.808 116.073C127.739 115.939 128.656 115.731 129.547 115.452C129.624 115.426 129.701 115.394 129.777 115.363C130.096 115.232 130.39 115.111 130.447 115.515C130.481 115.751 130.302 116.022 130.119 116.297C129.955 116.545 129.788 116.798 129.769 117.034C129.722 117.619 130.043 117.658 130.666 117.692C132.289 117.779 134.205 116.609 135.469 115.805C137.031 114.809 138.5 113.761 140.01 112.678C140.379 112.412 140.755 112.154 141.131 111.895C141.956 111.328 142.783 110.759 143.551 110.11C144.67 109.165 145.477 107.882 146.097 106.614C146.105 106.597 146.118 106.57 146.135 106.534C146.384 106.011 147.517 103.634 147.588 104.475C146.513 106.906 145.022 109.164 143.171 111.166C140.757 113.77 138.218 116.442 134.709 117.783C134.338 117.925 133.983 118.078 133.633 118.228C132.683 118.635 131.769 119.027 130.666 119.156C129.938 119.24 128.782 119.361 128.4 118.598C128.073 117.953 128.586 117.203 129.001 116.596C129.102 116.448 129.197 116.309 129.273 116.182C129.063 116.208 128.856 116.221 128.651 116.235C128.215 116.264 127.786 116.292 127.347 116.44C127.134 116.512 126.925 116.584 126.717 116.657C125.722 117.003 124.759 117.339 123.668 117.452C123.62 117.457 123.572 117.462 123.523 117.467C121.861 117.639 120.222 117.808 118.597 117.339C117.951 117.153 117.412 116.765 116.901 116.398Z" fill="white"/>
<path d="M160.521 75.4272C162.19 77.0712 165.939 76.8693 167.567 76.4655C169.906 75.8791 172.483 74.562 172.511 71.8197C172.551 68.2001 168.398 67.0368 165.289 67.9093C166.338 62.0521 157.584 61.295 155.671 66.3999C153.023 64.9434 149.253 67.8059 149.591 70.4497C151.772 70.2839 153.115 70.5819 155.175 71.7163C156.059 72.197 159.152 73.9828 160.513 75.4368" fill="#B7433C"/>
<path d="M160.501 83.8465C163.52 84.9312 166.453 86.2154 169.277 87.6894C170.866 88.5365 173.497 89.5319 170.982 90.8804C167.416 92.792 162.309 91.9695 158.539 92.6734C157.766 92.8142 157.565 92.5697 158.451 92.2116C159.121 91.9992 159.984 91.9498 160.686 91.8436C161.708 91.688 163.048 91.6608 164.236 91.3768C167.17 90.6778 167.877 91.2805 170.355 90.0184C171.093 89.6405 165.634 87.1831 164.506 86.5039C163.265 85.763 159.804 83.9996 160.511 83.844" fill="#CC9E4F"/>
<path d="M165.859 89.4724C164.776 89.3885 163.732 89.0087 163.246 88.9772C162.41 88.9222 161.293 88.8148 160.581 89.2916C159.987 89.6898 159.119 90.5674 158.504 89.6479C158.031 88.951 158.797 88.2883 159.376 88.0289C159.955 87.7696 160.914 87.7958 161.553 87.9634C162.254 88.1255 162.963 88.2505 163.677 88.338C165.194 88.7074 166.909 89.2025 166.623 89.4697C166.384 89.5798 166.132 89.4697 165.867 89.4697" fill="#CC9E4F"/>
<path d="M153.267 133.55C155.623 132.5 159.609 127.7 161.058 128.235C162.919 128.922 154.948 133.901 156.154 133.843C157.517 133.55 162.067 130.644 163.369 131.529C165.686 133.099 156.02 135.902 155.278 136.155C157.204 136.892 159.764 136.632 161.66 137.412C161.719 137.548 161.794 137.677 161.882 137.799C160.49 139.144 156.7 137.832 155.128 137.508C153.017 137.071 150.232 136.382 148.7 134.867C147.996 133.55 150.971 134.39 153.272 133.55" fill="#CC9E4F"/>
<path d="M132.065 137.986C132.331 142.422 141.21 142.004 141.271 143.34C140.876 145.372 131.691 140.906 131.858 141.987C132.025 143.067 132.655 143.637 133.55 144.177C135.449 145.343 137.12 145.61 136.389 146.216C134.53 147.007 130.649 144.756 129.98 141.958C129.449 141.077 127.077 144.177 126.248 143.924C125.555 143.544 128.373 139.648 129.417 138.553C130.023 137.923 131.149 136.648 131.441 136.621C131.879 136.582 132.012 137.419 132.068 137.979" fill="#CC9E4F"/>
<path fill-rule="evenodd" clip-rule="evenodd" d="M167.265 60C156.048 46.1334 147.421 10.0228 178.447 2.16251C187.437 -0.115233 206.796 2.4936 234.01 2.16251C251.234 1.95296 270.494 0.0920324 291.183 0.0684339C313.421 0.0430696 336.66 0.809696 359.112 1.40234C373.665 1.78646 386.995 -0.409542 400.235 0.0684339C421.161 0.823855 440.582 4.33393 454.508 5.41321C510.106 10.0856 512.365 48.9293 415.283 43.6513C357.789 40.3751 317.492 43.0977 274.071 45.4618C252.092 48.5985 182.263 40.7657 167.265 60Z" fill="white"/>
</svg>
