<svg width="368" height="611" viewBox="0 0 368 611" fill="none" xmlns="http://www.w3.org/2000/svg">
<rect x="91.002" y="84.4995" width="81.25" height="52" fill="black"/>
<path d="M87.7501 165.751L10.7578 153.311L13.4475 141.208L16.1371 133.139L25.5509 113.751H87.7501V165.751Z" fill="black"/>
<path d="M393.25 432.25L126.75 395.993L177.327 282.75H393.25V432.25Z" fill="black"/>
<path fill-rule="evenodd" clip-rule="evenodd" d="M457.651 285.948C455.176 284.168 453.592 283.888 452.38 283.674C450.651 283.368 449.679 283.196 447.953 278.99C446.793 276.275 447.588 272.641 448.301 269.38L448.301 269.379C448.668 267.705 449.013 266.128 449.06 264.825C449.552 250.66 447.303 249.704 432.546 248.889C430.217 248.772 426.371 249.279 421.275 249.951C394.911 253.429 335.093 261.319 278.94 209.936C264.08 196.356 253.879 177.055 244.35 159.026C241.802 154.206 239.303 149.477 236.775 144.972C236.335 144.192 235.894 143.41 235.453 142.628C213.595 103.863 190.571 63.0301 145.417 51.7141C97.1196 39.6385 55.2528 65.7727 29.69 106.267C23.8114 115.604 18.8846 125.517 14.9848 135.853C20.0173 134.384 26.042 132.831 31.3266 131.469C34.7683 130.581 37.8962 129.775 40.2314 129.125C42.818 128.403 45.693 127.152 48.6724 125.856C54.8196 123.181 61.411 120.313 66.8307 121.494C67.7619 126.133 63.4399 135.977 58.8544 137.429C54.9893 138.686 53.9176 135.942 53.5838 131.232C52.7713 131.489 51.9784 131.741 51.2003 131.989L51.1987 131.989C43.8169 134.337 37.7734 136.26 29.1278 137.429C27.1072 137.706 24.3632 138.313 21.421 138.964C18.7097 139.564 15.83 140.202 13.1928 140.652C-0.86233 181.039 -0.739347 224.65 0.543184 257.813C2.70416 313.57 25.8424 376.922 61.3317 420.355C78.9006 441.921 94.8883 456.741 117.552 473.721C184.49 523.901 266.748 521.245 309.317 509.984C363.992 495.518 408.74 466.568 428.628 429.828C438.322 411.915 444.665 400.473 448.928 392.784C456.361 379.376 457.468 377.379 458.987 372.372C459.664 370.102 460.368 367.884 461.064 365.688L461.064 365.687C463.6 357.691 466.039 350 466.77 341.262C466.808 340.81 466.848 340.344 466.889 339.867L466.889 339.857C468.235 324.117 470.693 295.346 457.651 285.948ZM119.69 129.104C110.279 129.104 99.8289 124.352 98.8784 113.952C97.9278 103.551 156.001 86.0687 160.58 91.8543C166.762 111.622 133.141 129.104 119.69 129.104ZM373.527 391.31C374.185 390.79 374.836 390.275 375.484 389.778L375.466 389.76C376.204 388.8 373.423 389.736 370.12 390.847C367.208 391.827 363.89 392.943 362.219 393.018C360.654 393.093 359.087 393.179 357.52 393.265C353.161 393.504 348.799 393.744 344.457 393.744C343.164 393.744 341.862 393.759 340.556 393.774C335.188 393.835 329.741 393.898 324.499 392.929C321.692 392.407 318.928 391.679 316.166 390.953C313.31 390.201 310.456 389.45 307.562 388.928C301.364 387.946 295.262 386.424 289.326 384.377C288.818 384.19 288.302 383.956 287.795 383.726C285.67 382.763 283.718 381.878 283.335 384.838C283.113 386.572 284.304 388.552 285.519 390.573C286.612 392.39 287.725 394.24 287.85 395.975C288.166 400.26 286.023 400.543 281.876 400.791C271.072 401.428 258.316 392.858 249.901 386.962C239.5 379.667 229.714 371.983 219.665 364.051C217.205 362.104 214.704 360.209 212.199 358.312C206.709 354.154 201.203 349.984 196.087 345.229C188.638 338.306 183.262 328.904 179.133 319.608C179.079 319.486 178.993 319.287 178.88 319.025C177.223 315.197 169.684 297.774 169.207 303.938C176.365 321.751 186.293 338.301 198.617 352.967C214.693 372.054 231.594 391.637 254.961 401.464C257.431 402.503 259.794 403.619 262.125 404.719C268.448 407.704 274.534 410.576 281.876 411.521C286.725 412.14 294.421 413.026 296.968 407.431C299.144 402.703 295.73 397.209 292.966 392.761C292.293 391.678 291.659 390.657 291.153 389.724C292.553 389.917 293.93 390.017 295.296 390.117C298.198 390.328 301.051 390.535 303.978 391.619C305.392 392.143 306.787 392.677 308.172 393.208C314.793 395.746 321.205 398.203 328.469 399.038C328.792 399.074 329.114 399.111 329.436 399.148C340.506 400.407 351.413 401.647 362.237 398.206C366.534 396.841 370.129 393.998 373.527 391.31Z" fill="white"/>
<path d="M83.0917 91.0689C71.973 103.116 47.0128 101.637 36.1734 98.6776C20.6038 94.3801 3.4458 84.7283 3.2538 64.6321C2.99198 38.1072 30.6403 29.5826 51.3415 35.9761C44.3597 -6.94632 102.641 -12.4943 115.383 24.9152C133.012 14.2419 158.112 35.2187 155.86 54.5928C141.338 53.3775 132.401 55.5615 118.682 63.8748C112.8 67.3973 92.203 80.4836 83.144 91.1394" fill="#B7433C"/>
<path d="M83.2192 152.768C63.1131 160.717 43.5847 170.128 24.7828 180.93C14.2061 187.138 -3.31595 194.431 13.4305 204.313C37.1752 218.322 71.1793 212.295 96.2814 217.453C101.429 218.485 102.768 216.693 96.8631 214.069C92.4033 212.512 86.6566 212.15 81.9852 211.372C75.1809 210.232 66.2612 210.033 58.3463 207.951C38.8146 202.829 34.108 207.245 17.6083 197.997C12.6901 195.228 49.0388 177.219 56.5482 172.242C64.8157 166.812 87.8553 153.89 83.1487 152.75" fill="#CC9E4F"/>
<path d="M47.5458 193.993C54.7572 193.379 61.7092 190.595 64.9431 190.365C70.5117 189.962 77.9479 189.175 82.6864 192.669C86.6466 195.587 92.4227 202.018 96.5213 195.28C99.6687 190.173 94.5671 185.316 90.7106 183.415C86.8541 181.515 80.4728 181.707 76.2186 182.936C71.5494 184.123 66.8276 185.04 62.0724 185.681C51.9729 188.388 40.5591 192.016 42.4614 193.974C44.0525 194.781 45.7299 193.974 47.4939 193.974" fill="#CC9E4F"/>
<path d="M131.397 517.004C115.704 509.312 89.1701 474.137 79.5229 478.053C67.1295 483.088 120.198 519.574 112.174 519.155C103.097 517.004 72.8001 495.711 64.1336 502.197C48.7088 513.7 113.065 534.242 118.005 536.095C105.183 541.497 88.1358 539.592 75.5106 545.308C75.1183 546.3 74.6223 547.249 74.0305 548.141C83.3033 558.001 108.536 548.385 119.003 546.008C133.055 542.808 151.601 537.756 161.801 526.655C166.491 517.004 146.679 523.158 131.361 517.004" fill="#CC9E4F"/>
<path d="M272.545 549.515C270.777 582.025 211.655 578.957 211.248 588.748C213.883 603.638 275.039 570.914 273.925 578.832C272.811 586.75 268.619 590.923 262.659 594.882C250.014 603.424 238.89 605.386 243.754 609.827C256.133 615.622 281.972 599.127 286.428 578.618C289.965 572.163 305.758 594.882 311.276 593.028C315.892 590.246 297.128 561.695 290.178 553.67C286.145 549.051 278.647 539.706 276.701 539.51C273.783 539.225 272.899 545.359 272.528 549.461" fill="#CC9E4F"/>
<ellipse cx="123.5" cy="114" rx="7.5" ry="9" fill="#C2C0C1"/>
<ellipse cx="123" cy="114.5" rx="5" ry="6.5" fill="#C41C1E"/>
</svg>
