<svg width="355" height="189" viewBox="0 0 355 189" fill="none" xmlns="http://www.w3.org/2000/svg">
<path fill-rule="evenodd" clip-rule="evenodd" d="M294.386 36.152C308.843 30.3718 321.382 31.8449 323.771 35.7168C345.298 25.5757 364.924 31.373 348.056 41.0112C358.92 40.8152 354.572 48.3761 343.317 52.3046C343.209 52.2419 343.1 52.1805 342.991 52.1205C346.38 59.9131 331.713 70.6832 317.74 80.944L316.832 81.6109C315.084 82.8908 313.204 84.216 311.288 85.5667C304.123 90.6185 296.453 96.0267 293.243 100.755C281.074 118.635 302.42 124.109 311.828 126.522C313.647 126.988 315.019 127.34 315.618 127.645C319.371 129.594 319.488 130.072 311.587 133.083C310.86 133.359 309.898 133.66 308.876 133.979C306.886 134.6 304.669 135.292 303.512 136.02C301.699 137.138 301.882 137.292 302.206 137.566C302.434 137.759 302.731 138.009 302.46 138.693C301.023 142.296 284.562 148.236 275.556 151.486L274.752 151.776C269.758 153.582 264.85 154.956 259.747 156.384C258.346 156.777 256.93 157.173 255.494 157.584C252.319 158.486 250.91 158.786 241.449 160.799C236.023 161.954 227.95 163.672 215.377 166.39C189.59 171.964 160.995 172.864 137.51 169.432C119.226 166.76 94.3607 157.457 102.801 138.542C105.653 132.14 109.222 127.008 116.037 120.224C129.731 106.548 157.853 90.0386 187.783 77.6949C203.704 71.1298 224.465 62.8655 247.36 56.1386L246.823 55.7245L272.793 49.0407L273.738 49.4395C275.528 49.0603 277.316 48.6973 279.101 48.3507C281.069 47.9697 283.022 47.6112 284.956 47.2765C283.053 44.4799 283.699 40.4235 294.386 36.152ZM53.7541 158.831L53.7432 158.832C54.6991 159.422 56.7519 159.335 58.4138 159.265C60.6852 159.169 62.2266 159.104 59.2401 160.84C51.8314 164.433 44.2372 166.463 38.7274 167.814C38.0213 167.987 37.099 168.236 36.0611 168.516C31.0694 169.865 23.4026 171.936 24.2411 169.725C24.767 169.443 25.2862 169.146 25.7904 168.84C28.8817 167.788 31.5514 167.295 34.2216 166.802C36.7811 166.33 39.3412 165.857 42.2735 164.892C42.2054 164.856 42.0554 164.791 41.8443 164.699C39.6338 163.737 30.723 159.857 39.0769 156.333C42.5406 154.869 44.0966 156.867 45.3286 158.449C45.9286 159.219 46.4518 159.891 47.0811 160.016C47.9733 159.976 48.2156 158.512 48.526 156.635C49.0068 153.729 49.651 149.835 53.126 148.711C55.6751 147.887 54.9268 150.721 54.1562 153.641C53.5814 155.818 52.9942 158.043 53.7541 158.831ZM113.71 172.003L113.681 172.019C99.5961 177.2 87.0611 175.178 78.186 173.747C73.3078 172.96 69.5354 172.352 67.2191 173.216C61.9944 175.686 74.6386 176.848 84.6755 177.77C91.5935 178.406 97.2729 178.928 95.009 179.686C89.4605 181.543 85.3105 182.005 80.6987 182.158C77.228 182.285 74.3516 182.232 72.0263 182.189C67.7339 182.109 65.3196 182.065 64.512 183.251C64.9383 186.505 84.4958 186.011 99.4011 181.426C102.338 180.81 100.902 182.894 99.4636 184.984C98.2481 186.749 97.0304 188.517 98.4442 188.663C101.83 188.617 114.089 178.65 116.965 175.609C117.291 175.261 117.691 174.846 118.12 174.402C119.856 172.606 122.054 170.331 121.626 170.067C120.82 169.576 116.514 171.012 113.71 172.003Z" fill="#1C1C1C"/>
<rect x="28" y="26.9731" width="25" height="16" fill="black"/>
<path d="M27 51.9731L2 48.0932L6.74794 35.9731H27V51.9731Z" fill="black"/>
<path d="M121 133.973L39 122.817L54.562 87.9731H121V133.973Z" fill="black"/>
<path fill-rule="evenodd" clip-rule="evenodd" d="M140.816 88.9572C140.054 88.4095 139.567 88.3233 139.194 88.2573C138.662 88.1632 138.363 88.1103 137.832 86.8161C137.475 85.981 137.719 84.8628 137.939 83.8592C138.052 83.3439 138.158 82.8588 138.172 82.4577C138.324 78.0993 137.632 77.8051 133.091 77.5545C132.375 77.5183 131.191 77.6744 129.623 77.8812C121.511 78.9513 103.106 81.379 85.8278 65.5688C81.2553 61.3904 78.1165 55.4517 75.1845 49.9043L75.1845 49.9042C74.4006 48.4211 73.6316 46.966 72.8538 45.58L72.4471 44.8587C65.7215 32.931 58.6372 20.367 44.7436 16.8852C29.8829 13.1696 17.0009 21.2109 9.13539 33.6706C7.32659 36.5437 5.81066 39.5937 4.61072 42.7742C6.15913 42.3222 8.01284 41.8443 9.63881 41.425L9.6389 41.425L9.63905 41.425C10.698 41.1519 11.6604 40.9038 12.3789 40.704C13.1748 40.4816 14.0594 40.0968 14.9761 39.6979C16.8676 38.875 18.8957 37.9926 20.5633 38.3559C20.8498 39.7832 19.52 42.8124 18.1091 43.2591C16.9198 43.6459 16.59 42.8015 16.4873 41.3523C16.2372 41.4313 15.993 41.509 15.7534 41.5852L15.7534 41.5852C13.4821 42.3078 11.6226 42.8993 8.96241 43.2591C8.34067 43.3442 7.49639 43.531 6.5911 43.7314L6.59102 43.7314C5.75679 43.9161 4.87076 44.1122 4.05933 44.2506C-0.265332 56.6776 -0.227491 70.0961 0.167134 80.3003C0.83205 97.4561 7.95152 116.949 18.8713 130.313C24.2771 136.949 29.1964 141.509 36.1699 146.734C56.7661 162.173 82.0762 161.356 95.1745 157.891C111.997 153.44 125.766 144.533 131.885 133.228C134.868 127.717 136.819 124.197 138.131 121.831L138.132 121.83C140.419 117.704 140.759 117.09 141.227 115.549C141.435 114.851 141.652 114.168 141.866 113.493L141.866 113.492C142.646 111.032 143.397 108.665 143.621 105.977L143.658 105.544C144.072 100.701 144.829 91.8489 140.816 88.9572ZM39.7228 33.9222L39.7228 33.9222C35.7399 35.2619 30.9892 36.86 30.4235 36.035C29.8289 33.8558 45.3814 29.7262 49.4088 29.2359C50.3278 34.3516 44.3327 37.446 44.7165 32.4012C43.791 32.5537 41.8684 33.2005 39.7228 33.9222ZM114.931 121.376C115.133 121.216 115.334 121.057 115.533 120.904L115.527 120.899C115.754 120.604 114.899 120.892 113.882 121.234C112.986 121.535 111.966 121.878 111.451 121.901C110.97 121.925 110.488 121.951 110.006 121.977C108.664 122.051 107.322 122.125 105.986 122.125C105.588 122.125 105.188 122.129 104.786 122.134C103.134 122.153 101.458 122.172 99.8451 121.874C98.9815 121.714 98.131 121.49 97.2813 121.266C96.4024 121.035 95.5244 120.804 94.6339 120.643C92.7267 120.341 90.8493 119.873 89.0227 119.243C88.8665 119.185 88.7076 119.113 88.5517 119.042C87.8979 118.746 87.2971 118.474 87.1793 119.384C87.1109 119.918 87.4774 120.527 87.8515 121.149C88.1878 121.708 88.5302 122.277 88.5686 122.811C88.6659 124.13 88.0064 124.217 86.7306 124.293C83.406 124.489 79.4814 121.852 76.892 120.038C73.6917 117.794 70.6807 115.429 67.5886 112.988C66.8317 112.39 66.062 111.807 65.2915 111.223C63.602 109.943 61.9081 108.66 60.3339 107.197C58.0419 105.067 56.3877 102.174 55.1173 99.3139C55.1007 99.2762 55.0743 99.2151 55.0393 99.1344C54.5296 97.9565 52.2098 92.5957 52.063 94.4924C54.2656 99.9733 57.3203 105.066 61.1124 109.578C66.0587 115.451 71.2591 121.477 78.4489 124.5C79.2089 124.82 79.9361 125.163 80.6533 125.502C82.5988 126.42 84.4713 127.304 86.7306 127.595C88.2226 127.785 90.5903 128.058 91.3742 126.336C92.0437 124.882 90.9931 123.191 90.1427 121.822C89.9357 121.489 89.7405 121.175 89.5849 120.888C90.0157 120.947 90.4393 120.978 90.8596 121.009C91.7525 121.074 92.6306 121.138 93.5311 121.471C93.9661 121.632 94.3952 121.797 94.8215 121.96C96.8589 122.741 98.8316 123.497 101.067 123.754C101.166 123.765 101.265 123.776 101.364 123.788C104.77 124.175 108.126 124.557 111.457 123.498C112.779 123.078 113.885 122.203 114.931 121.376Z" fill="white"/>
<path d="M25.5661 28.9944C22.1449 32.7012 14.4649 32.2459 11.1297 31.3355C6.33903 30.0132 1.05965 27.0434 1.00057 20.8599C0.920008 12.6984 9.42717 10.0755 15.7968 12.0427C13.6485 -1.16418 31.5812 -2.87127 35.5018 8.63937C40.9262 5.35526 48.6493 11.8097 47.9564 17.7709C43.488 17.397 40.7382 18.069 36.5169 20.6269C34.707 21.7108 28.3696 25.7373 25.5822 29.016" fill="#B7433C"/>
<path d="M25.6065 47.9787C19.42 50.4246 13.4113 53.3203 7.62609 56.6439C4.37172 58.5541 -1.01969 60.7983 4.13306 63.839C11.4391 68.1493 21.9019 66.2949 29.6256 67.882C31.2094 68.1994 31.6217 67.6481 29.8046 66.8406C28.4324 66.3617 26.6642 66.2503 25.2268 66.0109C23.1332 65.66 20.3887 65.5988 17.9533 64.9583C11.9436 63.3823 10.4954 64.7411 5.41854 61.8954C3.90526 61.0434 15.0895 55.5023 17.4001 53.9709C19.9439 52.3002 27.033 48.324 25.5848 47.9731" fill="#CC9E4F"/>
<path d="M14.6289 60.6636C16.8478 60.4746 18.9869 59.618 19.9819 59.5472C21.6953 59.4231 23.9834 59.1809 25.4414 60.256C26.6599 61.1539 28.4371 63.1327 29.6982 61.0593C30.6667 59.4881 29.097 57.9936 27.9104 57.4088C26.7237 56.824 24.7603 56.8831 23.4513 57.2611C22.0146 57.6266 20.5617 57.9085 19.0986 58.1058C15.9911 58.9387 12.4791 60.0552 13.0645 60.6577C13.554 60.9058 14.0701 60.6577 14.6129 60.6577" fill="#CC9E4F"/>
<path d="M40.4292 160.051C35.6008 157.685 27.4364 146.861 24.468 148.066C20.6546 149.616 36.9835 160.842 34.5144 160.713C31.7216 160.051 22.3994 153.499 19.7328 155.495C14.9867 159.035 34.7887 165.355 36.3086 165.926C32.3635 167.588 27.1181 167.001 23.2334 168.76C23.1127 169.065 22.9601 169.358 22.778 169.632C25.6312 172.666 33.3951 169.707 36.6158 168.976C40.9395 167.991 46.6458 166.437 49.7843 163.021C51.2273 160.051 45.1314 161.945 40.4182 160.051" fill="#CC9E4F"/>
<path d="M83.8607 170.054C83.3166 180.057 65.1252 179.114 65 182.126C65.8108 186.708 84.628 176.639 84.2852 179.075C83.9423 181.512 82.6527 182.796 80.8188 184.014C76.9281 186.642 73.5053 187.246 75.0017 188.612C78.8109 190.395 86.7611 185.32 88.1324 179.009C89.2207 177.023 94.0801 184.014 95.7779 183.443C97.1982 182.587 91.4246 173.802 89.286 171.333C88.0453 169.912 85.7381 167.036 85.1395 166.976C84.2416 166.888 83.9696 168.776 83.8553 170.038" fill="#CC9E4F"/>
</svg>
