<svg width="634" height="303" viewBox="0 0 634 303" fill="none" xmlns="http://www.w3.org/2000/svg">
<path fill-rule="evenodd" clip-rule="evenodd" d="M294.386 150.152C308.843 144.372 321.382 145.845 323.771 149.717C345.298 139.576 364.924 145.373 348.056 155.011C358.92 154.815 354.572 162.376 343.317 166.305C343.209 166.242 343.1 166.181 342.991 166.121C346.38 173.913 331.713 184.683 317.74 194.944L316.832 195.611C315.084 196.891 313.204 198.216 311.288 199.567C304.123 204.618 296.453 210.027 293.243 214.755C281.074 232.635 302.42 238.109 311.828 240.522C313.647 240.988 315.019 241.34 315.618 241.645C319.371 243.594 319.488 244.072 311.587 247.083C310.86 247.359 309.898 247.66 308.876 247.979C306.886 248.6 304.669 249.292 303.512 250.02C301.699 251.138 301.882 251.292 302.206 251.566C302.434 251.759 302.731 252.009 302.46 252.693C301.023 256.296 284.562 262.236 275.556 265.486L274.752 265.776C269.758 267.582 264.85 268.956 259.747 270.384C258.346 270.777 256.93 271.173 255.494 271.584C252.319 272.486 250.91 272.786 241.449 274.799C236.023 275.954 227.95 277.672 215.377 280.39C189.59 285.964 160.995 286.864 137.51 283.432C119.226 280.76 94.3607 271.457 102.801 252.542C105.653 246.14 109.222 241.008 116.037 234.224C129.731 220.548 157.853 204.039 187.783 191.695C203.704 185.13 224.465 176.865 247.36 170.139L246.823 169.724L272.793 163.041L273.738 163.439C275.528 163.06 277.316 162.697 279.101 162.351C281.069 161.97 283.022 161.611 284.956 161.277C283.053 158.48 283.699 154.423 294.386 150.152ZM53.7541 272.831L53.7432 272.832C54.6991 273.422 56.7519 273.335 58.4138 273.265C60.6852 273.169 62.2266 273.104 59.2401 274.84C51.8314 278.433 44.2372 280.463 38.7274 281.814C38.0213 281.987 37.099 282.236 36.0611 282.516C31.0694 283.865 23.4026 285.936 24.2411 283.725C24.767 283.443 25.2862 283.146 25.7904 282.84C28.8817 281.788 31.5514 281.295 34.2216 280.802C36.7811 280.33 39.3412 279.857 42.2735 278.892C42.2054 278.856 42.0554 278.791 41.8443 278.699C39.6338 277.737 30.723 273.857 39.0769 270.333C42.5406 268.869 44.0966 270.867 45.3286 272.449C45.9286 273.219 46.4518 273.891 47.0811 274.016C47.9733 273.976 48.2156 272.512 48.526 270.635C49.0068 267.729 49.651 263.835 53.126 262.711C55.6751 261.887 54.9268 264.721 54.1562 267.641C53.5814 269.818 52.9942 272.043 53.7541 272.831ZM113.71 286.003L113.681 286.019C99.5961 291.2 87.0611 289.178 78.186 287.747C73.3078 286.96 69.5354 286.352 67.2191 287.216C61.9944 289.686 74.6386 290.848 84.6755 291.77C91.5935 292.406 97.2729 292.928 95.009 293.686C89.4605 295.543 85.3105 296.005 80.6987 296.158C77.228 296.285 74.3516 296.232 72.0263 296.189C67.7339 296.109 65.3196 296.065 64.512 297.251C64.9383 300.505 84.4958 300.011 99.4011 295.426C102.338 294.81 100.902 296.894 99.4636 298.984C98.2481 300.749 97.0304 302.517 98.4442 302.663C101.83 302.617 114.089 292.65 116.965 289.609C117.291 289.261 117.691 288.846 118.12 288.402C119.856 286.606 122.054 284.331 121.626 284.067C120.82 283.576 116.514 285.012 113.71 286.003Z" fill="#1C1C1C"/>
<rect x="28" y="140.973" width="25" height="16" fill="black"/>
<path d="M27 165.973L2 162.093L6.74794 149.973H27V165.973Z" fill="black"/>
<path d="M121 247.973L39 236.817L54.562 201.973H121V247.973Z" fill="black"/>
<path fill-rule="evenodd" clip-rule="evenodd" d="M140.816 202.957C140.054 202.41 139.567 202.323 139.194 202.257C138.662 202.163 138.363 202.11 137.832 200.816C137.475 199.981 137.719 198.863 137.939 197.859C138.052 197.344 138.158 196.859 138.172 196.458C138.324 192.099 137.632 191.805 133.091 191.554C132.375 191.518 131.191 191.674 129.623 191.881C121.511 192.951 103.106 195.379 85.8278 179.569C81.2553 175.39 78.1165 169.452 75.1845 163.904L75.1845 163.904C74.4006 162.421 73.6316 160.966 72.8538 159.58L72.4471 158.859C65.7215 146.931 58.6372 134.367 44.7436 130.885C29.8829 127.17 17.0009 135.211 9.13539 147.671C7.32659 150.544 5.81066 153.594 4.61072 156.774C6.15913 156.322 8.01284 155.844 9.63881 155.425L9.6389 155.425L9.63905 155.425C10.698 155.152 11.6604 154.904 12.3789 154.704C13.1748 154.482 14.0594 154.097 14.9761 153.698C16.8676 152.875 18.8957 151.993 20.5633 152.356C20.8498 153.783 19.52 156.812 18.1091 157.259C16.9198 157.646 16.59 156.801 16.4873 155.352C16.2372 155.431 15.993 155.509 15.7534 155.585L15.7534 155.585C13.4821 156.308 11.6226 156.899 8.96241 157.259C8.34067 157.344 7.49639 157.531 6.5911 157.731L6.59102 157.731C5.75679 157.916 4.87076 158.112 4.05933 158.251C-0.265332 170.678 -0.227491 184.096 0.167134 194.3C0.83205 211.456 7.95152 230.949 18.8713 244.313C24.2771 250.949 29.1964 255.509 36.1699 260.734C56.7661 276.173 82.0762 275.356 95.1745 271.891C111.997 267.44 125.766 258.533 131.885 247.228C134.868 241.717 136.819 238.197 138.131 235.831L138.132 235.83C140.419 231.704 140.759 231.09 141.227 229.549C141.435 228.851 141.652 228.168 141.866 227.493L141.866 227.492C142.646 225.032 143.397 222.665 143.621 219.977L143.658 219.544C144.072 214.701 144.829 205.849 140.816 202.957ZM39.7228 147.922L39.7228 147.922C35.7399 149.262 30.9892 150.86 30.4235 150.035C29.8289 147.856 45.3814 143.726 49.4088 143.236C50.3278 148.352 44.3327 151.446 44.7165 146.401C43.791 146.554 41.8684 147.2 39.7228 147.922ZM114.931 235.376C115.133 235.216 115.334 235.057 115.533 234.904L115.527 234.899C115.754 234.604 114.899 234.892 113.882 235.234C112.986 235.535 111.966 235.878 111.451 235.901C110.97 235.925 110.488 235.951 110.006 235.977C108.664 236.051 107.322 236.125 105.986 236.125C105.588 236.125 105.188 236.129 104.786 236.134C103.134 236.153 101.458 236.172 99.8451 235.874C98.9815 235.714 98.131 235.49 97.2813 235.266C96.4024 235.035 95.5244 234.804 94.6339 234.643C92.7267 234.341 90.8493 233.873 89.0227 233.243C88.8665 233.185 88.7076 233.113 88.5517 233.042C87.8979 232.746 87.2971 232.474 87.1793 233.384C87.1109 233.918 87.4774 234.527 87.8515 235.149C88.1878 235.708 88.5302 236.277 88.5686 236.811C88.6659 238.13 88.0064 238.217 86.7306 238.293C83.406 238.489 79.4814 235.852 76.892 234.038C73.6917 231.794 70.6807 229.429 67.5886 226.988C66.8317 226.39 66.062 225.807 65.2915 225.223C63.602 223.943 61.9081 222.66 60.3339 221.197C58.0419 219.067 56.3877 216.174 55.1173 213.314C55.1007 213.276 55.0743 213.215 55.0393 213.134C54.5296 211.957 52.2098 206.596 52.063 208.492C54.2656 213.973 57.3203 219.066 61.1124 223.578C66.0587 229.451 71.2591 235.477 78.4489 238.5C79.2089 238.82 79.9361 239.163 80.6533 239.502C82.5988 240.42 84.4713 241.304 86.7306 241.595C88.2226 241.785 90.5903 242.058 91.3742 240.336C92.0437 238.882 90.9931 237.191 90.1427 235.822C89.9357 235.489 89.7405 235.175 89.5849 234.888C90.0157 234.947 90.4393 234.978 90.8596 235.009C91.7525 235.074 92.6306 235.138 93.5311 235.471C93.9661 235.632 94.3952 235.797 94.8215 235.96C96.8589 236.741 98.8316 237.497 101.067 237.754C101.166 237.765 101.265 237.776 101.364 237.788C104.77 238.175 108.126 238.557 111.457 237.498C112.779 237.078 113.885 236.203 114.931 235.376Z" fill="white"/>
<path d="M25.5661 142.994C22.1449 146.701 14.4649 146.246 11.1297 145.335C6.33903 144.013 1.05965 141.043 1.00057 134.86C0.920008 126.698 9.42717 124.075 15.7968 126.043C13.6485 112.836 31.5812 111.129 35.5018 122.639C40.9262 119.355 48.6493 125.81 47.9564 131.771C43.488 131.397 40.7382 132.069 36.5169 134.627C34.707 135.711 28.3696 139.737 25.5822 143.016" fill="#B7433C"/>
<path d="M25.6065 161.979C19.42 164.425 13.4113 167.32 7.62609 170.644C4.37172 172.554 -1.01969 174.798 4.13306 177.839C11.4391 182.149 21.9019 180.295 29.6256 181.882C31.2094 182.199 31.6217 181.648 29.8046 180.841C28.4324 180.362 26.6642 180.25 25.2268 180.011C23.1332 179.66 20.3887 179.599 17.9533 178.958C11.9436 177.382 10.4954 178.741 5.41854 175.895C3.90526 175.043 15.0895 169.502 17.4001 167.971C19.9439 166.3 27.033 162.324 25.5848 161.973" fill="#CC9E4F"/>
<path d="M14.6289 174.664C16.8478 174.475 18.9869 173.618 19.9819 173.547C21.6953 173.423 23.9834 173.181 25.4414 174.256C26.6599 175.154 28.4371 177.133 29.6982 175.059C30.6667 173.488 29.097 171.994 27.9104 171.409C26.7237 170.824 24.7603 170.883 23.4513 171.261C22.0146 171.627 20.5617 171.909 19.0986 172.106C15.9911 172.939 12.4791 174.055 13.0645 174.658C13.554 174.906 14.0701 174.658 14.6129 174.658" fill="#CC9E4F"/>
<path d="M40.4292 274.051C35.6008 271.685 27.4364 260.861 24.468 262.066C20.6546 263.616 36.9835 274.842 34.5144 274.713C31.7216 274.051 22.3994 267.499 19.7328 269.495C14.9867 273.035 34.7887 279.355 36.3086 279.926C32.3635 281.588 27.1181 281.001 23.2334 282.76C23.1127 283.065 22.9601 283.358 22.778 283.632C25.6312 286.666 33.3951 283.707 36.6158 282.976C40.9395 281.991 46.6458 280.437 49.7843 277.021C51.2273 274.051 45.1314 275.945 40.4182 274.051" fill="#CC9E4F"/>
<path d="M83.8607 284.054C83.3166 294.057 65.1252 293.114 65 296.126C65.8108 300.708 84.628 290.639 84.2852 293.075C83.9423 295.512 82.6527 296.796 80.8188 298.014C76.9281 300.642 73.5053 301.246 75.0017 302.612C78.8109 304.395 86.7611 299.32 88.1324 293.009C89.2207 291.023 94.0801 298.014 95.7779 297.443C97.1982 296.587 91.4246 287.802 89.286 285.333C88.0453 283.912 85.7381 281.036 85.1395 280.976C84.2416 280.888 83.9696 282.776 83.8553 284.038" fill="#CC9E4F"/>
<path fill-rule="evenodd" clip-rule="evenodd" d="M31.9725 103C11.2397 79.1957 -4.70449 17.2057 52.6381 3.7123C69.2547 -0.197816 105.033 4.28067 155.331 3.7123C187.164 3.35258 222.761 0.157989 261 0.117478C302.1 0.0739362 345.05 1.38998 386.547 2.40735C413.443 3.06676 438.08 -0.703047 462.551 0.117478C501.226 1.41428 537.12 7.43992 562.859 9.29267C665.615 17.3137 669.791 83.9953 490.362 74.9347C384.101 69.3107 309.623 73.9844 229.373 78.0427C188.751 83.4274 59.6909 69.9811 31.9725 103Z" fill="white"/>
</svg>
