<svg width="768" height="160" viewBox="0 0 768 160" fill="none" xmlns="http://www.w3.org/2000/svg">
<mask id="mask0" mask-type="alpha" maskUnits="userSpaceOnUse" x="0" y="0" width="768" height="160">
<path fill-rule="evenodd" clip-rule="evenodd" d="M767.998 76.4658C767.998 76.4658 737.898 17.5 677.498 17.5C617.098 17.5 578.132 59.2663 578.132 59.2663C578.132 59.2663 555.431 0 476.498 0C400.232 0 340.266 89.6382 340.266 89.6382C340.266 89.6382 309.498 41.5002 261.498 41.5002C213.498 41.5002 179.2 99.2293 179.2 99.2293C179.2 99.2293 142.365 63.3105 80.498 74.5002C18.6315 96.8795 6.10352e-05 126.404 6.10352e-05 126.404V160H767.998V76.4658Z" fill="#202020"/>
</mask>
<g mask="url(#mask0)">
<rect width="2072" height="14427" transform="translate(-316 -105.5)" fill="#171717"/>
<path fill-rule="evenodd" clip-rule="evenodd" d="M352.5 146.5C354.433 146.5 356 144.933 356 143C356 141.067 354.433 139.5 352.5 139.5C350.567 139.5 349 141.067 349 143C349 144.933 350.567 146.5 352.5 146.5Z" fill="#202020"/>
<path fill-rule="evenodd" clip-rule="evenodd" d="M317.5 146.5C319.433 146.5 321 144.933 321 143C321 141.067 319.433 139.5 317.5 139.5C315.567 139.5 314 141.067 314 143C314 144.933 315.567 146.5 317.5 146.5Z" fill="#202020"/>
<path fill-rule="evenodd" clip-rule="evenodd" d="M282.5 146.5C284.433 146.5 286 144.933 286 143C286 141.067 284.433 139.5 282.5 139.5C280.567 139.5 279 141.067 279 143C279 144.933 280.567 146.5 282.5 146.5Z" fill="#202020"/>
<path fill-rule="evenodd" clip-rule="evenodd" d="M247.5 146.5C249.433 146.5 251 144.933 251 143C251 141.067 249.433 139.5 247.5 139.5C245.567 139.5 244 141.067 244 143C244 144.933 245.567 146.5 247.5 146.5Z" fill="#202020"/>
<path fill-rule="evenodd" clip-rule="evenodd" d="M212.5 146.5C214.433 146.5 216 144.933 216 143C216 141.067 214.433 139.5 212.5 139.5C210.567 139.5 209 141.067 209 143C209 144.933 210.567 146.5 212.5 146.5Z" fill="#202020"/>
<path fill-rule="evenodd" clip-rule="evenodd" d="M177.5 146.5C179.433 146.5 181 144.933 181 143C181 141.067 179.433 139.5 177.5 139.5C175.567 139.5 174 141.067 174 143C174 144.933 175.567 146.5 177.5 146.5Z" fill="#202020"/>
<path fill-rule="evenodd" clip-rule="evenodd" d="M142.5 146.5C144.433 146.5 146 144.933 146 143C146 141.067 144.433 139.5 142.5 139.5C140.567 139.5 139 141.067 139 143C139 144.933 140.567 146.5 142.5 146.5Z" fill="#202020"/>
<path fill-rule="evenodd" clip-rule="evenodd" d="M107.5 146.5C109.433 146.5 111 144.933 111 143C111 141.067 109.433 139.5 107.5 139.5C105.567 139.5 104 141.067 104 143C104 144.933 105.567 146.5 107.5 146.5Z" fill="#202020"/>
<path fill-rule="evenodd" clip-rule="evenodd" d="M72.5 146.5C74.433 146.5 76 144.933 76 143C76 141.067 74.433 139.5 72.5 139.5C70.567 139.5 69 141.067 69 143C69 144.933 70.567 146.5 72.5 146.5Z" fill="#202020"/>
<path fill-rule="evenodd" clip-rule="evenodd" d="M37.5 146.5C39.433 146.5 41 144.933 41 143C41 141.067 39.433 139.5 37.5 139.5C35.567 139.5 34 141.067 34 143C34 144.933 35.567 146.5 37.5 146.5Z" fill="#202020"/>
<path fill-rule="evenodd" clip-rule="evenodd" d="M2.5 146.5C4.433 146.5 6 144.933 6 143C6 141.067 4.433 139.5 2.5 139.5C0.567003 139.5 -1 141.067 -1 143C-1 144.933 0.567003 146.5 2.5 146.5Z" fill="#202020"/>
<path fill-rule="evenodd" clip-rule="evenodd" d="M352.5 111.5C354.433 111.5 356 109.933 356 108C356 106.067 354.433 104.5 352.5 104.5C350.567 104.5 349 106.067 349 108C349 109.933 350.567 111.5 352.5 111.5Z" fill="#202020"/>
<path fill-rule="evenodd" clip-rule="evenodd" d="M317.5 111.5C319.433 111.5 321 109.933 321 108C321 106.067 319.433 104.5 317.5 104.5C315.567 104.5 314 106.067 314 108C314 109.933 315.567 111.5 317.5 111.5Z" fill="#202020"/>
<path fill-rule="evenodd" clip-rule="evenodd" d="M282.5 111.5C284.433 111.5 286 109.933 286 108C286 106.067 284.433 104.5 282.5 104.5C280.567 104.5 279 106.067 279 108C279 109.933 280.567 111.5 282.5 111.5Z" fill="#202020"/>
<path fill-rule="evenodd" clip-rule="evenodd" d="M247.5 111.5C249.433 111.5 251 109.933 251 108C251 106.067 249.433 104.5 247.5 104.5C245.567 104.5 244 106.067 244 108C244 109.933 245.567 111.5 247.5 111.5Z" fill="#202020"/>
<path fill-rule="evenodd" clip-rule="evenodd" d="M212.5 111.5C214.433 111.5 216 109.933 216 108C216 106.067 214.433 104.5 212.5 104.5C210.567 104.5 209 106.067 209 108C209 109.933 210.567 111.5 212.5 111.5Z" fill="#202020"/>
<path fill-rule="evenodd" clip-rule="evenodd" d="M177.5 111.5C179.433 111.5 181 109.933 181 108C181 106.067 179.433 104.5 177.5 104.5C175.567 104.5 174 106.067 174 108C174 109.933 175.567 111.5 177.5 111.5Z" fill="#202020"/>
<path fill-rule="evenodd" clip-rule="evenodd" d="M142.5 111.5C144.433 111.5 146 109.933 146 108C146 106.067 144.433 104.5 142.5 104.5C140.567 104.5 139 106.067 139 108C139 109.933 140.567 111.5 142.5 111.5Z" fill="#202020"/>
<path fill-rule="evenodd" clip-rule="evenodd" d="M107.5 111.5C109.433 111.5 111 109.933 111 108C111 106.067 109.433 104.5 107.5 104.5C105.567 104.5 104 106.067 104 108C104 109.933 105.567 111.5 107.5 111.5Z" fill="#202020"/>
<path fill-rule="evenodd" clip-rule="evenodd" d="M72.5 111.5C74.433 111.5 76 109.933 76 108C76 106.067 74.433 104.5 72.5 104.5C70.567 104.5 69 106.067 69 108C69 109.933 70.567 111.5 72.5 111.5Z" fill="#202020"/>
<path fill-rule="evenodd" clip-rule="evenodd" d="M37.5 111.5C39.433 111.5 41 109.933 41 108C41 106.067 39.433 104.5 37.5 104.5C35.567 104.5 34 106.067 34 108C34 109.933 35.567 111.5 37.5 111.5Z" fill="#202020"/>
<path fill-rule="evenodd" clip-rule="evenodd" d="M2.5 111.5C4.433 111.5 6 109.933 6 108C6 106.067 4.433 104.5 2.5 104.5C0.567003 104.5 -1 106.067 -1 108C-1 109.933 0.567003 111.5 2.5 111.5Z" fill="#202020"/>
<path fill-rule="evenodd" clip-rule="evenodd" d="M352.5 76.5C354.433 76.5 356 74.933 356 73C356 71.067 354.433 69.5 352.5 69.5C350.567 69.5 349 71.067 349 73C349 74.933 350.567 76.5 352.5 76.5Z" fill="#202020"/>
<path fill-rule="evenodd" clip-rule="evenodd" d="M317.5 76.5C319.433 76.5 321 74.933 321 73C321 71.067 319.433 69.5 317.5 69.5C315.567 69.5 314 71.067 314 73C314 74.933 315.567 76.5 317.5 76.5Z" fill="#202020"/>
<path fill-rule="evenodd" clip-rule="evenodd" d="M282.5 76.5C284.433 76.5 286 74.933 286 73C286 71.067 284.433 69.5 282.5 69.5C280.567 69.5 279 71.067 279 73C279 74.933 280.567 76.5 282.5 76.5Z" fill="#202020"/>
<path fill-rule="evenodd" clip-rule="evenodd" d="M247.5 76.5C249.433 76.5 251 74.933 251 73C251 71.067 249.433 69.5 247.5 69.5C245.567 69.5 244 71.067 244 73C244 74.933 245.567 76.5 247.5 76.5Z" fill="#202020"/>
<path fill-rule="evenodd" clip-rule="evenodd" d="M212.5 76.5C214.433 76.5 216 74.933 216 73C216 71.067 214.433 69.5 212.5 69.5C210.567 69.5 209 71.067 209 73C209 74.933 210.567 76.5 212.5 76.5Z" fill="#202020"/>
<path fill-rule="evenodd" clip-rule="evenodd" d="M177.5 76.5C179.433 76.5 181 74.933 181 73C181 71.067 179.433 69.5 177.5 69.5C175.567 69.5 174 71.067 174 73C174 74.933 175.567 76.5 177.5 76.5Z" fill="#202020"/>
<path fill-rule="evenodd" clip-rule="evenodd" d="M142.5 76.5C144.433 76.5 146 74.933 146 73C146 71.067 144.433 69.5 142.5 69.5C140.567 69.5 139 71.067 139 73C139 74.933 140.567 76.5 142.5 76.5Z" fill="#202020"/>
<path fill-rule="evenodd" clip-rule="evenodd" d="M107.5 76.5C109.433 76.5 111 74.933 111 73C111 71.067 109.433 69.5 107.5 69.5C105.567 69.5 104 71.067 104 73C104 74.933 105.567 76.5 107.5 76.5Z" fill="#202020"/>
<path fill-rule="evenodd" clip-rule="evenodd" d="M72.5 76.5C74.433 76.5 76 74.933 76 73C76 71.067 74.433 69.5 72.5 69.5C70.567 69.5 69 71.067 69 73C69 74.933 70.567 76.5 72.5 76.5Z" fill="#202020"/>
<path fill-rule="evenodd" clip-rule="evenodd" d="M37.5 76.5C39.433 76.5 41 74.933 41 73C41 71.067 39.433 69.5 37.5 69.5C35.567 69.5 34 71.067 34 73C34 74.933 35.567 76.5 37.5 76.5Z" fill="#202020"/>
<path fill-rule="evenodd" clip-rule="evenodd" d="M2.5 76.5C4.433 76.5 6 74.933 6 73C6 71.067 4.433 69.5 2.5 69.5C0.567003 69.5 -1 71.067 -1 73C-1 74.933 0.567003 76.5 2.5 76.5Z" fill="#202020"/>
<path fill-rule="evenodd" clip-rule="evenodd" d="M352.5 41.5C354.433 41.5 356 39.933 356 38C356 36.067 354.433 34.5 352.5 34.5C350.567 34.5 349 36.067 349 38C349 39.933 350.567 41.5 352.5 41.5Z" fill="#202020"/>
<path fill-rule="evenodd" clip-rule="evenodd" d="M317.5 41.5C319.433 41.5 321 39.933 321 38C321 36.067 319.433 34.5 317.5 34.5C315.567 34.5 314 36.067 314 38C314 39.933 315.567 41.5 317.5 41.5Z" fill="#202020"/>
<path fill-rule="evenodd" clip-rule="evenodd" d="M282.5 41.5C284.433 41.5 286 39.933 286 38C286 36.067 284.433 34.5 282.5 34.5C280.567 34.5 279 36.067 279 38C279 39.933 280.567 41.5 282.5 41.5Z" fill="#202020"/>
<path fill-rule="evenodd" clip-rule="evenodd" d="M247.5 41.5C249.433 41.5 251 39.933 251 38C251 36.067 249.433 34.5 247.5 34.5C245.567 34.5 244 36.067 244 38C244 39.933 245.567 41.5 247.5 41.5Z" fill="#202020"/>
<path fill-rule="evenodd" clip-rule="evenodd" d="M212.5 41.5C214.433 41.5 216 39.933 216 38C216 36.067 214.433 34.5 212.5 34.5C210.567 34.5 209 36.067 209 38C209 39.933 210.567 41.5 212.5 41.5Z" fill="#202020"/>
<path fill-rule="evenodd" clip-rule="evenodd" d="M177.5 41.5C179.433 41.5 181 39.933 181 38C181 36.067 179.433 34.5 177.5 34.5C175.567 34.5 174 36.067 174 38C174 39.933 175.567 41.5 177.5 41.5Z" fill="#202020"/>
<path fill-rule="evenodd" clip-rule="evenodd" d="M142.5 41.5C144.433 41.5 146 39.933 146 38C146 36.067 144.433 34.5 142.5 34.5C140.567 34.5 139 36.067 139 38C139 39.933 140.567 41.5 142.5 41.5Z" fill="#202020"/>
<path fill-rule="evenodd" clip-rule="evenodd" d="M107.5 41.5C109.433 41.5 111 39.933 111 38C111 36.067 109.433 34.5 107.5 34.5C105.567 34.5 104 36.067 104 38C104 39.933 105.567 41.5 107.5 41.5Z" fill="#202020"/>
<path fill-rule="evenodd" clip-rule="evenodd" d="M72.5 41.5C74.433 41.5 76 39.933 76 38C76 36.067 74.433 34.5 72.5 34.5C70.567 34.5 69 36.067 69 38C69 39.933 70.567 41.5 72.5 41.5Z" fill="#202020"/>
<path fill-rule="evenodd" clip-rule="evenodd" d="M37.5 41.5C39.433 41.5 41 39.933 41 38C41 36.067 39.433 34.5 37.5 34.5C35.567 34.5 34 36.067 34 38C34 39.933 35.567 41.5 37.5 41.5Z" fill="#202020"/>
<path fill-rule="evenodd" clip-rule="evenodd" d="M2.5 41.5C4.433 41.5 6 39.933 6 38C6 36.067 4.433 34.5 2.5 34.5C0.567003 34.5 -1 36.067 -1 38C-1 39.933 0.567003 41.5 2.5 41.5Z" fill="#202020"/>
<path fill-rule="evenodd" clip-rule="evenodd" d="M352.5 6.5C354.433 6.5 356 4.933 356 3C356 1.067 354.433 -0.5 352.5 -0.5C350.567 -0.5 349 1.067 349 3C349 4.933 350.567 6.5 352.5 6.5Z" fill="#202020"/>
<path fill-rule="evenodd" clip-rule="evenodd" d="M317.5 6.5C319.433 6.5 321 4.933 321 3C321 1.067 319.433 -0.5 317.5 -0.5C315.567 -0.5 314 1.067 314 3C314 4.933 315.567 6.5 317.5 6.5Z" fill="#202020"/>
<path fill-rule="evenodd" clip-rule="evenodd" d="M282.5 6.5C284.433 6.5 286 4.933 286 3C286 1.067 284.433 -0.5 282.5 -0.5C280.567 -0.5 279 1.067 279 3C279 4.933 280.567 6.5 282.5 6.5Z" fill="#202020"/>
<path fill-rule="evenodd" clip-rule="evenodd" d="M247.5 6.5C249.433 6.5 251 4.933 251 3C251 1.067 249.433 -0.5 247.5 -0.5C245.567 -0.5 244 1.067 244 3C244 4.933 245.567 6.5 247.5 6.5Z" fill="#202020"/>
<path fill-rule="evenodd" clip-rule="evenodd" d="M212.5 6.5C214.433 6.5 216 4.933 216 3C216 1.067 214.433 -0.5 212.5 -0.5C210.567 -0.5 209 1.067 209 3C209 4.933 210.567 6.5 212.5 6.5Z" fill="#202020"/>
<path fill-rule="evenodd" clip-rule="evenodd" d="M177.5 6.5C179.433 6.5 181 4.933 181 3C181 1.067 179.433 -0.5 177.5 -0.5C175.567 -0.5 174 1.067 174 3C174 4.933 175.567 6.5 177.5 6.5Z" fill="#202020"/>
<path fill-rule="evenodd" clip-rule="evenodd" d="M142.5 6.5C144.433 6.5 146 4.933 146 3C146 1.067 144.433 -0.5 142.5 -0.5C140.567 -0.5 139 1.067 139 3C139 4.933 140.567 6.5 142.5 6.5Z" fill="#202020"/>
<path fill-rule="evenodd" clip-rule="evenodd" d="M107.5 6.5C109.433 6.5 111 4.933 111 3C111 1.067 109.433 -0.5 107.5 -0.5C105.567 -0.5 104 1.067 104 3C104 4.933 105.567 6.5 107.5 6.5Z" fill="#202020"/>
<path fill-rule="evenodd" clip-rule="evenodd" d="M72.5 6.5C74.433 6.5 76 4.933 76 3C76 1.067 74.433 -0.5 72.5 -0.5C70.567 -0.5 69 1.067 69 3C69 4.933 70.567 6.5 72.5 6.5Z" fill="#202020"/>
<path fill-rule="evenodd" clip-rule="evenodd" d="M37.5 6.5C39.433 6.5 41 4.933 41 3C41 1.067 39.433 -0.5 37.5 -0.5C35.567 -0.5 34 1.067 34 3C34 4.933 35.567 6.5 37.5 6.5Z" fill="#202020"/>
<path fill-rule="evenodd" clip-rule="evenodd" d="M2.5 6.5C4.433 6.5 6 4.933 6 3C6 1.067 4.433 -0.5 2.5 -0.5C0.567003 -0.5 -1 1.067 -1 3C-1 4.933 0.567003 6.5 2.5 6.5Z" fill="#202020"/>
<path fill-rule="evenodd" clip-rule="evenodd" d="M492.5 146.5C494.433 146.5 496 144.933 496 143C496 141.067 494.433 139.5 492.5 139.5C490.567 139.5 489 141.067 489 143C489 144.933 490.567 146.5 492.5 146.5Z" fill="#202020"/>
<path fill-rule="evenodd" clip-rule="evenodd" d="M527.5 146.5C529.433 146.5 531 144.933 531 143C531 141.067 529.433 139.5 527.5 139.5C525.567 139.5 524 141.067 524 143C524 144.933 525.567 146.5 527.5 146.5Z" fill="#202020"/>
<path fill-rule="evenodd" clip-rule="evenodd" d="M562.5 146.5C564.433 146.5 566 144.933 566 143C566 141.067 564.433 139.5 562.5 139.5C560.567 139.5 559 141.067 559 143C559 144.933 560.567 146.5 562.5 146.5Z" fill="#202020"/>
<path fill-rule="evenodd" clip-rule="evenodd" d="M597.5 146.5C599.433 146.5 601 144.933 601 143C601 141.067 599.433 139.5 597.5 139.5C595.567 139.5 594 141.067 594 143C594 144.933 595.567 146.5 597.5 146.5Z" fill="#202020"/>
<path fill-rule="evenodd" clip-rule="evenodd" d="M632.5 146.5C634.433 146.5 636 144.933 636 143C636 141.067 634.433 139.5 632.5 139.5C630.567 139.5 629 141.067 629 143C629 144.933 630.567 146.5 632.5 146.5Z" fill="#202020"/>
<path fill-rule="evenodd" clip-rule="evenodd" d="M667.5 146.5C669.433 146.5 671 144.933 671 143C671 141.067 669.433 139.5 667.5 139.5C665.567 139.5 664 141.067 664 143C664 144.933 665.567 146.5 667.5 146.5Z" fill="#202020"/>
<path fill-rule="evenodd" clip-rule="evenodd" d="M702.5 146.5C704.433 146.5 706 144.933 706 143C706 141.067 704.433 139.5 702.5 139.5C700.567 139.5 699 141.067 699 143C699 144.933 700.567 146.5 702.5 146.5Z" fill="#202020"/>
<path fill-rule="evenodd" clip-rule="evenodd" d="M737.5 146.5C739.433 146.5 741 144.933 741 143C741 141.067 739.433 139.5 737.5 139.5C735.567 139.5 734 141.067 734 143C734 144.933 735.567 146.5 737.5 146.5Z" fill="#202020"/>
<path fill-rule="evenodd" clip-rule="evenodd" d="M457.5 146.5C459.433 146.5 461 144.933 461 143C461 141.067 459.433 139.5 457.5 139.5C455.567 139.5 454 141.067 454 143C454 144.933 455.567 146.5 457.5 146.5Z" fill="#202020"/>
<path fill-rule="evenodd" clip-rule="evenodd" d="M422.5 146.5C424.433 146.5 426 144.933 426 143C426 141.067 424.433 139.5 422.5 139.5C420.567 139.5 419 141.067 419 143C419 144.933 420.567 146.5 422.5 146.5Z" fill="#202020"/>
<path fill-rule="evenodd" clip-rule="evenodd" d="M387.5 146.5C389.433 146.5 391 144.933 391 143C391 141.067 389.433 139.5 387.5 139.5C385.567 139.5 384 141.067 384 143C384 144.933 385.567 146.5 387.5 146.5Z" fill="#202020"/>
<path fill-rule="evenodd" clip-rule="evenodd" d="M492.5 111.5C494.433 111.5 496 109.933 496 108C496 106.067 494.433 104.5 492.5 104.5C490.567 104.5 489 106.067 489 108C489 109.933 490.567 111.5 492.5 111.5Z" fill="#202020"/>
<path fill-rule="evenodd" clip-rule="evenodd" d="M527.5 111.5C529.433 111.5 531 109.933 531 108C531 106.067 529.433 104.5 527.5 104.5C525.567 104.5 524 106.067 524 108C524 109.933 525.567 111.5 527.5 111.5Z" fill="#202020"/>
<path fill-rule="evenodd" clip-rule="evenodd" d="M562.5 111.5C564.433 111.5 566 109.933 566 108C566 106.067 564.433 104.5 562.5 104.5C560.567 104.5 559 106.067 559 108C559 109.933 560.567 111.5 562.5 111.5Z" fill="#202020"/>
<path fill-rule="evenodd" clip-rule="evenodd" d="M597.5 111.5C599.433 111.5 601 109.933 601 108C601 106.067 599.433 104.5 597.5 104.5C595.567 104.5 594 106.067 594 108C594 109.933 595.567 111.5 597.5 111.5Z" fill="#202020"/>
<path fill-rule="evenodd" clip-rule="evenodd" d="M632.5 111.5C634.433 111.5 636 109.933 636 108C636 106.067 634.433 104.5 632.5 104.5C630.567 104.5 629 106.067 629 108C629 109.933 630.567 111.5 632.5 111.5Z" fill="#202020"/>
<path fill-rule="evenodd" clip-rule="evenodd" d="M667.5 111.5C669.433 111.5 671 109.933 671 108C671 106.067 669.433 104.5 667.5 104.5C665.567 104.5 664 106.067 664 108C664 109.933 665.567 111.5 667.5 111.5Z" fill="#202020"/>
<path fill-rule="evenodd" clip-rule="evenodd" d="M702.5 111.5C704.433 111.5 706 109.933 706 108C706 106.067 704.433 104.5 702.5 104.5C700.567 104.5 699 106.067 699 108C699 109.933 700.567 111.5 702.5 111.5Z" fill="#202020"/>
<path fill-rule="evenodd" clip-rule="evenodd" d="M737.5 111.5C739.433 111.5 741 109.933 741 108C741 106.067 739.433 104.5 737.5 104.5C735.567 104.5 734 106.067 734 108C734 109.933 735.567 111.5 737.5 111.5Z" fill="#202020"/>
<path fill-rule="evenodd" clip-rule="evenodd" d="M457.5 111.5C459.433 111.5 461 109.933 461 108C461 106.067 459.433 104.5 457.5 104.5C455.567 104.5 454 106.067 454 108C454 109.933 455.567 111.5 457.5 111.5Z" fill="#202020"/>
<path fill-rule="evenodd" clip-rule="evenodd" d="M422.5 111.5C424.433 111.5 426 109.933 426 108C426 106.067 424.433 104.5 422.5 104.5C420.567 104.5 419 106.067 419 108C419 109.933 420.567 111.5 422.5 111.5Z" fill="#202020"/>
<path fill-rule="evenodd" clip-rule="evenodd" d="M387.5 111.5C389.433 111.5 391 109.933 391 108C391 106.067 389.433 104.5 387.5 104.5C385.567 104.5 384 106.067 384 108C384 109.933 385.567 111.5 387.5 111.5Z" fill="#202020"/>
<path fill-rule="evenodd" clip-rule="evenodd" d="M737.5 76.5C739.433 76.5 741 74.933 741 73C741 71.067 739.433 69.5 737.5 69.5C735.567 69.5 734 71.067 734 73C734 74.933 735.567 76.5 737.5 76.5Z" fill="#202020"/>
<path fill-rule="evenodd" clip-rule="evenodd" d="M702.5 76.5C704.433 76.5 706 74.933 706 73C706 71.067 704.433 69.5 702.5 69.5C700.567 69.5 699 71.067 699 73C699 74.933 700.567 76.5 702.5 76.5Z" fill="#202020"/>
<path fill-rule="evenodd" clip-rule="evenodd" d="M667.5 76.5C669.433 76.5 671 74.933 671 73C671 71.067 669.433 69.5 667.5 69.5C665.567 69.5 664 71.067 664 73C664 74.933 665.567 76.5 667.5 76.5Z" fill="#202020"/>
<path fill-rule="evenodd" clip-rule="evenodd" d="M632.5 76.5C634.433 76.5 636 74.933 636 73C636 71.067 634.433 69.5 632.5 69.5C630.567 69.5 629 71.067 629 73C629 74.933 630.567 76.5 632.5 76.5Z" fill="#202020"/>
<path fill-rule="evenodd" clip-rule="evenodd" d="M597.5 76.5C599.433 76.5 601 74.933 601 73C601 71.067 599.433 69.5 597.5 69.5C595.567 69.5 594 71.067 594 73C594 74.933 595.567 76.5 597.5 76.5Z" fill="#202020"/>
<path fill-rule="evenodd" clip-rule="evenodd" d="M562.5 76.5C564.433 76.5 566 74.933 566 73C566 71.067 564.433 69.5 562.5 69.5C560.567 69.5 559 71.067 559 73C559 74.933 560.567 76.5 562.5 76.5Z" fill="#202020"/>
<path fill-rule="evenodd" clip-rule="evenodd" d="M527.5 76.5C529.433 76.5 531 74.933 531 73C531 71.067 529.433 69.5 527.5 69.5C525.567 69.5 524 71.067 524 73C524 74.933 525.567 76.5 527.5 76.5Z" fill="#202020"/>
<path fill-rule="evenodd" clip-rule="evenodd" d="M492.5 76.5C494.433 76.5 496 74.933 496 73C496 71.067 494.433 69.5 492.5 69.5C490.567 69.5 489 71.067 489 73C489 74.933 490.567 76.5 492.5 76.5Z" fill="#202020"/>
<path fill-rule="evenodd" clip-rule="evenodd" d="M457.5 76.5C459.433 76.5 461 74.933 461 73C461 71.067 459.433 69.5 457.5 69.5C455.567 69.5 454 71.067 454 73C454 74.933 455.567 76.5 457.5 76.5Z" fill="#202020"/>
<path fill-rule="evenodd" clip-rule="evenodd" d="M422.5 76.5C424.433 76.5 426 74.933 426 73C426 71.067 424.433 69.5 422.5 69.5C420.567 69.5 419 71.067 419 73C419 74.933 420.567 76.5 422.5 76.5Z" fill="#202020"/>
<path fill-rule="evenodd" clip-rule="evenodd" d="M387.5 76.5C389.433 76.5 391 74.933 391 73C391 71.067 389.433 69.5 387.5 69.5C385.567 69.5 384 71.067 384 73C384 74.933 385.567 76.5 387.5 76.5Z" fill="#202020"/>
<path fill-rule="evenodd" clip-rule="evenodd" d="M737.5 41.5C739.433 41.5 741 39.933 741 38C741 36.067 739.433 34.5 737.5 34.5C735.567 34.5 734 36.067 734 38C734 39.933 735.567 41.5 737.5 41.5Z" fill="#202020"/>
<path fill-rule="evenodd" clip-rule="evenodd" d="M702.5 41.5C704.433 41.5 706 39.933 706 38C706 36.067 704.433 34.5 702.5 34.5C700.567 34.5 699 36.067 699 38C699 39.933 700.567 41.5 702.5 41.5Z" fill="#202020"/>
<path fill-rule="evenodd" clip-rule="evenodd" d="M667.5 41.5C669.433 41.5 671 39.933 671 38C671 36.067 669.433 34.5 667.5 34.5C665.567 34.5 664 36.067 664 38C664 39.933 665.567 41.5 667.5 41.5Z" fill="#202020"/>
<path fill-rule="evenodd" clip-rule="evenodd" d="M632.5 41.5C634.433 41.5 636 39.933 636 38C636 36.067 634.433 34.5 632.5 34.5C630.567 34.5 629 36.067 629 38C629 39.933 630.567 41.5 632.5 41.5Z" fill="#202020"/>
<path fill-rule="evenodd" clip-rule="evenodd" d="M597.5 41.5C599.433 41.5 601 39.933 601 38C601 36.067 599.433 34.5 597.5 34.5C595.567 34.5 594 36.067 594 38C594 39.933 595.567 41.5 597.5 41.5Z" fill="#202020"/>
<path fill-rule="evenodd" clip-rule="evenodd" d="M562.5 41.5C564.433 41.5 566 39.933 566 38C566 36.067 564.433 34.5 562.5 34.5C560.567 34.5 559 36.067 559 38C559 39.933 560.567 41.5 562.5 41.5Z" fill="#202020"/>
<path fill-rule="evenodd" clip-rule="evenodd" d="M527.5 41.5C529.433 41.5 531 39.933 531 38C531 36.067 529.433 34.5 527.5 34.5C525.567 34.5 524 36.067 524 38C524 39.933 525.567 41.5 527.5 41.5Z" fill="#202020"/>
<path fill-rule="evenodd" clip-rule="evenodd" d="M492.5 41.5C494.433 41.5 496 39.933 496 38C496 36.067 494.433 34.5 492.5 34.5C490.567 34.5 489 36.067 489 38C489 39.933 490.567 41.5 492.5 41.5Z" fill="#202020"/>
<path fill-rule="evenodd" clip-rule="evenodd" d="M457.5 41.5C459.433 41.5 461 39.933 461 38C461 36.067 459.433 34.5 457.5 34.5C455.567 34.5 454 36.067 454 38C454 39.933 455.567 41.5 457.5 41.5Z" fill="#202020"/>
<path fill-rule="evenodd" clip-rule="evenodd" d="M422.5 41.5C424.433 41.5 426 39.933 426 38C426 36.067 424.433 34.5 422.5 34.5C420.567 34.5 419 36.067 419 38C419 39.933 420.567 41.5 422.5 41.5Z" fill="#202020"/>
<path fill-rule="evenodd" clip-rule="evenodd" d="M387.5 41.5C389.433 41.5 391 39.933 391 38C391 36.067 389.433 34.5 387.5 34.5C385.567 34.5 384 36.067 384 38C384 39.933 385.567 41.5 387.5 41.5Z" fill="#202020"/>
<path fill-rule="evenodd" clip-rule="evenodd" d="M737.5 6.5C739.433 6.5 741 4.933 741 3C741 1.067 739.433 -0.5 737.5 -0.5C735.567 -0.5 734 1.067 734 3C734 4.933 735.567 6.5 737.5 6.5Z" fill="#202020"/>
<path fill-rule="evenodd" clip-rule="evenodd" d="M702.5 6.5C704.433 6.5 706 4.933 706 3C706 1.067 704.433 -0.5 702.5 -0.5C700.567 -0.5 699 1.067 699 3C699 4.933 700.567 6.5 702.5 6.5Z" fill="#202020"/>
<path fill-rule="evenodd" clip-rule="evenodd" d="M667.5 6.5C669.433 6.5 671 4.933 671 3C671 1.067 669.433 -0.5 667.5 -0.5C665.567 -0.5 664 1.067 664 3C664 4.933 665.567 6.5 667.5 6.5Z" fill="#202020"/>
<path fill-rule="evenodd" clip-rule="evenodd" d="M632.5 6.5C634.433 6.5 636 4.933 636 3C636 1.067 634.433 -0.5 632.5 -0.5C630.567 -0.5 629 1.067 629 3C629 4.933 630.567 6.5 632.5 6.5Z" fill="#202020"/>
<path fill-rule="evenodd" clip-rule="evenodd" d="M597.5 6.5C599.433 6.5 601 4.933 601 3C601 1.067 599.433 -0.5 597.5 -0.5C595.567 -0.5 594 1.067 594 3C594 4.933 595.567 6.5 597.5 6.5Z" fill="#202020"/>
<path fill-rule="evenodd" clip-rule="evenodd" d="M562.5 6.5C564.433 6.5 566 4.933 566 3C566 1.067 564.433 -0.5 562.5 -0.5C560.567 -0.5 559 1.067 559 3C559 4.933 560.567 6.5 562.5 6.5Z" fill="#202020"/>
<path fill-rule="evenodd" clip-rule="evenodd" d="M527.5 6.5C529.433 6.5 531 4.933 531 3C531 1.067 529.433 -0.5 527.5 -0.5C525.567 -0.5 524 1.067 524 3C524 4.933 525.567 6.5 527.5 6.5Z" fill="#202020"/>
<path fill-rule="evenodd" clip-rule="evenodd" d="M492.5 6.5C494.433 6.5 496 4.933 496 3C496 1.067 494.433 -0.5 492.5 -0.5C490.567 -0.5 489 1.067 489 3C489 4.933 490.567 6.5 492.5 6.5Z" fill="#202020"/>
<path fill-rule="evenodd" clip-rule="evenodd" d="M457.5 6.5C459.433 6.5 461 4.933 461 3C461 1.067 459.433 -0.5 457.5 -0.5C455.567 -0.5 454 1.067 454 3C454 4.933 455.567 6.5 457.5 6.5Z" fill="#202020"/>
<path fill-rule="evenodd" clip-rule="evenodd" d="M422.5 6.5C424.433 6.5 426 4.933 426 3C426 1.067 424.433 -0.5 422.5 -0.5C420.567 -0.5 419 1.067 419 3C419 4.933 420.567 6.5 422.5 6.5Z" fill="#202020"/>
<path fill-rule="evenodd" clip-rule="evenodd" d="M387.5 6.5C389.433 6.5 391 4.933 391 3C391 1.067 389.433 -0.5 387.5 -0.5C385.567 -0.5 384 1.067 384 3C384 4.933 385.567 6.5 387.5 6.5Z" fill="#202020"/>
</g>
</svg>
