<svg width="1920" height="230" viewBox="0 0 1920 230" fill="none" xmlns="http://www.w3.org/2000/svg">
<mask id="mask0" mask-type="alpha" maskUnits="userSpaceOnUse" x="0" y="0" width="1922" height="230">
<path fill-rule="evenodd" clip-rule="evenodd" d="M1467 133C1467 133 1385.17 34 1271.76 34C1158.36 34 1085.51 110 1085.51 110C1085.51 110 1015.41 0 867.203 0C724.004 0 638.886 148 638.886 148C638.886 148 594.825 66 504.7 66C414.575 66 336.467 160 336.467 160C336.467 160 264.367 96 148.206 110C32.0444 138 0 194 0 194V229.5H1922V110C1922 110 1855 42.5 1711 47C1567 51.5 1467 133 1467 133Z" fill="#202020"/>
</mask>
<g mask="url(#mask0)">
<rect width="2238" height="14427" transform="translate(-316 -36)" fill="#171717"/>
<path fill-rule="evenodd" clip-rule="evenodd" d="M406.058 216C408.146 216 409.838 214.433 409.838 212.5C409.838 210.567 408.146 209 406.058 209C403.97 209 402.277 210.567 402.277 212.5C402.277 214.433 403.97 216 406.058 216Z" fill="#202020"/>
<path fill-rule="evenodd" clip-rule="evenodd" d="M368.253 216C370.341 216 372.033 214.433 372.033 212.5C372.033 210.567 370.341 209 368.253 209C366.165 209 364.473 210.567 364.473 212.5C364.473 214.433 366.165 216 368.253 216Z" fill="#202020"/>
<path fill-rule="evenodd" clip-rule="evenodd" d="M330.448 216C332.536 216 334.229 214.433 334.229 212.5C334.229 210.567 332.536 209 330.448 209C328.361 209 326.668 210.567 326.668 212.5C326.668 214.433 328.361 216 330.448 216Z" fill="#202020"/>
<path fill-rule="evenodd" clip-rule="evenodd" d="M292.646 216C294.734 216 296.426 214.433 296.426 212.5C296.426 210.567 294.734 209 292.646 209C290.558 209 288.865 210.567 288.865 212.5C288.865 214.433 290.558 216 292.646 216Z" fill="#202020"/>
<path fill-rule="evenodd" clip-rule="evenodd" d="M254.841 216C256.929 216 258.621 214.433 258.621 212.5C258.621 210.567 256.929 209 254.841 209C252.753 209 251.061 210.567 251.061 212.5C251.061 214.433 252.753 216 254.841 216Z" fill="#202020"/>
<path fill-rule="evenodd" clip-rule="evenodd" d="M217.036 216C219.124 216 220.817 214.433 220.817 212.5C220.817 210.567 219.124 209 217.036 209C214.948 209 213.256 210.567 213.256 212.5C213.256 214.433 214.948 216 217.036 216Z" fill="#202020"/>
<path fill-rule="evenodd" clip-rule="evenodd" d="M179.234 216C181.321 216 183.014 214.433 183.014 212.5C183.014 210.567 181.321 209 179.234 209C177.146 209 175.453 210.567 175.453 212.5C175.453 214.433 177.146 216 179.234 216Z" fill="#202020"/>
<path fill-rule="evenodd" clip-rule="evenodd" d="M141.429 216C143.517 216 145.209 214.433 145.209 212.5C145.209 210.567 143.517 209 141.429 209C139.341 209 137.648 210.567 137.648 212.5C137.648 214.433 139.341 216 141.429 216Z" fill="#202020"/>
<path fill-rule="evenodd" clip-rule="evenodd" d="M103.624 216C105.712 216 107.405 214.433 107.405 212.5C107.405 210.567 105.712 209 103.624 209C101.536 209 99.8438 210.567 99.8438 212.5C99.8438 214.433 101.536 216 103.624 216Z" fill="#202020"/>
<path fill-rule="evenodd" clip-rule="evenodd" d="M65.8214 216C67.9093 216 69.6018 214.433 69.6018 212.5C69.6018 210.567 67.9093 209 65.8214 209C63.7336 209 62.041 210.567 62.041 212.5C62.041 214.433 63.7336 216 65.8214 216Z" fill="#202020"/>
<path fill-rule="evenodd" clip-rule="evenodd" d="M28.0167 216C30.1046 216 31.7971 214.433 31.7971 212.5C31.7971 210.567 30.1046 209 28.0167 209C25.9289 209 24.2363 210.567 24.2363 212.5C24.2363 214.433 25.9289 216 28.0167 216Z" fill="#202020"/>
<path fill-rule="evenodd" clip-rule="evenodd" d="M406.058 181C408.146 181 409.838 179.433 409.838 177.5C409.838 175.567 408.146 174 406.058 174C403.97 174 402.277 175.567 402.277 177.5C402.277 179.433 403.97 181 406.058 181Z" fill="#202020"/>
<path fill-rule="evenodd" clip-rule="evenodd" d="M368.253 181C370.341 181 372.033 179.433 372.033 177.5C372.033 175.567 370.341 174 368.253 174C366.165 174 364.473 175.567 364.473 177.5C364.473 179.433 366.165 181 368.253 181Z" fill="#202020"/>
<path fill-rule="evenodd" clip-rule="evenodd" d="M330.448 181C332.536 181 334.229 179.433 334.229 177.5C334.229 175.567 332.536 174 330.448 174C328.361 174 326.668 175.567 326.668 177.5C326.668 179.433 328.361 181 330.448 181Z" fill="#202020"/>
<path fill-rule="evenodd" clip-rule="evenodd" d="M292.646 181C294.734 181 296.426 179.433 296.426 177.5C296.426 175.567 294.734 174 292.646 174C290.558 174 288.865 175.567 288.865 177.5C288.865 179.433 290.558 181 292.646 181Z" fill="#202020"/>
<path fill-rule="evenodd" clip-rule="evenodd" d="M254.841 181C256.929 181 258.621 179.433 258.621 177.5C258.621 175.567 256.929 174 254.841 174C252.753 174 251.061 175.567 251.061 177.5C251.061 179.433 252.753 181 254.841 181Z" fill="#202020"/>
<path fill-rule="evenodd" clip-rule="evenodd" d="M217.036 181C219.124 181 220.817 179.433 220.817 177.5C220.817 175.567 219.124 174 217.036 174C214.948 174 213.256 175.567 213.256 177.5C213.256 179.433 214.948 181 217.036 181Z" fill="#202020"/>
<path fill-rule="evenodd" clip-rule="evenodd" d="M179.234 181C181.321 181 183.014 179.433 183.014 177.5C183.014 175.567 181.321 174 179.234 174C177.146 174 175.453 175.567 175.453 177.5C175.453 179.433 177.146 181 179.234 181Z" fill="#202020"/>
<path fill-rule="evenodd" clip-rule="evenodd" d="M141.429 181C143.517 181 145.209 179.433 145.209 177.5C145.209 175.567 143.517 174 141.429 174C139.341 174 137.648 175.567 137.648 177.5C137.648 179.433 139.341 181 141.429 181Z" fill="#202020"/>
<path fill-rule="evenodd" clip-rule="evenodd" d="M103.624 181C105.712 181 107.405 179.433 107.405 177.5C107.405 175.567 105.712 174 103.624 174C101.536 174 99.8438 175.567 99.8438 177.5C99.8438 179.433 101.536 181 103.624 181Z" fill="#202020"/>
<path fill-rule="evenodd" clip-rule="evenodd" d="M65.8214 181C67.9093 181 69.6018 179.433 69.6018 177.5C69.6018 175.567 67.9093 174 65.8214 174C63.7336 174 62.041 175.567 62.041 177.5C62.041 179.433 63.7336 181 65.8214 181Z" fill="#202020"/>
<path fill-rule="evenodd" clip-rule="evenodd" d="M28.0167 181C30.1046 181 31.7971 179.433 31.7971 177.5C31.7971 175.567 30.1046 174 28.0167 174C25.9289 174 24.2363 175.567 24.2363 177.5C24.2363 179.433 25.9289 181 28.0167 181Z" fill="#202020"/>
<path fill-rule="evenodd" clip-rule="evenodd" d="M406.058 146C408.146 146 409.838 144.433 409.838 142.5C409.838 140.567 408.146 139 406.058 139C403.97 139 402.277 140.567 402.277 142.5C402.277 144.433 403.97 146 406.058 146Z" fill="#202020"/>
<path fill-rule="evenodd" clip-rule="evenodd" d="M368.253 146C370.341 146 372.033 144.433 372.033 142.5C372.033 140.567 370.341 139 368.253 139C366.165 139 364.473 140.567 364.473 142.5C364.473 144.433 366.165 146 368.253 146Z" fill="#202020"/>
<path fill-rule="evenodd" clip-rule="evenodd" d="M330.448 146C332.536 146 334.229 144.433 334.229 142.5C334.229 140.567 332.536 139 330.448 139C328.361 139 326.668 140.567 326.668 142.5C326.668 144.433 328.361 146 330.448 146Z" fill="#202020"/>
<path fill-rule="evenodd" clip-rule="evenodd" d="M292.646 146C294.734 146 296.426 144.433 296.426 142.5C296.426 140.567 294.734 139 292.646 139C290.558 139 288.865 140.567 288.865 142.5C288.865 144.433 290.558 146 292.646 146Z" fill="#202020"/>
<path fill-rule="evenodd" clip-rule="evenodd" d="M254.841 146C256.929 146 258.621 144.433 258.621 142.5C258.621 140.567 256.929 139 254.841 139C252.753 139 251.061 140.567 251.061 142.5C251.061 144.433 252.753 146 254.841 146Z" fill="#202020"/>
<path fill-rule="evenodd" clip-rule="evenodd" d="M217.036 146C219.124 146 220.817 144.433 220.817 142.5C220.817 140.567 219.124 139 217.036 139C214.948 139 213.256 140.567 213.256 142.5C213.256 144.433 214.948 146 217.036 146Z" fill="#202020"/>
<path fill-rule="evenodd" clip-rule="evenodd" d="M179.234 146C181.321 146 183.014 144.433 183.014 142.5C183.014 140.567 181.321 139 179.234 139C177.146 139 175.453 140.567 175.453 142.5C175.453 144.433 177.146 146 179.234 146Z" fill="#202020"/>
<path fill-rule="evenodd" clip-rule="evenodd" d="M141.429 146C143.517 146 145.209 144.433 145.209 142.5C145.209 140.567 143.517 139 141.429 139C139.341 139 137.648 140.567 137.648 142.5C137.648 144.433 139.341 146 141.429 146Z" fill="#202020"/>
<path fill-rule="evenodd" clip-rule="evenodd" d="M103.624 146C105.712 146 107.405 144.433 107.405 142.5C107.405 140.567 105.712 139 103.624 139C101.536 139 99.8438 140.567 99.8438 142.5C99.8438 144.433 101.536 146 103.624 146Z" fill="#202020"/>
<path fill-rule="evenodd" clip-rule="evenodd" d="M65.8214 146C67.9093 146 69.6018 144.433 69.6018 142.5C69.6018 140.567 67.9093 139 65.8214 139C63.7336 139 62.041 140.567 62.041 142.5C62.041 144.433 63.7336 146 65.8214 146Z" fill="#202020"/>
<path fill-rule="evenodd" clip-rule="evenodd" d="M28.0167 146C30.1046 146 31.7971 144.433 31.7971 142.5C31.7971 140.567 30.1046 139 28.0167 139C25.9289 139 24.2363 140.567 24.2363 142.5C24.2363 144.433 25.9289 146 28.0167 146Z" fill="#202020"/>
<path fill-rule="evenodd" clip-rule="evenodd" d="M406.058 111C408.146 111 409.838 109.433 409.838 107.5C409.838 105.567 408.146 104 406.058 104C403.97 104 402.277 105.567 402.277 107.5C402.277 109.433 403.97 111 406.058 111Z" fill="#202020"/>
<path fill-rule="evenodd" clip-rule="evenodd" d="M368.253 111C370.341 111 372.033 109.433 372.033 107.5C372.033 105.567 370.341 104 368.253 104C366.165 104 364.473 105.567 364.473 107.5C364.473 109.433 366.165 111 368.253 111Z" fill="#202020"/>
<path fill-rule="evenodd" clip-rule="evenodd" d="M330.448 111C332.536 111 334.229 109.433 334.229 107.5C334.229 105.567 332.536 104 330.448 104C328.361 104 326.668 105.567 326.668 107.5C326.668 109.433 328.361 111 330.448 111Z" fill="#202020"/>
<path fill-rule="evenodd" clip-rule="evenodd" d="M292.646 111C294.734 111 296.426 109.433 296.426 107.5C296.426 105.567 294.734 104 292.646 104C290.558 104 288.865 105.567 288.865 107.5C288.865 109.433 290.558 111 292.646 111Z" fill="#202020"/>
<path fill-rule="evenodd" clip-rule="evenodd" d="M254.841 111C256.929 111 258.621 109.433 258.621 107.5C258.621 105.567 256.929 104 254.841 104C252.753 104 251.061 105.567 251.061 107.5C251.061 109.433 252.753 111 254.841 111Z" fill="#202020"/>
<path fill-rule="evenodd" clip-rule="evenodd" d="M217.036 111C219.124 111 220.817 109.433 220.817 107.5C220.817 105.567 219.124 104 217.036 104C214.948 104 213.256 105.567 213.256 107.5C213.256 109.433 214.948 111 217.036 111Z" fill="#202020"/>
<path fill-rule="evenodd" clip-rule="evenodd" d="M179.234 111C181.321 111 183.014 109.433 183.014 107.5C183.014 105.567 181.321 104 179.234 104C177.146 104 175.453 105.567 175.453 107.5C175.453 109.433 177.146 111 179.234 111Z" fill="#202020"/>
<path fill-rule="evenodd" clip-rule="evenodd" d="M141.429 111C143.517 111 145.209 109.433 145.209 107.5C145.209 105.567 143.517 104 141.429 104C139.341 104 137.648 105.567 137.648 107.5C137.648 109.433 139.341 111 141.429 111Z" fill="#202020"/>
<path fill-rule="evenodd" clip-rule="evenodd" d="M103.624 111C105.712 111 107.405 109.433 107.405 107.5C107.405 105.567 105.712 104 103.624 104C101.536 104 99.8438 105.567 99.8438 107.5C99.8438 109.433 101.536 111 103.624 111Z" fill="#202020"/>
<path fill-rule="evenodd" clip-rule="evenodd" d="M65.8214 111C67.9093 111 69.6018 109.433 69.6018 107.5C69.6018 105.567 67.9093 104 65.8214 104C63.7336 104 62.041 105.567 62.041 107.5C62.041 109.433 63.7336 111 65.8214 111Z" fill="#202020"/>
<path fill-rule="evenodd" clip-rule="evenodd" d="M28.0167 111C30.1046 111 31.7971 109.433 31.7971 107.5C31.7971 105.567 30.1046 104 28.0167 104C25.9289 104 24.2363 105.567 24.2363 107.5C24.2363 109.433 25.9289 111 28.0167 111Z" fill="#202020"/>
<path fill-rule="evenodd" clip-rule="evenodd" d="M406.058 76C408.146 76 409.838 74.433 409.838 72.5C409.838 70.567 408.146 69 406.058 69C403.97 69 402.277 70.567 402.277 72.5C402.277 74.433 403.97 76 406.058 76Z" fill="#202020"/>
<path fill-rule="evenodd" clip-rule="evenodd" d="M368.253 76C370.341 76 372.033 74.433 372.033 72.5C372.033 70.567 370.341 69 368.253 69C366.165 69 364.473 70.567 364.473 72.5C364.473 74.433 366.165 76 368.253 76Z" fill="#202020"/>
<path fill-rule="evenodd" clip-rule="evenodd" d="M330.448 76C332.536 76 334.229 74.433 334.229 72.5C334.229 70.567 332.536 69 330.448 69C328.361 69 326.668 70.567 326.668 72.5C326.668 74.433 328.361 76 330.448 76Z" fill="#202020"/>
<path fill-rule="evenodd" clip-rule="evenodd" d="M292.646 76C294.734 76 296.426 74.433 296.426 72.5C296.426 70.567 294.734 69 292.646 69C290.558 69 288.865 70.567 288.865 72.5C288.865 74.433 290.558 76 292.646 76Z" fill="#202020"/>
<path fill-rule="evenodd" clip-rule="evenodd" d="M254.841 76C256.929 76 258.621 74.433 258.621 72.5C258.621 70.567 256.929 69 254.841 69C252.753 69 251.061 70.567 251.061 72.5C251.061 74.433 252.753 76 254.841 76Z" fill="#202020"/>
<path fill-rule="evenodd" clip-rule="evenodd" d="M217.036 76C219.124 76 220.817 74.433 220.817 72.5C220.817 70.567 219.124 69 217.036 69C214.948 69 213.256 70.567 213.256 72.5C213.256 74.433 214.948 76 217.036 76Z" fill="#202020"/>
<path fill-rule="evenodd" clip-rule="evenodd" d="M179.234 76C181.321 76 183.014 74.433 183.014 72.5C183.014 70.567 181.321 69 179.234 69C177.146 69 175.453 70.567 175.453 72.5C175.453 74.433 177.146 76 179.234 76Z" fill="#202020"/>
<path fill-rule="evenodd" clip-rule="evenodd" d="M141.429 76C143.517 76 145.209 74.433 145.209 72.5C145.209 70.567 143.517 69 141.429 69C139.341 69 137.648 70.567 137.648 72.5C137.648 74.433 139.341 76 141.429 76Z" fill="#202020"/>
<path fill-rule="evenodd" clip-rule="evenodd" d="M103.624 76C105.712 76 107.405 74.433 107.405 72.5C107.405 70.567 105.712 69 103.624 69C101.536 69 99.8438 70.567 99.8438 72.5C99.8438 74.433 101.536 76 103.624 76Z" fill="#202020"/>
<path fill-rule="evenodd" clip-rule="evenodd" d="M65.8214 76C67.9093 76 69.6018 74.433 69.6018 72.5C69.6018 70.567 67.9093 69 65.8214 69C63.7336 69 62.041 70.567 62.041 72.5C62.041 74.433 63.7336 76 65.8214 76Z" fill="#202020"/>
<path fill-rule="evenodd" clip-rule="evenodd" d="M28.0167 76C30.1046 76 31.7971 74.433 31.7971 72.5C31.7971 70.567 30.1046 69 28.0167 69C25.9289 69 24.2363 70.567 24.2363 72.5C24.2363 74.433 25.9289 76 28.0167 76Z" fill="#202020"/>
<path fill-rule="evenodd" clip-rule="evenodd" d="M406.058 41C408.146 41 409.838 39.433 409.838 37.5C409.838 35.567 408.146 34 406.058 34C403.97 34 402.277 35.567 402.277 37.5C402.277 39.433 403.97 41 406.058 41Z" fill="#202020"/>
<path fill-rule="evenodd" clip-rule="evenodd" d="M368.253 41C370.341 41 372.033 39.433 372.033 37.5C372.033 35.567 370.341 34 368.253 34C366.165 34 364.473 35.567 364.473 37.5C364.473 39.433 366.165 41 368.253 41Z" fill="#202020"/>
<path fill-rule="evenodd" clip-rule="evenodd" d="M330.448 41C332.536 41 334.229 39.433 334.229 37.5C334.229 35.567 332.536 34 330.448 34C328.361 34 326.668 35.567 326.668 37.5C326.668 39.433 328.361 41 330.448 41Z" fill="#202020"/>
<path fill-rule="evenodd" clip-rule="evenodd" d="M292.646 41C294.734 41 296.426 39.433 296.426 37.5C296.426 35.567 294.734 34 292.646 34C290.558 34 288.865 35.567 288.865 37.5C288.865 39.433 290.558 41 292.646 41Z" fill="#202020"/>
<path fill-rule="evenodd" clip-rule="evenodd" d="M254.841 41C256.929 41 258.621 39.433 258.621 37.5C258.621 35.567 256.929 34 254.841 34C252.753 34 251.061 35.567 251.061 37.5C251.061 39.433 252.753 41 254.841 41Z" fill="#202020"/>
<path fill-rule="evenodd" clip-rule="evenodd" d="M217.036 41C219.124 41 220.817 39.433 220.817 37.5C220.817 35.567 219.124 34 217.036 34C214.948 34 213.256 35.567 213.256 37.5C213.256 39.433 214.948 41 217.036 41Z" fill="#202020"/>
<path fill-rule="evenodd" clip-rule="evenodd" d="M179.234 41C181.321 41 183.014 39.433 183.014 37.5C183.014 35.567 181.321 34 179.234 34C177.146 34 175.453 35.567 175.453 37.5C175.453 39.433 177.146 41 179.234 41Z" fill="#202020"/>
<path fill-rule="evenodd" clip-rule="evenodd" d="M141.429 41C143.517 41 145.209 39.433 145.209 37.5C145.209 35.567 143.517 34 141.429 34C139.341 34 137.648 35.567 137.648 37.5C137.648 39.433 139.341 41 141.429 41Z" fill="#202020"/>
<path fill-rule="evenodd" clip-rule="evenodd" d="M103.624 41C105.712 41 107.405 39.433 107.405 37.5C107.405 35.567 105.712 34 103.624 34C101.536 34 99.8438 35.567 99.8438 37.5C99.8438 39.433 101.536 41 103.624 41Z" fill="#202020"/>
<path fill-rule="evenodd" clip-rule="evenodd" d="M65.8214 41C67.9093 41 69.6018 39.433 69.6018 37.5C69.6018 35.567 67.9093 34 65.8214 34C63.7336 34 62.041 35.567 62.041 37.5C62.041 39.433 63.7336 41 65.8214 41Z" fill="#202020"/>
<path fill-rule="evenodd" clip-rule="evenodd" d="M28.0167 41C30.1046 41 31.7971 39.433 31.7971 37.5C31.7971 35.567 30.1046 34 28.0167 34C25.9289 34 24.2363 35.567 24.2363 37.5C24.2363 39.433 25.9289 41 28.0167 41Z" fill="#202020"/>
<path fill-rule="evenodd" clip-rule="evenodd" d="M406.058 6C408.146 6 409.838 4.433 409.838 2.5C409.838 0.567003 408.146 -1 406.058 -1C403.97 -1 402.277 0.567003 402.277 2.5C402.277 4.433 403.97 6 406.058 6Z" fill="#202020"/>
<path fill-rule="evenodd" clip-rule="evenodd" d="M368.253 6C370.341 6 372.033 4.433 372.033 2.5C372.033 0.567003 370.341 -1 368.253 -1C366.165 -1 364.473 0.567003 364.473 2.5C364.473 4.433 366.165 6 368.253 6Z" fill="#202020"/>
<path fill-rule="evenodd" clip-rule="evenodd" d="M330.448 6C332.536 6 334.229 4.433 334.229 2.5C334.229 0.567003 332.536 -1 330.448 -1C328.361 -1 326.668 0.567003 326.668 2.5C326.668 4.433 328.361 6 330.448 6Z" fill="#202020"/>
<path fill-rule="evenodd" clip-rule="evenodd" d="M292.646 6C294.734 6 296.426 4.433 296.426 2.5C296.426 0.567003 294.734 -1 292.646 -1C290.558 -1 288.865 0.567003 288.865 2.5C288.865 4.433 290.558 6 292.646 6Z" fill="#202020"/>
<path fill-rule="evenodd" clip-rule="evenodd" d="M254.841 6C256.929 6 258.621 4.433 258.621 2.5C258.621 0.567003 256.929 -1 254.841 -1C252.753 -1 251.061 0.567003 251.061 2.5C251.061 4.433 252.753 6 254.841 6Z" fill="#202020"/>
<path fill-rule="evenodd" clip-rule="evenodd" d="M217.036 6C219.124 6 220.817 4.433 220.817 2.5C220.817 0.567003 219.124 -1 217.036 -1C214.948 -1 213.256 0.567003 213.256 2.5C213.256 4.433 214.948 6 217.036 6Z" fill="#202020"/>
<path fill-rule="evenodd" clip-rule="evenodd" d="M179.234 6C181.321 6 183.014 4.433 183.014 2.5C183.014 0.567003 181.321 -1 179.234 -1C177.146 -1 175.453 0.567003 175.453 2.5C175.453 4.433 177.146 6 179.234 6Z" fill="#202020"/>
<path fill-rule="evenodd" clip-rule="evenodd" d="M141.429 6C143.517 6 145.209 4.433 145.209 2.5C145.209 0.567003 143.517 -1 141.429 -1C139.341 -1 137.648 0.567003 137.648 2.5C137.648 4.433 139.341 6 141.429 6Z" fill="#202020"/>
<path fill-rule="evenodd" clip-rule="evenodd" d="M103.624 6C105.712 6 107.405 4.433 107.405 2.5C107.405 0.567003 105.712 -1 103.624 -1C101.536 -1 99.8438 0.567003 99.8438 2.5C99.8438 4.433 101.536 6 103.624 6Z" fill="#202020"/>
<path fill-rule="evenodd" clip-rule="evenodd" d="M65.8214 6C67.9093 6 69.6018 4.433 69.6018 2.5C69.6018 0.567003 67.9093 -1 65.8214 -1C63.7336 -1 62.041 0.567003 62.041 2.5C62.041 4.433 63.7336 6 65.8214 6Z" fill="#202020"/>
<path fill-rule="evenodd" clip-rule="evenodd" d="M28.0167 6C30.1046 6 31.7971 4.433 31.7971 2.5C31.7971 0.567003 30.1046 -1 28.0167 -1C25.9289 -1 24.2363 0.567003 24.2363 2.5C24.2363 4.433 25.9289 6 28.0167 6Z" fill="#202020"/>
<path fill-rule="evenodd" clip-rule="evenodd" d="M1162.14 216C1164.23 216 1165.92 214.433 1165.92 212.5C1165.92 210.567 1164.23 209 1162.14 209C1160.05 209 1158.36 210.567 1158.36 212.5C1158.36 214.433 1160.05 216 1162.14 216Z" fill="#202020"/>
<path fill-rule="evenodd" clip-rule="evenodd" d="M1124.34 216C1126.42 216 1128.12 214.433 1128.12 212.5C1128.12 210.567 1126.42 209 1124.34 209C1122.25 209 1120.55 210.567 1120.55 212.5C1120.55 214.433 1122.25 216 1124.34 216Z" fill="#202020"/>
<path fill-rule="evenodd" clip-rule="evenodd" d="M1086.53 216C1088.62 216 1090.31 214.433 1090.31 212.5C1090.31 210.567 1088.62 209 1086.53 209C1084.44 209 1082.75 210.567 1082.75 212.5C1082.75 214.433 1084.44 216 1086.53 216Z" fill="#202020"/>
<path fill-rule="evenodd" clip-rule="evenodd" d="M1048.73 216C1050.81 216 1052.51 214.433 1052.51 212.5C1052.51 210.567 1050.81 209 1048.73 209C1046.64 209 1044.95 210.567 1044.95 212.5C1044.95 214.433 1046.64 216 1048.73 216Z" fill="#202020"/>
<path fill-rule="evenodd" clip-rule="evenodd" d="M557.275 216C559.362 216 561.055 214.433 561.055 212.5C561.055 210.567 559.362 209 557.275 209C555.187 209 553.494 210.567 553.494 212.5C553.494 214.433 555.187 216 557.275 216Z" fill="#202020"/>
<path fill-rule="evenodd" clip-rule="evenodd" d="M595.077 216C597.165 216 598.858 214.433 598.858 212.5C598.858 210.567 597.165 209 595.077 209C592.989 209 591.297 210.567 591.297 212.5C591.297 214.433 592.989 216 595.077 216Z" fill="#202020"/>
<path fill-rule="evenodd" clip-rule="evenodd" d="M632.882 216C634.97 216 636.662 214.433 636.662 212.5C636.662 210.567 634.97 209 632.882 209C630.794 209 629.102 210.567 629.102 212.5C629.102 214.433 630.794 216 632.882 216Z" fill="#202020"/>
<path fill-rule="evenodd" clip-rule="evenodd" d="M670.687 216C672.775 216 674.467 214.433 674.467 212.5C674.467 210.567 672.775 209 670.687 209C668.599 209 666.906 210.567 666.906 212.5C666.906 214.433 668.599 216 670.687 216Z" fill="#202020"/>
<path fill-rule="evenodd" clip-rule="evenodd" d="M708.489 216C710.577 216 712.27 214.433 712.27 212.5C712.27 210.567 710.577 209 708.489 209C706.402 209 704.709 210.567 704.709 212.5C704.709 214.433 706.402 216 708.489 216Z" fill="#202020"/>
<path fill-rule="evenodd" clip-rule="evenodd" d="M746.294 216C748.382 216 750.074 214.433 750.074 212.5C750.074 210.567 748.382 209 746.294 209C744.206 209 742.514 210.567 742.514 212.5C742.514 214.433 744.206 216 746.294 216Z" fill="#202020"/>
<path fill-rule="evenodd" clip-rule="evenodd" d="M784.099 216C786.187 216 787.879 214.433 787.879 212.5C787.879 210.567 786.187 209 784.099 209C782.011 209 780.318 210.567 780.318 212.5C780.318 214.433 782.011 216 784.099 216Z" fill="#202020"/>
<path fill-rule="evenodd" clip-rule="evenodd" d="M821.901 216C823.989 216 825.682 214.433 825.682 212.5C825.682 210.567 823.989 209 821.901 209C819.814 209 818.121 210.567 818.121 212.5C818.121 214.433 819.814 216 821.901 216Z" fill="#202020"/>
<path fill-rule="evenodd" clip-rule="evenodd" d="M859.706 216C861.794 216 863.487 214.433 863.487 212.5C863.487 210.567 861.794 209 859.706 209C857.618 209 855.926 210.567 855.926 212.5C855.926 214.433 857.618 216 859.706 216Z" fill="#202020"/>
<path fill-rule="evenodd" clip-rule="evenodd" d="M897.511 216C899.599 216 901.291 214.433 901.291 212.5C901.291 210.567 899.599 209 897.511 209C895.423 209 893.73 210.567 893.73 212.5C893.73 214.433 895.423 216 897.511 216Z" fill="#202020"/>
<path fill-rule="evenodd" clip-rule="evenodd" d="M935.314 216C937.401 216 939.094 214.433 939.094 212.5C939.094 210.567 937.401 209 935.314 209C933.226 209 931.533 210.567 931.533 212.5C931.533 214.433 933.226 216 935.314 216Z" fill="#202020"/>
<path fill-rule="evenodd" clip-rule="evenodd" d="M973.118 216C975.206 216 976.899 214.433 976.899 212.5C976.899 210.567 975.206 209 973.118 209C971.03 209 969.338 210.567 969.338 212.5C969.338 214.433 971.03 216 973.118 216Z" fill="#202020"/>
<path fill-rule="evenodd" clip-rule="evenodd" d="M1010.92 216C1013.01 216 1014.7 214.433 1014.7 212.5C1014.7 210.567 1013.01 209 1010.92 209C1008.84 209 1007.14 210.567 1007.14 212.5C1007.14 214.433 1008.84 216 1010.92 216Z" fill="#202020"/>
<path fill-rule="evenodd" clip-rule="evenodd" d="M519.47 216C521.558 216 523.25 214.433 523.25 212.5C523.25 210.567 521.558 209 519.47 209C517.382 209 515.689 210.567 515.689 212.5C515.689 214.433 517.382 216 519.47 216Z" fill="#202020"/>
<path fill-rule="evenodd" clip-rule="evenodd" d="M481.665 216C483.753 216 485.446 214.433 485.446 212.5C485.446 210.567 483.753 209 481.665 209C479.577 209 477.885 210.567 477.885 212.5C477.885 214.433 479.577 216 481.665 216Z" fill="#202020"/>
<path fill-rule="evenodd" clip-rule="evenodd" d="M443.862 216C445.95 216 447.643 214.433 447.643 212.5C447.643 210.567 445.95 209 443.862 209C441.775 209 440.082 210.567 440.082 212.5C440.082 214.433 441.775 216 443.862 216Z" fill="#202020"/>
<path fill-rule="evenodd" clip-rule="evenodd" d="M1162.14 181C1164.23 181 1165.92 179.433 1165.92 177.5C1165.92 175.567 1164.23 174 1162.14 174C1160.05 174 1158.36 175.567 1158.36 177.5C1158.36 179.433 1160.05 181 1162.14 181Z" fill="#202020"/>
<path fill-rule="evenodd" clip-rule="evenodd" d="M1124.34 181C1126.42 181 1128.12 179.433 1128.12 177.5C1128.12 175.567 1126.42 174 1124.34 174C1122.25 174 1120.55 175.567 1120.55 177.5C1120.55 179.433 1122.25 181 1124.34 181Z" fill="#202020"/>
<path fill-rule="evenodd" clip-rule="evenodd" d="M1086.53 181C1088.62 181 1090.31 179.433 1090.31 177.5C1090.31 175.567 1088.62 174 1086.53 174C1084.44 174 1082.75 175.567 1082.75 177.5C1082.75 179.433 1084.44 181 1086.53 181Z" fill="#202020"/>
<path fill-rule="evenodd" clip-rule="evenodd" d="M1048.73 181C1050.81 181 1052.51 179.433 1052.51 177.5C1052.51 175.567 1050.81 174 1048.73 174C1046.64 174 1044.95 175.567 1044.95 177.5C1044.95 179.433 1046.64 181 1048.73 181Z" fill="#202020"/>
<path fill-rule="evenodd" clip-rule="evenodd" d="M557.275 181C559.362 181 561.055 179.433 561.055 177.5C561.055 175.567 559.362 174 557.275 174C555.187 174 553.494 175.567 553.494 177.5C553.494 179.433 555.187 181 557.275 181Z" fill="#202020"/>
<path fill-rule="evenodd" clip-rule="evenodd" d="M595.077 181C597.165 181 598.858 179.433 598.858 177.5C598.858 175.567 597.165 174 595.077 174C592.989 174 591.297 175.567 591.297 177.5C591.297 179.433 592.989 181 595.077 181Z" fill="#202020"/>
<path fill-rule="evenodd" clip-rule="evenodd" d="M632.882 181C634.97 181 636.662 179.433 636.662 177.5C636.662 175.567 634.97 174 632.882 174C630.794 174 629.102 175.567 629.102 177.5C629.102 179.433 630.794 181 632.882 181Z" fill="#202020"/>
<path fill-rule="evenodd" clip-rule="evenodd" d="M670.687 181C672.775 181 674.467 179.433 674.467 177.5C674.467 175.567 672.775 174 670.687 174C668.599 174 666.906 175.567 666.906 177.5C666.906 179.433 668.599 181 670.687 181Z" fill="#202020"/>
<path fill-rule="evenodd" clip-rule="evenodd" d="M708.489 181C710.577 181 712.27 179.433 712.27 177.5C712.27 175.567 710.577 174 708.489 174C706.402 174 704.709 175.567 704.709 177.5C704.709 179.433 706.402 181 708.489 181Z" fill="#202020"/>
<path fill-rule="evenodd" clip-rule="evenodd" d="M746.294 181C748.382 181 750.074 179.433 750.074 177.5C750.074 175.567 748.382 174 746.294 174C744.206 174 742.514 175.567 742.514 177.5C742.514 179.433 744.206 181 746.294 181Z" fill="#202020"/>
<path fill-rule="evenodd" clip-rule="evenodd" d="M784.099 181C786.187 181 787.879 179.433 787.879 177.5C787.879 175.567 786.187 174 784.099 174C782.011 174 780.318 175.567 780.318 177.5C780.318 179.433 782.011 181 784.099 181Z" fill="#202020"/>
<path fill-rule="evenodd" clip-rule="evenodd" d="M821.901 181C823.989 181 825.682 179.433 825.682 177.5C825.682 175.567 823.989 174 821.901 174C819.814 174 818.121 175.567 818.121 177.5C818.121 179.433 819.814 181 821.901 181Z" fill="#202020"/>
<path fill-rule="evenodd" clip-rule="evenodd" d="M859.706 181C861.794 181 863.487 179.433 863.487 177.5C863.487 175.567 861.794 174 859.706 174C857.618 174 855.926 175.567 855.926 177.5C855.926 179.433 857.618 181 859.706 181Z" fill="#202020"/>
<path fill-rule="evenodd" clip-rule="evenodd" d="M897.511 181C899.599 181 901.291 179.433 901.291 177.5C901.291 175.567 899.599 174 897.511 174C895.423 174 893.73 175.567 893.73 177.5C893.73 179.433 895.423 181 897.511 181Z" fill="#202020"/>
<path fill-rule="evenodd" clip-rule="evenodd" d="M935.314 181C937.401 181 939.094 179.433 939.094 177.5C939.094 175.567 937.401 174 935.314 174C933.226 174 931.533 175.567 931.533 177.5C931.533 179.433 933.226 181 935.314 181Z" fill="#202020"/>
<path fill-rule="evenodd" clip-rule="evenodd" d="M973.118 181C975.206 181 976.899 179.433 976.899 177.5C976.899 175.567 975.206 174 973.118 174C971.03 174 969.338 175.567 969.338 177.5C969.338 179.433 971.03 181 973.118 181Z" fill="#202020"/>
<path fill-rule="evenodd" clip-rule="evenodd" d="M1010.92 181C1013.01 181 1014.7 179.433 1014.7 177.5C1014.7 175.567 1013.01 174 1010.92 174C1008.84 174 1007.14 175.567 1007.14 177.5C1007.14 179.433 1008.84 181 1010.92 181Z" fill="#202020"/>
<path fill-rule="evenodd" clip-rule="evenodd" d="M519.47 181C521.558 181 523.25 179.433 523.25 177.5C523.25 175.567 521.558 174 519.47 174C517.382 174 515.689 175.567 515.689 177.5C515.689 179.433 517.382 181 519.47 181Z" fill="#202020"/>
<path fill-rule="evenodd" clip-rule="evenodd" d="M481.665 181C483.753 181 485.446 179.433 485.446 177.5C485.446 175.567 483.753 174 481.665 174C479.577 174 477.885 175.567 477.885 177.5C477.885 179.433 479.577 181 481.665 181Z" fill="#202020"/>
<path fill-rule="evenodd" clip-rule="evenodd" d="M443.862 181C445.95 181 447.643 179.433 447.643 177.5C447.643 175.567 445.95 174 443.862 174C441.775 174 440.082 175.567 440.082 177.5C440.082 179.433 441.775 181 443.862 181Z" fill="#202020"/>
<path fill-rule="evenodd" clip-rule="evenodd" d="M1162.14 146C1164.23 146 1165.92 144.433 1165.92 142.5C1165.92 140.567 1164.23 139 1162.14 139C1160.05 139 1158.36 140.567 1158.36 142.5C1158.36 144.433 1160.05 146 1162.14 146Z" fill="#202020"/>
<path fill-rule="evenodd" clip-rule="evenodd" d="M1124.34 146C1126.42 146 1128.12 144.433 1128.12 142.5C1128.12 140.567 1126.42 139 1124.34 139C1122.25 139 1120.55 140.567 1120.55 142.5C1120.55 144.433 1122.25 146 1124.34 146Z" fill="#202020"/>
<path fill-rule="evenodd" clip-rule="evenodd" d="M1086.53 146C1088.62 146 1090.31 144.433 1090.31 142.5C1090.31 140.567 1088.62 139 1086.53 139C1084.44 139 1082.75 140.567 1082.75 142.5C1082.75 144.433 1084.44 146 1086.53 146Z" fill="#202020"/>
<path fill-rule="evenodd" clip-rule="evenodd" d="M1048.73 146C1050.81 146 1052.51 144.433 1052.51 142.5C1052.51 140.567 1050.81 139 1048.73 139C1046.64 139 1044.95 140.567 1044.95 142.5C1044.95 144.433 1046.64 146 1048.73 146Z" fill="#202020"/>
<path fill-rule="evenodd" clip-rule="evenodd" d="M1010.92 146C1013.01 146 1014.7 144.433 1014.7 142.5C1014.7 140.567 1013.01 139 1010.92 139C1008.84 139 1007.14 140.567 1007.14 142.5C1007.14 144.433 1008.84 146 1010.92 146Z" fill="#202020"/>
<path fill-rule="evenodd" clip-rule="evenodd" d="M973.118 146C975.206 146 976.899 144.433 976.899 142.5C976.899 140.567 975.206 139 973.118 139C971.03 139 969.338 140.567 969.338 142.5C969.338 144.433 971.03 146 973.118 146Z" fill="#202020"/>
<path fill-rule="evenodd" clip-rule="evenodd" d="M935.314 146C937.401 146 939.094 144.433 939.094 142.5C939.094 140.567 937.401 139 935.314 139C933.226 139 931.533 140.567 931.533 142.5C931.533 144.433 933.226 146 935.314 146Z" fill="#202020"/>
<path fill-rule="evenodd" clip-rule="evenodd" d="M897.511 146C899.599 146 901.291 144.433 901.291 142.5C901.291 140.567 899.599 139 897.511 139C895.423 139 893.73 140.567 893.73 142.5C893.73 144.433 895.423 146 897.511 146Z" fill="#202020"/>
<path fill-rule="evenodd" clip-rule="evenodd" d="M859.706 146C861.794 146 863.487 144.433 863.487 142.5C863.487 140.567 861.794 139 859.706 139C857.618 139 855.926 140.567 855.926 142.5C855.926 144.433 857.618 146 859.706 146Z" fill="#202020"/>
<path fill-rule="evenodd" clip-rule="evenodd" d="M821.901 146C823.989 146 825.682 144.433 825.682 142.5C825.682 140.567 823.989 139 821.901 139C819.814 139 818.121 140.567 818.121 142.5C818.121 144.433 819.814 146 821.901 146Z" fill="#202020"/>
<path fill-rule="evenodd" clip-rule="evenodd" d="M784.099 146C786.187 146 787.879 144.433 787.879 142.5C787.879 140.567 786.187 139 784.099 139C782.011 139 780.318 140.567 780.318 142.5C780.318 144.433 782.011 146 784.099 146Z" fill="#202020"/>
<path fill-rule="evenodd" clip-rule="evenodd" d="M746.294 146C748.382 146 750.074 144.433 750.074 142.5C750.074 140.567 748.382 139 746.294 139C744.206 139 742.514 140.567 742.514 142.5C742.514 144.433 744.206 146 746.294 146Z" fill="#202020"/>
<path fill-rule="evenodd" clip-rule="evenodd" d="M708.489 146C710.577 146 712.27 144.433 712.27 142.5C712.27 140.567 710.577 139 708.489 139C706.402 139 704.709 140.567 704.709 142.5C704.709 144.433 706.402 146 708.489 146Z" fill="#202020"/>
<path fill-rule="evenodd" clip-rule="evenodd" d="M670.687 146C672.775 146 674.467 144.433 674.467 142.5C674.467 140.567 672.775 139 670.687 139C668.599 139 666.906 140.567 666.906 142.5C666.906 144.433 668.599 146 670.687 146Z" fill="#202020"/>
<path fill-rule="evenodd" clip-rule="evenodd" d="M632.882 146C634.97 146 636.662 144.433 636.662 142.5C636.662 140.567 634.97 139 632.882 139C630.794 139 629.102 140.567 629.102 142.5C629.102 144.433 630.794 146 632.882 146Z" fill="#202020"/>
<path fill-rule="evenodd" clip-rule="evenodd" d="M595.077 146C597.165 146 598.858 144.433 598.858 142.5C598.858 140.567 597.165 139 595.077 139C592.989 139 591.297 140.567 591.297 142.5C591.297 144.433 592.989 146 595.077 146Z" fill="#202020"/>
<path fill-rule="evenodd" clip-rule="evenodd" d="M557.275 146C559.362 146 561.055 144.433 561.055 142.5C561.055 140.567 559.362 139 557.275 139C555.187 139 553.494 140.567 553.494 142.5C553.494 144.433 555.187 146 557.275 146Z" fill="#202020"/>
<path fill-rule="evenodd" clip-rule="evenodd" d="M519.47 146C521.558 146 523.25 144.433 523.25 142.5C523.25 140.567 521.558 139 519.47 139C517.382 139 515.689 140.567 515.689 142.5C515.689 144.433 517.382 146 519.47 146Z" fill="#202020"/>
<path fill-rule="evenodd" clip-rule="evenodd" d="M481.665 146C483.753 146 485.446 144.433 485.446 142.5C485.446 140.567 483.753 139 481.665 139C479.577 139 477.885 140.567 477.885 142.5C477.885 144.433 479.577 146 481.665 146Z" fill="#202020"/>
<path fill-rule="evenodd" clip-rule="evenodd" d="M443.862 146C445.95 146 447.643 144.433 447.643 142.5C447.643 140.567 445.95 139 443.862 139C441.775 139 440.082 140.567 440.082 142.5C440.082 144.433 441.775 146 443.862 146Z" fill="#202020"/>
<path fill-rule="evenodd" clip-rule="evenodd" d="M1162.14 111C1164.23 111 1165.92 109.433 1165.92 107.5C1165.92 105.567 1164.23 104 1162.14 104C1160.05 104 1158.36 105.567 1158.36 107.5C1158.36 109.433 1160.05 111 1162.14 111Z" fill="#202020"/>
<path fill-rule="evenodd" clip-rule="evenodd" d="M1124.34 111C1126.42 111 1128.12 109.433 1128.12 107.5C1128.12 105.567 1126.42 104 1124.34 104C1122.25 104 1120.55 105.567 1120.55 107.5C1120.55 109.433 1122.25 111 1124.34 111Z" fill="#202020"/>
<path fill-rule="evenodd" clip-rule="evenodd" d="M1086.53 111C1088.62 111 1090.31 109.433 1090.31 107.5C1090.31 105.567 1088.62 104 1086.53 104C1084.44 104 1082.75 105.567 1082.75 107.5C1082.75 109.433 1084.44 111 1086.53 111Z" fill="#202020"/>
<path fill-rule="evenodd" clip-rule="evenodd" d="M1048.73 111C1050.81 111 1052.51 109.433 1052.51 107.5C1052.51 105.567 1050.81 104 1048.73 104C1046.64 104 1044.95 105.567 1044.95 107.5C1044.95 109.433 1046.64 111 1048.73 111Z" fill="#202020"/>
<path fill-rule="evenodd" clip-rule="evenodd" d="M1010.92 111C1013.01 111 1014.7 109.433 1014.7 107.5C1014.7 105.567 1013.01 104 1010.92 104C1008.84 104 1007.14 105.567 1007.14 107.5C1007.14 109.433 1008.84 111 1010.92 111Z" fill="#202020"/>
<path fill-rule="evenodd" clip-rule="evenodd" d="M973.118 111C975.206 111 976.899 109.433 976.899 107.5C976.899 105.567 975.206 104 973.118 104C971.03 104 969.338 105.567 969.338 107.5C969.338 109.433 971.03 111 973.118 111Z" fill="#202020"/>
<path fill-rule="evenodd" clip-rule="evenodd" d="M935.314 111C937.401 111 939.094 109.433 939.094 107.5C939.094 105.567 937.401 104 935.314 104C933.226 104 931.533 105.567 931.533 107.5C931.533 109.433 933.226 111 935.314 111Z" fill="#202020"/>
<path fill-rule="evenodd" clip-rule="evenodd" d="M897.511 111C899.599 111 901.291 109.433 901.291 107.5C901.291 105.567 899.599 104 897.511 104C895.423 104 893.73 105.567 893.73 107.5C893.73 109.433 895.423 111 897.511 111Z" fill="#202020"/>
<path fill-rule="evenodd" clip-rule="evenodd" d="M859.706 111C861.794 111 863.487 109.433 863.487 107.5C863.487 105.567 861.794 104 859.706 104C857.618 104 855.926 105.567 855.926 107.5C855.926 109.433 857.618 111 859.706 111Z" fill="#202020"/>
<path fill-rule="evenodd" clip-rule="evenodd" d="M821.901 111C823.989 111 825.682 109.433 825.682 107.5C825.682 105.567 823.989 104 821.901 104C819.814 104 818.121 105.567 818.121 107.5C818.121 109.433 819.814 111 821.901 111Z" fill="#202020"/>
<path fill-rule="evenodd" clip-rule="evenodd" d="M784.099 111C786.187 111 787.879 109.433 787.879 107.5C787.879 105.567 786.187 104 784.099 104C782.011 104 780.318 105.567 780.318 107.5C780.318 109.433 782.011 111 784.099 111Z" fill="#202020"/>
<path fill-rule="evenodd" clip-rule="evenodd" d="M746.294 111C748.382 111 750.074 109.433 750.074 107.5C750.074 105.567 748.382 104 746.294 104C744.206 104 742.514 105.567 742.514 107.5C742.514 109.433 744.206 111 746.294 111Z" fill="#202020"/>
<path fill-rule="evenodd" clip-rule="evenodd" d="M708.489 111C710.577 111 712.27 109.433 712.27 107.5C712.27 105.567 710.577 104 708.489 104C706.402 104 704.709 105.567 704.709 107.5C704.709 109.433 706.402 111 708.489 111Z" fill="#202020"/>
<path fill-rule="evenodd" clip-rule="evenodd" d="M670.687 111C672.775 111 674.467 109.433 674.467 107.5C674.467 105.567 672.775 104 670.687 104C668.599 104 666.906 105.567 666.906 107.5C666.906 109.433 668.599 111 670.687 111Z" fill="#202020"/>
<path fill-rule="evenodd" clip-rule="evenodd" d="M632.882 111C634.97 111 636.662 109.433 636.662 107.5C636.662 105.567 634.97 104 632.882 104C630.794 104 629.102 105.567 629.102 107.5C629.102 109.433 630.794 111 632.882 111Z" fill="#202020"/>
<path fill-rule="evenodd" clip-rule="evenodd" d="M595.077 111C597.165 111 598.858 109.433 598.858 107.5C598.858 105.567 597.165 104 595.077 104C592.989 104 591.297 105.567 591.297 107.5C591.297 109.433 592.989 111 595.077 111Z" fill="#202020"/>
<path fill-rule="evenodd" clip-rule="evenodd" d="M557.275 111C559.362 111 561.055 109.433 561.055 107.5C561.055 105.567 559.362 104 557.275 104C555.187 104 553.494 105.567 553.494 107.5C553.494 109.433 555.187 111 557.275 111Z" fill="#202020"/>
<path fill-rule="evenodd" clip-rule="evenodd" d="M519.47 111C521.558 111 523.25 109.433 523.25 107.5C523.25 105.567 521.558 104 519.47 104C517.382 104 515.689 105.567 515.689 107.5C515.689 109.433 517.382 111 519.47 111Z" fill="#202020"/>
<path fill-rule="evenodd" clip-rule="evenodd" d="M481.665 111C483.753 111 485.446 109.433 485.446 107.5C485.446 105.567 483.753 104 481.665 104C479.577 104 477.885 105.567 477.885 107.5C477.885 109.433 479.577 111 481.665 111Z" fill="#202020"/>
<path fill-rule="evenodd" clip-rule="evenodd" d="M443.862 111C445.95 111 447.643 109.433 447.643 107.5C447.643 105.567 445.95 104 443.862 104C441.775 104 440.082 105.567 440.082 107.5C440.082 109.433 441.775 111 443.862 111Z" fill="#202020"/>
<path fill-rule="evenodd" clip-rule="evenodd" d="M1162.14 76C1164.23 76 1165.92 74.433 1165.92 72.5C1165.92 70.567 1164.23 69 1162.14 69C1160.05 69 1158.36 70.567 1158.36 72.5C1158.36 74.433 1160.05 76 1162.14 76Z" fill="#202020"/>
<path fill-rule="evenodd" clip-rule="evenodd" d="M1124.34 76C1126.42 76 1128.12 74.433 1128.12 72.5C1128.12 70.567 1126.42 69 1124.34 69C1122.25 69 1120.55 70.567 1120.55 72.5C1120.55 74.433 1122.25 76 1124.34 76Z" fill="#202020"/>
<path fill-rule="evenodd" clip-rule="evenodd" d="M1086.53 76C1088.62 76 1090.31 74.433 1090.31 72.5C1090.31 70.567 1088.62 69 1086.53 69C1084.44 69 1082.75 70.567 1082.75 72.5C1082.75 74.433 1084.44 76 1086.53 76Z" fill="#202020"/>
<path fill-rule="evenodd" clip-rule="evenodd" d="M1048.73 76C1050.81 76 1052.51 74.433 1052.51 72.5C1052.51 70.567 1050.81 69 1048.73 69C1046.64 69 1044.95 70.567 1044.95 72.5C1044.95 74.433 1046.64 76 1048.73 76Z" fill="#202020"/>
<path fill-rule="evenodd" clip-rule="evenodd" d="M1010.92 76C1013.01 76 1014.7 74.433 1014.7 72.5C1014.7 70.567 1013.01 69 1010.92 69C1008.84 69 1007.14 70.567 1007.14 72.5C1007.14 74.433 1008.84 76 1010.92 76Z" fill="#202020"/>
<path fill-rule="evenodd" clip-rule="evenodd" d="M973.118 76C975.206 76 976.899 74.433 976.899 72.5C976.899 70.567 975.206 69 973.118 69C971.03 69 969.338 70.567 969.338 72.5C969.338 74.433 971.03 76 973.118 76Z" fill="#202020"/>
<path fill-rule="evenodd" clip-rule="evenodd" d="M935.314 76C937.401 76 939.094 74.433 939.094 72.5C939.094 70.567 937.401 69 935.314 69C933.226 69 931.533 70.567 931.533 72.5C931.533 74.433 933.226 76 935.314 76Z" fill="#202020"/>
<path fill-rule="evenodd" clip-rule="evenodd" d="M897.511 76C899.599 76 901.291 74.433 901.291 72.5C901.291 70.567 899.599 69 897.511 69C895.423 69 893.73 70.567 893.73 72.5C893.73 74.433 895.423 76 897.511 76Z" fill="#202020"/>
<path fill-rule="evenodd" clip-rule="evenodd" d="M859.706 76C861.794 76 863.487 74.433 863.487 72.5C863.487 70.567 861.794 69 859.706 69C857.618 69 855.926 70.567 855.926 72.5C855.926 74.433 857.618 76 859.706 76Z" fill="#202020"/>
<path fill-rule="evenodd" clip-rule="evenodd" d="M821.901 76C823.989 76 825.682 74.433 825.682 72.5C825.682 70.567 823.989 69 821.901 69C819.814 69 818.121 70.567 818.121 72.5C818.121 74.433 819.814 76 821.901 76Z" fill="#202020"/>
<path fill-rule="evenodd" clip-rule="evenodd" d="M784.099 76C786.187 76 787.879 74.433 787.879 72.5C787.879 70.567 786.187 69 784.099 69C782.011 69 780.318 70.567 780.318 72.5C780.318 74.433 782.011 76 784.099 76Z" fill="#202020"/>
<path fill-rule="evenodd" clip-rule="evenodd" d="M746.294 76C748.382 76 750.074 74.433 750.074 72.5C750.074 70.567 748.382 69 746.294 69C744.206 69 742.514 70.567 742.514 72.5C742.514 74.433 744.206 76 746.294 76Z" fill="#202020"/>
<path fill-rule="evenodd" clip-rule="evenodd" d="M708.489 76C710.577 76 712.27 74.433 712.27 72.5C712.27 70.567 710.577 69 708.489 69C706.402 69 704.709 70.567 704.709 72.5C704.709 74.433 706.402 76 708.489 76Z" fill="#202020"/>
<path fill-rule="evenodd" clip-rule="evenodd" d="M670.687 76C672.775 76 674.467 74.433 674.467 72.5C674.467 70.567 672.775 69 670.687 69C668.599 69 666.906 70.567 666.906 72.5C666.906 74.433 668.599 76 670.687 76Z" fill="#202020"/>
<path fill-rule="evenodd" clip-rule="evenodd" d="M632.882 76C634.97 76 636.662 74.433 636.662 72.5C636.662 70.567 634.97 69 632.882 69C630.794 69 629.102 70.567 629.102 72.5C629.102 74.433 630.794 76 632.882 76Z" fill="#202020"/>
<path fill-rule="evenodd" clip-rule="evenodd" d="M595.077 76C597.165 76 598.858 74.433 598.858 72.5C598.858 70.567 597.165 69 595.077 69C592.989 69 591.297 70.567 591.297 72.5C591.297 74.433 592.989 76 595.077 76Z" fill="#202020"/>
<path fill-rule="evenodd" clip-rule="evenodd" d="M557.275 76C559.362 76 561.055 74.433 561.055 72.5C561.055 70.567 559.362 69 557.275 69C555.187 69 553.494 70.567 553.494 72.5C553.494 74.433 555.187 76 557.275 76Z" fill="#202020"/>
<path fill-rule="evenodd" clip-rule="evenodd" d="M519.47 76C521.558 76 523.25 74.433 523.25 72.5C523.25 70.567 521.558 69 519.47 69C517.382 69 515.689 70.567 515.689 72.5C515.689 74.433 517.382 76 519.47 76Z" fill="#202020"/>
<path fill-rule="evenodd" clip-rule="evenodd" d="M481.665 76C483.753 76 485.446 74.433 485.446 72.5C485.446 70.567 483.753 69 481.665 69C479.577 69 477.885 70.567 477.885 72.5C477.885 74.433 479.577 76 481.665 76Z" fill="#202020"/>
<path fill-rule="evenodd" clip-rule="evenodd" d="M443.862 76C445.95 76 447.643 74.433 447.643 72.5C447.643 70.567 445.95 69 443.862 69C441.775 69 440.082 70.567 440.082 72.5C440.082 74.433 441.775 76 443.862 76Z" fill="#202020"/>
<path fill-rule="evenodd" clip-rule="evenodd" d="M1162.14 41C1164.23 41 1165.92 39.433 1165.92 37.5C1165.92 35.567 1164.23 34 1162.14 34C1160.05 34 1158.36 35.567 1158.36 37.5C1158.36 39.433 1160.05 41 1162.14 41Z" fill="#202020"/>
<path fill-rule="evenodd" clip-rule="evenodd" d="M1124.34 41C1126.42 41 1128.12 39.433 1128.12 37.5C1128.12 35.567 1126.42 34 1124.34 34C1122.25 34 1120.55 35.567 1120.55 37.5C1120.55 39.433 1122.25 41 1124.34 41Z" fill="#202020"/>
<path fill-rule="evenodd" clip-rule="evenodd" d="M1086.53 41C1088.62 41 1090.31 39.433 1090.31 37.5C1090.31 35.567 1088.62 34 1086.53 34C1084.44 34 1082.75 35.567 1082.75 37.5C1082.75 39.433 1084.44 41 1086.53 41Z" fill="#202020"/>
<path fill-rule="evenodd" clip-rule="evenodd" d="M1048.73 41C1050.81 41 1052.51 39.433 1052.51 37.5C1052.51 35.567 1050.81 34 1048.73 34C1046.64 34 1044.95 35.567 1044.95 37.5C1044.95 39.433 1046.64 41 1048.73 41Z" fill="#202020"/>
<path fill-rule="evenodd" clip-rule="evenodd" d="M1010.92 41C1013.01 41 1014.7 39.433 1014.7 37.5C1014.7 35.567 1013.01 34 1010.92 34C1008.84 34 1007.14 35.567 1007.14 37.5C1007.14 39.433 1008.84 41 1010.92 41Z" fill="#202020"/>
<path fill-rule="evenodd" clip-rule="evenodd" d="M973.118 41C975.206 41 976.899 39.433 976.899 37.5C976.899 35.567 975.206 34 973.118 34C971.03 34 969.338 35.567 969.338 37.5C969.338 39.433 971.03 41 973.118 41Z" fill="#202020"/>
<path fill-rule="evenodd" clip-rule="evenodd" d="M935.314 41C937.401 41 939.094 39.433 939.094 37.5C939.094 35.567 937.401 34 935.314 34C933.226 34 931.533 35.567 931.533 37.5C931.533 39.433 933.226 41 935.314 41Z" fill="#202020"/>
<path fill-rule="evenodd" clip-rule="evenodd" d="M897.511 41C899.599 41 901.291 39.433 901.291 37.5C901.291 35.567 899.599 34 897.511 34C895.423 34 893.73 35.567 893.73 37.5C893.73 39.433 895.423 41 897.511 41Z" fill="#202020"/>
<path fill-rule="evenodd" clip-rule="evenodd" d="M859.706 41C861.794 41 863.487 39.433 863.487 37.5C863.487 35.567 861.794 34 859.706 34C857.618 34 855.926 35.567 855.926 37.5C855.926 39.433 857.618 41 859.706 41Z" fill="#202020"/>
<path fill-rule="evenodd" clip-rule="evenodd" d="M821.901 41C823.989 41 825.682 39.433 825.682 37.5C825.682 35.567 823.989 34 821.901 34C819.814 34 818.121 35.567 818.121 37.5C818.121 39.433 819.814 41 821.901 41Z" fill="#202020"/>
<path fill-rule="evenodd" clip-rule="evenodd" d="M784.099 41C786.187 41 787.879 39.433 787.879 37.5C787.879 35.567 786.187 34 784.099 34C782.011 34 780.318 35.567 780.318 37.5C780.318 39.433 782.011 41 784.099 41Z" fill="#202020"/>
<path fill-rule="evenodd" clip-rule="evenodd" d="M746.294 41C748.382 41 750.074 39.433 750.074 37.5C750.074 35.567 748.382 34 746.294 34C744.206 34 742.514 35.567 742.514 37.5C742.514 39.433 744.206 41 746.294 41Z" fill="#202020"/>
<path fill-rule="evenodd" clip-rule="evenodd" d="M708.489 41C710.577 41 712.27 39.433 712.27 37.5C712.27 35.567 710.577 34 708.489 34C706.402 34 704.709 35.567 704.709 37.5C704.709 39.433 706.402 41 708.489 41Z" fill="#202020"/>
<path fill-rule="evenodd" clip-rule="evenodd" d="M670.687 41C672.775 41 674.467 39.433 674.467 37.5C674.467 35.567 672.775 34 670.687 34C668.599 34 666.906 35.567 666.906 37.5C666.906 39.433 668.599 41 670.687 41Z" fill="#202020"/>
<path fill-rule="evenodd" clip-rule="evenodd" d="M632.882 41C634.97 41 636.662 39.433 636.662 37.5C636.662 35.567 634.97 34 632.882 34C630.794 34 629.102 35.567 629.102 37.5C629.102 39.433 630.794 41 632.882 41Z" fill="#202020"/>
<path fill-rule="evenodd" clip-rule="evenodd" d="M595.077 41C597.165 41 598.858 39.433 598.858 37.5C598.858 35.567 597.165 34 595.077 34C592.989 34 591.297 35.567 591.297 37.5C591.297 39.433 592.989 41 595.077 41Z" fill="#202020"/>
<path fill-rule="evenodd" clip-rule="evenodd" d="M557.275 41C559.362 41 561.055 39.433 561.055 37.5C561.055 35.567 559.362 34 557.275 34C555.187 34 553.494 35.567 553.494 37.5C553.494 39.433 555.187 41 557.275 41Z" fill="#202020"/>
<path fill-rule="evenodd" clip-rule="evenodd" d="M519.47 41C521.558 41 523.25 39.433 523.25 37.5C523.25 35.567 521.558 34 519.47 34C517.382 34 515.689 35.567 515.689 37.5C515.689 39.433 517.382 41 519.47 41Z" fill="#202020"/>
<path fill-rule="evenodd" clip-rule="evenodd" d="M481.665 41C483.753 41 485.446 39.433 485.446 37.5C485.446 35.567 483.753 34 481.665 34C479.577 34 477.885 35.567 477.885 37.5C477.885 39.433 479.577 41 481.665 41Z" fill="#202020"/>
<path fill-rule="evenodd" clip-rule="evenodd" d="M443.862 41C445.95 41 447.643 39.433 447.643 37.5C447.643 35.567 445.95 34 443.862 34C441.775 34 440.082 35.567 440.082 37.5C440.082 39.433 441.775 41 443.862 41Z" fill="#202020"/>
<path fill-rule="evenodd" clip-rule="evenodd" d="M1162.14 6C1164.23 6 1165.92 4.433 1165.92 2.5C1165.92 0.567003 1164.23 -1 1162.14 -1C1160.05 -1 1158.36 0.567003 1158.36 2.5C1158.36 4.433 1160.05 6 1162.14 6Z" fill="#202020"/>
<path fill-rule="evenodd" clip-rule="evenodd" d="M1124.34 6C1126.42 6 1128.12 4.433 1128.12 2.5C1128.12 0.567003 1126.42 -1 1124.34 -1C1122.25 -1 1120.55 0.567003 1120.55 2.5C1120.55 4.433 1122.25 6 1124.34 6Z" fill="#202020"/>
<path fill-rule="evenodd" clip-rule="evenodd" d="M1086.53 6C1088.62 6 1090.31 4.433 1090.31 2.5C1090.31 0.567003 1088.62 -1 1086.53 -1C1084.44 -1 1082.75 0.567003 1082.75 2.5C1082.75 4.433 1084.44 6 1086.53 6Z" fill="#202020"/>
<path fill-rule="evenodd" clip-rule="evenodd" d="M1048.73 6C1050.81 6 1052.51 4.433 1052.51 2.5C1052.51 0.567003 1050.81 -1 1048.73 -1C1046.64 -1 1044.95 0.567003 1044.95 2.5C1044.95 4.433 1046.64 6 1048.73 6Z" fill="#202020"/>
<path fill-rule="evenodd" clip-rule="evenodd" d="M1010.92 6C1013.01 6 1014.7 4.433 1014.7 2.5C1014.7 0.567003 1013.01 -1 1010.92 -1C1008.84 -1 1007.14 0.567003 1007.14 2.5C1007.14 4.433 1008.84 6 1010.92 6Z" fill="#202020"/>
<path fill-rule="evenodd" clip-rule="evenodd" d="M973.118 6C975.206 6 976.899 4.433 976.899 2.5C976.899 0.567003 975.206 -1 973.118 -1C971.03 -1 969.338 0.567003 969.338 2.5C969.338 4.433 971.03 6 973.118 6Z" fill="#202020"/>
<path fill-rule="evenodd" clip-rule="evenodd" d="M935.314 6C937.401 6 939.094 4.433 939.094 2.5C939.094 0.567003 937.401 -1 935.314 -1C933.226 -1 931.533 0.567003 931.533 2.5C931.533 4.433 933.226 6 935.314 6Z" fill="#202020"/>
<path fill-rule="evenodd" clip-rule="evenodd" d="M897.511 6C899.599 6 901.291 4.433 901.291 2.5C901.291 0.567003 899.599 -1 897.511 -1C895.423 -1 893.73 0.567003 893.73 2.5C893.73 4.433 895.423 6 897.511 6Z" fill="#202020"/>
<path fill-rule="evenodd" clip-rule="evenodd" d="M859.706 6C861.794 6 863.487 4.433 863.487 2.5C863.487 0.567003 861.794 -1 859.706 -1C857.618 -1 855.926 0.567003 855.926 2.5C855.926 4.433 857.618 6 859.706 6Z" fill="#202020"/>
<path fill-rule="evenodd" clip-rule="evenodd" d="M821.901 6C823.989 6 825.682 4.433 825.682 2.5C825.682 0.567003 823.989 -1 821.901 -1C819.814 -1 818.121 0.567003 818.121 2.5C818.121 4.433 819.814 6 821.901 6Z" fill="#202020"/>
<path fill-rule="evenodd" clip-rule="evenodd" d="M784.099 6C786.187 6 787.879 4.433 787.879 2.5C787.879 0.567003 786.187 -1 784.099 -1C782.011 -1 780.318 0.567003 780.318 2.5C780.318 4.433 782.011 6 784.099 6Z" fill="#202020"/>
<path fill-rule="evenodd" clip-rule="evenodd" d="M746.294 6C748.382 6 750.074 4.433 750.074 2.5C750.074 0.567003 748.382 -1 746.294 -1C744.206 -1 742.514 0.567003 742.514 2.5C742.514 4.433 744.206 6 746.294 6Z" fill="#202020"/>
<path fill-rule="evenodd" clip-rule="evenodd" d="M708.489 6C710.577 6 712.27 4.433 712.27 2.5C712.27 0.567003 710.577 -1 708.489 -1C706.402 -1 704.709 0.567003 704.709 2.5C704.709 4.433 706.402 6 708.489 6Z" fill="#202020"/>
<path fill-rule="evenodd" clip-rule="evenodd" d="M670.687 6C672.775 6 674.467 4.433 674.467 2.5C674.467 0.567003 672.775 -1 670.687 -1C668.599 -1 666.906 0.567003 666.906 2.5C666.906 4.433 668.599 6 670.687 6Z" fill="#202020"/>
<path fill-rule="evenodd" clip-rule="evenodd" d="M632.882 6C634.97 6 636.662 4.433 636.662 2.5C636.662 0.567003 634.97 -1 632.882 -1C630.794 -1 629.102 0.567003 629.102 2.5C629.102 4.433 630.794 6 632.882 6Z" fill="#202020"/>
<path fill-rule="evenodd" clip-rule="evenodd" d="M595.077 6C597.165 6 598.858 4.433 598.858 2.5C598.858 0.567003 597.165 -1 595.077 -1C592.989 -1 591.297 0.567003 591.297 2.5C591.297 4.433 592.989 6 595.077 6Z" fill="#202020"/>
<path fill-rule="evenodd" clip-rule="evenodd" d="M557.275 6C559.362 6 561.055 4.433 561.055 2.5C561.055 0.567003 559.362 -1 557.275 -1C555.187 -1 553.494 0.567003 553.494 2.5C553.494 4.433 555.187 6 557.275 6Z" fill="#202020"/>
<path fill-rule="evenodd" clip-rule="evenodd" d="M519.47 6C521.558 6 523.25 4.433 523.25 2.5C523.25 0.567003 521.558 -1 519.47 -1C517.382 -1 515.689 0.567003 515.689 2.5C515.689 4.433 517.382 6 519.47 6Z" fill="#202020"/>
<path fill-rule="evenodd" clip-rule="evenodd" d="M481.665 6C483.753 6 485.446 4.433 485.446 2.5C485.446 0.567003 483.753 -1 481.665 -1C479.577 -1 477.885 0.567003 477.885 2.5C477.885 4.433 479.577 6 481.665 6Z" fill="#202020"/>
<path fill-rule="evenodd" clip-rule="evenodd" d="M443.862 6C445.95 6 447.643 4.433 447.643 2.5C447.643 0.567003 445.95 -1 443.862 -1C441.775 -1 440.082 0.567003 440.082 2.5C440.082 4.433 441.775 6 443.862 6Z" fill="#202020"/>
<path fill-rule="evenodd" clip-rule="evenodd" d="M1918.22 216C1920.31 216 1922 214.433 1922 212.5C1922 210.567 1920.31 209 1918.22 209C1916.13 209 1914.44 210.567 1914.44 212.5C1914.44 214.433 1916.13 216 1918.22 216Z" fill="#202020"/>
<path fill-rule="evenodd" clip-rule="evenodd" d="M1880.42 216C1882.5 216 1884.2 214.433 1884.2 212.5C1884.2 210.567 1882.5 209 1880.42 209C1878.33 209 1876.63 210.567 1876.63 212.5C1876.63 214.433 1878.33 216 1880.42 216Z" fill="#202020"/>
<path fill-rule="evenodd" clip-rule="evenodd" d="M1842.61 216C1844.7 216 1846.39 214.433 1846.39 212.5C1846.39 210.567 1844.7 209 1842.61 209C1840.52 209 1838.83 210.567 1838.83 212.5C1838.83 214.433 1840.52 216 1842.61 216Z" fill="#202020"/>
<path fill-rule="evenodd" clip-rule="evenodd" d="M1804.81 216C1806.9 216 1808.59 214.433 1808.59 212.5C1808.59 210.567 1806.9 209 1804.81 209C1802.72 209 1801.03 210.567 1801.03 212.5C1801.03 214.433 1802.72 216 1804.81 216Z" fill="#202020"/>
<path fill-rule="evenodd" clip-rule="evenodd" d="M1767 216C1769.09 216 1770.78 214.433 1770.78 212.5C1770.78 210.567 1769.09 209 1767 209C1764.92 209 1763.22 210.567 1763.22 212.5C1763.22 214.433 1764.92 216 1767 216Z" fill="#202020"/>
<path fill-rule="evenodd" clip-rule="evenodd" d="M1729.2 216C1731.29 216 1732.98 214.433 1732.98 212.5C1732.98 210.567 1731.29 209 1729.2 209C1727.11 209 1725.42 210.567 1725.42 212.5C1725.42 214.433 1727.11 216 1729.2 216Z" fill="#202020"/>
<path fill-rule="evenodd" clip-rule="evenodd" d="M1691.4 216C1693.48 216 1695.18 214.433 1695.18 212.5C1695.18 210.567 1693.48 209 1691.4 209C1689.31 209 1687.62 210.567 1687.62 212.5C1687.62 214.433 1689.31 216 1691.4 216Z" fill="#202020"/>
<path fill-rule="evenodd" clip-rule="evenodd" d="M1653.59 216C1655.68 216 1657.37 214.433 1657.37 212.5C1657.37 210.567 1655.68 209 1653.59 209C1651.5 209 1649.81 210.567 1649.81 212.5C1649.81 214.433 1651.5 216 1653.59 216Z" fill="#202020"/>
<path fill-rule="evenodd" clip-rule="evenodd" d="M1615.79 216C1617.87 216 1619.57 214.433 1619.57 212.5C1619.57 210.567 1617.87 209 1615.79 209C1613.7 209 1612.01 210.567 1612.01 212.5C1612.01 214.433 1613.7 216 1615.79 216Z" fill="#202020"/>
<path fill-rule="evenodd" clip-rule="evenodd" d="M1577.98 216C1580.07 216 1581.76 214.433 1581.76 212.5C1581.76 210.567 1580.07 209 1577.98 209C1575.9 209 1574.2 210.567 1574.2 212.5C1574.2 214.433 1575.9 216 1577.98 216Z" fill="#202020"/>
<path fill-rule="evenodd" clip-rule="evenodd" d="M1540.18 216C1542.27 216 1543.96 214.433 1543.96 212.5C1543.96 210.567 1542.27 209 1540.18 209C1538.09 209 1536.4 210.567 1536.4 212.5C1536.4 214.433 1538.09 216 1540.18 216Z" fill="#202020"/>
<path fill-rule="evenodd" clip-rule="evenodd" d="M1502.37 216C1504.46 216 1506.15 214.433 1506.15 212.5C1506.15 210.567 1504.46 209 1502.37 209C1500.29 209 1498.59 210.567 1498.59 212.5C1498.59 214.433 1500.29 216 1502.37 216Z" fill="#202020"/>
<path fill-rule="evenodd" clip-rule="evenodd" d="M1464.57 216C1466.66 216 1468.35 214.433 1468.35 212.5C1468.35 210.567 1466.66 209 1464.57 209C1462.48 209 1460.79 210.567 1460.79 212.5C1460.79 214.433 1462.48 216 1464.57 216Z" fill="#202020"/>
<path fill-rule="evenodd" clip-rule="evenodd" d="M1426.77 216C1428.85 216 1430.55 214.433 1430.55 212.5C1430.55 210.567 1428.85 209 1426.77 209C1424.68 209 1422.99 210.567 1422.99 212.5C1422.99 214.433 1424.68 216 1426.77 216Z" fill="#202020"/>
<path fill-rule="evenodd" clip-rule="evenodd" d="M1388.96 216C1391.05 216 1392.74 214.433 1392.74 212.5C1392.74 210.567 1391.05 209 1388.96 209C1386.87 209 1385.18 210.567 1385.18 212.5C1385.18 214.433 1386.87 216 1388.96 216Z" fill="#202020"/>
<path fill-rule="evenodd" clip-rule="evenodd" d="M1351.16 216C1353.25 216 1354.94 214.433 1354.94 212.5C1354.94 210.567 1353.25 209 1351.16 209C1349.07 209 1347.38 210.567 1347.38 212.5C1347.38 214.433 1349.07 216 1351.16 216Z" fill="#202020"/>
<path fill-rule="evenodd" clip-rule="evenodd" d="M1313.35 216C1315.44 216 1317.14 214.433 1317.14 212.5C1317.14 210.567 1315.44 209 1313.35 209C1311.27 209 1309.57 210.567 1309.57 212.5C1309.57 214.433 1311.27 216 1313.35 216Z" fill="#202020"/>
<path fill-rule="evenodd" clip-rule="evenodd" d="M1275.55 216C1277.64 216 1279.33 214.433 1279.33 212.5C1279.33 210.567 1277.64 209 1275.55 209C1273.46 209 1271.77 210.567 1271.77 212.5C1271.77 214.433 1273.46 216 1275.55 216Z" fill="#202020"/>
<path fill-rule="evenodd" clip-rule="evenodd" d="M1237.75 216C1239.84 216 1241.53 214.433 1241.53 212.5C1241.53 210.567 1239.84 209 1237.75 209C1235.66 209 1233.97 210.567 1233.97 212.5C1233.97 214.433 1235.66 216 1237.75 216Z" fill="#202020"/>
<path fill-rule="evenodd" clip-rule="evenodd" d="M1199.94 216C1202.03 216 1203.72 214.433 1203.72 212.5C1203.72 210.567 1202.03 209 1199.94 209C1197.85 209 1196.16 210.567 1196.16 212.5C1196.16 214.433 1197.85 216 1199.94 216Z" fill="#202020"/>
<path fill-rule="evenodd" clip-rule="evenodd" d="M1918.22 181C1920.31 181 1922 179.433 1922 177.5C1922 175.567 1920.31 174 1918.22 174C1916.13 174 1914.44 175.567 1914.44 177.5C1914.44 179.433 1916.13 181 1918.22 181Z" fill="#202020"/>
<path fill-rule="evenodd" clip-rule="evenodd" d="M1880.42 181C1882.5 181 1884.2 179.433 1884.2 177.5C1884.2 175.567 1882.5 174 1880.42 174C1878.33 174 1876.63 175.567 1876.63 177.5C1876.63 179.433 1878.33 181 1880.42 181Z" fill="#202020"/>
<path fill-rule="evenodd" clip-rule="evenodd" d="M1842.61 181C1844.7 181 1846.39 179.433 1846.39 177.5C1846.39 175.567 1844.7 174 1842.61 174C1840.52 174 1838.83 175.567 1838.83 177.5C1838.83 179.433 1840.52 181 1842.61 181Z" fill="#202020"/>
<path fill-rule="evenodd" clip-rule="evenodd" d="M1804.81 181C1806.9 181 1808.59 179.433 1808.59 177.5C1808.59 175.567 1806.9 174 1804.81 174C1802.72 174 1801.03 175.567 1801.03 177.5C1801.03 179.433 1802.72 181 1804.81 181Z" fill="#202020"/>
<path fill-rule="evenodd" clip-rule="evenodd" d="M1767 181C1769.09 181 1770.78 179.433 1770.78 177.5C1770.78 175.567 1769.09 174 1767 174C1764.92 174 1763.22 175.567 1763.22 177.5C1763.22 179.433 1764.92 181 1767 181Z" fill="#202020"/>
<path fill-rule="evenodd" clip-rule="evenodd" d="M1729.2 181C1731.29 181 1732.98 179.433 1732.98 177.5C1732.98 175.567 1731.29 174 1729.2 174C1727.11 174 1725.42 175.567 1725.42 177.5C1725.42 179.433 1727.11 181 1729.2 181Z" fill="#202020"/>
<path fill-rule="evenodd" clip-rule="evenodd" d="M1691.4 181C1693.48 181 1695.18 179.433 1695.18 177.5C1695.18 175.567 1693.48 174 1691.4 174C1689.31 174 1687.62 175.567 1687.62 177.5C1687.62 179.433 1689.31 181 1691.4 181Z" fill="#202020"/>
<path fill-rule="evenodd" clip-rule="evenodd" d="M1653.59 181C1655.68 181 1657.37 179.433 1657.37 177.5C1657.37 175.567 1655.68 174 1653.59 174C1651.5 174 1649.81 175.567 1649.81 177.5C1649.81 179.433 1651.5 181 1653.59 181Z" fill="#202020"/>
<path fill-rule="evenodd" clip-rule="evenodd" d="M1615.79 181C1617.87 181 1619.57 179.433 1619.57 177.5C1619.57 175.567 1617.87 174 1615.79 174C1613.7 174 1612.01 175.567 1612.01 177.5C1612.01 179.433 1613.7 181 1615.79 181Z" fill="#202020"/>
<path fill-rule="evenodd" clip-rule="evenodd" d="M1577.98 181C1580.07 181 1581.76 179.433 1581.76 177.5C1581.76 175.567 1580.07 174 1577.98 174C1575.9 174 1574.2 175.567 1574.2 177.5C1574.2 179.433 1575.9 181 1577.98 181Z" fill="#202020"/>
<path fill-rule="evenodd" clip-rule="evenodd" d="M1540.18 181C1542.27 181 1543.96 179.433 1543.96 177.5C1543.96 175.567 1542.27 174 1540.18 174C1538.09 174 1536.4 175.567 1536.4 177.5C1536.4 179.433 1538.09 181 1540.18 181Z" fill="#202020"/>
<path fill-rule="evenodd" clip-rule="evenodd" d="M1502.37 181C1504.46 181 1506.15 179.433 1506.15 177.5C1506.15 175.567 1504.46 174 1502.37 174C1500.29 174 1498.59 175.567 1498.59 177.5C1498.59 179.433 1500.29 181 1502.37 181Z" fill="#202020"/>
<path fill-rule="evenodd" clip-rule="evenodd" d="M1464.57 181C1466.66 181 1468.35 179.433 1468.35 177.5C1468.35 175.567 1466.66 174 1464.57 174C1462.48 174 1460.79 175.567 1460.79 177.5C1460.79 179.433 1462.48 181 1464.57 181Z" fill="#202020"/>
<path fill-rule="evenodd" clip-rule="evenodd" d="M1426.77 181C1428.85 181 1430.55 179.433 1430.55 177.5C1430.55 175.567 1428.85 174 1426.77 174C1424.68 174 1422.99 175.567 1422.99 177.5C1422.99 179.433 1424.68 181 1426.77 181Z" fill="#202020"/>
<path fill-rule="evenodd" clip-rule="evenodd" d="M1388.96 181C1391.05 181 1392.74 179.433 1392.74 177.5C1392.74 175.567 1391.05 174 1388.96 174C1386.87 174 1385.18 175.567 1385.18 177.5C1385.18 179.433 1386.87 181 1388.96 181Z" fill="#202020"/>
<path fill-rule="evenodd" clip-rule="evenodd" d="M1351.16 181C1353.25 181 1354.94 179.433 1354.94 177.5C1354.94 175.567 1353.25 174 1351.16 174C1349.07 174 1347.38 175.567 1347.38 177.5C1347.38 179.433 1349.07 181 1351.16 181Z" fill="#202020"/>
<path fill-rule="evenodd" clip-rule="evenodd" d="M1313.35 181C1315.44 181 1317.14 179.433 1317.14 177.5C1317.14 175.567 1315.44 174 1313.35 174C1311.27 174 1309.57 175.567 1309.57 177.5C1309.57 179.433 1311.27 181 1313.35 181Z" fill="#202020"/>
<path fill-rule="evenodd" clip-rule="evenodd" d="M1275.55 181C1277.64 181 1279.33 179.433 1279.33 177.5C1279.33 175.567 1277.64 174 1275.55 174C1273.46 174 1271.77 175.567 1271.77 177.5C1271.77 179.433 1273.46 181 1275.55 181Z" fill="#202020"/>
<path fill-rule="evenodd" clip-rule="evenodd" d="M1237.75 181C1239.84 181 1241.53 179.433 1241.53 177.5C1241.53 175.567 1239.84 174 1237.75 174C1235.66 174 1233.97 175.567 1233.97 177.5C1233.97 179.433 1235.66 181 1237.75 181Z" fill="#202020"/>
<path fill-rule="evenodd" clip-rule="evenodd" d="M1199.94 181C1202.03 181 1203.72 179.433 1203.72 177.5C1203.72 175.567 1202.03 174 1199.94 174C1197.85 174 1196.16 175.567 1196.16 177.5C1196.16 179.433 1197.85 181 1199.94 181Z" fill="#202020"/>
<path fill-rule="evenodd" clip-rule="evenodd" d="M1918.22 146C1920.31 146 1922 144.433 1922 142.5C1922 140.567 1920.31 139 1918.22 139C1916.13 139 1914.44 140.567 1914.44 142.5C1914.44 144.433 1916.13 146 1918.22 146Z" fill="#202020"/>
<path fill-rule="evenodd" clip-rule="evenodd" d="M1880.42 146C1882.5 146 1884.2 144.433 1884.2 142.5C1884.2 140.567 1882.5 139 1880.42 139C1878.33 139 1876.63 140.567 1876.63 142.5C1876.63 144.433 1878.33 146 1880.42 146Z" fill="#202020"/>
<path fill-rule="evenodd" clip-rule="evenodd" d="M1842.61 146C1844.7 146 1846.39 144.433 1846.39 142.5C1846.39 140.567 1844.7 139 1842.61 139C1840.52 139 1838.83 140.567 1838.83 142.5C1838.83 144.433 1840.52 146 1842.61 146Z" fill="#202020"/>
<path fill-rule="evenodd" clip-rule="evenodd" d="M1804.81 146C1806.9 146 1808.59 144.433 1808.59 142.5C1808.59 140.567 1806.9 139 1804.81 139C1802.72 139 1801.03 140.567 1801.03 142.5C1801.03 144.433 1802.72 146 1804.81 146Z" fill="#202020"/>
<path fill-rule="evenodd" clip-rule="evenodd" d="M1767 146C1769.09 146 1770.78 144.433 1770.78 142.5C1770.78 140.567 1769.09 139 1767 139C1764.92 139 1763.22 140.567 1763.22 142.5C1763.22 144.433 1764.92 146 1767 146Z" fill="#202020"/>
<path fill-rule="evenodd" clip-rule="evenodd" d="M1729.2 146C1731.29 146 1732.98 144.433 1732.98 142.5C1732.98 140.567 1731.29 139 1729.2 139C1727.11 139 1725.42 140.567 1725.42 142.5C1725.42 144.433 1727.11 146 1729.2 146Z" fill="#202020"/>
<path fill-rule="evenodd" clip-rule="evenodd" d="M1691.4 146C1693.48 146 1695.18 144.433 1695.18 142.5C1695.18 140.567 1693.48 139 1691.4 139C1689.31 139 1687.62 140.567 1687.62 142.5C1687.62 144.433 1689.31 146 1691.4 146Z" fill="#202020"/>
<path fill-rule="evenodd" clip-rule="evenodd" d="M1653.59 146C1655.68 146 1657.37 144.433 1657.37 142.5C1657.37 140.567 1655.68 139 1653.59 139C1651.5 139 1649.81 140.567 1649.81 142.5C1649.81 144.433 1651.5 146 1653.59 146Z" fill="#202020"/>
<path fill-rule="evenodd" clip-rule="evenodd" d="M1615.79 146C1617.87 146 1619.57 144.433 1619.57 142.5C1619.57 140.567 1617.87 139 1615.79 139C1613.7 139 1612.01 140.567 1612.01 142.5C1612.01 144.433 1613.7 146 1615.79 146Z" fill="#202020"/>
<path fill-rule="evenodd" clip-rule="evenodd" d="M1577.98 146C1580.07 146 1581.76 144.433 1581.76 142.5C1581.76 140.567 1580.07 139 1577.98 139C1575.9 139 1574.2 140.567 1574.2 142.5C1574.2 144.433 1575.9 146 1577.98 146Z" fill="#202020"/>
<path fill-rule="evenodd" clip-rule="evenodd" d="M1540.18 146C1542.27 146 1543.96 144.433 1543.96 142.5C1543.96 140.567 1542.27 139 1540.18 139C1538.09 139 1536.4 140.567 1536.4 142.5C1536.4 144.433 1538.09 146 1540.18 146Z" fill="#202020"/>
<path fill-rule="evenodd" clip-rule="evenodd" d="M1502.37 146C1504.46 146 1506.15 144.433 1506.15 142.5C1506.15 140.567 1504.46 139 1502.37 139C1500.29 139 1498.59 140.567 1498.59 142.5C1498.59 144.433 1500.29 146 1502.37 146Z" fill="#202020"/>
<path fill-rule="evenodd" clip-rule="evenodd" d="M1464.57 146C1466.66 146 1468.35 144.433 1468.35 142.5C1468.35 140.567 1466.66 139 1464.57 139C1462.48 139 1460.79 140.567 1460.79 142.5C1460.79 144.433 1462.48 146 1464.57 146Z" fill="#202020"/>
<path fill-rule="evenodd" clip-rule="evenodd" d="M1426.77 146C1428.85 146 1430.55 144.433 1430.55 142.5C1430.55 140.567 1428.85 139 1426.77 139C1424.68 139 1422.99 140.567 1422.99 142.5C1422.99 144.433 1424.68 146 1426.77 146Z" fill="#202020"/>
<path fill-rule="evenodd" clip-rule="evenodd" d="M1388.96 146C1391.05 146 1392.74 144.433 1392.74 142.5C1392.74 140.567 1391.05 139 1388.96 139C1386.87 139 1385.18 140.567 1385.18 142.5C1385.18 144.433 1386.87 146 1388.96 146Z" fill="#202020"/>
<path fill-rule="evenodd" clip-rule="evenodd" d="M1351.16 146C1353.25 146 1354.94 144.433 1354.94 142.5C1354.94 140.567 1353.25 139 1351.16 139C1349.07 139 1347.38 140.567 1347.38 142.5C1347.38 144.433 1349.07 146 1351.16 146Z" fill="#202020"/>
<path fill-rule="evenodd" clip-rule="evenodd" d="M1313.35 146C1315.44 146 1317.14 144.433 1317.14 142.5C1317.14 140.567 1315.44 139 1313.35 139C1311.27 139 1309.57 140.567 1309.57 142.5C1309.57 144.433 1311.27 146 1313.35 146Z" fill="#202020"/>
<path fill-rule="evenodd" clip-rule="evenodd" d="M1275.55 146C1277.64 146 1279.33 144.433 1279.33 142.5C1279.33 140.567 1277.64 139 1275.55 139C1273.46 139 1271.77 140.567 1271.77 142.5C1271.77 144.433 1273.46 146 1275.55 146Z" fill="#202020"/>
<path fill-rule="evenodd" clip-rule="evenodd" d="M1237.75 146C1239.84 146 1241.53 144.433 1241.53 142.5C1241.53 140.567 1239.84 139 1237.75 139C1235.66 139 1233.97 140.567 1233.97 142.5C1233.97 144.433 1235.66 146 1237.75 146Z" fill="#202020"/>
<path fill-rule="evenodd" clip-rule="evenodd" d="M1199.94 146C1202.03 146 1203.72 144.433 1203.72 142.5C1203.72 140.567 1202.03 139 1199.94 139C1197.85 139 1196.16 140.567 1196.16 142.5C1196.16 144.433 1197.85 146 1199.94 146Z" fill="#202020"/>
<path fill-rule="evenodd" clip-rule="evenodd" d="M1918.22 111C1920.31 111 1922 109.433 1922 107.5C1922 105.567 1920.31 104 1918.22 104C1916.13 104 1914.44 105.567 1914.44 107.5C1914.44 109.433 1916.13 111 1918.22 111Z" fill="#202020"/>
<path fill-rule="evenodd" clip-rule="evenodd" d="M1880.42 111C1882.5 111 1884.2 109.433 1884.2 107.5C1884.2 105.567 1882.5 104 1880.42 104C1878.33 104 1876.63 105.567 1876.63 107.5C1876.63 109.433 1878.33 111 1880.42 111Z" fill="#202020"/>
<path fill-rule="evenodd" clip-rule="evenodd" d="M1842.61 111C1844.7 111 1846.39 109.433 1846.39 107.5C1846.39 105.567 1844.7 104 1842.61 104C1840.52 104 1838.83 105.567 1838.83 107.5C1838.83 109.433 1840.52 111 1842.61 111Z" fill="#202020"/>
<path fill-rule="evenodd" clip-rule="evenodd" d="M1804.81 111C1806.9 111 1808.59 109.433 1808.59 107.5C1808.59 105.567 1806.9 104 1804.81 104C1802.72 104 1801.03 105.567 1801.03 107.5C1801.03 109.433 1802.72 111 1804.81 111Z" fill="#202020"/>
<path fill-rule="evenodd" clip-rule="evenodd" d="M1767 111C1769.09 111 1770.78 109.433 1770.78 107.5C1770.78 105.567 1769.09 104 1767 104C1764.92 104 1763.22 105.567 1763.22 107.5C1763.22 109.433 1764.92 111 1767 111Z" fill="#202020"/>
<path fill-rule="evenodd" clip-rule="evenodd" d="M1729.2 111C1731.29 111 1732.98 109.433 1732.98 107.5C1732.98 105.567 1731.29 104 1729.2 104C1727.11 104 1725.42 105.567 1725.42 107.5C1725.42 109.433 1727.11 111 1729.2 111Z" fill="#202020"/>
<path fill-rule="evenodd" clip-rule="evenodd" d="M1691.4 111C1693.48 111 1695.18 109.433 1695.18 107.5C1695.18 105.567 1693.48 104 1691.4 104C1689.31 104 1687.62 105.567 1687.62 107.5C1687.62 109.433 1689.31 111 1691.4 111Z" fill="#202020"/>
<path fill-rule="evenodd" clip-rule="evenodd" d="M1653.59 111C1655.68 111 1657.37 109.433 1657.37 107.5C1657.37 105.567 1655.68 104 1653.59 104C1651.5 104 1649.81 105.567 1649.81 107.5C1649.81 109.433 1651.5 111 1653.59 111Z" fill="#202020"/>
<path fill-rule="evenodd" clip-rule="evenodd" d="M1615.79 111C1617.87 111 1619.57 109.433 1619.57 107.5C1619.57 105.567 1617.87 104 1615.79 104C1613.7 104 1612.01 105.567 1612.01 107.5C1612.01 109.433 1613.7 111 1615.79 111Z" fill="#202020"/>
<path fill-rule="evenodd" clip-rule="evenodd" d="M1577.98 111C1580.07 111 1581.76 109.433 1581.76 107.5C1581.76 105.567 1580.07 104 1577.98 104C1575.9 104 1574.2 105.567 1574.2 107.5C1574.2 109.433 1575.9 111 1577.98 111Z" fill="#202020"/>
<path fill-rule="evenodd" clip-rule="evenodd" d="M1540.18 111C1542.27 111 1543.96 109.433 1543.96 107.5C1543.96 105.567 1542.27 104 1540.18 104C1538.09 104 1536.4 105.567 1536.4 107.5C1536.4 109.433 1538.09 111 1540.18 111Z" fill="#202020"/>
<path fill-rule="evenodd" clip-rule="evenodd" d="M1502.37 111C1504.46 111 1506.15 109.433 1506.15 107.5C1506.15 105.567 1504.46 104 1502.37 104C1500.29 104 1498.59 105.567 1498.59 107.5C1498.59 109.433 1500.29 111 1502.37 111Z" fill="#202020"/>
<path fill-rule="evenodd" clip-rule="evenodd" d="M1464.57 111C1466.66 111 1468.35 109.433 1468.35 107.5C1468.35 105.567 1466.66 104 1464.57 104C1462.48 104 1460.79 105.567 1460.79 107.5C1460.79 109.433 1462.48 111 1464.57 111Z" fill="#202020"/>
<path fill-rule="evenodd" clip-rule="evenodd" d="M1426.77 111C1428.85 111 1430.55 109.433 1430.55 107.5C1430.55 105.567 1428.85 104 1426.77 104C1424.68 104 1422.99 105.567 1422.99 107.5C1422.99 109.433 1424.68 111 1426.77 111Z" fill="#202020"/>
<path fill-rule="evenodd" clip-rule="evenodd" d="M1388.96 111C1391.05 111 1392.74 109.433 1392.74 107.5C1392.74 105.567 1391.05 104 1388.96 104C1386.87 104 1385.18 105.567 1385.18 107.5C1385.18 109.433 1386.87 111 1388.96 111Z" fill="#202020"/>
<path fill-rule="evenodd" clip-rule="evenodd" d="M1351.16 111C1353.25 111 1354.94 109.433 1354.94 107.5C1354.94 105.567 1353.25 104 1351.16 104C1349.07 104 1347.38 105.567 1347.38 107.5C1347.38 109.433 1349.07 111 1351.16 111Z" fill="#202020"/>
<path fill-rule="evenodd" clip-rule="evenodd" d="M1313.35 111C1315.44 111 1317.14 109.433 1317.14 107.5C1317.14 105.567 1315.44 104 1313.35 104C1311.27 104 1309.57 105.567 1309.57 107.5C1309.57 109.433 1311.27 111 1313.35 111Z" fill="#202020"/>
<path fill-rule="evenodd" clip-rule="evenodd" d="M1275.55 111C1277.64 111 1279.33 109.433 1279.33 107.5C1279.33 105.567 1277.64 104 1275.55 104C1273.46 104 1271.77 105.567 1271.77 107.5C1271.77 109.433 1273.46 111 1275.55 111Z" fill="#202020"/>
<path fill-rule="evenodd" clip-rule="evenodd" d="M1237.75 111C1239.84 111 1241.53 109.433 1241.53 107.5C1241.53 105.567 1239.84 104 1237.75 104C1235.66 104 1233.97 105.567 1233.97 107.5C1233.97 109.433 1235.66 111 1237.75 111Z" fill="#202020"/>
<path fill-rule="evenodd" clip-rule="evenodd" d="M1199.94 111C1202.03 111 1203.72 109.433 1203.72 107.5C1203.72 105.567 1202.03 104 1199.94 104C1197.85 104 1196.16 105.567 1196.16 107.5C1196.16 109.433 1197.85 111 1199.94 111Z" fill="#202020"/>
<path fill-rule="evenodd" clip-rule="evenodd" d="M1918.22 76C1920.31 76 1922 74.433 1922 72.5C1922 70.567 1920.31 69 1918.22 69C1916.13 69 1914.44 70.567 1914.44 72.5C1914.44 74.433 1916.13 76 1918.22 76Z" fill="#202020"/>
<path fill-rule="evenodd" clip-rule="evenodd" d="M1880.42 76C1882.5 76 1884.2 74.433 1884.2 72.5C1884.2 70.567 1882.5 69 1880.42 69C1878.33 69 1876.63 70.567 1876.63 72.5C1876.63 74.433 1878.33 76 1880.42 76Z" fill="#202020"/>
<path fill-rule="evenodd" clip-rule="evenodd" d="M1842.61 76C1844.7 76 1846.39 74.433 1846.39 72.5C1846.39 70.567 1844.7 69 1842.61 69C1840.52 69 1838.83 70.567 1838.83 72.5C1838.83 74.433 1840.52 76 1842.61 76Z" fill="#202020"/>
<path fill-rule="evenodd" clip-rule="evenodd" d="M1804.81 76C1806.9 76 1808.59 74.433 1808.59 72.5C1808.59 70.567 1806.9 69 1804.81 69C1802.72 69 1801.03 70.567 1801.03 72.5C1801.03 74.433 1802.72 76 1804.81 76Z" fill="#202020"/>
<path fill-rule="evenodd" clip-rule="evenodd" d="M1767 76C1769.09 76 1770.78 74.433 1770.78 72.5C1770.78 70.567 1769.09 69 1767 69C1764.92 69 1763.22 70.567 1763.22 72.5C1763.22 74.433 1764.92 76 1767 76Z" fill="#202020"/>
<path fill-rule="evenodd" clip-rule="evenodd" d="M1729.2 76C1731.29 76 1732.98 74.433 1732.98 72.5C1732.98 70.567 1731.29 69 1729.2 69C1727.11 69 1725.42 70.567 1725.42 72.5C1725.42 74.433 1727.11 76 1729.2 76Z" fill="#202020"/>
<path fill-rule="evenodd" clip-rule="evenodd" d="M1691.4 76C1693.48 76 1695.18 74.433 1695.18 72.5C1695.18 70.567 1693.48 69 1691.4 69C1689.31 69 1687.62 70.567 1687.62 72.5C1687.62 74.433 1689.31 76 1691.4 76Z" fill="#202020"/>
<path fill-rule="evenodd" clip-rule="evenodd" d="M1653.59 76C1655.68 76 1657.37 74.433 1657.37 72.5C1657.37 70.567 1655.68 69 1653.59 69C1651.5 69 1649.81 70.567 1649.81 72.5C1649.81 74.433 1651.5 76 1653.59 76Z" fill="#202020"/>
<path fill-rule="evenodd" clip-rule="evenodd" d="M1615.79 76C1617.87 76 1619.57 74.433 1619.57 72.5C1619.57 70.567 1617.87 69 1615.79 69C1613.7 69 1612.01 70.567 1612.01 72.5C1612.01 74.433 1613.7 76 1615.79 76Z" fill="#202020"/>
<path fill-rule="evenodd" clip-rule="evenodd" d="M1577.98 76C1580.07 76 1581.76 74.433 1581.76 72.5C1581.76 70.567 1580.07 69 1577.98 69C1575.9 69 1574.2 70.567 1574.2 72.5C1574.2 74.433 1575.9 76 1577.98 76Z" fill="#202020"/>
<path fill-rule="evenodd" clip-rule="evenodd" d="M1540.18 76C1542.27 76 1543.96 74.433 1543.96 72.5C1543.96 70.567 1542.27 69 1540.18 69C1538.09 69 1536.4 70.567 1536.4 72.5C1536.4 74.433 1538.09 76 1540.18 76Z" fill="#202020"/>
<path fill-rule="evenodd" clip-rule="evenodd" d="M1502.37 76C1504.46 76 1506.15 74.433 1506.15 72.5C1506.15 70.567 1504.46 69 1502.37 69C1500.29 69 1498.59 70.567 1498.59 72.5C1498.59 74.433 1500.29 76 1502.37 76Z" fill="#202020"/>
<path fill-rule="evenodd" clip-rule="evenodd" d="M1464.57 76C1466.66 76 1468.35 74.433 1468.35 72.5C1468.35 70.567 1466.66 69 1464.57 69C1462.48 69 1460.79 70.567 1460.79 72.5C1460.79 74.433 1462.48 76 1464.57 76Z" fill="#202020"/>
<path fill-rule="evenodd" clip-rule="evenodd" d="M1426.77 76C1428.85 76 1430.55 74.433 1430.55 72.5C1430.55 70.567 1428.85 69 1426.77 69C1424.68 69 1422.99 70.567 1422.99 72.5C1422.99 74.433 1424.68 76 1426.77 76Z" fill="#202020"/>
<path fill-rule="evenodd" clip-rule="evenodd" d="M1388.96 76C1391.05 76 1392.74 74.433 1392.74 72.5C1392.74 70.567 1391.05 69 1388.96 69C1386.87 69 1385.18 70.567 1385.18 72.5C1385.18 74.433 1386.87 76 1388.96 76Z" fill="#202020"/>
<path fill-rule="evenodd" clip-rule="evenodd" d="M1351.16 76C1353.25 76 1354.94 74.433 1354.94 72.5C1354.94 70.567 1353.25 69 1351.16 69C1349.07 69 1347.38 70.567 1347.38 72.5C1347.38 74.433 1349.07 76 1351.16 76Z" fill="#202020"/>
<path fill-rule="evenodd" clip-rule="evenodd" d="M1313.35 76C1315.44 76 1317.14 74.433 1317.14 72.5C1317.14 70.567 1315.44 69 1313.35 69C1311.27 69 1309.57 70.567 1309.57 72.5C1309.57 74.433 1311.27 76 1313.35 76Z" fill="#202020"/>
<path fill-rule="evenodd" clip-rule="evenodd" d="M1275.55 76C1277.64 76 1279.33 74.433 1279.33 72.5C1279.33 70.567 1277.64 69 1275.55 69C1273.46 69 1271.77 70.567 1271.77 72.5C1271.77 74.433 1273.46 76 1275.55 76Z" fill="#202020"/>
<path fill-rule="evenodd" clip-rule="evenodd" d="M1237.75 76C1239.84 76 1241.53 74.433 1241.53 72.5C1241.53 70.567 1239.84 69 1237.75 69C1235.66 69 1233.97 70.567 1233.97 72.5C1233.97 74.433 1235.66 76 1237.75 76Z" fill="#202020"/>
<path fill-rule="evenodd" clip-rule="evenodd" d="M1199.94 76C1202.03 76 1203.72 74.433 1203.72 72.5C1203.72 70.567 1202.03 69 1199.94 69C1197.85 69 1196.16 70.567 1196.16 72.5C1196.16 74.433 1197.85 76 1199.94 76Z" fill="#202020"/>
<path fill-rule="evenodd" clip-rule="evenodd" d="M1918.22 41C1920.31 41 1922 39.433 1922 37.5C1922 35.567 1920.31 34 1918.22 34C1916.13 34 1914.44 35.567 1914.44 37.5C1914.44 39.433 1916.13 41 1918.22 41Z" fill="#202020"/>
<path fill-rule="evenodd" clip-rule="evenodd" d="M1880.42 41C1882.5 41 1884.2 39.433 1884.2 37.5C1884.2 35.567 1882.5 34 1880.42 34C1878.33 34 1876.63 35.567 1876.63 37.5C1876.63 39.433 1878.33 41 1880.42 41Z" fill="#202020"/>
<path fill-rule="evenodd" clip-rule="evenodd" d="M1842.61 41C1844.7 41 1846.39 39.433 1846.39 37.5C1846.39 35.567 1844.7 34 1842.61 34C1840.52 34 1838.83 35.567 1838.83 37.5C1838.83 39.433 1840.52 41 1842.61 41Z" fill="#202020"/>
<path fill-rule="evenodd" clip-rule="evenodd" d="M1804.81 41C1806.9 41 1808.59 39.433 1808.59 37.5C1808.59 35.567 1806.9 34 1804.81 34C1802.72 34 1801.03 35.567 1801.03 37.5C1801.03 39.433 1802.72 41 1804.81 41Z" fill="#202020"/>
<path fill-rule="evenodd" clip-rule="evenodd" d="M1767 41C1769.09 41 1770.78 39.433 1770.78 37.5C1770.78 35.567 1769.09 34 1767 34C1764.92 34 1763.22 35.567 1763.22 37.5C1763.22 39.433 1764.92 41 1767 41Z" fill="#202020"/>
<path fill-rule="evenodd" clip-rule="evenodd" d="M1729.2 41C1731.29 41 1732.98 39.433 1732.98 37.5C1732.98 35.567 1731.29 34 1729.2 34C1727.11 34 1725.42 35.567 1725.42 37.5C1725.42 39.433 1727.11 41 1729.2 41Z" fill="#202020"/>
<path fill-rule="evenodd" clip-rule="evenodd" d="M1691.4 41C1693.48 41 1695.18 39.433 1695.18 37.5C1695.18 35.567 1693.48 34 1691.4 34C1689.31 34 1687.62 35.567 1687.62 37.5C1687.62 39.433 1689.31 41 1691.4 41Z" fill="#202020"/>
<path fill-rule="evenodd" clip-rule="evenodd" d="M1653.59 41C1655.68 41 1657.37 39.433 1657.37 37.5C1657.37 35.567 1655.68 34 1653.59 34C1651.5 34 1649.81 35.567 1649.81 37.5C1649.81 39.433 1651.5 41 1653.59 41Z" fill="#202020"/>
<path fill-rule="evenodd" clip-rule="evenodd" d="M1615.79 41C1617.87 41 1619.57 39.433 1619.57 37.5C1619.57 35.567 1617.87 34 1615.79 34C1613.7 34 1612.01 35.567 1612.01 37.5C1612.01 39.433 1613.7 41 1615.79 41Z" fill="#202020"/>
<path fill-rule="evenodd" clip-rule="evenodd" d="M1577.98 41C1580.07 41 1581.76 39.433 1581.76 37.5C1581.76 35.567 1580.07 34 1577.98 34C1575.9 34 1574.2 35.567 1574.2 37.5C1574.2 39.433 1575.9 41 1577.98 41Z" fill="#202020"/>
<path fill-rule="evenodd" clip-rule="evenodd" d="M1540.18 41C1542.27 41 1543.96 39.433 1543.96 37.5C1543.96 35.567 1542.27 34 1540.18 34C1538.09 34 1536.4 35.567 1536.4 37.5C1536.4 39.433 1538.09 41 1540.18 41Z" fill="#202020"/>
<path fill-rule="evenodd" clip-rule="evenodd" d="M1502.37 41C1504.46 41 1506.15 39.433 1506.15 37.5C1506.15 35.567 1504.46 34 1502.37 34C1500.29 34 1498.59 35.567 1498.59 37.5C1498.59 39.433 1500.29 41 1502.37 41Z" fill="#202020"/>
<path fill-rule="evenodd" clip-rule="evenodd" d="M1464.57 41C1466.66 41 1468.35 39.433 1468.35 37.5C1468.35 35.567 1466.66 34 1464.57 34C1462.48 34 1460.79 35.567 1460.79 37.5C1460.79 39.433 1462.48 41 1464.57 41Z" fill="#202020"/>
<path fill-rule="evenodd" clip-rule="evenodd" d="M1426.77 41C1428.85 41 1430.55 39.433 1430.55 37.5C1430.55 35.567 1428.85 34 1426.77 34C1424.68 34 1422.99 35.567 1422.99 37.5C1422.99 39.433 1424.68 41 1426.77 41Z" fill="#202020"/>
<path fill-rule="evenodd" clip-rule="evenodd" d="M1388.96 41C1391.05 41 1392.74 39.433 1392.74 37.5C1392.74 35.567 1391.05 34 1388.96 34C1386.87 34 1385.18 35.567 1385.18 37.5C1385.18 39.433 1386.87 41 1388.96 41Z" fill="#202020"/>
<path fill-rule="evenodd" clip-rule="evenodd" d="M1351.16 41C1353.25 41 1354.94 39.433 1354.94 37.5C1354.94 35.567 1353.25 34 1351.16 34C1349.07 34 1347.38 35.567 1347.38 37.5C1347.38 39.433 1349.07 41 1351.16 41Z" fill="#202020"/>
<path fill-rule="evenodd" clip-rule="evenodd" d="M1313.35 41C1315.44 41 1317.14 39.433 1317.14 37.5C1317.14 35.567 1315.44 34 1313.35 34C1311.27 34 1309.57 35.567 1309.57 37.5C1309.57 39.433 1311.27 41 1313.35 41Z" fill="#202020"/>
<path fill-rule="evenodd" clip-rule="evenodd" d="M1275.55 41C1277.64 41 1279.33 39.433 1279.33 37.5C1279.33 35.567 1277.64 34 1275.55 34C1273.46 34 1271.77 35.567 1271.77 37.5C1271.77 39.433 1273.46 41 1275.55 41Z" fill="#202020"/>
<path fill-rule="evenodd" clip-rule="evenodd" d="M1237.75 41C1239.84 41 1241.53 39.433 1241.53 37.5C1241.53 35.567 1239.84 34 1237.75 34C1235.66 34 1233.97 35.567 1233.97 37.5C1233.97 39.433 1235.66 41 1237.75 41Z" fill="#202020"/>
<path fill-rule="evenodd" clip-rule="evenodd" d="M1199.94 41C1202.03 41 1203.72 39.433 1203.72 37.5C1203.72 35.567 1202.03 34 1199.94 34C1197.85 34 1196.16 35.567 1196.16 37.5C1196.16 39.433 1197.85 41 1199.94 41Z" fill="#202020"/>
<path fill-rule="evenodd" clip-rule="evenodd" d="M1918.22 6C1920.31 6 1922 4.433 1922 2.5C1922 0.567003 1920.31 -1 1918.22 -1C1916.13 -1 1914.44 0.567003 1914.44 2.5C1914.44 4.433 1916.13 6 1918.22 6Z" fill="#202020"/>
<path fill-rule="evenodd" clip-rule="evenodd" d="M1880.42 6C1882.5 6 1884.2 4.433 1884.2 2.5C1884.2 0.567003 1882.5 -1 1880.42 -1C1878.33 -1 1876.63 0.567003 1876.63 2.5C1876.63 4.433 1878.33 6 1880.42 6Z" fill="#202020"/>
<path fill-rule="evenodd" clip-rule="evenodd" d="M1842.61 6C1844.7 6 1846.39 4.433 1846.39 2.5C1846.39 0.567003 1844.7 -1 1842.61 -1C1840.52 -1 1838.83 0.567003 1838.83 2.5C1838.83 4.433 1840.52 6 1842.61 6Z" fill="#202020"/>
<path fill-rule="evenodd" clip-rule="evenodd" d="M1804.81 6C1806.9 6 1808.59 4.433 1808.59 2.5C1808.59 0.567003 1806.9 -1 1804.81 -1C1802.72 -1 1801.03 0.567003 1801.03 2.5C1801.03 4.433 1802.72 6 1804.81 6Z" fill="#202020"/>
<path fill-rule="evenodd" clip-rule="evenodd" d="M1767 6C1769.09 6 1770.78 4.433 1770.78 2.5C1770.78 0.567003 1769.09 -1 1767 -1C1764.92 -1 1763.22 0.567003 1763.22 2.5C1763.22 4.433 1764.92 6 1767 6Z" fill="#202020"/>
<path fill-rule="evenodd" clip-rule="evenodd" d="M1729.2 6C1731.29 6 1732.98 4.433 1732.98 2.5C1732.98 0.567003 1731.29 -1 1729.2 -1C1727.11 -1 1725.42 0.567003 1725.42 2.5C1725.42 4.433 1727.11 6 1729.2 6Z" fill="#202020"/>
<path fill-rule="evenodd" clip-rule="evenodd" d="M1691.4 6C1693.48 6 1695.18 4.433 1695.18 2.5C1695.18 0.567003 1693.48 -1 1691.4 -1C1689.31 -1 1687.62 0.567003 1687.62 2.5C1687.62 4.433 1689.31 6 1691.4 6Z" fill="#202020"/>
<path fill-rule="evenodd" clip-rule="evenodd" d="M1653.59 6C1655.68 6 1657.37 4.433 1657.37 2.5C1657.37 0.567003 1655.68 -1 1653.59 -1C1651.5 -1 1649.81 0.567003 1649.81 2.5C1649.81 4.433 1651.5 6 1653.59 6Z" fill="#202020"/>
<path fill-rule="evenodd" clip-rule="evenodd" d="M1615.79 6C1617.87 6 1619.57 4.433 1619.57 2.5C1619.57 0.567003 1617.87 -1 1615.79 -1C1613.7 -1 1612.01 0.567003 1612.01 2.5C1612.01 4.433 1613.7 6 1615.79 6Z" fill="#202020"/>
<path fill-rule="evenodd" clip-rule="evenodd" d="M1577.98 6C1580.07 6 1581.76 4.433 1581.76 2.5C1581.76 0.567003 1580.07 -1 1577.98 -1C1575.9 -1 1574.2 0.567003 1574.2 2.5C1574.2 4.433 1575.9 6 1577.98 6Z" fill="#202020"/>
<path fill-rule="evenodd" clip-rule="evenodd" d="M1540.18 6C1542.27 6 1543.96 4.433 1543.96 2.5C1543.96 0.567003 1542.27 -1 1540.18 -1C1538.09 -1 1536.4 0.567003 1536.4 2.5C1536.4 4.433 1538.09 6 1540.18 6Z" fill="#202020"/>
<path fill-rule="evenodd" clip-rule="evenodd" d="M1502.37 6C1504.46 6 1506.15 4.433 1506.15 2.5C1506.15 0.567003 1504.46 -1 1502.37 -1C1500.29 -1 1498.59 0.567003 1498.59 2.5C1498.59 4.433 1500.29 6 1502.37 6Z" fill="#202020"/>
<path fill-rule="evenodd" clip-rule="evenodd" d="M1464.57 6C1466.66 6 1468.35 4.433 1468.35 2.5C1468.35 0.567003 1466.66 -1 1464.57 -1C1462.48 -1 1460.79 0.567003 1460.79 2.5C1460.79 4.433 1462.48 6 1464.57 6Z" fill="#202020"/>
<path fill-rule="evenodd" clip-rule="evenodd" d="M1426.77 6C1428.85 6 1430.55 4.433 1430.55 2.5C1430.55 0.567003 1428.85 -1 1426.77 -1C1424.68 -1 1422.99 0.567003 1422.99 2.5C1422.99 4.433 1424.68 6 1426.77 6Z" fill="#202020"/>
<path fill-rule="evenodd" clip-rule="evenodd" d="M1388.96 6C1391.05 6 1392.74 4.433 1392.74 2.5C1392.74 0.567003 1391.05 -1 1388.96 -1C1386.87 -1 1385.18 0.567003 1385.18 2.5C1385.18 4.433 1386.87 6 1388.96 6Z" fill="#202020"/>
<path fill-rule="evenodd" clip-rule="evenodd" d="M1351.16 6C1353.25 6 1354.94 4.433 1354.94 2.5C1354.94 0.567003 1353.25 -1 1351.16 -1C1349.07 -1 1347.38 0.567003 1347.38 2.5C1347.38 4.433 1349.07 6 1351.16 6Z" fill="#202020"/>
<path fill-rule="evenodd" clip-rule="evenodd" d="M1313.35 6C1315.44 6 1317.14 4.433 1317.14 2.5C1317.14 0.567003 1315.44 -1 1313.35 -1C1311.27 -1 1309.57 0.567003 1309.57 2.5C1309.57 4.433 1311.27 6 1313.35 6Z" fill="#202020"/>
<path fill-rule="evenodd" clip-rule="evenodd" d="M1275.55 6C1277.64 6 1279.33 4.433 1279.33 2.5C1279.33 0.567003 1277.64 -1 1275.55 -1C1273.46 -1 1271.77 0.567003 1271.77 2.5C1271.77 4.433 1273.46 6 1275.55 6Z" fill="#202020"/>
<path fill-rule="evenodd" clip-rule="evenodd" d="M1237.75 6C1239.84 6 1241.53 4.433 1241.53 2.5C1241.53 0.567003 1239.84 -1 1237.75 -1C1235.66 -1 1233.97 0.567003 1233.97 2.5C1233.97 4.433 1235.66 6 1237.75 6Z" fill="#202020"/>
<path fill-rule="evenodd" clip-rule="evenodd" d="M1199.94 6C1202.03 6 1203.72 4.433 1203.72 2.5C1203.72 0.567003 1202.03 -1 1199.94 -1C1197.85 -1 1196.16 0.567003 1196.16 2.5C1196.16 4.433 1197.85 6 1199.94 6Z" fill="#202020"/>
</g>
</svg>
