<svg width="1440" height="230" viewBox="0 0 1440 230" fill="none" xmlns="http://www.w3.org/2000/svg">
<mask id="mask0" mask-type="alpha" maskUnits="userSpaceOnUse" x="0" y="0" width="1442" height="230">
<path fill-rule="evenodd" clip-rule="evenodd" d="M1442 131.519C1442 131.519 1385.17 34 1271.76 34C1158.36 34 1085.51 110 1085.51 110C1085.51 110 1015.41 0 867.203 0C724.004 0 638.886 148 638.886 148C638.886 148 594.825 66 504.7 66C414.575 66 336.467 160 336.467 160C336.467 160 264.367 96 148.206 110C32.0445 138 0 194 0 194V229.5H1440L1442 131.519Z" fill="#202020"/>
</mask>
<g mask="url(#mask0)">
<rect width="2072" height="14427" transform="translate(-316 -36)" fill="#171717"/>
<path fill-rule="evenodd" clip-rule="evenodd" d="M352.5 216C354.433 216 356 214.433 356 212.5C356 210.567 354.433 209 352.5 209C350.567 209 349 210.567 349 212.5C349 214.433 350.567 216 352.5 216Z" fill="#202020"/>
<path fill-rule="evenodd" clip-rule="evenodd" d="M317.5 216C319.433 216 321 214.433 321 212.5C321 210.567 319.433 209 317.5 209C315.567 209 314 210.567 314 212.5C314 214.433 315.567 216 317.5 216Z" fill="#202020"/>
<path fill-rule="evenodd" clip-rule="evenodd" d="M282.5 216C284.433 216 286 214.433 286 212.5C286 210.567 284.433 209 282.5 209C280.567 209 279 210.567 279 212.5C279 214.433 280.567 216 282.5 216Z" fill="#202020"/>
<path fill-rule="evenodd" clip-rule="evenodd" d="M247.5 216C249.433 216 251 214.433 251 212.5C251 210.567 249.433 209 247.5 209C245.567 209 244 210.567 244 212.5C244 214.433 245.567 216 247.5 216Z" fill="#202020"/>
<path fill-rule="evenodd" clip-rule="evenodd" d="M212.5 216C214.433 216 216 214.433 216 212.5C216 210.567 214.433 209 212.5 209C210.567 209 209 210.567 209 212.5C209 214.433 210.567 216 212.5 216Z" fill="#202020"/>
<path fill-rule="evenodd" clip-rule="evenodd" d="M177.5 216C179.433 216 181 214.433 181 212.5C181 210.567 179.433 209 177.5 209C175.567 209 174 210.567 174 212.5C174 214.433 175.567 216 177.5 216Z" fill="#202020"/>
<path fill-rule="evenodd" clip-rule="evenodd" d="M142.5 216C144.433 216 146 214.433 146 212.5C146 210.567 144.433 209 142.5 209C140.567 209 139 210.567 139 212.5C139 214.433 140.567 216 142.5 216Z" fill="#202020"/>
<path fill-rule="evenodd" clip-rule="evenodd" d="M107.5 216C109.433 216 111 214.433 111 212.5C111 210.567 109.433 209 107.5 209C105.567 209 104 210.567 104 212.5C104 214.433 105.567 216 107.5 216Z" fill="#202020"/>
<path fill-rule="evenodd" clip-rule="evenodd" d="M72.5 216C74.433 216 76 214.433 76 212.5C76 210.567 74.433 209 72.5 209C70.567 209 69 210.567 69 212.5C69 214.433 70.567 216 72.5 216Z" fill="#202020"/>
<path fill-rule="evenodd" clip-rule="evenodd" d="M37.5 216C39.433 216 41 214.433 41 212.5C41 210.567 39.433 209 37.5 209C35.567 209 34 210.567 34 212.5C34 214.433 35.567 216 37.5 216Z" fill="#202020"/>
<path fill-rule="evenodd" clip-rule="evenodd" d="M2.5 216C4.433 216 6 214.433 6 212.5C6 210.567 4.433 209 2.5 209C0.567003 209 -1 210.567 -1 212.5C-1 214.433 0.567003 216 2.5 216Z" fill="#202020"/>
<path fill-rule="evenodd" clip-rule="evenodd" d="M352.5 181C354.433 181 356 179.433 356 177.5C356 175.567 354.433 174 352.5 174C350.567 174 349 175.567 349 177.5C349 179.433 350.567 181 352.5 181Z" fill="#202020"/>
<path fill-rule="evenodd" clip-rule="evenodd" d="M317.5 181C319.433 181 321 179.433 321 177.5C321 175.567 319.433 174 317.5 174C315.567 174 314 175.567 314 177.5C314 179.433 315.567 181 317.5 181Z" fill="#202020"/>
<path fill-rule="evenodd" clip-rule="evenodd" d="M282.5 181C284.433 181 286 179.433 286 177.5C286 175.567 284.433 174 282.5 174C280.567 174 279 175.567 279 177.5C279 179.433 280.567 181 282.5 181Z" fill="#202020"/>
<path fill-rule="evenodd" clip-rule="evenodd" d="M247.5 181C249.433 181 251 179.433 251 177.5C251 175.567 249.433 174 247.5 174C245.567 174 244 175.567 244 177.5C244 179.433 245.567 181 247.5 181Z" fill="#202020"/>
<path fill-rule="evenodd" clip-rule="evenodd" d="M212.5 181C214.433 181 216 179.433 216 177.5C216 175.567 214.433 174 212.5 174C210.567 174 209 175.567 209 177.5C209 179.433 210.567 181 212.5 181Z" fill="#202020"/>
<path fill-rule="evenodd" clip-rule="evenodd" d="M177.5 181C179.433 181 181 179.433 181 177.5C181 175.567 179.433 174 177.5 174C175.567 174 174 175.567 174 177.5C174 179.433 175.567 181 177.5 181Z" fill="#202020"/>
<path fill-rule="evenodd" clip-rule="evenodd" d="M142.5 181C144.433 181 146 179.433 146 177.5C146 175.567 144.433 174 142.5 174C140.567 174 139 175.567 139 177.5C139 179.433 140.567 181 142.5 181Z" fill="#202020"/>
<path fill-rule="evenodd" clip-rule="evenodd" d="M107.5 181C109.433 181 111 179.433 111 177.5C111 175.567 109.433 174 107.5 174C105.567 174 104 175.567 104 177.5C104 179.433 105.567 181 107.5 181Z" fill="#202020"/>
<path fill-rule="evenodd" clip-rule="evenodd" d="M72.5 181C74.433 181 76 179.433 76 177.5C76 175.567 74.433 174 72.5 174C70.567 174 69 175.567 69 177.5C69 179.433 70.567 181 72.5 181Z" fill="#202020"/>
<path fill-rule="evenodd" clip-rule="evenodd" d="M37.5 181C39.433 181 41 179.433 41 177.5C41 175.567 39.433 174 37.5 174C35.567 174 34 175.567 34 177.5C34 179.433 35.567 181 37.5 181Z" fill="#202020"/>
<path fill-rule="evenodd" clip-rule="evenodd" d="M2.5 181C4.433 181 6 179.433 6 177.5C6 175.567 4.433 174 2.5 174C0.567003 174 -1 175.567 -1 177.5C-1 179.433 0.567003 181 2.5 181Z" fill="#202020"/>
<path fill-rule="evenodd" clip-rule="evenodd" d="M352.5 146C354.433 146 356 144.433 356 142.5C356 140.567 354.433 139 352.5 139C350.567 139 349 140.567 349 142.5C349 144.433 350.567 146 352.5 146Z" fill="#202020"/>
<path fill-rule="evenodd" clip-rule="evenodd" d="M317.5 146C319.433 146 321 144.433 321 142.5C321 140.567 319.433 139 317.5 139C315.567 139 314 140.567 314 142.5C314 144.433 315.567 146 317.5 146Z" fill="#202020"/>
<path fill-rule="evenodd" clip-rule="evenodd" d="M282.5 146C284.433 146 286 144.433 286 142.5C286 140.567 284.433 139 282.5 139C280.567 139 279 140.567 279 142.5C279 144.433 280.567 146 282.5 146Z" fill="#202020"/>
<path fill-rule="evenodd" clip-rule="evenodd" d="M247.5 146C249.433 146 251 144.433 251 142.5C251 140.567 249.433 139 247.5 139C245.567 139 244 140.567 244 142.5C244 144.433 245.567 146 247.5 146Z" fill="#202020"/>
<path fill-rule="evenodd" clip-rule="evenodd" d="M212.5 146C214.433 146 216 144.433 216 142.5C216 140.567 214.433 139 212.5 139C210.567 139 209 140.567 209 142.5C209 144.433 210.567 146 212.5 146Z" fill="#202020"/>
<path fill-rule="evenodd" clip-rule="evenodd" d="M177.5 146C179.433 146 181 144.433 181 142.5C181 140.567 179.433 139 177.5 139C175.567 139 174 140.567 174 142.5C174 144.433 175.567 146 177.5 146Z" fill="#202020"/>
<path fill-rule="evenodd" clip-rule="evenodd" d="M142.5 146C144.433 146 146 144.433 146 142.5C146 140.567 144.433 139 142.5 139C140.567 139 139 140.567 139 142.5C139 144.433 140.567 146 142.5 146Z" fill="#202020"/>
<path fill-rule="evenodd" clip-rule="evenodd" d="M107.5 146C109.433 146 111 144.433 111 142.5C111 140.567 109.433 139 107.5 139C105.567 139 104 140.567 104 142.5C104 144.433 105.567 146 107.5 146Z" fill="#202020"/>
<path fill-rule="evenodd" clip-rule="evenodd" d="M72.5 146C74.433 146 76 144.433 76 142.5C76 140.567 74.433 139 72.5 139C70.567 139 69 140.567 69 142.5C69 144.433 70.567 146 72.5 146Z" fill="#202020"/>
<path fill-rule="evenodd" clip-rule="evenodd" d="M37.5 146C39.433 146 41 144.433 41 142.5C41 140.567 39.433 139 37.5 139C35.567 139 34 140.567 34 142.5C34 144.433 35.567 146 37.5 146Z" fill="#202020"/>
<path fill-rule="evenodd" clip-rule="evenodd" d="M2.5 146C4.433 146 6 144.433 6 142.5C6 140.567 4.433 139 2.5 139C0.567003 139 -1 140.567 -1 142.5C-1 144.433 0.567003 146 2.5 146Z" fill="#202020"/>
<path fill-rule="evenodd" clip-rule="evenodd" d="M352.5 111C354.433 111 356 109.433 356 107.5C356 105.567 354.433 104 352.5 104C350.567 104 349 105.567 349 107.5C349 109.433 350.567 111 352.5 111Z" fill="#202020"/>
<path fill-rule="evenodd" clip-rule="evenodd" d="M317.5 111C319.433 111 321 109.433 321 107.5C321 105.567 319.433 104 317.5 104C315.567 104 314 105.567 314 107.5C314 109.433 315.567 111 317.5 111Z" fill="#202020"/>
<path fill-rule="evenodd" clip-rule="evenodd" d="M282.5 111C284.433 111 286 109.433 286 107.5C286 105.567 284.433 104 282.5 104C280.567 104 279 105.567 279 107.5C279 109.433 280.567 111 282.5 111Z" fill="#202020"/>
<path fill-rule="evenodd" clip-rule="evenodd" d="M247.5 111C249.433 111 251 109.433 251 107.5C251 105.567 249.433 104 247.5 104C245.567 104 244 105.567 244 107.5C244 109.433 245.567 111 247.5 111Z" fill="#202020"/>
<path fill-rule="evenodd" clip-rule="evenodd" d="M212.5 111C214.433 111 216 109.433 216 107.5C216 105.567 214.433 104 212.5 104C210.567 104 209 105.567 209 107.5C209 109.433 210.567 111 212.5 111Z" fill="#202020"/>
<path fill-rule="evenodd" clip-rule="evenodd" d="M177.5 111C179.433 111 181 109.433 181 107.5C181 105.567 179.433 104 177.5 104C175.567 104 174 105.567 174 107.5C174 109.433 175.567 111 177.5 111Z" fill="#202020"/>
<path fill-rule="evenodd" clip-rule="evenodd" d="M142.5 111C144.433 111 146 109.433 146 107.5C146 105.567 144.433 104 142.5 104C140.567 104 139 105.567 139 107.5C139 109.433 140.567 111 142.5 111Z" fill="#202020"/>
<path fill-rule="evenodd" clip-rule="evenodd" d="M107.5 111C109.433 111 111 109.433 111 107.5C111 105.567 109.433 104 107.5 104C105.567 104 104 105.567 104 107.5C104 109.433 105.567 111 107.5 111Z" fill="#202020"/>
<path fill-rule="evenodd" clip-rule="evenodd" d="M72.5 111C74.433 111 76 109.433 76 107.5C76 105.567 74.433 104 72.5 104C70.567 104 69 105.567 69 107.5C69 109.433 70.567 111 72.5 111Z" fill="#202020"/>
<path fill-rule="evenodd" clip-rule="evenodd" d="M37.5 111C39.433 111 41 109.433 41 107.5C41 105.567 39.433 104 37.5 104C35.567 104 34 105.567 34 107.5C34 109.433 35.567 111 37.5 111Z" fill="#202020"/>
<path fill-rule="evenodd" clip-rule="evenodd" d="M2.5 111C4.433 111 6 109.433 6 107.5C6 105.567 4.433 104 2.5 104C0.567003 104 -1 105.567 -1 107.5C-1 109.433 0.567003 111 2.5 111Z" fill="#202020"/>
<path fill-rule="evenodd" clip-rule="evenodd" d="M352.5 76C354.433 76 356 74.433 356 72.5C356 70.567 354.433 69 352.5 69C350.567 69 349 70.567 349 72.5C349 74.433 350.567 76 352.5 76Z" fill="#202020"/>
<path fill-rule="evenodd" clip-rule="evenodd" d="M317.5 76C319.433 76 321 74.433 321 72.5C321 70.567 319.433 69 317.5 69C315.567 69 314 70.567 314 72.5C314 74.433 315.567 76 317.5 76Z" fill="#202020"/>
<path fill-rule="evenodd" clip-rule="evenodd" d="M282.5 76C284.433 76 286 74.433 286 72.5C286 70.567 284.433 69 282.5 69C280.567 69 279 70.567 279 72.5C279 74.433 280.567 76 282.5 76Z" fill="#202020"/>
<path fill-rule="evenodd" clip-rule="evenodd" d="M247.5 76C249.433 76 251 74.433 251 72.5C251 70.567 249.433 69 247.5 69C245.567 69 244 70.567 244 72.5C244 74.433 245.567 76 247.5 76Z" fill="#202020"/>
<path fill-rule="evenodd" clip-rule="evenodd" d="M212.5 76C214.433 76 216 74.433 216 72.5C216 70.567 214.433 69 212.5 69C210.567 69 209 70.567 209 72.5C209 74.433 210.567 76 212.5 76Z" fill="#202020"/>
<path fill-rule="evenodd" clip-rule="evenodd" d="M177.5 76C179.433 76 181 74.433 181 72.5C181 70.567 179.433 69 177.5 69C175.567 69 174 70.567 174 72.5C174 74.433 175.567 76 177.5 76Z" fill="#202020"/>
<path fill-rule="evenodd" clip-rule="evenodd" d="M142.5 76C144.433 76 146 74.433 146 72.5C146 70.567 144.433 69 142.5 69C140.567 69 139 70.567 139 72.5C139 74.433 140.567 76 142.5 76Z" fill="#202020"/>
<path fill-rule="evenodd" clip-rule="evenodd" d="M107.5 76C109.433 76 111 74.433 111 72.5C111 70.567 109.433 69 107.5 69C105.567 69 104 70.567 104 72.5C104 74.433 105.567 76 107.5 76Z" fill="#202020"/>
<path fill-rule="evenodd" clip-rule="evenodd" d="M72.5 76C74.433 76 76 74.433 76 72.5C76 70.567 74.433 69 72.5 69C70.567 69 69 70.567 69 72.5C69 74.433 70.567 76 72.5 76Z" fill="#202020"/>
<path fill-rule="evenodd" clip-rule="evenodd" d="M37.5 76C39.433 76 41 74.433 41 72.5C41 70.567 39.433 69 37.5 69C35.567 69 34 70.567 34 72.5C34 74.433 35.567 76 37.5 76Z" fill="#202020"/>
<path fill-rule="evenodd" clip-rule="evenodd" d="M2.5 76C4.433 76 6 74.433 6 72.5C6 70.567 4.433 69 2.5 69C0.567003 69 -1 70.567 -1 72.5C-1 74.433 0.567003 76 2.5 76Z" fill="#202020"/>
<path fill-rule="evenodd" clip-rule="evenodd" d="M352.5 41C354.433 41 356 39.433 356 37.5C356 35.567 354.433 34 352.5 34C350.567 34 349 35.567 349 37.5C349 39.433 350.567 41 352.5 41Z" fill="#202020"/>
<path fill-rule="evenodd" clip-rule="evenodd" d="M317.5 41C319.433 41 321 39.433 321 37.5C321 35.567 319.433 34 317.5 34C315.567 34 314 35.567 314 37.5C314 39.433 315.567 41 317.5 41Z" fill="#202020"/>
<path fill-rule="evenodd" clip-rule="evenodd" d="M282.5 41C284.433 41 286 39.433 286 37.5C286 35.567 284.433 34 282.5 34C280.567 34 279 35.567 279 37.5C279 39.433 280.567 41 282.5 41Z" fill="#202020"/>
<path fill-rule="evenodd" clip-rule="evenodd" d="M247.5 41C249.433 41 251 39.433 251 37.5C251 35.567 249.433 34 247.5 34C245.567 34 244 35.567 244 37.5C244 39.433 245.567 41 247.5 41Z" fill="#202020"/>
<path fill-rule="evenodd" clip-rule="evenodd" d="M212.5 41C214.433 41 216 39.433 216 37.5C216 35.567 214.433 34 212.5 34C210.567 34 209 35.567 209 37.5C209 39.433 210.567 41 212.5 41Z" fill="#202020"/>
<path fill-rule="evenodd" clip-rule="evenodd" d="M177.5 41C179.433 41 181 39.433 181 37.5C181 35.567 179.433 34 177.5 34C175.567 34 174 35.567 174 37.5C174 39.433 175.567 41 177.5 41Z" fill="#202020"/>
<path fill-rule="evenodd" clip-rule="evenodd" d="M142.5 41C144.433 41 146 39.433 146 37.5C146 35.567 144.433 34 142.5 34C140.567 34 139 35.567 139 37.5C139 39.433 140.567 41 142.5 41Z" fill="#202020"/>
<path fill-rule="evenodd" clip-rule="evenodd" d="M107.5 41C109.433 41 111 39.433 111 37.5C111 35.567 109.433 34 107.5 34C105.567 34 104 35.567 104 37.5C104 39.433 105.567 41 107.5 41Z" fill="#202020"/>
<path fill-rule="evenodd" clip-rule="evenodd" d="M72.5 41C74.433 41 76 39.433 76 37.5C76 35.567 74.433 34 72.5 34C70.567 34 69 35.567 69 37.5C69 39.433 70.567 41 72.5 41Z" fill="#202020"/>
<path fill-rule="evenodd" clip-rule="evenodd" d="M37.5 41C39.433 41 41 39.433 41 37.5C41 35.567 39.433 34 37.5 34C35.567 34 34 35.567 34 37.5C34 39.433 35.567 41 37.5 41Z" fill="#202020"/>
<path fill-rule="evenodd" clip-rule="evenodd" d="M2.5 41C4.433 41 6 39.433 6 37.5C6 35.567 4.433 34 2.5 34C0.567003 34 -1 35.567 -1 37.5C-1 39.433 0.567003 41 2.5 41Z" fill="#202020"/>
<path fill-rule="evenodd" clip-rule="evenodd" d="M352.5 6C354.433 6 356 4.433 356 2.5C356 0.567003 354.433 -1 352.5 -1C350.567 -1 349 0.567003 349 2.5C349 4.433 350.567 6 352.5 6Z" fill="#202020"/>
<path fill-rule="evenodd" clip-rule="evenodd" d="M317.5 6C319.433 6 321 4.433 321 2.5C321 0.567003 319.433 -1 317.5 -1C315.567 -1 314 0.567003 314 2.5C314 4.433 315.567 6 317.5 6Z" fill="#202020"/>
<path fill-rule="evenodd" clip-rule="evenodd" d="M282.5 6C284.433 6 286 4.433 286 2.5C286 0.567003 284.433 -1 282.5 -1C280.567 -1 279 0.567003 279 2.5C279 4.433 280.567 6 282.5 6Z" fill="#202020"/>
<path fill-rule="evenodd" clip-rule="evenodd" d="M247.5 6C249.433 6 251 4.433 251 2.5C251 0.567003 249.433 -1 247.5 -1C245.567 -1 244 0.567003 244 2.5C244 4.433 245.567 6 247.5 6Z" fill="#202020"/>
<path fill-rule="evenodd" clip-rule="evenodd" d="M212.5 6C214.433 6 216 4.433 216 2.5C216 0.567003 214.433 -1 212.5 -1C210.567 -1 209 0.567003 209 2.5C209 4.433 210.567 6 212.5 6Z" fill="#202020"/>
<path fill-rule="evenodd" clip-rule="evenodd" d="M177.5 6C179.433 6 181 4.433 181 2.5C181 0.567003 179.433 -1 177.5 -1C175.567 -1 174 0.567003 174 2.5C174 4.433 175.567 6 177.5 6Z" fill="#202020"/>
<path fill-rule="evenodd" clip-rule="evenodd" d="M142.5 6C144.433 6 146 4.433 146 2.5C146 0.567003 144.433 -1 142.5 -1C140.567 -1 139 0.567003 139 2.5C139 4.433 140.567 6 142.5 6Z" fill="#202020"/>
<path fill-rule="evenodd" clip-rule="evenodd" d="M107.5 6C109.433 6 111 4.433 111 2.5C111 0.567003 109.433 -1 107.5 -1C105.567 -1 104 0.567003 104 2.5C104 4.433 105.567 6 107.5 6Z" fill="#202020"/>
<path fill-rule="evenodd" clip-rule="evenodd" d="M72.5 6C74.433 6 76 4.433 76 2.5C76 0.567003 74.433 -1 72.5 -1C70.567 -1 69 0.567003 69 2.5C69 4.433 70.567 6 72.5 6Z" fill="#202020"/>
<path fill-rule="evenodd" clip-rule="evenodd" d="M37.5 6C39.433 6 41 4.433 41 2.5C41 0.567003 39.433 -1 37.5 -1C35.567 -1 34 0.567003 34 2.5C34 4.433 35.567 6 37.5 6Z" fill="#202020"/>
<path fill-rule="evenodd" clip-rule="evenodd" d="M2.5 6C4.433 6 6 4.433 6 2.5C6 0.567003 4.433 -1 2.5 -1C0.567003 -1 -1 0.567003 -1 2.5C-1 4.433 0.567003 6 2.5 6Z" fill="#202020"/>
<path fill-rule="evenodd" clip-rule="evenodd" d="M1052.5 216C1054.43 216 1056 214.433 1056 212.5C1056 210.567 1054.43 209 1052.5 209C1050.57 209 1049 210.567 1049 212.5C1049 214.433 1050.57 216 1052.5 216Z" fill="#202020"/>
<path fill-rule="evenodd" clip-rule="evenodd" d="M1017.5 216C1019.43 216 1021 214.433 1021 212.5C1021 210.567 1019.43 209 1017.5 209C1015.57 209 1014 210.567 1014 212.5C1014 214.433 1015.57 216 1017.5 216Z" fill="#202020"/>
<path fill-rule="evenodd" clip-rule="evenodd" d="M982.5 216C984.433 216 986 214.433 986 212.5C986 210.567 984.433 209 982.5 209C980.567 209 979 210.567 979 212.5C979 214.433 980.567 216 982.5 216Z" fill="#202020"/>
<path fill-rule="evenodd" clip-rule="evenodd" d="M947.5 216C949.433 216 951 214.433 951 212.5C951 210.567 949.433 209 947.5 209C945.567 209 944 210.567 944 212.5C944 214.433 945.567 216 947.5 216Z" fill="#202020"/>
<path fill-rule="evenodd" clip-rule="evenodd" d="M492.5 216C494.433 216 496 214.433 496 212.5C496 210.567 494.433 209 492.5 209C490.567 209 489 210.567 489 212.5C489 214.433 490.567 216 492.5 216Z" fill="#202020"/>
<path fill-rule="evenodd" clip-rule="evenodd" d="M527.5 216C529.433 216 531 214.433 531 212.5C531 210.567 529.433 209 527.5 209C525.567 209 524 210.567 524 212.5C524 214.433 525.567 216 527.5 216Z" fill="#202020"/>
<path fill-rule="evenodd" clip-rule="evenodd" d="M562.5 216C564.433 216 566 214.433 566 212.5C566 210.567 564.433 209 562.5 209C560.567 209 559 210.567 559 212.5C559 214.433 560.567 216 562.5 216Z" fill="#202020"/>
<path fill-rule="evenodd" clip-rule="evenodd" d="M597.5 216C599.433 216 601 214.433 601 212.5C601 210.567 599.433 209 597.5 209C595.567 209 594 210.567 594 212.5C594 214.433 595.567 216 597.5 216Z" fill="#202020"/>
<path fill-rule="evenodd" clip-rule="evenodd" d="M632.5 216C634.433 216 636 214.433 636 212.5C636 210.567 634.433 209 632.5 209C630.567 209 629 210.567 629 212.5C629 214.433 630.567 216 632.5 216Z" fill="#202020"/>
<path fill-rule="evenodd" clip-rule="evenodd" d="M667.5 216C669.433 216 671 214.433 671 212.5C671 210.567 669.433 209 667.5 209C665.567 209 664 210.567 664 212.5C664 214.433 665.567 216 667.5 216Z" fill="#202020"/>
<path fill-rule="evenodd" clip-rule="evenodd" d="M702.5 216C704.433 216 706 214.433 706 212.5C706 210.567 704.433 209 702.5 209C700.567 209 699 210.567 699 212.5C699 214.433 700.567 216 702.5 216Z" fill="#202020"/>
<path fill-rule="evenodd" clip-rule="evenodd" d="M737.5 216C739.433 216 741 214.433 741 212.5C741 210.567 739.433 209 737.5 209C735.567 209 734 210.567 734 212.5C734 214.433 735.567 216 737.5 216Z" fill="#202020"/>
<path fill-rule="evenodd" clip-rule="evenodd" d="M772.5 216C774.433 216 776 214.433 776 212.5C776 210.567 774.433 209 772.5 209C770.567 209 769 210.567 769 212.5C769 214.433 770.567 216 772.5 216Z" fill="#202020"/>
<path fill-rule="evenodd" clip-rule="evenodd" d="M807.5 216C809.433 216 811 214.433 811 212.5C811 210.567 809.433 209 807.5 209C805.567 209 804 210.567 804 212.5C804 214.433 805.567 216 807.5 216Z" fill="#202020"/>
<path fill-rule="evenodd" clip-rule="evenodd" d="M842.5 216C844.433 216 846 214.433 846 212.5C846 210.567 844.433 209 842.5 209C840.567 209 839 210.567 839 212.5C839 214.433 840.567 216 842.5 216Z" fill="#202020"/>
<path fill-rule="evenodd" clip-rule="evenodd" d="M877.5 216C879.433 216 881 214.433 881 212.5C881 210.567 879.433 209 877.5 209C875.567 209 874 210.567 874 212.5C874 214.433 875.567 216 877.5 216Z" fill="#202020"/>
<path fill-rule="evenodd" clip-rule="evenodd" d="M912.5 216C914.433 216 916 214.433 916 212.5C916 210.567 914.433 209 912.5 209C910.567 209 909 210.567 909 212.5C909 214.433 910.567 216 912.5 216Z" fill="#202020"/>
<path fill-rule="evenodd" clip-rule="evenodd" d="M457.5 216C459.433 216 461 214.433 461 212.5C461 210.567 459.433 209 457.5 209C455.567 209 454 210.567 454 212.5C454 214.433 455.567 216 457.5 216Z" fill="#202020"/>
<path fill-rule="evenodd" clip-rule="evenodd" d="M422.5 216C424.433 216 426 214.433 426 212.5C426 210.567 424.433 209 422.5 209C420.567 209 419 210.567 419 212.5C419 214.433 420.567 216 422.5 216Z" fill="#202020"/>
<path fill-rule="evenodd" clip-rule="evenodd" d="M387.5 216C389.433 216 391 214.433 391 212.5C391 210.567 389.433 209 387.5 209C385.567 209 384 210.567 384 212.5C384 214.433 385.567 216 387.5 216Z" fill="#202020"/>
<path fill-rule="evenodd" clip-rule="evenodd" d="M1052.5 181C1054.43 181 1056 179.433 1056 177.5C1056 175.567 1054.43 174 1052.5 174C1050.57 174 1049 175.567 1049 177.5C1049 179.433 1050.57 181 1052.5 181Z" fill="#202020"/>
<path fill-rule="evenodd" clip-rule="evenodd" d="M1017.5 181C1019.43 181 1021 179.433 1021 177.5C1021 175.567 1019.43 174 1017.5 174C1015.57 174 1014 175.567 1014 177.5C1014 179.433 1015.57 181 1017.5 181Z" fill="#202020"/>
<path fill-rule="evenodd" clip-rule="evenodd" d="M982.5 181C984.433 181 986 179.433 986 177.5C986 175.567 984.433 174 982.5 174C980.567 174 979 175.567 979 177.5C979 179.433 980.567 181 982.5 181Z" fill="#202020"/>
<path fill-rule="evenodd" clip-rule="evenodd" d="M947.5 181C949.433 181 951 179.433 951 177.5C951 175.567 949.433 174 947.5 174C945.567 174 944 175.567 944 177.5C944 179.433 945.567 181 947.5 181Z" fill="#202020"/>
<path fill-rule="evenodd" clip-rule="evenodd" d="M492.5 181C494.433 181 496 179.433 496 177.5C496 175.567 494.433 174 492.5 174C490.567 174 489 175.567 489 177.5C489 179.433 490.567 181 492.5 181Z" fill="#202020"/>
<path fill-rule="evenodd" clip-rule="evenodd" d="M527.5 181C529.433 181 531 179.433 531 177.5C531 175.567 529.433 174 527.5 174C525.567 174 524 175.567 524 177.5C524 179.433 525.567 181 527.5 181Z" fill="#202020"/>
<path fill-rule="evenodd" clip-rule="evenodd" d="M562.5 181C564.433 181 566 179.433 566 177.5C566 175.567 564.433 174 562.5 174C560.567 174 559 175.567 559 177.5C559 179.433 560.567 181 562.5 181Z" fill="#202020"/>
<path fill-rule="evenodd" clip-rule="evenodd" d="M597.5 181C599.433 181 601 179.433 601 177.5C601 175.567 599.433 174 597.5 174C595.567 174 594 175.567 594 177.5C594 179.433 595.567 181 597.5 181Z" fill="#202020"/>
<path fill-rule="evenodd" clip-rule="evenodd" d="M632.5 181C634.433 181 636 179.433 636 177.5C636 175.567 634.433 174 632.5 174C630.567 174 629 175.567 629 177.5C629 179.433 630.567 181 632.5 181Z" fill="#202020"/>
<path fill-rule="evenodd" clip-rule="evenodd" d="M667.5 181C669.433 181 671 179.433 671 177.5C671 175.567 669.433 174 667.5 174C665.567 174 664 175.567 664 177.5C664 179.433 665.567 181 667.5 181Z" fill="#202020"/>
<path fill-rule="evenodd" clip-rule="evenodd" d="M702.5 181C704.433 181 706 179.433 706 177.5C706 175.567 704.433 174 702.5 174C700.567 174 699 175.567 699 177.5C699 179.433 700.567 181 702.5 181Z" fill="#202020"/>
<path fill-rule="evenodd" clip-rule="evenodd" d="M737.5 181C739.433 181 741 179.433 741 177.5C741 175.567 739.433 174 737.5 174C735.567 174 734 175.567 734 177.5C734 179.433 735.567 181 737.5 181Z" fill="#202020"/>
<path fill-rule="evenodd" clip-rule="evenodd" d="M772.5 181C774.433 181 776 179.433 776 177.5C776 175.567 774.433 174 772.5 174C770.567 174 769 175.567 769 177.5C769 179.433 770.567 181 772.5 181Z" fill="#202020"/>
<path fill-rule="evenodd" clip-rule="evenodd" d="M807.5 181C809.433 181 811 179.433 811 177.5C811 175.567 809.433 174 807.5 174C805.567 174 804 175.567 804 177.5C804 179.433 805.567 181 807.5 181Z" fill="#202020"/>
<path fill-rule="evenodd" clip-rule="evenodd" d="M842.5 181C844.433 181 846 179.433 846 177.5C846 175.567 844.433 174 842.5 174C840.567 174 839 175.567 839 177.5C839 179.433 840.567 181 842.5 181Z" fill="#202020"/>
<path fill-rule="evenodd" clip-rule="evenodd" d="M877.5 181C879.433 181 881 179.433 881 177.5C881 175.567 879.433 174 877.5 174C875.567 174 874 175.567 874 177.5C874 179.433 875.567 181 877.5 181Z" fill="#202020"/>
<path fill-rule="evenodd" clip-rule="evenodd" d="M912.5 181C914.433 181 916 179.433 916 177.5C916 175.567 914.433 174 912.5 174C910.567 174 909 175.567 909 177.5C909 179.433 910.567 181 912.5 181Z" fill="#202020"/>
<path fill-rule="evenodd" clip-rule="evenodd" d="M457.5 181C459.433 181 461 179.433 461 177.5C461 175.567 459.433 174 457.5 174C455.567 174 454 175.567 454 177.5C454 179.433 455.567 181 457.5 181Z" fill="#202020"/>
<path fill-rule="evenodd" clip-rule="evenodd" d="M422.5 181C424.433 181 426 179.433 426 177.5C426 175.567 424.433 174 422.5 174C420.567 174 419 175.567 419 177.5C419 179.433 420.567 181 422.5 181Z" fill="#202020"/>
<path fill-rule="evenodd" clip-rule="evenodd" d="M387.5 181C389.433 181 391 179.433 391 177.5C391 175.567 389.433 174 387.5 174C385.567 174 384 175.567 384 177.5C384 179.433 385.567 181 387.5 181Z" fill="#202020"/>
<path fill-rule="evenodd" clip-rule="evenodd" d="M1052.5 146C1054.43 146 1056 144.433 1056 142.5C1056 140.567 1054.43 139 1052.5 139C1050.57 139 1049 140.567 1049 142.5C1049 144.433 1050.57 146 1052.5 146Z" fill="#202020"/>
<path fill-rule="evenodd" clip-rule="evenodd" d="M1017.5 146C1019.43 146 1021 144.433 1021 142.5C1021 140.567 1019.43 139 1017.5 139C1015.57 139 1014 140.567 1014 142.5C1014 144.433 1015.57 146 1017.5 146Z" fill="#202020"/>
<path fill-rule="evenodd" clip-rule="evenodd" d="M982.5 146C984.433 146 986 144.433 986 142.5C986 140.567 984.433 139 982.5 139C980.567 139 979 140.567 979 142.5C979 144.433 980.567 146 982.5 146Z" fill="#202020"/>
<path fill-rule="evenodd" clip-rule="evenodd" d="M947.5 146C949.433 146 951 144.433 951 142.5C951 140.567 949.433 139 947.5 139C945.567 139 944 140.567 944 142.5C944 144.433 945.567 146 947.5 146Z" fill="#202020"/>
<path fill-rule="evenodd" clip-rule="evenodd" d="M912.5 146C914.433 146 916 144.433 916 142.5C916 140.567 914.433 139 912.5 139C910.567 139 909 140.567 909 142.5C909 144.433 910.567 146 912.5 146Z" fill="#202020"/>
<path fill-rule="evenodd" clip-rule="evenodd" d="M877.5 146C879.433 146 881 144.433 881 142.5C881 140.567 879.433 139 877.5 139C875.567 139 874 140.567 874 142.5C874 144.433 875.567 146 877.5 146Z" fill="#202020"/>
<path fill-rule="evenodd" clip-rule="evenodd" d="M842.5 146C844.433 146 846 144.433 846 142.5C846 140.567 844.433 139 842.5 139C840.567 139 839 140.567 839 142.5C839 144.433 840.567 146 842.5 146Z" fill="#202020"/>
<path fill-rule="evenodd" clip-rule="evenodd" d="M807.5 146C809.433 146 811 144.433 811 142.5C811 140.567 809.433 139 807.5 139C805.567 139 804 140.567 804 142.5C804 144.433 805.567 146 807.5 146Z" fill="#202020"/>
<path fill-rule="evenodd" clip-rule="evenodd" d="M772.5 146C774.433 146 776 144.433 776 142.5C776 140.567 774.433 139 772.5 139C770.567 139 769 140.567 769 142.5C769 144.433 770.567 146 772.5 146Z" fill="#202020"/>
<path fill-rule="evenodd" clip-rule="evenodd" d="M737.5 146C739.433 146 741 144.433 741 142.5C741 140.567 739.433 139 737.5 139C735.567 139 734 140.567 734 142.5C734 144.433 735.567 146 737.5 146Z" fill="#202020"/>
<path fill-rule="evenodd" clip-rule="evenodd" d="M702.5 146C704.433 146 706 144.433 706 142.5C706 140.567 704.433 139 702.5 139C700.567 139 699 140.567 699 142.5C699 144.433 700.567 146 702.5 146Z" fill="#202020"/>
<path fill-rule="evenodd" clip-rule="evenodd" d="M667.5 146C669.433 146 671 144.433 671 142.5C671 140.567 669.433 139 667.5 139C665.567 139 664 140.567 664 142.5C664 144.433 665.567 146 667.5 146Z" fill="#202020"/>
<path fill-rule="evenodd" clip-rule="evenodd" d="M632.5 146C634.433 146 636 144.433 636 142.5C636 140.567 634.433 139 632.5 139C630.567 139 629 140.567 629 142.5C629 144.433 630.567 146 632.5 146Z" fill="#202020"/>
<path fill-rule="evenodd" clip-rule="evenodd" d="M597.5 146C599.433 146 601 144.433 601 142.5C601 140.567 599.433 139 597.5 139C595.567 139 594 140.567 594 142.5C594 144.433 595.567 146 597.5 146Z" fill="#202020"/>
<path fill-rule="evenodd" clip-rule="evenodd" d="M562.5 146C564.433 146 566 144.433 566 142.5C566 140.567 564.433 139 562.5 139C560.567 139 559 140.567 559 142.5C559 144.433 560.567 146 562.5 146Z" fill="#202020"/>
<path fill-rule="evenodd" clip-rule="evenodd" d="M527.5 146C529.433 146 531 144.433 531 142.5C531 140.567 529.433 139 527.5 139C525.567 139 524 140.567 524 142.5C524 144.433 525.567 146 527.5 146Z" fill="#202020"/>
<path fill-rule="evenodd" clip-rule="evenodd" d="M492.5 146C494.433 146 496 144.433 496 142.5C496 140.567 494.433 139 492.5 139C490.567 139 489 140.567 489 142.5C489 144.433 490.567 146 492.5 146Z" fill="#202020"/>
<path fill-rule="evenodd" clip-rule="evenodd" d="M457.5 146C459.433 146 461 144.433 461 142.5C461 140.567 459.433 139 457.5 139C455.567 139 454 140.567 454 142.5C454 144.433 455.567 146 457.5 146Z" fill="#202020"/>
<path fill-rule="evenodd" clip-rule="evenodd" d="M422.5 146C424.433 146 426 144.433 426 142.5C426 140.567 424.433 139 422.5 139C420.567 139 419 140.567 419 142.5C419 144.433 420.567 146 422.5 146Z" fill="#202020"/>
<path fill-rule="evenodd" clip-rule="evenodd" d="M387.5 146C389.433 146 391 144.433 391 142.5C391 140.567 389.433 139 387.5 139C385.567 139 384 140.567 384 142.5C384 144.433 385.567 146 387.5 146Z" fill="#202020"/>
<path fill-rule="evenodd" clip-rule="evenodd" d="M1052.5 111C1054.43 111 1056 109.433 1056 107.5C1056 105.567 1054.43 104 1052.5 104C1050.57 104 1049 105.567 1049 107.5C1049 109.433 1050.57 111 1052.5 111Z" fill="#202020"/>
<path fill-rule="evenodd" clip-rule="evenodd" d="M1017.5 111C1019.43 111 1021 109.433 1021 107.5C1021 105.567 1019.43 104 1017.5 104C1015.57 104 1014 105.567 1014 107.5C1014 109.433 1015.57 111 1017.5 111Z" fill="#202020"/>
<path fill-rule="evenodd" clip-rule="evenodd" d="M982.5 111C984.433 111 986 109.433 986 107.5C986 105.567 984.433 104 982.5 104C980.567 104 979 105.567 979 107.5C979 109.433 980.567 111 982.5 111Z" fill="#202020"/>
<path fill-rule="evenodd" clip-rule="evenodd" d="M947.5 111C949.433 111 951 109.433 951 107.5C951 105.567 949.433 104 947.5 104C945.567 104 944 105.567 944 107.5C944 109.433 945.567 111 947.5 111Z" fill="#202020"/>
<path fill-rule="evenodd" clip-rule="evenodd" d="M912.5 111C914.433 111 916 109.433 916 107.5C916 105.567 914.433 104 912.5 104C910.567 104 909 105.567 909 107.5C909 109.433 910.567 111 912.5 111Z" fill="#202020"/>
<path fill-rule="evenodd" clip-rule="evenodd" d="M877.5 111C879.433 111 881 109.433 881 107.5C881 105.567 879.433 104 877.5 104C875.567 104 874 105.567 874 107.5C874 109.433 875.567 111 877.5 111Z" fill="#202020"/>
<path fill-rule="evenodd" clip-rule="evenodd" d="M842.5 111C844.433 111 846 109.433 846 107.5C846 105.567 844.433 104 842.5 104C840.567 104 839 105.567 839 107.5C839 109.433 840.567 111 842.5 111Z" fill="#202020"/>
<path fill-rule="evenodd" clip-rule="evenodd" d="M807.5 111C809.433 111 811 109.433 811 107.5C811 105.567 809.433 104 807.5 104C805.567 104 804 105.567 804 107.5C804 109.433 805.567 111 807.5 111Z" fill="#202020"/>
<path fill-rule="evenodd" clip-rule="evenodd" d="M772.5 111C774.433 111 776 109.433 776 107.5C776 105.567 774.433 104 772.5 104C770.567 104 769 105.567 769 107.5C769 109.433 770.567 111 772.5 111Z" fill="#202020"/>
<path fill-rule="evenodd" clip-rule="evenodd" d="M737.5 111C739.433 111 741 109.433 741 107.5C741 105.567 739.433 104 737.5 104C735.567 104 734 105.567 734 107.5C734 109.433 735.567 111 737.5 111Z" fill="#202020"/>
<path fill-rule="evenodd" clip-rule="evenodd" d="M702.5 111C704.433 111 706 109.433 706 107.5C706 105.567 704.433 104 702.5 104C700.567 104 699 105.567 699 107.5C699 109.433 700.567 111 702.5 111Z" fill="#202020"/>
<path fill-rule="evenodd" clip-rule="evenodd" d="M667.5 111C669.433 111 671 109.433 671 107.5C671 105.567 669.433 104 667.5 104C665.567 104 664 105.567 664 107.5C664 109.433 665.567 111 667.5 111Z" fill="#202020"/>
<path fill-rule="evenodd" clip-rule="evenodd" d="M632.5 111C634.433 111 636 109.433 636 107.5C636 105.567 634.433 104 632.5 104C630.567 104 629 105.567 629 107.5C629 109.433 630.567 111 632.5 111Z" fill="#202020"/>
<path fill-rule="evenodd" clip-rule="evenodd" d="M597.5 111C599.433 111 601 109.433 601 107.5C601 105.567 599.433 104 597.5 104C595.567 104 594 105.567 594 107.5C594 109.433 595.567 111 597.5 111Z" fill="#202020"/>
<path fill-rule="evenodd" clip-rule="evenodd" d="M562.5 111C564.433 111 566 109.433 566 107.5C566 105.567 564.433 104 562.5 104C560.567 104 559 105.567 559 107.5C559 109.433 560.567 111 562.5 111Z" fill="#202020"/>
<path fill-rule="evenodd" clip-rule="evenodd" d="M527.5 111C529.433 111 531 109.433 531 107.5C531 105.567 529.433 104 527.5 104C525.567 104 524 105.567 524 107.5C524 109.433 525.567 111 527.5 111Z" fill="#202020"/>
<path fill-rule="evenodd" clip-rule="evenodd" d="M492.5 111C494.433 111 496 109.433 496 107.5C496 105.567 494.433 104 492.5 104C490.567 104 489 105.567 489 107.5C489 109.433 490.567 111 492.5 111Z" fill="#202020"/>
<path fill-rule="evenodd" clip-rule="evenodd" d="M457.5 111C459.433 111 461 109.433 461 107.5C461 105.567 459.433 104 457.5 104C455.567 104 454 105.567 454 107.5C454 109.433 455.567 111 457.5 111Z" fill="#202020"/>
<path fill-rule="evenodd" clip-rule="evenodd" d="M422.5 111C424.433 111 426 109.433 426 107.5C426 105.567 424.433 104 422.5 104C420.567 104 419 105.567 419 107.5C419 109.433 420.567 111 422.5 111Z" fill="#202020"/>
<path fill-rule="evenodd" clip-rule="evenodd" d="M387.5 111C389.433 111 391 109.433 391 107.5C391 105.567 389.433 104 387.5 104C385.567 104 384 105.567 384 107.5C384 109.433 385.567 111 387.5 111Z" fill="#202020"/>
<path fill-rule="evenodd" clip-rule="evenodd" d="M1052.5 76C1054.43 76 1056 74.433 1056 72.5C1056 70.567 1054.43 69 1052.5 69C1050.57 69 1049 70.567 1049 72.5C1049 74.433 1050.57 76 1052.5 76Z" fill="#202020"/>
<path fill-rule="evenodd" clip-rule="evenodd" d="M1017.5 76C1019.43 76 1021 74.433 1021 72.5C1021 70.567 1019.43 69 1017.5 69C1015.57 69 1014 70.567 1014 72.5C1014 74.433 1015.57 76 1017.5 76Z" fill="#202020"/>
<path fill-rule="evenodd" clip-rule="evenodd" d="M982.5 76C984.433 76 986 74.433 986 72.5C986 70.567 984.433 69 982.5 69C980.567 69 979 70.567 979 72.5C979 74.433 980.567 76 982.5 76Z" fill="#202020"/>
<path fill-rule="evenodd" clip-rule="evenodd" d="M947.5 76C949.433 76 951 74.433 951 72.5C951 70.567 949.433 69 947.5 69C945.567 69 944 70.567 944 72.5C944 74.433 945.567 76 947.5 76Z" fill="#202020"/>
<path fill-rule="evenodd" clip-rule="evenodd" d="M912.5 76C914.433 76 916 74.433 916 72.5C916 70.567 914.433 69 912.5 69C910.567 69 909 70.567 909 72.5C909 74.433 910.567 76 912.5 76Z" fill="#202020"/>
<path fill-rule="evenodd" clip-rule="evenodd" d="M877.5 76C879.433 76 881 74.433 881 72.5C881 70.567 879.433 69 877.5 69C875.567 69 874 70.567 874 72.5C874 74.433 875.567 76 877.5 76Z" fill="#202020"/>
<path fill-rule="evenodd" clip-rule="evenodd" d="M842.5 76C844.433 76 846 74.433 846 72.5C846 70.567 844.433 69 842.5 69C840.567 69 839 70.567 839 72.5C839 74.433 840.567 76 842.5 76Z" fill="#202020"/>
<path fill-rule="evenodd" clip-rule="evenodd" d="M807.5 76C809.433 76 811 74.433 811 72.5C811 70.567 809.433 69 807.5 69C805.567 69 804 70.567 804 72.5C804 74.433 805.567 76 807.5 76Z" fill="#202020"/>
<path fill-rule="evenodd" clip-rule="evenodd" d="M772.5 76C774.433 76 776 74.433 776 72.5C776 70.567 774.433 69 772.5 69C770.567 69 769 70.567 769 72.5C769 74.433 770.567 76 772.5 76Z" fill="#202020"/>
<path fill-rule="evenodd" clip-rule="evenodd" d="M737.5 76C739.433 76 741 74.433 741 72.5C741 70.567 739.433 69 737.5 69C735.567 69 734 70.567 734 72.5C734 74.433 735.567 76 737.5 76Z" fill="#202020"/>
<path fill-rule="evenodd" clip-rule="evenodd" d="M702.5 76C704.433 76 706 74.433 706 72.5C706 70.567 704.433 69 702.5 69C700.567 69 699 70.567 699 72.5C699 74.433 700.567 76 702.5 76Z" fill="#202020"/>
<path fill-rule="evenodd" clip-rule="evenodd" d="M667.5 76C669.433 76 671 74.433 671 72.5C671 70.567 669.433 69 667.5 69C665.567 69 664 70.567 664 72.5C664 74.433 665.567 76 667.5 76Z" fill="#202020"/>
<path fill-rule="evenodd" clip-rule="evenodd" d="M632.5 76C634.433 76 636 74.433 636 72.5C636 70.567 634.433 69 632.5 69C630.567 69 629 70.567 629 72.5C629 74.433 630.567 76 632.5 76Z" fill="#202020"/>
<path fill-rule="evenodd" clip-rule="evenodd" d="M597.5 76C599.433 76 601 74.433 601 72.5C601 70.567 599.433 69 597.5 69C595.567 69 594 70.567 594 72.5C594 74.433 595.567 76 597.5 76Z" fill="#202020"/>
<path fill-rule="evenodd" clip-rule="evenodd" d="M562.5 76C564.433 76 566 74.433 566 72.5C566 70.567 564.433 69 562.5 69C560.567 69 559 70.567 559 72.5C559 74.433 560.567 76 562.5 76Z" fill="#202020"/>
<path fill-rule="evenodd" clip-rule="evenodd" d="M527.5 76C529.433 76 531 74.433 531 72.5C531 70.567 529.433 69 527.5 69C525.567 69 524 70.567 524 72.5C524 74.433 525.567 76 527.5 76Z" fill="#202020"/>
<path fill-rule="evenodd" clip-rule="evenodd" d="M492.5 76C494.433 76 496 74.433 496 72.5C496 70.567 494.433 69 492.5 69C490.567 69 489 70.567 489 72.5C489 74.433 490.567 76 492.5 76Z" fill="#202020"/>
<path fill-rule="evenodd" clip-rule="evenodd" d="M457.5 76C459.433 76 461 74.433 461 72.5C461 70.567 459.433 69 457.5 69C455.567 69 454 70.567 454 72.5C454 74.433 455.567 76 457.5 76Z" fill="#202020"/>
<path fill-rule="evenodd" clip-rule="evenodd" d="M422.5 76C424.433 76 426 74.433 426 72.5C426 70.567 424.433 69 422.5 69C420.567 69 419 70.567 419 72.5C419 74.433 420.567 76 422.5 76Z" fill="#202020"/>
<path fill-rule="evenodd" clip-rule="evenodd" d="M387.5 76C389.433 76 391 74.433 391 72.5C391 70.567 389.433 69 387.5 69C385.567 69 384 70.567 384 72.5C384 74.433 385.567 76 387.5 76Z" fill="#202020"/>
<path fill-rule="evenodd" clip-rule="evenodd" d="M1052.5 41C1054.43 41 1056 39.433 1056 37.5C1056 35.567 1054.43 34 1052.5 34C1050.57 34 1049 35.567 1049 37.5C1049 39.433 1050.57 41 1052.5 41Z" fill="#202020"/>
<path fill-rule="evenodd" clip-rule="evenodd" d="M1017.5 41C1019.43 41 1021 39.433 1021 37.5C1021 35.567 1019.43 34 1017.5 34C1015.57 34 1014 35.567 1014 37.5C1014 39.433 1015.57 41 1017.5 41Z" fill="#202020"/>
<path fill-rule="evenodd" clip-rule="evenodd" d="M982.5 41C984.433 41 986 39.433 986 37.5C986 35.567 984.433 34 982.5 34C980.567 34 979 35.567 979 37.5C979 39.433 980.567 41 982.5 41Z" fill="#202020"/>
<path fill-rule="evenodd" clip-rule="evenodd" d="M947.5 41C949.433 41 951 39.433 951 37.5C951 35.567 949.433 34 947.5 34C945.567 34 944 35.567 944 37.5C944 39.433 945.567 41 947.5 41Z" fill="#202020"/>
<path fill-rule="evenodd" clip-rule="evenodd" d="M912.5 41C914.433 41 916 39.433 916 37.5C916 35.567 914.433 34 912.5 34C910.567 34 909 35.567 909 37.5C909 39.433 910.567 41 912.5 41Z" fill="#202020"/>
<path fill-rule="evenodd" clip-rule="evenodd" d="M877.5 41C879.433 41 881 39.433 881 37.5C881 35.567 879.433 34 877.5 34C875.567 34 874 35.567 874 37.5C874 39.433 875.567 41 877.5 41Z" fill="#202020"/>
<path fill-rule="evenodd" clip-rule="evenodd" d="M842.5 41C844.433 41 846 39.433 846 37.5C846 35.567 844.433 34 842.5 34C840.567 34 839 35.567 839 37.5C839 39.433 840.567 41 842.5 41Z" fill="#202020"/>
<path fill-rule="evenodd" clip-rule="evenodd" d="M807.5 41C809.433 41 811 39.433 811 37.5C811 35.567 809.433 34 807.5 34C805.567 34 804 35.567 804 37.5C804 39.433 805.567 41 807.5 41Z" fill="#202020"/>
<path fill-rule="evenodd" clip-rule="evenodd" d="M772.5 41C774.433 41 776 39.433 776 37.5C776 35.567 774.433 34 772.5 34C770.567 34 769 35.567 769 37.5C769 39.433 770.567 41 772.5 41Z" fill="#202020"/>
<path fill-rule="evenodd" clip-rule="evenodd" d="M737.5 41C739.433 41 741 39.433 741 37.5C741 35.567 739.433 34 737.5 34C735.567 34 734 35.567 734 37.5C734 39.433 735.567 41 737.5 41Z" fill="#202020"/>
<path fill-rule="evenodd" clip-rule="evenodd" d="M702.5 41C704.433 41 706 39.433 706 37.5C706 35.567 704.433 34 702.5 34C700.567 34 699 35.567 699 37.5C699 39.433 700.567 41 702.5 41Z" fill="#202020"/>
<path fill-rule="evenodd" clip-rule="evenodd" d="M667.5 41C669.433 41 671 39.433 671 37.5C671 35.567 669.433 34 667.5 34C665.567 34 664 35.567 664 37.5C664 39.433 665.567 41 667.5 41Z" fill="#202020"/>
<path fill-rule="evenodd" clip-rule="evenodd" d="M632.5 41C634.433 41 636 39.433 636 37.5C636 35.567 634.433 34 632.5 34C630.567 34 629 35.567 629 37.5C629 39.433 630.567 41 632.5 41Z" fill="#202020"/>
<path fill-rule="evenodd" clip-rule="evenodd" d="M597.5 41C599.433 41 601 39.433 601 37.5C601 35.567 599.433 34 597.5 34C595.567 34 594 35.567 594 37.5C594 39.433 595.567 41 597.5 41Z" fill="#202020"/>
<path fill-rule="evenodd" clip-rule="evenodd" d="M562.5 41C564.433 41 566 39.433 566 37.5C566 35.567 564.433 34 562.5 34C560.567 34 559 35.567 559 37.5C559 39.433 560.567 41 562.5 41Z" fill="#202020"/>
<path fill-rule="evenodd" clip-rule="evenodd" d="M527.5 41C529.433 41 531 39.433 531 37.5C531 35.567 529.433 34 527.5 34C525.567 34 524 35.567 524 37.5C524 39.433 525.567 41 527.5 41Z" fill="#202020"/>
<path fill-rule="evenodd" clip-rule="evenodd" d="M492.5 41C494.433 41 496 39.433 496 37.5C496 35.567 494.433 34 492.5 34C490.567 34 489 35.567 489 37.5C489 39.433 490.567 41 492.5 41Z" fill="#202020"/>
<path fill-rule="evenodd" clip-rule="evenodd" d="M457.5 41C459.433 41 461 39.433 461 37.5C461 35.567 459.433 34 457.5 34C455.567 34 454 35.567 454 37.5C454 39.433 455.567 41 457.5 41Z" fill="#202020"/>
<path fill-rule="evenodd" clip-rule="evenodd" d="M422.5 41C424.433 41 426 39.433 426 37.5C426 35.567 424.433 34 422.5 34C420.567 34 419 35.567 419 37.5C419 39.433 420.567 41 422.5 41Z" fill="#202020"/>
<path fill-rule="evenodd" clip-rule="evenodd" d="M387.5 41C389.433 41 391 39.433 391 37.5C391 35.567 389.433 34 387.5 34C385.567 34 384 35.567 384 37.5C384 39.433 385.567 41 387.5 41Z" fill="#202020"/>
<path fill-rule="evenodd" clip-rule="evenodd" d="M1052.5 6C1054.43 6 1056 4.433 1056 2.5C1056 0.567003 1054.43 -1 1052.5 -1C1050.57 -1 1049 0.567003 1049 2.5C1049 4.433 1050.57 6 1052.5 6Z" fill="#202020"/>
<path fill-rule="evenodd" clip-rule="evenodd" d="M1017.5 6C1019.43 6 1021 4.433 1021 2.5C1021 0.567003 1019.43 -1 1017.5 -1C1015.57 -1 1014 0.567003 1014 2.5C1014 4.433 1015.57 6 1017.5 6Z" fill="#202020"/>
<path fill-rule="evenodd" clip-rule="evenodd" d="M982.5 6C984.433 6 986 4.433 986 2.5C986 0.567003 984.433 -1 982.5 -1C980.567 -1 979 0.567003 979 2.5C979 4.433 980.567 6 982.5 6Z" fill="#202020"/>
<path fill-rule="evenodd" clip-rule="evenodd" d="M947.5 6C949.433 6 951 4.433 951 2.5C951 0.567003 949.433 -1 947.5 -1C945.567 -1 944 0.567003 944 2.5C944 4.433 945.567 6 947.5 6Z" fill="#202020"/>
<path fill-rule="evenodd" clip-rule="evenodd" d="M912.5 6C914.433 6 916 4.433 916 2.5C916 0.567003 914.433 -1 912.5 -1C910.567 -1 909 0.567003 909 2.5C909 4.433 910.567 6 912.5 6Z" fill="#202020"/>
<path fill-rule="evenodd" clip-rule="evenodd" d="M877.5 6C879.433 6 881 4.433 881 2.5C881 0.567003 879.433 -1 877.5 -1C875.567 -1 874 0.567003 874 2.5C874 4.433 875.567 6 877.5 6Z" fill="#202020"/>
<path fill-rule="evenodd" clip-rule="evenodd" d="M842.5 6C844.433 6 846 4.433 846 2.5C846 0.567003 844.433 -1 842.5 -1C840.567 -1 839 0.567003 839 2.5C839 4.433 840.567 6 842.5 6Z" fill="#202020"/>
<path fill-rule="evenodd" clip-rule="evenodd" d="M807.5 6C809.433 6 811 4.433 811 2.5C811 0.567003 809.433 -1 807.5 -1C805.567 -1 804 0.567003 804 2.5C804 4.433 805.567 6 807.5 6Z" fill="#202020"/>
<path fill-rule="evenodd" clip-rule="evenodd" d="M772.5 6C774.433 6 776 4.433 776 2.5C776 0.567003 774.433 -1 772.5 -1C770.567 -1 769 0.567003 769 2.5C769 4.433 770.567 6 772.5 6Z" fill="#202020"/>
<path fill-rule="evenodd" clip-rule="evenodd" d="M737.5 6C739.433 6 741 4.433 741 2.5C741 0.567003 739.433 -1 737.5 -1C735.567 -1 734 0.567003 734 2.5C734 4.433 735.567 6 737.5 6Z" fill="#202020"/>
<path fill-rule="evenodd" clip-rule="evenodd" d="M702.5 6C704.433 6 706 4.433 706 2.5C706 0.567003 704.433 -1 702.5 -1C700.567 -1 699 0.567003 699 2.5C699 4.433 700.567 6 702.5 6Z" fill="#202020"/>
<path fill-rule="evenodd" clip-rule="evenodd" d="M667.5 6C669.433 6 671 4.433 671 2.5C671 0.567003 669.433 -1 667.5 -1C665.567 -1 664 0.567003 664 2.5C664 4.433 665.567 6 667.5 6Z" fill="#202020"/>
<path fill-rule="evenodd" clip-rule="evenodd" d="M632.5 6C634.433 6 636 4.433 636 2.5C636 0.567003 634.433 -1 632.5 -1C630.567 -1 629 0.567003 629 2.5C629 4.433 630.567 6 632.5 6Z" fill="#202020"/>
<path fill-rule="evenodd" clip-rule="evenodd" d="M597.5 6C599.433 6 601 4.433 601 2.5C601 0.567003 599.433 -1 597.5 -1C595.567 -1 594 0.567003 594 2.5C594 4.433 595.567 6 597.5 6Z" fill="#202020"/>
<path fill-rule="evenodd" clip-rule="evenodd" d="M562.5 6C564.433 6 566 4.433 566 2.5C566 0.567003 564.433 -1 562.5 -1C560.567 -1 559 0.567003 559 2.5C559 4.433 560.567 6 562.5 6Z" fill="#202020"/>
<path fill-rule="evenodd" clip-rule="evenodd" d="M527.5 6C529.433 6 531 4.433 531 2.5C531 0.567003 529.433 -1 527.5 -1C525.567 -1 524 0.567003 524 2.5C524 4.433 525.567 6 527.5 6Z" fill="#202020"/>
<path fill-rule="evenodd" clip-rule="evenodd" d="M492.5 6C494.433 6 496 4.433 496 2.5C496 0.567003 494.433 -1 492.5 -1C490.567 -1 489 0.567003 489 2.5C489 4.433 490.567 6 492.5 6Z" fill="#202020"/>
<path fill-rule="evenodd" clip-rule="evenodd" d="M457.5 6C459.433 6 461 4.433 461 2.5C461 0.567003 459.433 -1 457.5 -1C455.567 -1 454 0.567003 454 2.5C454 4.433 455.567 6 457.5 6Z" fill="#202020"/>
<path fill-rule="evenodd" clip-rule="evenodd" d="M422.5 6C424.433 6 426 4.433 426 2.5C426 0.567003 424.433 -1 422.5 -1C420.567 -1 419 0.567003 419 2.5C419 4.433 420.567 6 422.5 6Z" fill="#202020"/>
<path fill-rule="evenodd" clip-rule="evenodd" d="M387.5 6C389.433 6 391 4.433 391 2.5C391 0.567003 389.433 -1 387.5 -1C385.567 -1 384 0.567003 384 2.5C384 4.433 385.567 6 387.5 6Z" fill="#202020"/>
<path fill-rule="evenodd" clip-rule="evenodd" d="M1437.5 216C1439.43 216 1441 214.433 1441 212.5C1441 210.567 1439.43 209 1437.5 209C1435.57 209 1434 210.567 1434 212.5C1434 214.433 1435.57 216 1437.5 216Z" fill="#202020"/>
<path fill-rule="evenodd" clip-rule="evenodd" d="M1402.5 216C1404.43 216 1406 214.433 1406 212.5C1406 210.567 1404.43 209 1402.5 209C1400.57 209 1399 210.567 1399 212.5C1399 214.433 1400.57 216 1402.5 216Z" fill="#202020"/>
<path fill-rule="evenodd" clip-rule="evenodd" d="M1367.5 216C1369.43 216 1371 214.433 1371 212.5C1371 210.567 1369.43 209 1367.5 209C1365.57 209 1364 210.567 1364 212.5C1364 214.433 1365.57 216 1367.5 216Z" fill="#202020"/>
<path fill-rule="evenodd" clip-rule="evenodd" d="M1332.5 216C1334.43 216 1336 214.433 1336 212.5C1336 210.567 1334.43 209 1332.5 209C1330.57 209 1329 210.567 1329 212.5C1329 214.433 1330.57 216 1332.5 216Z" fill="#202020"/>
<path fill-rule="evenodd" clip-rule="evenodd" d="M1297.5 216C1299.43 216 1301 214.433 1301 212.5C1301 210.567 1299.43 209 1297.5 209C1295.57 209 1294 210.567 1294 212.5C1294 214.433 1295.57 216 1297.5 216Z" fill="#202020"/>
<path fill-rule="evenodd" clip-rule="evenodd" d="M1262.5 216C1264.43 216 1266 214.433 1266 212.5C1266 210.567 1264.43 209 1262.5 209C1260.57 209 1259 210.567 1259 212.5C1259 214.433 1260.57 216 1262.5 216Z" fill="#202020"/>
<path fill-rule="evenodd" clip-rule="evenodd" d="M1227.5 216C1229.43 216 1231 214.433 1231 212.5C1231 210.567 1229.43 209 1227.5 209C1225.57 209 1224 210.567 1224 212.5C1224 214.433 1225.57 216 1227.5 216Z" fill="#202020"/>
<path fill-rule="evenodd" clip-rule="evenodd" d="M1192.5 216C1194.43 216 1196 214.433 1196 212.5C1196 210.567 1194.43 209 1192.5 209C1190.57 209 1189 210.567 1189 212.5C1189 214.433 1190.57 216 1192.5 216Z" fill="#202020"/>
<path fill-rule="evenodd" clip-rule="evenodd" d="M1157.5 216C1159.43 216 1161 214.433 1161 212.5C1161 210.567 1159.43 209 1157.5 209C1155.57 209 1154 210.567 1154 212.5C1154 214.433 1155.57 216 1157.5 216Z" fill="#202020"/>
<path fill-rule="evenodd" clip-rule="evenodd" d="M1122.5 216C1124.43 216 1126 214.433 1126 212.5C1126 210.567 1124.43 209 1122.5 209C1120.57 209 1119 210.567 1119 212.5C1119 214.433 1120.57 216 1122.5 216Z" fill="#202020"/>
<path fill-rule="evenodd" clip-rule="evenodd" d="M1087.5 216C1089.43 216 1091 214.433 1091 212.5C1091 210.567 1089.43 209 1087.5 209C1085.57 209 1084 210.567 1084 212.5C1084 214.433 1085.57 216 1087.5 216Z" fill="#202020"/>
<path fill-rule="evenodd" clip-rule="evenodd" d="M1437.5 181C1439.43 181 1441 179.433 1441 177.5C1441 175.567 1439.43 174 1437.5 174C1435.57 174 1434 175.567 1434 177.5C1434 179.433 1435.57 181 1437.5 181Z" fill="#202020"/>
<path fill-rule="evenodd" clip-rule="evenodd" d="M1402.5 181C1404.43 181 1406 179.433 1406 177.5C1406 175.567 1404.43 174 1402.5 174C1400.57 174 1399 175.567 1399 177.5C1399 179.433 1400.57 181 1402.5 181Z" fill="#202020"/>
<path fill-rule="evenodd" clip-rule="evenodd" d="M1367.5 181C1369.43 181 1371 179.433 1371 177.5C1371 175.567 1369.43 174 1367.5 174C1365.57 174 1364 175.567 1364 177.5C1364 179.433 1365.57 181 1367.5 181Z" fill="#202020"/>
<path fill-rule="evenodd" clip-rule="evenodd" d="M1332.5 181C1334.43 181 1336 179.433 1336 177.5C1336 175.567 1334.43 174 1332.5 174C1330.57 174 1329 175.567 1329 177.5C1329 179.433 1330.57 181 1332.5 181Z" fill="#202020"/>
<path fill-rule="evenodd" clip-rule="evenodd" d="M1297.5 181C1299.43 181 1301 179.433 1301 177.5C1301 175.567 1299.43 174 1297.5 174C1295.57 174 1294 175.567 1294 177.5C1294 179.433 1295.57 181 1297.5 181Z" fill="#202020"/>
<path fill-rule="evenodd" clip-rule="evenodd" d="M1262.5 181C1264.43 181 1266 179.433 1266 177.5C1266 175.567 1264.43 174 1262.5 174C1260.57 174 1259 175.567 1259 177.5C1259 179.433 1260.57 181 1262.5 181Z" fill="#202020"/>
<path fill-rule="evenodd" clip-rule="evenodd" d="M1227.5 181C1229.43 181 1231 179.433 1231 177.5C1231 175.567 1229.43 174 1227.5 174C1225.57 174 1224 175.567 1224 177.5C1224 179.433 1225.57 181 1227.5 181Z" fill="#202020"/>
<path fill-rule="evenodd" clip-rule="evenodd" d="M1192.5 181C1194.43 181 1196 179.433 1196 177.5C1196 175.567 1194.43 174 1192.5 174C1190.57 174 1189 175.567 1189 177.5C1189 179.433 1190.57 181 1192.5 181Z" fill="#202020"/>
<path fill-rule="evenodd" clip-rule="evenodd" d="M1157.5 181C1159.43 181 1161 179.433 1161 177.5C1161 175.567 1159.43 174 1157.5 174C1155.57 174 1154 175.567 1154 177.5C1154 179.433 1155.57 181 1157.5 181Z" fill="#202020"/>
<path fill-rule="evenodd" clip-rule="evenodd" d="M1122.5 181C1124.43 181 1126 179.433 1126 177.5C1126 175.567 1124.43 174 1122.5 174C1120.57 174 1119 175.567 1119 177.5C1119 179.433 1120.57 181 1122.5 181Z" fill="#202020"/>
<path fill-rule="evenodd" clip-rule="evenodd" d="M1087.5 181C1089.43 181 1091 179.433 1091 177.5C1091 175.567 1089.43 174 1087.5 174C1085.57 174 1084 175.567 1084 177.5C1084 179.433 1085.57 181 1087.5 181Z" fill="#202020"/>
<path fill-rule="evenodd" clip-rule="evenodd" d="M1437.5 146C1439.43 146 1441 144.433 1441 142.5C1441 140.567 1439.43 139 1437.5 139C1435.57 139 1434 140.567 1434 142.5C1434 144.433 1435.57 146 1437.5 146Z" fill="#202020"/>
<path fill-rule="evenodd" clip-rule="evenodd" d="M1402.5 146C1404.43 146 1406 144.433 1406 142.5C1406 140.567 1404.43 139 1402.5 139C1400.57 139 1399 140.567 1399 142.5C1399 144.433 1400.57 146 1402.5 146Z" fill="#202020"/>
<path fill-rule="evenodd" clip-rule="evenodd" d="M1367.5 146C1369.43 146 1371 144.433 1371 142.5C1371 140.567 1369.43 139 1367.5 139C1365.57 139 1364 140.567 1364 142.5C1364 144.433 1365.57 146 1367.5 146Z" fill="#202020"/>
<path fill-rule="evenodd" clip-rule="evenodd" d="M1332.5 146C1334.43 146 1336 144.433 1336 142.5C1336 140.567 1334.43 139 1332.5 139C1330.57 139 1329 140.567 1329 142.5C1329 144.433 1330.57 146 1332.5 146Z" fill="#202020"/>
<path fill-rule="evenodd" clip-rule="evenodd" d="M1297.5 146C1299.43 146 1301 144.433 1301 142.5C1301 140.567 1299.43 139 1297.5 139C1295.57 139 1294 140.567 1294 142.5C1294 144.433 1295.57 146 1297.5 146Z" fill="#202020"/>
<path fill-rule="evenodd" clip-rule="evenodd" d="M1262.5 146C1264.43 146 1266 144.433 1266 142.5C1266 140.567 1264.43 139 1262.5 139C1260.57 139 1259 140.567 1259 142.5C1259 144.433 1260.57 146 1262.5 146Z" fill="#202020"/>
<path fill-rule="evenodd" clip-rule="evenodd" d="M1227.5 146C1229.43 146 1231 144.433 1231 142.5C1231 140.567 1229.43 139 1227.5 139C1225.57 139 1224 140.567 1224 142.5C1224 144.433 1225.57 146 1227.5 146Z" fill="#202020"/>
<path fill-rule="evenodd" clip-rule="evenodd" d="M1192.5 146C1194.43 146 1196 144.433 1196 142.5C1196 140.567 1194.43 139 1192.5 139C1190.57 139 1189 140.567 1189 142.5C1189 144.433 1190.57 146 1192.5 146Z" fill="#202020"/>
<path fill-rule="evenodd" clip-rule="evenodd" d="M1157.5 146C1159.43 146 1161 144.433 1161 142.5C1161 140.567 1159.43 139 1157.5 139C1155.57 139 1154 140.567 1154 142.5C1154 144.433 1155.57 146 1157.5 146Z" fill="#202020"/>
<path fill-rule="evenodd" clip-rule="evenodd" d="M1122.5 146C1124.43 146 1126 144.433 1126 142.5C1126 140.567 1124.43 139 1122.5 139C1120.57 139 1119 140.567 1119 142.5C1119 144.433 1120.57 146 1122.5 146Z" fill="#202020"/>
<path fill-rule="evenodd" clip-rule="evenodd" d="M1087.5 146C1089.43 146 1091 144.433 1091 142.5C1091 140.567 1089.43 139 1087.5 139C1085.57 139 1084 140.567 1084 142.5C1084 144.433 1085.57 146 1087.5 146Z" fill="#202020"/>
<path fill-rule="evenodd" clip-rule="evenodd" d="M1437.5 111C1439.43 111 1441 109.433 1441 107.5C1441 105.567 1439.43 104 1437.5 104C1435.57 104 1434 105.567 1434 107.5C1434 109.433 1435.57 111 1437.5 111Z" fill="#202020"/>
<path fill-rule="evenodd" clip-rule="evenodd" d="M1402.5 111C1404.43 111 1406 109.433 1406 107.5C1406 105.567 1404.43 104 1402.5 104C1400.57 104 1399 105.567 1399 107.5C1399 109.433 1400.57 111 1402.5 111Z" fill="#202020"/>
<path fill-rule="evenodd" clip-rule="evenodd" d="M1367.5 111C1369.43 111 1371 109.433 1371 107.5C1371 105.567 1369.43 104 1367.5 104C1365.57 104 1364 105.567 1364 107.5C1364 109.433 1365.57 111 1367.5 111Z" fill="#202020"/>
<path fill-rule="evenodd" clip-rule="evenodd" d="M1332.5 111C1334.43 111 1336 109.433 1336 107.5C1336 105.567 1334.43 104 1332.5 104C1330.57 104 1329 105.567 1329 107.5C1329 109.433 1330.57 111 1332.5 111Z" fill="#202020"/>
<path fill-rule="evenodd" clip-rule="evenodd" d="M1297.5 111C1299.43 111 1301 109.433 1301 107.5C1301 105.567 1299.43 104 1297.5 104C1295.57 104 1294 105.567 1294 107.5C1294 109.433 1295.57 111 1297.5 111Z" fill="#202020"/>
<path fill-rule="evenodd" clip-rule="evenodd" d="M1262.5 111C1264.43 111 1266 109.433 1266 107.5C1266 105.567 1264.43 104 1262.5 104C1260.57 104 1259 105.567 1259 107.5C1259 109.433 1260.57 111 1262.5 111Z" fill="#202020"/>
<path fill-rule="evenodd" clip-rule="evenodd" d="M1227.5 111C1229.43 111 1231 109.433 1231 107.5C1231 105.567 1229.43 104 1227.5 104C1225.57 104 1224 105.567 1224 107.5C1224 109.433 1225.57 111 1227.5 111Z" fill="#202020"/>
<path fill-rule="evenodd" clip-rule="evenodd" d="M1192.5 111C1194.43 111 1196 109.433 1196 107.5C1196 105.567 1194.43 104 1192.5 104C1190.57 104 1189 105.567 1189 107.5C1189 109.433 1190.57 111 1192.5 111Z" fill="#202020"/>
<path fill-rule="evenodd" clip-rule="evenodd" d="M1157.5 111C1159.43 111 1161 109.433 1161 107.5C1161 105.567 1159.43 104 1157.5 104C1155.57 104 1154 105.567 1154 107.5C1154 109.433 1155.57 111 1157.5 111Z" fill="#202020"/>
<path fill-rule="evenodd" clip-rule="evenodd" d="M1122.5 111C1124.43 111 1126 109.433 1126 107.5C1126 105.567 1124.43 104 1122.5 104C1120.57 104 1119 105.567 1119 107.5C1119 109.433 1120.57 111 1122.5 111Z" fill="#202020"/>
<path fill-rule="evenodd" clip-rule="evenodd" d="M1087.5 111C1089.43 111 1091 109.433 1091 107.5C1091 105.567 1089.43 104 1087.5 104C1085.57 104 1084 105.567 1084 107.5C1084 109.433 1085.57 111 1087.5 111Z" fill="#202020"/>
<path fill-rule="evenodd" clip-rule="evenodd" d="M1437.5 76C1439.43 76 1441 74.433 1441 72.5C1441 70.567 1439.43 69 1437.5 69C1435.57 69 1434 70.567 1434 72.5C1434 74.433 1435.57 76 1437.5 76Z" fill="#202020"/>
<path fill-rule="evenodd" clip-rule="evenodd" d="M1402.5 76C1404.43 76 1406 74.433 1406 72.5C1406 70.567 1404.43 69 1402.5 69C1400.57 69 1399 70.567 1399 72.5C1399 74.433 1400.57 76 1402.5 76Z" fill="#202020"/>
<path fill-rule="evenodd" clip-rule="evenodd" d="M1367.5 76C1369.43 76 1371 74.433 1371 72.5C1371 70.567 1369.43 69 1367.5 69C1365.57 69 1364 70.567 1364 72.5C1364 74.433 1365.57 76 1367.5 76Z" fill="#202020"/>
<path fill-rule="evenodd" clip-rule="evenodd" d="M1332.5 76C1334.43 76 1336 74.433 1336 72.5C1336 70.567 1334.43 69 1332.5 69C1330.57 69 1329 70.567 1329 72.5C1329 74.433 1330.57 76 1332.5 76Z" fill="#202020"/>
<path fill-rule="evenodd" clip-rule="evenodd" d="M1297.5 76C1299.43 76 1301 74.433 1301 72.5C1301 70.567 1299.43 69 1297.5 69C1295.57 69 1294 70.567 1294 72.5C1294 74.433 1295.57 76 1297.5 76Z" fill="#202020"/>
<path fill-rule="evenodd" clip-rule="evenodd" d="M1262.5 76C1264.43 76 1266 74.433 1266 72.5C1266 70.567 1264.43 69 1262.5 69C1260.57 69 1259 70.567 1259 72.5C1259 74.433 1260.57 76 1262.5 76Z" fill="#202020"/>
<path fill-rule="evenodd" clip-rule="evenodd" d="M1227.5 76C1229.43 76 1231 74.433 1231 72.5C1231 70.567 1229.43 69 1227.5 69C1225.57 69 1224 70.567 1224 72.5C1224 74.433 1225.57 76 1227.5 76Z" fill="#202020"/>
<path fill-rule="evenodd" clip-rule="evenodd" d="M1192.5 76C1194.43 76 1196 74.433 1196 72.5C1196 70.567 1194.43 69 1192.5 69C1190.57 69 1189 70.567 1189 72.5C1189 74.433 1190.57 76 1192.5 76Z" fill="#202020"/>
<path fill-rule="evenodd" clip-rule="evenodd" d="M1157.5 76C1159.43 76 1161 74.433 1161 72.5C1161 70.567 1159.43 69 1157.5 69C1155.57 69 1154 70.567 1154 72.5C1154 74.433 1155.57 76 1157.5 76Z" fill="#202020"/>
<path fill-rule="evenodd" clip-rule="evenodd" d="M1122.5 76C1124.43 76 1126 74.433 1126 72.5C1126 70.567 1124.43 69 1122.5 69C1120.57 69 1119 70.567 1119 72.5C1119 74.433 1120.57 76 1122.5 76Z" fill="#202020"/>
<path fill-rule="evenodd" clip-rule="evenodd" d="M1087.5 76C1089.43 76 1091 74.433 1091 72.5C1091 70.567 1089.43 69 1087.5 69C1085.57 69 1084 70.567 1084 72.5C1084 74.433 1085.57 76 1087.5 76Z" fill="#202020"/>
<path fill-rule="evenodd" clip-rule="evenodd" d="M1437.5 41C1439.43 41 1441 39.433 1441 37.5C1441 35.567 1439.43 34 1437.5 34C1435.57 34 1434 35.567 1434 37.5C1434 39.433 1435.57 41 1437.5 41Z" fill="#202020"/>
<path fill-rule="evenodd" clip-rule="evenodd" d="M1402.5 41C1404.43 41 1406 39.433 1406 37.5C1406 35.567 1404.43 34 1402.5 34C1400.57 34 1399 35.567 1399 37.5C1399 39.433 1400.57 41 1402.5 41Z" fill="#202020"/>
<path fill-rule="evenodd" clip-rule="evenodd" d="M1367.5 41C1369.43 41 1371 39.433 1371 37.5C1371 35.567 1369.43 34 1367.5 34C1365.57 34 1364 35.567 1364 37.5C1364 39.433 1365.57 41 1367.5 41Z" fill="#202020"/>
<path fill-rule="evenodd" clip-rule="evenodd" d="M1332.5 41C1334.43 41 1336 39.433 1336 37.5C1336 35.567 1334.43 34 1332.5 34C1330.57 34 1329 35.567 1329 37.5C1329 39.433 1330.57 41 1332.5 41Z" fill="#202020"/>
<path fill-rule="evenodd" clip-rule="evenodd" d="M1297.5 41C1299.43 41 1301 39.433 1301 37.5C1301 35.567 1299.43 34 1297.5 34C1295.57 34 1294 35.567 1294 37.5C1294 39.433 1295.57 41 1297.5 41Z" fill="#202020"/>
<path fill-rule="evenodd" clip-rule="evenodd" d="M1262.5 41C1264.43 41 1266 39.433 1266 37.5C1266 35.567 1264.43 34 1262.5 34C1260.57 34 1259 35.567 1259 37.5C1259 39.433 1260.57 41 1262.5 41Z" fill="#202020"/>
<path fill-rule="evenodd" clip-rule="evenodd" d="M1227.5 41C1229.43 41 1231 39.433 1231 37.5C1231 35.567 1229.43 34 1227.5 34C1225.57 34 1224 35.567 1224 37.5C1224 39.433 1225.57 41 1227.5 41Z" fill="#202020"/>
<path fill-rule="evenodd" clip-rule="evenodd" d="M1192.5 41C1194.43 41 1196 39.433 1196 37.5C1196 35.567 1194.43 34 1192.5 34C1190.57 34 1189 35.567 1189 37.5C1189 39.433 1190.57 41 1192.5 41Z" fill="#202020"/>
<path fill-rule="evenodd" clip-rule="evenodd" d="M1157.5 41C1159.43 41 1161 39.433 1161 37.5C1161 35.567 1159.43 34 1157.5 34C1155.57 34 1154 35.567 1154 37.5C1154 39.433 1155.57 41 1157.5 41Z" fill="#202020"/>
<path fill-rule="evenodd" clip-rule="evenodd" d="M1122.5 41C1124.43 41 1126 39.433 1126 37.5C1126 35.567 1124.43 34 1122.5 34C1120.57 34 1119 35.567 1119 37.5C1119 39.433 1120.57 41 1122.5 41Z" fill="#202020"/>
<path fill-rule="evenodd" clip-rule="evenodd" d="M1087.5 41C1089.43 41 1091 39.433 1091 37.5C1091 35.567 1089.43 34 1087.5 34C1085.57 34 1084 35.567 1084 37.5C1084 39.433 1085.57 41 1087.5 41Z" fill="#202020"/>
<path fill-rule="evenodd" clip-rule="evenodd" d="M1437.5 6C1439.43 6 1441 4.433 1441 2.5C1441 0.567003 1439.43 -1 1437.5 -1C1435.57 -1 1434 0.567003 1434 2.5C1434 4.433 1435.57 6 1437.5 6Z" fill="#202020"/>
<path fill-rule="evenodd" clip-rule="evenodd" d="M1402.5 6C1404.43 6 1406 4.433 1406 2.5C1406 0.567003 1404.43 -1 1402.5 -1C1400.57 -1 1399 0.567003 1399 2.5C1399 4.433 1400.57 6 1402.5 6Z" fill="#202020"/>
<path fill-rule="evenodd" clip-rule="evenodd" d="M1367.5 6C1369.43 6 1371 4.433 1371 2.5C1371 0.567003 1369.43 -1 1367.5 -1C1365.57 -1 1364 0.567003 1364 2.5C1364 4.433 1365.57 6 1367.5 6Z" fill="#202020"/>
<path fill-rule="evenodd" clip-rule="evenodd" d="M1332.5 6C1334.43 6 1336 4.433 1336 2.5C1336 0.567003 1334.43 -1 1332.5 -1C1330.57 -1 1329 0.567003 1329 2.5C1329 4.433 1330.57 6 1332.5 6Z" fill="#202020"/>
<path fill-rule="evenodd" clip-rule="evenodd" d="M1297.5 6C1299.43 6 1301 4.433 1301 2.5C1301 0.567003 1299.43 -1 1297.5 -1C1295.57 -1 1294 0.567003 1294 2.5C1294 4.433 1295.57 6 1297.5 6Z" fill="#202020"/>
<path fill-rule="evenodd" clip-rule="evenodd" d="M1262.5 6C1264.43 6 1266 4.433 1266 2.5C1266 0.567003 1264.43 -1 1262.5 -1C1260.57 -1 1259 0.567003 1259 2.5C1259 4.433 1260.57 6 1262.5 6Z" fill="#202020"/>
<path fill-rule="evenodd" clip-rule="evenodd" d="M1227.5 6C1229.43 6 1231 4.433 1231 2.5C1231 0.567003 1229.43 -1 1227.5 -1C1225.57 -1 1224 0.567003 1224 2.5C1224 4.433 1225.57 6 1227.5 6Z" fill="#202020"/>
<path fill-rule="evenodd" clip-rule="evenodd" d="M1192.5 6C1194.43 6 1196 4.433 1196 2.5C1196 0.567003 1194.43 -1 1192.5 -1C1190.57 -1 1189 0.567003 1189 2.5C1189 4.433 1190.57 6 1192.5 6Z" fill="#202020"/>
<path fill-rule="evenodd" clip-rule="evenodd" d="M1157.5 6C1159.43 6 1161 4.433 1161 2.5C1161 0.567003 1159.43 -1 1157.5 -1C1155.57 -1 1154 0.567003 1154 2.5C1154 4.433 1155.57 6 1157.5 6Z" fill="#202020"/>
<path fill-rule="evenodd" clip-rule="evenodd" d="M1122.5 6C1124.43 6 1126 4.433 1126 2.5C1126 0.567003 1124.43 -1 1122.5 -1C1120.57 -1 1119 0.567003 1119 2.5C1119 4.433 1120.57 6 1122.5 6Z" fill="#202020"/>
<path fill-rule="evenodd" clip-rule="evenodd" d="M1087.5 6C1089.43 6 1091 4.433 1091 2.5C1091 0.567003 1089.43 -1 1087.5 -1C1085.57 -1 1084 0.567003 1084 2.5C1084 4.433 1085.57 6 1087.5 6Z" fill="#202020"/>
</g>
</svg>
