<svg width="1920" height="229" viewBox="0 0 1920 229" fill="none" xmlns="http://www.w3.org/2000/svg">
<mask id="mask0" mask-type="alpha" maskUnits="userSpaceOnUse" x="0" y="0" width="1920" height="229">
<path fill-rule="evenodd" clip-rule="evenodd" d="M1467 132.71C1467 132.71 1385.17 33.9259 1271.76 33.9259C1158.36 33.9259 1085.51 109.76 1085.51 109.76C1085.51 109.76 1015.41 0 867.203 0C724.004 0 638.886 147.678 638.886 147.678C638.886 147.678 594.825 65.8562 504.7 65.8562C414.575 65.8562 336.467 159.651 336.467 159.651C336.467 159.651 264.367 95.7908 148.206 109.76C32.0444 137.699 0 193 0 193V229H1920V193C1920 193 1855 42.4074 1711 46.8976C1567 51.3878 1467 132.71 1467 132.71Z" fill="#202020"/>
</mask>
<g mask="url(#mask0)">
<rect width="2238" height="14395.6" transform="translate(-316 -35.9216)" fill="#171717"/>
<path fill-rule="evenodd" clip-rule="evenodd" d="M406.058 215.529C408.146 215.529 409.838 213.966 409.838 212.037C409.838 210.108 408.146 208.545 406.058 208.545C403.97 208.545 402.277 210.108 402.277 212.037C402.277 213.966 403.97 215.529 406.058 215.529Z" fill="#202020"/>
<path fill-rule="evenodd" clip-rule="evenodd" d="M368.253 215.529C370.341 215.529 372.033 213.966 372.033 212.037C372.033 210.108 370.341 208.545 368.253 208.545C366.165 208.545 364.473 210.108 364.473 212.037C364.473 213.966 366.165 215.529 368.253 215.529Z" fill="#202020"/>
<path fill-rule="evenodd" clip-rule="evenodd" d="M330.448 215.529C332.536 215.529 334.229 213.966 334.229 212.037C334.229 210.108 332.536 208.545 330.448 208.545C328.361 208.545 326.668 210.108 326.668 212.037C326.668 213.966 328.361 215.529 330.448 215.529Z" fill="#202020"/>
<path fill-rule="evenodd" clip-rule="evenodd" d="M292.646 215.529C294.734 215.529 296.426 213.966 296.426 212.037C296.426 210.108 294.734 208.545 292.646 208.545C290.558 208.545 288.865 210.108 288.865 212.037C288.865 213.966 290.558 215.529 292.646 215.529Z" fill="#202020"/>
<path fill-rule="evenodd" clip-rule="evenodd" d="M254.841 215.529C256.929 215.529 258.621 213.966 258.621 212.037C258.621 210.108 256.929 208.545 254.841 208.545C252.753 208.545 251.061 210.108 251.061 212.037C251.061 213.966 252.753 215.529 254.841 215.529Z" fill="#202020"/>
<path fill-rule="evenodd" clip-rule="evenodd" d="M217.036 215.529C219.124 215.529 220.817 213.966 220.817 212.037C220.817 210.108 219.124 208.545 217.036 208.545C214.948 208.545 213.256 210.108 213.256 212.037C213.256 213.966 214.948 215.529 217.036 215.529Z" fill="#202020"/>
<path fill-rule="evenodd" clip-rule="evenodd" d="M179.234 215.529C181.321 215.529 183.014 213.966 183.014 212.037C183.014 210.108 181.321 208.545 179.234 208.545C177.146 208.545 175.453 210.108 175.453 212.037C175.453 213.966 177.146 215.529 179.234 215.529Z" fill="#202020"/>
<path fill-rule="evenodd" clip-rule="evenodd" d="M141.429 215.529C143.517 215.529 145.209 213.966 145.209 212.037C145.209 210.108 143.517 208.545 141.429 208.545C139.341 208.545 137.648 210.108 137.648 212.037C137.648 213.966 139.341 215.529 141.429 215.529Z" fill="#202020"/>
<path fill-rule="evenodd" clip-rule="evenodd" d="M103.624 215.529C105.712 215.529 107.405 213.966 107.405 212.037C107.405 210.108 105.712 208.545 103.624 208.545C101.536 208.545 99.8438 210.108 99.8438 212.037C99.8438 213.966 101.536 215.529 103.624 215.529Z" fill="#202020"/>
<path fill-rule="evenodd" clip-rule="evenodd" d="M65.8214 215.529C67.9093 215.529 69.6018 213.966 69.6018 212.037C69.6018 210.108 67.9093 208.545 65.8214 208.545C63.7336 208.545 62.041 210.108 62.041 212.037C62.041 213.966 63.7336 215.529 65.8214 215.529Z" fill="#202020"/>
<path fill-rule="evenodd" clip-rule="evenodd" d="M28.0167 215.529C30.1046 215.529 31.7971 213.966 31.7971 212.037C31.7971 210.108 30.1046 208.545 28.0167 208.545C25.9289 208.545 24.2363 210.108 24.2363 212.037C24.2363 213.966 25.9289 215.529 28.0167 215.529Z" fill="#202020"/>
<path fill-rule="evenodd" clip-rule="evenodd" d="M406.058 180.606C408.146 180.606 409.838 179.042 409.838 177.113C409.838 175.184 408.146 173.621 406.058 173.621C403.97 173.621 402.277 175.184 402.277 177.113C402.277 179.042 403.97 180.606 406.058 180.606Z" fill="#202020"/>
<path fill-rule="evenodd" clip-rule="evenodd" d="M368.253 180.606C370.341 180.606 372.033 179.042 372.033 177.113C372.033 175.184 370.341 173.621 368.253 173.621C366.165 173.621 364.473 175.184 364.473 177.113C364.473 179.042 366.165 180.606 368.253 180.606Z" fill="#202020"/>
<path fill-rule="evenodd" clip-rule="evenodd" d="M330.448 180.606C332.536 180.606 334.229 179.042 334.229 177.113C334.229 175.184 332.536 173.621 330.448 173.621C328.361 173.621 326.668 175.184 326.668 177.113C326.668 179.042 328.361 180.606 330.448 180.606Z" fill="#202020"/>
<path fill-rule="evenodd" clip-rule="evenodd" d="M292.646 180.606C294.734 180.606 296.426 179.042 296.426 177.113C296.426 175.184 294.734 173.621 292.646 173.621C290.558 173.621 288.865 175.184 288.865 177.113C288.865 179.042 290.558 180.606 292.646 180.606Z" fill="#202020"/>
<path fill-rule="evenodd" clip-rule="evenodd" d="M254.841 180.606C256.929 180.606 258.621 179.042 258.621 177.113C258.621 175.184 256.929 173.621 254.841 173.621C252.753 173.621 251.061 175.184 251.061 177.113C251.061 179.042 252.753 180.606 254.841 180.606Z" fill="#202020"/>
<path fill-rule="evenodd" clip-rule="evenodd" d="M217.036 180.606C219.124 180.606 220.817 179.042 220.817 177.113C220.817 175.184 219.124 173.621 217.036 173.621C214.948 173.621 213.256 175.184 213.256 177.113C213.256 179.042 214.948 180.606 217.036 180.606Z" fill="#202020"/>
<path fill-rule="evenodd" clip-rule="evenodd" d="M179.234 180.606C181.321 180.606 183.014 179.042 183.014 177.113C183.014 175.184 181.321 173.621 179.234 173.621C177.146 173.621 175.453 175.184 175.453 177.113C175.453 179.042 177.146 180.606 179.234 180.606Z" fill="#202020"/>
<path fill-rule="evenodd" clip-rule="evenodd" d="M141.429 180.606C143.517 180.606 145.209 179.042 145.209 177.113C145.209 175.184 143.517 173.621 141.429 173.621C139.341 173.621 137.648 175.184 137.648 177.113C137.648 179.042 139.341 180.606 141.429 180.606Z" fill="#202020"/>
<path fill-rule="evenodd" clip-rule="evenodd" d="M103.624 180.606C105.712 180.606 107.405 179.042 107.405 177.113C107.405 175.184 105.712 173.621 103.624 173.621C101.536 173.621 99.8438 175.184 99.8438 177.113C99.8438 179.042 101.536 180.606 103.624 180.606Z" fill="#202020"/>
<path fill-rule="evenodd" clip-rule="evenodd" d="M65.8214 180.606C67.9093 180.606 69.6018 179.042 69.6018 177.113C69.6018 175.184 67.9093 173.621 65.8214 173.621C63.7336 173.621 62.041 175.184 62.041 177.113C62.041 179.042 63.7336 180.606 65.8214 180.606Z" fill="#202020"/>
<path fill-rule="evenodd" clip-rule="evenodd" d="M28.0167 180.606C30.1046 180.606 31.7971 179.042 31.7971 177.113C31.7971 175.184 30.1046 173.621 28.0167 173.621C25.9289 173.621 24.2363 175.184 24.2363 177.113C24.2363 179.042 25.9289 180.606 28.0167 180.606Z" fill="#202020"/>
<path fill-rule="evenodd" clip-rule="evenodd" d="M406.058 145.682C408.146 145.682 409.838 144.118 409.838 142.19C409.838 140.261 408.146 138.697 406.058 138.697C403.97 138.697 402.277 140.261 402.277 142.19C402.277 144.118 403.97 145.682 406.058 145.682Z" fill="#202020"/>
<path fill-rule="evenodd" clip-rule="evenodd" d="M368.253 145.682C370.341 145.682 372.033 144.118 372.033 142.19C372.033 140.261 370.341 138.697 368.253 138.697C366.165 138.697 364.473 140.261 364.473 142.19C364.473 144.118 366.165 145.682 368.253 145.682Z" fill="#202020"/>
<path fill-rule="evenodd" clip-rule="evenodd" d="M330.448 145.682C332.536 145.682 334.229 144.118 334.229 142.19C334.229 140.261 332.536 138.697 330.448 138.697C328.361 138.697 326.668 140.261 326.668 142.19C326.668 144.118 328.361 145.682 330.448 145.682Z" fill="#202020"/>
<path fill-rule="evenodd" clip-rule="evenodd" d="M292.646 145.682C294.734 145.682 296.426 144.118 296.426 142.19C296.426 140.261 294.734 138.697 292.646 138.697C290.558 138.697 288.865 140.261 288.865 142.19C288.865 144.118 290.558 145.682 292.646 145.682Z" fill="#202020"/>
<path fill-rule="evenodd" clip-rule="evenodd" d="M254.841 145.682C256.929 145.682 258.621 144.118 258.621 142.19C258.621 140.261 256.929 138.697 254.841 138.697C252.753 138.697 251.061 140.261 251.061 142.19C251.061 144.118 252.753 145.682 254.841 145.682Z" fill="#202020"/>
<path fill-rule="evenodd" clip-rule="evenodd" d="M217.036 145.682C219.124 145.682 220.817 144.118 220.817 142.19C220.817 140.261 219.124 138.697 217.036 138.697C214.948 138.697 213.256 140.261 213.256 142.19C213.256 144.118 214.948 145.682 217.036 145.682Z" fill="#202020"/>
<path fill-rule="evenodd" clip-rule="evenodd" d="M179.234 145.682C181.321 145.682 183.014 144.118 183.014 142.19C183.014 140.261 181.321 138.697 179.234 138.697C177.146 138.697 175.453 140.261 175.453 142.19C175.453 144.118 177.146 145.682 179.234 145.682Z" fill="#202020"/>
<path fill-rule="evenodd" clip-rule="evenodd" d="M141.429 145.682C143.517 145.682 145.209 144.118 145.209 142.19C145.209 140.261 143.517 138.697 141.429 138.697C139.341 138.697 137.648 140.261 137.648 142.19C137.648 144.118 139.341 145.682 141.429 145.682Z" fill="#202020"/>
<path fill-rule="evenodd" clip-rule="evenodd" d="M103.624 145.682C105.712 145.682 107.405 144.118 107.405 142.19C107.405 140.261 105.712 138.697 103.624 138.697C101.536 138.697 99.8438 140.261 99.8438 142.19C99.8438 144.118 101.536 145.682 103.624 145.682Z" fill="#202020"/>
<path fill-rule="evenodd" clip-rule="evenodd" d="M65.8214 145.682C67.9093 145.682 69.6018 144.118 69.6018 142.19C69.6018 140.261 67.9093 138.697 65.8214 138.697C63.7336 138.697 62.041 140.261 62.041 142.19C62.041 144.118 63.7336 145.682 65.8214 145.682Z" fill="#202020"/>
<path fill-rule="evenodd" clip-rule="evenodd" d="M28.0167 145.682C30.1046 145.682 31.7971 144.118 31.7971 142.19C31.7971 140.261 30.1046 138.697 28.0167 138.697C25.9289 138.697 24.2363 140.261 24.2363 142.19C24.2363 144.118 25.9289 145.682 28.0167 145.682Z" fill="#202020"/>
<path fill-rule="evenodd" clip-rule="evenodd" d="M406.058 110.758C408.146 110.758 409.838 109.195 409.838 107.266C409.838 105.337 408.146 103.773 406.058 103.773C403.97 103.773 402.277 105.337 402.277 107.266C402.277 109.195 403.97 110.758 406.058 110.758Z" fill="#202020"/>
<path fill-rule="evenodd" clip-rule="evenodd" d="M368.253 110.758C370.341 110.758 372.033 109.195 372.033 107.266C372.033 105.337 370.341 103.773 368.253 103.773C366.165 103.773 364.473 105.337 364.473 107.266C364.473 109.195 366.165 110.758 368.253 110.758Z" fill="#202020"/>
<path fill-rule="evenodd" clip-rule="evenodd" d="M330.448 110.758C332.536 110.758 334.229 109.195 334.229 107.266C334.229 105.337 332.536 103.773 330.448 103.773C328.361 103.773 326.668 105.337 326.668 107.266C326.668 109.195 328.361 110.758 330.448 110.758Z" fill="#202020"/>
<path fill-rule="evenodd" clip-rule="evenodd" d="M292.646 110.758C294.734 110.758 296.426 109.195 296.426 107.266C296.426 105.337 294.734 103.773 292.646 103.773C290.558 103.773 288.865 105.337 288.865 107.266C288.865 109.195 290.558 110.758 292.646 110.758Z" fill="#202020"/>
<path fill-rule="evenodd" clip-rule="evenodd" d="M254.841 110.758C256.929 110.758 258.621 109.195 258.621 107.266C258.621 105.337 256.929 103.773 254.841 103.773C252.753 103.773 251.061 105.337 251.061 107.266C251.061 109.195 252.753 110.758 254.841 110.758Z" fill="#202020"/>
<path fill-rule="evenodd" clip-rule="evenodd" d="M217.036 110.758C219.124 110.758 220.817 109.195 220.817 107.266C220.817 105.337 219.124 103.773 217.036 103.773C214.948 103.773 213.256 105.337 213.256 107.266C213.256 109.195 214.948 110.758 217.036 110.758Z" fill="#202020"/>
<path fill-rule="evenodd" clip-rule="evenodd" d="M179.234 110.758C181.321 110.758 183.014 109.195 183.014 107.266C183.014 105.337 181.321 103.773 179.234 103.773C177.146 103.773 175.453 105.337 175.453 107.266C175.453 109.195 177.146 110.758 179.234 110.758Z" fill="#202020"/>
<path fill-rule="evenodd" clip-rule="evenodd" d="M141.429 110.758C143.517 110.758 145.209 109.195 145.209 107.266C145.209 105.337 143.517 103.773 141.429 103.773C139.341 103.773 137.648 105.337 137.648 107.266C137.648 109.195 139.341 110.758 141.429 110.758Z" fill="#202020"/>
<path fill-rule="evenodd" clip-rule="evenodd" d="M103.624 110.758C105.712 110.758 107.405 109.195 107.405 107.266C107.405 105.337 105.712 103.773 103.624 103.773C101.536 103.773 99.8438 105.337 99.8438 107.266C99.8438 109.195 101.536 110.758 103.624 110.758Z" fill="#202020"/>
<path fill-rule="evenodd" clip-rule="evenodd" d="M65.8214 110.758C67.9093 110.758 69.6018 109.195 69.6018 107.266C69.6018 105.337 67.9093 103.773 65.8214 103.773C63.7336 103.773 62.041 105.337 62.041 107.266C62.041 109.195 63.7336 110.758 65.8214 110.758Z" fill="#202020"/>
<path fill-rule="evenodd" clip-rule="evenodd" d="M28.0167 110.758C30.1046 110.758 31.7971 109.195 31.7971 107.266C31.7971 105.337 30.1046 103.773 28.0167 103.773C25.9289 103.773 24.2363 105.337 24.2363 107.266C24.2363 109.195 25.9289 110.758 28.0167 110.758Z" fill="#202020"/>
<path fill-rule="evenodd" clip-rule="evenodd" d="M406.058 75.8344C408.146 75.8344 409.838 74.2708 409.838 72.342C409.838 70.4132 408.146 68.8496 406.058 68.8496C403.97 68.8496 402.277 70.4132 402.277 72.342C402.277 74.2708 403.97 75.8344 406.058 75.8344Z" fill="#202020"/>
<path fill-rule="evenodd" clip-rule="evenodd" d="M368.253 75.8344C370.341 75.8344 372.033 74.2708 372.033 72.342C372.033 70.4132 370.341 68.8496 368.253 68.8496C366.165 68.8496 364.473 70.4132 364.473 72.342C364.473 74.2708 366.165 75.8344 368.253 75.8344Z" fill="#202020"/>
<path fill-rule="evenodd" clip-rule="evenodd" d="M330.448 75.8344C332.536 75.8344 334.229 74.2708 334.229 72.342C334.229 70.4132 332.536 68.8496 330.448 68.8496C328.361 68.8496 326.668 70.4132 326.668 72.342C326.668 74.2708 328.361 75.8344 330.448 75.8344Z" fill="#202020"/>
<path fill-rule="evenodd" clip-rule="evenodd" d="M292.646 75.8344C294.734 75.8344 296.426 74.2708 296.426 72.342C296.426 70.4132 294.734 68.8496 292.646 68.8496C290.558 68.8496 288.865 70.4132 288.865 72.342C288.865 74.2708 290.558 75.8344 292.646 75.8344Z" fill="#202020"/>
<path fill-rule="evenodd" clip-rule="evenodd" d="M254.841 75.8344C256.929 75.8344 258.621 74.2708 258.621 72.342C258.621 70.4132 256.929 68.8496 254.841 68.8496C252.753 68.8496 251.061 70.4132 251.061 72.342C251.061 74.2708 252.753 75.8344 254.841 75.8344Z" fill="#202020"/>
<path fill-rule="evenodd" clip-rule="evenodd" d="M217.036 75.8344C219.124 75.8344 220.817 74.2708 220.817 72.342C220.817 70.4132 219.124 68.8496 217.036 68.8496C214.948 68.8496 213.256 70.4132 213.256 72.342C213.256 74.2708 214.948 75.8344 217.036 75.8344Z" fill="#202020"/>
<path fill-rule="evenodd" clip-rule="evenodd" d="M179.234 75.8344C181.321 75.8344 183.014 74.2708 183.014 72.342C183.014 70.4132 181.321 68.8496 179.234 68.8496C177.146 68.8496 175.453 70.4132 175.453 72.342C175.453 74.2708 177.146 75.8344 179.234 75.8344Z" fill="#202020"/>
<path fill-rule="evenodd" clip-rule="evenodd" d="M141.429 75.8344C143.517 75.8344 145.209 74.2708 145.209 72.342C145.209 70.4132 143.517 68.8496 141.429 68.8496C139.341 68.8496 137.648 70.4132 137.648 72.342C137.648 74.2708 139.341 75.8344 141.429 75.8344Z" fill="#202020"/>
<path fill-rule="evenodd" clip-rule="evenodd" d="M103.624 75.8344C105.712 75.8344 107.405 74.2708 107.405 72.342C107.405 70.4132 105.712 68.8496 103.624 68.8496C101.536 68.8496 99.8438 70.4132 99.8438 72.342C99.8438 74.2708 101.536 75.8344 103.624 75.8344Z" fill="#202020"/>
<path fill-rule="evenodd" clip-rule="evenodd" d="M65.8214 75.8344C67.9093 75.8344 69.6018 74.2708 69.6018 72.342C69.6018 70.4132 67.9093 68.8496 65.8214 68.8496C63.7336 68.8496 62.041 70.4132 62.041 72.342C62.041 74.2708 63.7336 75.8344 65.8214 75.8344Z" fill="#202020"/>
<path fill-rule="evenodd" clip-rule="evenodd" d="M28.0167 75.8344C30.1046 75.8344 31.7971 74.2708 31.7971 72.342C31.7971 70.4132 30.1046 68.8496 28.0167 68.8496C25.9289 68.8496 24.2363 70.4132 24.2363 72.342C24.2363 74.2708 25.9289 75.8344 28.0167 75.8344Z" fill="#202020"/>
<path fill-rule="evenodd" clip-rule="evenodd" d="M406.058 40.9108C408.146 40.9108 409.838 39.3472 409.838 37.4184C409.838 35.4896 408.146 33.926 406.058 33.926C403.97 33.926 402.277 35.4896 402.277 37.4184C402.277 39.3472 403.97 40.9108 406.058 40.9108Z" fill="#202020"/>
<path fill-rule="evenodd" clip-rule="evenodd" d="M368.253 40.9108C370.341 40.9108 372.033 39.3472 372.033 37.4184C372.033 35.4896 370.341 33.926 368.253 33.926C366.165 33.926 364.473 35.4896 364.473 37.4184C364.473 39.3472 366.165 40.9108 368.253 40.9108Z" fill="#202020"/>
<path fill-rule="evenodd" clip-rule="evenodd" d="M330.448 40.9108C332.536 40.9108 334.229 39.3472 334.229 37.4184C334.229 35.4896 332.536 33.926 330.448 33.926C328.361 33.926 326.668 35.4896 326.668 37.4184C326.668 39.3472 328.361 40.9108 330.448 40.9108Z" fill="#202020"/>
<path fill-rule="evenodd" clip-rule="evenodd" d="M292.646 40.9108C294.734 40.9108 296.426 39.3472 296.426 37.4184C296.426 35.4896 294.734 33.926 292.646 33.926C290.558 33.926 288.865 35.4896 288.865 37.4184C288.865 39.3472 290.558 40.9108 292.646 40.9108Z" fill="#202020"/>
<path fill-rule="evenodd" clip-rule="evenodd" d="M254.841 40.9108C256.929 40.9108 258.621 39.3472 258.621 37.4184C258.621 35.4896 256.929 33.926 254.841 33.926C252.753 33.926 251.061 35.4896 251.061 37.4184C251.061 39.3472 252.753 40.9108 254.841 40.9108Z" fill="#202020"/>
<path fill-rule="evenodd" clip-rule="evenodd" d="M217.036 40.9108C219.124 40.9108 220.817 39.3472 220.817 37.4184C220.817 35.4896 219.124 33.926 217.036 33.926C214.948 33.926 213.256 35.4896 213.256 37.4184C213.256 39.3472 214.948 40.9108 217.036 40.9108Z" fill="#202020"/>
<path fill-rule="evenodd" clip-rule="evenodd" d="M179.234 40.9108C181.321 40.9108 183.014 39.3472 183.014 37.4184C183.014 35.4896 181.321 33.926 179.234 33.926C177.146 33.926 175.453 35.4896 175.453 37.4184C175.453 39.3472 177.146 40.9108 179.234 40.9108Z" fill="#202020"/>
<path fill-rule="evenodd" clip-rule="evenodd" d="M141.429 40.9108C143.517 40.9108 145.209 39.3472 145.209 37.4184C145.209 35.4896 143.517 33.926 141.429 33.926C139.341 33.926 137.648 35.4896 137.648 37.4184C137.648 39.3472 139.341 40.9108 141.429 40.9108Z" fill="#202020"/>
<path fill-rule="evenodd" clip-rule="evenodd" d="M103.624 40.9108C105.712 40.9108 107.405 39.3472 107.405 37.4184C107.405 35.4896 105.712 33.926 103.624 33.926C101.536 33.926 99.8438 35.4896 99.8438 37.4184C99.8438 39.3472 101.536 40.9108 103.624 40.9108Z" fill="#202020"/>
<path fill-rule="evenodd" clip-rule="evenodd" d="M65.8214 40.9108C67.9093 40.9108 69.6018 39.3472 69.6018 37.4184C69.6018 35.4896 67.9093 33.926 65.8214 33.926C63.7336 33.926 62.041 35.4896 62.041 37.4184C62.041 39.3472 63.7336 40.9108 65.8214 40.9108Z" fill="#202020"/>
<path fill-rule="evenodd" clip-rule="evenodd" d="M28.0167 40.9108C30.1046 40.9108 31.7971 39.3472 31.7971 37.4184C31.7971 35.4896 30.1046 33.926 28.0167 33.926C25.9289 33.926 24.2363 35.4896 24.2363 37.4184C24.2363 39.3472 25.9289 40.9108 28.0167 40.9108Z" fill="#202020"/>
<path fill-rule="evenodd" clip-rule="evenodd" d="M406.058 5.98695C408.146 5.98695 409.838 4.42336 409.838 2.49457C409.838 0.565787 408.146 -0.997803 406.058 -0.997803C403.97 -0.997803 402.277 0.565787 402.277 2.49457C402.277 4.42336 403.97 5.98695 406.058 5.98695Z" fill="#202020"/>
<path fill-rule="evenodd" clip-rule="evenodd" d="M368.253 5.98695C370.341 5.98695 372.033 4.42336 372.033 2.49457C372.033 0.565787 370.341 -0.997803 368.253 -0.997803C366.165 -0.997803 364.473 0.565787 364.473 2.49457C364.473 4.42336 366.165 5.98695 368.253 5.98695Z" fill="#202020"/>
<path fill-rule="evenodd" clip-rule="evenodd" d="M330.448 5.98695C332.536 5.98695 334.229 4.42336 334.229 2.49457C334.229 0.565787 332.536 -0.997803 330.448 -0.997803C328.361 -0.997803 326.668 0.565787 326.668 2.49457C326.668 4.42336 328.361 5.98695 330.448 5.98695Z" fill="#202020"/>
<path fill-rule="evenodd" clip-rule="evenodd" d="M292.646 5.98695C294.734 5.98695 296.426 4.42336 296.426 2.49457C296.426 0.565787 294.734 -0.997803 292.646 -0.997803C290.558 -0.997803 288.865 0.565787 288.865 2.49457C288.865 4.42336 290.558 5.98695 292.646 5.98695Z" fill="#202020"/>
<path fill-rule="evenodd" clip-rule="evenodd" d="M254.841 5.98695C256.929 5.98695 258.621 4.42336 258.621 2.49457C258.621 0.565787 256.929 -0.997803 254.841 -0.997803C252.753 -0.997803 251.061 0.565787 251.061 2.49457C251.061 4.42336 252.753 5.98695 254.841 5.98695Z" fill="#202020"/>
<path fill-rule="evenodd" clip-rule="evenodd" d="M217.036 5.98695C219.124 5.98695 220.817 4.42336 220.817 2.49457C220.817 0.565787 219.124 -0.997803 217.036 -0.997803C214.948 -0.997803 213.256 0.565787 213.256 2.49457C213.256 4.42336 214.948 5.98695 217.036 5.98695Z" fill="#202020"/>
<path fill-rule="evenodd" clip-rule="evenodd" d="M179.234 5.98695C181.321 5.98695 183.014 4.42336 183.014 2.49457C183.014 0.565787 181.321 -0.997803 179.234 -0.997803C177.146 -0.997803 175.453 0.565787 175.453 2.49457C175.453 4.42336 177.146 5.98695 179.234 5.98695Z" fill="#202020"/>
<path fill-rule="evenodd" clip-rule="evenodd" d="M141.429 5.98695C143.517 5.98695 145.209 4.42336 145.209 2.49457C145.209 0.565787 143.517 -0.997803 141.429 -0.997803C139.341 -0.997803 137.648 0.565787 137.648 2.49457C137.648 4.42336 139.341 5.98695 141.429 5.98695Z" fill="#202020"/>
<path fill-rule="evenodd" clip-rule="evenodd" d="M103.624 5.98695C105.712 5.98695 107.405 4.42336 107.405 2.49457C107.405 0.565787 105.712 -0.997803 103.624 -0.997803C101.536 -0.997803 99.8438 0.565787 99.8438 2.49457C99.8438 4.42336 101.536 5.98695 103.624 5.98695Z" fill="#202020"/>
<path fill-rule="evenodd" clip-rule="evenodd" d="M65.8214 5.98695C67.9093 5.98695 69.6018 4.42336 69.6018 2.49457C69.6018 0.565787 67.9093 -0.997803 65.8214 -0.997803C63.7336 -0.997803 62.041 0.565787 62.041 2.49457C62.041 4.42336 63.7336 5.98695 65.8214 5.98695Z" fill="#202020"/>
<path fill-rule="evenodd" clip-rule="evenodd" d="M28.0167 5.98695C30.1046 5.98695 31.7971 4.42336 31.7971 2.49457C31.7971 0.565787 30.1046 -0.997803 28.0167 -0.997803C25.9289 -0.997803 24.2363 0.565787 24.2363 2.49457C24.2363 4.42336 25.9289 5.98695 28.0167 5.98695Z" fill="#202020"/>
<path fill-rule="evenodd" clip-rule="evenodd" d="M1162.14 215.529C1164.23 215.529 1165.92 213.966 1165.92 212.037C1165.92 210.108 1164.23 208.545 1162.14 208.545C1160.05 208.545 1158.36 210.108 1158.36 212.037C1158.36 213.966 1160.05 215.529 1162.14 215.529Z" fill="#202020"/>
<path fill-rule="evenodd" clip-rule="evenodd" d="M1124.34 215.529C1126.42 215.529 1128.12 213.966 1128.12 212.037C1128.12 210.108 1126.42 208.545 1124.34 208.545C1122.25 208.545 1120.55 210.108 1120.55 212.037C1120.55 213.966 1122.25 215.529 1124.34 215.529Z" fill="#202020"/>
<path fill-rule="evenodd" clip-rule="evenodd" d="M1086.53 215.529C1088.62 215.529 1090.31 213.966 1090.31 212.037C1090.31 210.108 1088.62 208.545 1086.53 208.545C1084.44 208.545 1082.75 210.108 1082.75 212.037C1082.75 213.966 1084.44 215.529 1086.53 215.529Z" fill="#202020"/>
<path fill-rule="evenodd" clip-rule="evenodd" d="M1048.73 215.529C1050.81 215.529 1052.51 213.966 1052.51 212.037C1052.51 210.108 1050.81 208.545 1048.73 208.545C1046.64 208.545 1044.95 210.108 1044.95 212.037C1044.95 213.966 1046.64 215.529 1048.73 215.529Z" fill="#202020"/>
<path fill-rule="evenodd" clip-rule="evenodd" d="M557.275 215.529C559.362 215.529 561.055 213.966 561.055 212.037C561.055 210.108 559.362 208.545 557.275 208.545C555.187 208.545 553.494 210.108 553.494 212.037C553.494 213.966 555.187 215.529 557.275 215.529Z" fill="#202020"/>
<path fill-rule="evenodd" clip-rule="evenodd" d="M595.077 215.529C597.165 215.529 598.858 213.966 598.858 212.037C598.858 210.108 597.165 208.545 595.077 208.545C592.989 208.545 591.297 210.108 591.297 212.037C591.297 213.966 592.989 215.529 595.077 215.529Z" fill="#202020"/>
<path fill-rule="evenodd" clip-rule="evenodd" d="M632.882 215.529C634.97 215.529 636.662 213.966 636.662 212.037C636.662 210.108 634.97 208.545 632.882 208.545C630.794 208.545 629.102 210.108 629.102 212.037C629.102 213.966 630.794 215.529 632.882 215.529Z" fill="#202020"/>
<path fill-rule="evenodd" clip-rule="evenodd" d="M670.687 215.529C672.775 215.529 674.467 213.966 674.467 212.037C674.467 210.108 672.775 208.545 670.687 208.545C668.599 208.545 666.906 210.108 666.906 212.037C666.906 213.966 668.599 215.529 670.687 215.529Z" fill="#202020"/>
<path fill-rule="evenodd" clip-rule="evenodd" d="M708.489 215.529C710.577 215.529 712.27 213.966 712.27 212.037C712.27 210.108 710.577 208.545 708.489 208.545C706.402 208.545 704.709 210.108 704.709 212.037C704.709 213.966 706.402 215.529 708.489 215.529Z" fill="#202020"/>
<path fill-rule="evenodd" clip-rule="evenodd" d="M746.294 215.529C748.382 215.529 750.074 213.966 750.074 212.037C750.074 210.108 748.382 208.545 746.294 208.545C744.206 208.545 742.514 210.108 742.514 212.037C742.514 213.966 744.206 215.529 746.294 215.529Z" fill="#202020"/>
<path fill-rule="evenodd" clip-rule="evenodd" d="M784.099 215.529C786.187 215.529 787.879 213.966 787.879 212.037C787.879 210.108 786.187 208.545 784.099 208.545C782.011 208.545 780.318 210.108 780.318 212.037C780.318 213.966 782.011 215.529 784.099 215.529Z" fill="#202020"/>
<path fill-rule="evenodd" clip-rule="evenodd" d="M821.901 215.529C823.989 215.529 825.682 213.966 825.682 212.037C825.682 210.108 823.989 208.545 821.901 208.545C819.814 208.545 818.121 210.108 818.121 212.037C818.121 213.966 819.814 215.529 821.901 215.529Z" fill="#202020"/>
<path fill-rule="evenodd" clip-rule="evenodd" d="M859.706 215.529C861.794 215.529 863.487 213.966 863.487 212.037C863.487 210.108 861.794 208.545 859.706 208.545C857.618 208.545 855.926 210.108 855.926 212.037C855.926 213.966 857.618 215.529 859.706 215.529Z" fill="#202020"/>
<path fill-rule="evenodd" clip-rule="evenodd" d="M897.511 215.529C899.599 215.529 901.291 213.966 901.291 212.037C901.291 210.108 899.599 208.545 897.511 208.545C895.423 208.545 893.73 210.108 893.73 212.037C893.73 213.966 895.423 215.529 897.511 215.529Z" fill="#202020"/>
<path fill-rule="evenodd" clip-rule="evenodd" d="M935.314 215.529C937.401 215.529 939.094 213.966 939.094 212.037C939.094 210.108 937.401 208.545 935.314 208.545C933.226 208.545 931.533 210.108 931.533 212.037C931.533 213.966 933.226 215.529 935.314 215.529Z" fill="#202020"/>
<path fill-rule="evenodd" clip-rule="evenodd" d="M973.118 215.529C975.206 215.529 976.899 213.966 976.899 212.037C976.899 210.108 975.206 208.545 973.118 208.545C971.03 208.545 969.338 210.108 969.338 212.037C969.338 213.966 971.03 215.529 973.118 215.529Z" fill="#202020"/>
<path fill-rule="evenodd" clip-rule="evenodd" d="M1010.92 215.529C1013.01 215.529 1014.7 213.966 1014.7 212.037C1014.7 210.108 1013.01 208.545 1010.92 208.545C1008.84 208.545 1007.14 210.108 1007.14 212.037C1007.14 213.966 1008.84 215.529 1010.92 215.529Z" fill="#202020"/>
<path fill-rule="evenodd" clip-rule="evenodd" d="M519.47 215.529C521.558 215.529 523.25 213.966 523.25 212.037C523.25 210.108 521.558 208.545 519.47 208.545C517.382 208.545 515.689 210.108 515.689 212.037C515.689 213.966 517.382 215.529 519.47 215.529Z" fill="#202020"/>
<path fill-rule="evenodd" clip-rule="evenodd" d="M481.665 215.529C483.753 215.529 485.446 213.966 485.446 212.037C485.446 210.108 483.753 208.545 481.665 208.545C479.577 208.545 477.885 210.108 477.885 212.037C477.885 213.966 479.577 215.529 481.665 215.529Z" fill="#202020"/>
<path fill-rule="evenodd" clip-rule="evenodd" d="M443.862 215.529C445.95 215.529 447.643 213.966 447.643 212.037C447.643 210.108 445.95 208.545 443.862 208.545C441.775 208.545 440.082 210.108 440.082 212.037C440.082 213.966 441.775 215.529 443.862 215.529Z" fill="#202020"/>
<path fill-rule="evenodd" clip-rule="evenodd" d="M1162.14 180.606C1164.23 180.606 1165.92 179.042 1165.92 177.113C1165.92 175.184 1164.23 173.621 1162.14 173.621C1160.05 173.621 1158.36 175.184 1158.36 177.113C1158.36 179.042 1160.05 180.606 1162.14 180.606Z" fill="#202020"/>
<path fill-rule="evenodd" clip-rule="evenodd" d="M1124.34 180.606C1126.42 180.606 1128.12 179.042 1128.12 177.113C1128.12 175.184 1126.42 173.621 1124.34 173.621C1122.25 173.621 1120.55 175.184 1120.55 177.113C1120.55 179.042 1122.25 180.606 1124.34 180.606Z" fill="#202020"/>
<path fill-rule="evenodd" clip-rule="evenodd" d="M1086.53 180.606C1088.62 180.606 1090.31 179.042 1090.31 177.113C1090.31 175.184 1088.62 173.621 1086.53 173.621C1084.44 173.621 1082.75 175.184 1082.75 177.113C1082.75 179.042 1084.44 180.606 1086.53 180.606Z" fill="#202020"/>
<path fill-rule="evenodd" clip-rule="evenodd" d="M1048.73 180.606C1050.81 180.606 1052.51 179.042 1052.51 177.113C1052.51 175.184 1050.81 173.621 1048.73 173.621C1046.64 173.621 1044.95 175.184 1044.95 177.113C1044.95 179.042 1046.64 180.606 1048.73 180.606Z" fill="#202020"/>
<path fill-rule="evenodd" clip-rule="evenodd" d="M557.275 180.606C559.362 180.606 561.055 179.042 561.055 177.113C561.055 175.184 559.362 173.621 557.275 173.621C555.187 173.621 553.494 175.184 553.494 177.113C553.494 179.042 555.187 180.606 557.275 180.606Z" fill="#202020"/>
<path fill-rule="evenodd" clip-rule="evenodd" d="M595.077 180.606C597.165 180.606 598.858 179.042 598.858 177.113C598.858 175.184 597.165 173.621 595.077 173.621C592.989 173.621 591.297 175.184 591.297 177.113C591.297 179.042 592.989 180.606 595.077 180.606Z" fill="#202020"/>
<path fill-rule="evenodd" clip-rule="evenodd" d="M632.882 180.606C634.97 180.606 636.662 179.042 636.662 177.113C636.662 175.184 634.97 173.621 632.882 173.621C630.794 173.621 629.102 175.184 629.102 177.113C629.102 179.042 630.794 180.606 632.882 180.606Z" fill="#202020"/>
<path fill-rule="evenodd" clip-rule="evenodd" d="M670.687 180.606C672.775 180.606 674.467 179.042 674.467 177.113C674.467 175.184 672.775 173.621 670.687 173.621C668.599 173.621 666.906 175.184 666.906 177.113C666.906 179.042 668.599 180.606 670.687 180.606Z" fill="#202020"/>
<path fill-rule="evenodd" clip-rule="evenodd" d="M708.489 180.606C710.577 180.606 712.27 179.042 712.27 177.113C712.27 175.184 710.577 173.621 708.489 173.621C706.402 173.621 704.709 175.184 704.709 177.113C704.709 179.042 706.402 180.606 708.489 180.606Z" fill="#202020"/>
<path fill-rule="evenodd" clip-rule="evenodd" d="M746.294 180.606C748.382 180.606 750.074 179.042 750.074 177.113C750.074 175.184 748.382 173.621 746.294 173.621C744.206 173.621 742.514 175.184 742.514 177.113C742.514 179.042 744.206 180.606 746.294 180.606Z" fill="#202020"/>
<path fill-rule="evenodd" clip-rule="evenodd" d="M784.099 180.606C786.187 180.606 787.879 179.042 787.879 177.113C787.879 175.184 786.187 173.621 784.099 173.621C782.011 173.621 780.318 175.184 780.318 177.113C780.318 179.042 782.011 180.606 784.099 180.606Z" fill="#202020"/>
<path fill-rule="evenodd" clip-rule="evenodd" d="M821.901 180.606C823.989 180.606 825.682 179.042 825.682 177.113C825.682 175.184 823.989 173.621 821.901 173.621C819.814 173.621 818.121 175.184 818.121 177.113C818.121 179.042 819.814 180.606 821.901 180.606Z" fill="#202020"/>
<path fill-rule="evenodd" clip-rule="evenodd" d="M859.706 180.606C861.794 180.606 863.487 179.042 863.487 177.113C863.487 175.184 861.794 173.621 859.706 173.621C857.618 173.621 855.926 175.184 855.926 177.113C855.926 179.042 857.618 180.606 859.706 180.606Z" fill="#202020"/>
<path fill-rule="evenodd" clip-rule="evenodd" d="M897.511 180.606C899.599 180.606 901.291 179.042 901.291 177.113C901.291 175.184 899.599 173.621 897.511 173.621C895.423 173.621 893.73 175.184 893.73 177.113C893.73 179.042 895.423 180.606 897.511 180.606Z" fill="#202020"/>
<path fill-rule="evenodd" clip-rule="evenodd" d="M935.314 180.606C937.401 180.606 939.094 179.042 939.094 177.113C939.094 175.184 937.401 173.621 935.314 173.621C933.226 173.621 931.533 175.184 931.533 177.113C931.533 179.042 933.226 180.606 935.314 180.606Z" fill="#202020"/>
<path fill-rule="evenodd" clip-rule="evenodd" d="M973.118 180.606C975.206 180.606 976.899 179.042 976.899 177.113C976.899 175.184 975.206 173.621 973.118 173.621C971.03 173.621 969.338 175.184 969.338 177.113C969.338 179.042 971.03 180.606 973.118 180.606Z" fill="#202020"/>
<path fill-rule="evenodd" clip-rule="evenodd" d="M1010.92 180.606C1013.01 180.606 1014.7 179.042 1014.7 177.113C1014.7 175.184 1013.01 173.621 1010.92 173.621C1008.84 173.621 1007.14 175.184 1007.14 177.113C1007.14 179.042 1008.84 180.606 1010.92 180.606Z" fill="#202020"/>
<path fill-rule="evenodd" clip-rule="evenodd" d="M519.47 180.606C521.558 180.606 523.25 179.042 523.25 177.113C523.25 175.184 521.558 173.621 519.47 173.621C517.382 173.621 515.689 175.184 515.689 177.113C515.689 179.042 517.382 180.606 519.47 180.606Z" fill="#202020"/>
<path fill-rule="evenodd" clip-rule="evenodd" d="M481.665 180.606C483.753 180.606 485.446 179.042 485.446 177.113C485.446 175.184 483.753 173.621 481.665 173.621C479.577 173.621 477.885 175.184 477.885 177.113C477.885 179.042 479.577 180.606 481.665 180.606Z" fill="#202020"/>
<path fill-rule="evenodd" clip-rule="evenodd" d="M443.862 180.606C445.95 180.606 447.643 179.042 447.643 177.113C447.643 175.184 445.95 173.621 443.862 173.621C441.775 173.621 440.082 175.184 440.082 177.113C440.082 179.042 441.775 180.606 443.862 180.606Z" fill="#202020"/>
<path fill-rule="evenodd" clip-rule="evenodd" d="M1162.14 145.682C1164.23 145.682 1165.92 144.118 1165.92 142.19C1165.92 140.261 1164.23 138.697 1162.14 138.697C1160.05 138.697 1158.36 140.261 1158.36 142.19C1158.36 144.118 1160.05 145.682 1162.14 145.682Z" fill="#202020"/>
<path fill-rule="evenodd" clip-rule="evenodd" d="M1124.34 145.682C1126.42 145.682 1128.12 144.118 1128.12 142.19C1128.12 140.261 1126.42 138.697 1124.34 138.697C1122.25 138.697 1120.55 140.261 1120.55 142.19C1120.55 144.118 1122.25 145.682 1124.34 145.682Z" fill="#202020"/>
<path fill-rule="evenodd" clip-rule="evenodd" d="M1086.53 145.682C1088.62 145.682 1090.31 144.118 1090.31 142.19C1090.31 140.261 1088.62 138.697 1086.53 138.697C1084.44 138.697 1082.75 140.261 1082.75 142.19C1082.75 144.118 1084.44 145.682 1086.53 145.682Z" fill="#202020"/>
<path fill-rule="evenodd" clip-rule="evenodd" d="M1048.73 145.682C1050.81 145.682 1052.51 144.118 1052.51 142.19C1052.51 140.261 1050.81 138.697 1048.73 138.697C1046.64 138.697 1044.95 140.261 1044.95 142.19C1044.95 144.118 1046.64 145.682 1048.73 145.682Z" fill="#202020"/>
<path fill-rule="evenodd" clip-rule="evenodd" d="M1010.92 145.682C1013.01 145.682 1014.7 144.118 1014.7 142.19C1014.7 140.261 1013.01 138.697 1010.92 138.697C1008.84 138.697 1007.14 140.261 1007.14 142.19C1007.14 144.118 1008.84 145.682 1010.92 145.682Z" fill="#202020"/>
<path fill-rule="evenodd" clip-rule="evenodd" d="M973.118 145.682C975.206 145.682 976.899 144.118 976.899 142.19C976.899 140.261 975.206 138.697 973.118 138.697C971.03 138.697 969.338 140.261 969.338 142.19C969.338 144.118 971.03 145.682 973.118 145.682Z" fill="#202020"/>
<path fill-rule="evenodd" clip-rule="evenodd" d="M935.314 145.682C937.401 145.682 939.094 144.118 939.094 142.19C939.094 140.261 937.401 138.697 935.314 138.697C933.226 138.697 931.533 140.261 931.533 142.19C931.533 144.118 933.226 145.682 935.314 145.682Z" fill="#202020"/>
<path fill-rule="evenodd" clip-rule="evenodd" d="M897.511 145.682C899.599 145.682 901.291 144.118 901.291 142.19C901.291 140.261 899.599 138.697 897.511 138.697C895.423 138.697 893.73 140.261 893.73 142.19C893.73 144.118 895.423 145.682 897.511 145.682Z" fill="#202020"/>
<path fill-rule="evenodd" clip-rule="evenodd" d="M859.706 145.682C861.794 145.682 863.487 144.118 863.487 142.19C863.487 140.261 861.794 138.697 859.706 138.697C857.618 138.697 855.926 140.261 855.926 142.19C855.926 144.118 857.618 145.682 859.706 145.682Z" fill="#202020"/>
<path fill-rule="evenodd" clip-rule="evenodd" d="M821.901 145.682C823.989 145.682 825.682 144.118 825.682 142.19C825.682 140.261 823.989 138.697 821.901 138.697C819.814 138.697 818.121 140.261 818.121 142.19C818.121 144.118 819.814 145.682 821.901 145.682Z" fill="#202020"/>
<path fill-rule="evenodd" clip-rule="evenodd" d="M784.099 145.682C786.187 145.682 787.879 144.118 787.879 142.19C787.879 140.261 786.187 138.697 784.099 138.697C782.011 138.697 780.318 140.261 780.318 142.19C780.318 144.118 782.011 145.682 784.099 145.682Z" fill="#202020"/>
<path fill-rule="evenodd" clip-rule="evenodd" d="M746.294 145.682C748.382 145.682 750.074 144.118 750.074 142.19C750.074 140.261 748.382 138.697 746.294 138.697C744.206 138.697 742.514 140.261 742.514 142.19C742.514 144.118 744.206 145.682 746.294 145.682Z" fill="#202020"/>
<path fill-rule="evenodd" clip-rule="evenodd" d="M708.489 145.682C710.577 145.682 712.27 144.118 712.27 142.19C712.27 140.261 710.577 138.697 708.489 138.697C706.402 138.697 704.709 140.261 704.709 142.19C704.709 144.118 706.402 145.682 708.489 145.682Z" fill="#202020"/>
<path fill-rule="evenodd" clip-rule="evenodd" d="M670.687 145.682C672.775 145.682 674.467 144.118 674.467 142.19C674.467 140.261 672.775 138.697 670.687 138.697C668.599 138.697 666.906 140.261 666.906 142.19C666.906 144.118 668.599 145.682 670.687 145.682Z" fill="#202020"/>
<path fill-rule="evenodd" clip-rule="evenodd" d="M632.882 145.682C634.97 145.682 636.662 144.118 636.662 142.19C636.662 140.261 634.97 138.697 632.882 138.697C630.794 138.697 629.102 140.261 629.102 142.19C629.102 144.118 630.794 145.682 632.882 145.682Z" fill="#202020"/>
<path fill-rule="evenodd" clip-rule="evenodd" d="M595.077 145.682C597.165 145.682 598.858 144.118 598.858 142.19C598.858 140.261 597.165 138.697 595.077 138.697C592.989 138.697 591.297 140.261 591.297 142.19C591.297 144.118 592.989 145.682 595.077 145.682Z" fill="#202020"/>
<path fill-rule="evenodd" clip-rule="evenodd" d="M557.275 145.682C559.362 145.682 561.055 144.118 561.055 142.19C561.055 140.261 559.362 138.697 557.275 138.697C555.187 138.697 553.494 140.261 553.494 142.19C553.494 144.118 555.187 145.682 557.275 145.682Z" fill="#202020"/>
<path fill-rule="evenodd" clip-rule="evenodd" d="M519.47 145.682C521.558 145.682 523.25 144.118 523.25 142.19C523.25 140.261 521.558 138.697 519.47 138.697C517.382 138.697 515.689 140.261 515.689 142.19C515.689 144.118 517.382 145.682 519.47 145.682Z" fill="#202020"/>
<path fill-rule="evenodd" clip-rule="evenodd" d="M481.665 145.682C483.753 145.682 485.446 144.118 485.446 142.19C485.446 140.261 483.753 138.697 481.665 138.697C479.577 138.697 477.885 140.261 477.885 142.19C477.885 144.118 479.577 145.682 481.665 145.682Z" fill="#202020"/>
<path fill-rule="evenodd" clip-rule="evenodd" d="M443.862 145.682C445.95 145.682 447.643 144.118 447.643 142.19C447.643 140.261 445.95 138.697 443.862 138.697C441.775 138.697 440.082 140.261 440.082 142.19C440.082 144.118 441.775 145.682 443.862 145.682Z" fill="#202020"/>
<path fill-rule="evenodd" clip-rule="evenodd" d="M1162.14 110.758C1164.23 110.758 1165.92 109.195 1165.92 107.266C1165.92 105.337 1164.23 103.773 1162.14 103.773C1160.05 103.773 1158.36 105.337 1158.36 107.266C1158.36 109.195 1160.05 110.758 1162.14 110.758Z" fill="#202020"/>
<path fill-rule="evenodd" clip-rule="evenodd" d="M1124.34 110.758C1126.42 110.758 1128.12 109.195 1128.12 107.266C1128.12 105.337 1126.42 103.773 1124.34 103.773C1122.25 103.773 1120.55 105.337 1120.55 107.266C1120.55 109.195 1122.25 110.758 1124.34 110.758Z" fill="#202020"/>
<path fill-rule="evenodd" clip-rule="evenodd" d="M1086.53 110.758C1088.62 110.758 1090.31 109.195 1090.31 107.266C1090.31 105.337 1088.62 103.773 1086.53 103.773C1084.44 103.773 1082.75 105.337 1082.75 107.266C1082.75 109.195 1084.44 110.758 1086.53 110.758Z" fill="#202020"/>
<path fill-rule="evenodd" clip-rule="evenodd" d="M1048.73 110.758C1050.81 110.758 1052.51 109.195 1052.51 107.266C1052.51 105.337 1050.81 103.773 1048.73 103.773C1046.64 103.773 1044.95 105.337 1044.95 107.266C1044.95 109.195 1046.64 110.758 1048.73 110.758Z" fill="#202020"/>
<path fill-rule="evenodd" clip-rule="evenodd" d="M1010.92 110.758C1013.01 110.758 1014.7 109.195 1014.7 107.266C1014.7 105.337 1013.01 103.773 1010.92 103.773C1008.84 103.773 1007.14 105.337 1007.14 107.266C1007.14 109.195 1008.84 110.758 1010.92 110.758Z" fill="#202020"/>
<path fill-rule="evenodd" clip-rule="evenodd" d="M973.118 110.758C975.206 110.758 976.899 109.195 976.899 107.266C976.899 105.337 975.206 103.773 973.118 103.773C971.03 103.773 969.338 105.337 969.338 107.266C969.338 109.195 971.03 110.758 973.118 110.758Z" fill="#202020"/>
<path fill-rule="evenodd" clip-rule="evenodd" d="M935.314 110.758C937.401 110.758 939.094 109.195 939.094 107.266C939.094 105.337 937.401 103.773 935.314 103.773C933.226 103.773 931.533 105.337 931.533 107.266C931.533 109.195 933.226 110.758 935.314 110.758Z" fill="#202020"/>
<path fill-rule="evenodd" clip-rule="evenodd" d="M897.511 110.758C899.599 110.758 901.291 109.195 901.291 107.266C901.291 105.337 899.599 103.773 897.511 103.773C895.423 103.773 893.73 105.337 893.73 107.266C893.73 109.195 895.423 110.758 897.511 110.758Z" fill="#202020"/>
<path fill-rule="evenodd" clip-rule="evenodd" d="M859.706 110.758C861.794 110.758 863.487 109.195 863.487 107.266C863.487 105.337 861.794 103.773 859.706 103.773C857.618 103.773 855.926 105.337 855.926 107.266C855.926 109.195 857.618 110.758 859.706 110.758Z" fill="#202020"/>
<path fill-rule="evenodd" clip-rule="evenodd" d="M821.901 110.758C823.989 110.758 825.682 109.195 825.682 107.266C825.682 105.337 823.989 103.773 821.901 103.773C819.814 103.773 818.121 105.337 818.121 107.266C818.121 109.195 819.814 110.758 821.901 110.758Z" fill="#202020"/>
<path fill-rule="evenodd" clip-rule="evenodd" d="M784.099 110.758C786.187 110.758 787.879 109.195 787.879 107.266C787.879 105.337 786.187 103.773 784.099 103.773C782.011 103.773 780.318 105.337 780.318 107.266C780.318 109.195 782.011 110.758 784.099 110.758Z" fill="#202020"/>
<path fill-rule="evenodd" clip-rule="evenodd" d="M746.294 110.758C748.382 110.758 750.074 109.195 750.074 107.266C750.074 105.337 748.382 103.773 746.294 103.773C744.206 103.773 742.514 105.337 742.514 107.266C742.514 109.195 744.206 110.758 746.294 110.758Z" fill="#202020"/>
<path fill-rule="evenodd" clip-rule="evenodd" d="M708.489 110.758C710.577 110.758 712.27 109.195 712.27 107.266C712.27 105.337 710.577 103.773 708.489 103.773C706.402 103.773 704.709 105.337 704.709 107.266C704.709 109.195 706.402 110.758 708.489 110.758Z" fill="#202020"/>
<path fill-rule="evenodd" clip-rule="evenodd" d="M670.687 110.758C672.775 110.758 674.467 109.195 674.467 107.266C674.467 105.337 672.775 103.773 670.687 103.773C668.599 103.773 666.906 105.337 666.906 107.266C666.906 109.195 668.599 110.758 670.687 110.758Z" fill="#202020"/>
<path fill-rule="evenodd" clip-rule="evenodd" d="M632.882 110.758C634.97 110.758 636.662 109.195 636.662 107.266C636.662 105.337 634.97 103.773 632.882 103.773C630.794 103.773 629.102 105.337 629.102 107.266C629.102 109.195 630.794 110.758 632.882 110.758Z" fill="#202020"/>
<path fill-rule="evenodd" clip-rule="evenodd" d="M595.077 110.758C597.165 110.758 598.858 109.195 598.858 107.266C598.858 105.337 597.165 103.773 595.077 103.773C592.989 103.773 591.297 105.337 591.297 107.266C591.297 109.195 592.989 110.758 595.077 110.758Z" fill="#202020"/>
<path fill-rule="evenodd" clip-rule="evenodd" d="M557.275 110.758C559.362 110.758 561.055 109.195 561.055 107.266C561.055 105.337 559.362 103.773 557.275 103.773C555.187 103.773 553.494 105.337 553.494 107.266C553.494 109.195 555.187 110.758 557.275 110.758Z" fill="#202020"/>
<path fill-rule="evenodd" clip-rule="evenodd" d="M519.47 110.758C521.558 110.758 523.25 109.195 523.25 107.266C523.25 105.337 521.558 103.773 519.47 103.773C517.382 103.773 515.689 105.337 515.689 107.266C515.689 109.195 517.382 110.758 519.47 110.758Z" fill="#202020"/>
<path fill-rule="evenodd" clip-rule="evenodd" d="M481.665 110.758C483.753 110.758 485.446 109.195 485.446 107.266C485.446 105.337 483.753 103.773 481.665 103.773C479.577 103.773 477.885 105.337 477.885 107.266C477.885 109.195 479.577 110.758 481.665 110.758Z" fill="#202020"/>
<path fill-rule="evenodd" clip-rule="evenodd" d="M443.862 110.758C445.95 110.758 447.643 109.195 447.643 107.266C447.643 105.337 445.95 103.773 443.862 103.773C441.775 103.773 440.082 105.337 440.082 107.266C440.082 109.195 441.775 110.758 443.862 110.758Z" fill="#202020"/>
<path fill-rule="evenodd" clip-rule="evenodd" d="M1162.14 75.8344C1164.23 75.8344 1165.92 74.2708 1165.92 72.342C1165.92 70.4132 1164.23 68.8496 1162.14 68.8496C1160.05 68.8496 1158.36 70.4132 1158.36 72.342C1158.36 74.2708 1160.05 75.8344 1162.14 75.8344Z" fill="#202020"/>
<path fill-rule="evenodd" clip-rule="evenodd" d="M1124.34 75.8344C1126.42 75.8344 1128.12 74.2708 1128.12 72.342C1128.12 70.4132 1126.42 68.8496 1124.34 68.8496C1122.25 68.8496 1120.55 70.4132 1120.55 72.342C1120.55 74.2708 1122.25 75.8344 1124.34 75.8344Z" fill="#202020"/>
<path fill-rule="evenodd" clip-rule="evenodd" d="M1086.53 75.8344C1088.62 75.8344 1090.31 74.2708 1090.31 72.342C1090.31 70.4132 1088.62 68.8496 1086.53 68.8496C1084.44 68.8496 1082.75 70.4132 1082.75 72.342C1082.75 74.2708 1084.44 75.8344 1086.53 75.8344Z" fill="#202020"/>
<path fill-rule="evenodd" clip-rule="evenodd" d="M1048.73 75.8344C1050.81 75.8344 1052.51 74.2708 1052.51 72.342C1052.51 70.4132 1050.81 68.8496 1048.73 68.8496C1046.64 68.8496 1044.95 70.4132 1044.95 72.342C1044.95 74.2708 1046.64 75.8344 1048.73 75.8344Z" fill="#202020"/>
<path fill-rule="evenodd" clip-rule="evenodd" d="M1010.92 75.8344C1013.01 75.8344 1014.7 74.2708 1014.7 72.342C1014.7 70.4132 1013.01 68.8496 1010.92 68.8496C1008.84 68.8496 1007.14 70.4132 1007.14 72.342C1007.14 74.2708 1008.84 75.8344 1010.92 75.8344Z" fill="#202020"/>
<path fill-rule="evenodd" clip-rule="evenodd" d="M973.118 75.8344C975.206 75.8344 976.899 74.2708 976.899 72.342C976.899 70.4132 975.206 68.8496 973.118 68.8496C971.03 68.8496 969.338 70.4132 969.338 72.342C969.338 74.2708 971.03 75.8344 973.118 75.8344Z" fill="#202020"/>
<path fill-rule="evenodd" clip-rule="evenodd" d="M935.314 75.8344C937.401 75.8344 939.094 74.2708 939.094 72.342C939.094 70.4132 937.401 68.8496 935.314 68.8496C933.226 68.8496 931.533 70.4132 931.533 72.342C931.533 74.2708 933.226 75.8344 935.314 75.8344Z" fill="#202020"/>
<path fill-rule="evenodd" clip-rule="evenodd" d="M897.511 75.8344C899.599 75.8344 901.291 74.2708 901.291 72.342C901.291 70.4132 899.599 68.8496 897.511 68.8496C895.423 68.8496 893.73 70.4132 893.73 72.342C893.73 74.2708 895.423 75.8344 897.511 75.8344Z" fill="#202020"/>
<path fill-rule="evenodd" clip-rule="evenodd" d="M859.706 75.8344C861.794 75.8344 863.487 74.2708 863.487 72.342C863.487 70.4132 861.794 68.8496 859.706 68.8496C857.618 68.8496 855.926 70.4132 855.926 72.342C855.926 74.2708 857.618 75.8344 859.706 75.8344Z" fill="#202020"/>
<path fill-rule="evenodd" clip-rule="evenodd" d="M821.901 75.8344C823.989 75.8344 825.682 74.2708 825.682 72.342C825.682 70.4132 823.989 68.8496 821.901 68.8496C819.814 68.8496 818.121 70.4132 818.121 72.342C818.121 74.2708 819.814 75.8344 821.901 75.8344Z" fill="#202020"/>
<path fill-rule="evenodd" clip-rule="evenodd" d="M784.099 75.8344C786.187 75.8344 787.879 74.2708 787.879 72.342C787.879 70.4132 786.187 68.8496 784.099 68.8496C782.011 68.8496 780.318 70.4132 780.318 72.342C780.318 74.2708 782.011 75.8344 784.099 75.8344Z" fill="#202020"/>
<path fill-rule="evenodd" clip-rule="evenodd" d="M746.294 75.8344C748.382 75.8344 750.074 74.2708 750.074 72.342C750.074 70.4132 748.382 68.8496 746.294 68.8496C744.206 68.8496 742.514 70.4132 742.514 72.342C742.514 74.2708 744.206 75.8344 746.294 75.8344Z" fill="#202020"/>
<path fill-rule="evenodd" clip-rule="evenodd" d="M708.489 75.8344C710.577 75.8344 712.27 74.2708 712.27 72.342C712.27 70.4132 710.577 68.8496 708.489 68.8496C706.402 68.8496 704.709 70.4132 704.709 72.342C704.709 74.2708 706.402 75.8344 708.489 75.8344Z" fill="#202020"/>
<path fill-rule="evenodd" clip-rule="evenodd" d="M670.687 75.8344C672.775 75.8344 674.467 74.2708 674.467 72.342C674.467 70.4132 672.775 68.8496 670.687 68.8496C668.599 68.8496 666.906 70.4132 666.906 72.342C666.906 74.2708 668.599 75.8344 670.687 75.8344Z" fill="#202020"/>
<path fill-rule="evenodd" clip-rule="evenodd" d="M632.882 75.8344C634.97 75.8344 636.662 74.2708 636.662 72.342C636.662 70.4132 634.97 68.8496 632.882 68.8496C630.794 68.8496 629.102 70.4132 629.102 72.342C629.102 74.2708 630.794 75.8344 632.882 75.8344Z" fill="#202020"/>
<path fill-rule="evenodd" clip-rule="evenodd" d="M595.077 75.8344C597.165 75.8344 598.858 74.2708 598.858 72.342C598.858 70.4132 597.165 68.8496 595.077 68.8496C592.989 68.8496 591.297 70.4132 591.297 72.342C591.297 74.2708 592.989 75.8344 595.077 75.8344Z" fill="#202020"/>
<path fill-rule="evenodd" clip-rule="evenodd" d="M557.275 75.8344C559.362 75.8344 561.055 74.2708 561.055 72.342C561.055 70.4132 559.362 68.8496 557.275 68.8496C555.187 68.8496 553.494 70.4132 553.494 72.342C553.494 74.2708 555.187 75.8344 557.275 75.8344Z" fill="#202020"/>
<path fill-rule="evenodd" clip-rule="evenodd" d="M519.47 75.8344C521.558 75.8344 523.25 74.2708 523.25 72.342C523.25 70.4132 521.558 68.8496 519.47 68.8496C517.382 68.8496 515.689 70.4132 515.689 72.342C515.689 74.2708 517.382 75.8344 519.47 75.8344Z" fill="#202020"/>
<path fill-rule="evenodd" clip-rule="evenodd" d="M481.665 75.8344C483.753 75.8344 485.446 74.2708 485.446 72.342C485.446 70.4132 483.753 68.8496 481.665 68.8496C479.577 68.8496 477.885 70.4132 477.885 72.342C477.885 74.2708 479.577 75.8344 481.665 75.8344Z" fill="#202020"/>
<path fill-rule="evenodd" clip-rule="evenodd" d="M443.862 75.8344C445.95 75.8344 447.643 74.2708 447.643 72.342C447.643 70.4132 445.95 68.8496 443.862 68.8496C441.775 68.8496 440.082 70.4132 440.082 72.342C440.082 74.2708 441.775 75.8344 443.862 75.8344Z" fill="#202020"/>
<path fill-rule="evenodd" clip-rule="evenodd" d="M1162.14 40.9108C1164.23 40.9108 1165.92 39.3472 1165.92 37.4184C1165.92 35.4896 1164.23 33.926 1162.14 33.926C1160.05 33.926 1158.36 35.4896 1158.36 37.4184C1158.36 39.3472 1160.05 40.9108 1162.14 40.9108Z" fill="#202020"/>
<path fill-rule="evenodd" clip-rule="evenodd" d="M1124.34 40.9108C1126.42 40.9108 1128.12 39.3472 1128.12 37.4184C1128.12 35.4896 1126.42 33.926 1124.34 33.926C1122.25 33.926 1120.55 35.4896 1120.55 37.4184C1120.55 39.3472 1122.25 40.9108 1124.34 40.9108Z" fill="#202020"/>
<path fill-rule="evenodd" clip-rule="evenodd" d="M1086.53 40.9108C1088.62 40.9108 1090.31 39.3472 1090.31 37.4184C1090.31 35.4896 1088.62 33.926 1086.53 33.926C1084.44 33.926 1082.75 35.4896 1082.75 37.4184C1082.75 39.3472 1084.44 40.9108 1086.53 40.9108Z" fill="#202020"/>
<path fill-rule="evenodd" clip-rule="evenodd" d="M1048.73 40.9108C1050.81 40.9108 1052.51 39.3472 1052.51 37.4184C1052.51 35.4896 1050.81 33.926 1048.73 33.926C1046.64 33.926 1044.95 35.4896 1044.95 37.4184C1044.95 39.3472 1046.64 40.9108 1048.73 40.9108Z" fill="#202020"/>
<path fill-rule="evenodd" clip-rule="evenodd" d="M1010.92 40.9108C1013.01 40.9108 1014.7 39.3472 1014.7 37.4184C1014.7 35.4896 1013.01 33.926 1010.92 33.926C1008.84 33.926 1007.14 35.4896 1007.14 37.4184C1007.14 39.3472 1008.84 40.9108 1010.92 40.9108Z" fill="#202020"/>
<path fill-rule="evenodd" clip-rule="evenodd" d="M973.118 40.9108C975.206 40.9108 976.899 39.3472 976.899 37.4184C976.899 35.4896 975.206 33.926 973.118 33.926C971.03 33.926 969.338 35.4896 969.338 37.4184C969.338 39.3472 971.03 40.9108 973.118 40.9108Z" fill="#202020"/>
<path fill-rule="evenodd" clip-rule="evenodd" d="M935.314 40.9108C937.401 40.9108 939.094 39.3472 939.094 37.4184C939.094 35.4896 937.401 33.926 935.314 33.926C933.226 33.926 931.533 35.4896 931.533 37.4184C931.533 39.3472 933.226 40.9108 935.314 40.9108Z" fill="#202020"/>
<path fill-rule="evenodd" clip-rule="evenodd" d="M897.511 40.9108C899.599 40.9108 901.291 39.3472 901.291 37.4184C901.291 35.4896 899.599 33.926 897.511 33.926C895.423 33.926 893.73 35.4896 893.73 37.4184C893.73 39.3472 895.423 40.9108 897.511 40.9108Z" fill="#202020"/>
<path fill-rule="evenodd" clip-rule="evenodd" d="M859.706 40.9108C861.794 40.9108 863.487 39.3472 863.487 37.4184C863.487 35.4896 861.794 33.926 859.706 33.926C857.618 33.926 855.926 35.4896 855.926 37.4184C855.926 39.3472 857.618 40.9108 859.706 40.9108Z" fill="#202020"/>
<path fill-rule="evenodd" clip-rule="evenodd" d="M821.901 40.9108C823.989 40.9108 825.682 39.3472 825.682 37.4184C825.682 35.4896 823.989 33.926 821.901 33.926C819.814 33.926 818.121 35.4896 818.121 37.4184C818.121 39.3472 819.814 40.9108 821.901 40.9108Z" fill="#202020"/>
<path fill-rule="evenodd" clip-rule="evenodd" d="M784.099 40.9108C786.187 40.9108 787.879 39.3472 787.879 37.4184C787.879 35.4896 786.187 33.926 784.099 33.926C782.011 33.926 780.318 35.4896 780.318 37.4184C780.318 39.3472 782.011 40.9108 784.099 40.9108Z" fill="#202020"/>
<path fill-rule="evenodd" clip-rule="evenodd" d="M746.294 40.9108C748.382 40.9108 750.074 39.3472 750.074 37.4184C750.074 35.4896 748.382 33.926 746.294 33.926C744.206 33.926 742.514 35.4896 742.514 37.4184C742.514 39.3472 744.206 40.9108 746.294 40.9108Z" fill="#202020"/>
<path fill-rule="evenodd" clip-rule="evenodd" d="M708.489 40.9108C710.577 40.9108 712.27 39.3472 712.27 37.4184C712.27 35.4896 710.577 33.926 708.489 33.926C706.402 33.926 704.709 35.4896 704.709 37.4184C704.709 39.3472 706.402 40.9108 708.489 40.9108Z" fill="#202020"/>
<path fill-rule="evenodd" clip-rule="evenodd" d="M670.687 40.9108C672.775 40.9108 674.467 39.3472 674.467 37.4184C674.467 35.4896 672.775 33.926 670.687 33.926C668.599 33.926 666.906 35.4896 666.906 37.4184C666.906 39.3472 668.599 40.9108 670.687 40.9108Z" fill="#202020"/>
<path fill-rule="evenodd" clip-rule="evenodd" d="M632.882 40.9108C634.97 40.9108 636.662 39.3472 636.662 37.4184C636.662 35.4896 634.97 33.926 632.882 33.926C630.794 33.926 629.102 35.4896 629.102 37.4184C629.102 39.3472 630.794 40.9108 632.882 40.9108Z" fill="#202020"/>
<path fill-rule="evenodd" clip-rule="evenodd" d="M595.077 40.9108C597.165 40.9108 598.858 39.3472 598.858 37.4184C598.858 35.4896 597.165 33.926 595.077 33.926C592.989 33.926 591.297 35.4896 591.297 37.4184C591.297 39.3472 592.989 40.9108 595.077 40.9108Z" fill="#202020"/>
<path fill-rule="evenodd" clip-rule="evenodd" d="M557.275 40.9108C559.362 40.9108 561.055 39.3472 561.055 37.4184C561.055 35.4896 559.362 33.926 557.275 33.926C555.187 33.926 553.494 35.4896 553.494 37.4184C553.494 39.3472 555.187 40.9108 557.275 40.9108Z" fill="#202020"/>
<path fill-rule="evenodd" clip-rule="evenodd" d="M519.47 40.9108C521.558 40.9108 523.25 39.3472 523.25 37.4184C523.25 35.4896 521.558 33.926 519.47 33.926C517.382 33.926 515.689 35.4896 515.689 37.4184C515.689 39.3472 517.382 40.9108 519.47 40.9108Z" fill="#202020"/>
<path fill-rule="evenodd" clip-rule="evenodd" d="M481.665 40.9108C483.753 40.9108 485.446 39.3472 485.446 37.4184C485.446 35.4896 483.753 33.926 481.665 33.926C479.577 33.926 477.885 35.4896 477.885 37.4184C477.885 39.3472 479.577 40.9108 481.665 40.9108Z" fill="#202020"/>
<path fill-rule="evenodd" clip-rule="evenodd" d="M443.862 40.9108C445.95 40.9108 447.643 39.3472 447.643 37.4184C447.643 35.4896 445.95 33.926 443.862 33.926C441.775 33.926 440.082 35.4896 440.082 37.4184C440.082 39.3472 441.775 40.9108 443.862 40.9108Z" fill="#202020"/>
<path fill-rule="evenodd" clip-rule="evenodd" d="M1162.14 5.98695C1164.23 5.98695 1165.92 4.42336 1165.92 2.49457C1165.92 0.565787 1164.23 -0.997803 1162.14 -0.997803C1160.05 -0.997803 1158.36 0.565787 1158.36 2.49457C1158.36 4.42336 1160.05 5.98695 1162.14 5.98695Z" fill="#202020"/>
<path fill-rule="evenodd" clip-rule="evenodd" d="M1124.34 5.98695C1126.42 5.98695 1128.12 4.42336 1128.12 2.49457C1128.12 0.565787 1126.42 -0.997803 1124.34 -0.997803C1122.25 -0.997803 1120.55 0.565787 1120.55 2.49457C1120.55 4.42336 1122.25 5.98695 1124.34 5.98695Z" fill="#202020"/>
<path fill-rule="evenodd" clip-rule="evenodd" d="M1086.53 5.98695C1088.62 5.98695 1090.31 4.42336 1090.31 2.49457C1090.31 0.565787 1088.62 -0.997803 1086.53 -0.997803C1084.44 -0.997803 1082.75 0.565787 1082.75 2.49457C1082.75 4.42336 1084.44 5.98695 1086.53 5.98695Z" fill="#202020"/>
<path fill-rule="evenodd" clip-rule="evenodd" d="M1048.73 5.98695C1050.81 5.98695 1052.51 4.42336 1052.51 2.49457C1052.51 0.565787 1050.81 -0.997803 1048.73 -0.997803C1046.64 -0.997803 1044.95 0.565787 1044.95 2.49457C1044.95 4.42336 1046.64 5.98695 1048.73 5.98695Z" fill="#202020"/>
<path fill-rule="evenodd" clip-rule="evenodd" d="M1010.92 5.98695C1013.01 5.98695 1014.7 4.42336 1014.7 2.49457C1014.7 0.565787 1013.01 -0.997803 1010.92 -0.997803C1008.84 -0.997803 1007.14 0.565787 1007.14 2.49457C1007.14 4.42336 1008.84 5.98695 1010.92 5.98695Z" fill="#202020"/>
<path fill-rule="evenodd" clip-rule="evenodd" d="M973.118 5.98695C975.206 5.98695 976.899 4.42336 976.899 2.49457C976.899 0.565787 975.206 -0.997803 973.118 -0.997803C971.03 -0.997803 969.338 0.565787 969.338 2.49457C969.338 4.42336 971.03 5.98695 973.118 5.98695Z" fill="#202020"/>
<path fill-rule="evenodd" clip-rule="evenodd" d="M935.314 5.98695C937.401 5.98695 939.094 4.42336 939.094 2.49457C939.094 0.565787 937.401 -0.997803 935.314 -0.997803C933.226 -0.997803 931.533 0.565787 931.533 2.49457C931.533 4.42336 933.226 5.98695 935.314 5.98695Z" fill="#202020"/>
<path fill-rule="evenodd" clip-rule="evenodd" d="M897.511 5.98695C899.599 5.98695 901.291 4.42336 901.291 2.49457C901.291 0.565787 899.599 -0.997803 897.511 -0.997803C895.423 -0.997803 893.73 0.565787 893.73 2.49457C893.73 4.42336 895.423 5.98695 897.511 5.98695Z" fill="#202020"/>
<path fill-rule="evenodd" clip-rule="evenodd" d="M859.706 5.98695C861.794 5.98695 863.487 4.42336 863.487 2.49457C863.487 0.565787 861.794 -0.997803 859.706 -0.997803C857.618 -0.997803 855.926 0.565787 855.926 2.49457C855.926 4.42336 857.618 5.98695 859.706 5.98695Z" fill="#202020"/>
<path fill-rule="evenodd" clip-rule="evenodd" d="M821.901 5.98695C823.989 5.98695 825.682 4.42336 825.682 2.49457C825.682 0.565787 823.989 -0.997803 821.901 -0.997803C819.814 -0.997803 818.121 0.565787 818.121 2.49457C818.121 4.42336 819.814 5.98695 821.901 5.98695Z" fill="#202020"/>
<path fill-rule="evenodd" clip-rule="evenodd" d="M784.099 5.98695C786.187 5.98695 787.879 4.42336 787.879 2.49457C787.879 0.565787 786.187 -0.997803 784.099 -0.997803C782.011 -0.997803 780.318 0.565787 780.318 2.49457C780.318 4.42336 782.011 5.98695 784.099 5.98695Z" fill="#202020"/>
<path fill-rule="evenodd" clip-rule="evenodd" d="M746.294 5.98695C748.382 5.98695 750.074 4.42336 750.074 2.49457C750.074 0.565787 748.382 -0.997803 746.294 -0.997803C744.206 -0.997803 742.514 0.565787 742.514 2.49457C742.514 4.42336 744.206 5.98695 746.294 5.98695Z" fill="#202020"/>
<path fill-rule="evenodd" clip-rule="evenodd" d="M708.489 5.98695C710.577 5.98695 712.27 4.42336 712.27 2.49457C712.27 0.565787 710.577 -0.997803 708.489 -0.997803C706.402 -0.997803 704.709 0.565787 704.709 2.49457C704.709 4.42336 706.402 5.98695 708.489 5.98695Z" fill="#202020"/>
<path fill-rule="evenodd" clip-rule="evenodd" d="M670.687 5.98695C672.775 5.98695 674.467 4.42336 674.467 2.49457C674.467 0.565787 672.775 -0.997803 670.687 -0.997803C668.599 -0.997803 666.906 0.565787 666.906 2.49457C666.906 4.42336 668.599 5.98695 670.687 5.98695Z" fill="#202020"/>
<path fill-rule="evenodd" clip-rule="evenodd" d="M632.882 5.98695C634.97 5.98695 636.662 4.42336 636.662 2.49457C636.662 0.565787 634.97 -0.997803 632.882 -0.997803C630.794 -0.997803 629.102 0.565787 629.102 2.49457C629.102 4.42336 630.794 5.98695 632.882 5.98695Z" fill="#202020"/>
<path fill-rule="evenodd" clip-rule="evenodd" d="M595.077 5.98695C597.165 5.98695 598.858 4.42336 598.858 2.49457C598.858 0.565787 597.165 -0.997803 595.077 -0.997803C592.989 -0.997803 591.297 0.565787 591.297 2.49457C591.297 4.42336 592.989 5.98695 595.077 5.98695Z" fill="#202020"/>
<path fill-rule="evenodd" clip-rule="evenodd" d="M557.275 5.98695C559.362 5.98695 561.055 4.42336 561.055 2.49457C561.055 0.565787 559.362 -0.997803 557.275 -0.997803C555.187 -0.997803 553.494 0.565787 553.494 2.49457C553.494 4.42336 555.187 5.98695 557.275 5.98695Z" fill="#202020"/>
<path fill-rule="evenodd" clip-rule="evenodd" d="M519.47 5.98695C521.558 5.98695 523.25 4.42336 523.25 2.49457C523.25 0.565787 521.558 -0.997803 519.47 -0.997803C517.382 -0.997803 515.689 0.565787 515.689 2.49457C515.689 4.42336 517.382 5.98695 519.47 5.98695Z" fill="#202020"/>
<path fill-rule="evenodd" clip-rule="evenodd" d="M481.665 5.98695C483.753 5.98695 485.446 4.42336 485.446 2.49457C485.446 0.565787 483.753 -0.997803 481.665 -0.997803C479.577 -0.997803 477.885 0.565787 477.885 2.49457C477.885 4.42336 479.577 5.98695 481.665 5.98695Z" fill="#202020"/>
<path fill-rule="evenodd" clip-rule="evenodd" d="M443.862 5.98695C445.95 5.98695 447.643 4.42336 447.643 2.49457C447.643 0.565787 445.95 -0.997803 443.862 -0.997803C441.775 -0.997803 440.082 0.565787 440.082 2.49457C440.082 4.42336 441.775 5.98695 443.862 5.98695Z" fill="#202020"/>
<path fill-rule="evenodd" clip-rule="evenodd" d="M1918.22 215.529C1920.31 215.529 1922 213.966 1922 212.037C1922 210.108 1920.31 208.545 1918.22 208.545C1916.13 208.545 1914.44 210.108 1914.44 212.037C1914.44 213.966 1916.13 215.529 1918.22 215.529Z" fill="#202020"/>
<path fill-rule="evenodd" clip-rule="evenodd" d="M1880.42 215.529C1882.5 215.529 1884.2 213.966 1884.2 212.037C1884.2 210.108 1882.5 208.545 1880.42 208.545C1878.33 208.545 1876.63 210.108 1876.63 212.037C1876.63 213.966 1878.33 215.529 1880.42 215.529Z" fill="#202020"/>
<path fill-rule="evenodd" clip-rule="evenodd" d="M1842.61 215.529C1844.7 215.529 1846.39 213.966 1846.39 212.037C1846.39 210.108 1844.7 208.545 1842.61 208.545C1840.52 208.545 1838.83 210.108 1838.83 212.037C1838.83 213.966 1840.52 215.529 1842.61 215.529Z" fill="#202020"/>
<path fill-rule="evenodd" clip-rule="evenodd" d="M1804.81 215.529C1806.9 215.529 1808.59 213.966 1808.59 212.037C1808.59 210.108 1806.9 208.545 1804.81 208.545C1802.72 208.545 1801.03 210.108 1801.03 212.037C1801.03 213.966 1802.72 215.529 1804.81 215.529Z" fill="#202020"/>
<path fill-rule="evenodd" clip-rule="evenodd" d="M1767 215.529C1769.09 215.529 1770.78 213.966 1770.78 212.037C1770.78 210.108 1769.09 208.545 1767 208.545C1764.92 208.545 1763.22 210.108 1763.22 212.037C1763.22 213.966 1764.92 215.529 1767 215.529Z" fill="#202020"/>
<path fill-rule="evenodd" clip-rule="evenodd" d="M1729.2 215.529C1731.29 215.529 1732.98 213.966 1732.98 212.037C1732.98 210.108 1731.29 208.545 1729.2 208.545C1727.11 208.545 1725.42 210.108 1725.42 212.037C1725.42 213.966 1727.11 215.529 1729.2 215.529Z" fill="#202020"/>
<path fill-rule="evenodd" clip-rule="evenodd" d="M1691.4 215.529C1693.48 215.529 1695.18 213.966 1695.18 212.037C1695.18 210.108 1693.48 208.545 1691.4 208.545C1689.31 208.545 1687.62 210.108 1687.62 212.037C1687.62 213.966 1689.31 215.529 1691.4 215.529Z" fill="#202020"/>
<path fill-rule="evenodd" clip-rule="evenodd" d="M1653.59 215.529C1655.68 215.529 1657.37 213.966 1657.37 212.037C1657.37 210.108 1655.68 208.545 1653.59 208.545C1651.5 208.545 1649.81 210.108 1649.81 212.037C1649.81 213.966 1651.5 215.529 1653.59 215.529Z" fill="#202020"/>
<path fill-rule="evenodd" clip-rule="evenodd" d="M1615.79 215.529C1617.87 215.529 1619.57 213.966 1619.57 212.037C1619.57 210.108 1617.87 208.545 1615.79 208.545C1613.7 208.545 1612.01 210.108 1612.01 212.037C1612.01 213.966 1613.7 215.529 1615.79 215.529Z" fill="#202020"/>
<path fill-rule="evenodd" clip-rule="evenodd" d="M1577.98 215.529C1580.07 215.529 1581.76 213.966 1581.76 212.037C1581.76 210.108 1580.07 208.545 1577.98 208.545C1575.9 208.545 1574.2 210.108 1574.2 212.037C1574.2 213.966 1575.9 215.529 1577.98 215.529Z" fill="#202020"/>
<path fill-rule="evenodd" clip-rule="evenodd" d="M1540.18 215.529C1542.27 215.529 1543.96 213.966 1543.96 212.037C1543.96 210.108 1542.27 208.545 1540.18 208.545C1538.09 208.545 1536.4 210.108 1536.4 212.037C1536.4 213.966 1538.09 215.529 1540.18 215.529Z" fill="#202020"/>
<path fill-rule="evenodd" clip-rule="evenodd" d="M1502.37 215.529C1504.46 215.529 1506.15 213.966 1506.15 212.037C1506.15 210.108 1504.46 208.545 1502.37 208.545C1500.29 208.545 1498.59 210.108 1498.59 212.037C1498.59 213.966 1500.29 215.529 1502.37 215.529Z" fill="#202020"/>
<path fill-rule="evenodd" clip-rule="evenodd" d="M1464.57 215.529C1466.66 215.529 1468.35 213.966 1468.35 212.037C1468.35 210.108 1466.66 208.545 1464.57 208.545C1462.48 208.545 1460.79 210.108 1460.79 212.037C1460.79 213.966 1462.48 215.529 1464.57 215.529Z" fill="#202020"/>
<path fill-rule="evenodd" clip-rule="evenodd" d="M1426.77 215.529C1428.85 215.529 1430.55 213.966 1430.55 212.037C1430.55 210.108 1428.85 208.545 1426.77 208.545C1424.68 208.545 1422.99 210.108 1422.99 212.037C1422.99 213.966 1424.68 215.529 1426.77 215.529Z" fill="#202020"/>
<path fill-rule="evenodd" clip-rule="evenodd" d="M1388.96 215.529C1391.05 215.529 1392.74 213.966 1392.74 212.037C1392.74 210.108 1391.05 208.545 1388.96 208.545C1386.87 208.545 1385.18 210.108 1385.18 212.037C1385.18 213.966 1386.87 215.529 1388.96 215.529Z" fill="#202020"/>
<path fill-rule="evenodd" clip-rule="evenodd" d="M1351.16 215.529C1353.25 215.529 1354.94 213.966 1354.94 212.037C1354.94 210.108 1353.25 208.545 1351.16 208.545C1349.07 208.545 1347.38 210.108 1347.38 212.037C1347.38 213.966 1349.07 215.529 1351.16 215.529Z" fill="#202020"/>
<path fill-rule="evenodd" clip-rule="evenodd" d="M1313.35 215.529C1315.44 215.529 1317.14 213.966 1317.14 212.037C1317.14 210.108 1315.44 208.545 1313.35 208.545C1311.27 208.545 1309.57 210.108 1309.57 212.037C1309.57 213.966 1311.27 215.529 1313.35 215.529Z" fill="#202020"/>
<path fill-rule="evenodd" clip-rule="evenodd" d="M1275.55 215.529C1277.64 215.529 1279.33 213.966 1279.33 212.037C1279.33 210.108 1277.64 208.545 1275.55 208.545C1273.46 208.545 1271.77 210.108 1271.77 212.037C1271.77 213.966 1273.46 215.529 1275.55 215.529Z" fill="#202020"/>
<path fill-rule="evenodd" clip-rule="evenodd" d="M1237.75 215.529C1239.84 215.529 1241.53 213.966 1241.53 212.037C1241.53 210.108 1239.84 208.545 1237.75 208.545C1235.66 208.545 1233.97 210.108 1233.97 212.037C1233.97 213.966 1235.66 215.529 1237.75 215.529Z" fill="#202020"/>
<path fill-rule="evenodd" clip-rule="evenodd" d="M1199.94 215.529C1202.03 215.529 1203.72 213.966 1203.72 212.037C1203.72 210.108 1202.03 208.545 1199.94 208.545C1197.85 208.545 1196.16 210.108 1196.16 212.037C1196.16 213.966 1197.85 215.529 1199.94 215.529Z" fill="#202020"/>
<path fill-rule="evenodd" clip-rule="evenodd" d="M1918.22 180.606C1920.31 180.606 1922 179.042 1922 177.113C1922 175.184 1920.31 173.621 1918.22 173.621C1916.13 173.621 1914.44 175.184 1914.44 177.113C1914.44 179.042 1916.13 180.606 1918.22 180.606Z" fill="#202020"/>
<path fill-rule="evenodd" clip-rule="evenodd" d="M1880.42 180.606C1882.5 180.606 1884.2 179.042 1884.2 177.113C1884.2 175.184 1882.5 173.621 1880.42 173.621C1878.33 173.621 1876.63 175.184 1876.63 177.113C1876.63 179.042 1878.33 180.606 1880.42 180.606Z" fill="#202020"/>
<path fill-rule="evenodd" clip-rule="evenodd" d="M1842.61 180.606C1844.7 180.606 1846.39 179.042 1846.39 177.113C1846.39 175.184 1844.7 173.621 1842.61 173.621C1840.52 173.621 1838.83 175.184 1838.83 177.113C1838.83 179.042 1840.52 180.606 1842.61 180.606Z" fill="#202020"/>
<path fill-rule="evenodd" clip-rule="evenodd" d="M1804.81 180.606C1806.9 180.606 1808.59 179.042 1808.59 177.113C1808.59 175.184 1806.9 173.621 1804.81 173.621C1802.72 173.621 1801.03 175.184 1801.03 177.113C1801.03 179.042 1802.72 180.606 1804.81 180.606Z" fill="#202020"/>
<path fill-rule="evenodd" clip-rule="evenodd" d="M1767 180.606C1769.09 180.606 1770.78 179.042 1770.78 177.113C1770.78 175.184 1769.09 173.621 1767 173.621C1764.92 173.621 1763.22 175.184 1763.22 177.113C1763.22 179.042 1764.92 180.606 1767 180.606Z" fill="#202020"/>
<path fill-rule="evenodd" clip-rule="evenodd" d="M1729.2 180.606C1731.29 180.606 1732.98 179.042 1732.98 177.113C1732.98 175.184 1731.29 173.621 1729.2 173.621C1727.11 173.621 1725.42 175.184 1725.42 177.113C1725.42 179.042 1727.11 180.606 1729.2 180.606Z" fill="#202020"/>
<path fill-rule="evenodd" clip-rule="evenodd" d="M1691.4 180.606C1693.48 180.606 1695.18 179.042 1695.18 177.113C1695.18 175.184 1693.48 173.621 1691.4 173.621C1689.31 173.621 1687.62 175.184 1687.62 177.113C1687.62 179.042 1689.31 180.606 1691.4 180.606Z" fill="#202020"/>
<path fill-rule="evenodd" clip-rule="evenodd" d="M1653.59 180.606C1655.68 180.606 1657.37 179.042 1657.37 177.113C1657.37 175.184 1655.68 173.621 1653.59 173.621C1651.5 173.621 1649.81 175.184 1649.81 177.113C1649.81 179.042 1651.5 180.606 1653.59 180.606Z" fill="#202020"/>
<path fill-rule="evenodd" clip-rule="evenodd" d="M1615.79 180.606C1617.87 180.606 1619.57 179.042 1619.57 177.113C1619.57 175.184 1617.87 173.621 1615.79 173.621C1613.7 173.621 1612.01 175.184 1612.01 177.113C1612.01 179.042 1613.7 180.606 1615.79 180.606Z" fill="#202020"/>
<path fill-rule="evenodd" clip-rule="evenodd" d="M1577.98 180.606C1580.07 180.606 1581.76 179.042 1581.76 177.113C1581.76 175.184 1580.07 173.621 1577.98 173.621C1575.9 173.621 1574.2 175.184 1574.2 177.113C1574.2 179.042 1575.9 180.606 1577.98 180.606Z" fill="#202020"/>
<path fill-rule="evenodd" clip-rule="evenodd" d="M1540.18 180.606C1542.27 180.606 1543.96 179.042 1543.96 177.113C1543.96 175.184 1542.27 173.621 1540.18 173.621C1538.09 173.621 1536.4 175.184 1536.4 177.113C1536.4 179.042 1538.09 180.606 1540.18 180.606Z" fill="#202020"/>
<path fill-rule="evenodd" clip-rule="evenodd" d="M1502.37 180.606C1504.46 180.606 1506.15 179.042 1506.15 177.113C1506.15 175.184 1504.46 173.621 1502.37 173.621C1500.29 173.621 1498.59 175.184 1498.59 177.113C1498.59 179.042 1500.29 180.606 1502.37 180.606Z" fill="#202020"/>
<path fill-rule="evenodd" clip-rule="evenodd" d="M1464.57 180.606C1466.66 180.606 1468.35 179.042 1468.35 177.113C1468.35 175.184 1466.66 173.621 1464.57 173.621C1462.48 173.621 1460.79 175.184 1460.79 177.113C1460.79 179.042 1462.48 180.606 1464.57 180.606Z" fill="#202020"/>
<path fill-rule="evenodd" clip-rule="evenodd" d="M1426.77 180.606C1428.85 180.606 1430.55 179.042 1430.55 177.113C1430.55 175.184 1428.85 173.621 1426.77 173.621C1424.68 173.621 1422.99 175.184 1422.99 177.113C1422.99 179.042 1424.68 180.606 1426.77 180.606Z" fill="#202020"/>
<path fill-rule="evenodd" clip-rule="evenodd" d="M1388.96 180.606C1391.05 180.606 1392.74 179.042 1392.74 177.113C1392.74 175.184 1391.05 173.621 1388.96 173.621C1386.87 173.621 1385.18 175.184 1385.18 177.113C1385.18 179.042 1386.87 180.606 1388.96 180.606Z" fill="#202020"/>
<path fill-rule="evenodd" clip-rule="evenodd" d="M1351.16 180.606C1353.25 180.606 1354.94 179.042 1354.94 177.113C1354.94 175.184 1353.25 173.621 1351.16 173.621C1349.07 173.621 1347.38 175.184 1347.38 177.113C1347.38 179.042 1349.07 180.606 1351.16 180.606Z" fill="#202020"/>
<path fill-rule="evenodd" clip-rule="evenodd" d="M1313.35 180.606C1315.44 180.606 1317.14 179.042 1317.14 177.113C1317.14 175.184 1315.44 173.621 1313.35 173.621C1311.27 173.621 1309.57 175.184 1309.57 177.113C1309.57 179.042 1311.27 180.606 1313.35 180.606Z" fill="#202020"/>
<path fill-rule="evenodd" clip-rule="evenodd" d="M1275.55 180.606C1277.64 180.606 1279.33 179.042 1279.33 177.113C1279.33 175.184 1277.64 173.621 1275.55 173.621C1273.46 173.621 1271.77 175.184 1271.77 177.113C1271.77 179.042 1273.46 180.606 1275.55 180.606Z" fill="#202020"/>
<path fill-rule="evenodd" clip-rule="evenodd" d="M1237.75 180.606C1239.84 180.606 1241.53 179.042 1241.53 177.113C1241.53 175.184 1239.84 173.621 1237.75 173.621C1235.66 173.621 1233.97 175.184 1233.97 177.113C1233.97 179.042 1235.66 180.606 1237.75 180.606Z" fill="#202020"/>
<path fill-rule="evenodd" clip-rule="evenodd" d="M1199.94 180.606C1202.03 180.606 1203.72 179.042 1203.72 177.113C1203.72 175.184 1202.03 173.621 1199.94 173.621C1197.85 173.621 1196.16 175.184 1196.16 177.113C1196.16 179.042 1197.85 180.606 1199.94 180.606Z" fill="#202020"/>
<path fill-rule="evenodd" clip-rule="evenodd" d="M1918.22 145.682C1920.31 145.682 1922 144.118 1922 142.19C1922 140.261 1920.31 138.697 1918.22 138.697C1916.13 138.697 1914.44 140.261 1914.44 142.19C1914.44 144.118 1916.13 145.682 1918.22 145.682Z" fill="#202020"/>
<path fill-rule="evenodd" clip-rule="evenodd" d="M1880.42 145.682C1882.5 145.682 1884.2 144.118 1884.2 142.19C1884.2 140.261 1882.5 138.697 1880.42 138.697C1878.33 138.697 1876.63 140.261 1876.63 142.19C1876.63 144.118 1878.33 145.682 1880.42 145.682Z" fill="#202020"/>
<path fill-rule="evenodd" clip-rule="evenodd" d="M1842.61 145.682C1844.7 145.682 1846.39 144.118 1846.39 142.19C1846.39 140.261 1844.7 138.697 1842.61 138.697C1840.52 138.697 1838.83 140.261 1838.83 142.19C1838.83 144.118 1840.52 145.682 1842.61 145.682Z" fill="#202020"/>
<path fill-rule="evenodd" clip-rule="evenodd" d="M1804.81 145.682C1806.9 145.682 1808.59 144.118 1808.59 142.19C1808.59 140.261 1806.9 138.697 1804.81 138.697C1802.72 138.697 1801.03 140.261 1801.03 142.19C1801.03 144.118 1802.72 145.682 1804.81 145.682Z" fill="#202020"/>
<path fill-rule="evenodd" clip-rule="evenodd" d="M1767 145.682C1769.09 145.682 1770.78 144.118 1770.78 142.19C1770.78 140.261 1769.09 138.697 1767 138.697C1764.92 138.697 1763.22 140.261 1763.22 142.19C1763.22 144.118 1764.92 145.682 1767 145.682Z" fill="#202020"/>
<path fill-rule="evenodd" clip-rule="evenodd" d="M1729.2 145.682C1731.29 145.682 1732.98 144.118 1732.98 142.19C1732.98 140.261 1731.29 138.697 1729.2 138.697C1727.11 138.697 1725.42 140.261 1725.42 142.19C1725.42 144.118 1727.11 145.682 1729.2 145.682Z" fill="#202020"/>
<path fill-rule="evenodd" clip-rule="evenodd" d="M1691.4 145.682C1693.48 145.682 1695.18 144.118 1695.18 142.19C1695.18 140.261 1693.48 138.697 1691.4 138.697C1689.31 138.697 1687.62 140.261 1687.62 142.19C1687.62 144.118 1689.31 145.682 1691.4 145.682Z" fill="#202020"/>
<path fill-rule="evenodd" clip-rule="evenodd" d="M1653.59 145.682C1655.68 145.682 1657.37 144.118 1657.37 142.19C1657.37 140.261 1655.68 138.697 1653.59 138.697C1651.5 138.697 1649.81 140.261 1649.81 142.19C1649.81 144.118 1651.5 145.682 1653.59 145.682Z" fill="#202020"/>
<path fill-rule="evenodd" clip-rule="evenodd" d="M1615.79 145.682C1617.87 145.682 1619.57 144.118 1619.57 142.19C1619.57 140.261 1617.87 138.697 1615.79 138.697C1613.7 138.697 1612.01 140.261 1612.01 142.19C1612.01 144.118 1613.7 145.682 1615.79 145.682Z" fill="#202020"/>
<path fill-rule="evenodd" clip-rule="evenodd" d="M1577.98 145.682C1580.07 145.682 1581.76 144.118 1581.76 142.19C1581.76 140.261 1580.07 138.697 1577.98 138.697C1575.9 138.697 1574.2 140.261 1574.2 142.19C1574.2 144.118 1575.9 145.682 1577.98 145.682Z" fill="#202020"/>
<path fill-rule="evenodd" clip-rule="evenodd" d="M1540.18 145.682C1542.27 145.682 1543.96 144.118 1543.96 142.19C1543.96 140.261 1542.27 138.697 1540.18 138.697C1538.09 138.697 1536.4 140.261 1536.4 142.19C1536.4 144.118 1538.09 145.682 1540.18 145.682Z" fill="#202020"/>
<path fill-rule="evenodd" clip-rule="evenodd" d="M1502.37 145.682C1504.46 145.682 1506.15 144.118 1506.15 142.19C1506.15 140.261 1504.46 138.697 1502.37 138.697C1500.29 138.697 1498.59 140.261 1498.59 142.19C1498.59 144.118 1500.29 145.682 1502.37 145.682Z" fill="#202020"/>
<path fill-rule="evenodd" clip-rule="evenodd" d="M1464.57 145.682C1466.66 145.682 1468.35 144.118 1468.35 142.19C1468.35 140.261 1466.66 138.697 1464.57 138.697C1462.48 138.697 1460.79 140.261 1460.79 142.19C1460.79 144.118 1462.48 145.682 1464.57 145.682Z" fill="#202020"/>
<path fill-rule="evenodd" clip-rule="evenodd" d="M1426.77 145.682C1428.85 145.682 1430.55 144.118 1430.55 142.19C1430.55 140.261 1428.85 138.697 1426.77 138.697C1424.68 138.697 1422.99 140.261 1422.99 142.19C1422.99 144.118 1424.68 145.682 1426.77 145.682Z" fill="#202020"/>
<path fill-rule="evenodd" clip-rule="evenodd" d="M1388.96 145.682C1391.05 145.682 1392.74 144.118 1392.74 142.19C1392.74 140.261 1391.05 138.697 1388.96 138.697C1386.87 138.697 1385.18 140.261 1385.18 142.19C1385.18 144.118 1386.87 145.682 1388.96 145.682Z" fill="#202020"/>
<path fill-rule="evenodd" clip-rule="evenodd" d="M1351.16 145.682C1353.25 145.682 1354.94 144.118 1354.94 142.19C1354.94 140.261 1353.25 138.697 1351.16 138.697C1349.07 138.697 1347.38 140.261 1347.38 142.19C1347.38 144.118 1349.07 145.682 1351.16 145.682Z" fill="#202020"/>
<path fill-rule="evenodd" clip-rule="evenodd" d="M1313.35 145.682C1315.44 145.682 1317.14 144.118 1317.14 142.19C1317.14 140.261 1315.44 138.697 1313.35 138.697C1311.27 138.697 1309.57 140.261 1309.57 142.19C1309.57 144.118 1311.27 145.682 1313.35 145.682Z" fill="#202020"/>
<path fill-rule="evenodd" clip-rule="evenodd" d="M1275.55 145.682C1277.64 145.682 1279.33 144.118 1279.33 142.19C1279.33 140.261 1277.64 138.697 1275.55 138.697C1273.46 138.697 1271.77 140.261 1271.77 142.19C1271.77 144.118 1273.46 145.682 1275.55 145.682Z" fill="#202020"/>
<path fill-rule="evenodd" clip-rule="evenodd" d="M1237.75 145.682C1239.84 145.682 1241.53 144.118 1241.53 142.19C1241.53 140.261 1239.84 138.697 1237.75 138.697C1235.66 138.697 1233.97 140.261 1233.97 142.19C1233.97 144.118 1235.66 145.682 1237.75 145.682Z" fill="#202020"/>
<path fill-rule="evenodd" clip-rule="evenodd" d="M1199.94 145.682C1202.03 145.682 1203.72 144.118 1203.72 142.19C1203.72 140.261 1202.03 138.697 1199.94 138.697C1197.85 138.697 1196.16 140.261 1196.16 142.19C1196.16 144.118 1197.85 145.682 1199.94 145.682Z" fill="#202020"/>
<path fill-rule="evenodd" clip-rule="evenodd" d="M1918.22 110.758C1920.31 110.758 1922 109.195 1922 107.266C1922 105.337 1920.31 103.773 1918.22 103.773C1916.13 103.773 1914.44 105.337 1914.44 107.266C1914.44 109.195 1916.13 110.758 1918.22 110.758Z" fill="#202020"/>
<path fill-rule="evenodd" clip-rule="evenodd" d="M1880.42 110.758C1882.5 110.758 1884.2 109.195 1884.2 107.266C1884.2 105.337 1882.5 103.773 1880.42 103.773C1878.33 103.773 1876.63 105.337 1876.63 107.266C1876.63 109.195 1878.33 110.758 1880.42 110.758Z" fill="#202020"/>
<path fill-rule="evenodd" clip-rule="evenodd" d="M1842.61 110.758C1844.7 110.758 1846.39 109.195 1846.39 107.266C1846.39 105.337 1844.7 103.773 1842.61 103.773C1840.52 103.773 1838.83 105.337 1838.83 107.266C1838.83 109.195 1840.52 110.758 1842.61 110.758Z" fill="#202020"/>
<path fill-rule="evenodd" clip-rule="evenodd" d="M1804.81 110.758C1806.9 110.758 1808.59 109.195 1808.59 107.266C1808.59 105.337 1806.9 103.773 1804.81 103.773C1802.72 103.773 1801.03 105.337 1801.03 107.266C1801.03 109.195 1802.72 110.758 1804.81 110.758Z" fill="#202020"/>
<path fill-rule="evenodd" clip-rule="evenodd" d="M1767 110.758C1769.09 110.758 1770.78 109.195 1770.78 107.266C1770.78 105.337 1769.09 103.773 1767 103.773C1764.92 103.773 1763.22 105.337 1763.22 107.266C1763.22 109.195 1764.92 110.758 1767 110.758Z" fill="#202020"/>
<path fill-rule="evenodd" clip-rule="evenodd" d="M1729.2 110.758C1731.29 110.758 1732.98 109.195 1732.98 107.266C1732.98 105.337 1731.29 103.773 1729.2 103.773C1727.11 103.773 1725.42 105.337 1725.42 107.266C1725.42 109.195 1727.11 110.758 1729.2 110.758Z" fill="#202020"/>
<path fill-rule="evenodd" clip-rule="evenodd" d="M1691.4 110.758C1693.48 110.758 1695.18 109.195 1695.18 107.266C1695.18 105.337 1693.48 103.773 1691.4 103.773C1689.31 103.773 1687.62 105.337 1687.62 107.266C1687.62 109.195 1689.31 110.758 1691.4 110.758Z" fill="#202020"/>
<path fill-rule="evenodd" clip-rule="evenodd" d="M1653.59 110.758C1655.68 110.758 1657.37 109.195 1657.37 107.266C1657.37 105.337 1655.68 103.773 1653.59 103.773C1651.5 103.773 1649.81 105.337 1649.81 107.266C1649.81 109.195 1651.5 110.758 1653.59 110.758Z" fill="#202020"/>
<path fill-rule="evenodd" clip-rule="evenodd" d="M1615.79 110.758C1617.87 110.758 1619.57 109.195 1619.57 107.266C1619.57 105.337 1617.87 103.773 1615.79 103.773C1613.7 103.773 1612.01 105.337 1612.01 107.266C1612.01 109.195 1613.7 110.758 1615.79 110.758Z" fill="#202020"/>
<path fill-rule="evenodd" clip-rule="evenodd" d="M1577.98 110.758C1580.07 110.758 1581.76 109.195 1581.76 107.266C1581.76 105.337 1580.07 103.773 1577.98 103.773C1575.9 103.773 1574.2 105.337 1574.2 107.266C1574.2 109.195 1575.9 110.758 1577.98 110.758Z" fill="#202020"/>
<path fill-rule="evenodd" clip-rule="evenodd" d="M1540.18 110.758C1542.27 110.758 1543.96 109.195 1543.96 107.266C1543.96 105.337 1542.27 103.773 1540.18 103.773C1538.09 103.773 1536.4 105.337 1536.4 107.266C1536.4 109.195 1538.09 110.758 1540.18 110.758Z" fill="#202020"/>
<path fill-rule="evenodd" clip-rule="evenodd" d="M1502.37 110.758C1504.46 110.758 1506.15 109.195 1506.15 107.266C1506.15 105.337 1504.46 103.773 1502.37 103.773C1500.29 103.773 1498.59 105.337 1498.59 107.266C1498.59 109.195 1500.29 110.758 1502.37 110.758Z" fill="#202020"/>
<path fill-rule="evenodd" clip-rule="evenodd" d="M1464.57 110.758C1466.66 110.758 1468.35 109.195 1468.35 107.266C1468.35 105.337 1466.66 103.773 1464.57 103.773C1462.48 103.773 1460.79 105.337 1460.79 107.266C1460.79 109.195 1462.48 110.758 1464.57 110.758Z" fill="#202020"/>
<path fill-rule="evenodd" clip-rule="evenodd" d="M1426.77 110.758C1428.85 110.758 1430.55 109.195 1430.55 107.266C1430.55 105.337 1428.85 103.773 1426.77 103.773C1424.68 103.773 1422.99 105.337 1422.99 107.266C1422.99 109.195 1424.68 110.758 1426.77 110.758Z" fill="#202020"/>
<path fill-rule="evenodd" clip-rule="evenodd" d="M1388.96 110.758C1391.05 110.758 1392.74 109.195 1392.74 107.266C1392.74 105.337 1391.05 103.773 1388.96 103.773C1386.87 103.773 1385.18 105.337 1385.18 107.266C1385.18 109.195 1386.87 110.758 1388.96 110.758Z" fill="#202020"/>
<path fill-rule="evenodd" clip-rule="evenodd" d="M1351.16 110.758C1353.25 110.758 1354.94 109.195 1354.94 107.266C1354.94 105.337 1353.25 103.773 1351.16 103.773C1349.07 103.773 1347.38 105.337 1347.38 107.266C1347.38 109.195 1349.07 110.758 1351.16 110.758Z" fill="#202020"/>
<path fill-rule="evenodd" clip-rule="evenodd" d="M1313.35 110.758C1315.44 110.758 1317.14 109.195 1317.14 107.266C1317.14 105.337 1315.44 103.773 1313.35 103.773C1311.27 103.773 1309.57 105.337 1309.57 107.266C1309.57 109.195 1311.27 110.758 1313.35 110.758Z" fill="#202020"/>
<path fill-rule="evenodd" clip-rule="evenodd" d="M1275.55 110.758C1277.64 110.758 1279.33 109.195 1279.33 107.266C1279.33 105.337 1277.64 103.773 1275.55 103.773C1273.46 103.773 1271.77 105.337 1271.77 107.266C1271.77 109.195 1273.46 110.758 1275.55 110.758Z" fill="#202020"/>
<path fill-rule="evenodd" clip-rule="evenodd" d="M1237.75 110.758C1239.84 110.758 1241.53 109.195 1241.53 107.266C1241.53 105.337 1239.84 103.773 1237.75 103.773C1235.66 103.773 1233.97 105.337 1233.97 107.266C1233.97 109.195 1235.66 110.758 1237.75 110.758Z" fill="#202020"/>
<path fill-rule="evenodd" clip-rule="evenodd" d="M1199.94 110.758C1202.03 110.758 1203.72 109.195 1203.72 107.266C1203.72 105.337 1202.03 103.773 1199.94 103.773C1197.85 103.773 1196.16 105.337 1196.16 107.266C1196.16 109.195 1197.85 110.758 1199.94 110.758Z" fill="#202020"/>
<path fill-rule="evenodd" clip-rule="evenodd" d="M1918.22 75.8344C1920.31 75.8344 1922 74.2708 1922 72.342C1922 70.4132 1920.31 68.8496 1918.22 68.8496C1916.13 68.8496 1914.44 70.4132 1914.44 72.342C1914.44 74.2708 1916.13 75.8344 1918.22 75.8344Z" fill="#202020"/>
<path fill-rule="evenodd" clip-rule="evenodd" d="M1880.42 75.8344C1882.5 75.8344 1884.2 74.2708 1884.2 72.342C1884.2 70.4132 1882.5 68.8496 1880.42 68.8496C1878.33 68.8496 1876.63 70.4132 1876.63 72.342C1876.63 74.2708 1878.33 75.8344 1880.42 75.8344Z" fill="#202020"/>
<path fill-rule="evenodd" clip-rule="evenodd" d="M1842.61 75.8344C1844.7 75.8344 1846.39 74.2708 1846.39 72.342C1846.39 70.4132 1844.7 68.8496 1842.61 68.8496C1840.52 68.8496 1838.83 70.4132 1838.83 72.342C1838.83 74.2708 1840.52 75.8344 1842.61 75.8344Z" fill="#202020"/>
<path fill-rule="evenodd" clip-rule="evenodd" d="M1804.81 75.8344C1806.9 75.8344 1808.59 74.2708 1808.59 72.342C1808.59 70.4132 1806.9 68.8496 1804.81 68.8496C1802.72 68.8496 1801.03 70.4132 1801.03 72.342C1801.03 74.2708 1802.72 75.8344 1804.81 75.8344Z" fill="#202020"/>
<path fill-rule="evenodd" clip-rule="evenodd" d="M1767 75.8344C1769.09 75.8344 1770.78 74.2708 1770.78 72.342C1770.78 70.4132 1769.09 68.8496 1767 68.8496C1764.92 68.8496 1763.22 70.4132 1763.22 72.342C1763.22 74.2708 1764.92 75.8344 1767 75.8344Z" fill="#202020"/>
<path fill-rule="evenodd" clip-rule="evenodd" d="M1729.2 75.8344C1731.29 75.8344 1732.98 74.2708 1732.98 72.342C1732.98 70.4132 1731.29 68.8496 1729.2 68.8496C1727.11 68.8496 1725.42 70.4132 1725.42 72.342C1725.42 74.2708 1727.11 75.8344 1729.2 75.8344Z" fill="#202020"/>
<path fill-rule="evenodd" clip-rule="evenodd" d="M1691.4 75.8344C1693.48 75.8344 1695.18 74.2708 1695.18 72.342C1695.18 70.4132 1693.48 68.8496 1691.4 68.8496C1689.31 68.8496 1687.62 70.4132 1687.62 72.342C1687.62 74.2708 1689.31 75.8344 1691.4 75.8344Z" fill="#202020"/>
<path fill-rule="evenodd" clip-rule="evenodd" d="M1653.59 75.8344C1655.68 75.8344 1657.37 74.2708 1657.37 72.342C1657.37 70.4132 1655.68 68.8496 1653.59 68.8496C1651.5 68.8496 1649.81 70.4132 1649.81 72.342C1649.81 74.2708 1651.5 75.8344 1653.59 75.8344Z" fill="#202020"/>
<path fill-rule="evenodd" clip-rule="evenodd" d="M1615.79 75.8344C1617.87 75.8344 1619.57 74.2708 1619.57 72.342C1619.57 70.4132 1617.87 68.8496 1615.79 68.8496C1613.7 68.8496 1612.01 70.4132 1612.01 72.342C1612.01 74.2708 1613.7 75.8344 1615.79 75.8344Z" fill="#202020"/>
<path fill-rule="evenodd" clip-rule="evenodd" d="M1577.98 75.8344C1580.07 75.8344 1581.76 74.2708 1581.76 72.342C1581.76 70.4132 1580.07 68.8496 1577.98 68.8496C1575.9 68.8496 1574.2 70.4132 1574.2 72.342C1574.2 74.2708 1575.9 75.8344 1577.98 75.8344Z" fill="#202020"/>
<path fill-rule="evenodd" clip-rule="evenodd" d="M1540.18 75.8344C1542.27 75.8344 1543.96 74.2708 1543.96 72.342C1543.96 70.4132 1542.27 68.8496 1540.18 68.8496C1538.09 68.8496 1536.4 70.4132 1536.4 72.342C1536.4 74.2708 1538.09 75.8344 1540.18 75.8344Z" fill="#202020"/>
<path fill-rule="evenodd" clip-rule="evenodd" d="M1502.37 75.8344C1504.46 75.8344 1506.15 74.2708 1506.15 72.342C1506.15 70.4132 1504.46 68.8496 1502.37 68.8496C1500.29 68.8496 1498.59 70.4132 1498.59 72.342C1498.59 74.2708 1500.29 75.8344 1502.37 75.8344Z" fill="#202020"/>
<path fill-rule="evenodd" clip-rule="evenodd" d="M1464.57 75.8344C1466.66 75.8344 1468.35 74.2708 1468.35 72.342C1468.35 70.4132 1466.66 68.8496 1464.57 68.8496C1462.48 68.8496 1460.79 70.4132 1460.79 72.342C1460.79 74.2708 1462.48 75.8344 1464.57 75.8344Z" fill="#202020"/>
<path fill-rule="evenodd" clip-rule="evenodd" d="M1426.77 75.8344C1428.85 75.8344 1430.55 74.2708 1430.55 72.342C1430.55 70.4132 1428.85 68.8496 1426.77 68.8496C1424.68 68.8496 1422.99 70.4132 1422.99 72.342C1422.99 74.2708 1424.68 75.8344 1426.77 75.8344Z" fill="#202020"/>
<path fill-rule="evenodd" clip-rule="evenodd" d="M1388.96 75.8344C1391.05 75.8344 1392.74 74.2708 1392.74 72.342C1392.74 70.4132 1391.05 68.8496 1388.96 68.8496C1386.87 68.8496 1385.18 70.4132 1385.18 72.342C1385.18 74.2708 1386.87 75.8344 1388.96 75.8344Z" fill="#202020"/>
<path fill-rule="evenodd" clip-rule="evenodd" d="M1351.16 75.8344C1353.25 75.8344 1354.94 74.2708 1354.94 72.342C1354.94 70.4132 1353.25 68.8496 1351.16 68.8496C1349.07 68.8496 1347.38 70.4132 1347.38 72.342C1347.38 74.2708 1349.07 75.8344 1351.16 75.8344Z" fill="#202020"/>
<path fill-rule="evenodd" clip-rule="evenodd" d="M1313.35 75.8344C1315.44 75.8344 1317.14 74.2708 1317.14 72.342C1317.14 70.4132 1315.44 68.8496 1313.35 68.8496C1311.27 68.8496 1309.57 70.4132 1309.57 72.342C1309.57 74.2708 1311.27 75.8344 1313.35 75.8344Z" fill="#202020"/>
<path fill-rule="evenodd" clip-rule="evenodd" d="M1275.55 75.8344C1277.64 75.8344 1279.33 74.2708 1279.33 72.342C1279.33 70.4132 1277.64 68.8496 1275.55 68.8496C1273.46 68.8496 1271.77 70.4132 1271.77 72.342C1271.77 74.2708 1273.46 75.8344 1275.55 75.8344Z" fill="#202020"/>
<path fill-rule="evenodd" clip-rule="evenodd" d="M1237.75 75.8344C1239.84 75.8344 1241.53 74.2708 1241.53 72.342C1241.53 70.4132 1239.84 68.8496 1237.75 68.8496C1235.66 68.8496 1233.97 70.4132 1233.97 72.342C1233.97 74.2708 1235.66 75.8344 1237.75 75.8344Z" fill="#202020"/>
<path fill-rule="evenodd" clip-rule="evenodd" d="M1199.94 75.8344C1202.03 75.8344 1203.72 74.2708 1203.72 72.342C1203.72 70.4132 1202.03 68.8496 1199.94 68.8496C1197.85 68.8496 1196.16 70.4132 1196.16 72.342C1196.16 74.2708 1197.85 75.8344 1199.94 75.8344Z" fill="#202020"/>
<path fill-rule="evenodd" clip-rule="evenodd" d="M1918.22 40.9108C1920.31 40.9108 1922 39.3472 1922 37.4184C1922 35.4896 1920.31 33.926 1918.22 33.926C1916.13 33.926 1914.44 35.4896 1914.44 37.4184C1914.44 39.3472 1916.13 40.9108 1918.22 40.9108Z" fill="#202020"/>
<path fill-rule="evenodd" clip-rule="evenodd" d="M1880.42 40.9108C1882.5 40.9108 1884.2 39.3472 1884.2 37.4184C1884.2 35.4896 1882.5 33.926 1880.42 33.926C1878.33 33.926 1876.63 35.4896 1876.63 37.4184C1876.63 39.3472 1878.33 40.9108 1880.42 40.9108Z" fill="#202020"/>
<path fill-rule="evenodd" clip-rule="evenodd" d="M1842.61 40.9108C1844.7 40.9108 1846.39 39.3472 1846.39 37.4184C1846.39 35.4896 1844.7 33.926 1842.61 33.926C1840.52 33.926 1838.83 35.4896 1838.83 37.4184C1838.83 39.3472 1840.52 40.9108 1842.61 40.9108Z" fill="#202020"/>
<path fill-rule="evenodd" clip-rule="evenodd" d="M1804.81 40.9108C1806.9 40.9108 1808.59 39.3472 1808.59 37.4184C1808.59 35.4896 1806.9 33.926 1804.81 33.926C1802.72 33.926 1801.03 35.4896 1801.03 37.4184C1801.03 39.3472 1802.72 40.9108 1804.81 40.9108Z" fill="#202020"/>
<path fill-rule="evenodd" clip-rule="evenodd" d="M1767 40.9108C1769.09 40.9108 1770.78 39.3472 1770.78 37.4184C1770.78 35.4896 1769.09 33.926 1767 33.926C1764.92 33.926 1763.22 35.4896 1763.22 37.4184C1763.22 39.3472 1764.92 40.9108 1767 40.9108Z" fill="#202020"/>
<path fill-rule="evenodd" clip-rule="evenodd" d="M1729.2 40.9108C1731.29 40.9108 1732.98 39.3472 1732.98 37.4184C1732.98 35.4896 1731.29 33.926 1729.2 33.926C1727.11 33.926 1725.42 35.4896 1725.42 37.4184C1725.42 39.3472 1727.11 40.9108 1729.2 40.9108Z" fill="#202020"/>
<path fill-rule="evenodd" clip-rule="evenodd" d="M1691.4 40.9108C1693.48 40.9108 1695.18 39.3472 1695.18 37.4184C1695.18 35.4896 1693.48 33.926 1691.4 33.926C1689.31 33.926 1687.62 35.4896 1687.62 37.4184C1687.62 39.3472 1689.31 40.9108 1691.4 40.9108Z" fill="#202020"/>
<path fill-rule="evenodd" clip-rule="evenodd" d="M1653.59 40.9108C1655.68 40.9108 1657.37 39.3472 1657.37 37.4184C1657.37 35.4896 1655.68 33.926 1653.59 33.926C1651.5 33.926 1649.81 35.4896 1649.81 37.4184C1649.81 39.3472 1651.5 40.9108 1653.59 40.9108Z" fill="#202020"/>
<path fill-rule="evenodd" clip-rule="evenodd" d="M1615.79 40.9108C1617.87 40.9108 1619.57 39.3472 1619.57 37.4184C1619.57 35.4896 1617.87 33.926 1615.79 33.926C1613.7 33.926 1612.01 35.4896 1612.01 37.4184C1612.01 39.3472 1613.7 40.9108 1615.79 40.9108Z" fill="#202020"/>
<path fill-rule="evenodd" clip-rule="evenodd" d="M1577.98 40.9108C1580.07 40.9108 1581.76 39.3472 1581.76 37.4184C1581.76 35.4896 1580.07 33.926 1577.98 33.926C1575.9 33.926 1574.2 35.4896 1574.2 37.4184C1574.2 39.3472 1575.9 40.9108 1577.98 40.9108Z" fill="#202020"/>
<path fill-rule="evenodd" clip-rule="evenodd" d="M1540.18 40.9108C1542.27 40.9108 1543.96 39.3472 1543.96 37.4184C1543.96 35.4896 1542.27 33.926 1540.18 33.926C1538.09 33.926 1536.4 35.4896 1536.4 37.4184C1536.4 39.3472 1538.09 40.9108 1540.18 40.9108Z" fill="#202020"/>
<path fill-rule="evenodd" clip-rule="evenodd" d="M1502.37 40.9108C1504.46 40.9108 1506.15 39.3472 1506.15 37.4184C1506.15 35.4896 1504.46 33.926 1502.37 33.926C1500.29 33.926 1498.59 35.4896 1498.59 37.4184C1498.59 39.3472 1500.29 40.9108 1502.37 40.9108Z" fill="#202020"/>
<path fill-rule="evenodd" clip-rule="evenodd" d="M1464.57 40.9108C1466.66 40.9108 1468.35 39.3472 1468.35 37.4184C1468.35 35.4896 1466.66 33.926 1464.57 33.926C1462.48 33.926 1460.79 35.4896 1460.79 37.4184C1460.79 39.3472 1462.48 40.9108 1464.57 40.9108Z" fill="#202020"/>
<path fill-rule="evenodd" clip-rule="evenodd" d="M1426.77 40.9108C1428.85 40.9108 1430.55 39.3472 1430.55 37.4184C1430.55 35.4896 1428.85 33.926 1426.77 33.926C1424.68 33.926 1422.99 35.4896 1422.99 37.4184C1422.99 39.3472 1424.68 40.9108 1426.77 40.9108Z" fill="#202020"/>
<path fill-rule="evenodd" clip-rule="evenodd" d="M1388.96 40.9108C1391.05 40.9108 1392.74 39.3472 1392.74 37.4184C1392.74 35.4896 1391.05 33.926 1388.96 33.926C1386.87 33.926 1385.18 35.4896 1385.18 37.4184C1385.18 39.3472 1386.87 40.9108 1388.96 40.9108Z" fill="#202020"/>
<path fill-rule="evenodd" clip-rule="evenodd" d="M1351.16 40.9108C1353.25 40.9108 1354.94 39.3472 1354.94 37.4184C1354.94 35.4896 1353.25 33.926 1351.16 33.926C1349.07 33.926 1347.38 35.4896 1347.38 37.4184C1347.38 39.3472 1349.07 40.9108 1351.16 40.9108Z" fill="#202020"/>
<path fill-rule="evenodd" clip-rule="evenodd" d="M1313.35 40.9108C1315.44 40.9108 1317.14 39.3472 1317.14 37.4184C1317.14 35.4896 1315.44 33.926 1313.35 33.926C1311.27 33.926 1309.57 35.4896 1309.57 37.4184C1309.57 39.3472 1311.27 40.9108 1313.35 40.9108Z" fill="#202020"/>
<path fill-rule="evenodd" clip-rule="evenodd" d="M1275.55 40.9108C1277.64 40.9108 1279.33 39.3472 1279.33 37.4184C1279.33 35.4896 1277.64 33.926 1275.55 33.926C1273.46 33.926 1271.77 35.4896 1271.77 37.4184C1271.77 39.3472 1273.46 40.9108 1275.55 40.9108Z" fill="#202020"/>
<path fill-rule="evenodd" clip-rule="evenodd" d="M1237.75 40.9108C1239.84 40.9108 1241.53 39.3472 1241.53 37.4184C1241.53 35.4896 1239.84 33.926 1237.75 33.926C1235.66 33.926 1233.97 35.4896 1233.97 37.4184C1233.97 39.3472 1235.66 40.9108 1237.75 40.9108Z" fill="#202020"/>
<path fill-rule="evenodd" clip-rule="evenodd" d="M1199.94 40.9108C1202.03 40.9108 1203.72 39.3472 1203.72 37.4184C1203.72 35.4896 1202.03 33.926 1199.94 33.926C1197.85 33.926 1196.16 35.4896 1196.16 37.4184C1196.16 39.3472 1197.85 40.9108 1199.94 40.9108Z" fill="#202020"/>
<path fill-rule="evenodd" clip-rule="evenodd" d="M1918.22 5.98695C1920.31 5.98695 1922 4.42336 1922 2.49457C1922 0.565787 1920.31 -0.997803 1918.22 -0.997803C1916.13 -0.997803 1914.44 0.565787 1914.44 2.49457C1914.44 4.42336 1916.13 5.98695 1918.22 5.98695Z" fill="#202020"/>
<path fill-rule="evenodd" clip-rule="evenodd" d="M1880.42 5.98695C1882.5 5.98695 1884.2 4.42336 1884.2 2.49457C1884.2 0.565787 1882.5 -0.997803 1880.42 -0.997803C1878.33 -0.997803 1876.63 0.565787 1876.63 2.49457C1876.63 4.42336 1878.33 5.98695 1880.42 5.98695Z" fill="#202020"/>
<path fill-rule="evenodd" clip-rule="evenodd" d="M1842.61 5.98695C1844.7 5.98695 1846.39 4.42336 1846.39 2.49457C1846.39 0.565787 1844.7 -0.997803 1842.61 -0.997803C1840.52 -0.997803 1838.83 0.565787 1838.83 2.49457C1838.83 4.42336 1840.52 5.98695 1842.61 5.98695Z" fill="#202020"/>
<path fill-rule="evenodd" clip-rule="evenodd" d="M1804.81 5.98695C1806.9 5.98695 1808.59 4.42336 1808.59 2.49457C1808.59 0.565787 1806.9 -0.997803 1804.81 -0.997803C1802.72 -0.997803 1801.03 0.565787 1801.03 2.49457C1801.03 4.42336 1802.72 5.98695 1804.81 5.98695Z" fill="#202020"/>
<path fill-rule="evenodd" clip-rule="evenodd" d="M1767 5.98695C1769.09 5.98695 1770.78 4.42336 1770.78 2.49457C1770.78 0.565787 1769.09 -0.997803 1767 -0.997803C1764.92 -0.997803 1763.22 0.565787 1763.22 2.49457C1763.22 4.42336 1764.92 5.98695 1767 5.98695Z" fill="#202020"/>
<path fill-rule="evenodd" clip-rule="evenodd" d="M1729.2 5.98695C1731.29 5.98695 1732.98 4.42336 1732.98 2.49457C1732.98 0.565787 1731.29 -0.997803 1729.2 -0.997803C1727.11 -0.997803 1725.42 0.565787 1725.42 2.49457C1725.42 4.42336 1727.11 5.98695 1729.2 5.98695Z" fill="#202020"/>
<path fill-rule="evenodd" clip-rule="evenodd" d="M1691.4 5.98695C1693.48 5.98695 1695.18 4.42336 1695.18 2.49457C1695.18 0.565787 1693.48 -0.997803 1691.4 -0.997803C1689.31 -0.997803 1687.62 0.565787 1687.62 2.49457C1687.62 4.42336 1689.31 5.98695 1691.4 5.98695Z" fill="#202020"/>
<path fill-rule="evenodd" clip-rule="evenodd" d="M1653.59 5.98695C1655.68 5.98695 1657.37 4.42336 1657.37 2.49457C1657.37 0.565787 1655.68 -0.997803 1653.59 -0.997803C1651.5 -0.997803 1649.81 0.565787 1649.81 2.49457C1649.81 4.42336 1651.5 5.98695 1653.59 5.98695Z" fill="#202020"/>
<path fill-rule="evenodd" clip-rule="evenodd" d="M1615.79 5.98695C1617.87 5.98695 1619.57 4.42336 1619.57 2.49457C1619.57 0.565787 1617.87 -0.997803 1615.79 -0.997803C1613.7 -0.997803 1612.01 0.565787 1612.01 2.49457C1612.01 4.42336 1613.7 5.98695 1615.79 5.98695Z" fill="#202020"/>
<path fill-rule="evenodd" clip-rule="evenodd" d="M1577.98 5.98695C1580.07 5.98695 1581.76 4.42336 1581.76 2.49457C1581.76 0.565787 1580.07 -0.997803 1577.98 -0.997803C1575.9 -0.997803 1574.2 0.565787 1574.2 2.49457C1574.2 4.42336 1575.9 5.98695 1577.98 5.98695Z" fill="#202020"/>
<path fill-rule="evenodd" clip-rule="evenodd" d="M1540.18 5.98695C1542.27 5.98695 1543.96 4.42336 1543.96 2.49457C1543.96 0.565787 1542.27 -0.997803 1540.18 -0.997803C1538.09 -0.997803 1536.4 0.565787 1536.4 2.49457C1536.4 4.42336 1538.09 5.98695 1540.18 5.98695Z" fill="#202020"/>
<path fill-rule="evenodd" clip-rule="evenodd" d="M1502.37 5.98695C1504.46 5.98695 1506.15 4.42336 1506.15 2.49457C1506.15 0.565787 1504.46 -0.997803 1502.37 -0.997803C1500.29 -0.997803 1498.59 0.565787 1498.59 2.49457C1498.59 4.42336 1500.29 5.98695 1502.37 5.98695Z" fill="#202020"/>
<path fill-rule="evenodd" clip-rule="evenodd" d="M1464.57 5.98695C1466.66 5.98695 1468.35 4.42336 1468.35 2.49457C1468.35 0.565787 1466.66 -0.997803 1464.57 -0.997803C1462.48 -0.997803 1460.79 0.565787 1460.79 2.49457C1460.79 4.42336 1462.48 5.98695 1464.57 5.98695Z" fill="#202020"/>
<path fill-rule="evenodd" clip-rule="evenodd" d="M1426.77 5.98695C1428.85 5.98695 1430.55 4.42336 1430.55 2.49457C1430.55 0.565787 1428.85 -0.997803 1426.77 -0.997803C1424.68 -0.997803 1422.99 0.565787 1422.99 2.49457C1422.99 4.42336 1424.68 5.98695 1426.77 5.98695Z" fill="#202020"/>
<path fill-rule="evenodd" clip-rule="evenodd" d="M1388.96 5.98695C1391.05 5.98695 1392.74 4.42336 1392.74 2.49457C1392.74 0.565787 1391.05 -0.997803 1388.96 -0.997803C1386.87 -0.997803 1385.18 0.565787 1385.18 2.49457C1385.18 4.42336 1386.87 5.98695 1388.96 5.98695Z" fill="#202020"/>
<path fill-rule="evenodd" clip-rule="evenodd" d="M1351.16 5.98695C1353.25 5.98695 1354.94 4.42336 1354.94 2.49457C1354.94 0.565787 1353.25 -0.997803 1351.16 -0.997803C1349.07 -0.997803 1347.38 0.565787 1347.38 2.49457C1347.38 4.42336 1349.07 5.98695 1351.16 5.98695Z" fill="#202020"/>
<path fill-rule="evenodd" clip-rule="evenodd" d="M1313.35 5.98695C1315.44 5.98695 1317.14 4.42336 1317.14 2.49457C1317.14 0.565787 1315.44 -0.997803 1313.35 -0.997803C1311.27 -0.997803 1309.57 0.565787 1309.57 2.49457C1309.57 4.42336 1311.27 5.98695 1313.35 5.98695Z" fill="#202020"/>
<path fill-rule="evenodd" clip-rule="evenodd" d="M1275.55 5.98695C1277.64 5.98695 1279.33 4.42336 1279.33 2.49457C1279.33 0.565787 1277.64 -0.997803 1275.55 -0.997803C1273.46 -0.997803 1271.77 0.565787 1271.77 2.49457C1271.77 4.42336 1273.46 5.98695 1275.55 5.98695Z" fill="#202020"/>
<path fill-rule="evenodd" clip-rule="evenodd" d="M1237.75 5.98695C1239.84 5.98695 1241.53 4.42336 1241.53 2.49457C1241.53 0.565787 1239.84 -0.997803 1237.75 -0.997803C1235.66 -0.997803 1233.97 0.565787 1233.97 2.49457C1233.97 4.42336 1235.66 5.98695 1237.75 5.98695Z" fill="#202020"/>
<path fill-rule="evenodd" clip-rule="evenodd" d="M1199.94 5.98695C1202.03 5.98695 1203.72 4.42336 1203.72 2.49457C1203.72 0.565787 1202.03 -0.997803 1199.94 -0.997803C1197.85 -0.997803 1196.16 0.565787 1196.16 2.49457C1196.16 4.42336 1197.85 5.98695 1199.94 5.98695Z" fill="#202020"/>
</g>
</svg>
