<svg width="200" height="285" viewBox="0 0 200 285" fill="none" xmlns="http://www.w3.org/2000/svg">
<path fill-rule="evenodd" clip-rule="evenodd" d="M1 270.46C1 278.192 7.26801 284.46 15 284.46H185.43C193.162 284.46 199.43 278.192 199.43 270.46V15C199.43 7.26802 193.162 1 185.43 1H15C7.268 1 1 7.26801 1 15V270.46Z" fill="#F7CB36" stroke="#ECB600"/>
<path fill-rule="evenodd" clip-rule="evenodd" d="M80.747 146.785L80.144 144.289C79.002 146.17 77.318 147.109 75.095 147.109C72.824 147.109 70.949 146.316 69.469 144.728C67.988 143.141 67.248 141.131 67.248 138.696C67.248 136.292 68.038 134.289 69.619 132.686C71.199 131.083 73.117 130.282 75.373 130.282C76.9 130.282 78.282 130.638 79.517 131.348C80.752 132.059 81.67 133.01 82.272 134.202L80.376 135.53C79.218 133.48 77.535 132.455 75.327 132.455C73.767 132.455 72.446 133.034 71.365 134.19C70.285 135.347 69.744 136.846 69.744 138.686C69.744 140.526 70.242 142.013 71.238 143.145C72.234 144.277 73.535 144.844 75.142 144.844C76.547 144.844 77.646 144.441 78.441 143.635C79.237 142.828 79.727 141.745 79.913 140.383H74.46V138.395H82.411V146.785H80.747Z" fill="#1A1919"/>
<path fill-rule="evenodd" clip-rule="evenodd" d="M90.3295 143.145C91.3725 144.277 92.6955 144.844 94.3025 144.844C95.9075 144.844 97.2315 144.277 98.2745 143.145C99.3165 142.013 99.8385 140.53 99.8385 138.696C99.8385 136.862 99.3165 135.379 98.2745 134.246C97.2315 133.114 95.9075 132.547 94.3025 132.547C92.6955 132.547 91.3725 133.114 90.3295 134.246C89.2875 135.379 88.7665 136.862 88.7665 138.696C88.7665 140.53 89.2875 142.013 90.3295 143.145ZM100.045 132.663C101.571 134.25 102.335 136.261 102.335 138.696C102.335 141.131 101.571 143.142 100.045 144.728C98.5175 146.316 96.6025 147.109 94.3025 147.109C92.0015 147.109 90.0875 146.316 88.5605 144.728C87.0335 143.142 86.2695 141.131 86.2695 138.696C86.2695 136.261 87.0335 134.25 88.5605 132.663C90.0875 131.076 92.0015 130.282 94.3025 130.282C96.6025 130.282 98.5175 131.076 100.045 132.663Z" fill="#1A1919"/>
<path fill-rule="evenodd" clip-rule="evenodd" d="M111.878 133.449C111.724 133.927 111.539 134.443 111.323 134.998L109.359 140.106H114.398L112.433 134.998L111.878 133.449ZM104.158 146.785L110.63 130.606H113.127L119.599 146.785H116.964L115.23 142.279H108.526L106.793 146.785H104.158Z" fill="#1A1919"/>
<path fill-rule="evenodd" clip-rule="evenodd" d="M119.615 132.871V130.606H132.096V132.871H127.104V146.785H124.608V132.871H119.615Z" fill="#1A1919"/>
<mask id="mask0" mask-type="alpha" maskUnits="userSpaceOnUse" x="1" y="139" width="13" height="23">
<path fill-rule="evenodd" clip-rule="evenodd" d="M1 139.223H13.5837V161.254H1V139.223Z" fill="white"/>
</mask>
<g mask="url(#mask0)">
<path fill-rule="evenodd" clip-rule="evenodd" d="M3.25983 152.064L-4.45117 139.223H-1.43017L4.51883 149.514H4.58183L10.5618 139.223H13.5828L6.07883 151.857L11.5678 161.254H8.54083L3.25983 152.064Z" fill="#FFFFFE"/>
</g>
<path fill-rule="evenodd" clip-rule="evenodd" d="M19.4834 172.286H16.4564L21.9454 162.889L14.4414 150.255H17.4624L23.4424 160.547H23.5054L29.4544 150.255H32.4764L24.7644 163.096L19.4834 172.286Z" fill="#FFFFFE"/>
<mask id="mask1" mask-type="alpha" maskUnits="userSpaceOnUse" x="1" y="167" width="9" height="23">
<path fill-rule="evenodd" clip-rule="evenodd" d="M1 167.216H9.4475V189.248H1V167.216Z" fill="white"/>
</mask>
<g mask="url(#mask1)">
<path fill-rule="evenodd" clip-rule="evenodd" d="M-0.876891 180.058L-8.58789 167.216H-5.56589L0.38211 177.508H0.445109L6.42511 167.216H9.44711L1.94311 179.851L7.43111 189.248H4.40511L-0.876891 180.058Z" fill="#FFFFFE"/>
</g>
<path fill-rule="evenodd" clip-rule="evenodd" d="M17.877 191.089L10.166 178.248H13.188L19.136 188.54H19.199L25.179 178.248H28.201L20.697 190.882L26.186 200.279H23.159L17.877 191.089Z" fill="#FFFFFE"/>
<mask id="mask2" mask-type="alpha" maskUnits="userSpaceOnUse" x="1" y="193" width="7" height="23">
<path fill-rule="evenodd" clip-rule="evenodd" d="M1 193.555H7.6546V215.586H1V193.555Z" fill="white"/>
</mask>
<g mask="url(#mask2)">
<path fill-rule="evenodd" clip-rule="evenodd" d="M-5.33886 215.586H-8.36486L-2.87686 206.189L-10.3809 193.555H-7.35886L-1.37886 203.847H-1.31586L4.63214 193.555H7.65414L-0.056859 206.396L-5.33886 215.586Z" fill="#FFFFFE"/>
</g>
<path fill-rule="evenodd" clip-rule="evenodd" d="M15.208 227.721H12.181L17.67 218.324L10.166 205.69H13.187L19.167 215.982H19.23L25.179 205.69H28.201L20.49 218.531L15.208 227.721Z" fill="#FFFFFE"/>
<mask id="mask3" mask-type="alpha" maskUnits="userSpaceOnUse" x="1" y="221" width="9" height="23">
<path fill-rule="evenodd" clip-rule="evenodd" d="M1 221.548H9.1717V243.579H1V221.548Z" fill="white"/>
</mask>
<g mask="url(#mask3)">
<path fill-rule="evenodd" clip-rule="evenodd" d="M-1.15228 234.389L-8.86328 221.548H-5.84128L0.106719 231.84H0.169719L6.14972 221.548H9.17172L1.66772 234.182L7.15672 243.579H4.12972L-1.15228 234.389Z" fill="#FFFFFE"/>
</g>
<path fill-rule="evenodd" clip-rule="evenodd" d="M16.4502 254.61H13.4232L18.9122 245.214L11.4082 232.579H14.4292L20.4092 242.871H20.4722L26.4212 232.579H29.4422L21.7312 245.421L16.4502 254.61Z" fill="#FFFFFE"/>
<mask id="mask4" mask-type="alpha" maskUnits="userSpaceOnUse" x="1" y="249" width="5" height="23">
<path fill-rule="evenodd" clip-rule="evenodd" d="M1 249.541H5.0339V271.572H1V249.541Z" fill="white"/>
</mask>
<g mask="url(#mask4)">
<path fill-rule="evenodd" clip-rule="evenodd" d="M-5.289 262.382L-13 249.541H-9.978L-4.03 259.832H-3.967L2.013 249.541H5.034L-2.47 262.175L3.019 271.572H-0.00699997L-5.289 262.382Z" fill="#FFFFFE"/>
</g>
<path fill-rule="evenodd" clip-rule="evenodd" d="M13.4649 273.414L5.75391 260.572H8.77591L14.7239 270.864H14.7869L20.7669 260.572H23.7889L16.2839 273.206L21.7729 282.603H18.7469L13.4649 273.414Z" fill="#FFFFFE"/>
<path fill-rule="evenodd" clip-rule="evenodd" d="M41.045 152.064L33.334 139.223H36.356L42.304 149.514H42.367L48.347 139.223H51.368L43.864 151.857L49.353 161.254H46.326L41.045 152.064Z" fill="#FFFFFE"/>
<path fill-rule="evenodd" clip-rule="evenodd" d="M36.583 187.593H33.556L39.045 178.196L31.541 165.562H34.562L40.542 175.854H40.605L46.554 165.562H49.576L41.865 178.403L36.583 187.593Z" fill="#FFFFFE"/>
<path fill-rule="evenodd" clip-rule="evenodd" d="M36.8584 215.586H33.8314L39.3204 206.189L31.8164 193.555H34.8374L40.8174 203.847H40.8804L46.8294 193.555H49.8514L42.1394 206.396L36.8584 215.586Z" fill="#FFFFFE"/>
<path fill-rule="evenodd" clip-rule="evenodd" d="M52.9932 228.273H49.9672L55.4552 218.876L47.9512 206.242H50.9722L56.9522 216.534H57.0152L62.9642 206.242H65.9862L58.2752 219.083L52.9932 228.273Z" fill="#FFFFFE"/>
<path fill-rule="evenodd" clip-rule="evenodd" d="M75.795 180.058L68.084 167.216H71.106L77.054 177.508H77.117L83.097 167.216H86.118L78.614 179.851L84.103 189.248H81.077L75.795 180.058Z" fill="#FFFFFE"/>
<path fill-rule="evenodd" clip-rule="evenodd" d="M94.5489 191.089L86.8379 178.248H89.8599L95.8079 188.54H95.8709L101.851 178.248H104.873L97.3679 190.882L102.857 200.279H99.8309L94.5489 191.089Z" fill="#FFFFFE"/>
<path fill-rule="evenodd" clip-rule="evenodd" d="M55.2481 191.089L47.5371 178.248H50.5591L56.5071 188.54H56.5701L62.5501 178.248H65.5721L58.0681 190.882L63.5561 200.279H60.5301L55.2481 191.089Z" fill="#FFFFFE"/>
<path fill-rule="evenodd" clip-rule="evenodd" d="M71.333 215.586H68.306L73.795 206.189L66.291 193.555H69.312L75.292 203.847H75.355L81.304 193.555H84.326L76.615 206.396L71.333 215.586Z" fill="#FFFFFE"/>
<path fill-rule="evenodd" clip-rule="evenodd" d="M91.8779 227.721H88.8519L94.3399 218.324L86.8359 205.69H89.8579L95.8379 215.982H95.9009L101.85 205.69H104.871L97.1599 218.531L91.8779 227.721Z" fill="#FFFFFE"/>
<path fill-rule="evenodd" clip-rule="evenodd" d="M36.6309 234.389L28.9199 221.548H31.9409L37.8899 231.84H37.9529L43.9329 221.548H46.9539L39.4499 234.182L44.9389 243.579H41.9119L36.6309 234.389Z" fill="#FFFFFE"/>
<path fill-rule="evenodd" clip-rule="evenodd" d="M52.7158 254.61H49.6898L55.1778 245.214L47.6738 232.579H50.6958L56.6748 242.871H56.7378L62.6868 232.579H65.7088L57.9978 245.421L52.7158 254.61Z" fill="#FFFFFE"/>
<path fill-rule="evenodd" clip-rule="evenodd" d="M32.169 269.917H29.142L34.631 260.52L27.127 247.886H30.148L36.128 258.178H36.191L42.14 247.886H45.162L37.45 260.728L32.169 269.917Z" fill="#FFFFFE"/>
<path fill-rule="evenodd" clip-rule="evenodd" d="M75.5176 234.389L67.8066 221.548H70.8286L76.7766 231.84H76.8396L82.8196 221.548H85.8406L78.3366 234.182L83.8256 243.579H80.7996L75.5176 234.389Z" fill="#FFFFFE"/>
<path fill-rule="evenodd" clip-rule="evenodd" d="M93.1201 254.61H90.0941L95.5821 245.214L88.0781 232.579H91.0991L97.0791 242.871H97.1421L103.092 232.579H106.113L98.4021 245.421L93.1201 254.61Z" fill="#FFFFFE"/>
<mask id="mask5" mask-type="alpha" maskUnits="userSpaceOnUse" x="27" y="275" width="19" height="10">
<path fill-rule="evenodd" clip-rule="evenodd" d="M27.4023 275.879H45.4373V284.46H27.4023V275.879Z" fill="white"/>
</mask>
<g mask="url(#mask5)">
<path fill-rule="evenodd" clip-rule="evenodd" d="M32.4443 297.91H29.4183L34.9063 288.513L27.4023 275.879H30.4243L36.4043 286.171H36.4673L42.4153 275.879H45.4373L37.7263 288.72L32.4443 297.91Z" fill="#FFFFFE"/>
</g>
<path fill-rule="evenodd" clip-rule="evenodd" d="M71.3809 262.382L63.6699 249.541H66.6909L72.6399 259.832H72.7029L78.6829 249.541H81.7039L74.1999 262.175L79.6889 271.572H76.6619L71.3809 262.382Z" fill="#FFFFFE"/>
<path fill-rule="evenodd" clip-rule="evenodd" d="M90.1348 273.414L82.4238 260.572H85.4458L91.3938 270.864H91.4568L97.4368 260.572H100.458L92.9538 273.206L98.4428 282.603H95.4158L90.1348 273.414Z" fill="#FFFFFE"/>
<path fill-rule="evenodd" clip-rule="evenodd" d="M50.834 273.414L43.123 260.572H46.145L52.093 270.864H52.156L58.136 260.572H61.157L53.653 273.206L59.142 282.603H56.116L50.834 273.414Z" fill="#FFFFFE"/>
<mask id="mask6" mask-type="alpha" maskUnits="userSpaceOnUse" x="61" y="275" width="19" height="10">
<path fill-rule="evenodd" clip-rule="evenodd" d="M61.877 275.879H79.912V284.46H61.877V275.879Z" fill="white"/>
</mask>
<g mask="url(#mask6)">
<path fill-rule="evenodd" clip-rule="evenodd" d="M66.919 297.91H63.892L69.381 288.513L61.877 275.879H64.898L70.878 286.171H70.941L76.89 275.879H79.912L72.2 288.72L66.919 297.91Z" fill="#FFFFFE"/>
</g>
<mask id="mask7" mask-type="alpha" maskUnits="userSpaceOnUse" x="1" y="1" width="2" height="5">
<path fill-rule="evenodd" clip-rule="evenodd" d="M1 1H2.6903V5.9824H1V1Z" fill="white"/>
</mask>
<g mask="url(#mask7)">
<path fill-rule="evenodd" clip-rule="evenodd" d="M-10.3018 5.98242H-13.3277L-7.83975 -3.41458L-15.3438 -16.0486H-12.3217L-6.34175 -5.75658H-6.27875L-0.33075 -16.0486H2.69125L-5.01975 -3.20758L-10.3018 5.98242Z" fill="#FFFFFE"/>
</g>
<mask id="mask8" mask-type="alpha" maskUnits="userSpaceOnUse" x="23" y="1" width="19" height="5">
<path fill-rule="evenodd" clip-rule="evenodd" d="M23.6797 1H41.7147V5.9824H23.6797V1Z" fill="white"/>
</mask>
<g mask="url(#mask8)">
<path fill-rule="evenodd" clip-rule="evenodd" d="M28.7217 5.98242H25.6957L31.1837 -3.41458L23.6797 -16.0486H26.7017L32.6817 -5.75658H32.7447L38.6927 -16.0486H41.7147L34.0037 -3.20758L28.7217 5.98242Z" fill="#FFFFFE"/>
</g>
<mask id="mask9" mask-type="alpha" maskUnits="userSpaceOnUse" x="2" y="0" width="18" height="23">
<path fill-rule="evenodd" clip-rule="evenodd" d="M6.00094 4C13.5005 -1.5 19.0009 0.999999 19.0009 0.999999V23H4.00094C4.00094 23 -1.49863 9.5 6.00094 4Z" fill="white"/>
</mask>
<g mask="url(#mask9)">
<path fill-rule="evenodd" clip-rule="evenodd" d="M8.36334 13.7539L0.652344 0.912903H3.67434L9.62234 11.2049H9.68534L15.6653 0.912903H18.6863L11.1823 13.5459L16.6713 22.9439H13.6453L8.36334 13.7539Z" fill="#FFFFFE"/>
</g>
<path fill-rule="evenodd" clip-rule="evenodd" d="M27.1172 24.7857L19.4062 11.9447H22.4283L28.3763 22.2367H28.4392L34.4192 11.9447H37.4403L29.9362 24.5777L35.4252 33.9757H32.3993L27.1172 24.7857Z" fill="#FFFFFE"/>
<mask id="mask10" mask-type="alpha" maskUnits="userSpaceOnUse" x="1" y="27" width="16" height="23">
<path fill-rule="evenodd" clip-rule="evenodd" d="M1 27.2512H16.8939V49.2822H1V27.2512Z" fill="white"/>
</mask>
<g mask="url(#mask10)">
<path fill-rule="evenodd" clip-rule="evenodd" d="M3.90137 49.2822H0.875375L6.36338 39.8852L-1.14062 27.2512H1.88037L7.86038 37.5422H7.92338L13.8724 27.2512H16.8944L9.18338 40.0922L3.90137 49.2822Z" fill="#FFFFFE"/>
</g>
<path fill-rule="evenodd" clip-rule="evenodd" d="M24.4482 61.417H21.4213L26.9103 52.02L19.4062 39.386H22.4272L28.4073 49.678H28.4703L34.4192 39.386H37.4403L29.7292 52.227L24.4482 61.417Z" fill="#FFFFFE"/>
<mask id="mask11" mask-type="alpha" maskUnits="userSpaceOnUse" x="1" y="55" width="18" height="23">
<path fill-rule="evenodd" clip-rule="evenodd" d="M1 55.244H18.4099V77.275H1V55.244Z" fill="white"/>
</mask>
<g mask="url(#mask11)">
<path fill-rule="evenodd" clip-rule="evenodd" d="M8.086 68.085L0.375 55.244H3.397L9.345 65.536H9.408L15.388 55.244H18.409L10.905 67.878L16.394 77.275H13.368L8.086 68.085Z" fill="#FFFFFE"/>
</g>
<path fill-rule="evenodd" clip-rule="evenodd" d="M25.6885 88.3071H22.6625L28.1505 78.9101L20.6465 66.2751H23.6685L29.6485 76.5671H29.7115L35.6595 66.2751H38.6815L30.9705 79.1171L25.6885 88.3071Z" fill="#FFFFFE"/>
<mask id="mask12" mask-type="alpha" maskUnits="userSpaceOnUse" x="1" y="83" width="14" height="23">
<path fill-rule="evenodd" clip-rule="evenodd" d="M1 83.2371H14.2732V105.268H1V83.2371Z" fill="white"/>
</mask>
<g mask="url(#mask12)">
<path fill-rule="evenodd" clip-rule="evenodd" d="M3.94928 96.0781L-3.76172 83.2371H-0.739719L5.20828 93.5291H5.27128L11.2513 83.2371H14.2723L6.76828 95.8711L12.2573 105.268H9.23028L3.94928 96.0781Z" fill="#FFFFFE"/>
</g>
<path fill-rule="evenodd" clip-rule="evenodd" d="M22.7032 107.11L14.9922 94.2689H18.0142L23.9622 104.561H24.0252L30.0052 94.2689H33.0262L25.5222 106.903L31.0112 116.3H27.9852L22.7032 107.11Z" fill="#FFFFFE"/>
<mask id="mask13" mask-type="alpha" maskUnits="userSpaceOnUse" x="1" y="109" width="12" height="23">
<path fill-rule="evenodd" clip-rule="evenodd" d="M1 109.575H12.4813V131.607H1V109.575Z" fill="white"/>
</mask>
<g mask="url(#mask13)">
<path fill-rule="evenodd" clip-rule="evenodd" d="M-0.510735 131.607H-3.53773L1.95127 122.21L-5.55273 109.575H-2.53173L3.44827 119.867H3.51127L9.46027 109.575H12.4823L4.77027 122.417L-0.510735 131.607Z" fill="#FFFFFE"/>
</g>
<path fill-rule="evenodd" clip-rule="evenodd" d="M20.0342 143.742H17.0082L22.4962 134.345L14.9922 121.71H18.0142L23.9942 132.002H24.0572L30.0052 121.71H33.0272L25.3162 134.552L20.0342 143.742Z" fill="#FFFFFE"/>
<mask id="mask14" mask-type="alpha" maskUnits="userSpaceOnUse" x="61" y="1" width="19" height="5">
<path fill-rule="evenodd" clip-rule="evenodd" d="M61.3262 1H79.3612V5.9824H61.3262V1Z" fill="white"/>
</mask>
<g mask="url(#mask14)">
<path fill-rule="evenodd" clip-rule="evenodd" d="M66.3682 5.98242H63.3422L68.8302 -3.41458L61.3262 -16.0486H64.3472L70.3272 -5.75658H70.3902L76.3392 -16.0486H79.3612L71.6502 -3.20758L66.3682 5.98242Z" fill="#FFFFFE"/>
</g>
<mask id="mask15" mask-type="alpha" maskUnits="userSpaceOnUse" x="40" y="1" width="19" height="21">
<path fill-rule="evenodd" clip-rule="evenodd" d="M40.7793 1H58.8143V21.2891H40.7793V1Z" fill="white"/>
</mask>
<g mask="url(#mask15)">
<path fill-rule="evenodd" clip-rule="evenodd" d="M45.8213 21.2891H42.7953L48.2833 11.8921L40.7793 -0.741882H43.8013L49.7813 9.55012H49.8443L55.7923 -0.741882H58.8143L51.1033 12.0991L45.8213 21.2891Z" fill="#FFFFFE"/>
</g>
<mask id="mask16" mask-type="alpha" maskUnits="userSpaceOnUse" x="101" y="1" width="19" height="5">
<path fill-rule="evenodd" clip-rule="evenodd" d="M101.73 1H119.764V5.9824H101.73V1Z" fill="white"/>
</mask>
<g mask="url(#mask16)">
<path fill-rule="evenodd" clip-rule="evenodd" d="M106.771 5.98242H103.745L109.234 -3.41458L101.73 -16.0486H104.751L110.731 -5.75658H110.794L116.743 -16.0486H119.764L112.053 -3.20758L106.771 5.98242Z" fill="#FFFFFE"/>
</g>
<path fill-rule="evenodd" clip-rule="evenodd" d="M46.0967 49.2822H43.0707L48.5587 39.8852L41.0547 27.2512H44.0767L50.0567 37.5422H50.1197L56.0677 27.2512H59.0897L51.3787 40.0922L46.0967 49.2822Z" fill="#FFFFFE"/>
<path fill-rule="evenodd" clip-rule="evenodd" d="M62.2315 61.9687H59.2045L64.6935 52.5717L57.1895 39.9377H60.2105L66.1905 50.2287H66.2535L72.2025 39.9377H75.2245L67.5125 52.7787L62.2315 61.9687Z" fill="#FFFFFE"/>
<mask id="mask17" mask-type="alpha" maskUnits="userSpaceOnUse" x="77" y="1" width="19" height="22">
<path fill-rule="evenodd" clip-rule="evenodd" d="M77.3223 1H95.3563V22.9439H77.3223V1Z" fill="white"/>
</mask>
<g mask="url(#mask17)">
<path fill-rule="evenodd" clip-rule="evenodd" d="M85.0333 13.7539L77.3223 0.912903H80.3433L86.2923 11.2049H86.3553L92.3353 0.912903H95.3563L87.8523 13.5459L93.3413 22.9439H90.3143L85.0333 13.7539Z" fill="#FFFFFE"/>
</g>
<path fill-rule="evenodd" clip-rule="evenodd" d="M103.787 24.7857L96.0762 11.9447H99.0982L105.046 22.2367H105.109L111.089 11.9447H114.11L106.606 24.5777L112.096 33.9757H109.069L103.787 24.7857Z" fill="#FFFFFE"/>
<path fill-rule="evenodd" clip-rule="evenodd" d="M64.4864 24.7857L56.7754 11.9447H59.7974L65.7454 22.2367H65.8084L71.7884 11.9447H74.8094L67.3054 24.5777L72.7944 33.9757H69.7684L64.4864 24.7857Z" fill="#FFFFFE"/>
<path fill-rule="evenodd" clip-rule="evenodd" d="M80.5713 49.2822H77.5443L83.0333 39.8852L75.5293 27.2512H78.5503L84.5303 37.5422H84.5933L90.5423 27.2512H93.5633L85.8523 40.0922L80.5713 49.2822Z" fill="#FFFFFE"/>
<path fill-rule="evenodd" clip-rule="evenodd" d="M45.8712 68.085L38.1602 55.244H41.1822L47.1302 65.536H47.1932L53.1732 55.244H56.1952L48.6912 67.878L54.1792 77.275H51.1532L45.8712 68.085Z" fill="#FFFFFE"/>
<path fill-rule="evenodd" clip-rule="evenodd" d="M41.4092 103.614H38.3832L43.8712 94.2168L36.3672 81.5818H39.3892L45.3692 91.8738H45.4322L51.3802 81.5818H54.4022L46.6912 94.4238L41.4092 103.614Z" fill="#FFFFFE"/>
<path fill-rule="evenodd" clip-rule="evenodd" d="M41.6846 131.607H38.6586L44.1466 122.21L36.6426 109.575H39.6636L45.6436 119.867H45.7066L51.6556 109.575H54.6776L46.9666 122.417L41.6846 131.607Z" fill="#FFFFFE"/>
<path fill-rule="evenodd" clip-rule="evenodd" d="M113.114 187.593H110.088L115.576 178.196L108.072 165.562H111.093L117.074 175.854H117.136L123.085 165.562H126.106L118.395 178.403L113.114 187.593Z" fill="#FFFFFE"/>
<path fill-rule="evenodd" clip-rule="evenodd" d="M156.463 152.064L148.752 139.223H151.774L157.722 149.514H157.785L163.765 139.223H166.786L159.282 151.857L164.772 161.254H161.745L156.463 152.064Z" fill="#FFFFFE"/>
<path fill-rule="evenodd" clip-rule="evenodd" d="M172.687 172.286H169.661L175.149 162.889L167.645 150.255H170.666L176.647 160.547H176.709L182.659 150.255H185.68L177.969 163.096L172.687 172.286Z" fill="#FFFFFE"/>
<path fill-rule="evenodd" clip-rule="evenodd" d="M113.391 215.586H110.365L115.854 206.189L108.35 193.555H111.371L117.351 203.847H117.414L123.363 193.555H126.384L118.673 206.396L113.391 215.586Z" fill="#FFFFFE"/>
<path fill-rule="evenodd" clip-rule="evenodd" d="M129.526 228.273H126.499L131.988 218.876L124.484 206.242H127.505L133.485 216.534H133.548L139.497 206.242H142.518L134.807 219.083L129.526 228.273Z" fill="#FFFFFE"/>
<path fill-rule="evenodd" clip-rule="evenodd" d="M152.326 180.058L144.615 167.216H147.637L153.585 177.508H153.648L159.628 167.216H162.649L155.145 179.851L160.635 189.248H157.607L152.326 180.058Z" fill="#FFFFFE"/>
<path fill-rule="evenodd" clip-rule="evenodd" d="M171.08 191.089L163.369 178.248H166.391L172.339 188.54H172.402L178.382 178.248H181.403L173.899 190.882L179.389 200.279H176.361L171.08 191.089Z" fill="#FFFFFE"/>
<path fill-rule="evenodd" clip-rule="evenodd" d="M131.779 191.089L124.068 178.248H127.09L133.038 188.54H133.101L139.081 178.248H142.102L134.598 190.882L140.088 200.279H137.061L131.779 191.089Z" fill="#FFFFFE"/>
<path fill-rule="evenodd" clip-rule="evenodd" d="M147.864 215.586H144.838L150.326 206.189L142.822 193.555H145.843L151.824 203.847H151.886L157.835 193.555H160.856L153.145 206.396L147.864 215.586Z" fill="#FFFFFE"/>
<path fill-rule="evenodd" clip-rule="evenodd" d="M168.411 227.721H165.385L170.873 218.324L163.369 205.69H166.39L172.37 215.982H172.433L178.382 205.69H181.403L173.692 218.531L168.411 227.721Z" fill="#FFFFFE"/>
<path fill-rule="evenodd" clip-rule="evenodd" d="M113.164 234.389L105.453 221.548H108.475L114.424 231.84H114.486L120.467 221.548H123.488L115.983 234.182L121.473 243.579H118.446L113.164 234.389Z" fill="#FFFFFE"/>
<path fill-rule="evenodd" clip-rule="evenodd" d="M129.249 254.61H126.223L131.711 245.214L124.207 232.579H127.228L133.209 242.871H133.271L139.221 232.579H142.242L134.53 245.421L129.249 254.61Z" fill="#FFFFFE"/>
<path fill-rule="evenodd" clip-rule="evenodd" d="M108.701 269.917H105.675L111.164 260.52L103.66 247.886H106.681L112.661 258.178H112.724L118.673 247.886H121.694L113.983 260.728L108.701 269.917Z" fill="#FFFFFE"/>
<path fill-rule="evenodd" clip-rule="evenodd" d="M152.052 234.389L144.34 221.548H147.362L153.311 231.84H153.373L159.354 221.548H162.375L154.871 234.182L160.36 243.579H157.333L152.052 234.389Z" fill="#FFFFFE"/>
<path fill-rule="evenodd" clip-rule="evenodd" d="M169.653 254.61H166.626L172.115 245.214L164.611 232.579H167.632L173.612 242.871H173.675L179.624 232.579H182.645L174.934 245.421L169.653 254.61Z" fill="#FFFFFE"/>
<mask id="mask18" mask-type="alpha" maskUnits="userSpaceOnUse" x="103" y="275" width="19" height="10">
<path fill-rule="evenodd" clip-rule="evenodd" d="M103.936 275.879H121.97V284.46H103.936V275.879Z" fill="white"/>
</mask>
<g mask="url(#mask18)">
<path fill-rule="evenodd" clip-rule="evenodd" d="M108.978 297.91H105.952L111.44 288.513L103.936 275.879H106.957L112.937 286.171H113L118.949 275.879H121.97L114.259 288.72L108.978 297.91Z" fill="#FFFFFE"/>
</g>
<path fill-rule="evenodd" clip-rule="evenodd" d="M147.914 262.382L140.203 249.541H143.225L149.174 259.832H149.236L155.217 249.541H158.238L150.734 262.175L156.223 271.572H153.196L147.914 262.382Z" fill="#FFFFFE"/>
<path fill-rule="evenodd" clip-rule="evenodd" d="M166.668 273.414L158.957 260.572H161.979L167.928 270.864H167.99L173.971 260.572H176.992L169.488 273.206L174.977 282.603H171.95L166.668 273.414Z" fill="#FFFFFE"/>
<path fill-rule="evenodd" clip-rule="evenodd" d="M127.367 273.414L119.656 260.572H122.678L128.626 270.864H128.688L134.669 260.572H137.69L130.186 273.206L135.675 282.603H132.648L127.367 273.414Z" fill="#FFFFFE"/>
<mask id="mask19" mask-type="alpha" maskUnits="userSpaceOnUse" x="138" y="275" width="19" height="10">
<path fill-rule="evenodd" clip-rule="evenodd" d="M138.41 275.879H156.444V284.46H138.41V275.879Z" fill="white"/>
</mask>
<g mask="url(#mask19)">
<path fill-rule="evenodd" clip-rule="evenodd" d="M143.451 297.91H140.425L145.914 288.513L138.41 275.879H141.431L147.411 286.171H147.474L153.423 275.879H156.444L148.733 288.72L143.451 297.91Z" fill="#FFFFFE"/>
</g>
<mask id="mask20" mask-type="alpha" maskUnits="userSpaceOnUse" x="186" y="139" width="14" height="23">
<path fill-rule="evenodd" clip-rule="evenodd" d="M186.537 139.223H199.43V161.254H186.537V139.223Z" fill="white"/>
</mask>
<g mask="url(#mask20)">
<path fill-rule="evenodd" clip-rule="evenodd" d="M194.248 152.064L186.537 139.223H189.559L195.507 149.514H195.569L201.55 139.223H204.571L197.067 151.857L202.556 161.254H199.529L194.248 152.064Z" fill="#FFFFFE"/>
</g>
<mask id="mask21" mask-type="alpha" maskUnits="userSpaceOnUse" x="184" y="165" width="16" height="23">
<path fill-rule="evenodd" clip-rule="evenodd" d="M184.744 165.562H199.43V187.593H184.744V165.562Z" fill="white"/>
</mask>
<g mask="url(#mask21)">
<path fill-rule="evenodd" clip-rule="evenodd" d="M189.786 187.593H186.76L192.248 178.196L184.744 165.562H187.765L193.745 175.854H193.808L199.757 165.562H202.778L195.067 178.403L189.786 187.593Z" fill="#FFFFFE"/>
</g>
<mask id="mask22" mask-type="alpha" maskUnits="userSpaceOnUse" x="185" y="193" width="15" height="23">
<path fill-rule="evenodd" clip-rule="evenodd" d="M185.02 193.555H199.43V215.586H185.02V193.555Z" fill="white"/>
</mask>
<g mask="url(#mask22)">
<path fill-rule="evenodd" clip-rule="evenodd" d="M190.062 215.586H187.036L192.524 206.189L185.02 193.555H188.041L194.022 203.847H194.084L200.034 193.555H203.055L195.344 206.396L190.062 215.586Z" fill="#FFFFFE"/>
</g>
<mask id="mask23" mask-type="alpha" maskUnits="userSpaceOnUse" x="182" y="221" width="18" height="23">
<path fill-rule="evenodd" clip-rule="evenodd" d="M182.123 221.548H199.429V243.579H182.123V221.548Z" fill="white"/>
</mask>
<g mask="url(#mask23)">
<path fill-rule="evenodd" clip-rule="evenodd" d="M189.834 234.389L182.123 221.548H185.145L191.093 231.84H191.156L197.136 221.548H200.157L192.653 234.182L198.143 243.579H195.115L189.834 234.389Z" fill="#FFFFFE"/>
</g>
<path fill-rule="evenodd" clip-rule="evenodd" d="M185.372 269.917H182.346L187.834 260.52L180.33 247.886H183.351L189.332 258.178H189.394L195.344 247.886H198.365L190.653 260.728L185.372 269.917Z" fill="#FFFFFE"/>
<mask id="mask24" mask-type="alpha" maskUnits="userSpaceOnUse" x="180" y="275" width="19" height="10">
<path fill-rule="evenodd" clip-rule="evenodd" d="M180.607 275.879H198.641C198.641 275.879 197.298 278.597 196 280C194.674 281.433 193.739 282.111 192 283C191.064 283.478 190.508 283.701 189.5 284C188.684 284.241 187.37 284.46 187.37 284.46H185.116H180.607V275.879Z" fill="white"/>
</mask>
<g mask="url(#mask24)">
<path fill-rule="evenodd" clip-rule="evenodd" d="M185.649 297.91H182.622L188.111 288.513L180.607 275.879H183.628L189.608 286.171H189.671L195.62 275.879H198.641L190.93 288.72L185.649 297.91Z" fill="#FFFFFE"/>
</g>
<mask id="mask25" mask-type="alpha" maskUnits="userSpaceOnUse" x="196" y="260" width="4" height="23">
<path fill-rule="evenodd" clip-rule="evenodd" d="M196.326 260.572H199.429V282.603H196.326V260.572Z" fill="white"/>
</mask>
<g mask="url(#mask25)">
<path fill-rule="evenodd" clip-rule="evenodd" d="M204.037 273.414L196.326 260.572H199.348L205.297 270.864H205.359L211.34 260.572H214.361L206.857 273.206L212.346 282.603H209.319L204.037 273.414Z" fill="#FFFFFE"/>
</g>
<mask id="mask26" mask-type="alpha" maskUnits="userSpaceOnUse" x="137" y="1" width="19" height="5">
<path fill-rule="evenodd" clip-rule="evenodd" d="M137.859 1H155.893V5.9824H137.859V1Z" fill="white"/>
</mask>
<g mask="url(#mask26)">
<path fill-rule="evenodd" clip-rule="evenodd" d="M142.901 5.98242H139.874L145.363 -3.41458L137.859 -16.0486H140.88L146.86 -5.75658H146.923L152.872 -16.0486H155.893L148.182 -3.20758L142.901 5.98242Z" fill="#FFFFFE"/>
</g>
<mask id="mask27" mask-type="alpha" maskUnits="userSpaceOnUse" x="117" y="1" width="19" height="21">
<path fill-rule="evenodd" clip-rule="evenodd" d="M117.312 1H135.347V21.2891H117.312V1Z" fill="white"/>
</mask>
<g mask="url(#mask27)">
<path fill-rule="evenodd" clip-rule="evenodd" d="M122.354 21.2891H119.329L124.817 11.8921L117.312 -0.741882H120.333L126.314 9.55012H126.377L132.325 -0.741882H135.347L127.635 12.0991L122.354 21.2891Z" fill="#FFFFFE"/>
</g>
<mask id="mask28" mask-type="alpha" maskUnits="userSpaceOnUse" x="176" y="1" width="19" height="5">
<path fill-rule="evenodd" clip-rule="evenodd" d="M176.885 1H194.919V5.9824H176.885V1Z" fill="white"/>
</mask>
<g mask="url(#mask28)">
<path fill-rule="evenodd" clip-rule="evenodd" d="M181.927 5.98242H178.901L184.389 -3.41458L176.885 -16.0486H179.906L185.887 -5.75658H185.949L191.898 -16.0486H194.919L187.208 -3.20758L181.927 5.98242Z" fill="#FFFFFE"/>
</g>
<path fill-rule="evenodd" clip-rule="evenodd" d="M122.63 49.2822H119.604L125.092 39.8852L117.588 27.2512H120.609L126.59 37.5422H126.652L132.602 27.2512H135.623L127.912 40.0922L122.63 49.2822Z" fill="#FFFFFE"/>
<path fill-rule="evenodd" clip-rule="evenodd" d="M138.764 61.9687H135.738L141.227 52.5717L133.723 39.9377H136.744L142.724 50.2287H142.787L148.736 39.9377H151.757L144.046 52.7787L138.764 61.9687Z" fill="#FFFFFE"/>
<mask id="mask29" mask-type="alpha" maskUnits="userSpaceOnUse" x="153" y="1" width="19" height="22">
<path fill-rule="evenodd" clip-rule="evenodd" d="M153.855 1H171.889V22.9439H153.855V1Z" fill="white"/>
</mask>
<g mask="url(#mask29)">
<path fill-rule="evenodd" clip-rule="evenodd" d="M161.566 13.7539L153.855 0.912903H156.877L162.825 11.2049H162.887L168.868 0.912903H171.889L164.385 13.5459L169.874 22.9439H166.847L161.566 13.7539Z" fill="#FFFFFE"/>
</g>
<path fill-rule="evenodd" clip-rule="evenodd" d="M180.32 24.7857L172.609 11.9447H175.631L181.579 22.2367H181.642L187.622 11.9447H190.643L183.139 24.5777L188.628 33.9757H185.601L180.32 24.7857Z" fill="#FFFFFE"/>
<path fill-rule="evenodd" clip-rule="evenodd" d="M141.02 24.7857L133.309 11.9447H136.331L142.279 22.2367H142.342L148.322 11.9447H151.343L143.839 24.5777L149.329 33.9757H146.301L141.02 24.7857Z" fill="#FFFFFE"/>
<path fill-rule="evenodd" clip-rule="evenodd" d="M157.104 49.2822H154.079L159.567 39.8852L152.062 27.2512H155.083L161.064 37.5422H161.127L167.075 27.2512H170.097L162.385 40.0922L157.104 49.2822Z" fill="#FFFFFE"/>
<path fill-rule="evenodd" clip-rule="evenodd" d="M177.651 61.417H174.624L180.113 52.02L172.609 39.386H175.63L181.61 49.678H181.673L187.622 39.386H190.643L182.932 52.227L177.651 61.417Z" fill="#FFFFFE"/>
<path fill-rule="evenodd" clip-rule="evenodd" d="M161.289 68.085L153.578 55.244H156.6L162.549 65.536H162.611L168.592 55.244H171.613L164.109 67.878L169.598 77.275H166.571L161.289 68.085Z" fill="#FFFFFE"/>
<path fill-rule="evenodd" clip-rule="evenodd" d="M178.893 88.3071H175.867L181.356 78.9101L173.852 66.2751H176.873L182.853 76.5671H182.916L188.865 66.2751H191.886L184.175 79.1171L178.893 88.3071Z" fill="#FFFFFE"/>
<path fill-rule="evenodd" clip-rule="evenodd" d="M157.152 96.0781L149.441 83.2371H152.463L158.411 93.5291H158.474L164.454 83.2371H167.475L159.971 95.8711L165.461 105.268H162.434L157.152 96.0781Z" fill="#FFFFFE"/>
<path fill-rule="evenodd" clip-rule="evenodd" d="M175.906 107.11L168.195 94.2689H171.217L177.165 104.561H177.228L183.208 94.2689H186.229L178.725 106.903L184.215 116.3H181.188L175.906 107.11Z" fill="#FFFFFE"/>
<path fill-rule="evenodd" clip-rule="evenodd" d="M152.69 131.607H149.664L155.152 122.21L147.648 109.575H150.669L156.65 119.867H156.712L162.662 109.575H165.683L157.972 122.417L152.69 131.607Z" fill="#FFFFFE"/>
<path fill-rule="evenodd" clip-rule="evenodd" d="M173.239 143.742H170.213L175.701 134.345L168.197 121.71H171.218L177.199 132.002H177.261L183.21 121.71H186.231L178.52 134.552L173.239 143.742Z" fill="#FFFFFE"/>
<mask id="mask30" mask-type="alpha" maskUnits="userSpaceOnUse" x="194" y="15" width="5" height="6">
<path fill-rule="evenodd" clip-rule="evenodd" d="M194 15H199V21H194V15Z" fill="white"/>
</mask>
<g mask="url(#mask30)">
<path fill-rule="evenodd" clip-rule="evenodd" d="M199.026 21.2891H195.999L201.488 11.8921L193.984 -0.741882H197.005L202.985 9.55012H203.048L208.997 -0.741882H212.018L204.307 12.0991L199.026 21.2891Z" fill="#FFFFFE"/>
</g>
<mask id="mask31" mask-type="alpha" maskUnits="userSpaceOnUse" x="194" y="27" width="6" height="23">
<path fill-rule="evenodd" clip-rule="evenodd" d="M194.26 27.2512H199.431V49.2822H194.26V27.2512Z" fill="white"/>
</mask>
<g mask="url(#mask31)">
<path fill-rule="evenodd" clip-rule="evenodd" d="M199.302 49.2822H196.276L201.764 39.8852L194.26 27.2512H197.281L203.262 37.5422H203.324L209.273 27.2512H212.294L204.583 40.0922L199.302 49.2822Z" fill="#FFFFFE"/>
</g>
<mask id="mask32" mask-type="alpha" maskUnits="userSpaceOnUse" x="191" y="55" width="9" height="23">
<path fill-rule="evenodd" clip-rule="evenodd" d="M191.363 55.244H199.43V77.275H191.363V55.244Z" fill="white"/>
</mask>
<g mask="url(#mask32)">
<path fill-rule="evenodd" clip-rule="evenodd" d="M199.074 68.085L191.363 55.244H194.385L200.333 65.536H200.396L206.376 55.244H209.397L201.893 67.878L207.383 77.275H204.355L199.074 68.085Z" fill="#FFFFFE"/>
</g>
<mask id="mask33" mask-type="alpha" maskUnits="userSpaceOnUse" x="189" y="81" width="11" height="23">
<path fill-rule="evenodd" clip-rule="evenodd" d="M189.57 81.5818H199.43V103.614H189.57V81.5818Z" fill="white"/>
</mask>
<g mask="url(#mask33)">
<path fill-rule="evenodd" clip-rule="evenodd" d="M194.612 103.614H191.586L197.074 94.2168L189.57 81.5818H192.591L198.572 91.8738H198.634L204.583 81.5818H207.604L199.893 94.4238L194.612 103.614Z" fill="#FFFFFE"/>
</g>
<mask id="mask34" mask-type="alpha" maskUnits="userSpaceOnUse" x="189" y="109" width="11" height="23">
<path fill-rule="evenodd" clip-rule="evenodd" d="M189.848 109.575H199.431V131.607H189.848V109.575Z" fill="white"/>
</mask>
<g mask="url(#mask34)">
<path fill-rule="evenodd" clip-rule="evenodd" d="M194.889 131.607H191.863L197.352 122.21L189.848 109.575H192.869L198.849 119.867H198.912L204.861 109.575H207.882L200.171 122.417L194.889 131.607Z" fill="#FFFFFE"/>
</g>
<path fill-rule="evenodd" clip-rule="evenodd" d="M100.617 62.0151C100.808 53.9661 100.522 47.3301 99.364 39.3631C99.045 37.6061 98.283 37.9261 98.016 38.2691C97.749 38.6111 97.659 39.0551 97.578 39.4811C97.283 41.0391 97.006 42.6011 96.74 44.1651C96.888 44.9731 97.045 45.3881 97.387 45.9891C98.092 47.2241 98.696 47.4651 98.618 47.5791C98.034 47.8591 97.058 47.5801 96.343 47.2841C96.303 47.2671 96.263 47.2451 96.235 47.2121C95.983 48.8031 95.751 50.3961 95.529 51.9921C95.654 52.7171 95.842 53.2331 96.292 53.6761C97.395 54.7591 98.034 54.5941 98.034 54.8561C97.662 55.0521 97.163 55.2501 96.682 55.2941C96.169 55.3411 95.571 55.2691 95.125 55.0011C95.118 55.0621 95.109 55.1221 95.101 55.1831C94.937 56.4841 94.784 57.7871 94.639 59.0911C94.794 59.4771 94.894 59.7711 95.181 60.0921C96.3 61.3411 97.624 61.0611 97.408 61.3671C96.302 61.9891 95.527 62.0341 94.371 61.7021C94.325 62.1631 94.274 62.6231 94.23 63.0841C94.085 64.6191 92.996 69.6431 95.595 69.5711C97.655 69.5141 99.818 68.3471 100.442 66.3831C100.708 65.5461 100.596 62.8931 100.617 62.0151Z" fill="#C6C9CA"/>
<path fill-rule="evenodd" clip-rule="evenodd" d="M91.3832 112.958C91.4442 113.116 91.5302 113.295 91.6962 113.328C91.7292 112.533 91.6742 111.735 91.5322 110.953C91.5282 110.926 91.5232 110.899 91.5092 110.876C91.4752 110.815 91.3912 110.797 91.3242 110.816C91.2572 110.835 91.2022 110.883 91.1512 110.93C91.0652 111.009 90.8402 111.165 90.8172 111.284C90.7912 111.413 90.9352 111.683 90.9762 111.807C91.1022 112.194 91.2372 112.578 91.3832 112.958Z" fill="#C6C9CA"/>
<path fill-rule="evenodd" clip-rule="evenodd" d="M104.361 106.088C97.6972 106.038 95.1272 107.548 92.1562 108.95C91.2442 109.38 91.2442 109.38 91.7162 113.077C91.4952 113.883 90.6352 109.987 90.0942 110.531L88.3052 112.134C88.1322 112.289 87.9452 112.471 87.9382 112.704C87.9302 112.95 88.1242 113.148 88.2782 113.34C89.2992 114.612 88.8542 116.471 88.3612 118.026C88.1522 118.685 87.9422 119.344 87.7332 120.004C86.9802 122.377 90.4452 123.647 91.3952 121.345C91.7462 120.495 92.0912 119.642 92.4322 118.787C93.2932 116.63 94.1842 114.371 95.9342 112.843C97.9652 111.069 100.794 110.134 103.176 109.398C103.766 109.215 104.232 108.767 104.436 108.184C104.751 107.288 105.07 106.093 104.361 106.088Z" fill="#FFFFFE"/>
<path fill-rule="evenodd" clip-rule="evenodd" d="M107.484 93.1362C106.129 97.0982 104.336 102.038 103.331 106.093C100.78 106.188 99.5358 106.3 97.0898 106.937C96.2448 107.157 94.9758 107.633 94.3608 107.913C92.9828 109.043 92.2528 110.418 90.6948 111.414C88.3678 112.903 84.9528 113.24 82.7978 111.503C81.8838 110.766 81.2878 109.745 80.8218 108.707C78.5888 103.737 79.0448 97.8062 82.0108 93.2302C83.5928 90.7892 85.8228 88.7402 87.2358 86.2102C88.8338 83.3472 89.2838 80.0622 90.1568 76.9342C91.6248 71.6722 94.8018 67.7002 100.891 67.2362C105.757 66.8652 110.171 66.9072 112.769 71.3512C113.885 73.2592 114.371 75.4372 114.511 77.6002C114.705 80.5502 113.845 83.3482 112.291 85.8842C111.512 87.1552 110.507 87.7412 109.564 88.7832C108.484 89.9772 107.984 91.6742 107.484 93.1362Z" fill="#C6C9CA"/>
<path fill-rule="evenodd" clip-rule="evenodd" d="M89.0969 100.504C88.1079 100.247 87.0489 101.017 86.7649 101.999C86.4809 102.98 86.8379 104.059 87.4599 104.87C87.5919 105.041 87.7449 105.211 87.9499 105.278C88.5379 105.473 89.0029 104.769 89.2099 104.185C89.3879 103.684 89.5539 103.179 89.7079 102.671C89.8269 102.277 89.9389 101.86 89.8449 101.461C89.7499 101.061 89.5169 100.709 89.0969 100.504Z" fill="#989EA0"/>
<path fill-rule="evenodd" clip-rule="evenodd" d="M79.6241 101.072C78.9611 101.712 78.2491 102.467 78.2761 103.387C78.3091 104.462 79.3171 105.21 80.2231 105.788C80.2171 104.287 80.2111 102.786 80.2051 101.285C79.9201 101.281 79.9091 101.076 79.6241 101.072Z" fill="#C6C9CA"/>
<path fill-rule="evenodd" clip-rule="evenodd" d="M87.2166 78.0571C87.5246 77.8891 87.7806 78.3591 88.1006 78.5051C88.5606 78.7151 88.9996 78.2111 89.3466 77.8421C90.1836 76.9521 91.5556 76.6081 92.7146 76.9991C92.9256 76.7681 92.8276 76.3721 92.5936 76.1641C92.3596 75.9561 92.0376 75.8881 91.7306 75.8261C91.2976 75.7391 90.8646 75.6521 90.4316 75.5651C89.7156 75.4211 88.9796 75.2771 88.2606 75.4071C87.5426 75.5361 86.8746 76.0161 86.6456 76.7101C86.2936 77.7811 86.6886 78.1101 87.2166 78.0571Z" fill="#1A1919"/>
<path fill-rule="evenodd" clip-rule="evenodd" d="M97.2805 87.3686C97.2875 87.4946 97.3005 87.6226 97.3485 87.7396C97.4485 87.9816 97.6945 88.1426 97.9515 88.1956C98.3345 88.2746 98.7465 88.1336 99.0285 87.8636C99.3115 87.5936 99.4685 87.2066 99.4935 86.8166C99.5355 86.1616 99.0375 85.1936 98.2445 85.3976C97.4815 85.5956 97.2465 86.7226 97.2805 87.3686Z" fill="#1A1919"/>
<path fill-rule="evenodd" clip-rule="evenodd" d="M90.7881 84.1938C90.4061 83.6468 89.8721 83.9138 89.6101 84.2498C89.4621 84.4408 89.4001 84.6848 89.3741 84.9248C89.3451 85.1938 89.3601 85.4748 89.4761 85.7198C89.5911 85.9648 89.8221 86.1658 90.0921 86.1918C90.5421 86.2338 90.9031 85.7888 90.9971 85.3458C91.0881 84.9248 91.0051 84.5668 90.7881 84.1938Z" fill="#1A1919"/>
<path fill-rule="evenodd" clip-rule="evenodd" d="M102.418 73.4995C100.168 73.9435 97.8706 74.1515 95.5766 74.1205C93.7236 74.0945 91.7446 73.8615 90.3226 72.6715C88.7766 71.3785 88.2406 69.0175 89.0766 67.1835C89.2906 66.8415 89.9986 67.7965 90.4586 68.1035C91.1766 66.9585 91.3376 66.4165 91.6306 66.6405C92.8916 67.6985 94.7736 66.8995 96.2606 66.1935C99.2126 64.7915 102.541 63.8895 105.749 64.5095C108.958 65.1295 112.523 67.3175 113.03 70.5455C113.125 71.1485 113.145 71.7935 113.478 72.3045C113.712 72.6635 114.085 72.9005 114.411 73.1795C116.327 74.8165 116.785 76.3885 115.937 79.5435C115.821 79.9715 115.522 78.5975 115.104 78.4515C113.158 77.7715 110.792 76.9505 109.472 79.6195C109.002 80.5755 108.565 80.2905 108.456 79.8545C108.346 79.4195 108.513 78.9685 108.652 78.5415C108.887 77.8205 109.046 77.0615 108.975 76.3065C108.615 72.4695 105.16 72.9585 102.418 73.4995Z" fill="#1A1919"/>
<path fill-rule="evenodd" clip-rule="evenodd" d="M111.446 101.71C111.511 102.3 109.807 102.028 109.358 101.535C108.76 100.837 109.59 102.882 108.8 103.364C108.636 103.465 108.436 103.477 108.244 103.48C106.683 103.503 104.773 103.255 104.183 101.811C104.022 101.417 103.991 100.982 103.987 100.557C103.94 95.6214 107.213 91.3444 110.388 87.5654C111.632 86.0854 113.547 84.3764 115.57 85.6734C116.987 86.5824 116.79 88.2074 116.342 89.6274C115.046 93.7404 110.687 97.0644 111.446 101.71Z" fill="#1A1919"/>
<path fill-rule="evenodd" clip-rule="evenodd" d="M112.684 90.9043C112.73 91.9663 112.839 93.0703 113.402 93.9713C114.46 95.6683 116.989 96.0733 118.712 95.0593C120.436 94.0443 121.319 91.9223 121.192 89.9253C121.065 87.9293 120.056 86.0713 118.732 84.5723C118 83.7423 117.153 82.9823 116.677 81.9833C116.08 80.7273 116.108 79.1713 115.213 78.1063C114.219 76.9223 112.286 76.8123 110.999 77.6713C108.77 79.1613 108.725 82.3953 109.88 84.5673C110.314 85.3823 111.023 85.9263 111.577 86.6513C112.552 87.9283 112.618 89.3543 112.684 90.9043Z" fill="#C6C9CA"/>
<path fill-rule="evenodd" clip-rule="evenodd" d="M115.845 85.2446C116.963 86.1366 118.022 87.1956 118.496 88.5436C118.971 89.8926 118.714 91.5836 117.574 92.4466C117.07 92.8276 116.391 93.0186 115.791 92.8206C115.321 92.6646 114.949 92.2896 114.692 91.8676C113.895 90.5566 114.079 88.8366 113.34 87.4936C112.896 86.6836 112.105 85.9306 112.252 85.0186C112.773 85.4516 113.293 85.8836 113.813 86.3156C113.891 86.3806 113.988 86.4496 114.084 86.4216C114.16 86.3996 114.208 86.3236 114.237 86.2486C114.464 85.6376 113.819 85.0836 113.282 84.7116C112.513 84.1796 111.449 83.2356 111.663 82.1846C112.46 82.0626 112.894 82.9126 113.415 83.3646C114.19 84.0346 115.044 84.6066 115.845 85.2446Z" fill="#989EA0"/>
<path fill-rule="evenodd" clip-rule="evenodd" d="M96.3279 102.943C96.3489 102.818 96.3699 102.69 96.4379 102.584C96.5069 102.478 96.6379 102.401 96.7589 102.438C96.8329 102.46 96.8899 102.518 96.9429 102.575C97.1459 102.793 97.3629 103.039 97.3699 103.337C97.3739 103.524 97.2929 103.702 97.2079 103.869C96.7579 104.75 96.1199 105.607 95.3359 106.218C95.3499 105.764 95.7079 105.27 95.8519 104.84C96.0599 104.222 96.2189 103.587 96.3279 102.943Z" fill="#989EA0"/>
<path fill-rule="evenodd" clip-rule="evenodd" d="M97.9671 102.189C98.0021 102.291 98.0401 102.397 98.1181 102.472C98.1961 102.546 98.3291 102.576 98.4131 102.508C98.4791 102.453 98.4941 102.358 98.5031 102.272C98.5471 101.838 98.5501 101.386 98.3871 100.981C98.2241 100.576 97.8641 100.226 97.4291 100.185C97.1411 100.157 96.8521 100.267 96.6191 100.439C96.4871 100.537 96.3611 100.671 96.3521 100.835C96.3491 100.882 96.3591 100.932 96.3921 100.964C96.4301 100.999 96.4871 101.001 96.5391 101.002C96.9411 101.002 97.2211 100.96 97.5091 101.273C97.7401 101.526 97.8591 101.871 97.9671 102.189Z" fill="#989EA0"/>
<path fill-rule="evenodd" clip-rule="evenodd" d="M101.454 82.4971C101.47 82.1681 101.308 81.7811 100.984 81.7311C100.786 81.7021 100.596 81.8081 100.423 81.9091C99.8878 82.2231 99.3268 82.5361 98.7168 82.6791C98.3958 82.7551 98.0048 82.7171 97.6518 82.7591C97.0648 82.7611 96.4768 82.7621 95.8898 82.7641C95.7208 82.7641 95.5398 82.7681 95.3988 82.8621C95.1228 83.0461 95.1578 83.4951 95.3848 83.7381C95.6118 83.9801 95.9558 84.0671 96.2818 84.1351C97.0848 84.3021 97.8988 84.4181 98.7178 84.4821C99.6608 84.5551 100.721 84.5051 101.397 83.8651C101.404 83.8611 101.416 83.8561 101.42 83.8521C101.612 83.7011 101.869 83.2301 101.882 82.9861C101.893 82.7421 101.698 82.4811 101.454 82.4971Z" fill="#1A1919"/>
<path fill-rule="evenodd" clip-rule="evenodd" d="M110.26 66.6768C110.161 63.6478 110.007 60.6188 109.686 57.6048C109.489 55.7528 109.228 53.9078 108.968 52.0638C108.463 48.4778 107.957 44.8918 107.452 41.3058C107.371 40.7378 107.239 40.0898 106.739 39.8078C105.577 39.1538 105.314 45.1168 105.206 45.9548C105.102 46.7668 105.01 47.5808 104.924 48.3968C106.128 50.1248 106.84 50.1128 106.84 50.3168C106.84 50.4948 106.141 50.7868 104.708 50.6088C104.608 51.7238 104.517 52.8418 104.434 53.9598C104.909 55.4118 105.449 56.1398 106.7 56.9748C106.992 57.3268 105.672 57.4828 104.92 57.3168C104.586 57.2428 104.328 57.0638 104.227 56.9238L104.226 56.9228C104.161 57.8968 104.097 58.8708 104.031 59.8438V59.8418C104.448 61.4168 105.227 62.6148 106.887 63.5308C107.336 63.7088 105.032 64.3108 103.798 63.1238C103.798 63.1218 103.797 63.1188 103.797 63.1188C103.771 63.4528 103.747 63.7888 103.72 64.1238C103.595 65.6778 103.476 67.2868 104.002 68.7548C104.648 70.5568 106.297 71.9608 108.179 72.3118C111.512 72.9318 110.327 68.7348 110.26 66.6768Z" fill="#C6C9CA"/>
<path fill-rule="evenodd" clip-rule="evenodd" d="M98.1746 86.5879C98.1906 86.6409 98.2136 86.6929 98.2476 86.7359C98.3206 86.8259 98.4436 86.8709 98.5576 86.8559C98.6726 86.8409 98.7776 86.7709 98.8406 86.6729C98.8716 86.6269 98.8926 86.5739 98.9086 86.5209C98.9526 86.3679 98.9486 86.1949 98.8696 86.0569C98.7576 85.8629 98.4966 85.7679 98.3326 85.9429C98.1756 86.1119 98.1086 86.3649 98.1746 86.5879Z" fill="#383A39"/>
<path fill-rule="evenodd" clip-rule="evenodd" d="M90.1631 84.4629C90.0731 84.5689 90.0521 84.7219 90.0861 84.8569C90.1041 84.9309 90.1401 85.0029 90.1951 85.0539C90.2511 85.1069 90.3301 85.1369 90.4051 85.1249C90.4771 85.1139 90.5391 85.0659 90.5801 85.0059C90.6221 84.9469 90.6451 84.8769 90.6621 84.8059C90.6751 84.7519 90.6841 84.6959 90.6831 84.6399C90.6721 84.3529 90.3541 84.2389 90.1631 84.4629Z" fill="#383A39"/>
</svg>
