<svg width="356" height="405" viewBox="0 0 356 405" fill="none" xmlns="http://www.w3.org/2000/svg">
<path d="M178.674 218.93C178.371 216.416 179.03 213.881 180.519 211.833C182.255 209.643 184.497 207.907 187.053 206.775C195.399 202.957 204.791 202.027 213.889 202.027C217.777 202.027 221.517 202.321 225.323 202.549C229.128 202.777 232.804 202.712 236.495 203.071C241.229 203.388 245.817 204.837 249.872 207.297C251.629 208.557 253.021 210.259 253.904 212.231C254.788 214.203 255.133 216.374 254.903 218.522C254.756 221.492 254.446 224.298 252.126 226.354C249.807 228.409 247.34 228.377 244.596 228.54C239.386 228.821 234.161 228.531 229.014 227.675C220.602 226.288 213.04 222.389 204.383 222.079C201.654 222.138 198.924 221.996 196.216 221.655C194.924 221.393 193.613 221.229 192.296 221.165C190.479 221.178 188.674 221.458 186.939 221.997C185.596 222.552 184.161 222.851 182.708 222.878C181.859 222.781 178.608 221.916 178.608 218.914" fill="#F86775"/>
<path d="M186.563 209.255C198.111 203.218 209.855 204.36 218.904 204.36C242.571 204.36 247.014 207.085 249.611 209.907C252.306 213.611 248.076 218.538 235.646 221.084C227.675 222.715 212.779 221.965 204.71 220.904C197.474 219.942 181.173 215.797 181.451 213.154" fill="#8B262D"/>
<path d="M266.73 8.24422C263.994 8.69983 261.235 9.00485 258.465 9.1579C254.071 9.1579 250.625 7.2979 246.623 5.51948C243.474 4.04666 240.199 2.85637 236.839 1.96264C228.444 -0.354201 217.239 1.73422 209.66 5.56843C191.562 14.7542 190.37 31.1353 188.932 49.6211C188.295 57.9095 190.566 65.5942 192.02 73.6868C199.419 116.744 197.818 138.95 197.818 165.333C197.818 183.998 194.355 204.654 196.266 223.188C197.279 232.978 203.992 265.512 220.554 261.987C227.839 260.437 236.627 241.119 238.178 233.81C243.716 207.705 261.144 139.57 266.632 80.7842C267.612 71.8422 267.722 62.8263 266.958 53.8632C266.266 45.8914 264.895 37.9931 262.859 30.2542C264.16 29.768 265.216 28.7889 265.799 27.5295C266.118 26.8593 266.239 26.1124 266.15 25.3759C266.06 24.6393 265.763 23.9433 265.292 23.369C263.92 21.7374 262.026 20.7911 261.552 19.0453C263.077 19.3511 264.656 19.2529 266.132 18.7606C267.607 18.2683 268.929 17.399 269.964 16.239C273.067 12.4211 271.434 7.73843 266.73 8.24422Z" fill="white"/>
<path d="M335.999 260V404H45.0312C45.5539 383.981 62.9003 309.825 68.4701 280.196C69.4991 274.697 73.9255 270.406 84.1504 266.017C115.349 253.188 147.7 243.354 180.764 236.649C184.684 235.866 238.128 235.278 250.525 236.486C258.071 237.187 318.506 251.548 335.999 260Z" fill="#E7A617"/>
<path d="M249.611 209.761C259.085 212.11 254.512 232.032 253.385 241.919C252.799 247.668 251.672 253.349 250.02 258.887C247.847 265.055 243.666 268.481 242.212 275.073C240.938 280.848 239.746 286.722 238.26 292.498C235.45 303.478 234.307 313.219 232.298 325.701C229.962 340.254 219.508 389.332 212.371 389.332C205.494 389.593 189.503 374.142 189.111 282.382C189.111 276.525 188.817 268.334 186.727 265.218C181.386 257.24 180.455 245.117 179.589 235.735C177.956 217.69 176.6 212.404 186.547 209.32C183.819 211.343 184.44 213.627 189.716 216.189C194.485 218.49 203.926 220.284 209.186 220.496C238.178 221.736 254.005 216.711 249.595 209.826" fill="#F84675"/>
<path d="M0 383.768C36.9631 383.768 142.805 382.594 157.734 383.866C179.409 385.71 212.24 393.248 220.962 404.016H0C0 397.49 0 392.726 0 383.785" fill="black"/>
<path d="M228.801 25.8001C228.127 26.4722 227.608 27.2833 227.281 28.1767C226.953 29.0702 226.826 30.0243 226.906 30.9722C226.906 32.6854 227.494 35.4264 229.454 35.867C231.986 36.5196 233.44 33.5012 233.717 31.4454C233.909 30.5918 233.926 29.7086 233.769 28.8481C233.612 27.9877 233.283 27.1675 232.803 26.4364C232.592 26.121 232.319 25.8515 232.001 25.6443C231.683 25.4371 231.326 25.2964 230.952 25.2308C230.578 25.1653 230.195 25.1761 229.825 25.2628C229.455 25.3494 229.107 25.51 228.801 25.7349" fill="black"/>
<path d="M201.443 24.8048C200.805 24.9249 200.209 25.2057 199.711 25.6206C199.13 26.2055 198.699 26.9219 198.454 27.709C198.008 29.3632 198.064 31.1125 198.617 32.7343C198.752 33.3583 199.106 33.9135 199.616 34.2995C200.125 34.6855 200.756 34.8768 201.394 34.839C202.798 34.839 203.403 33.6643 203.86 32.4569C204.57 30.6919 204.679 28.7425 204.17 26.9095C203.778 25.7185 202.798 24.5111 201.459 24.7885" fill="black"/>
<path d="M225.176 22.0475C224.8 22.1617 224.473 22.2596 223.967 22.4554C223.374 22.6879 222.801 22.9661 222.252 23.2875C221.958 23.4507 220.814 24.038 220.814 24.4296C220.814 25.0986 222.35 24.6907 222.709 24.5765C224.168 24.0107 225.694 23.6377 227.25 23.467C228.286 23.4252 229.323 23.5129 230.337 23.728C230.86 23.8259 232.983 24.5601 232.787 23.6301C232.619 23.298 232.342 23.0331 232.003 22.8796C230.882 22.3379 229.688 21.9641 228.459 21.7701C227.361 21.6795 226.256 21.7789 225.192 22.0638" fill="black"/>
<path d="M197.948 22.2105L196.641 22.6348C196.192 22.7811 195.764 22.984 195.367 23.2384C194.975 23.4832 193.619 24.3316 194.485 24.7395C195.35 25.1474 196.82 24.4948 197.67 24.2827C198.734 23.9836 199.831 23.8192 200.937 23.7932C201.722 23.8351 202.503 23.9387 203.272 24.1032C204.056 24.2174 204.465 23.6953 203.762 23.2058C202.651 22.421 201.318 22.0096 199.957 22.0311C199.261 22.054 198.568 22.1249 197.882 22.2432" fill="black"/>
<path d="M331.884 284.356C331.73 289.294 331.134 294.209 330.103 299.041C328.388 306.627 326.216 313.154 324.158 320.251C321.071 330.873 317.968 340.042 315.044 350.68C312.841 358.564 311.117 366.573 309.882 374.664C309.18 379.559 306.044 391.355 306.91 391.486C307.236 391.567 310.176 378.841 311.107 374.371C312.038 369.9 313.182 365.805 314.096 361.514C315.73 354.204 317.363 346.83 319.601 339.651C324.615 323.547 331.034 307.101 332.668 290.279C333.006 287.398 332.962 284.485 332.537 281.615C332.21 280.49 331.949 283.524 331.884 284.324" fill="#FF8000"/>
<path d="M126.816 264.973C125.182 264.614 130.589 283.9 132.189 293.085C133.823 302.777 136.649 317.836 137.694 317.69C138.772 317.037 134.917 297.197 132.794 287.848C131.16 280.832 127.894 266.344 126.799 265.006" fill="#FF8000"/>
<path d="M110.236 335.474C111.575 339.194 117.194 355.053 118.255 354.221C119.186 353.698 114.989 343.436 112.702 336.795C110.236 329.372 103.31 304.441 101.987 306.432C101.464 308.275 108.374 329.388 110.154 335.474" fill="#FF8000"/>
<path d="M79.1375 283.899C78.3372 282.447 116.166 270.847 126.064 267.926C138.51 264.19 160.087 256.195 161.623 257.762C162.423 258.953 79.6602 285.221 79.1375 283.867" fill="#FF8000"/>
<path d="M112.359 296.659C111.918 295.908 120.052 293.395 123.025 292.351C127.745 290.72 153.03 281.925 153.291 282.97C153.553 284.014 147.983 285.874 144.079 287.065C139.636 288.419 113.045 298.16 112.359 296.659Z" fill="#FF8000"/>
<path d="M117.063 334.201C112.833 335.914 103.539 339.096 105.042 339.618C106.544 340.14 117.749 335.18 123.156 333.092C128.562 331.003 143.916 324.51 144.112 323.514C143.769 322.796 136.5 326.223 131.045 328.735C127.566 330.367 121.245 332.7 117.03 334.152" fill="#FF8000"/>
<path d="M291.996 252.916C289.71 252.655 284.777 250.093 284.418 250.664C284.107 251.774 291.539 254.205 294.218 255.38C298.488 257.209 302.882 258.735 307.366 259.948C315.762 262.281 323.341 265.707 332.259 267.992C335.281 268.742 325.84 264.973 322.328 263.374C318.816 261.775 314.962 260.552 311.352 259.067C308.085 257.729 295.541 254.172 291.964 252.9" fill="#FF8000"/>
<path d="M325.466 307.737C315.943 303.576 292.945 293.607 292.096 294.472C290.642 295.989 313.444 304.376 318.834 306.383C325.645 308.928 325.711 309.76 332.489 311.897C333.812 312.419 336.523 313.023 333.42 311.571C330.97 310.445 328.52 309.124 325.482 307.737" fill="#FF8000"/>
<path d="M288.388 381.158C297.132 385.067 306.387 387.715 315.877 389.022C324.044 390.279 333.73 393.77 331.198 393.379C326.102 390.899 305.277 387.978 301.193 386.983C296.572 386.045 292.125 384.394 288.012 382.088C286.526 381.256 287.244 380.734 288.371 381.191" fill="#FF8000"/>
<path d="M328.504 373.751C325.531 382.79 318.328 399.105 318.899 399.366C319.471 399.627 323.914 388.125 326.233 382.838C328.128 378.515 331.607 368.399 330.921 368.269C330.284 367.795 329.288 371.532 328.504 373.734" fill="#FF8000"/>
<path d="M307.221 276.574C304.559 285.009 302.043 292.106 298.76 300.346C297.241 304.164 293.272 313.088 294.301 313.529C294.987 313.953 298.401 304.262 299.479 301.406C301.112 297.148 302.876 292.971 304.379 288.647C306.606 282.961 308.29 277.078 309.41 271.075C308.675 270.243 308.136 274.338 307.221 276.574Z" fill="#FF8000"/>
<path d="M262.858 30.287C262.435 28.8397 261.889 27.4313 261.225 26.0775C262.268 27.1774 263.089 28.4682 263.642 29.8791C263.332 30.0749 263.07 30.1075 262.776 30.2707" fill="#F2F2F2"/>
<path d="M200.299 219.24C209.498 220.211 218.781 220.09 227.952 218.881C233.62 218.18 239.385 216.988 242.244 215.536C242.146 216.434 241.852 217.168 241.672 218.18C235.331 219.677 228.847 220.486 222.333 220.594C211.357 220.953 203.435 220.072 200.299 219.224" fill="#F2F2F2"/>
<path d="M161.557 267.731C157.115 284.879 153.211 302.141 150.499 316.091C149.062 323.465 148.735 328.311 150.646 331.819C152.28 334.935 159.058 344.007 160.626 345.068C170.557 347.531 185.682 353.666 194.927 357.109C194.061 353.013 193.8 350.582 193.081 346.52C192.575 343.648 192.248 340.418 191.824 336.73C191.17 331.297 190.37 322.323 190.19 316.858C189.684 304.311 189.423 293.689 189.129 279.821C188.998 273.294 188.769 270.651 187.757 267.046C186.989 264.337 185.699 263.978 184.196 260.128C182.199 254.361 180.883 248.382 180.276 242.311C180.096 240.859 179.688 235.344 179.312 232.358C177.871 233.624 176.517 234.987 175.261 236.437C168.826 243.29 164.334 257.011 161.557 267.731Z" fill="#FF8000"/>
<path d="M235.565 303.071C237.312 291.323 241.428 275.481 243.601 270.961C246.426 265.071 250.379 260.633 251.768 252.214C252.601 247.205 254.234 235.752 255.034 228.654C259.33 229.47 263.397 237.4 265.913 243.159C267.546 246.944 284.696 314.949 287.653 333.467C288.11 336.339 291.393 345.263 285.529 353.144C278.359 362.77 255.034 386.151 246.018 395.141C241.967 390.425 237.214 386.085 221.518 372.38C227.372 349.529 232.06 326.396 235.565 303.071Z" fill="#FF8000"/>
<path d="M208.123 38.2001C211.994 36.9275 216.208 38.5754 219.704 40.6638C223.199 42.7522 226.531 45.3628 230.5 46.2438C234.208 47.0596 238.553 46.4559 241.378 49.0012C242.205 49.7926 242.815 50.7827 243.15 51.8767C243.484 52.9708 243.532 54.1322 243.29 55.2501C243.028 56.3614 242.531 57.4038 241.832 58.3072C241.133 59.2106 240.249 59.954 239.239 60.4875C237.246 61.3288 235.179 61.9843 233.065 62.4454C229.459 63.8124 226.104 65.7638 223.134 68.2212C217.005 72.9139 210.625 77.2712 204.023 81.2738C201.299 82.8913 198.278 83.9455 195.138 84.3738C174.753 87.017 173.822 75.2206 173.822 72.1696C150.433 70.538 144.863 62.1843 144.095 58.6601C143.197 54.5485 147.166 50.747 151.298 49.8985C155.431 49.0501 159.661 50.1759 163.859 50.6001C172.467 51.4649 182.79 52.0033 193.929 48.1528C199.924 46.1133 202.227 40.158 208.123 38.2001Z" fill="#E7B417"/>
<path d="M180.83 67.5848C181.295 67.4229 181.793 67.3769 182.28 67.4508C182.766 67.5247 183.228 67.7164 183.624 68.009C184.457 68.5475 185.126 69.2817 185.927 69.8527C189.112 72.1696 193.783 71.9248 197.638 71.1417C201.868 70.2769 205.903 66.8506 205.903 67.6501C205.903 68.7106 203.42 71.2885 197.572 72.9038C194.649 73.7196 191.039 72.4959 188.491 74.1927C187.119 75.1227 186.139 76.5422 184.8 77.4559C184.175 78.0027 183.38 78.3175 182.55 78.3473C181.72 78.377 180.905 78.1198 180.242 77.619C179.164 76.4933 179.344 74.4701 178.086 73.5727C177.123 72.8712 174.166 73.018 175.13 72.349C178.74 72.3654 178.152 68.8085 180.83 67.5848Z" fill="#FF8000"/>
<path d="M216.569 49.3927C216.773 49.802 217.072 50.1564 217.442 50.4261C217.811 50.6958 218.24 50.873 218.693 50.9427C219.044 50.9941 219.403 50.9371 219.722 50.7795C220.02 50.5759 220.258 50.2957 220.41 49.9683C220.563 49.641 220.624 49.2787 220.587 48.9195C220.584 48.1381 220.32 47.3801 219.836 46.7658C219.281 46.0969 217.941 45.1343 217.076 45.7053C215.965 46.3743 216.079 48.43 216.569 49.3927Z" fill="#FF8000"/>
<path d="M204.302 42.4421C204.674 42.1358 204.932 41.7138 205.036 41.2435C205.139 40.7733 205.082 40.2819 204.874 39.8479C203.714 40.5777 202.664 41.4675 201.754 42.4911C202.109 42.8009 202.566 42.9675 203.037 42.9585C203.509 42.9494 203.959 42.7653 204.302 42.4421Z" fill="#FF8000"/>
<path d="M197.474 49.2622C197.15 49.5072 196.896 49.8337 196.739 50.2085C196.665 50.3959 196.644 50.6003 196.678 50.799C196.713 50.9977 196.802 51.1829 196.935 51.3343C197.18 51.546 197.493 51.6619 197.817 51.6606C199.14 51.6606 201.084 50.6164 200.97 49.099C200.904 47.0595 198.275 48.5932 197.474 49.2622Z" fill="#FF8000"/>
<path d="M213.039 43.4211C213.341 43.3169 213.605 43.1271 213.799 42.8748C213.993 42.6226 214.11 42.3191 214.134 42.0016C214.166 41.3665 213.994 40.7377 213.644 40.2069C212.876 38.9016 211.226 38.6895 210.998 40.3537C210.834 41.4958 211.292 43.829 213.039 43.4211Z" fill="#FF8000"/>
<path d="M208.01 48.1201C208.034 48.3728 208.109 48.6182 208.229 48.8417C208.35 49.0653 208.514 49.2627 208.711 49.4222C208.909 49.5817 209.137 49.7002 209.381 49.7708C209.625 49.8414 209.881 49.8626 210.133 49.8333C210.63 49.7275 211.071 49.4431 211.372 49.0341C211.673 48.6251 211.814 48.1198 211.767 47.6143C211.505 45.0527 207.912 45.6401 208.01 48.1201Z" fill="#FF8000"/>
<path d="M204.905 56.9142C205.047 57.5783 205.439 58.1625 206 58.5458C206.247 58.7172 206.534 58.8238 206.833 58.8558C207.813 58.8558 208.564 57.8279 208.466 56.7347C208.473 56.249 208.316 55.7751 208.019 55.3901C207.723 55.005 207.305 54.7314 206.833 54.6137C206.541 54.595 206.249 54.6452 205.98 54.7603C205.711 54.8754 205.473 55.0521 205.286 55.2761C205.098 55.5002 204.966 55.7652 204.9 56.0498C204.834 56.3344 204.836 56.6305 204.905 56.9142Z" fill="#FF8000"/>
<path d="M181.973 50.8611C181.959 51.158 182.026 51.4531 182.167 51.7148C182.308 51.9765 182.518 52.1947 182.774 52.3459C183.018 52.4338 183.283 52.4514 183.537 52.3966C183.791 52.3418 184.025 52.2168 184.211 52.0359C184.396 51.8293 184.534 51.5854 184.616 51.3207C184.697 51.056 184.721 50.7768 184.685 50.5022C183.656 50.6001 182.855 50.7469 181.957 50.8775" fill="#FF8000"/>
<path d="M251.766 404C245.142 393.738 236.864 384.641 227.266 377.079C220.128 371.336 213.611 364.826 206.473 359.132C199.335 353.438 192.41 347.711 184.814 342.685C174.715 335.941 162.858 332.299 150.71 332.211C143.425 332.211 136.009 332.814 128.725 333.304C120.881 333.828 113.083 334.886 105.384 336.469C100.974 337.383 96.041 338.9 94.1463 342.995C92.2516 347.091 94.2606 351.806 97.5764 354.596C100.892 357.386 105.286 358.528 109.533 359.409C117.524 361.066 125.635 362.086 133.788 362.46C129.786 365.984 125.164 368.986 122.159 373.375C119.153 377.764 118.32 384.34 122.159 388.06C124.274 389.862 126.878 390.998 129.639 391.323C135.128 392.373 140.762 392.417 146.267 391.453C146.762 392.907 147.56 394.241 148.607 395.365C149.654 396.49 150.927 397.381 152.343 397.98C158.142 400.704 163.613 400.46 169.918 400.558C176.223 400.655 182.07 400.558 193.716 401.014C196.983 401.145 204.284 402.483 206.048 403.968L251.766 404Z" fill="white"/>
<path d="M205.494 368.187C208.108 369.541 203.959 366.05 195.825 364.598C193.163 364.124 189.569 364.206 188.654 367.306C187.021 372.576 194.649 375.464 197.573 377.862C193.914 379.624 196.756 385.172 198.961 387.064C200.138 388.117 201.516 388.921 203.012 389.429C204.508 389.936 206.091 390.136 207.667 390.017C204.987 388.856 202.532 387.232 200.415 385.221C197.85 382.594 197.148 380.114 199.565 378.237C198.634 377.307 190.958 373.441 193.228 369.362C195.221 365.805 202.832 366.099 205.494 368.187Z" fill="#F2F2F2"/>
<path d="M157.619 354.335C156.3 354.565 155.019 354.977 153.814 355.559C152.051 356.267 150.483 357.386 149.24 358.822C148.549 359.621 148.129 360.618 148.041 361.671C147.953 362.723 148.201 363.776 148.75 364.679C151.021 368.22 155.97 368.383 159.661 368.905C155.676 370.39 147.558 375.431 148.587 375.692C149.502 375.562 154.157 373.31 156.835 372.201C159.644 371.017 162.538 370.047 165.492 369.296C166.946 368.97 161.67 367.665 159.661 367.094C157.178 366.441 154.418 366.001 152.948 363.537C150.073 358.642 158.077 355.183 161.588 354.106C162.372 353.78 158.877 354.106 157.587 354.4" fill="#F2F2F2"/>
<path d="M173.055 385.481C171.634 383.36 172.679 381.011 172.549 378.123C169.962 379.491 167.67 381.354 165.803 383.605C165.378 384.274 168.71 381.876 170.196 381.093C169.863 382.245 169.838 383.465 170.125 384.631C170.411 385.796 170.999 386.866 171.83 387.733C173.741 389.511 178.445 389.528 180.944 388.549C177.808 388.549 174.77 388.076 173.055 385.481Z" fill="#F2F2F2"/>
<path d="M144.537 337.888C142.12 337.203 137.53 339.7 137.106 342.196C136.599 345.182 140.487 346.862 142.904 346.471C143.214 346.144 138.314 344.398 138.902 341.576C139.556 338.443 144.897 337.97 144.521 337.856" fill="#F2F2F2"/>
<path d="M35.1504 327.952C40.6222 327.202 46.0286 330.253 50.455 333.532C54.8815 336.812 58.6219 340.891 63.277 343.974C71.9338 349.799 82.616 351.594 92.9226 353.258C93.4616 353.34 93.6739 354.058 93.6739 354.612C93.761 365.228 93.4616 375.834 92.7756 386.428C92.8067 388.032 92.3511 389.607 91.4689 390.948C90.3637 392.091 88.9319 392.866 87.3691 393.166C80.0733 395.29 72.5616 396.587 64.9757 397.033C63.6938 397.199 62.391 397.065 61.1699 396.642C59.9656 396.023 58.9543 395.086 58.2462 393.933C52.9378 386.412 52.3171 376.639 48.887 368.089C48.2663 366.458 47.5313 365.005 46.9106 363.423C46.29 361.84 45.7673 360.16 45.2773 358.528C42.0922 348.526 38.3681 338.019 35.1504 327.952Z" fill="#8AD2D4"/>
<path d="M32.2598 322.193C34.6771 330.905 49.3285 373.18 51.0925 378.058C52.8565 382.936 54.2286 387.554 56.2049 392.024C57.4463 394.831 59.7657 397.767 63.0814 398.094C66.3971 398.42 70.1376 397.082 73.3716 396.56C77.602 395.875 81.7671 395.075 85.8505 393.999C89.934 392.922 94.2461 393.117 94.3114 388.598C94.3931 382.072 94.3114 336.502 94.0501 328.719C93.8704 322.193 94.4094 319.256 93.658 314.639C93.6798 313.193 93.2455 311.777 92.4167 310.592C91.2243 309.385 88.9866 309.303 87.4349 309.222C82.4544 309.123 77.4762 309.511 72.5713 310.38C64.4588 311.62 56.4295 313.353 48.5281 315.569C45.2614 316.466 41.5863 317.347 38.3686 318.277C36.2288 318.897 31.5247 320.121 32.5048 320.839C34.1381 320.577 44.657 317.853 50.8802 316.221C57.9853 314.345 66.0215 312.958 73.2736 311.767C76.9572 311.141 80.6788 310.765 84.4132 310.641C87.4839 310.543 91.1753 310.364 91.698 313.007C92.4003 316.662 92.1553 332.863 92.2043 336.697C92.3023 344.855 92.874 381.37 92.2043 386.379C91.5347 391.388 86.3079 392.465 82.0775 392.661C76.0667 392.954 71.5586 391.992 64.2248 394.863C60.7947 396.217 58.655 392.889 57.2013 389.349C55.0126 384.079 53.6242 378.123 51.3702 372.837C47.6194 364.035 44.3479 355.038 41.57 345.883C40.2469 341.56 38.3032 337.481 37.2089 333.092C36.2615 329.225 34.4158 325.701 33.2888 321.997C32.9784 321.638 32.1781 321.1 32.2924 322.209" fill="white"/>
<path d="M41.2756 332.374C39.4463 331.868 43.3663 330.873 44.5424 330.579C47.9398 329.698 64.9105 326.549 69.9086 325.945C71.9666 325.701 88.9863 323.743 87.2713 325.211C85.9156 326.37 73.11 327.283 69.8269 327.626C62.2481 328.442 44.624 331.835 41.3736 332.358" fill="white"/>
<path d="M54.8963 341.674C56.399 346.96 57.134 350.044 58.4897 354.596C60.4987 361.302 64.2718 375.806 65.3008 379.445C65.7255 380.913 67.1138 385.237 65.9378 385.824C64.9741 386.118 62.1484 376.035 61.6421 374.142C60.3354 369.345 52.0869 339.977 53.4752 339.488C53.8672 339.21 54.6023 340.238 54.9616 341.657" fill="white"/>
<path d="M75.7386 329.812C74.6769 330.726 75.9836 340.646 76.2122 343.518C77.8456 363.194 78.3356 367.322 79.1196 367.126C79.9037 366.931 77.8783 345.916 77.8293 342.31C77.8293 339.977 77.2413 329.16 75.7386 329.812Z" fill="white"/>
<path d="M197.883 304.278C197.507 299.498 197.425 296.887 197.344 292.384C197.344 288.289 197.131 284.226 196.723 280.114C196.364 276.427 195.563 269.721 194.453 266.931C189.926 254.573 187.594 241.52 187.56 228.361C187.549 226.285 187.702 224.212 188.017 222.161C188.458 219.811 190.826 217.527 190.516 217.266C188.883 216.369 186.678 219.681 186.678 224.168C186.678 236.404 186.955 249.049 191.284 260.503C191.741 261.694 192.378 263.211 192.917 264.5C194.747 268.563 195.269 276.248 195.433 278.891C195.661 282.546 196.102 285.988 196.331 289.643C196.788 296.806 197.033 304.164 197.491 311.327C198.307 324.232 199.01 338.884 198.471 352.638C198.601 352.785 198.814 352.883 198.993 353.046C198.993 340.499 200.022 328.719 198.503 313.594C198.275 310.739 198.111 307.199 197.883 304.278Z" fill="#F9838D"/>
<path d="M231.84 251.953C231.301 246.422 231.252 240.858 230.942 235.295C230.819 231.865 230.514 228.445 230.027 225.048C229.956 224.267 229.704 223.513 229.292 222.846C228.982 222.422 228.361 221.85 228.051 222.046C227.741 222.242 228.851 224.885 229.129 226.19C229.426 227.807 229.601 229.443 229.652 231.085C230.142 240.304 231.056 251.447 230.55 258.822C230.351 261.308 229.98 263.778 229.439 266.213C228.116 271.108 227.806 274.371 227.561 282.447C226.891 304.637 220.946 360.518 222.007 360.518C223.069 360.518 224.915 335.098 225.748 324.77C226.14 319.876 226.63 314.981 226.94 309.809C227.169 305.877 228.247 276.525 230.207 267.714C230.354 267.29 230.501 266.784 230.632 266.213C231.726 261.544 232.134 256.74 231.84 251.953Z" fill="#F9838D"/>
<path d="M239.567 223.743C238.815 222.112 236.055 219.974 235.467 220.48C234.879 220.986 237.982 221.998 238.946 225.375C239.585 227.738 239.931 230.171 239.975 232.619C240.367 244.269 241.167 258.871 236.61 268.514L236.463 268.824C235.01 272.315 235.238 277.846 235.5 282.496C235.859 289.023 234.405 292.792 235.14 292.792C235.875 292.792 236.463 288.109 236.463 285.662C236.463 282.235 235.402 272.332 237.476 268.302C239.115 265.411 240.133 262.21 240.465 258.904C241.744 249.035 241.826 239.048 240.71 229.16C240.646 227.302 240.259 225.469 239.567 223.743Z" fill="#F9838D"/>
<path d="M248.648 220.774C248.47 219.847 248.001 219.001 247.309 218.359C246.345 217.429 244.646 217.25 245.675 218.114C248.452 220.725 248.436 223.368 248.436 227.17C248.436 243.893 246.508 256.75 247.733 256.538C248.55 256.293 250.412 232.228 248.648 220.774Z" fill="#F9838D"/>
<path d="M182.219 214.003C181.386 213.579 180.896 217.266 180.814 217.886C180.286 221.826 180.259 225.817 180.732 229.764C180.732 230.058 181.026 230.466 181.255 230.27C181.255 226.191 180.896 222.112 181.81 218.147C181.941 217.576 182.774 214.28 182.219 214.003Z" fill="#F9838D"/>
<path d="M203.108 281.175C203.108 280.212 203.729 272.642 202.341 268.367C202.297 268.132 202.215 267.905 202.096 267.698C201.992 267.448 201.866 267.208 201.72 266.98C199.568 262.817 198.321 258.247 198.061 253.568C197.815 251.376 197.455 249.197 196.983 247.042C196.607 245.101 196.379 242.49 196.085 240.516C195.306 236.129 195.053 231.665 195.333 227.218C195.431 225.287 195.788 223.377 196.395 221.541C196.82 220.578 198.371 219.158 197.832 219.158C194.958 219.158 194.435 227.757 194.402 229.649C194.498 236.706 195.302 243.735 196.803 250.632C197.604 254.955 197.522 258.789 199.188 263.684C199.708 265.113 200.394 266.476 201.23 267.747C202.863 271.271 201.965 284.536 202.243 288.256C202.929 297.197 203.288 306.791 203.598 315.764C203.745 319.843 203.86 323.922 203.598 328.001C203.19 337.562 202.324 354.204 203.37 354.4C204.415 354.596 203.484 338.835 204.497 328.295C205.297 320.023 204.497 311.375 203.974 303.071C203.598 295.647 203.533 288.484 203.108 281.175Z" fill="#F9838D"/>
<path d="M208.581 288.435C208.679 285.727 208.434 282.904 208.32 280.277C208.205 277.651 207.258 270.488 206.931 267.665C206.931 267.404 206.931 267.111 206.833 266.801C204.84 252.754 204.146 238.553 204.759 224.379C204.759 223.808 204.759 220.154 204.171 221.834C203.757 223.786 203.566 225.778 203.599 227.773C203.51 239.406 204.055 251.034 205.233 262.607C205.347 263.554 205.576 265.006 205.853 266.311C205.853 266.442 205.853 266.605 205.968 266.817C206.98 271.026 207.601 289.349 207.601 292.922L208.075 314.296C208.189 319.272 207.993 323.922 207.96 328.898C207.96 338.688 206.637 353.111 207.47 353.111C208.303 353.111 210.165 317.445 208.565 296.985C208.401 294.137 208.406 291.282 208.581 288.435Z" fill="#F9838D"/>
<path d="M212.6 266.735C212.91 262.004 212.959 253.112 212.861 248.086C212.698 239.928 212.861 230.775 212.044 224.347C211.783 222.03 210.411 221.084 210.754 222.552C212.485 233.174 211.424 261.416 211.816 268.334C211.816 275.546 212.142 288.484 212.257 296.185C212.404 305.355 212.861 315.046 212.943 324.216C212.943 328.017 212.943 331.819 212.73 335.637C212.42 339.977 212.077 359.327 211.93 363.667L212.502 364.173C214.658 335.833 213.024 287.489 212.6 266.784V266.735Z" fill="#F9838D"/>
<path d="M221.012 267.486C223.184 252.802 223.788 230.938 219.754 220.692C219.64 220.692 218.888 220.692 218.627 220.692C221.338 227.447 221.224 236.78 221.273 244.007C221.273 248.184 221.077 252.426 220.865 256.603C220.693 260.257 220.295 263.897 219.672 267.502C218.856 272.527 220.064 295.239 219.084 306.53C218.594 312.093 218.758 317.494 218.382 324.363C217.696 337.187 215.817 354.204 215.703 367.045C215.793 367.147 215.897 367.235 216.013 367.306C217.173 347.727 219.558 327.544 220.195 306.66C220.309 303.087 220.554 298.665 220.848 295.108C221.404 288.729 220.505 274.338 221.012 267.486Z" fill="#F9838D"/>
<path d="M261.339 348.526C262.219 348.873 263.154 349.056 264.1 349.065C266.483 349.27 268.857 348.571 270.748 347.107C271.664 346.356 272.305 345.321 272.568 344.166C272.831 343.011 272.702 341.801 272.201 340.727C271.695 339.972 271.026 339.34 270.243 338.877C269.46 338.414 268.583 338.132 267.677 338.052C265.047 337.66 260.996 338.362 259.249 340.613C258.806 341.253 258.507 341.981 258.372 342.747C258.238 343.513 258.271 344.299 258.469 345.051C258.668 345.803 259.028 346.503 259.523 347.103C260.018 347.703 260.638 348.189 261.339 348.526Z" fill="#FF8000"/>
<path d="M277.427 343.354C277.329 342.326 273.932 341.543 271.318 341.951C273.067 341.21 274.634 340.096 275.908 338.688C276.193 338.45 276.408 338.139 276.532 337.789C276.655 337.439 276.682 337.062 276.61 336.698C276.169 335.572 274.471 335.914 273.344 336.534C272.376 337.11 271.443 337.742 270.55 338.427C272.324 336.773 273.408 334.513 273.589 332.096C272.919 331.411 271.775 332.096 271.106 332.684C270.224 333.564 269.456 334.55 268.819 335.621C269.546 333.93 269.827 332.082 269.636 330.253C269.636 329.871 269.49 329.503 269.227 329.225C268.492 328.621 267.594 329.616 267.153 330.481C266.621 331.736 266.221 333.043 265.961 334.381C265.687 333.535 265.326 332.72 264.883 331.95C264.451 331.168 263.792 330.536 262.993 330.137C262.194 329.737 261.292 329.59 260.407 329.714C258.774 330.612 259.542 333.728 260.587 335.555C258.209 334.636 255.712 334.059 253.171 333.842C251.946 333.842 250.558 334.462 250.656 335.67C250.787 337.301 253.416 339.08 255.981 339.993C254.076 340.392 252.234 341.051 250.509 341.951C249.415 342.588 248.402 344.105 249.317 344.986C249.617 345.23 249.979 345.388 250.362 345.443C251.976 345.778 253.638 345.806 255.262 345.524C254.105 346.152 253.052 346.956 252.142 347.906C251.62 348.445 251.13 349.293 251.571 349.897C251.761 350.096 251.998 350.244 252.261 350.327C252.524 350.409 252.803 350.424 253.073 350.37C255.461 350.192 257.705 349.161 259.395 347.466C258.532 349.062 258.067 350.841 258.039 352.654C258.014 352.957 258.07 353.261 258.202 353.535C258.692 354.4 260.048 353.943 260.816 353.291C262.643 351.707 263.914 349.58 264.442 347.221C264.338 348.246 264.305 349.276 264.344 350.305C264.344 351.708 265.389 353.389 266.745 353.03C268.1 352.671 268.378 349.766 267.823 347.499C268.901 349.31 270.975 351.202 271.481 350.468C272.347 349.212 271.661 348.151 270.665 347.286C272.592 348.331 274.716 348.82 275.271 347.433C275.712 346.308 274.993 345.508 273.834 344.921C275.859 345.019 277.541 344.513 277.427 343.354ZM267.235 341.56C267.068 342.123 266.753 342.631 266.322 343.03C265.891 343.429 265.36 343.705 264.785 343.828C264.208 343.925 263.616 343.795 263.132 343.467C262.648 343.139 262.31 342.637 262.188 342.065C262.147 341.653 262.214 341.237 262.384 340.858C262.621 340.311 263.003 339.839 263.49 339.494C263.977 339.149 264.549 338.943 265.144 338.9C265.514 338.838 265.894 338.89 266.233 339.051C266.572 339.211 266.853 339.472 267.039 339.798C267.191 340.062 267.286 340.356 267.317 340.659C267.348 340.963 267.314 341.27 267.218 341.56H267.235Z" fill="white"/>
<path d="M201.018 28.1333C201.105 28.3278 201.247 28.4925 201.427 28.6064C201.647 28.7092 201.897 28.7296 202.13 28.6637C202.364 28.5978 202.567 28.45 202.701 28.2475C202.834 28.0453 202.921 27.816 202.955 27.5761C202.989 27.3362 202.969 27.0918 202.897 26.8606C202.857 26.6728 202.779 26.4951 202.668 26.3385C202.584 26.2296 202.479 26.1397 202.357 26.075C202.236 26.0103 202.103 25.9722 201.966 25.9633C201.443 25.9633 201.247 26.2569 201.051 26.6648C200.931 26.89 200.865 27.1401 200.86 27.3952C200.854 27.6502 200.908 27.903 201.018 28.1333Z" fill="#2B2729"/>
<path d="M229.962 28.5085C230.06 28.7234 230.219 28.905 230.419 29.0306C230.662 29.1421 230.936 29.164 231.193 29.0923C231.45 29.0206 231.674 28.8599 231.824 28.639C231.965 28.4127 232.057 28.1591 232.094 27.8948C232.131 27.6305 232.111 27.3614 232.036 27.1053C231.992 26.901 231.908 26.7072 231.791 26.5342C231.697 26.414 231.579 26.3153 231.443 26.2449C231.308 26.1745 231.159 26.1341 231.007 26.1263C230.435 26.1263 230.223 26.4527 229.994 26.9095C229.869 27.1565 229.801 27.4284 229.795 27.7053C229.79 27.9821 229.846 28.2566 229.962 28.5085Z" fill="#2B2729"/>
<ellipse cx="335" cy="332" rx="21" ry="72" fill="#E7A617"/>
</svg>
