<svg width="97" height="21" viewBox="0 0 97 21" fill="none" xmlns="http://www.w3.org/2000/svg">
<path d="M2.83977 8.10039C2.12643 8.10039 1.56643 7.90039 1.15977 7.50039C0.759766 7.09372 0.546432 6.52706 0.519766 5.80039L0.509766 5.40039L0.519766 5.00039C0.546432 4.27372 0.759766 3.71039 1.15977 3.31039C1.56643 2.90372 2.12643 2.70039 2.83977 2.70039C3.31977 2.70039 3.72643 2.78706 4.05977 2.96039C4.3931 3.13372 4.63977 3.34706 4.79977 3.60039C4.96643 3.85372 5.05643 4.10706 5.06977 4.36039C5.07643 4.42706 5.05643 4.48039 5.00977 4.52039C4.9631 4.56039 4.90643 4.58039 4.83977 4.58039H4.35977C4.2931 4.58039 4.2431 4.56706 4.20977 4.54039C4.17643 4.51372 4.1431 4.46039 4.10977 4.38039C3.99643 4.06039 3.83643 3.83372 3.62977 3.70039C3.4231 3.56039 3.1631 3.49039 2.84977 3.49039C2.43643 3.49039 2.10643 3.62039 1.85977 3.88039C1.61977 4.13372 1.48977 4.52372 1.46977 5.05039L1.45977 5.41039L1.46977 5.75039C1.48977 6.28372 1.61977 6.67706 1.85977 6.93039C2.09977 7.18372 2.42977 7.31039 2.84977 7.31039C3.1631 7.31039 3.4231 7.24372 3.62977 7.11039C3.83643 6.97039 3.99643 6.74039 4.10977 6.42039C4.1431 6.34039 4.17643 6.28706 4.20977 6.26039C4.2431 6.22706 4.2931 6.21039 4.35977 6.21039H4.83977C4.90643 6.21039 4.9631 6.23372 5.00977 6.28039C5.05643 6.32039 5.07643 6.37372 5.06977 6.44039C5.05643 6.68706 4.96643 6.94039 4.79977 7.20039C4.63977 7.45372 4.3931 7.66706 4.05977 7.84039C3.7331 8.01372 3.32643 8.10039 2.83977 8.10039Z" fill="white"/>
<path d="M6.48734 8.00039C6.42068 8.00039 6.36401 7.98039 6.31734 7.94039C6.27734 7.89372 6.25734 7.83706 6.25734 7.77039V3.04039C6.25734 2.97372 6.27734 2.91706 6.31734 2.87039C6.36401 2.82372 6.42068 2.80039 6.48734 2.80039H6.94734C7.01401 2.80039 7.07068 2.82372 7.11734 2.87039C7.16401 2.91706 7.18734 2.97372 7.18734 3.04039V3.48039C7.46068 3.02706 7.92734 2.80039 8.58734 2.80039H8.97734C9.04401 2.80039 9.09734 2.82372 9.13734 2.87039C9.18401 2.91039 9.20734 2.96372 9.20734 3.03039V3.44039C9.20734 3.50706 9.18401 3.56039 9.13734 3.60039C9.09734 3.64039 9.04401 3.66039 8.97734 3.66039H8.37734C8.01734 3.66039 7.73401 3.76706 7.52734 3.98039C7.32068 4.18706 7.21734 4.47039 7.21734 4.83039V7.77039C7.21734 7.83706 7.19401 7.89372 7.14734 7.94039C7.10068 7.98039 7.04401 8.00039 6.97734 8.00039H6.48734Z" fill="white"/>
<path d="M12.0385 8.10039C11.3518 8.10039 10.8018 7.89039 10.3885 7.47039C9.98185 7.04372 9.75852 6.46372 9.71852 5.73039L9.70852 5.39039L9.71852 5.06039C9.76518 4.34039 9.99185 3.76706 10.3985 3.34039C10.8118 2.91372 11.3552 2.70039 12.0285 2.70039C12.7685 2.70039 13.3418 2.93706 13.7485 3.41039C14.1552 3.87706 14.3585 4.51039 14.3585 5.31039V5.48039C14.3585 5.54706 14.3352 5.60372 14.2885 5.65039C14.2485 5.69039 14.1952 5.71039 14.1285 5.71039H10.6685V5.80039C10.6885 6.23372 10.8185 6.60372 11.0585 6.91039C11.3052 7.21039 11.6285 7.36039 12.0285 7.36039C12.3352 7.36039 12.5852 7.30039 12.7785 7.18039C12.9785 7.05372 13.1252 6.92372 13.2185 6.79039C13.2785 6.71039 13.3218 6.66372 13.3485 6.65039C13.3818 6.63039 13.4385 6.62039 13.5185 6.62039H14.0085C14.0685 6.62039 14.1185 6.63706 14.1585 6.67039C14.1985 6.70372 14.2185 6.75039 14.2185 6.81039C14.2185 6.95706 14.1252 7.13372 13.9385 7.34039C13.7585 7.54706 13.5018 7.72706 13.1685 7.88039C12.8418 8.02706 12.4652 8.10039 12.0385 8.10039ZM13.4085 5.02039V4.99039C13.4085 4.53039 13.2818 4.15706 13.0285 3.87039C12.7818 3.57706 12.4485 3.43039 12.0285 3.43039C11.6085 3.43039 11.2752 3.57706 11.0285 3.87039C10.7885 4.15706 10.6685 4.53039 10.6685 4.99039V5.02039H13.4085Z" fill="white"/>
<path d="M17.0042 8.10039C16.6776 8.10039 16.3742 8.03372 16.0942 7.90039C15.8142 7.76706 15.5909 7.58706 15.4242 7.36039C15.2642 7.12706 15.1842 6.87039 15.1842 6.59039C15.1842 6.15039 15.3642 5.79039 15.7242 5.51039C16.0909 5.22372 16.5842 5.03706 17.2042 4.95039L18.6942 4.74039V4.45039C18.6942 3.77039 18.3042 3.43039 17.5242 3.43039C17.2309 3.43039 16.9909 3.49372 16.8042 3.62039C16.6176 3.74039 16.4776 3.88372 16.3842 4.05039C16.3642 4.11039 16.3376 4.15372 16.3042 4.18039C16.2776 4.20706 16.2376 4.22039 16.1842 4.22039H15.7542C15.6942 4.22039 15.6409 4.20039 15.5942 4.16039C15.5542 4.11372 15.5342 4.06039 15.5342 4.00039C15.5409 3.84039 15.6142 3.66039 15.7542 3.46039C15.9009 3.25372 16.1242 3.07706 16.4242 2.93039C16.7242 2.77706 17.0942 2.70039 17.5342 2.70039C18.2809 2.70039 18.8176 2.87706 19.1442 3.23039C19.4709 3.57706 19.6342 4.01039 19.6342 4.53039V7.77039C19.6342 7.83706 19.6109 7.89372 19.5642 7.94039C19.5242 7.98039 19.4709 8.00039 19.4042 8.00039H18.9442C18.8776 8.00039 18.8209 7.98039 18.7742 7.94039C18.7342 7.89372 18.7142 7.83706 18.7142 7.77039V7.34039C18.5676 7.55372 18.3542 7.73372 18.0742 7.88039C17.7942 8.02706 17.4376 8.10039 17.0042 8.10039ZM17.2142 7.35039C17.6476 7.35039 18.0009 7.21039 18.2742 6.93039C18.5542 6.64372 18.6942 6.23372 18.6942 5.70039V5.42039L17.5342 5.59039C17.0609 5.65706 16.7042 5.77039 16.4642 5.93039C16.2242 6.08372 16.1042 6.28039 16.1042 6.52039C16.1042 6.78706 16.2142 6.99372 16.4342 7.14039C16.6542 7.28039 16.9142 7.35039 17.2142 7.35039Z" fill="white"/>
<path d="M23.053 8.00039C21.9996 8.00039 21.473 7.41372 21.473 6.24039V3.60039H20.693C20.6263 3.60039 20.5696 3.58039 20.523 3.54039C20.483 3.49372 20.463 3.43706 20.463 3.37039V3.03039C20.463 2.96372 20.483 2.91039 20.523 2.87039C20.5696 2.82372 20.6263 2.80039 20.693 2.80039H21.473V1.13039C21.473 1.06372 21.493 1.01039 21.533 0.970391C21.5796 0.923724 21.6363 0.900391 21.703 0.900391H22.173C22.2396 0.900391 22.293 0.923724 22.333 0.970391C22.3796 1.01039 22.403 1.06372 22.403 1.13039V2.80039H23.643C23.7096 2.80039 23.763 2.82372 23.803 2.87039C23.8496 2.91039 23.873 2.96372 23.873 3.03039V3.37039C23.873 3.43706 23.8496 3.49372 23.803 3.54039C23.763 3.58039 23.7096 3.60039 23.643 3.60039H22.403V6.17039C22.403 6.50372 22.4596 6.75706 22.573 6.93039C22.6863 7.09706 22.873 7.18039 23.133 7.18039H23.743C23.8096 7.18039 23.863 7.20372 23.903 7.25039C23.9496 7.29039 23.973 7.34372 23.973 7.41039V7.77039C23.973 7.83706 23.9496 7.89372 23.903 7.94039C23.863 7.98039 23.8096 8.00039 23.743 8.00039H23.053Z" fill="white"/>
<path d="M27.0092 8.10039C26.3226 8.10039 25.7726 7.89039 25.3592 7.47039C24.9526 7.04372 24.7292 6.46372 24.6892 5.73039L24.6792 5.39039L24.6892 5.06039C24.7359 4.34039 24.9626 3.76706 25.3692 3.34039C25.7826 2.91372 26.3259 2.70039 26.9992 2.70039C27.7392 2.70039 28.3126 2.93706 28.7192 3.41039C29.1259 3.87706 29.3292 4.51039 29.3292 5.31039V5.48039C29.3292 5.54706 29.3059 5.60372 29.2592 5.65039C29.2192 5.69039 29.1659 5.71039 29.0992 5.71039H25.6392V5.80039C25.6592 6.23372 25.7892 6.60372 26.0292 6.91039C26.2759 7.21039 26.5992 7.36039 26.9992 7.36039C27.3059 7.36039 27.5559 7.30039 27.7492 7.18039C27.9492 7.05372 28.0959 6.92372 28.1892 6.79039C28.2492 6.71039 28.2926 6.66372 28.3192 6.65039C28.3526 6.63039 28.4092 6.62039 28.4892 6.62039H28.9792C29.0392 6.62039 29.0892 6.63706 29.1292 6.67039C29.1692 6.70372 29.1892 6.75039 29.1892 6.81039C29.1892 6.95706 29.0959 7.13372 28.9092 7.34039C28.7292 7.54706 28.4726 7.72706 28.1392 7.88039C27.8126 8.02706 27.4359 8.10039 27.0092 8.10039ZM28.3792 5.02039V4.99039C28.3792 4.53039 28.2526 4.15706 27.9992 3.87039C27.7526 3.57706 27.4192 3.43039 26.9992 3.43039C26.5792 3.43039 26.2459 3.57706 25.9992 3.87039C25.7592 4.15706 25.6392 4.53039 25.6392 4.99039V5.02039H28.3792Z" fill="white"/>
<path d="M32.4249 8.10039C31.7316 8.10039 31.2083 7.87372 30.8549 7.42039C30.5016 6.96706 30.3149 6.39372 30.2949 5.70039L30.2849 5.40039L30.2949 5.10039C30.3149 4.41372 30.5016 3.84372 30.8549 3.39039C31.2083 2.93039 31.7316 2.70039 32.4249 2.70039C33.1116 2.70039 33.6516 2.94372 34.0449 3.43039V1.13039C34.0449 1.06372 34.0649 1.01039 34.1049 0.970391C34.1516 0.923724 34.2083 0.900391 34.2749 0.900391H34.7549C34.8216 0.900391 34.8749 0.923724 34.9149 0.970391C34.9616 1.01039 34.9849 1.06372 34.9849 1.13039V7.77039C34.9849 7.83706 34.9616 7.89372 34.9149 7.94039C34.8749 7.98039 34.8216 8.00039 34.7549 8.00039H34.3049C34.2383 8.00039 34.1816 7.98039 34.1349 7.94039C34.0949 7.89372 34.0749 7.83706 34.0749 7.77039V7.35039C33.6883 7.85039 33.1383 8.10039 32.4249 8.10039ZM32.6349 7.29039C33.0949 7.29039 33.4383 7.14039 33.6649 6.84039C33.8983 6.53372 34.0249 6.17039 34.0449 5.75039C34.0516 5.67706 34.0549 5.55039 34.0549 5.37039C34.0549 5.18372 34.0516 5.05372 34.0449 4.98039C34.0316 4.58706 33.9049 4.24372 33.6649 3.95039C33.4249 3.65706 33.0816 3.51039 32.6349 3.51039C32.1616 3.51039 31.8149 3.65706 31.5949 3.95039C31.3816 4.24372 31.2649 4.63039 31.2449 5.11039L31.2349 5.40039C31.2349 6.66039 31.7016 7.29039 32.6349 7.29039Z" fill="white"/>
<path d="M41.4934 8.10039C40.7734 8.10039 40.2267 7.85039 39.8534 7.35039V7.77039C39.8534 7.83706 39.83 7.89372 39.7834 7.94039C39.7434 7.98039 39.69 8.00039 39.6234 8.00039H39.1634C39.0967 8.00039 39.04 7.98039 38.9934 7.94039C38.9534 7.89372 38.9334 7.83706 38.9334 7.77039V1.13039C38.9334 1.06372 38.9534 1.01039 38.9934 0.970391C39.04 0.923724 39.0967 0.900391 39.1634 0.900391H39.6534C39.72 0.900391 39.7734 0.923724 39.8134 0.970391C39.8534 1.01039 39.8734 1.06372 39.8734 1.13039V3.43039C40.2667 2.94372 40.8067 2.70039 41.4934 2.70039C42.1867 2.70039 42.71 2.93039 43.0634 3.39039C43.4167 3.84372 43.6067 4.41372 43.6334 5.10039C43.64 5.17372 43.6434 5.27372 43.6434 5.40039C43.6434 5.52706 43.64 5.62706 43.6334 5.70039C43.6067 6.39372 43.4167 6.96706 43.0634 7.42039C42.71 7.87372 42.1867 8.10039 41.4934 8.10039ZM41.2834 7.29039C41.7567 7.29039 42.1 7.14372 42.3134 6.85039C42.5334 6.55706 42.6534 6.17039 42.6734 5.69039C42.68 5.62372 42.6834 5.52706 42.6834 5.40039C42.6834 4.14039 42.2167 3.51039 41.2834 3.51039C40.8367 3.51039 40.4934 3.65706 40.2534 3.95039C40.0134 4.24372 39.8867 4.58706 39.8734 4.98039L39.8634 5.37039L39.8734 5.75039C39.8934 6.17039 40.0167 6.53372 40.2434 6.84039C40.4767 7.14039 40.8234 7.29039 41.2834 7.29039Z" fill="white"/>
<path d="M45.5853 9.90039C45.532 9.90039 45.4853 9.88039 45.4453 9.84039C45.4053 9.80039 45.3853 9.75372 45.3853 9.70039C45.3853 9.65372 45.402 9.59372 45.4353 9.52039L46.2053 7.69039L44.2953 3.18039C44.262 3.09372 44.2453 3.03706 44.2453 3.01039C44.2453 2.95039 44.2653 2.90039 44.3053 2.86039C44.3453 2.82039 44.3953 2.80039 44.4553 2.80039H44.9453C45.052 2.80039 45.132 2.85706 45.1853 2.97039L46.7053 6.61039L48.2653 2.97039C48.3186 2.85706 48.402 2.80039 48.5153 2.80039H48.9853C49.0453 2.80039 49.0953 2.82039 49.1353 2.86039C49.1753 2.90039 49.1953 2.94706 49.1953 3.00039C49.1953 3.02039 49.1786 3.08039 49.1453 3.18039L46.3053 9.73039C46.252 9.84372 46.1686 9.90039 46.0553 9.90039H45.5853Z" fill="white"/>
<path d="M17.1891 18.1002C16.8625 18.1002 16.5591 18.0335 16.2791 17.9002C15.9991 17.7669 15.7758 17.5869 15.6091 17.3602C15.4491 17.1269 15.3691 16.8702 15.3691 16.5902C15.3691 16.1502 15.5491 15.7902 15.9091 15.5102C16.2758 15.2235 16.7691 15.0369 17.3891 14.9502L18.8791 14.7402V14.4502C18.8791 13.7702 18.4891 13.4302 17.7091 13.4302C17.4158 13.4302 17.1758 13.4935 16.9891 13.6202C16.8025 13.7402 16.6625 13.8835 16.5691 14.0502C16.5491 14.1102 16.5225 14.1535 16.4891 14.1802C16.4625 14.2069 16.4225 14.2202 16.3691 14.2202H15.9391C15.8791 14.2202 15.8258 14.2002 15.7791 14.1602C15.7391 14.1135 15.7191 14.0602 15.7191 14.0002C15.7258 13.8402 15.7991 13.6602 15.9391 13.4602C16.0858 13.2535 16.3091 13.0769 16.6091 12.9302C16.9091 12.7769 17.2791 12.7002 17.7191 12.7002C18.4658 12.7002 19.0025 12.8769 19.3291 13.2302C19.6558 13.5769 19.8191 14.0102 19.8191 14.5302V17.7702C19.8191 17.8369 19.7958 17.8935 19.7491 17.9402C19.7091 17.9802 19.6558 18.0002 19.5891 18.0002H19.1291C19.0625 18.0002 19.0058 17.9802 18.9591 17.9402C18.9191 17.8935 18.8991 17.8369 18.8991 17.7702V17.3402C18.7525 17.5535 18.5391 17.7335 18.2591 17.8802C17.9791 18.0269 17.6225 18.1002 17.1891 18.1002ZM17.3991 17.3502C17.8325 17.3502 18.1858 17.2102 18.4591 16.9302C18.7391 16.6435 18.8791 16.2335 18.8791 15.7002V15.4202L17.7191 15.5902C17.2458 15.6569 16.8891 15.7702 16.6491 15.9302C16.4091 16.0835 16.2891 16.2802 16.2891 16.5202C16.2891 16.7869 16.3991 16.9935 16.6191 17.1402C16.8391 17.2802 17.0991 17.3502 17.3991 17.3502Z" fill="white"/>
<path d="M23.3867 20.2002C22.8401 20.2002 22.4001 20.1069 22.0667 19.9202C21.7334 19.7402 21.4967 19.5335 21.3567 19.3002C21.2167 19.0669 21.1401 18.8569 21.1267 18.6702C21.1201 18.6035 21.1401 18.5469 21.1867 18.5002C21.2401 18.4535 21.2967 18.4302 21.3567 18.4302H21.8367C21.8967 18.4302 21.9467 18.4435 21.9867 18.4702C22.0267 18.5035 22.0601 18.5602 22.0867 18.6402C22.1667 18.8535 22.2967 19.0369 22.4767 19.1902C22.6634 19.3502 22.9501 19.4302 23.3367 19.4302C23.8301 19.4302 24.1934 19.3235 24.4267 19.1102C24.6601 18.9035 24.7767 18.5335 24.7767 18.0002V17.3202C24.6034 17.5402 24.3834 17.7169 24.1167 17.8502C23.8501 17.9769 23.5334 18.0402 23.1667 18.0402C22.4601 18.0402 21.9301 17.8169 21.5767 17.3702C21.2301 16.9169 21.0467 16.3435 21.0267 15.6502L21.0167 15.3702L21.0267 15.1002C21.0467 14.4135 21.2334 13.8435 21.5867 13.3902C21.9401 12.9302 22.4667 12.7002 23.1667 12.7002C23.8667 12.7002 24.4134 12.9569 24.8067 13.4702V13.0402C24.8067 12.9735 24.8267 12.9169 24.8667 12.8702C24.9134 12.8235 24.9701 12.8002 25.0367 12.8002H25.4967C25.5634 12.8002 25.6201 12.8235 25.6667 12.8702C25.7134 12.9169 25.7367 12.9735 25.7367 13.0402V17.8902C25.7367 19.4302 24.9534 20.2002 23.3867 20.2002ZM23.3667 17.2402C23.8201 17.2402 24.1634 17.0902 24.3967 16.7902C24.6301 16.4902 24.7567 16.1335 24.7767 15.7202C24.7834 15.6602 24.7867 15.5435 24.7867 15.3702C24.7867 15.2035 24.7834 15.0902 24.7767 15.0302C24.7567 14.6169 24.6301 14.2602 24.3967 13.9602C24.1701 13.6602 23.8267 13.5102 23.3667 13.5102C22.8934 13.5102 22.5501 13.6569 22.3367 13.9502C22.1234 14.2435 22.0067 14.6302 21.9867 15.1102L21.9767 15.3702L21.9867 15.6402C22.0067 16.1135 22.1234 16.5002 22.3367 16.8002C22.5501 17.0935 22.8934 17.2402 23.3667 17.2402Z" fill="white"/>
<path d="M29.3035 18.1002C28.6168 18.1002 28.0668 17.8902 27.6535 17.4702C27.2468 17.0435 27.0235 16.4635 26.9835 15.7302L26.9735 15.3902L26.9835 15.0602C27.0302 14.3402 27.2568 13.7669 27.6635 13.3402C28.0768 12.9135 28.6202 12.7002 29.2935 12.7002C30.0335 12.7002 30.6068 12.9369 31.0135 13.4102C31.4202 13.8769 31.6235 14.5102 31.6235 15.3102V15.4802C31.6235 15.5469 31.6002 15.6035 31.5535 15.6502C31.5135 15.6902 31.4602 15.7102 31.3935 15.7102H27.9335V15.8002C27.9535 16.2335 28.0835 16.6035 28.3235 16.9102C28.5702 17.2102 28.8935 17.3602 29.2935 17.3602C29.6002 17.3602 29.8502 17.3002 30.0435 17.1802C30.2435 17.0535 30.3902 16.9235 30.4835 16.7902C30.5435 16.7102 30.5868 16.6635 30.6135 16.6502C30.6468 16.6302 30.7035 16.6202 30.7835 16.6202H31.2735C31.3335 16.6202 31.3835 16.6369 31.4235 16.6702C31.4635 16.7035 31.4835 16.7502 31.4835 16.8102C31.4835 16.9569 31.3902 17.1335 31.2035 17.3402C31.0235 17.5469 30.7668 17.7269 30.4335 17.8802C30.1068 18.0269 29.7302 18.1002 29.3035 18.1002ZM30.6735 15.0202V14.9902C30.6735 14.5302 30.5468 14.1569 30.2935 13.8702C30.0468 13.5769 29.7135 13.4302 29.2935 13.4302C28.8735 13.4302 28.5402 13.5769 28.2935 13.8702C28.0535 14.1569 27.9335 14.5302 27.9335 14.9902V15.0202H30.6735Z" fill="white"/>
<path d="M33.0492 18.0002C32.9826 18.0002 32.9259 17.9802 32.8792 17.9402C32.8392 17.8935 32.8192 17.8369 32.8192 17.7702V13.0302C32.8192 12.9635 32.8392 12.9102 32.8792 12.8702C32.9259 12.8235 32.9826 12.8002 33.0492 12.8002H33.5192C33.5859 12.8002 33.6392 12.8235 33.6792 12.8702C33.7259 12.9102 33.7492 12.9635 33.7492 13.0302V13.4702C33.9426 13.2235 34.1692 13.0335 34.4292 12.9002C34.6959 12.7669 35.0259 12.7002 35.4192 12.7002C36.0592 12.7002 36.5559 12.9069 36.9092 13.3202C37.2692 13.7269 37.4492 14.2702 37.4492 14.9502V17.7702C37.4492 17.8369 37.4259 17.8935 37.3792 17.9402C37.3392 17.9802 37.2859 18.0002 37.2192 18.0002H36.7192C36.6526 18.0002 36.5959 17.9802 36.5492 17.9402C36.5092 17.8935 36.4892 17.8369 36.4892 17.7702V15.0002C36.4892 14.5269 36.3726 14.1602 36.1392 13.9002C35.9126 13.6402 35.5826 13.5102 35.1492 13.5102C34.7292 13.5102 34.3959 13.6435 34.1492 13.9102C33.9026 14.1702 33.7792 14.5335 33.7792 15.0002V17.7702C33.7792 17.8369 33.7559 17.8935 33.7092 17.9402C33.6692 17.9802 33.6159 18.0002 33.5492 18.0002H33.0492Z" fill="white"/>
<path d="M40.9837 18.1002C40.2703 18.1002 39.7103 17.9002 39.3037 17.5002C38.9037 17.0935 38.6903 16.5269 38.6637 15.8002L38.6537 15.4002L38.6637 15.0002C38.6903 14.2735 38.9037 13.7102 39.3037 13.3102C39.7103 12.9035 40.2703 12.7002 40.9837 12.7002C41.4637 12.7002 41.8703 12.7869 42.2037 12.9602C42.537 13.1335 42.7837 13.3469 42.9437 13.6002C43.1103 13.8535 43.2003 14.1069 43.2137 14.3602C43.2203 14.4269 43.2003 14.4802 43.1537 14.5202C43.107 14.5602 43.0503 14.5802 42.9837 14.5802H42.5037C42.437 14.5802 42.387 14.5669 42.3537 14.5402C42.3203 14.5135 42.287 14.4602 42.2537 14.3802C42.1403 14.0602 41.9803 13.8335 41.7737 13.7002C41.567 13.5602 41.307 13.4902 40.9937 13.4902C40.5803 13.4902 40.2503 13.6202 40.0037 13.8802C39.7637 14.1335 39.6337 14.5235 39.6137 15.0502L39.6037 15.4102L39.6137 15.7502C39.6337 16.2835 39.7637 16.6769 40.0037 16.9302C40.2437 17.1835 40.5737 17.3102 40.9937 17.3102C41.307 17.3102 41.567 17.2435 41.7737 17.1102C41.9803 16.9702 42.1403 16.7402 42.2537 16.4202C42.287 16.3402 42.3203 16.2869 42.3537 16.2602C42.387 16.2269 42.437 16.2102 42.5037 16.2102H42.9837C43.0503 16.2102 43.107 16.2335 43.1537 16.2802C43.2003 16.3202 43.2203 16.3735 43.2137 16.4402C43.2003 16.6869 43.1103 16.9402 42.9437 17.2002C42.7837 17.4535 42.537 17.6669 42.2037 17.8402C41.877 18.0135 41.4703 18.1002 40.9837 18.1002Z" fill="white"/>
<path d="M45.1648 19.9002C45.1114 19.9002 45.0648 19.8802 45.0248 19.8402C44.9848 19.8002 44.9648 19.7535 44.9648 19.7002C44.9648 19.6535 44.9814 19.5935 45.0148 19.5202L45.7848 17.6902L43.8748 13.1802C43.8414 13.0935 43.8248 13.0369 43.8248 13.0102C43.8248 12.9502 43.8448 12.9002 43.8848 12.8602C43.9248 12.8202 43.9748 12.8002 44.0348 12.8002H44.5248C44.6314 12.8002 44.7114 12.8569 44.7648 12.9702L46.2848 16.6102L47.8448 12.9702C47.8981 12.8569 47.9814 12.8002 48.0948 12.8002H48.5648C48.6248 12.8002 48.6748 12.8202 48.7148 12.8602C48.7548 12.9002 48.7748 12.9469 48.7748 13.0002C48.7748 13.0202 48.7581 13.0802 48.7248 13.1802L45.8848 19.7302C45.8314 19.8435 45.7481 19.9002 45.6348 19.9002H45.1648Z" fill="white"/>
<path d="M60.1658 1.17725H63.6651L57.8526 4.54195L63.7408 7.90665H60.1658L57.1124 6.17383L56.7254 5.9383C56.6176 5.86589 56.5163 5.78427 56.4226 5.69436C56.3345 5.60734 56.2556 5.5115 56.1871 5.40836C56.1131 5.29744 56.0511 5.17902 56.002 5.05506V7.91506H54.1094V1.18566H55.9936V4.0793C56.0536 3.95845 56.1239 3.84305 56.2039 3.73442C56.2813 3.62826 56.3686 3.52968 56.4647 3.44001C56.5698 3.34437 56.6823 3.25717 56.8011 3.17924L57.2301 2.91007L60.1658 1.17725Z" fill="#FCCD3F"/>
<path d="M64.6153 2.68304C64.6139 2.46725 64.6629 2.25412 64.7583 2.06057C64.8518 1.86769 64.9801 1.69373 65.1368 1.54745C65.2946 1.39967 65.4768 1.28016 65.6751 1.19416C65.8738 1.10596 66.0887 1.06012 66.306 1.05957C66.5732 1.07033 66.8356 1.13384 67.0782 1.24644C67.3207 1.35905 67.5386 1.51853 67.7192 1.71569L72.3204 6.24121V1.19416H74.0028V6.13186C74.0031 6.38054 73.9634 6.62765 73.885 6.86368C73.8147 7.08183 73.7033 7.28454 73.557 7.46091C73.3597 7.68037 73.1082 7.84409 72.8277 7.93563C72.5471 8.02717 72.2475 8.04331 71.9587 7.98244C71.857 7.95641 71.7583 7.91976 71.6643 7.87309C71.5444 7.81466 71.4291 7.74717 71.3194 7.67121L70.9241 7.36839L66.3228 2.87651V7.92356H64.6405L64.6153 2.68304Z" fill="#FCCD3F"/>
<path d="M77.35 1.20249H82.3382C82.6283 1.19698 82.9159 1.25738 83.1793 1.37914C83.4308 1.49329 83.659 1.653 83.8523 1.8502C84.0455 2.04827 84.2021 2.27894 84.3149 2.53155C84.4351 2.79551 84.4954 3.08275 84.4916 3.37273V5.89625C84.4908 6.07891 84.4624 6.2604 84.4075 6.43461C84.3539 6.60664 84.2775 6.77072 84.1803 6.92249C84.0831 7.07379 83.9672 7.21227 83.8355 7.33466C83.7025 7.45774 83.5557 7.565 83.398 7.65431C83.2392 7.74516 83.0697 7.81581 82.8933 7.8646C82.7153 7.91424 82.5314 7.93971 82.3466 7.94031H77.1061C76.818 7.94168 76.5324 7.88741 76.2649 7.78049C76.0021 7.67628 75.764 7.5185 75.5656 7.31719C75.3672 7.11589 75.2129 6.87547 75.1125 6.61125C75.0018 6.34459 74.9447 6.05878 74.9442 5.77008V3.24655C74.9346 2.9531 75.0044 2.6625 75.1461 2.40538C75.2815 2.15392 75.4677 1.93336 75.6929 1.75767C75.9232 1.57841 76.1819 1.43908 76.4583 1.34549C76.7455 1.24858 77.0469 1.20025 77.35 1.20249V1.20249ZM82.3382 2.95214H77.0472C76.9557 2.95214 76.868 2.98848 76.8033 3.05315C76.7386 3.11783 76.7023 3.20555 76.7023 3.29702V5.87943C76.7023 5.96644 76.7369 6.04988 76.7984 6.1114C76.8599 6.17292 76.9433 6.20749 77.0303 6.20749H82.3382C82.4296 6.20749 82.5174 6.17115 82.582 6.10647C82.6467 6.0418 82.683 5.95407 82.683 5.86261V3.33908C82.6903 3.28975 82.6869 3.23942 82.6728 3.19156C82.6588 3.1437 82.6346 3.09946 82.6018 3.06188C82.569 3.02429 82.5284 2.99427 82.4829 2.97387C82.4374 2.95347 82.388 2.94319 82.3382 2.94373V2.95214Z" fill="#FCCD3F"/>
<path d="M87.1673 1.17729L88.0842 6.16546L89.2114 2.34653C89.2705 2.14701 89.3583 1.95716 89.4721 1.78294C89.5762 1.6217 89.707 1.47945 89.8591 1.36235C90.0113 1.24745 90.182 1.15927 90.3638 1.10159C90.5725 1.03197 90.7914 0.997854 91.0115 1.00065C91.1922 1.00032 91.3715 1.03164 91.5414 1.09318C91.7036 1.15075 91.8544 1.23614 91.9872 1.34553C92.123 1.45764 92.2395 1.59118 92.3321 1.74088C92.4306 1.90387 92.507 2.07926 92.5592 2.26241L93.6612 6.0477L94.6201 1.17729H96.3025L95.3267 6.51035C95.2733 6.71574 95.1941 6.91358 95.0912 7.09917C94.995 7.27096 94.873 7.42699 94.7295 7.56181C94.4401 7.83222 94.0572 7.97995 93.6612 7.97399C93.2752 7.98913 92.8975 7.8602 92.6013 7.61228C92.2951 7.33314 92.0662 6.97965 91.9368 6.58605L90.9021 2.89329L89.7918 6.56082C89.729 6.76306 89.6384 6.95558 89.5226 7.13281C89.4156 7.29926 89.2821 7.44703 89.1272 7.57023C88.973 7.69095 88.7996 7.7848 88.6141 7.84781C88.4164 7.91526 88.2089 7.94938 88.0001 7.94876C87.6031 7.95157 87.2203 7.80088 86.9318 7.52817C86.7892 7.39455 86.6698 7.23821 86.5785 7.06552C86.4847 6.88605 86.4194 6.69307 86.385 6.49352L85.3672 1.17729H87.1673Z" fill="#FCCD3F"/>
<path d="M56.2628 9.25244V12.533H64.0941C64.1549 12.533 64.215 12.5211 64.2712 12.4978C64.3273 12.4746 64.3783 12.4405 64.4212 12.3975C64.4642 12.3546 64.4983 12.3036 64.5215 12.2474C64.5448 12.1913 64.5568 12.1311 64.5568 12.0704V9.25244H66.7859V18.2025H64.5231V14.8378H56.7086C56.5903 14.8378 56.4769 14.8848 56.3933 14.9684C56.3097 15.052 56.2628 15.1654 56.2628 15.2837V18.2194H54V9.25244H56.2628Z" fill="#FCCD3F"/>
<path d="M71.1768 9.29455H77.78C78.149 9.294 78.5137 9.3744 78.8483 9.53008C79.185 9.68235 79.4903 9.89633 79.7483 10.161C80.0077 10.4326 80.2157 10.7489 80.3624 11.0947C80.5138 11.4333 80.5912 11.8004 80.5895 12.1714V15.4772C80.5893 15.7197 80.5524 15.9607 80.4802 16.1922C80.4087 16.4207 80.3069 16.6386 80.1773 16.8399C80.0469 17.041 79.8914 17.2247 79.7147 17.3867C79.5386 17.5517 79.3438 17.6957 79.1343 17.8157C78.9225 17.936 78.6964 18.0292 78.4613 18.0932C78.2231 18.1598 77.9769 18.1938 77.7295 18.1942H70.8235C70.4376 18.1982 70.0547 18.1268 69.6963 17.9839C69.3569 17.8495 69.0484 17.6474 68.7895 17.39C68.5307 17.1326 68.3269 16.8252 68.1906 16.4866C68.0448 16.1089 67.9789 15.705 67.9971 15.3005V11.9358C68.0033 11.5594 68.1077 11.1912 68.2999 10.8675C68.4786 10.5414 68.7219 10.2552 69.0149 10.0264C69.3063 9.796 69.6329 9.61421 69.9823 9.48802C70.3667 9.35676 70.7705 9.29135 71.1768 9.29455V9.29455ZM77.7968 11.6078H70.7814C70.7206 11.6078 70.6605 11.6197 70.6044 11.643C70.5482 11.6662 70.4972 11.7003 70.4543 11.7433C70.4113 11.7862 70.3772 11.8372 70.354 11.8934C70.3307 11.9495 70.3188 12.0097 70.3188 12.0704V15.4351C70.3188 15.5556 70.3666 15.6711 70.4518 15.7563C70.537 15.8415 70.6525 15.8894 70.773 15.8894H77.78C77.9027 15.8894 78.0204 15.8406 78.1071 15.7539C78.1939 15.6671 78.2426 15.5494 78.2426 15.4267V12.062C78.2426 11.9415 78.1948 11.826 78.1096 11.7408C78.0244 11.6556 77.9089 11.6078 77.7884 11.6078H77.7968Z" fill="#FCCD3F"/>
<path d="M84.1813 9.25269L85.3926 15.8559L86.8983 10.8089C86.9737 10.5444 87.087 10.2922 87.2348 10.0602C87.5118 9.62805 87.9314 9.30661 88.4208 9.15175C88.6929 9.06679 88.9771 9.027 89.262 9.03399C89.5026 9.03134 89.7418 9.07121 89.9686 9.15175C90.1829 9.22884 90.3822 9.3427 90.5574 9.48822C90.7367 9.63888 90.8902 9.8179 91.0117 10.0182C91.1427 10.2336 91.2446 10.4656 91.3145 10.7079L92.8202 15.755L94.0904 9.28634H96.3699L95.0241 16.3522C94.9535 16.625 94.8489 16.8878 94.7128 17.1345C94.5865 17.3658 94.4247 17.5758 94.2334 17.757C93.8507 18.115 93.3442 18.311 92.8202 18.3037C92.3002 18.3295 91.7896 18.1583 91.3902 17.8243C90.9999 17.4511 90.7105 16.9852 90.549 16.47L89.1779 11.5743L87.6469 16.3943C87.5648 16.6618 87.4459 16.9166 87.2937 17.1513C87.1501 17.3726 86.9711 17.5687 86.7637 17.7317C86.559 17.8926 86.3287 18.0177 86.0824 18.1019C85.8111 18.1912 85.5267 18.2339 85.2412 18.228C84.7133 18.2343 84.2035 18.0353 83.8196 17.6729C83.6319 17.4925 83.4756 17.2821 83.357 17.0504C83.2304 16.8105 83.1424 16.5522 83.0962 16.2849L81.8008 9.25269H84.1813Z" fill="#FCCD3F"/>
</svg>
