<svg width="27" height="27" viewBox="0 0 27 27" fill="none" xmlns="http://www.w3.org/2000/svg">
<path d="M10.9925 3.45288C11.0342 3.68215 10.7731 4.1039 10.7087 4.34483C10.5936 4.68064 9.54913 5.99093 9.28281 6.19615C5.43814 9.16416 3.10413 11.6723 1.02433 16.4257C0.659842 17.2479 0.337447 18.1159 0.295019 18.9852C0.252589 19.8545 0.547059 20.7345 1.197 21.0763C2.04618 21.5253 3.12846 20.9094 4.07941 20.3992C7.4862 18.5743 10.0832 13.7792 9.88632 14.5165C9.15713 16.5923 8.61012 20.0856 8.98252 22.0966C9.19903 23.2667 9.30492 24.1062 9.95373 24.9838C10.2128 25.3341 10.5025 25.674 10.8866 25.836C12.3358 26.4474 13.0606 25.7031 13.8359 24.8272C15.6885 22.7313 16.2468 19.5662 16.7197 16.7882C16.9418 15.4843 16.8374 13.6714 16.9021 11.9812C17.0267 11.1434 18.4012 14.9875 19.0089 16.0252C19.5968 17.0255 20.1955 18.0369 21.0016 18.8027C21.8078 19.5686 22.8665 20.0753 24.0019 19.9285C25.1373 19.7817 26.3319 18.8684 26.7466 17.5989C27.0295 16.7262 26.9246 15.8171 26.7435 14.989C26.1344 12.1728 24.9823 11.5132 23.218 9.57999C21.2057 7.86744 19.5277 6.50015 16.8977 3.09189C17.1024 -1.0065 10.625 -0.216014 10.9925 3.45288Z" fill="#5C5C5C"/>
</svg>
