<svg width="95" height="47" viewBox="0 0 95 47" fill="none" xmlns="http://www.w3.org/2000/svg">
<path d="M8.02422 3.42982H0V0.558105H19.1037V3.42982H11.0795V26.329H8.02422V3.42982Z" fill="#E9CD5A"/>
<path d="M24.0918 0.558105H27.1042V26.329H24.0918V0.558105Z" fill="#E9CD5A"/>
<path fill-rule="evenodd" clip-rule="evenodd" d="M42.8442 0.558105H32.9062L32.9126 26.329H35.925V16.3866H42.8442C48.2856 16.3866 51.4566 13.442 51.4566 8.50883C51.4566 3.61376 48.292 0.558105 42.8442 0.558105ZM48.4031 8.51056C48.4031 11.9309 46.5624 13.5166 42.6604 13.5166H35.9252V3.43631H42.6604C46.5259 3.43631 48.4031 5.0902 48.4031 8.51056Z" fill="#E9CD5A"/>
<path d="M53.666 17.7869L56.6785 17.2715C57.1938 21.8368 59.6227 24.0076 64.2984 24.0076C67.8689 24.0076 70.225 22.3505 70.225 19.8483C70.225 17.235 68.4952 15.7984 63.1204 14.1049C56.9734 12.0799 54.9122 10.277 54.9122 6.81061C54.9122 2.79877 58.2989 0 63.1568 0C68.0148 0 71.6599 2.90818 72.5113 7.5099L69.5305 8.13626C68.7204 4.71272 66.4753 2.87171 63.1267 2.87171C59.9985 2.87171 57.9374 4.41778 57.9374 6.81061C57.9374 8.79908 59.4103 9.86626 64.1208 11.3378C70.818 13.5166 73.2501 15.7619 73.2501 19.8118C73.2501 24.0076 69.6035 26.8793 64.2683 26.8793C57.9722 26.8793 54.2241 23.6762 53.666 17.7869Z" fill="#E9CD5A"/>
<path d="M82.4468 15.5779L73.4316 0.558105H76.9657L83.9229 12.5968H83.9958L90.9895 0.558105H94.5236L85.7478 15.3353L92.1659 26.329H88.6303L82.4468 15.5779Z" fill="#E9CD5A"/>
<mask id="path-6-outside-1" maskUnits="userSpaceOnUse" x="0.316406" y="28.2026" width="15" height="18" fill="black">
<rect fill="white" x="0.316406" y="28.2026" width="15" height="18"/>
<path fill-rule="evenodd" clip-rule="evenodd" d="M4.31778 44.2472C5.42445 45.2317 6.85751 45.7697 8.33861 45.7568C8.74246 45.7566 9.14558 45.7222 9.54359 45.6537C12.7273 45.1034 14.6394 42.8264 14.66 39.5535C14.6625 39.28 14.5517 39.0177 14.354 38.8288C14.1545 38.6356 13.8847 38.5325 13.6072 38.5434L13.3329 38.5545C12.7991 38.5811 12.3775 39.0174 12.3689 39.5519C12.3182 41.8702 11.2496 43.2244 9.18844 43.578C7.82966 43.8063 6.62468 43.467 5.65594 42.5378C4.6872 41.6086 3.99909 40.1227 3.68199 38.2389C3.03669 34.4745 4.34473 31.847 7.09557 31.3712C9.02513 31.0414 10.4648 31.8612 11.3637 33.8227C11.5785 34.298 12.1211 34.5301 12.6131 34.3571L12.8272 34.281C13.0935 34.1862 13.3088 33.9853 13.4217 33.726C13.5336 33.4736 13.5336 33.1856 13.4217 32.9332C12.2183 30.1931 9.65616 28.8024 6.73884 29.3035C2.76715 29.9853 0.660024 33.7308 1.49875 38.6211C1.91574 41.0472 2.89082 42.9929 4.31778 44.2472ZM6.79824 29.6634C7.17106 29.5986 7.54872 29.5657 7.92712 29.5651C10.2118 29.5651 12.0922 30.8241 13.0721 33.079C13.1413 33.2355 13.1413 33.414 13.0721 33.5706C13.0004 33.736 12.8631 33.8641 12.6931 33.9242L12.4791 34.0003C12.1664 34.1117 11.8206 33.963 11.6863 33.6594C10.7176 31.5662 9.10356 30.6513 7.01863 31.0081C4.04264 31.5171 2.61886 34.3127 3.3038 38.3023C3.64309 40.2686 4.34547 41.8083 5.38715 42.8057C6.42882 43.8031 7.76064 44.1964 9.23991 43.9427C11.4596 43.5605 12.6741 42.0446 12.728 39.5582C12.7325 39.2201 12.9977 38.943 13.3353 38.9239L13.6096 38.9128C13.7857 38.9082 13.9566 38.9732 14.0852 39.0936C14.2098 39.212 14.2799 39.3767 14.2786 39.5487C14.2596 42.6281 12.4632 44.772 9.4714 45.2858C7.60843 45.6045 5.9167 45.1589 4.55634 43.9617C3.19598 42.7645 2.26371 40.8933 1.86099 38.5513C1.05873 33.8798 3.04377 30.3072 6.79824 29.6634Z"/>
</mask>
<path fill-rule="evenodd" clip-rule="evenodd" d="M4.31778 44.2472C5.42445 45.2317 6.85751 45.7697 8.33861 45.7568C8.74246 45.7566 9.14558 45.7222 9.54359 45.6537C12.7273 45.1034 14.6394 42.8264 14.66 39.5535C14.6625 39.28 14.5517 39.0177 14.354 38.8288C14.1545 38.6356 13.8847 38.5325 13.6072 38.5434L13.3329 38.5545C12.7991 38.5811 12.3775 39.0174 12.3689 39.5519C12.3182 41.8702 11.2496 43.2244 9.18844 43.578C7.82966 43.8063 6.62468 43.467 5.65594 42.5378C4.6872 41.6086 3.99909 40.1227 3.68199 38.2389C3.03669 34.4745 4.34473 31.847 7.09557 31.3712C9.02513 31.0414 10.4648 31.8612 11.3637 33.8227C11.5785 34.298 12.1211 34.5301 12.6131 34.3571L12.8272 34.281C13.0935 34.1862 13.3088 33.9853 13.4217 33.726C13.5336 33.4736 13.5336 33.1856 13.4217 32.9332C12.2183 30.1931 9.65616 28.8024 6.73884 29.3035C2.76715 29.9853 0.660024 33.7308 1.49875 38.6211C1.91574 41.0472 2.89082 42.9929 4.31778 44.2472ZM6.79824 29.6634C7.17106 29.5986 7.54872 29.5657 7.92712 29.5651C10.2118 29.5651 12.0922 30.8241 13.0721 33.079C13.1413 33.2355 13.1413 33.414 13.0721 33.5706C13.0004 33.736 12.8631 33.8641 12.6931 33.9242L12.4791 34.0003C12.1664 34.1117 11.8206 33.963 11.6863 33.6594C10.7176 31.5662 9.10356 30.6513 7.01863 31.0081C4.04264 31.5171 2.61886 34.3127 3.3038 38.3023C3.64309 40.2686 4.34547 41.8083 5.38715 42.8057C6.42882 43.8031 7.76064 44.1964 9.23991 43.9427C11.4596 43.5605 12.6741 42.0446 12.728 39.5582C12.7325 39.2201 12.9977 38.943 13.3353 38.9239L13.6096 38.9128C13.7857 38.9082 13.9566 38.9732 14.0852 39.0936C14.2098 39.212 14.2799 39.3767 14.2786 39.5487C14.2596 42.6281 12.4632 44.772 9.4714 45.2858C7.60843 45.6045 5.9167 45.1589 4.55634 43.9617C3.19598 42.7645 2.26371 40.8933 1.86099 38.5513C1.05873 33.8798 3.04377 30.3072 6.79824 29.6634Z" fill="#C41C24"/>
<path d="M8.33861 45.7568L8.33855 45.5568L8.33685 45.5568L8.33861 45.7568ZM4.31778 44.2472L4.45071 44.0977L4.44982 44.097L4.31778 44.2472ZM9.54359 45.6537L9.5775 45.8508L9.57765 45.8508L9.54359 45.6537ZM14.66 39.5535L14.46 39.5516L14.46 39.5522L14.66 39.5535ZM14.354 38.8288L14.2149 38.9725L14.2159 38.9734L14.354 38.8288ZM13.6072 38.5434L13.5994 38.3435L13.5991 38.3435L13.6072 38.5434ZM13.3329 38.5545L13.3249 38.3546L13.323 38.3547L13.3329 38.5545ZM12.3689 39.5519L12.5689 39.5563L12.5689 39.5551L12.3689 39.5519ZM9.18844 43.578L9.22158 43.7752L9.22225 43.7751L9.18844 43.578ZM5.65594 42.5378L5.79439 42.3934L5.65594 42.5378ZM3.68199 38.2389L3.87922 38.2057L3.87911 38.2051L3.68199 38.2389ZM7.09557 31.3712L7.06188 31.1741L7.06149 31.1742L7.09557 31.3712ZM11.3637 33.8227L11.546 33.7404L11.5456 33.7394L11.3637 33.8227ZM12.6131 34.3571L12.6795 34.5458L12.6801 34.5456L12.6131 34.3571ZM12.8272 34.281L12.8942 34.4694L12.8942 34.4694L12.8272 34.281ZM13.4217 33.726L13.2389 33.645L13.2384 33.6461L13.4217 33.726ZM13.4217 32.9332L13.2386 33.0136L13.2389 33.0142L13.4217 32.9332ZM6.73884 29.3035L6.77268 29.5006L6.77269 29.5006L6.73884 29.3035ZM1.49875 38.6211L1.30163 38.6549L1.30164 38.655L1.49875 38.6211ZM7.92712 29.5651V29.3651L7.92678 29.3651L7.92712 29.5651ZM6.79824 29.6634L6.83204 29.8605L6.83249 29.8604L6.79824 29.6634ZM13.0721 33.079L12.8886 33.1587L12.8892 33.1599L13.0721 33.079ZM13.0721 33.5706L12.8892 33.4896L12.8886 33.491L13.0721 33.5706ZM12.6931 33.9242L12.6265 33.7356L12.6261 33.7357L12.6931 33.9242ZM12.4791 34.0003L12.4121 33.8118L12.412 33.8119L12.4791 34.0003ZM11.6863 33.6594L11.8693 33.5784L11.8678 33.5754L11.6863 33.6594ZM7.01863 31.0081L7.05234 31.2052L7.05236 31.2052L7.01863 31.0081ZM3.3038 38.3023L3.10668 38.3361L3.10671 38.3363L3.3038 38.3023ZM5.38715 42.8057L5.24883 42.9502L5.38715 42.8057ZM9.23991 43.9427L9.27372 44.1398L9.27385 44.1398L9.23991 43.9427ZM12.728 39.5582L12.928 39.5625L12.928 39.5608L12.728 39.5582ZM13.3353 38.9239L13.3272 38.724L13.3239 38.7242L13.3353 38.9239ZM13.6096 38.9128L13.6044 38.7128L13.6015 38.713L13.6096 38.9128ZM14.0852 39.0936L14.223 38.9486L14.2219 38.9475L14.0852 39.0936ZM14.2786 39.5487L14.0786 39.5472L14.0786 39.5474L14.2786 39.5487ZM9.4714 45.2858L9.50512 45.4829L9.50525 45.4829L9.4714 45.2858ZM4.55634 43.9617L4.42421 44.1118H4.42421L4.55634 43.9617ZM1.86099 38.5513L1.66388 38.5851L1.66388 38.5852L1.86099 38.5513ZM8.33685 45.5568C6.90537 45.5693 5.52032 45.0493 4.45071 44.0977L4.18484 44.3966C5.32859 45.4141 6.80965 45.9702 8.34036 45.9568L8.33685 45.5568ZM9.50968 45.4566C9.12285 45.5231 8.73106 45.5566 8.33855 45.5568L8.33867 45.9568C8.75387 45.9566 9.1683 45.9212 9.5775 45.8508L9.50968 45.4566ZM14.46 39.5522C14.4499 41.1493 13.979 42.4897 13.1347 43.496C12.2906 44.5022 11.0614 45.1884 9.50953 45.4566L9.57765 45.8508C11.2095 45.5687 12.5282 44.8413 13.4412 43.7531C14.354 42.6651 14.8494 41.2306 14.86 39.5547L14.46 39.5522ZM14.2159 38.9734C14.3736 39.1241 14.462 39.3334 14.46 39.5516L14.86 39.5553C14.863 39.2266 14.7299 38.9112 14.4921 38.6842L14.2159 38.9734ZM13.6151 38.7432C13.8379 38.7345 14.0546 38.8173 14.2149 38.9725L14.4931 38.6851C14.2544 38.4539 13.9315 38.3305 13.5994 38.3435L13.6151 38.7432ZM13.341 38.7543L13.6153 38.7432L13.5991 38.3435L13.3249 38.3546L13.341 38.7543ZM12.5689 39.5551C12.5758 39.1259 12.9143 38.7756 13.3429 38.7542L13.323 38.3547C12.6839 38.3867 12.1792 38.9089 12.169 39.5487L12.5689 39.5551ZM9.22225 43.7751C10.2905 43.5919 11.1215 43.1449 11.6896 42.4257C12.2557 41.7088 12.5429 40.7439 12.5689 39.5563L12.169 39.5475C12.1443 40.6782 11.8718 41.5495 11.3756 42.1777C10.8814 42.8036 10.1475 43.2105 9.15462 43.3809L9.22225 43.7751ZM5.51749 42.6821C6.53518 43.6583 7.80515 44.0133 9.22158 43.7752L9.15529 43.3808C7.85417 43.5994 6.71418 43.2757 5.79439 42.3934L5.51749 42.6821ZM3.48476 38.2721C3.80621 40.1818 4.50747 41.7133 5.51749 42.6821L5.79439 42.3934C4.86692 41.5038 4.19196 40.0637 3.87921 38.2057L3.48476 38.2721ZM7.06149 31.1742C5.62329 31.4229 4.55472 32.2388 3.93615 33.4828C3.32123 34.7194 3.15763 36.3637 3.48486 38.2727L3.87911 38.2051C3.56105 36.3497 3.72882 34.798 4.29431 33.6609C4.85614 32.531 5.81702 31.7953 7.12965 31.5683L7.06149 31.1742ZM11.5456 33.7394C11.0839 32.7321 10.4748 31.9993 9.71557 31.5642C8.95448 31.128 8.06335 31.0029 7.06188 31.1741L7.12927 31.5684C8.05735 31.4097 8.85082 31.5296 9.51667 31.9113C10.1844 32.294 10.7446 32.9518 11.1819 33.9061L11.5456 33.7394ZM12.5468 34.1684C12.1527 34.307 11.7181 34.1211 11.546 33.7404L11.1815 33.9051C11.439 34.475 12.0895 34.7532 12.6795 34.5458L12.5468 34.1684ZM12.7602 34.0926L12.5461 34.1687L12.6801 34.5456L12.8942 34.4694L12.7602 34.0926ZM13.2384 33.6461C13.1475 33.8547 12.9744 34.0163 12.7601 34.0926L12.8942 34.4694C13.2127 34.356 13.47 34.1158 13.6051 33.8059L13.2384 33.6461ZM13.2389 33.0142C13.3279 33.215 13.3279 33.4441 13.2389 33.645L13.6046 33.807C13.7393 33.503 13.7393 33.1562 13.6046 32.8521L13.2389 33.0142ZM6.77269 29.5006C9.59813 29.0153 12.0716 30.3563 13.2386 33.0136L13.6048 32.8527C12.3651 30.0298 9.71419 28.5895 6.70498 29.1064L6.77269 29.5006ZM1.69588 38.5873C1.28241 36.1765 1.5982 34.0663 2.48921 32.4822C3.37802 30.9019 4.84605 29.8314 6.77268 29.5006L6.705 29.1064C4.65994 29.4575 3.08856 30.6006 2.14057 32.2861C1.19478 33.9676 0.87637 36.1753 1.30163 38.6549L1.69588 38.5873ZM4.44982 44.097C3.06625 42.8808 2.10742 40.9817 1.69586 38.5872L1.30164 38.655C1.72406 41.1127 2.7154 43.105 4.18573 44.3974L4.44982 44.097ZM7.92678 29.3651C7.53702 29.3657 7.14801 29.3996 6.764 29.4663L6.83249 29.8604C7.1941 29.7976 7.56042 29.7657 7.92745 29.7651L7.92678 29.3651ZM13.2555 32.9993C12.246 30.6762 10.2966 29.3651 7.92712 29.3651V29.7651C10.127 29.7651 11.9384 30.972 12.8886 33.1587L13.2555 32.9993ZM13.255 33.6515C13.347 33.4434 13.347 33.2061 13.255 32.9981L12.8892 33.1599C12.9356 33.2649 12.9356 33.3846 12.8892 33.4896L13.255 33.6515ZM12.7598 34.1127C12.9822 34.0341 13.1618 33.8665 13.2556 33.6501L12.8886 33.491C12.839 33.6055 12.744 33.6941 12.6265 33.7356L12.7598 34.1127ZM12.5461 34.1887L12.7601 34.1126L12.6261 33.7357L12.4121 33.8118L12.5461 34.1887ZM11.5034 33.7403C11.6801 34.1396 12.1348 34.3352 12.5462 34.1887L12.412 33.8119C12.1979 33.8881 11.9612 33.7864 11.8692 33.5785L11.5034 33.7403ZM7.05236 31.2052C8.0568 31.0333 8.9334 31.1694 9.67232 31.5889C10.4128 32.0093 11.0334 32.7248 11.5048 33.7434L11.8678 33.5754C11.3705 32.5008 10.6997 31.7122 9.8698 31.2411C9.03828 30.769 8.06538 30.626 6.98489 30.8109L7.05236 31.2052ZM3.50091 38.2685C3.16317 36.3012 3.34973 34.6519 3.96658 33.4407C4.57985 32.2365 5.62575 31.4492 7.05234 31.2052L6.98491 30.8109C5.43552 31.0759 4.28154 31.9409 3.61015 33.2592C2.94234 34.5704 2.75948 36.3138 3.10668 38.3361L3.50091 38.2685ZM5.52546 42.6612C4.52525 41.7035 3.83587 40.2096 3.50088 38.2683L3.10671 38.3363C3.45032 40.3276 4.1657 41.9131 5.24883 42.9502L5.52546 42.6612ZM9.2061 43.7455C7.78636 43.989 6.51923 43.6128 5.52546 42.6612L5.24883 42.9502C6.33841 43.9934 7.73492 44.4037 9.27372 44.1398L9.2061 43.7455ZM12.5281 39.5538C12.5018 40.7662 12.1931 41.7205 11.6397 42.4149C11.0878 43.1073 10.2767 43.5612 9.20598 43.7456L9.27385 44.1398C10.4228 43.9419 11.3288 43.4468 11.9525 42.6642C12.5748 41.8834 12.9003 40.8365 12.928 39.5625L12.5281 39.5538ZM13.3239 38.7242C12.8815 38.7493 12.5339 39.1124 12.528 39.5555L12.928 39.5608C12.9311 39.3277 13.1139 39.1368 13.3466 39.1236L13.3239 38.7242ZM13.6015 38.713L13.3272 38.7241L13.3434 39.1237L13.6176 39.1126L13.6015 38.713ZM14.2219 38.9475C14.0549 38.7912 13.833 38.7069 13.6044 38.7129L13.6147 39.1127C13.7383 39.1095 13.8583 39.1551 13.9485 39.2396L14.2219 38.9475ZM14.4786 39.5501C14.4803 39.3229 14.3877 39.1051 14.223 38.9486L13.9474 39.2386C14.032 39.3189 14.0795 39.4306 14.0786 39.5472L14.4786 39.5501ZM9.50525 45.4829C11.0413 45.2191 12.2833 44.534 13.1431 43.5078C14.0028 42.4818 14.4689 41.1289 14.4786 39.5499L14.0786 39.5474C14.0694 41.0479 13.6277 42.3066 12.8365 43.2509C12.0455 44.1949 10.8933 44.8387 9.43755 45.0886L9.50525 45.4829ZM4.42421 44.1118C5.83307 45.3517 7.58687 45.8111 9.50512 45.4829L9.43767 45.0886C7.62999 45.3979 6.00033 44.9661 4.68847 43.8115L4.42421 44.1118ZM1.66388 38.5852C2.07192 40.9581 3.02015 42.8762 4.42421 44.1118L4.68847 43.8115C3.37182 42.6528 2.4555 40.8285 2.0581 38.5174L1.66388 38.5852ZM6.76444 29.4663C4.82719 29.7984 3.34059 30.8895 2.44601 32.4998C1.55371 34.106 1.25692 36.2155 1.66388 38.5851L2.0581 38.5174C1.66279 36.2156 1.9574 34.203 2.79567 32.6941C3.63167 31.1892 5.01483 30.1721 6.83204 29.8605L6.76444 29.4663Z" fill="#C41C24" mask="url(#path-6-outside-1)"/>
<mask id="path-8-outside-2" maskUnits="userSpaceOnUse" x="16.2266" y="28.5576" width="14" height="18" fill="black">
<rect fill="white" x="16.2266" y="28.5576" width="14" height="18"/>
<path fill-rule="evenodd" clip-rule="evenodd" d="M28.639 45.4844H28.8166C29.3704 45.481 29.8178 45.0314 29.8186 44.4775V30.5661C29.8186 30.2987 29.7124 30.0421 29.5233 29.853C29.3342 29.6639 29.0777 29.5576 28.8102 29.5576H28.6327C28.3652 29.5576 28.1087 29.6639 27.9196 29.853C27.7305 30.0421 27.6243 30.2987 27.6243 30.5661V35.7022C27.6244 36.0464 27.35 36.3279 27.0059 36.3365L20.0741 36.5252C19.9016 36.5337 19.7336 36.4679 19.6127 36.3444C19.489 36.2248 19.4191 36.0599 19.4193 35.8878V30.5661C19.4193 30.0091 18.9678 29.5576 18.4109 29.5576H18.2334C17.6771 29.5585 17.2266 30.0098 17.2266 30.5661V44.4743C17.2274 45.0301 17.6777 45.4804 18.2334 45.4813H18.4173C18.9736 45.4813 19.4248 45.0307 19.4257 44.4743V39.1305C19.4255 38.7863 19.6999 38.5048 20.044 38.4962L26.9758 38.3075C27.1484 38.2986 27.3166 38.3645 27.4372 38.4883C27.561 38.608 27.6308 38.7728 27.6306 38.945V44.4775C27.6315 45.0339 28.0827 45.4844 28.639 45.4844ZM28.0027 38.9435C28.0027 38.3874 27.552 37.9366 26.9959 37.9366L26.9563 37.9381L20.0245 38.1268C19.4779 38.139 19.0419 38.587 19.0446 39.1338V44.4776C19.0446 44.8279 18.7607 45.1119 18.4104 45.1119H18.2329C17.8826 45.1119 17.5987 44.8279 17.5987 44.4776V30.5662C17.5987 30.2159 17.8826 29.9319 18.2329 29.9319H18.4215C18.7718 29.9319 19.0557 30.2159 19.0557 30.5662V35.8878C19.055 36.1597 19.1649 36.4202 19.3601 36.6093C19.5535 36.8009 19.8174 36.9042 20.0895 36.8948L27.0229 36.7061C27.5694 36.6939 28.0054 36.2459 28.0027 35.6991V30.5662C28.0027 30.2159 28.2867 29.9319 28.6369 29.9319H28.8145C29.1647 29.9319 29.4487 30.2159 29.4487 30.5662V44.476C29.4487 44.8263 29.1647 45.1103 28.8145 45.1103H28.6369C28.2867 45.1103 28.0027 44.8263 28.0027 44.476V38.9435Z"/>
</mask>
<path fill-rule="evenodd" clip-rule="evenodd" d="M28.639 45.4844H28.8166C29.3704 45.481 29.8178 45.0314 29.8186 44.4775V30.5661C29.8186 30.2987 29.7124 30.0421 29.5233 29.853C29.3342 29.6639 29.0777 29.5576 28.8102 29.5576H28.6327C28.3652 29.5576 28.1087 29.6639 27.9196 29.853C27.7305 30.0421 27.6243 30.2987 27.6243 30.5661V35.7022C27.6244 36.0464 27.35 36.3279 27.0059 36.3365L20.0741 36.5252C19.9016 36.5337 19.7336 36.4679 19.6127 36.3444C19.489 36.2248 19.4191 36.0599 19.4193 35.8878V30.5661C19.4193 30.0091 18.9678 29.5576 18.4109 29.5576H18.2334C17.6771 29.5585 17.2266 30.0098 17.2266 30.5661V44.4743C17.2274 45.0301 17.6777 45.4804 18.2334 45.4813H18.4173C18.9736 45.4813 19.4248 45.0307 19.4257 44.4743V39.1305C19.4255 38.7863 19.6999 38.5048 20.044 38.4962L26.9758 38.3075C27.1484 38.2986 27.3166 38.3645 27.4372 38.4883C27.561 38.608 27.6308 38.7728 27.6306 38.945V44.4775C27.6315 45.0339 28.0827 45.4844 28.639 45.4844ZM28.0027 38.9435C28.0027 38.3874 27.552 37.9366 26.9959 37.9366L26.9563 37.9381L20.0245 38.1268C19.4779 38.139 19.0419 38.587 19.0446 39.1338V44.4776C19.0446 44.8279 18.7607 45.1119 18.4104 45.1119H18.2329C17.8826 45.1119 17.5987 44.8279 17.5987 44.4776V30.5662C17.5987 30.2159 17.8826 29.9319 18.2329 29.9319H18.4215C18.7718 29.9319 19.0557 30.2159 19.0557 30.5662V35.8878C19.055 36.1597 19.1649 36.4202 19.3601 36.6093C19.5535 36.8009 19.8174 36.9042 20.0895 36.8948L27.0229 36.7061C27.5694 36.6939 28.0054 36.2459 28.0027 35.6991V30.5662C28.0027 30.2159 28.2867 29.9319 28.6369 29.9319H28.8145C29.1647 29.9319 29.4487 30.2159 29.4487 30.5662V44.476C29.4487 44.8263 29.1647 45.1103 28.8145 45.1103H28.6369C28.2867 45.1103 28.0027 44.8263 28.0027 44.476V38.9435Z" fill="#C41C24"/>
<path d="M28.8166 45.4844V45.6844L28.8178 45.6844L28.8166 45.4844ZM29.8186 44.4775L30.0186 44.4778V44.4775H29.8186ZM29.5233 29.853L29.3818 29.9944L29.5233 29.853ZM27.9196 29.853L28.0611 29.9944L27.9196 29.853ZM27.6243 35.7022H27.4243V35.7023L27.6243 35.7022ZM27.0059 36.3365L27.0009 36.1366L27.0005 36.1366L27.0059 36.3365ZM20.0741 36.5252L20.0687 36.3252L20.0643 36.3254L20.0741 36.5252ZM19.6127 36.3444L19.7557 36.2045L19.7518 36.2006L19.6127 36.3444ZM19.4193 35.8878L19.6193 35.888V35.8878H19.4193ZM18.2334 29.5576V29.3576L18.233 29.3576L18.2334 29.5576ZM17.2266 44.4743H17.0266L17.0266 44.4747L17.2266 44.4743ZM18.2334 45.4813L18.233 45.6813H18.2334V45.4813ZM19.4257 44.4743L19.6257 44.4747V44.4743H19.4257ZM19.4257 39.1305H19.6257V39.1305L19.4257 39.1305ZM20.044 38.4962L20.049 38.6962L20.0494 38.6962L20.044 38.4962ZM26.9758 38.3075L26.9813 38.5075L26.9861 38.5073L26.9758 38.3075ZM27.4372 38.4883L27.2939 38.6279L27.2982 38.6321L27.4372 38.4883ZM27.6306 38.945L27.4306 38.9448V38.945H27.6306ZM27.6306 44.4775H27.4306V44.4778L27.6306 44.4775ZM26.9959 37.9366V37.7364L26.9879 37.7367L26.9959 37.9366ZM26.9563 37.9381L26.9617 38.1381L26.9643 38.138L26.9563 37.9381ZM20.0245 38.1268L20.0289 38.3268L20.0299 38.3268L20.0245 38.1268ZM19.0446 39.1338H19.2446L19.2446 39.1328L19.0446 39.1338ZM19.0557 35.8878L19.2557 35.8884V35.8878H19.0557ZM19.3601 36.6093L19.5009 36.4672L19.4993 36.4657L19.3601 36.6093ZM20.0895 36.8948L20.084 36.6948L20.0825 36.6949L20.0895 36.8948ZM27.0229 36.7061L27.0184 36.5061L27.0174 36.5061L27.0229 36.7061ZM28.0027 35.6991H27.8027L27.8027 35.7001L28.0027 35.6991ZM28.8166 45.2844H28.639V45.6844H28.8166V45.2844ZM29.6186 44.4772C29.6179 44.9213 29.2593 45.2817 28.8153 45.2844L28.8178 45.6844C29.4815 45.6803 30.0176 45.1416 30.0186 44.4778L29.6186 44.4772ZM29.6186 30.5661V44.4775H30.0186V30.5661H29.6186ZM29.3818 29.9944C29.5334 30.146 29.6186 30.3517 29.6186 30.5661H30.0186C30.0186 30.2456 29.8913 29.9382 29.6647 29.7116L29.3818 29.9944ZM28.8102 29.7576C29.0246 29.7576 29.2302 29.8428 29.3818 29.9944L29.6647 29.7116C29.4381 29.4849 29.1307 29.3576 28.8102 29.3576V29.7576ZM28.6327 29.7576H28.8102V29.3576H28.6327V29.7576ZM28.0611 29.9944C28.2127 29.8428 28.4183 29.7576 28.6327 29.7576V29.3576C28.3122 29.3576 28.0048 29.4849 27.7782 29.7116L28.0611 29.9944ZM27.8243 30.5661C27.8243 30.3517 27.9095 30.146 28.0611 29.9944L27.7782 29.7116C27.5516 29.9382 27.4243 30.2456 27.4243 30.5661H27.8243ZM27.8243 35.7022V30.5661H27.4243V35.7022H27.8243ZM27.0109 36.5364C27.4635 36.5251 27.8244 36.1549 27.8243 35.7022L27.4243 35.7023C27.4244 35.938 27.2365 36.1307 27.0009 36.1366L27.0109 36.5364ZM20.0796 36.7251L27.0114 36.5364L27.0005 36.1366L20.0687 36.3253L20.0796 36.7251ZM19.4698 36.4843C19.6307 36.6487 19.8543 36.7363 20.084 36.725L20.0643 36.3254C19.9489 36.3311 19.8365 36.2871 19.7557 36.2045L19.4698 36.4843ZM19.2193 35.8876C19.2191 36.114 19.3109 36.3308 19.4737 36.4882L19.7518 36.2006C19.667 36.1187 19.6192 36.0058 19.6193 35.888L19.2193 35.8876ZM19.2193 30.5661V35.8878H19.6193V30.5661H19.2193ZM18.4109 29.7576C18.8574 29.7576 19.2193 30.1196 19.2193 30.5661H19.6193C19.6193 29.8987 19.0783 29.3576 18.4109 29.3576V29.7576ZM18.2334 29.7576H18.4109V29.3576H18.2334V29.7576ZM17.4266 30.5661C17.4266 30.1201 17.7877 29.7583 18.2337 29.7576L18.233 29.3576C17.5664 29.3587 17.0266 29.8995 17.0266 30.5661H17.4266ZM17.4266 44.4743V30.5661H17.0266V44.4743H17.4266ZM18.2337 45.2813C17.7882 45.2806 17.4273 44.9196 17.4266 44.474L17.0266 44.4747C17.0276 45.1406 17.5671 45.6802 18.233 45.6813L18.2337 45.2813ZM18.4173 45.2813H18.2334V45.6813H18.4173V45.2813ZM19.2257 44.474C19.225 44.9201 18.8632 45.2813 18.4173 45.2813V45.6813C19.0839 45.6813 19.6246 45.1413 19.6257 44.4747L19.2257 44.474ZM19.2257 39.1305V44.4743H19.6257V39.1305H19.2257ZM20.039 38.2963C19.5864 38.3076 19.2255 38.6779 19.2257 39.1306L19.6257 39.1305C19.6256 38.8948 19.8135 38.7021 20.049 38.6962L20.039 38.2963ZM26.9704 38.1076L20.0386 38.2963L20.0494 38.6962L26.9813 38.5075L26.9704 38.1076ZM27.5804 38.3487C27.4197 38.1837 27.1956 38.0959 26.9655 38.1078L26.9861 38.5073C27.1013 38.5013 27.2135 38.5453 27.2939 38.6279L27.5804 38.3487ZM27.8306 38.9452C27.8308 38.7187 27.739 38.5019 27.5762 38.3445L27.2982 38.6321C27.3829 38.714 27.4307 38.8269 27.4306 38.9448L27.8306 38.9452ZM27.8306 44.4775V38.945H27.4306V44.4775H27.8306ZM28.639 45.2844C28.1931 45.2844 27.8313 44.9233 27.8306 44.4772L27.4306 44.4778C27.4317 45.1445 27.9723 45.6844 28.639 45.6844V45.2844ZM26.9959 38.1366C27.4415 38.1366 27.8027 38.4978 27.8027 38.9435H28.2027C28.2027 38.2769 27.6624 37.7366 26.9959 37.7366V38.1366ZM26.9643 38.138L27.0039 38.1364L26.9879 37.7367L26.9483 37.7383L26.9643 38.138ZM20.0299 38.3268L26.9617 38.1381L26.9508 37.7382L20.019 37.9269L20.0299 38.3268ZM19.2446 39.1328C19.2424 38.6951 19.5914 38.3365 20.0289 38.3268L20.02 37.9269C19.3643 37.9414 18.8414 38.4789 18.8446 39.1348L19.2446 39.1328ZM19.2446 44.4776V39.1338H18.8446V44.4776H19.2446ZM18.4104 45.3119C18.8712 45.3119 19.2446 44.9383 19.2446 44.4776H18.8446C18.8446 44.7175 18.6502 44.9119 18.4104 44.9119V45.3119ZM18.2329 45.3119H18.4104V44.9119H18.2329V45.3119ZM17.3987 44.4776C17.3987 44.9383 17.7721 45.3119 18.2329 45.3119V44.9119C17.9931 44.9119 17.7987 44.7175 17.7987 44.4776H17.3987ZM17.3987 30.5662V44.4776H17.7987V30.5662H17.3987ZM18.2329 29.7319C17.7721 29.7319 17.3987 30.1055 17.3987 30.5662H17.7987C17.7987 30.3263 17.9931 30.1319 18.2329 30.1319V29.7319ZM18.4215 29.7319H18.2329V30.1319H18.4215V29.7319ZM19.2557 30.5662C19.2557 30.1055 18.8823 29.7319 18.4215 29.7319V30.1319C18.6613 30.1319 18.8557 30.3263 18.8557 30.5662H19.2557ZM19.2557 35.8878V30.5662H18.8557V35.8878H19.2557ZM19.4993 36.4657C19.3431 36.3143 19.2551 36.1059 19.2557 35.8884L18.8557 35.8873C18.8548 36.2135 18.9867 36.526 19.221 36.753L19.4993 36.4657ZM20.0825 36.6949C19.8656 36.7024 19.6551 36.62 19.5009 36.4672L19.2194 36.7514C19.4519 36.9818 19.7693 37.106 20.0964 37.0946L20.0825 36.6949ZM27.0174 36.5061L20.084 36.6948L20.0949 37.0947L27.0283 36.906L27.0174 36.5061ZM27.8027 35.7001C27.8049 36.1378 27.4559 36.4964 27.0184 36.5061L27.0273 36.906C27.683 36.8915 28.206 36.354 28.2027 35.6981L27.8027 35.7001ZM27.8027 30.5662V35.6991H28.2027V30.5662H27.8027ZM28.6369 29.7319C28.1762 29.7319 27.8027 30.1055 27.8027 30.5662H28.2027C28.2027 30.3263 28.3971 30.1319 28.6369 30.1319V29.7319ZM28.8145 29.7319H28.6369V30.1319H28.8145V29.7319ZM29.6487 30.5662C29.6487 30.1055 29.2752 29.7319 28.8145 29.7319V30.1319C29.0543 30.1319 29.2487 30.3263 29.2487 30.5662H29.6487ZM29.6487 44.476V30.5662H29.2487V44.476H29.6487ZM28.8145 45.3103C29.2752 45.3103 29.6487 44.9367 29.6487 44.476H29.2487C29.2487 44.7159 29.0543 44.9103 28.8145 44.9103V45.3103ZM28.6369 45.3103H28.8145V44.9103H28.6369V45.3103ZM27.8027 44.476C27.8027 44.9367 28.1762 45.3103 28.6369 45.3103V44.9103C28.3971 44.9103 28.2027 44.7159 28.2027 44.476H27.8027ZM27.8027 38.9435V44.476H28.2027V38.9435H27.8027Z" fill="#C41C24" mask="url(#path-8-outside-2)"/>
<mask id="path-10-outside-3" maskUnits="userSpaceOnUse" x="31.1016" y="28.5591" width="8" height="18" fill="black">
<rect fill="white" x="31.1016" y="28.5591" width="8" height="18"/>
<path fill-rule="evenodd" clip-rule="evenodd" d="M33.1095 45.4843H33.2966C33.7482 45.4849 34.1455 45.1859 34.2701 44.7517L38.1926 30.8403C38.2779 30.5365 38.2161 30.2102 38.0256 29.9587C37.8351 29.7071 37.5378 29.5592 37.2223 29.5591H37.0352C36.5843 29.5602 36.1885 29.8596 36.0648 30.2933L32.1391 44.2031C32.0538 44.5069 32.1156 44.8332 32.3061 45.0847C32.4966 45.3363 32.7939 45.4842 33.1095 45.4843ZM36.4202 30.3936C36.4965 30.1187 36.7469 29.9286 37.0322 29.929L37.2192 29.9306C37.4187 29.9299 37.6068 30.0231 37.7272 30.1821C37.8476 30.3412 37.8861 30.5476 37.8313 30.7393L33.9087 44.6491C33.8324 44.924 33.582 45.1142 33.2967 45.1137H33.116C32.9165 45.1145 32.7284 45.0213 32.608 44.8623C32.4877 44.7032 32.4491 44.4968 32.504 44.305L36.4202 30.3936Z"/>
</mask>
<path fill-rule="evenodd" clip-rule="evenodd" d="M33.1095 45.4843H33.2966C33.7482 45.4849 34.1455 45.1859 34.2701 44.7517L38.1926 30.8403C38.2779 30.5365 38.2161 30.2102 38.0256 29.9587C37.8351 29.7071 37.5378 29.5592 37.2223 29.5591H37.0352C36.5843 29.5602 36.1885 29.8596 36.0648 30.2933L32.1391 44.2031C32.0538 44.5069 32.1156 44.8332 32.3061 45.0847C32.4966 45.3363 32.7939 45.4842 33.1095 45.4843ZM36.4202 30.3936C36.4965 30.1187 36.7469 29.9286 37.0322 29.929L37.2192 29.9306C37.4187 29.9299 37.6068 30.0231 37.7272 30.1821C37.8476 30.3412 37.8861 30.5476 37.8313 30.7393L33.9087 44.6491C33.8324 44.924 33.582 45.1142 33.2967 45.1137H33.116C32.9165 45.1145 32.7284 45.0213 32.608 44.8623C32.4877 44.7032 32.4491 44.4968 32.504 44.305L36.4202 30.3936Z" fill="#C41C24"/>
<path d="M33.2966 45.4843L33.2968 45.2843H33.2966V45.4843ZM33.1095 45.4843L33.1094 45.6843H33.1095V45.4843ZM34.2701 44.7517L34.4623 44.8069L34.4626 44.806L34.2701 44.7517ZM38.1926 30.8403L38.3851 30.8946L38.3851 30.8944L38.1926 30.8403ZM38.0256 29.9587L38.1851 29.8379L38.1851 29.8379L38.0256 29.9587ZM37.2223 29.5591L37.2224 29.3591H37.2223V29.5591ZM37.0352 29.5591V29.3591L37.0347 29.3591L37.0352 29.5591ZM36.0648 30.2933L35.8725 30.2384L35.8724 30.2389L36.0648 30.2933ZM32.1391 44.2031L31.9467 44.1488L31.9466 44.149L32.1391 44.2031ZM32.3061 45.0847L32.4656 44.964H32.4656L32.3061 45.0847ZM37.0322 29.929L37.0339 29.729L37.0324 29.729L37.0322 29.929ZM36.4202 30.3936L36.6127 30.4478L36.6129 30.4471L36.4202 30.3936ZM37.2192 29.9306L37.2176 30.1306L37.22 30.1306L37.2192 29.9306ZM37.7272 30.1821L37.5677 30.3028L37.7272 30.1821ZM37.8313 30.7393L37.639 30.6843L37.6388 30.685L37.8313 30.7393ZM33.9087 44.6491L33.7162 44.5949L33.716 44.5956L33.9087 44.6491ZM33.2967 45.1137L33.297 44.9137H33.2967V45.1137ZM33.116 45.1137V44.9137L33.1153 44.9138L33.116 45.1137ZM32.608 44.8623L32.7675 44.7416H32.7675L32.608 44.8623ZM32.504 44.305L32.6963 44.36L32.6965 44.3592L32.504 44.305ZM33.2966 45.2843H33.1095V45.6843H33.2966V45.2843ZM34.0778 44.6966C33.9779 45.0449 33.6591 45.2848 33.2968 45.2843L33.2963 45.6843C33.8373 45.685 34.3131 45.3269 34.4623 44.8069L34.0778 44.6966ZM38.0001 30.7861L34.0776 44.6975L34.4626 44.806L38.3851 30.8946L38.0001 30.7861ZM37.8662 30.0794C38.0189 30.2811 38.0685 30.5427 38 30.7863L38.3851 30.8944C38.4874 30.5303 38.4134 30.1394 38.1851 29.8379L37.8662 30.0794ZM37.2222 29.7591C37.4751 29.7592 37.7134 29.8777 37.8662 30.0794L38.1851 29.8379C37.9567 29.5365 37.6005 29.3593 37.2224 29.3591L37.2222 29.7591ZM37.0352 29.7591H37.2223V29.3591H37.0352V29.7591ZM36.2572 30.3481C36.3564 30.0002 36.6739 29.7599 37.0357 29.7591L37.0347 29.3591C36.4946 29.3604 36.0206 29.719 35.8725 30.2384L36.2572 30.3481ZM32.3316 44.2574L36.2573 30.3476L35.8724 30.2389L31.9467 44.1488L32.3316 44.2574ZM32.4656 44.964C32.3128 44.7623 32.2633 44.5007 32.3317 44.2572L31.9466 44.149C31.8443 44.5131 31.9184 44.904 32.1467 45.2055L32.4656 44.964ZM33.1096 45.2843C32.8566 45.2842 32.6183 45.1657 32.4656 44.964L32.1467 45.2055C32.375 45.5069 32.7312 45.6841 33.1094 45.6843L33.1096 45.2843ZM37.0324 29.729C36.6572 29.7285 36.3278 29.9786 36.2274 30.3402L36.6129 30.4471C36.6651 30.2589 36.8366 30.1288 37.0319 30.129L37.0324 29.729ZM37.2209 29.7306L37.0339 29.729L37.0305 30.129L37.2176 30.1306L37.2209 29.7306ZM37.8867 30.0614C37.7284 29.8522 37.4809 29.7297 37.2185 29.7306L37.22 30.1306C37.3565 30.1301 37.4853 30.1939 37.5677 30.3028L37.8867 30.0614ZM38.0235 30.7943C38.0957 30.5421 38.045 30.2706 37.8867 30.0614L37.5677 30.3028C37.6501 30.4117 37.6765 30.553 37.639 30.6843L38.0235 30.7943ZM34.1012 44.7034L38.0237 30.7936L37.6388 30.685L33.7162 44.5949L34.1012 44.7034ZM33.2964 45.3137C33.6717 45.3143 34.0011 45.0642 34.1014 44.7026L33.716 44.5956C33.6638 44.7839 33.4923 44.914 33.297 44.9137L33.2964 45.3137ZM33.116 45.3137H33.2967V44.9137H33.116V45.3137ZM32.4485 44.9829C32.6069 45.1921 32.8543 45.3147 33.1167 45.3137L33.1153 44.9138C32.9787 44.9142 32.8499 44.8505 32.7675 44.7416L32.4485 44.9829ZM32.3117 44.25C32.2395 44.5023 32.2902 44.7738 32.4485 44.9829L32.7675 44.7416C32.6851 44.6327 32.6587 44.4913 32.6963 44.36L32.3117 44.25ZM36.2276 30.3394L32.3114 44.2508L32.6965 44.3592L36.6127 30.4478L36.2276 30.3394Z" fill="#C41C24" mask="url(#path-10-outside-3)"/>
<mask id="path-12-outside-4" maskUnits="userSpaceOnUse" x="38.5137" y="28.3643" width="15" height="18" fill="black">
<rect fill="white" x="38.5137" y="28.3643" width="15" height="18"/>
<path fill-rule="evenodd" clip-rule="evenodd" d="M44.2523 45.6038C44.8656 45.778 45.4998 45.8681 46.1374 45.8718C48.4285 45.8718 50.3549 44.6033 51.4821 42.2723C51.603 42.024 51.6145 41.7365 51.5139 41.4794C51.4153 41.2203 51.2155 41.0125 50.9605 40.9038L50.7068 40.7976C50.2125 40.5951 49.6459 40.8099 49.4099 41.2891C48.3714 43.3648 46.8287 44.1355 44.8119 43.5773C43.4865 43.2094 42.5399 42.3849 42.0595 41.1321C41.5791 39.8794 41.5997 38.224 42.1055 36.402C42.6113 34.58 43.4405 33.1751 44.5044 32.341C45.5202 31.5258 46.8727 31.2641 48.1193 31.6417C50.006 32.165 50.9542 33.5192 50.9399 35.6678C50.9314 36.1894 51.3232 36.6308 51.8421 36.6842L52.0688 36.7064C52.3505 36.7344 52.6313 36.6442 52.8441 36.4575C53.0514 36.2775 53.1734 36.0185 53.1802 35.7439C53.2579 32.7517 51.5345 30.4048 48.6806 29.612C44.7961 28.5369 41.2953 31.0264 39.9714 35.8089C38.6253 40.666 40.3059 44.5113 44.2523 45.6038ZM40.3302 35.9084C41.3997 32.0433 43.9388 29.7413 46.9171 29.7384C47.4814 29.7405 48.0429 29.8194 48.5859 29.9731C51.3082 30.7263 52.889 32.8828 52.8129 35.7371C52.8081 35.9082 52.7315 36.0693 52.602 36.1811C52.4671 36.2996 52.2892 36.357 52.1105 36.3397L51.8837 36.3175C51.5548 36.2837 51.307 36.0027 51.3146 35.6721C51.3304 33.3681 50.2602 31.8505 48.2212 31.286C46.8613 30.8746 45.3859 31.1606 44.2781 32.0503C43.1508 32.9352 42.2835 34.3861 41.7508 36.3048C41.2181 38.2235 41.1991 39.9202 41.7159 41.2665C42.2328 42.6127 43.2697 43.5356 44.7157 43.9368C46.8958 44.5409 48.6303 43.6767 49.7402 41.4567C49.8869 41.1513 50.2458 41.0124 50.5599 41.1396L50.8135 41.2458C50.9758 41.3136 51.1027 41.4457 51.1639 41.6106C51.226 41.7711 51.2191 41.95 51.1449 42.1053C49.8178 44.8835 47.2763 46.0569 44.3526 45.2466C40.6235 44.2127 39.0459 40.5481 40.3302 35.9084ZM46.9171 29.7384C46.919 29.7384 46.9208 29.7384 46.9227 29.7384H46.9164C46.9166 29.7384 46.9169 29.7384 46.9171 29.7384Z"/>
</mask>
<path fill-rule="evenodd" clip-rule="evenodd" d="M44.2523 45.6038C44.8656 45.778 45.4998 45.8681 46.1374 45.8718C48.4285 45.8718 50.3549 44.6033 51.4821 42.2723C51.603 42.024 51.6145 41.7365 51.5139 41.4794C51.4153 41.2203 51.2155 41.0125 50.9605 40.9038L50.7068 40.7976C50.2125 40.5951 49.6459 40.8099 49.4099 41.2891C48.3714 43.3648 46.8287 44.1355 44.8119 43.5773C43.4865 43.2094 42.5399 42.3849 42.0595 41.1321C41.5791 39.8794 41.5997 38.224 42.1055 36.402C42.6113 34.58 43.4405 33.1751 44.5044 32.341C45.5202 31.5258 46.8727 31.2641 48.1193 31.6417C50.006 32.165 50.9542 33.5192 50.9399 35.6678C50.9314 36.1894 51.3232 36.6308 51.8421 36.6842L52.0688 36.7064C52.3505 36.7344 52.6313 36.6442 52.8441 36.4575C53.0514 36.2775 53.1734 36.0185 53.1802 35.7439C53.2579 32.7517 51.5345 30.4048 48.6806 29.612C44.7961 28.5369 41.2953 31.0264 39.9714 35.8089C38.6253 40.666 40.3059 44.5113 44.2523 45.6038ZM40.3302 35.9084C41.3997 32.0433 43.9388 29.7413 46.9171 29.7384C47.4814 29.7405 48.0429 29.8194 48.5859 29.9731C51.3082 30.7263 52.889 32.8828 52.8129 35.7371C52.8081 35.9082 52.7315 36.0693 52.602 36.1811C52.4671 36.2996 52.2892 36.357 52.1105 36.3397L51.8837 36.3175C51.5548 36.2837 51.307 36.0027 51.3146 35.6721C51.3304 33.3681 50.2602 31.8505 48.2212 31.286C46.8613 30.8746 45.3859 31.1606 44.2781 32.0503C43.1508 32.9352 42.2835 34.3861 41.7508 36.3048C41.2181 38.2235 41.1991 39.9202 41.7159 41.2665C42.2328 42.6127 43.2697 43.5356 44.7157 43.9368C46.8958 44.5409 48.6303 43.6767 49.7402 41.4567C49.8869 41.1513 50.2458 41.0124 50.5599 41.1396L50.8135 41.2458C50.9758 41.3136 51.1027 41.4457 51.1639 41.6106C51.226 41.7711 51.2191 41.95 51.1449 42.1053C49.8178 44.8835 47.2763 46.0569 44.3526 45.2466C40.6235 44.2127 39.0459 40.5481 40.3302 35.9084ZM46.9171 29.7384C46.919 29.7384 46.9208 29.7384 46.9227 29.7384H46.9164C46.9166 29.7384 46.9169 29.7384 46.9171 29.7384Z" fill="#C41C24"/>
<path d="M46.1374 45.8718L46.1363 46.0718H46.1374V45.8718ZM44.2523 45.6038L44.3069 45.4114L44.3056 45.4111L44.2523 45.6038ZM51.4821 42.2723L51.3023 42.1847L51.3021 42.1852L51.4821 42.2723ZM51.5139 41.4794L51.3269 41.5505L51.3276 41.5523L51.5139 41.4794ZM50.9605 40.9038L51.0389 40.7198L51.0378 40.7193L50.9605 40.9038ZM50.7068 40.7976L50.7841 40.6131L50.7826 40.6125L50.7068 40.7976ZM49.4099 41.2891L49.5888 41.3786L49.5893 41.3775L49.4099 41.2891ZM44.8119 43.5773L44.7585 43.77L44.7586 43.7701L44.8119 43.5773ZM42.0595 41.1321L42.2462 41.0605L42.0595 41.1321ZM42.1055 36.402L41.9128 36.3485L42.1055 36.402ZM44.5044 32.341L44.6278 32.4984L44.6295 32.497L44.5044 32.341ZM48.1193 31.6417L48.0613 31.8332L48.0658 31.8344L48.1193 31.6417ZM50.9399 35.6678L51.1399 35.6711L51.1399 35.6691L50.9399 35.6678ZM51.8421 36.6842L51.8216 36.8832L51.8226 36.8833L51.8421 36.6842ZM52.0688 36.7064L52.0885 36.5074L52.0883 36.5074L52.0688 36.7064ZM52.8441 36.4575L52.713 36.3065L52.7122 36.3072L52.8441 36.4575ZM53.1802 35.7439L52.9803 35.7387L52.9803 35.739L53.1802 35.7439ZM48.6806 29.612L48.7341 29.4193L48.7339 29.4192L48.6806 29.612ZM39.9714 35.8089L40.1641 35.8623L40.1642 35.8623L39.9714 35.8089ZM40.3302 35.9084L40.523 35.9617L40.523 35.9617L40.3302 35.9084ZM48.5859 29.9731L48.5315 30.1655L48.5326 30.1658L48.5859 29.9731ZM52.8129 35.7371L53.0128 35.7427L53.0128 35.7424L52.8129 35.7371ZM52.602 36.1811L52.4713 36.0297L52.47 36.0308L52.602 36.1811ZM52.1105 36.3397L52.091 36.5387L52.0912 36.5387L52.1105 36.3397ZM51.8837 36.3175L51.8633 36.5164L51.8643 36.5165L51.8837 36.3175ZM51.3146 35.6721L51.5145 35.6766L51.5145 35.6735L51.3146 35.6721ZM48.2212 31.286L48.1633 31.4775L48.1679 31.4788L48.2212 31.286ZM44.2781 32.0503L44.4016 32.2077L44.4033 32.2063L44.2781 32.0503ZM41.7508 36.3048L41.5581 36.2513L41.7508 36.3048ZM41.7159 41.2665L41.5292 41.3381H41.5292L41.7159 41.2665ZM44.7157 43.9368L44.6622 44.1295L44.6623 44.1295L44.7157 43.9368ZM49.7402 41.4567L49.9191 41.5462L49.9204 41.5434L49.7402 41.4567ZM50.5599 41.1396L50.6371 40.9551L50.6349 40.9542L50.5599 41.1396ZM50.8135 41.2458L50.7363 41.4303L50.7365 41.4304L50.8135 41.2458ZM51.1639 41.6106L50.9764 41.6801L50.9774 41.6827L51.1639 41.6106ZM51.1449 42.1053L50.9644 42.0191L50.9644 42.0191L51.1449 42.1053ZM44.3526 45.2466L44.2992 45.4393L44.2992 45.4393L44.3526 45.2466ZM46.9164 29.7384V29.5384L46.9156 29.9384L46.9164 29.7384ZM46.1386 45.6718C45.519 45.6682 44.9029 45.5806 44.3069 45.4114L44.1976 45.7962C44.8284 45.9753 45.4806 46.068 46.1363 46.0718L46.1386 45.6718ZM51.3021 42.1852C50.204 44.4558 48.3426 45.6718 46.1374 45.6718V46.0718C48.5143 46.0718 50.5057 44.7507 51.6622 42.3593L51.3021 42.1852ZM51.3276 41.5523C51.4079 41.7574 51.3988 41.9867 51.3023 42.1847L51.662 42.3598C51.8073 42.0613 51.8211 41.7156 51.7001 41.4065L51.3276 41.5523ZM50.8821 41.0878C51.0871 41.1751 51.2477 41.3422 51.3269 41.5505L51.7008 41.4083C51.5829 41.0984 51.344 40.8498 51.0389 40.7198L50.8821 41.0878ZM50.6296 40.982L50.8833 41.0883L51.0378 40.7193L50.7841 40.6131L50.6296 40.982ZM49.5893 41.3775C49.7789 40.9925 50.234 40.82 50.631 40.9826L50.7826 40.6125C50.191 40.3702 49.5129 40.6272 49.2305 41.2008L49.5893 41.3775ZM44.7586 43.7701C45.8038 44.0593 46.7461 44.0088 47.5669 43.5999C48.3849 43.1925 49.0568 42.4418 49.5888 41.3786L49.231 41.1996C48.7244 42.2122 48.1057 42.8847 47.3886 43.2419C46.6742 43.5977 45.8368 43.6534 44.8653 43.3846L44.7586 43.7701ZM41.8728 41.2038C42.3773 42.5195 43.3759 43.3863 44.7585 43.77L44.8654 43.3846C43.597 43.0326 42.7025 42.2502 42.2462 41.0605L41.8728 41.2038ZM41.9128 36.3485C41.4003 38.1946 41.3717 39.8972 41.8728 41.2038L42.2462 41.0605C41.7865 39.8617 41.7991 38.2533 42.2982 36.4555L41.9128 36.3485ZM44.381 32.1836C43.2724 33.0527 42.4255 34.5014 41.9128 36.3485L42.2982 36.4555C42.797 34.6586 43.6086 33.2974 44.6277 32.4984L44.381 32.1836ZM48.1773 31.4503C46.8676 31.0536 45.4465 31.3285 44.3792 32.185L44.6295 32.497C45.5939 31.7231 46.8779 31.4747 48.0613 31.8331L48.1773 31.4503ZM51.1399 35.6691C51.1472 34.5659 50.9075 33.6461 50.4063 32.9305C49.9038 32.2131 49.1521 31.7206 48.1727 31.449L48.0658 31.8344C48.9733 32.0861 49.639 32.5323 50.0787 33.16C50.5196 33.7895 50.7468 34.6211 50.7399 35.6665L51.1399 35.6691ZM51.8625 36.4853C51.4469 36.4425 51.1331 36.0889 51.1399 35.6711L50.7399 35.6645C50.7297 36.2899 51.1995 36.8191 51.8216 36.8832L51.8625 36.4853ZM52.0883 36.5074L51.8615 36.4852L51.8226 36.8833L52.0493 36.9055L52.0883 36.5074ZM52.7122 36.3072C52.541 36.4574 52.3152 36.5299 52.0885 36.5074L52.049 36.9055C52.3859 36.9389 52.7215 36.8311 52.976 36.6078L52.7122 36.3072ZM52.9803 35.739C52.9749 35.9573 52.8779 36.1633 52.713 36.3065L52.9752 36.6085C53.225 36.3916 53.372 36.0796 53.3802 35.7488L52.9803 35.739ZM48.627 29.8047C51.3913 30.5726 53.0556 32.837 52.9803 35.7387L53.3801 35.7491C53.4602 32.6664 51.6776 30.2371 48.7341 29.4193L48.627 29.8047ZM40.1642 35.8623C40.8168 33.5047 42.001 31.7302 43.4817 30.6768C44.9587 29.626 46.7428 29.2832 48.6272 29.8047L48.7339 29.4192C46.7338 28.8657 44.8253 29.2301 43.2498 30.3509C41.678 31.4691 40.4499 33.3307 39.7787 35.7556L40.1642 35.8623ZM44.3056 45.4111C42.3882 44.8802 41.0306 43.6856 40.3104 42.038C39.5882 40.3854 39.4999 38.2589 40.1641 35.8623L39.7787 35.7555C39.0968 38.216 39.1758 40.4406 39.9439 42.1982C40.7142 43.9605 42.17 45.2349 44.1989 45.7966L44.3056 45.4111ZM46.9169 29.5384C43.8183 29.5414 41.2217 31.9367 40.1374 35.855L40.523 35.9617C41.5778 32.1498 44.0593 29.9412 46.9173 29.9384L46.9169 29.5384ZM48.6403 29.7806C48.0798 29.6221 47.5004 29.5406 46.9179 29.5384L46.9164 29.9384C47.4625 29.9404 48.0059 30.0168 48.5315 30.1655L48.6403 29.7806ZM53.0128 35.7424C53.0913 32.7978 51.4516 30.5584 48.6392 29.7803L48.5326 30.1658C51.1649 30.8941 52.6866 32.9679 52.6129 35.7318L53.0128 35.7424ZM52.7326 36.3325C52.9047 36.184 53.0064 35.9699 53.0128 35.7427L52.6129 35.7315C52.6097 35.8464 52.5583 35.9546 52.4713 36.0297L52.7326 36.3325ZM52.0912 36.5387C52.3249 36.5614 52.5575 36.4863 52.7339 36.3314L52.47 36.0308C52.3766 36.1128 52.2535 36.1526 52.1297 36.1406L52.0912 36.5387ZM51.8643 36.5165L52.091 36.5387L52.13 36.1406L51.9032 36.1184L51.8643 36.5165ZM51.1146 35.6675C51.1047 36.1024 51.4306 36.4719 51.8633 36.5164L51.9042 36.1185C51.679 36.0954 51.5094 35.903 51.5145 35.6766L51.1146 35.6675ZM48.1679 31.4788C49.1501 31.7507 49.8853 32.2476 50.375 32.942C50.8658 33.6379 51.1223 34.5496 51.1146 35.6707L51.5145 35.6735C51.5227 34.4906 51.252 33.4914 50.7019 32.7115C50.1508 31.93 49.3314 31.3859 48.2746 31.0933L48.1679 31.4788ZM44.4033 32.2063C45.4597 31.3578 46.8665 31.0851 48.1633 31.4775L48.2792 31.0946C46.856 30.6641 45.3121 30.9633 44.1529 31.8944L44.4033 32.2063ZM41.9435 36.3583C42.469 34.4657 43.3183 33.058 44.4016 32.2077L44.1546 31.893C42.9833 32.8124 42.0981 34.3064 41.5581 36.2513L41.9435 36.3583ZM41.9026 41.1948C41.4063 39.9019 41.4177 38.2521 41.9435 36.3583L41.5581 36.2513C41.0185 38.1949 40.9918 39.9385 41.5292 41.3381L41.9026 41.1948ZM44.7692 43.7441C43.3813 43.359 42.3957 42.4791 41.9026 41.1948L41.5292 41.3381C42.0699 42.7464 43.1581 43.7122 44.6622 44.1295L44.7692 43.7441ZM49.5613 41.3673C49.0199 42.4502 48.336 43.183 47.5406 43.5766C46.7475 43.969 45.8207 44.0355 44.7691 43.7441L44.6623 44.1295C45.7907 44.4422 46.8213 44.3787 47.7179 43.9351C48.6123 43.4926 49.3506 42.6833 49.919 41.5462L49.5613 41.3673ZM50.6349 40.9542C50.2229 40.7875 49.7523 40.9695 49.5599 41.3701L49.9204 41.5434C50.0215 41.333 50.2686 41.2374 50.4848 41.325L50.6349 40.9542ZM50.8908 41.0614L50.6371 40.9551L50.4826 41.3241L50.7363 41.4303L50.8908 41.0614ZM51.3514 41.541C51.271 41.3241 51.104 41.1504 50.8905 41.0613L50.7365 41.4304C50.8476 41.4768 50.9345 41.5672 50.9764 41.6801L51.3514 41.541ZM51.3254 42.1915C51.4233 41.9866 51.4324 41.7503 51.3505 41.5384L50.9774 41.6827C51.0196 41.7918 51.0149 41.9135 50.9644 42.0191L51.3254 42.1915ZM44.2992 45.4393C45.8003 45.8554 47.216 45.765 48.4314 45.2032C49.6465 44.6414 50.6448 43.6162 51.3254 42.1915L50.9644 42.0191C50.3179 43.3726 49.3819 44.3231 48.2636 44.8401C47.1455 45.3569 45.8286 45.4481 44.406 45.0538L44.2992 45.4393ZM40.1374 35.855C39.4866 38.2063 39.5552 40.3311 40.2777 42.0088C41.0024 43.6916 42.3781 44.9067 44.2992 45.4393L44.4061 45.0539C42.598 44.5526 41.3204 43.4185 40.6451 41.8506C39.9676 40.2776 39.8895 38.2502 40.523 35.9617L40.1374 35.855ZM46.9227 29.5384C46.9208 29.5384 46.9188 29.5384 46.9169 29.5384L46.9173 29.9384C46.9191 29.9384 46.9209 29.9384 46.9227 29.9384V29.5384ZM46.9164 29.9384H46.9227V29.5384H46.9164V29.9384ZM46.9179 29.5384C46.9176 29.5384 46.9173 29.5384 46.9171 29.5384L46.9156 29.9384C46.9159 29.9384 46.9161 29.9384 46.9164 29.9384L46.9179 29.5384Z" fill="#C41C24" mask="url(#path-12-outside-4)"/>
<mask id="path-14-outside-5" maskUnits="userSpaceOnUse" x="54.4688" y="28.5576" width="13" height="18" fill="black">
<rect fill="white" x="54.4688" y="28.5576" width="13" height="18"/>
<path fill-rule="evenodd" clip-rule="evenodd" d="M65.1641 45.4844H65.3813C65.7593 45.4841 66.1054 45.2723 66.2778 44.9358C66.4502 44.5994 66.4199 44.1947 66.1994 43.8876L61.2209 36.974C61.0507 36.7388 61.0618 36.4182 61.2479 36.1954L65.3956 31.2115C65.6464 30.9111 65.7004 30.4926 65.5342 30.1383C65.368 29.7841 65.0116 29.5582 64.6203 29.5592H64.5172C64.2148 29.5583 63.9281 29.6941 63.7371 29.9287L57.6599 37.345V30.5661C57.6599 30.0098 57.2094 29.5585 56.6531 29.5576H56.4755C55.9193 29.5585 55.4688 30.0098 55.4688 30.5661V44.4775C55.4696 45.0333 55.9199 45.4836 56.4755 45.4844H56.6531C57.2088 45.4836 57.659 45.0333 57.6599 44.4775V40.7067C57.6596 40.5585 57.7112 40.4149 57.8058 40.3008L59.488 38.2631L64.3444 45.0626C64.5338 45.327 64.8389 45.484 65.1641 45.4844ZM59.5734 37.8032H59.3895L57.525 40.0724C57.3773 40.251 57.2956 40.4749 57.2935 40.7067V44.4775C57.2935 44.8278 57.0095 45.1118 56.6593 45.1118H56.4817C56.1314 45.1118 55.8475 44.8278 55.8475 44.4775V30.5661C55.8475 30.2158 56.1314 29.9318 56.4817 29.9318H56.6593C57.0095 29.9318 57.2935 30.2158 57.2935 30.5661V37.8112L57.3379 37.9967H57.6106L64.0192 30.1633C64.14 30.0153 64.3212 29.9296 64.5123 29.9302H64.6153C64.8631 29.9281 65.0894 30.0706 65.1947 30.2949C65.3 30.5192 65.2651 30.7842 65.1052 30.9736L60.9639 35.9591C60.6716 36.3124 60.6541 36.8184 60.9211 37.1912L65.8996 44.1048C66.041 44.2984 66.0612 44.5551 65.9519 44.7684C65.8426 44.9817 65.6224 45.1152 65.3827 45.1133H65.1671C64.9613 45.1139 64.768 45.0146 64.6486 44.8469L59.6733 37.8809L59.5734 37.8032Z"/>
</mask>
<path fill-rule="evenodd" clip-rule="evenodd" d="M65.1641 45.4844H65.3813C65.7593 45.4841 66.1054 45.2723 66.2778 44.9358C66.4502 44.5994 66.4199 44.1947 66.1994 43.8876L61.2209 36.974C61.0507 36.7388 61.0618 36.4182 61.2479 36.1954L65.3956 31.2115C65.6464 30.9111 65.7004 30.4926 65.5342 30.1383C65.368 29.7841 65.0116 29.5582 64.6203 29.5592H64.5172C64.2148 29.5583 63.9281 29.6941 63.7371 29.9287L57.6599 37.345V30.5661C57.6599 30.0098 57.2094 29.5585 56.6531 29.5576H56.4755C55.9193 29.5585 55.4688 30.0098 55.4688 30.5661V44.4775C55.4696 45.0333 55.9199 45.4836 56.4755 45.4844H56.6531C57.2088 45.4836 57.659 45.0333 57.6599 44.4775V40.7067C57.6596 40.5585 57.7112 40.4149 57.8058 40.3008L59.488 38.2631L64.3444 45.0626C64.5338 45.327 64.8389 45.484 65.1641 45.4844ZM59.5734 37.8032H59.3895L57.525 40.0724C57.3773 40.251 57.2956 40.4749 57.2935 40.7067V44.4775C57.2935 44.8278 57.0095 45.1118 56.6593 45.1118H56.4817C56.1314 45.1118 55.8475 44.8278 55.8475 44.4775V30.5661C55.8475 30.2158 56.1314 29.9318 56.4817 29.9318H56.6593C57.0095 29.9318 57.2935 30.2158 57.2935 30.5661V37.8112L57.3379 37.9967H57.6106L64.0192 30.1633C64.14 30.0153 64.3212 29.9296 64.5123 29.9302H64.6153C64.8631 29.9281 65.0894 30.0706 65.1947 30.2949C65.3 30.5192 65.2651 30.7842 65.1052 30.9736L60.9639 35.9591C60.6716 36.3124 60.6541 36.8184 60.9211 37.1912L65.8996 44.1048C66.041 44.2984 66.0612 44.5551 65.9519 44.7684C65.8426 44.9817 65.6224 45.1152 65.3827 45.1133H65.1671C64.9613 45.1139 64.768 45.0146 64.6486 44.8469L59.6733 37.8809L59.5734 37.8032Z" fill="#C41C24"/>
<path d="M65.3813 45.4844V45.6844H65.3815L65.3813 45.4844ZM65.1641 45.4844L65.1638 45.6844H65.1641V45.4844ZM66.2778 44.9358L66.4558 45.027V45.027L66.2778 44.9358ZM66.1994 43.8876L66.3619 43.771L66.3617 43.7708L66.1994 43.8876ZM61.2209 36.974L61.3832 36.8571L61.383 36.8567L61.2209 36.974ZM61.2479 36.1954L61.4014 36.3236L61.4016 36.3233L61.2479 36.1954ZM65.3956 31.2115L65.242 31.0833L65.2418 31.0836L65.3956 31.2115ZM64.6203 29.5592V29.7592L64.6208 29.7592L64.6203 29.5592ZM64.5172 29.5592L64.5166 29.7592H64.5172V29.5592ZM63.7371 29.9287L63.8918 30.0554L63.8923 30.0549L63.7371 29.9287ZM57.6599 37.345H57.4599V37.9046L57.8146 37.4718L57.6599 37.345ZM57.6599 30.5661L57.4599 30.5661V30.5661H57.6599ZM56.6531 29.5576L56.6534 29.3576H56.6531V29.5576ZM56.4755 29.5576V29.3576L56.4752 29.3576L56.4755 29.5576ZM55.4688 44.4775H55.2687L55.2688 44.4778L55.4688 44.4775ZM56.4755 45.4844L56.4752 45.6844H56.4755V45.4844ZM56.6531 45.4844V45.6844H56.6534L56.6531 45.4844ZM57.6599 44.4775L57.8599 44.4778V44.4775H57.6599ZM57.6599 40.7067H57.8599L57.8599 40.7063L57.6599 40.7067ZM57.8058 40.3008L57.9598 40.4284L57.96 40.4281L57.8058 40.3008ZM59.488 38.2631L59.6507 38.1469L59.4995 37.9351L59.3338 38.1358L59.488 38.2631ZM64.3444 45.0626L64.1816 45.1789L64.1818 45.1791L64.3444 45.0626ZM59.3895 37.8032V37.6032H59.295L59.235 37.6763L59.3895 37.8032ZM59.5734 37.8032L59.6962 37.6454L59.6421 37.6032H59.5734V37.8032ZM57.525 40.0724L57.6791 40.1998L57.6795 40.1994L57.525 40.0724ZM57.2935 40.7067L57.0935 40.7048V40.7067H57.2935ZM57.2935 37.8112H57.0935V37.8348L57.099 37.8577L57.2935 37.8112ZM57.3379 37.9967L57.1434 38.0432L57.1801 38.1967H57.3379V37.9967ZM57.6106 37.9967V38.1967H57.7054L57.7654 38.1233L57.6106 37.9967ZM64.0192 30.1633L64.174 30.2899L64.1741 30.2898L64.0192 30.1633ZM64.5123 29.9302L64.5117 30.1302H64.5123V29.9302ZM64.6153 29.9302V30.1302L64.617 30.1302L64.6153 29.9302ZM65.1947 30.2949L65.0136 30.3799L65.0136 30.3799L65.1947 30.2949ZM65.1052 30.9736L64.9524 30.8446L64.9514 30.8458L65.1052 30.9736ZM60.9639 35.9591L60.8101 35.8313L60.8098 35.8316L60.9639 35.9591ZM60.9211 37.1912L60.7585 37.3076L60.7588 37.308L60.9211 37.1912ZM65.8996 44.1048L65.7373 44.2217L65.7381 44.2228L65.8996 44.1048ZM65.3827 45.1133L65.3842 44.9133H65.3827V45.1133ZM65.1671 45.1133V44.9133L65.1665 44.9133L65.1671 45.1133ZM64.6486 44.8469L64.8115 44.731L64.8114 44.7307L64.6486 44.8469ZM59.6733 37.8809L59.8361 37.7647L59.8191 37.741L59.7961 37.7231L59.6733 37.8809ZM65.3813 45.2844H65.1641V45.6844H65.3813V45.2844ZM66.0998 44.8446C65.9616 45.1144 65.6842 45.2842 65.3811 45.2844L65.3815 45.6844C65.8345 45.684 66.2492 45.4302 66.4558 45.027L66.0998 44.8446ZM66.037 44.0043C66.2138 44.2505 66.238 44.5749 66.0998 44.8447L66.4558 45.027C66.6624 44.6238 66.6261 44.139 66.3619 43.771L66.037 44.0043ZM61.0586 37.0908L66.0371 44.0045L66.3617 43.7708L61.3832 36.8571L61.0586 37.0908ZM61.0944 36.0672C60.8497 36.3602 60.8351 36.782 61.0589 37.0912L61.383 36.8567C61.2664 36.6957 61.274 36.4761 61.4014 36.3236L61.0944 36.0672ZM65.2418 31.0836L61.0942 36.0674L61.4016 36.3233L65.5493 31.3394L65.2418 31.0836ZM65.3531 30.2233C65.4864 30.5072 65.443 30.8426 65.242 31.0833L65.5491 31.3397C65.8497 30.9796 65.9145 30.478 65.7153 30.0534L65.3531 30.2233ZM64.6208 29.7592C64.9343 29.7584 65.2199 29.9394 65.3531 30.2233L65.7153 30.0534C65.516 29.6288 65.0888 29.358 64.6198 29.3592L64.6208 29.7592ZM64.5172 29.7592H64.6203V29.3592H64.5172V29.7592ZM63.8923 30.0549C64.0451 29.8672 64.2745 29.7585 64.5166 29.7592L64.5178 29.3592C64.155 29.3581 63.8111 29.521 63.582 29.8024L63.8923 30.0549ZM57.8146 37.4718L63.8918 30.0554L63.5824 29.8019L57.5052 37.2183L57.8146 37.4718ZM57.4599 30.5661V37.345H57.8599V30.5661H57.4599ZM56.6528 29.7576C57.0987 29.7583 57.4599 30.1201 57.4599 30.5661L57.8599 30.5661C57.8599 29.8995 57.3201 29.3587 56.6534 29.3576L56.6528 29.7576ZM56.4755 29.7576H56.6531V29.3576H56.4755V29.7576ZM55.6688 30.5661C55.6688 30.1201 56.0299 29.7583 56.4759 29.7576L56.4752 29.3576C55.8086 29.3587 55.2687 29.8995 55.2687 30.5661H55.6688ZM55.6688 44.4775V30.5661H55.2687V44.4775H55.6688ZM56.4759 45.2844C56.0304 45.2837 55.6694 44.9228 55.6687 44.4772L55.2688 44.4778C55.2698 45.1438 55.8093 45.6834 56.4752 45.6844L56.4759 45.2844ZM56.6531 45.2844H56.4755V45.6844H56.6531V45.2844ZM57.4599 44.4772C57.4592 44.9228 57.0982 45.2837 56.6528 45.2844L56.6534 45.6844C57.3193 45.6834 57.8589 45.1438 57.8599 44.4778L57.4599 44.4772ZM57.4599 40.7067V44.4775H57.8599V40.7067H57.4599ZM57.6518 40.1732C57.5274 40.3233 57.4595 40.5122 57.4599 40.7071L57.8599 40.7063C57.8597 40.6048 57.8951 40.5065 57.9598 40.4284L57.6518 40.1732ZM59.3338 38.1358L57.6515 40.1734L57.96 40.4281L59.6422 38.3905L59.3338 38.1358ZM64.5071 44.9464L59.6507 38.1469L59.3252 38.3794L64.1816 45.1789L64.5071 44.9464ZM65.1643 45.2844C64.9036 45.2841 64.6589 45.1582 64.507 44.9462L64.1818 45.1791C64.4087 45.4959 64.7742 45.6839 65.1638 45.6844L65.1643 45.2844ZM59.3895 38.0032H59.5734V37.6032H59.3895V38.0032ZM57.6795 40.1994L59.544 37.9302L59.235 37.6763L57.3704 39.9454L57.6795 40.1994ZM57.4935 40.7085C57.4952 40.5227 57.5607 40.343 57.6791 40.1998L57.3708 39.945C57.1939 40.1589 57.096 40.4272 57.0935 40.7048L57.4935 40.7085ZM57.4935 44.4775V40.7067H57.0935V44.4775H57.4935ZM56.6593 45.3118C57.12 45.3118 57.4935 44.9382 57.4935 44.4775H57.0935C57.0935 44.7173 56.8991 44.9118 56.6593 44.9118V45.3118ZM56.4817 45.3118H56.6593V44.9118H56.4817V45.3118ZM55.6475 44.4775C55.6475 44.9382 56.021 45.3118 56.4817 45.3118V44.9118C56.2419 44.9118 56.0475 44.7173 56.0475 44.4775H55.6475ZM55.6475 30.5661V44.4775H56.0475V30.5661H55.6475ZM56.4817 29.7318C56.021 29.7318 55.6475 30.1053 55.6475 30.5661H56.0475C56.0475 30.3262 56.2419 30.1318 56.4817 30.1318V29.7318ZM56.6593 29.7318H56.4817V30.1318H56.6593V29.7318ZM57.4935 30.5661C57.4935 30.1053 57.12 29.7318 56.6593 29.7318V30.1318C56.8991 30.1318 57.0935 30.3262 57.0935 30.5661H57.4935ZM57.4935 37.8112V30.5661H57.0935V37.8112H57.4935ZM57.5324 37.9502L57.488 37.7646L57.099 37.8577L57.1434 38.0432L57.5324 37.9502ZM57.6106 37.7967H57.3379V38.1967H57.6106V37.7967ZM63.8644 30.0367L57.4558 37.8701L57.7654 38.1233L64.174 30.2899L63.8644 30.0367ZM64.5129 29.7302C64.2615 29.7295 64.0232 29.8421 63.8643 30.0368L64.1741 30.2898C64.2568 30.1884 64.3809 30.1298 64.5117 30.1302L64.5129 29.7302ZM64.6153 29.7302H64.5123V30.1302H64.6153V29.7302ZM65.3757 30.2099C65.2372 29.9148 64.9396 29.7275 64.6137 29.7302L64.617 30.1302C64.7866 30.1288 64.9415 30.2263 65.0136 30.3799L65.3757 30.2099ZM65.2581 31.1026C65.4683 30.8535 65.5142 30.5049 65.3757 30.2099L65.0136 30.3799C65.0857 30.5334 65.0618 30.715 64.9524 30.8446L65.2581 31.1026ZM61.1178 36.0869L65.2591 31.1014L64.9514 30.8458L60.8101 35.8313L61.1178 36.0869ZM61.0837 37.0747C60.8695 36.7757 60.8836 36.3699 61.118 36.0865L60.8098 35.8316C60.4597 36.2549 60.4386 36.861 60.7585 37.3076L61.0837 37.0747ZM66.0619 43.988L61.0834 37.0743L60.7588 37.308L65.7373 44.2217L66.0619 43.988ZM66.1299 44.8596C66.2737 44.5791 66.2471 44.2414 66.0611 43.9868L65.7381 44.2228C65.8349 44.3553 65.8488 44.5311 65.7739 44.6772L66.1299 44.8596ZM65.3812 45.3133C65.6964 45.3157 65.9861 45.1402 66.1299 44.8596L65.7739 44.6772C65.6991 44.8232 65.5483 44.9146 65.3842 44.9133L65.3812 45.3133ZM65.1671 45.3133H65.3827V44.9133H65.1671V45.3133ZM64.4857 44.9629C64.6427 45.1835 64.8969 45.3141 65.1677 45.3133L65.1665 44.9133C65.0256 44.9137 64.8933 44.8458 64.8115 44.731L64.4857 44.9629ZM59.5106 37.9972L64.4859 44.9632L64.8114 44.7307L59.8361 37.7647L59.5106 37.9972ZM59.4506 37.9611L59.5505 38.0388L59.7961 37.7231L59.6962 37.6454L59.4506 37.9611Z" fill="#C41C24" mask="url(#path-14-outside-5)"/>
<mask id="path-16-outside-6" maskUnits="userSpaceOnUse" x="67.6133" y="28.5576" width="11" height="18" fill="black">
<rect fill="white" x="67.6133" y="28.5576" width="11" height="18"/>
<path fill-rule="evenodd" clip-rule="evenodd" d="M69.6201 45.4844H77.3082C77.5773 45.484 77.835 45.3761 78.0241 45.1846C78.2132 44.9931 78.3179 44.734 78.315 44.4648V44.376C78.315 43.8197 77.8645 43.3684 77.3082 43.3675H71.4418C71.0916 43.3675 70.8076 43.0836 70.8076 42.7332V38.9117C70.8076 38.5614 71.0916 38.2774 71.4418 38.2774H76.6851C77.226 38.2559 77.6535 37.8111 77.6535 37.2697C77.6535 36.7283 77.226 36.2834 76.6851 36.262H71.4418C71.0916 36.262 70.8076 35.978 70.8076 35.6277V32.2977C70.8076 31.9474 71.0916 31.6634 71.4418 31.6634H77.3082C77.8645 31.6626 78.315 31.2113 78.315 30.6549V30.5661C78.315 30.0098 77.8645 29.5585 77.3082 29.5576H69.6201C69.0638 29.5585 68.6133 30.0098 68.6133 30.5661V44.4775C68.6142 45.0333 69.0644 45.4836 69.6201 45.4844ZM68.985 30.5627C68.985 30.2124 69.2689 29.9285 69.6192 29.9285L77.3073 29.9427C77.6575 29.9427 77.9415 30.2267 77.9415 30.577V30.6658C77.9415 31.0161 77.6575 31.3001 77.3073 31.3001H71.4409C70.8846 31.3001 70.4334 31.7506 70.4325 32.307V35.637C70.4325 36.194 70.884 36.6455 71.4409 36.6455H76.6842C77.0344 36.6455 77.3184 36.9295 77.3184 37.2798C77.3184 37.6301 77.0344 37.9141 76.6842 37.9141H71.4409C70.884 37.9141 70.4325 38.3656 70.4325 38.9226V42.7441C70.4334 43.3005 70.8846 43.7511 71.4409 43.751H77.3073C77.6575 43.751 77.9415 44.035 77.9415 44.3853V44.4741C77.9415 44.8244 77.6575 45.1084 77.3073 45.1084H69.6192C69.2689 45.1084 68.985 44.8244 68.985 44.4741V30.5627Z"/>
</mask>
<path fill-rule="evenodd" clip-rule="evenodd" d="M69.6201 45.4844H77.3082C77.5773 45.484 77.835 45.3761 78.0241 45.1846C78.2132 44.9931 78.3179 44.734 78.315 44.4648V44.376C78.315 43.8197 77.8645 43.3684 77.3082 43.3675H71.4418C71.0916 43.3675 70.8076 43.0836 70.8076 42.7332V38.9117C70.8076 38.5614 71.0916 38.2774 71.4418 38.2774H76.6851C77.226 38.2559 77.6535 37.8111 77.6535 37.2697C77.6535 36.7283 77.226 36.2834 76.6851 36.262H71.4418C71.0916 36.262 70.8076 35.978 70.8076 35.6277V32.2977C70.8076 31.9474 71.0916 31.6634 71.4418 31.6634H77.3082C77.8645 31.6626 78.315 31.2113 78.315 30.6549V30.5661C78.315 30.0098 77.8645 29.5585 77.3082 29.5576H69.6201C69.0638 29.5585 68.6133 30.0098 68.6133 30.5661V44.4775C68.6142 45.0333 69.0644 45.4836 69.6201 45.4844ZM68.985 30.5627C68.985 30.2124 69.2689 29.9285 69.6192 29.9285L77.3073 29.9427C77.6575 29.9427 77.9415 30.2267 77.9415 30.577V30.6658C77.9415 31.0161 77.6575 31.3001 77.3073 31.3001H71.4409C70.8846 31.3001 70.4334 31.7506 70.4325 32.307V35.637C70.4325 36.194 70.884 36.6455 71.4409 36.6455H76.6842C77.0344 36.6455 77.3184 36.9295 77.3184 37.2798C77.3184 37.6301 77.0344 37.9141 76.6842 37.9141H71.4409C70.884 37.9141 70.4325 38.3656 70.4325 38.9226V42.7441C70.4334 43.3005 70.8846 43.7511 71.4409 43.751H77.3073C77.6575 43.751 77.9415 44.035 77.9415 44.3853V44.4741C77.9415 44.8244 77.6575 45.1084 77.3073 45.1084H69.6192C69.2689 45.1084 68.985 44.8244 68.985 44.4741V30.5627Z" fill="#C41C24"/>
<path d="M77.3082 45.4844V45.6844H77.3085L77.3082 45.4844ZM69.6201 45.4844L69.6198 45.6844H69.6201V45.4844ZM78.0241 45.1846L78.1664 45.3251V45.3251L78.0241 45.1846ZM78.315 44.4648H78.115L78.115 44.467L78.315 44.4648ZM78.315 44.376H78.115H78.315ZM77.3082 43.3675L77.3085 43.1675H77.3082V43.3675ZM76.6851 38.2774V38.4776L76.693 38.4773L76.6851 38.2774ZM76.6851 36.262L76.693 36.062H76.6851V36.262ZM77.3082 31.6634V31.8634L77.3085 31.8634L77.3082 31.6634ZM78.315 30.6549H78.115V30.6549L78.315 30.6549ZM78.315 30.5661L78.115 30.5661V30.5661H78.315ZM77.3082 29.5576L77.3085 29.3576H77.3082V29.5576ZM69.6201 29.5576V29.3576L69.6198 29.3576L69.6201 29.5576ZM68.6133 44.4775H68.4133L68.4133 44.4778L68.6133 44.4775ZM69.6192 29.9285L69.6195 29.7285H69.6192V29.9285ZM77.3073 29.9427L77.3069 30.1427H77.3073V29.9427ZM71.4409 31.3001L71.4409 31.5001H71.4409V31.3001ZM70.4325 32.307L70.2325 32.3067V32.307H70.4325ZM70.4325 42.7441H70.2325L70.2325 42.7444L70.4325 42.7441ZM71.4409 43.751V43.5511H71.4409L71.4409 43.751ZM77.3082 45.2844H69.6201V45.6844H77.3082V45.2844ZM77.8818 45.0441C77.7302 45.1976 77.5236 45.2841 77.3079 45.2844L77.3085 45.6844C77.631 45.684 77.9399 45.5546 78.1664 45.3251L77.8818 45.0441ZM78.115 44.467C78.1174 44.6828 78.0334 44.8905 77.8818 45.0441L78.1664 45.3251C78.393 45.0956 78.5185 44.7851 78.515 44.4626L78.115 44.467ZM78.115 44.376V44.4648H78.515V44.376H78.115ZM77.3079 43.5675C77.7538 43.5682 78.115 43.93 78.115 44.376H78.515C78.515 43.7094 77.9751 43.1686 77.3085 43.1675L77.3079 43.5675ZM71.4418 43.5675H77.3082V43.1675H71.4418V43.5675ZM70.6076 42.7332C70.6076 43.194 70.9811 43.5675 71.4418 43.5675V43.1675C71.202 43.1675 71.0076 42.9731 71.0076 42.7332H70.6076ZM70.6076 38.9117V42.7332H71.0076V38.9117H70.6076ZM71.4418 38.0774C70.9811 38.0774 70.6076 38.451 70.6076 38.9117H71.0076C71.0076 38.6718 71.202 38.4774 71.4418 38.4774V38.0774ZM76.6851 38.0774H71.4418V38.4774H76.6851V38.0774ZM77.4535 37.2697C77.4535 37.7038 77.1108 38.0604 76.6771 38.0776L76.693 38.4773C77.3412 38.4515 77.8535 37.9185 77.8535 37.2697H77.4535ZM76.6771 36.4618C77.1108 36.479 77.4535 36.8356 77.4535 37.2697H77.8535C77.8535 36.6209 77.3412 36.0879 76.693 36.0621L76.6771 36.4618ZM71.4418 36.462H76.6851V36.062H71.4418V36.462ZM70.6076 35.6277C70.6076 36.0884 70.9811 36.462 71.4418 36.462V36.062C71.202 36.062 71.0076 35.8676 71.0076 35.6277H70.6076ZM70.6076 32.2977V35.6277H71.0076V32.2977H70.6076ZM71.4418 31.4634C70.9811 31.4634 70.6076 31.837 70.6076 32.2977H71.0076C71.0076 32.0578 71.202 31.8634 71.4418 31.8634V31.4634ZM77.3082 31.4634H71.4418V31.8634H77.3082V31.4634ZM78.115 30.6549C78.115 31.101 77.7538 31.4627 77.3079 31.4634L77.3085 31.8634C77.9751 31.8624 78.515 31.3216 78.515 30.6549L78.115 30.6549ZM78.115 30.5661V30.6549H78.515V30.5661H78.115ZM77.3079 29.7576C77.7538 29.7583 78.115 30.1201 78.115 30.5661L78.515 30.5661C78.515 29.8995 77.9751 29.3587 77.3085 29.3576L77.3079 29.7576ZM69.6201 29.7576H77.3082V29.3576H69.6201V29.7576ZM68.8133 30.5661C68.8133 30.1201 69.1745 29.7583 69.6204 29.7576L69.6198 29.3576C68.9531 29.3587 68.4133 29.8995 68.4133 30.5661H68.8133ZM68.8133 44.4775V30.5661H68.4133V44.4775H68.8133ZM69.6204 45.2844C69.175 45.2837 68.814 44.9228 68.8133 44.4772L68.4133 44.4778C68.4143 45.1438 68.9539 45.6834 69.6198 45.6844L69.6204 45.2844ZM69.6192 29.7285C69.1584 29.7285 68.785 30.102 68.785 30.5627H69.185C69.185 30.3229 69.3794 30.1285 69.6192 30.1285V29.7285ZM77.3076 29.7427L69.6195 29.7285L69.6188 30.1285L77.3069 30.1427L77.3076 29.7427ZM78.1415 30.577C78.1415 30.1163 77.768 29.7427 77.3073 29.7427V30.1427C77.547 30.1427 77.7415 30.3371 77.7415 30.577H78.1415ZM78.1415 30.6658V30.577H77.7415V30.6658H78.1415ZM77.3073 31.5001C77.768 31.5001 78.1415 31.1265 78.1415 30.6658H77.7415C77.7415 30.9057 77.547 31.1001 77.3073 31.1001V31.5001ZM71.4409 31.5001H77.3073V31.1001H71.4409V31.5001ZM70.6325 32.3073C70.6332 31.8613 70.995 31.5001 71.4409 31.5001L71.4409 31.1001C70.7742 31.1001 70.2336 31.64 70.2325 32.3067L70.6325 32.3073ZM70.6325 35.637V32.307H70.2325V35.637H70.6325ZM71.4409 36.4455C70.9945 36.4455 70.6325 36.0835 70.6325 35.637H70.2325C70.2325 36.3044 70.7735 36.8455 71.4409 36.8455V36.4455ZM76.6842 36.4455H71.4409V36.8455H76.6842V36.4455ZM77.5184 37.2798C77.5184 36.819 77.1449 36.4455 76.6842 36.4455V36.8455C76.9239 36.8455 77.1184 37.0399 77.1184 37.2798H77.5184ZM76.6842 38.1141C77.1449 38.1141 77.5184 37.7405 77.5184 37.2798H77.1184C77.1184 37.5197 76.9239 37.7141 76.6842 37.7141V38.1141ZM71.4409 38.1141H76.6842V37.7141H71.4409V38.1141ZM70.6325 38.9226C70.6325 38.476 70.9945 38.1141 71.4409 38.1141V37.7141C70.7735 37.7141 70.2325 38.2552 70.2325 38.9226H70.6325ZM70.6325 42.7441V38.9226H70.2325V42.7441H70.6325ZM71.4409 43.5511C70.995 43.5511 70.6332 43.1899 70.6325 42.7438L70.2325 42.7444C70.2336 43.4111 70.7742 43.9511 71.4409 43.951L71.4409 43.5511ZM77.3073 43.5511H71.4409V43.951H77.3073V43.5511ZM78.1415 44.3853C78.1415 43.9246 77.768 43.5511 77.3073 43.5511V43.951C77.547 43.951 77.7415 44.1455 77.7415 44.3853H78.1415ZM78.1415 44.4741V44.3853H77.7415V44.4741H78.1415ZM77.3073 45.3084C77.768 45.3084 78.1415 44.9349 78.1415 44.4741H77.7415C77.7415 44.714 77.547 44.9084 77.3073 44.9084V45.3084ZM69.6192 45.3084H77.3073V44.9084H69.6192V45.3084ZM68.785 44.4741C68.785 44.9349 69.1584 45.3084 69.6192 45.3084V44.9084C69.3794 44.9084 69.185 44.714 69.185 44.4741H68.785ZM68.785 30.5627V44.4741H69.185V30.5627H68.785Z" fill="#C41C24" mask="url(#path-16-outside-6)"/>
<mask id="path-18-outside-7" maskUnits="userSpaceOnUse" x="79.7852" y="28.5576" width="13" height="18" fill="black">
<rect fill="white" x="79.7852" y="28.5576" width="13" height="18"/>
<path fill-rule="evenodd" clip-rule="evenodd" d="M90.3838 45.4844H91.2558C91.5241 45.4861 91.7819 45.3808 91.9724 45.1919C92.1628 45.0029 92.2701 44.7458 92.2705 44.4775V30.5661C92.2705 30.0098 91.82 29.5585 91.2637 29.5576H91.064C90.7965 29.5576 90.54 29.6639 90.3509 29.853C90.1618 30.0421 90.0556 30.2987 90.0556 30.5661V41.7977L83.5217 30.0746C83.3437 29.7556 83.0071 29.5578 82.6418 29.5576H81.7919C81.2357 29.5585 80.7852 30.0098 80.7852 30.5661V44.4775C80.786 45.0333 81.2363 45.4836 81.7919 45.4844H81.9695C82.5252 45.4836 82.9754 45.0333 82.9763 44.4775V33.246L89.5038 44.9675C89.6819 45.2865 90.0185 45.4843 90.3838 45.4844ZM82.8985 32.4259H82.6036V44.4741C82.6036 44.8244 82.3197 45.1084 81.9694 45.1084H81.7918C81.4416 45.1084 81.1576 44.8244 81.1576 44.4741V30.5627C81.1576 30.2124 81.4416 29.9285 81.7918 29.9285H82.6417C82.8728 29.9278 83.086 30.0529 83.1982 30.2551L90.0285 42.5221L90.1252 42.6173H90.4201V30.5659C90.4201 30.2156 90.7041 29.9316 91.0543 29.9316H91.2541C91.6044 29.9316 91.8883 30.2156 91.8883 30.5659V44.4789C91.8883 44.8292 91.6044 45.1132 91.2541 45.1132H90.3821C90.1509 45.1139 89.9377 44.9887 89.8256 44.7865L82.9952 32.5211L82.8985 32.4259Z"/>
</mask>
<path fill-rule="evenodd" clip-rule="evenodd" d="M90.3838 45.4844H91.2558C91.5241 45.4861 91.7819 45.3808 91.9724 45.1919C92.1628 45.0029 92.2701 44.7458 92.2705 44.4775V30.5661C92.2705 30.0098 91.82 29.5585 91.2637 29.5576H91.064C90.7965 29.5576 90.54 29.6639 90.3509 29.853C90.1618 30.0421 90.0556 30.2987 90.0556 30.5661V41.7977L83.5217 30.0746C83.3437 29.7556 83.0071 29.5578 82.6418 29.5576H81.7919C81.2357 29.5585 80.7852 30.0098 80.7852 30.5661V44.4775C80.786 45.0333 81.2363 45.4836 81.7919 45.4844H81.9695C82.5252 45.4836 82.9754 45.0333 82.9763 44.4775V33.246L89.5038 44.9675C89.6819 45.2865 90.0185 45.4843 90.3838 45.4844ZM82.8985 32.4259H82.6036V44.4741C82.6036 44.8244 82.3197 45.1084 81.9694 45.1084H81.7918C81.4416 45.1084 81.1576 44.8244 81.1576 44.4741V30.5627C81.1576 30.2124 81.4416 29.9285 81.7918 29.9285H82.6417C82.8728 29.9278 83.086 30.0529 83.1982 30.2551L90.0285 42.5221L90.1252 42.6173H90.4201V30.5659C90.4201 30.2156 90.7041 29.9316 91.0543 29.9316H91.2541C91.6044 29.9316 91.8883 30.2156 91.8883 30.5659V44.4789C91.8883 44.8292 91.6044 45.1132 91.2541 45.1132H90.3821C90.1509 45.1139 89.9377 44.9887 89.8256 44.7865L82.9952 32.5211L82.8985 32.4259Z" fill="#C41C24"/>
<path d="M91.2558 45.4844L91.2571 45.2844H91.2558V45.4844ZM90.3838 45.4844L90.3837 45.6844H90.3838V45.4844ZM91.9724 45.1919L92.1133 45.3338L91.9724 45.1919ZM92.2705 44.4775L92.4705 44.4778V44.4775H92.2705ZM92.2705 30.5661L92.0705 30.5661V30.5661H92.2705ZM91.2637 29.5576L91.264 29.3576H91.2637V29.5576ZM90.3509 29.853L90.4924 29.9944L90.3509 29.853ZM90.0556 41.7977L89.8809 41.895L90.2556 42.5673V41.7977H90.0556ZM83.5217 30.0746L83.6964 29.9772L83.6964 29.9771L83.5217 30.0746ZM82.6418 29.5576L82.6419 29.3576H82.6418V29.5576ZM81.7919 29.5576V29.3576L81.7916 29.3576L81.7919 29.5576ZM80.7852 44.4775H80.5852L80.5852 44.4778L80.7852 44.4775ZM81.7919 45.4844L81.7916 45.6844H81.7919V45.4844ZM81.9695 45.4844V45.6844H81.9698L81.9695 45.4844ZM82.9763 44.4775L83.1763 44.4778V44.4775H82.9763ZM82.9763 33.246L83.1511 33.1487L82.7763 32.4757V33.246H82.9763ZM89.5038 44.9675L89.3291 45.0648L89.3292 45.065L89.5038 44.9675ZM82.6036 32.4259V32.2259H82.4036V32.4259H82.6036ZM82.8985 32.4259L83.0388 32.2834L82.9804 32.2259H82.8985V32.4259ZM82.6417 29.9285V30.1285L82.6422 30.1285L82.6417 29.9285ZM83.1982 30.2551L83.0233 30.3521L83.0234 30.3524L83.1982 30.2551ZM90.0285 42.5221L89.8538 42.6194L89.8677 42.6445L89.8882 42.6647L90.0285 42.5221ZM90.1252 42.6173L89.985 42.7598L90.0433 42.8173H90.1252V42.6173ZM90.4201 42.6173V42.8173H90.6201V42.6173H90.4201ZM90.3821 45.1132V44.9132L90.3815 44.9132L90.3821 45.1132ZM89.8256 44.7865L90.0005 44.6895L90.0003 44.6892L89.8256 44.7865ZM82.9952 32.5211L83.17 32.4238L83.156 32.3987L83.1355 32.3785L82.9952 32.5211ZM91.2558 45.2844H90.3838V45.6844H91.2558V45.2844ZM91.8315 45.0499C91.6788 45.2014 91.4721 45.2858 91.2571 45.2844L91.2545 45.6844C91.576 45.6865 91.8851 45.5603 92.1133 45.3338L91.8315 45.0499ZM92.0705 44.4772C92.0702 44.6923 91.9842 44.8984 91.8315 45.0499L92.1133 45.3338C92.3415 45.1074 92.47 44.7993 92.4705 44.4778L92.0705 44.4772ZM92.0705 30.5661V44.4775H92.4705V30.5661H92.0705ZM91.2634 29.7576C91.7094 29.7583 92.0705 30.1201 92.0705 30.5661L92.4705 30.5661C92.4705 29.8995 91.9307 29.3587 91.264 29.3576L91.2634 29.7576ZM91.064 29.7576H91.2637V29.3576H91.064V29.7576ZM90.4924 29.9944C90.644 29.8428 90.8496 29.7576 91.064 29.7576V29.3576C90.7435 29.3576 90.4361 29.4849 90.2095 29.7116L90.4924 29.9944ZM90.2556 30.5661C90.2556 30.3517 90.3408 30.146 90.4924 29.9944L90.2095 29.7116C89.9829 29.9382 89.8556 30.2456 89.8556 30.5661H90.2556ZM90.2556 41.7977V30.5661H89.8556V41.7977H90.2556ZM83.347 30.1719L89.8809 41.895L90.2303 41.7003L83.6964 29.9772L83.347 30.1719ZM82.6417 29.7576C82.9345 29.7578 83.2044 29.9163 83.3471 30.172L83.6964 29.9771C83.483 29.5948 83.0796 29.3578 82.6419 29.3576L82.6417 29.7576ZM81.7919 29.7576H82.6418V29.3576H81.7919V29.7576ZM80.9852 30.5661C80.9852 30.1201 81.3463 29.7583 81.7923 29.7576L81.7916 29.3576C81.125 29.3587 80.5852 29.8995 80.5852 30.5661H80.9852ZM80.9852 44.4775V30.5661H80.5852V44.4775H80.9852ZM81.7923 45.2844C81.3468 45.2837 80.9859 44.9228 80.9852 44.4772L80.5852 44.4778C80.5862 45.1438 81.1257 45.6834 81.7916 45.6844L81.7923 45.2844ZM81.9695 45.2844H81.7919V45.6844H81.9695V45.2844ZM82.7763 44.4772C82.7756 44.9228 82.4147 45.2837 81.9692 45.2844L81.9698 45.6844C82.6358 45.6834 83.1753 45.1438 83.1763 44.4778L82.7763 44.4772ZM82.7763 33.246V44.4775H83.1763V33.246H82.7763ZM89.6786 44.8702L83.1511 33.1487L82.8016 33.3433L89.3291 45.0648L89.6786 44.8702ZM90.3839 45.2844C90.0911 45.2843 89.8212 45.1258 89.6785 44.87L89.3292 45.065C89.5425 45.4472 89.9459 45.6842 90.3837 45.6844L90.3839 45.2844ZM82.6036 32.6259H82.8985V32.2259H82.6036V32.6259ZM82.8036 44.4741V32.4259H82.4036V44.4741H82.8036ZM81.9694 45.3084C82.4301 45.3084 82.8036 44.9349 82.8036 44.4741H82.4036C82.4036 44.714 82.2092 44.9084 81.9694 44.9084V45.3084ZM81.7918 45.3084H81.9694V44.9084H81.7918V45.3084ZM80.9576 44.4741C80.9576 44.9349 81.3311 45.3084 81.7918 45.3084V44.9084C81.552 44.9084 81.3576 44.714 81.3576 44.4741H80.9576ZM80.9576 30.5627V44.4741H81.3576V30.5627H80.9576ZM81.7918 29.7285C81.3311 29.7285 80.9576 30.102 80.9576 30.5627H81.3576C81.3576 30.3229 81.552 30.1285 81.7918 30.1285V29.7285ZM82.6417 29.7285H81.7918V30.1285H82.6417V29.7285ZM83.3731 30.1581C83.2256 29.8922 82.9451 29.7276 82.6411 29.7285L82.6422 30.1285C82.8005 30.128 82.9465 30.2137 83.0233 30.3521L83.3731 30.1581ZM90.2032 42.4248L83.3729 30.1578L83.0234 30.3524L89.8538 42.6194L90.2032 42.4248ZM90.2655 42.4747L90.1688 42.3796L89.8882 42.6647L89.985 42.7598L90.2655 42.4747ZM90.4201 42.4173H90.1252V42.8173H90.4201V42.4173ZM90.2201 30.5659V42.6173H90.6201V30.5659H90.2201ZM91.0543 29.7316C90.5936 29.7316 90.2201 30.1052 90.2201 30.5659H90.6201C90.6201 30.326 90.8145 30.1316 91.0543 30.1316V29.7316ZM91.2541 29.7316H91.0543V30.1316H91.2541V29.7316ZM92.0883 30.5659C92.0883 30.1052 91.7148 29.7316 91.2541 29.7316V30.1316C91.4939 30.1316 91.6883 30.326 91.6883 30.5659H92.0883ZM92.0883 44.4789V30.5659H91.6883V44.4789H92.0883ZM91.2541 45.3132C91.7148 45.3132 92.0883 44.9396 92.0883 44.4789H91.6883C91.6883 44.7188 91.4939 44.9132 91.2541 44.9132V45.3132ZM90.3821 45.3132H91.2541V44.9132H90.3821V45.3132ZM89.6506 44.8835C89.7981 45.1494 90.0786 45.3141 90.3827 45.3132L90.3815 44.9132C90.2232 44.9136 90.0772 44.828 90.0005 44.6895L89.6506 44.8835ZM82.8205 32.6184L89.6508 44.8838L90.0003 44.6892L83.17 32.4238L82.8205 32.6184ZM82.7582 32.5685L82.855 32.6637L83.1355 32.3785L83.0388 32.2834L82.7582 32.5685Z" fill="#C41C24" mask="url(#path-18-outside-7)"/>
</svg>
