<svg width="420" height="57" viewBox="0 0 420 57" fill="none" xmlns="http://www.w3.org/2000/svg">
<path d="M16.7681 7.16747H0V1.1665H39.9207V7.16747H23.1526V55.0194H16.7681V7.16747Z" fill="#E9CD5A"/>
<path d="M50.3438 1.1665H56.6388V55.0194H50.3438V1.1665Z" fill="#E9CD5A"/>
<path fill-rule="evenodd" clip-rule="evenodd" d="M89.5308 1.1665H68.7637L68.7769 55.0194H75.072V34.2431H89.5308C100.902 34.2431 107.528 28.0897 107.528 17.781C107.528 7.55185 100.915 1.1665 89.5308 1.1665ZM101.148 17.785C101.148 24.9325 97.3016 28.2461 89.1479 28.2461H75.0734V7.18146H89.1479C97.2254 7.18146 101.148 10.6376 101.148 17.785Z" fill="#E9CD5A"/>
<path d="M112.145 37.1689L118.44 36.0919C119.516 45.6319 124.592 50.1682 134.363 50.1682C141.824 50.1682 146.748 46.7055 146.748 41.4766C146.748 36.0157 143.133 33.0136 131.901 29.4746C119.056 25.2432 114.749 21.4756 114.749 14.232C114.749 5.84854 121.826 0 131.977 0C142.129 0 149.746 6.07718 151.525 15.6933L145.296 17.0022C143.603 9.84808 138.912 6.00096 131.914 6.00096C125.377 6.00096 121.07 9.23174 121.07 14.232C121.07 18.3873 124.148 20.6173 133.992 23.6924C147.987 28.2453 153.069 32.9374 153.069 41.4004C153.069 50.1682 145.449 56.1692 134.3 56.1692C121.143 56.1692 113.311 49.4757 112.145 37.1689Z" fill="#E9CD5A"/>
<path d="M172.288 32.5531L153.449 1.1665H160.834L175.373 26.3235H175.525L190.14 1.1665H197.525L179.186 32.0461L192.598 55.0194H185.209L172.288 32.5531Z" fill="#E9CD5A"/>
<mask id="path-6-outside-1" maskUnits="userSpaceOnUse" x="202" y="15.6235" width="34" height="41" fill="black">
<rect fill="white" x="202" y="15.6235" width="34" height="41"/>
<path fill-rule="evenodd" clip-rule="evenodd" d="M210.128 52.3515C212.756 54.6896 216.159 55.9673 219.676 55.9365C220.635 55.9362 221.593 55.8543 222.538 55.6917C230.099 54.385 234.64 48.9774 234.689 41.2049C234.695 40.5554 234.431 39.9325 233.962 39.4839C233.488 39.0251 232.847 38.7802 232.188 38.8061L231.537 38.8324C230.269 38.8957 229.268 39.9317 229.248 41.2011C229.127 46.7066 226.589 49.9226 221.695 50.7623C218.468 51.3046 215.606 50.4987 213.306 48.292C211.005 46.0853 209.371 42.5568 208.618 38.083C207.085 29.1431 210.192 22.9033 216.724 21.7736C221.307 20.9903 224.726 22.9372 226.861 27.5954C227.371 28.7242 228.659 29.2753 229.828 28.8645L230.336 28.6837C230.968 28.4585 231.48 27.9814 231.748 27.3657C232.014 26.7662 232.014 26.0823 231.748 25.4828C228.89 18.9756 222.805 15.673 215.877 16.863C206.445 18.4823 201.441 27.377 203.433 38.9906C204.423 44.7522 206.739 49.3728 210.128 52.3515ZM216.021 17.7177C216.906 17.5638 217.803 17.4857 218.701 17.4842C224.127 17.4842 228.593 20.4742 230.92 25.8291C231.084 26.2009 231.084 26.6248 230.92 26.9965C230.75 27.3893 230.423 27.6936 230.02 27.8363L229.512 28.017C228.769 28.2815 227.948 27.9285 227.629 27.2074C225.328 22.2366 221.495 20.0637 216.544 20.911C209.477 22.1198 206.095 28.7589 207.722 38.2335C208.528 42.903 210.196 46.5596 212.669 48.9282C215.143 51.2969 218.306 52.2308 221.819 51.6283C227.09 50.7207 229.975 47.1207 230.103 41.216C230.113 40.413 230.743 39.7551 231.545 39.7097L232.196 39.6833C232.614 39.6725 233.02 39.8267 233.326 40.1126C233.622 40.3938 233.788 40.7851 233.785 41.1934C233.74 48.5065 229.474 53.5978 222.369 54.8179C217.945 55.5748 213.927 54.5166 210.696 51.6735C207.466 48.8303 205.252 44.3867 204.296 38.8247C202.39 27.7308 207.104 19.2466 216.021 17.7177Z"/>
</mask>
<path fill-rule="evenodd" clip-rule="evenodd" d="M210.128 52.3515C212.756 54.6896 216.159 55.9673 219.676 55.9365C220.635 55.9362 221.593 55.8543 222.538 55.6917C230.099 54.385 234.64 48.9774 234.689 41.2049C234.695 40.5554 234.431 39.9325 233.962 39.4839C233.488 39.0251 232.847 38.7802 232.188 38.8061L231.537 38.8324C230.269 38.8957 229.268 39.9317 229.248 41.2011C229.127 46.7066 226.589 49.9226 221.695 50.7623C218.468 51.3046 215.606 50.4987 213.306 48.292C211.005 46.0853 209.371 42.5568 208.618 38.083C207.085 29.1431 210.192 22.9033 216.724 21.7736C221.307 20.9903 224.726 22.9372 226.861 27.5954C227.371 28.7242 228.659 29.2753 229.828 28.8645L230.336 28.6837C230.968 28.4585 231.48 27.9814 231.748 27.3657C232.014 26.7662 232.014 26.0823 231.748 25.4828C228.89 18.9756 222.805 15.673 215.877 16.863C206.445 18.4823 201.441 27.377 203.433 38.9906C204.423 44.7522 206.739 49.3728 210.128 52.3515ZM216.021 17.7177C216.906 17.5638 217.803 17.4857 218.701 17.4842C224.127 17.4842 228.593 20.4742 230.92 25.8291C231.084 26.2009 231.084 26.6248 230.92 26.9965C230.75 27.3893 230.423 27.6936 230.02 27.8363L229.512 28.017C228.769 28.2815 227.948 27.9285 227.629 27.2074C225.328 22.2366 221.495 20.0637 216.544 20.911C209.477 22.1198 206.095 28.7589 207.722 38.2335C208.528 42.903 210.196 46.5596 212.669 48.9282C215.143 51.2969 218.306 52.2308 221.819 51.6283C227.09 50.7207 229.975 47.1207 230.103 41.216C230.113 40.413 230.743 39.7551 231.545 39.7097L232.196 39.6833C232.614 39.6725 233.02 39.8267 233.326 40.1126C233.622 40.3938 233.788 40.7851 233.785 41.1934C233.74 48.5065 229.474 53.5978 222.369 54.8179C217.945 55.5748 213.927 54.5166 210.696 51.6735C207.466 48.8303 205.252 44.3867 204.296 38.8247C202.39 27.7308 207.104 19.2466 216.021 17.7177Z" fill="#C41C24"/>
<path d="M219.676 55.9365L219.676 55.4365L219.672 55.4365L219.676 55.9365ZM210.128 52.3515L210.46 51.9779L210.458 51.9759L210.128 52.3515ZM222.538 55.6917L222.623 56.1845L222.623 56.1844L222.538 55.6917ZM234.689 41.2049L234.189 41.2003L234.189 41.2017L234.689 41.2049ZM233.962 39.4839L233.614 39.8431L233.616 39.8455L233.962 39.4839ZM232.188 38.8061L232.169 38.3064L232.168 38.3065L232.188 38.8061ZM231.537 38.8324L231.517 38.3328L231.512 38.333L231.537 38.8324ZM229.248 41.2011L229.748 41.212L229.748 41.2091L229.248 41.2011ZM221.695 50.7623L221.777 51.2554L221.779 51.2551L221.695 50.7623ZM213.306 48.292L213.652 47.9312L213.306 48.292ZM208.618 38.083L209.111 38L209.111 37.9986L208.618 38.083ZM216.724 21.7736L216.64 21.2807L216.639 21.2809L216.724 21.7736ZM226.861 27.5954L227.316 27.3895L227.315 27.3871L226.861 27.5954ZM229.828 28.8645L229.993 29.3362L229.995 29.3356L229.828 28.8645ZM230.336 28.6837L230.503 29.1548L230.504 29.1548L230.336 28.6837ZM231.748 27.3657L231.291 27.1631L231.289 27.166L231.748 27.3657ZM231.748 25.4828L231.29 25.6839L231.291 25.6854L231.748 25.4828ZM215.877 16.863L215.962 17.3558L215.962 17.3558L215.877 16.863ZM203.433 38.9906L202.94 39.0751L202.94 39.0753L203.433 38.9906ZM218.701 17.4842V16.9842L218.701 16.9842L218.701 17.4842ZM216.021 17.7177L216.105 18.2105L216.106 18.2103L216.021 17.7177ZM230.92 25.8291L230.461 26.0284L230.463 26.0314L230.92 25.8291ZM230.92 26.9965L230.463 26.7942L230.461 26.7977L230.92 26.9965ZM230.02 27.8363L229.853 27.3648L229.852 27.3652L230.02 27.8363ZM229.512 28.017L229.344 27.5459L229.344 27.546L229.512 28.017ZM227.629 27.2074L228.086 27.0051L228.083 26.9974L227.629 27.2074ZM216.544 20.911L216.628 21.4039L216.628 21.4039L216.544 20.911ZM207.722 38.2335L207.229 38.3181L207.229 38.3185L207.722 38.2335ZM212.669 48.9282L212.324 49.2894L212.669 48.9282ZM221.819 51.6283L221.904 52.1211L221.904 52.121L221.819 51.6283ZM230.103 41.216L230.603 41.2268L230.603 41.2226L230.103 41.216ZM231.545 39.7097L231.525 39.21L231.517 39.2105L231.545 39.7097ZM232.196 39.6833L232.183 39.1834L232.176 39.1837L232.196 39.6833ZM233.326 40.1126L233.67 39.7501L233.667 39.7476L233.326 40.1126ZM233.785 41.1934L233.285 41.1898L233.285 41.1903L233.785 41.1934ZM222.369 54.8179L222.453 55.3107L222.453 55.3107L222.369 54.8179ZM204.296 38.8247L203.803 38.9094L203.803 38.9095L204.296 38.8247ZM219.672 55.4365C216.279 55.4662 212.996 54.2336 210.46 51.9779L209.795 52.725C212.516 55.1456 216.039 56.4684 219.681 56.4365L219.672 55.4365ZM222.453 55.1989C221.536 55.3567 220.607 55.4362 219.676 55.4365L219.677 56.4365C220.664 56.4362 221.65 56.3519 222.623 56.1845L222.453 55.1989ZM234.189 41.2017C234.165 44.9895 233.048 48.1669 231.047 50.5516C229.047 52.9359 226.133 54.5629 222.453 55.199L222.623 56.1844C226.503 55.5138 229.641 53.7836 231.813 51.1943C233.985 48.6054 235.163 45.1927 235.189 41.208L234.189 41.2017ZM233.616 39.8455C233.986 40.1986 234.193 40.689 234.189 41.2003L235.189 41.2094C235.196 40.4218 234.877 39.6663 234.307 39.1223L233.616 39.8455ZM232.208 39.3057C232.73 39.2852 233.238 39.4794 233.614 39.8431L234.31 39.1247C233.738 38.5709 232.964 38.2753 232.169 38.3064L232.208 39.3057ZM231.557 39.332L232.209 39.3057L232.168 38.3065L231.517 38.3328L231.557 39.332ZM229.748 41.2091C229.764 40.203 230.557 39.382 231.562 39.3318L231.512 38.333C229.981 38.4095 228.772 39.6605 228.748 41.1931L229.748 41.2091ZM221.779 51.2551C224.321 50.8191 226.3 49.7552 227.654 48.0413C229.003 46.3334 229.686 44.0359 229.748 41.212L228.748 41.1901C228.689 43.8718 228.043 45.9351 226.869 47.4215C225.7 48.9019 223.963 49.8658 221.61 50.2695L221.779 51.2551ZM212.959 48.6528C215.382 50.9769 218.406 51.8219 221.777 51.2554L221.612 50.2692C218.529 50.7873 215.83 50.0205 213.652 47.9312L212.959 48.6528ZM208.125 38.166C208.889 42.7044 210.556 46.3471 212.959 48.6528L213.652 47.9312C211.454 45.8234 209.853 42.4091 209.111 38L208.125 38.166ZM216.639 21.2809C213.216 21.8729 210.672 23.8156 209.199 26.7769C207.736 29.7198 207.347 33.6306 208.125 38.1675L209.111 37.9986C208.356 33.5956 208.755 29.9165 210.094 27.2221C211.425 24.5461 213.7 22.804 216.81 22.2662L216.639 21.2809ZM227.315 27.3871C226.217 24.9917 224.768 23.2467 222.959 22.2101C221.145 21.1708 219.023 20.8734 216.64 21.2807L216.809 22.2664C219.008 21.8905 220.886 22.1749 222.462 23.0777C224.042 23.9833 225.369 25.5409 226.406 27.8037L227.315 27.3871ZM229.662 28.3928C228.738 28.7175 227.719 28.2819 227.316 27.3895L226.405 27.8013C227.022 29.1664 228.58 29.833 229.993 29.3362L229.662 28.3928ZM230.168 28.2126L229.66 28.3934L229.995 29.3356L230.503 29.1548L230.168 28.2126ZM231.289 27.166C231.076 27.6549 230.671 28.0338 230.168 28.2127L230.504 29.1548C231.266 28.8832 231.883 28.3078 232.206 27.5654L231.289 27.166ZM231.291 25.6854C231.499 26.1559 231.499 26.6926 231.291 27.1631L232.205 27.5683C232.528 26.8398 232.528 26.0088 232.205 25.2803L231.291 25.6854ZM215.962 17.3558C222.66 16.2053 228.523 19.3838 231.29 25.6839L232.206 25.2818C229.257 18.5674 222.95 15.1408 215.793 16.3702L215.962 17.3558ZM203.926 38.9061C202.945 33.1852 203.694 28.1801 205.807 24.424C207.914 20.6778 211.394 18.14 215.962 17.3558L215.793 16.3702C210.929 17.2053 207.19 19.9245 204.935 23.9338C202.686 27.9333 201.93 33.1823 202.94 39.0751L203.926 38.9061ZM210.458 51.9759C207.178 49.0926 204.903 44.5885 203.926 38.9059L202.94 39.0753C203.944 44.9159 206.3 49.653 209.798 52.727L210.458 51.9759ZM218.701 16.9842C217.774 16.9858 216.848 17.0663 215.935 17.2251L216.106 18.2103C216.964 18.0613 217.832 17.9857 218.702 17.9842L218.701 16.9842ZM231.378 25.6298C228.977 20.1044 224.339 16.9842 218.701 16.9842V17.9842C223.915 17.9842 228.208 20.844 230.461 26.0284L231.378 25.6298ZM231.377 27.1988C231.599 26.6982 231.599 26.1274 231.377 25.6268L230.463 26.0314C230.57 26.2743 230.57 26.5513 230.463 26.7942L231.377 27.1988ZM230.186 28.3077C230.721 28.1187 231.153 27.7157 231.379 27.1953L230.461 26.7977C230.346 27.063 230.126 27.2685 229.853 27.3648L230.186 28.3077ZM229.679 28.4881L230.187 28.3074L229.852 27.3652L229.344 27.5459L229.679 28.4881ZM227.172 27.4096C227.596 28.3701 228.69 28.8404 229.679 28.488L229.344 27.546C228.848 27.7227 228.299 27.4869 228.086 27.0051L227.172 27.4096ZM216.628 21.4039C219.009 20.9965 221.085 21.3193 222.834 22.3122C224.587 23.3074 226.057 25.002 227.175 27.4174L228.083 26.9974C226.9 24.442 225.304 22.5647 223.327 21.4426C221.347 20.3182 219.03 19.9783 216.46 20.4182L216.628 21.4039ZM208.215 38.1489C207.413 33.4804 207.857 29.5696 209.318 26.6995C210.771 23.847 213.248 21.982 216.628 21.4039L216.46 20.4182C212.772 21.0489 210.025 23.1078 208.427 26.2457C206.838 29.3659 206.404 33.5119 207.229 38.3181L208.215 38.1489ZM213.015 48.5671C210.645 46.2977 209.01 42.7555 208.215 38.1485L207.229 38.3185C208.046 43.0506 209.746 46.8215 212.324 49.2894L213.015 48.5671ZM221.735 51.1355C218.37 51.7125 215.369 50.8211 213.015 48.5671L212.324 49.2894C214.917 51.7727 218.242 52.7491 221.904 52.1211L221.735 51.1355ZM229.603 41.2051C229.54 44.0805 228.809 46.3408 227.499 47.9844C226.192 49.6233 224.272 50.6986 221.734 51.1355L221.904 52.121C224.637 51.6504 226.795 50.4719 228.281 48.6077C229.763 46.7482 230.537 44.2562 230.603 41.2268L229.603 41.2051ZM231.517 39.2105C230.453 39.2708 229.617 40.1439 229.603 41.2094L230.603 41.2226C230.61 40.6822 231.034 40.2394 231.573 40.2089L231.517 39.2105ZM232.176 39.1837L231.525 39.2101L231.565 40.2093L232.216 40.1829L232.176 39.1837ZM233.667 39.7476C233.266 39.3719 232.733 39.1692 232.183 39.1835L232.209 40.1832C232.496 40.1757 232.774 40.2815 232.984 40.4777L233.667 39.7476ZM234.285 41.197C234.289 40.6504 234.066 40.1266 233.67 39.7501L232.981 40.4751C233.177 40.6611 233.287 40.9198 233.285 41.1898L234.285 41.197ZM222.453 55.3107C226.106 54.6834 229.061 53.0538 231.108 50.6116C233.154 48.17 234.262 44.9513 234.285 41.1965L233.285 41.1903C233.263 44.7486 232.216 47.7321 230.341 49.9694C228.467 52.2062 225.736 53.7323 222.284 54.3251L222.453 55.3107ZM210.366 52.0488C213.718 54.9987 217.891 56.0913 222.453 55.3107L222.285 54.3251C217.999 55.0583 214.136 54.0346 211.027 51.2981L210.366 52.0488ZM203.803 38.9095C204.772 44.5488 207.026 49.1095 210.366 52.0488L211.027 51.2981C207.905 48.5511 205.731 44.2247 204.788 38.74L203.803 38.9095ZM215.936 17.2249C211.328 18.0151 207.791 20.6108 205.663 24.4415C203.541 28.262 202.836 33.2777 203.803 38.9094L204.788 38.7401C203.85 33.2779 204.55 28.5045 206.537 24.9271C208.519 21.36 211.797 18.9492 216.105 18.2105L215.936 17.2249Z" fill="#C41C24" mask="url(#path-6-outside-1)"/>
<mask id="path-8-outside-2" maskUnits="userSpaceOnUse" x="239.785" y="16.4663" width="32" height="40" fill="black">
<rect fill="white" x="239.785" y="16.4663" width="32" height="40"/>
<path fill-rule="evenodd" clip-rule="evenodd" d="M267.888 55.2895H268.309C269.624 55.2813 270.687 54.2137 270.689 52.8983V19.8613C270.689 19.2261 270.437 18.6169 269.988 18.1678C269.538 17.7186 268.929 17.4663 268.294 17.4663H267.872C267.237 17.4663 266.628 17.7186 266.179 18.1678C265.73 18.6169 265.478 19.2261 265.478 19.8613V32.0586C265.478 32.876 264.826 33.5445 264.009 33.5649L247.548 34.013C247.138 34.0332 246.739 33.877 246.452 33.5837C246.158 33.2996 245.992 32.9081 245.993 32.4992V19.8613C245.993 18.5386 244.92 17.4663 243.598 17.4663H243.176C241.855 17.4684 240.785 18.5401 240.785 19.8613V52.8908C240.787 54.2106 241.856 55.2799 243.176 55.282H243.613C244.934 55.282 246.006 54.212 246.008 52.8908V40.2002C246.007 39.3827 246.659 38.7143 247.476 38.6939L263.938 38.2457C264.348 38.2246 264.747 38.381 265.033 38.675C265.327 38.9592 265.493 39.3507 265.493 39.7596V52.8983C265.495 54.2196 266.566 55.2895 267.888 55.2895ZM266.378 39.7567C266.378 38.4361 265.308 37.3655 263.987 37.3655L263.893 37.3693L247.431 37.8174C246.133 37.8461 245.098 38.9101 245.104 40.2086V52.8992C245.104 53.7311 244.43 54.4055 243.598 54.4055H243.176C242.345 54.4055 241.67 53.7311 241.67 52.8992V19.8623C241.67 19.0304 242.345 18.356 243.176 18.356H243.624C244.456 18.356 245.131 19.0304 245.131 19.8623V32.5001C245.129 33.1458 245.39 33.7644 245.853 34.2135C246.313 34.6685 246.939 34.9138 247.586 34.8914L264.051 34.4433C265.349 34.4145 266.384 33.3505 266.378 32.052V19.8623C266.378 19.0304 267.052 18.356 267.884 18.356H268.306C269.138 18.356 269.812 19.0304 269.812 19.8623V52.8955C269.812 53.7274 269.138 54.4018 268.306 54.4018H267.884C267.052 54.4018 266.378 53.7274 266.378 52.8955V39.7567Z"/>
</mask>
<path fill-rule="evenodd" clip-rule="evenodd" d="M267.888 55.2895H268.309C269.624 55.2813 270.687 54.2137 270.689 52.8983V19.8613C270.689 19.2261 270.437 18.6169 269.988 18.1678C269.538 17.7186 268.929 17.4663 268.294 17.4663H267.872C267.237 17.4663 266.628 17.7186 266.179 18.1678C265.73 18.6169 265.478 19.2261 265.478 19.8613V32.0586C265.478 32.876 264.826 33.5445 264.009 33.5649L247.548 34.013C247.138 34.0332 246.739 33.877 246.452 33.5837C246.158 33.2996 245.992 32.9081 245.993 32.4992V19.8613C245.993 18.5386 244.92 17.4663 243.598 17.4663H243.176C241.855 17.4684 240.785 18.5401 240.785 19.8613V52.8908C240.787 54.2106 241.856 55.2799 243.176 55.282H243.613C244.934 55.282 246.006 54.212 246.008 52.8908V40.2002C246.007 39.3827 246.659 38.7143 247.476 38.6939L263.938 38.2457C264.348 38.2246 264.747 38.381 265.033 38.675C265.327 38.9592 265.493 39.3507 265.493 39.7596V52.8983C265.495 54.2196 266.566 55.2895 267.888 55.2895ZM266.378 39.7567C266.378 38.4361 265.308 37.3655 263.987 37.3655L263.893 37.3693L247.431 37.8174C246.133 37.8461 245.098 38.9101 245.104 40.2086V52.8992C245.104 53.7311 244.43 54.4055 243.598 54.4055H243.176C242.345 54.4055 241.67 53.7311 241.67 52.8992V19.8623C241.67 19.0304 242.345 18.356 243.176 18.356H243.624C244.456 18.356 245.131 19.0304 245.131 19.8623V32.5001C245.129 33.1458 245.39 33.7644 245.853 34.2135C246.313 34.6685 246.939 34.9138 247.586 34.8914L264.051 34.4433C265.349 34.4145 266.384 33.3505 266.378 32.052V19.8623C266.378 19.0304 267.052 18.356 267.884 18.356H268.306C269.138 18.356 269.812 19.0304 269.812 19.8623V52.8955C269.812 53.7274 269.138 54.4018 268.306 54.4018H267.884C267.052 54.4018 266.378 53.7274 266.378 52.8955V39.7567Z" fill="#C41C24"/>
<path d="M268.309 55.2895V55.7896L268.312 55.7895L268.309 55.2895ZM270.689 52.8983L271.189 52.8991V52.8983H270.689ZM269.988 18.1678L270.341 17.8143V17.8143L269.988 18.1678ZM266.179 18.1678L265.826 17.8143V17.8143L266.179 18.1678ZM265.478 32.0586H264.978V32.0588L265.478 32.0586ZM264.009 33.5649L263.997 33.0651L263.996 33.0651L264.009 33.5649ZM247.548 34.013L247.534 33.5131L247.523 33.5136L247.548 34.013ZM246.452 33.5837L246.809 33.2338L246.799 33.2243L246.452 33.5837ZM245.993 32.4992L246.493 32.4997V32.4992H245.993ZM243.176 17.4663V16.9663L243.175 16.9663L243.176 17.4663ZM240.785 52.8908H240.285L240.285 52.8915L240.785 52.8908ZM243.176 55.282L243.175 55.782H243.176V55.282ZM243.613 55.282L243.613 54.782H243.613V55.282ZM246.008 52.8908L246.508 52.8915V52.8908H246.008ZM246.008 40.2002H246.508V40.2L246.008 40.2002ZM247.476 38.6939L247.489 39.1937L247.49 39.1937L247.476 38.6939ZM263.938 38.2457L263.951 38.7457L263.964 38.7451L263.938 38.2457ZM265.033 38.675L264.675 39.024L264.681 39.0293L264.686 39.0345L265.033 38.675ZM265.493 39.7596L264.993 39.7591V39.7596H265.493ZM265.493 52.8983H264.993V52.8991L265.493 52.8983ZM263.987 37.3655V36.8655H263.977L263.967 36.8659L263.987 37.3655ZM263.893 37.3693L263.907 37.8691L263.913 37.8689L263.893 37.3693ZM247.431 37.8174L247.442 38.3173L247.445 38.3172L247.431 37.8174ZM245.104 40.2086H245.604L245.604 40.2061L245.104 40.2086ZM245.131 32.5001L245.631 32.5015V32.5001H245.131ZM245.853 34.2135L246.205 33.8583L246.201 33.8544L245.853 34.2135ZM247.586 34.8914L247.572 34.3916L247.568 34.3917L247.586 34.8914ZM264.051 34.4433L264.04 33.9434L264.037 33.9434L264.051 34.4433ZM266.378 32.052H265.878L265.878 32.0545L266.378 32.052ZM268.309 54.7895H267.888V55.7895H268.309V54.7895ZM270.189 52.8975C270.187 53.9384 269.347 54.783 268.306 54.7896L268.312 55.7895C269.902 55.7795 271.186 54.489 271.189 52.8991L270.189 52.8975ZM270.189 19.8613V52.8983H271.189V19.8613H270.189ZM269.634 18.5213C269.989 18.8767 270.189 19.3587 270.189 19.8613H271.189C271.189 19.0935 270.884 18.3572 270.341 17.8143L269.634 18.5213ZM268.294 17.9663C268.797 17.9663 269.279 18.1659 269.634 18.5213L270.341 17.8143C269.798 17.2713 269.062 16.9663 268.294 16.9663V17.9663ZM267.872 17.9663H268.294V16.9663H267.872V17.9663ZM266.533 18.5213C266.888 18.1659 267.37 17.9663 267.872 17.9663V16.9663C267.105 16.9663 266.368 17.2713 265.826 17.8143L266.533 18.5213ZM265.978 19.8613C265.978 19.3587 266.177 18.8767 266.533 18.5213L265.826 17.8143C265.283 18.3572 264.978 19.0935 264.978 19.8613H265.978ZM265.978 32.0586V19.8613H264.978V32.0586H265.978ZM264.022 34.0648C265.11 34.0375 265.978 33.1471 265.978 32.0584L264.978 32.0588C264.978 32.6049 264.543 33.0514 263.997 33.0651L264.022 34.0648ZM247.561 34.5128L264.023 34.0647L263.996 33.0651L247.534 33.5132L247.561 34.5128ZM246.095 33.9335C246.482 34.3289 247.02 34.5397 247.572 34.5124L247.523 33.5136C247.256 33.5268 246.996 33.425 246.809 33.234L246.095 33.9335ZM245.493 32.4987C245.492 33.0433 245.713 33.5647 246.104 33.9432L246.799 33.2243C246.603 33.0344 246.492 32.7729 246.493 32.4997L245.493 32.4987ZM245.493 19.8613V32.4992H246.493V19.8613H245.493ZM243.598 17.9663C244.644 17.9663 245.493 18.8147 245.493 19.8613H246.493C246.493 18.2625 245.197 16.9663 243.598 16.9663V17.9663ZM243.176 17.9663H243.598V16.9663H243.176V17.9663ZM241.285 19.8613C241.285 18.8158 242.132 17.968 243.177 17.9663L243.175 16.9663C241.578 16.9688 240.285 18.2643 240.285 19.8613H241.285ZM241.285 52.8908V19.8613H240.285V52.8908H241.285ZM243.177 54.782C242.133 54.7804 241.287 53.9343 241.285 52.89L240.285 52.8915C240.288 54.4868 241.58 55.7795 243.175 55.782L243.177 54.782ZM243.613 54.782H243.176V55.782H243.613V54.782ZM245.508 52.89C245.506 53.9355 244.658 54.782 243.613 54.782L243.613 55.782C245.21 55.782 246.505 54.4886 246.508 52.8915L245.508 52.89ZM245.508 40.2002V52.8908H246.508V40.2002H245.508ZM247.464 38.194C246.375 38.2212 245.507 39.1116 245.508 40.2003L246.508 40.2C246.507 39.6539 246.943 39.2074 247.489 39.1937L247.464 38.194ZM263.924 37.7459L247.462 38.194L247.49 39.1937L263.951 38.7456L263.924 37.7459ZM265.392 38.3261C265.005 37.929 264.466 37.7178 263.912 37.7464L263.964 38.7451C264.23 38.7313 264.489 38.8329 264.675 39.024L265.392 38.3261ZM265.993 39.7601C265.993 39.2155 265.773 38.6941 265.381 38.3156L264.686 39.0345C264.882 39.2244 264.993 39.4859 264.993 39.7591L265.993 39.7601ZM265.993 52.8983V39.7596H264.993V52.8983H265.993ZM267.888 54.7895C266.842 54.7895 265.994 53.943 265.993 52.8975L264.993 52.8991C264.995 54.4961 266.291 55.7895 267.888 55.7895V54.7895ZM263.987 37.8655C265.031 37.8655 265.878 38.7122 265.878 39.7567H266.878C266.878 38.16 265.584 36.8655 263.987 36.8655V37.8655ZM263.913 37.8689L264.007 37.8651L263.967 36.8659L263.873 36.8697L263.913 37.8689ZM247.445 38.3172L263.907 37.8691L263.879 36.8694L247.418 37.3176L247.445 38.3172ZM245.604 40.2061C245.599 39.1804 246.417 38.34 247.442 38.3173L247.42 37.3175C245.849 37.3523 244.596 38.6399 244.604 40.2111L245.604 40.2061ZM245.604 52.8992V40.2086H244.604V52.8992H245.604ZM243.598 54.9055C244.706 54.9055 245.604 54.0072 245.604 52.8992H244.604C244.604 53.455 244.154 53.9055 243.598 53.9055V54.9055ZM243.176 54.9055H243.598V53.9055H243.176V54.9055ZM241.17 52.8992C241.17 54.0072 242.068 54.9055 243.176 54.9055V53.9055C242.621 53.9055 242.17 53.455 242.17 52.8992H241.17ZM241.17 19.8623V52.8992H242.17V19.8623H241.17ZM243.176 17.856C242.068 17.856 241.17 18.7543 241.17 19.8623H242.17C242.17 19.3064 242.621 18.856 243.176 18.856V17.856ZM243.624 17.856H243.176V18.856H243.624V17.856ZM245.631 19.8623C245.631 18.7543 244.732 17.856 243.624 17.856V18.856C244.18 18.856 244.631 19.3064 244.631 19.8623H245.631ZM245.631 32.5001V19.8623H244.631V32.5001H245.631ZM246.201 33.8544C245.835 33.4997 245.629 33.0113 245.631 32.5015L244.631 32.4988C244.628 33.2802 244.944 34.029 245.506 34.5727L246.201 33.8544ZM247.568 34.3917C247.06 34.4093 246.567 34.2163 246.205 33.8583L245.502 34.5688C246.059 35.1207 246.819 35.4183 247.603 35.3911L247.568 34.3917ZM264.037 33.9434L247.572 34.3916L247.599 35.3912L264.065 34.9431L264.037 33.9434ZM265.878 32.0545C265.883 33.0803 265.065 33.9207 264.04 33.9434L264.062 34.9431C265.633 34.9083 266.886 33.6207 266.878 32.0495L265.878 32.0545ZM265.878 19.8623V32.052H266.878V19.8623H265.878ZM267.884 17.856C266.776 17.856 265.878 18.7543 265.878 19.8623H266.878C266.878 19.3064 267.328 18.856 267.884 18.856V17.856ZM268.306 17.856H267.884V18.856H268.306V17.856ZM270.312 19.8623C270.312 18.7543 269.414 17.856 268.306 17.856V18.856C268.861 18.856 269.312 19.3064 269.312 19.8623H270.312ZM270.312 52.8955V19.8623H269.312V52.8955H270.312ZM268.306 54.9018C269.414 54.9018 270.312 54.0034 270.312 52.8955H269.312C269.312 53.4513 268.861 53.9018 268.306 53.9018V54.9018ZM267.884 54.9018H268.306V53.9018H267.884V54.9018ZM265.878 52.8955C265.878 54.0034 266.776 54.9018 267.884 54.9018V53.9018C267.328 53.9018 266.878 53.4513 266.878 52.8955H265.878ZM265.878 39.7567V52.8955H266.878V39.7567H265.878Z" fill="#C41C24" mask="url(#path-8-outside-2)"/>
<mask id="path-10-outside-3" maskUnits="userSpaceOnUse" x="275.109" y="16.4697" width="17" height="40" fill="black">
<rect fill="white" x="275.109" y="16.4697" width="17" height="40"/>
<path fill-rule="evenodd" clip-rule="evenodd" d="M278.503 55.2892H278.947C280.02 55.2905 280.963 54.5805 281.259 53.5494L290.574 20.5125C290.777 19.7909 290.63 19.0161 290.178 18.4187C289.725 17.8212 289.019 17.4701 288.27 17.4697H287.826C286.755 17.4723 285.815 18.1834 285.521 19.2133L276.199 52.2465C275.996 52.968 276.143 53.7428 276.595 54.3402C277.048 54.9377 277.754 55.2888 278.503 55.2892ZM286.367 19.4521C286.548 18.7993 287.143 18.3478 287.821 18.3487L288.265 18.3525C288.739 18.3508 289.185 18.5721 289.471 18.9498C289.757 19.3275 289.849 19.8176 289.718 20.273L280.403 53.3062C280.222 53.9591 279.627 54.4106 278.95 54.4096H278.52C278.047 54.4113 277.6 54.1901 277.314 53.8124C277.028 53.4347 276.937 52.9445 277.067 52.4891L286.367 19.4521Z"/>
</mask>
<path fill-rule="evenodd" clip-rule="evenodd" d="M278.503 55.2892H278.947C280.02 55.2905 280.963 54.5805 281.259 53.5494L290.574 20.5125C290.777 19.7909 290.63 19.0161 290.178 18.4187C289.725 17.8212 289.019 17.4701 288.27 17.4697H287.826C286.755 17.4723 285.815 18.1834 285.521 19.2133L276.199 52.2465C275.996 52.968 276.143 53.7428 276.595 54.3402C277.048 54.9377 277.754 55.2888 278.503 55.2892ZM286.367 19.4521C286.548 18.7993 287.143 18.3478 287.821 18.3487L288.265 18.3525C288.739 18.3508 289.185 18.5721 289.471 18.9498C289.757 19.3275 289.849 19.8176 289.718 20.273L280.403 53.3062C280.222 53.9591 279.627 54.4106 278.95 54.4096H278.52C278.047 54.4113 277.6 54.1901 277.314 53.8124C277.028 53.4347 276.937 52.9445 277.067 52.4891L286.367 19.4521Z" fill="#C41C24"/>
<path d="M278.947 55.2892L278.948 54.7892H278.947V55.2892ZM278.503 55.2892L278.503 55.7892H278.503V55.2892ZM281.259 53.5494L281.74 53.6873L281.74 53.6851L281.259 53.5494ZM290.574 20.5125L291.056 20.6481L291.056 20.6477L290.574 20.5125ZM290.178 18.4187L290.576 18.1168V18.1168L290.178 18.4187ZM288.27 17.4697L288.27 16.9697H288.27V17.4697ZM287.826 17.4697V16.9697L287.825 16.9697L287.826 17.4697ZM285.521 19.2133L285.041 19.0761L285.04 19.0775L285.521 19.2133ZM276.199 52.2465L275.717 52.1107L275.717 52.1113L276.199 52.2465ZM276.595 54.3402L276.197 54.6421L276.197 54.6421L276.595 54.3402ZM287.821 18.3487L287.825 17.8488L287.821 17.8487L287.821 18.3487ZM286.367 19.4521L286.849 19.5876L286.849 19.5858L286.367 19.4521ZM288.265 18.3525L288.261 18.8525L288.267 18.8525L288.265 18.3525ZM289.471 18.9498L289.072 19.2515V19.2515L289.471 18.9498ZM289.718 20.273L289.238 20.1356L289.237 20.1373L289.718 20.273ZM280.403 53.3062L279.922 53.1705L279.921 53.1725L280.403 53.3062ZM278.95 54.4096L278.95 53.9096H278.95V54.4096ZM278.52 54.4096V53.9096L278.519 53.9096L278.52 54.4096ZM277.314 53.8124L277.713 53.5106H277.713L277.314 53.8124ZM277.067 52.4891L277.548 52.6266L277.548 52.6246L277.067 52.4891ZM278.947 54.7892H278.503V55.7892H278.947V54.7892ZM280.779 53.4115C280.544 54.228 279.797 54.7902 278.948 54.7892L278.947 55.7892C280.243 55.7907 281.382 54.9329 281.74 53.6873L280.779 53.4115ZM290.093 20.3768L280.778 53.4137L281.74 53.6851L291.056 20.6481L290.093 20.3768ZM289.779 18.7205C290.137 19.1933 290.253 19.8063 290.093 20.3773L291.056 20.6477C291.301 19.7755 291.123 18.839 290.576 18.1168L289.779 18.7205ZM288.27 17.9697C288.863 17.97 289.421 18.2478 289.779 18.7205L290.576 18.1168C290.03 17.3947 289.176 16.9702 288.27 16.9697L288.27 17.9697ZM287.826 17.9697H288.27V16.9697H287.826V17.9697ZM286.002 19.3504C286.235 18.5348 286.979 17.9718 287.827 17.9697L287.825 16.9697C286.531 16.9728 285.395 17.832 285.041 19.0761L286.002 19.3504ZM276.68 52.3823L286.003 19.3491L285.04 19.0775L275.717 52.1107L276.68 52.3823ZM276.994 54.0384C276.636 53.5657 276.52 52.9526 276.68 52.3817L275.717 52.1113C275.472 52.9834 275.65 53.9199 276.197 54.6421L276.994 54.0384ZM278.503 54.7892C277.91 54.7889 277.352 54.5111 276.994 54.0384L276.197 54.6421C276.743 55.3643 277.597 55.7888 278.503 55.7892L278.503 54.7892ZM287.821 17.8487C286.919 17.8474 286.127 18.4489 285.885 19.3184L286.849 19.5858C286.97 19.1497 287.367 18.8481 287.82 18.8487L287.821 17.8487ZM288.269 17.8525L287.825 17.8488L287.816 18.8487L288.261 18.8525L288.269 17.8525ZM289.87 18.648C289.489 18.145 288.894 17.8503 288.263 17.8525L288.267 18.8525C288.583 18.8514 288.882 18.9992 289.072 19.2515L289.87 18.648ZM290.199 20.4105C290.373 19.804 290.251 19.1511 289.87 18.648L289.072 19.2515C289.263 19.5038 289.325 19.8313 289.238 20.1356L290.199 20.4105ZM280.884 53.442L290.2 20.4088L289.237 20.1373L279.922 53.1705L280.884 53.442ZM278.949 54.9096C279.851 54.9109 280.643 54.3095 280.885 53.44L279.921 53.1725C279.8 53.6087 279.403 53.9103 278.95 53.9096L278.949 54.9096ZM278.52 54.9096H278.95V53.9096H278.52V54.9096ZM276.915 54.1141C277.296 54.6172 277.891 54.9118 278.522 54.9096L278.519 53.9096C278.202 53.9107 277.904 53.763 277.713 53.5106L276.915 54.1141ZM276.586 52.3516C276.413 52.9582 276.535 53.611 276.915 54.1141L277.713 53.5106C277.522 53.2583 277.461 52.9308 277.548 52.6266L276.586 52.3516ZM285.886 19.3166L276.586 52.3536L277.548 52.6246L286.849 19.5876L285.886 19.3166Z" fill="#C41C24" mask="url(#path-10-outside-3)"/>
<mask id="path-12-outside-4" maskUnits="userSpaceOnUse" x="292.711" y="16.0073" width="34" height="41" fill="black">
<rect fill="white" x="292.711" y="16.0073" width="34" height="41"/>
<path fill-rule="evenodd" clip-rule="evenodd" d="M304.964 55.5733C306.421 55.9868 307.927 56.2009 309.441 56.2097C314.882 56.2097 319.457 53.1971 322.134 47.6614C322.421 47.0719 322.448 46.3891 322.209 45.7786C321.975 45.1632 321.501 44.6696 320.895 44.4116L320.293 44.1593C319.119 43.6784 317.773 44.1885 317.213 45.3267C314.746 50.256 311.083 52.0862 306.293 50.7607C303.146 49.887 300.898 47.9288 299.757 44.9539C298.616 41.9789 298.665 38.0475 299.866 33.7206C301.067 29.3938 303.036 26.0573 305.563 24.0765C307.975 22.1405 311.187 21.5192 314.148 22.4158C318.628 23.6585 320.88 26.8745 320.846 31.9771C320.826 33.2157 321.756 34.2641 322.989 34.3909L323.527 34.4436C324.196 34.51 324.863 34.2959 325.368 33.8524C325.861 33.4249 326.15 32.8098 326.166 32.1578C326.351 25.0518 322.258 19.4785 315.481 17.5957C306.256 15.0425 297.942 20.9547 294.798 32.3122C291.601 43.8467 295.592 52.9787 304.964 55.5733ZM295.65 32.5479C298.19 23.369 304.22 17.9022 311.293 17.8954C312.633 17.9004 313.966 18.0879 315.256 18.4527C321.721 20.2415 325.475 25.3629 325.294 32.1412C325.283 32.5475 325.101 32.9302 324.793 33.1956C324.473 33.477 324.051 33.6133 323.626 33.5722L323.088 33.5195C322.307 33.4392 321.718 32.7721 321.736 31.9868C321.774 26.5152 319.232 22.9114 314.39 21.5708C311.16 20.5937 307.657 21.2728 305.026 23.3859C302.349 25.4871 300.289 28.9328 299.024 33.4894C297.759 38.0459 297.714 42.0753 298.941 45.2724C300.169 48.4695 302.631 50.6612 306.065 51.6139C311.242 53.0487 315.361 50.9964 317.997 45.7243C318.346 44.9989 319.198 44.6692 319.944 44.9712L320.546 45.2235C320.932 45.3843 321.233 45.698 321.378 46.0896C321.526 46.4707 321.509 46.8958 321.333 47.2645C318.182 53.8621 312.146 56.6488 305.203 54.7245C296.347 52.2692 292.6 43.5665 295.65 32.5479ZM311.293 17.8954C311.297 17.8954 311.302 17.8954 311.306 17.8954H311.291C311.292 17.8954 311.292 17.8954 311.293 17.8954Z"/>
</mask>
<path fill-rule="evenodd" clip-rule="evenodd" d="M304.964 55.5733C306.421 55.9868 307.927 56.2009 309.441 56.2097C314.882 56.2097 319.457 53.1971 322.134 47.6614C322.421 47.0719 322.448 46.3891 322.209 45.7786C321.975 45.1632 321.501 44.6696 320.895 44.4116L320.293 44.1593C319.119 43.6784 317.773 44.1885 317.213 45.3267C314.746 50.256 311.083 52.0862 306.293 50.7607C303.146 49.887 300.898 47.9288 299.757 44.9539C298.616 41.9789 298.665 38.0475 299.866 33.7206C301.067 29.3938 303.036 26.0573 305.563 24.0765C307.975 22.1405 311.187 21.5192 314.148 22.4158C318.628 23.6585 320.88 26.8745 320.846 31.9771C320.826 33.2157 321.756 34.2641 322.989 34.3909L323.527 34.4436C324.196 34.51 324.863 34.2959 325.368 33.8524C325.861 33.4249 326.15 32.8098 326.166 32.1578C326.351 25.0518 322.258 19.4785 315.481 17.5957C306.256 15.0425 297.942 20.9547 294.798 32.3122C291.601 43.8467 295.592 52.9787 304.964 55.5733ZM295.65 32.5479C298.19 23.369 304.22 17.9022 311.293 17.8954C312.633 17.9004 313.966 18.0879 315.256 18.4527C321.721 20.2415 325.475 25.3629 325.294 32.1412C325.283 32.5475 325.101 32.9302 324.793 33.1956C324.473 33.477 324.051 33.6133 323.626 33.5722L323.088 33.5195C322.307 33.4392 321.718 32.7721 321.736 31.9868C321.774 26.5152 319.232 22.9114 314.39 21.5708C311.16 20.5937 307.657 21.2728 305.026 23.3859C302.349 25.4871 300.289 28.9328 299.024 33.4894C297.759 38.0459 297.714 42.0753 298.941 45.2724C300.169 48.4695 302.631 50.6612 306.065 51.6139C311.242 53.0487 315.361 50.9964 317.997 45.7243C318.346 44.9989 319.198 44.6692 319.944 44.9712L320.546 45.2235C320.932 45.3843 321.233 45.698 321.378 46.0896C321.526 46.4707 321.509 46.8958 321.333 47.2645C318.182 53.8621 312.146 56.6488 305.203 54.7245C296.347 52.2692 292.6 43.5665 295.65 32.5479ZM311.293 17.8954C311.297 17.8954 311.302 17.8954 311.306 17.8954H311.291C311.292 17.8954 311.292 17.8954 311.293 17.8954Z" fill="#C41C24"/>
<path d="M309.441 56.2097L309.438 56.7097H309.441V56.2097ZM304.964 55.5733L305.101 55.0923L305.098 55.0914L304.964 55.5733ZM322.134 47.6614L321.684 47.4425L321.684 47.4437L322.134 47.6614ZM322.209 45.7786L321.742 45.9563L321.744 45.9609L322.209 45.7786ZM320.895 44.4116L321.091 43.9516L321.088 43.9504L320.895 44.4116ZM320.293 44.1593L320.486 43.6981L320.482 43.6966L320.293 44.1593ZM317.213 45.3267L317.66 45.5504L317.661 45.5475L317.213 45.3267ZM306.293 50.7607L306.16 51.2424L306.16 51.2425L306.293 50.7607ZM299.757 44.9539L299.29 45.1329L299.757 44.9539ZM299.866 33.7206L299.384 33.5869L299.866 33.7206ZM305.563 24.0765L305.871 24.47L305.876 24.4665L305.563 24.0765ZM314.148 22.4158L314.003 22.8945L314.014 22.8976L314.148 22.4158ZM320.846 31.9771L321.346 31.9852L321.346 31.9804L320.846 31.9771ZM322.989 34.3909L322.937 34.8883L322.94 34.8885L322.989 34.3909ZM323.527 34.4436L323.576 33.9461L323.576 33.946L323.527 34.4436ZM325.368 33.8524L325.04 33.4748L325.038 33.4766L325.368 33.8524ZM326.166 32.1578L325.667 32.1448L325.667 32.1455L326.166 32.1578ZM315.481 17.5957L315.614 17.1139L315.614 17.1138L315.481 17.5957ZM294.798 32.3122L295.28 32.4458L295.28 32.4456L294.798 32.3122ZM295.65 32.5479L296.132 32.6813L296.132 32.6813L295.65 32.5479ZM315.256 18.4527L315.12 18.9338L315.123 18.9346L315.256 18.4527ZM325.294 32.1412L325.794 32.1552L325.794 32.1546L325.294 32.1412ZM324.793 33.1956L324.467 32.8171L324.464 32.8199L324.793 33.1956ZM323.626 33.5722L323.577 34.0698L323.578 34.0699L323.626 33.5722ZM323.088 33.5195L323.037 34.0169L323.039 34.0171L323.088 33.5195ZM321.736 31.9868L322.236 31.9982L322.236 31.9903L321.736 31.9868ZM314.39 21.5708L314.245 22.0495L314.257 22.0526L314.39 21.5708ZM305.026 23.3859L305.335 23.7792L305.339 23.7757L305.026 23.3859ZM299.024 33.4894L298.542 33.3556L299.024 33.4894ZM306.065 51.6139L305.931 52.0957L305.931 52.0958L306.065 51.6139ZM317.997 45.7243L318.444 45.9479L318.448 45.9408L317.997 45.7243ZM319.944 44.9712L320.137 44.5099L320.131 44.5077L319.944 44.9712ZM320.546 45.2235L320.353 45.6847L320.354 45.6849L320.546 45.2235ZM321.378 46.0896L320.91 46.2635L320.912 46.2699L321.378 46.0896ZM321.333 47.2645L320.882 47.0489L320.882 47.049L321.333 47.2645ZM305.203 54.7245L305.069 55.2063L305.069 55.2063L305.203 54.7245ZM311.291 17.8954V17.3954L311.289 18.3954L311.291 17.8954ZM309.444 55.7097C307.975 55.7012 306.514 55.4935 305.101 55.0923L304.828 56.0543C306.328 56.4802 307.879 56.7006 309.438 56.7097L309.444 55.7097ZM321.684 47.4437C319.08 52.8284 314.667 55.7097 309.441 55.7097V56.7097C315.097 56.7097 319.834 53.5658 322.584 47.8791L321.684 47.4437ZM321.744 45.9609C321.932 46.4413 321.91 46.9786 321.684 47.4425L322.583 47.8804C322.932 47.1652 322.965 46.3369 322.675 45.5962L321.744 45.9609ZM320.699 44.8716C321.18 45.0763 321.556 45.4679 321.742 45.9563L322.676 45.6008C322.394 44.8584 321.822 44.2629 321.091 43.9516L320.699 44.8716ZM320.099 44.6205L320.702 44.8728L321.088 43.9504L320.486 43.6981L320.099 44.6205ZM317.661 45.5475C318.106 44.6451 319.172 44.2408 320.103 44.622L320.482 43.6966C319.065 43.1161 317.441 43.7319 316.764 45.1058L317.661 45.5475ZM306.16 51.2425C308.647 51.9308 310.891 51.8111 312.847 50.8368C314.796 49.866 316.395 48.0783 317.66 45.5504L316.765 45.1029C315.564 47.5044 314.098 49.0965 312.401 49.9417C310.711 50.7834 308.729 50.916 306.427 50.2788L306.16 51.2425ZM299.29 45.1329C300.491 48.2653 302.869 50.3292 306.16 51.2424L306.427 50.2789C303.422 49.4448 301.304 47.5923 300.224 44.7748L299.29 45.1329ZM299.384 33.5869C298.166 37.9741 298.097 42.0233 299.29 45.1329L300.224 44.7748C299.134 41.9346 299.163 38.1208 300.348 33.8544L299.384 33.5869ZM305.254 23.683C302.616 25.7514 300.603 29.1973 299.384 33.5869L300.348 33.8544C301.532 29.5902 303.457 26.3632 305.871 24.47L305.254 23.683ZM314.293 21.9373C311.174 20.9928 307.791 21.6473 305.25 23.6866L305.876 24.4665C308.16 22.6338 311.2 22.0456 314.003 22.8944L314.293 21.9373ZM321.346 31.9804C321.364 29.3567 320.793 27.1668 319.599 25.4621C318.402 23.7528 316.611 22.5803 314.281 21.934L314.014 22.8976C316.165 23.4941 317.74 24.5508 318.78 26.0358C319.824 27.5255 320.363 29.4948 320.346 31.9737L321.346 31.9804ZM323.04 33.8935C322.066 33.7933 321.33 32.9645 321.346 31.9852L320.346 31.9689C320.322 33.4669 321.447 34.7349 322.937 34.8883L323.04 33.8935ZM323.576 33.946L323.037 33.8933L322.94 34.8885L323.478 34.9413L323.576 33.946ZM325.038 33.4766C324.637 33.8288 324.108 33.9988 323.576 33.9461L323.478 34.9412C324.285 35.0212 325.088 34.763 325.698 34.2282L325.038 33.4766ZM325.667 32.1455C325.654 32.657 325.427 33.1395 325.04 33.4749L325.696 34.23C326.295 33.7103 326.647 32.9626 326.666 32.1701L325.667 32.1455ZM315.347 18.0774C321.9 19.898 325.845 25.265 325.667 32.1448L326.666 32.1708C326.857 24.8387 322.616 19.059 315.614 17.1139L315.347 18.0774ZM295.28 32.4456C296.829 26.8509 299.638 22.6424 303.149 20.1448C306.65 17.6538 310.879 16.841 315.347 18.0775L315.614 17.1138C310.857 15.7971 306.317 16.6639 302.569 19.33C298.831 21.9896 295.911 26.416 294.316 32.1788L295.28 32.4456ZM305.098 55.0914C300.551 53.8327 297.333 51.0007 295.626 47.095C293.914 43.1771 293.704 38.1331 295.28 32.4458L294.316 32.1787C292.696 38.0258 292.883 43.3151 294.71 47.4955C296.542 51.688 300.006 54.7193 304.831 56.0552L305.098 55.0914ZM311.292 17.3954C303.919 17.4025 297.745 23.1027 295.168 32.4146L296.132 32.6813C298.635 23.6354 304.521 18.402 311.293 18.3954L311.292 17.3954ZM315.392 17.9716C314.059 17.5944 312.68 17.4006 311.295 17.3954L311.291 18.3954C312.586 18.4002 313.874 18.5814 315.12 18.9338L315.392 17.9716ZM325.794 32.1546C325.981 25.1503 322.079 19.8218 315.389 17.9708L315.123 18.9346C321.363 20.6611 324.969 25.5755 324.794 32.1279L325.794 32.1546ZM325.12 33.5742C325.534 33.2169 325.779 32.7019 325.794 32.1552L324.794 32.1273C324.787 32.393 324.668 32.6434 324.467 32.8171L325.12 33.5742ZM323.578 34.0699C324.14 34.1243 324.699 33.9438 325.123 33.5714L324.464 32.8199C324.247 33.0102 323.961 33.1023 323.674 33.0745L323.578 34.0699ZM323.039 34.0171L323.577 34.0698L323.675 33.0746L323.136 33.0219L323.039 34.0171ZM321.236 31.9755C321.212 33.0213 321.996 33.9099 323.037 34.0169L323.139 33.0221C322.617 32.9685 322.224 32.5228 322.236 31.9982L321.236 31.9755ZM314.257 22.0526C316.584 22.6971 318.325 23.8741 319.484 25.5178C320.646 27.1653 321.254 29.3248 321.236 31.9834L322.236 31.9903C322.255 29.1772 321.612 26.799 320.302 24.9415C318.989 23.0802 317.038 21.785 314.523 21.0889L314.257 22.0526ZM305.339 23.7757C307.841 21.766 311.173 21.1201 314.245 22.0493L314.535 21.0922C311.147 20.0673 307.472 20.7797 304.713 22.996L305.339 23.7757ZM299.506 33.6231C300.753 29.1319 302.767 25.7941 305.334 23.7792L304.717 22.9925C301.93 25.1802 299.825 28.7337 298.542 33.3556L299.506 33.6231ZM299.408 45.0932C298.232 42.0297 298.258 38.1175 299.506 33.6231L298.542 33.3556C297.26 37.9744 297.196 42.1209 298.474 45.4516L299.408 45.0932ZM306.199 51.1321C302.91 50.2197 300.576 48.1354 299.408 45.0932L298.474 45.4516C299.761 48.8037 302.352 51.1027 305.931 52.0957L306.199 51.1321ZM317.55 45.5007C316.266 48.0689 314.645 49.8044 312.762 50.736C310.886 51.6647 308.691 51.8229 306.199 51.1321L305.931 52.0958C308.616 52.8398 311.07 52.6892 313.206 51.6323C315.336 50.5784 317.093 48.6517 318.444 45.9479L317.55 45.5007ZM320.131 44.5077C319.141 44.1067 318.009 44.5445 317.546 45.5078L318.448 45.9408C318.682 45.4532 319.255 45.2317 319.756 45.4346L320.131 44.5077ZM320.739 44.7623L320.137 44.51L319.751 45.4324L320.353 45.6847L320.739 44.7623ZM321.847 45.9157C321.654 45.3941 321.252 44.9762 320.739 44.762L320.354 45.6849C320.611 45.7923 320.812 46.0019 320.91 46.2635L321.847 45.9157ZM321.784 47.4801C322.02 46.9872 322.042 46.4189 321.845 45.9093L320.912 46.2699C321.01 46.5226 320.999 46.8044 320.882 47.0489L321.784 47.4801ZM305.069 55.2063C308.639 56.1957 312.007 55.9811 314.9 54.6441C317.791 53.3073 320.166 50.8678 321.784 47.48L320.882 47.049C319.349 50.2589 317.13 52.5115 314.48 53.7363C311.831 54.961 308.71 55.1775 305.336 54.2426L305.069 55.2063ZM295.168 32.4146C293.622 38.0025 293.784 43.0545 295.503 47.0452C297.227 51.0487 300.5 53.9395 305.069 55.2063L305.336 54.2426C301.05 53.0542 298.022 50.366 296.421 46.6497C294.815 42.9206 294.629 38.112 296.132 32.6813L295.168 32.4146ZM311.306 17.3954C311.302 17.3954 311.297 17.3954 311.292 17.3954L311.293 18.3954C311.298 18.3954 311.302 18.3954 311.306 18.3954V17.3954ZM311.291 18.3954H311.306V17.3954H311.291V18.3954ZM311.295 17.3954C311.294 17.3954 311.294 17.3954 311.293 17.3954L311.289 18.3954C311.29 18.3954 311.291 18.3954 311.291 18.3954L311.295 17.3954Z" fill="#C41C24" mask="url(#path-12-outside-4)"/>
<mask id="path-14-outside-5" maskUnits="userSpaceOnUse" x="330.604" y="16.4663" width="28" height="40" fill="black">
<rect fill="white" x="330.604" y="16.4663" width="28" height="40"/>
<path fill-rule="evenodd" clip-rule="evenodd" d="M354.628 55.2895H355.144C356.042 55.2887 356.864 54.7858 357.273 53.9867C357.682 53.1877 357.611 52.2267 357.087 51.4974L345.264 35.0787C344.86 34.5204 344.886 33.7588 345.328 33.2298L355.178 21.394C355.773 20.6806 355.902 19.6868 355.507 18.8454C355.112 18.0041 354.266 17.4678 353.337 17.4701H353.092C352.374 17.4679 351.693 17.7904 351.239 18.3475L336.807 35.9599V19.8613C336.807 18.5401 335.737 17.4684 334.416 17.4663H333.994C332.673 17.4684 331.604 18.5401 331.604 19.8613V52.8983C331.606 54.2181 332.675 55.2875 333.994 55.2895H334.416C335.736 55.2875 336.805 54.2181 336.807 52.8983V43.9433C336.806 43.5914 336.929 43.2503 337.154 42.9793L341.148 38.1403L352.681 54.2879C353.131 54.9157 353.856 55.2886 354.628 55.2895ZM341.35 37.0485H340.913L336.485 42.4373C336.135 42.8615 335.941 43.3933 335.936 43.9436V52.8986C335.936 53.7305 335.261 54.4049 334.43 54.4049H334.008C333.176 54.4049 332.502 53.7305 332.502 52.8986V19.8616C332.502 19.0297 333.176 18.3553 334.008 18.3553H334.43C335.261 18.3553 335.936 19.0297 335.936 19.8616V37.0674L336.041 37.508H336.689L351.908 18.9051C352.195 18.5536 352.625 18.3502 353.079 18.3516H353.324C353.912 18.3467 354.449 18.6849 354.7 19.2175C354.95 19.7502 354.867 20.3798 354.487 20.8294L344.652 32.669C343.958 33.5081 343.916 34.7096 344.551 35.595L356.374 52.0136C356.709 52.4732 356.757 53.0829 356.498 53.5895C356.238 54.0961 355.715 54.413 355.146 54.4087H354.634C354.145 54.4101 353.686 54.1742 353.403 53.776L341.587 37.2331L341.35 37.0485Z"/>
</mask>
<path fill-rule="evenodd" clip-rule="evenodd" d="M354.628 55.2895H355.144C356.042 55.2887 356.864 54.7858 357.273 53.9867C357.682 53.1877 357.611 52.2267 357.087 51.4974L345.264 35.0787C344.86 34.5204 344.886 33.7588 345.328 33.2298L355.178 21.394C355.773 20.6806 355.902 19.6868 355.507 18.8454C355.112 18.0041 354.266 17.4678 353.337 17.4701H353.092C352.374 17.4679 351.693 17.7904 351.239 18.3475L336.807 35.9599V19.8613C336.807 18.5401 335.737 17.4684 334.416 17.4663H333.994C332.673 17.4684 331.604 18.5401 331.604 19.8613V52.8983C331.606 54.2181 332.675 55.2875 333.994 55.2895H334.416C335.736 55.2875 336.805 54.2181 336.807 52.8983V43.9433C336.806 43.5914 336.929 43.2503 337.154 42.9793L341.148 38.1403L352.681 54.2879C353.131 54.9157 353.856 55.2886 354.628 55.2895ZM341.35 37.0485H340.913L336.485 42.4373C336.135 42.8615 335.941 43.3933 335.936 43.9436V52.8986C335.936 53.7305 335.261 54.4049 334.43 54.4049H334.008C333.176 54.4049 332.502 53.7305 332.502 52.8986V19.8616C332.502 19.0297 333.176 18.3553 334.008 18.3553H334.43C335.261 18.3553 335.936 19.0297 335.936 19.8616V37.0674L336.041 37.508H336.689L351.908 18.9051C352.195 18.5536 352.625 18.3502 353.079 18.3516H353.324C353.912 18.3467 354.449 18.6849 354.7 19.2175C354.95 19.7502 354.867 20.3798 354.487 20.8294L344.652 32.669C343.958 33.5081 343.916 34.7096 344.551 35.595L356.374 52.0136C356.709 52.4732 356.757 53.0829 356.498 53.5895C356.238 54.0961 355.715 54.413 355.146 54.4087H354.634C354.145 54.4101 353.686 54.1742 353.403 53.776L341.587 37.2331L341.35 37.0485Z" fill="#C41C24"/>
<path d="M355.144 55.2895V55.7895H355.144L355.144 55.2895ZM354.628 55.2895L354.627 55.7895H354.628V55.2895ZM357.273 53.9867L356.828 53.7587V53.7587L357.273 53.9867ZM357.087 51.4974L357.493 51.2058L357.493 51.2053L357.087 51.4974ZM345.264 35.0787L345.67 34.7866L345.669 34.7855L345.264 35.0787ZM345.328 33.2298L345.712 33.5503L345.712 33.5496L345.328 33.2298ZM355.178 21.394L354.794 21.0735L354.794 21.0742L355.178 21.394ZM355.507 18.8454L355.96 18.633V18.633L355.507 18.8454ZM353.337 17.4701V17.9701L353.338 17.9701L353.337 17.4701ZM353.092 17.4701L353.09 17.9701H353.092V17.4701ZM351.239 18.3475L351.626 18.6644L351.627 18.6631L351.239 18.3475ZM336.807 35.9599H336.307V37.359L337.194 36.2768L336.807 35.9599ZM336.807 19.8613L336.307 19.8613V19.8613H336.807ZM334.416 17.4663L334.417 16.9663H334.416V17.4663ZM333.994 17.4663V16.9663L333.994 16.9663L333.994 17.4663ZM331.604 52.8983H331.104L331.104 52.8991L331.604 52.8983ZM333.994 55.2895L333.994 55.7895H333.994V55.2895ZM334.416 55.2895V55.7895H334.417L334.416 55.2895ZM336.807 52.8983L337.307 52.8991V52.8983H336.807ZM336.807 43.9433H337.307L337.307 43.9423L336.807 43.9433ZM337.154 42.9793L337.539 43.2983L337.539 43.2976L337.154 42.9793ZM341.148 38.1403L341.555 37.8497L341.177 37.3202L340.763 37.822L341.148 38.1403ZM352.681 54.2879L352.275 54.5785L352.275 54.579L352.681 54.2879ZM340.913 37.0485V36.5485H340.677L340.527 36.7311L340.913 37.0485ZM341.35 37.0485L341.657 36.6539L341.522 36.5485H341.35V37.0485ZM336.485 42.4373L336.871 42.7559L336.872 42.7548L336.485 42.4373ZM335.936 43.9436L335.436 43.939V43.9436H335.936ZM335.936 37.0674H335.436V37.1264L335.449 37.1837L335.936 37.0674ZM336.041 37.508L335.555 37.6243L335.647 38.008H336.041V37.508ZM336.689 37.508V38.008H336.926L337.076 37.8246L336.689 37.508ZM351.908 18.9051L352.295 19.2217L352.295 19.2214L351.908 18.9051ZM353.079 18.3516L353.077 18.8516H353.079V18.3516ZM353.324 18.3516V18.8516L353.328 18.8516L353.324 18.3516ZM354.7 19.2175L354.247 19.4301V19.4301L354.7 19.2175ZM354.487 20.8294L354.105 20.5069L354.103 20.5099L354.487 20.8294ZM344.652 32.669L344.268 32.3495L344.267 32.3503L344.652 32.669ZM344.551 35.595L344.144 35.8861L344.145 35.8871L344.551 35.595ZM356.374 52.0136L355.968 52.3058L355.97 52.3086L356.374 52.0136ZM356.498 53.5895L356.943 53.8176H356.943L356.498 53.5895ZM355.146 54.4087L355.15 53.9087H355.146V54.4087ZM354.634 54.4087V53.9087L354.633 53.9087L354.634 54.4087ZM353.403 53.776L353.81 53.486L353.81 53.4854L353.403 53.776ZM341.587 37.2331L341.994 36.9425L341.952 36.8832L341.894 36.8384L341.587 37.2331ZM355.144 54.7895H354.628V55.7895H355.144V54.7895ZM356.828 53.7587C356.504 54.391 355.854 54.7889 355.144 54.7895L355.144 55.7895C356.23 55.7886 357.223 55.1806 357.718 54.2147L356.828 53.7587ZM356.681 51.7891C357.095 52.3661 357.152 53.1265 356.828 53.7587L357.718 54.2147C358.213 53.2489 358.126 52.0873 357.493 51.2058L356.681 51.7891ZM344.858 35.3709L356.681 51.7896L357.493 51.2053L345.67 34.7866L344.858 35.3709ZM344.944 32.9093C344.356 33.6139 344.321 34.6282 344.859 35.3719L345.669 34.7855C345.399 34.4125 345.416 33.9037 345.712 33.5503L344.944 32.9093ZM354.794 21.0742L344.944 32.9099L345.712 33.5496L355.562 21.7138L354.794 21.0742ZM355.054 19.0578C355.367 19.7233 355.265 20.5093 354.794 21.0735L355.562 21.7144C356.282 20.8519 356.437 19.6503 355.96 18.633L355.054 19.0578ZM353.338 17.9701C354.073 17.9682 354.742 18.3924 355.054 19.0578L355.96 18.633C355.482 17.6158 354.459 16.9673 353.335 16.9701L353.338 17.9701ZM353.092 17.9701H353.337V16.9701H353.092V17.9701ZM351.627 18.6631C351.985 18.2231 352.523 17.9684 353.09 17.9701L353.093 16.9701C352.224 16.9675 351.4 17.3577 350.852 18.0319L351.627 18.6631ZM337.194 36.2768L351.626 18.6644L350.853 18.0306L336.42 35.643L337.194 36.2768ZM336.307 19.8613V35.9599H337.307V19.8613H336.307ZM334.415 17.9663C335.461 17.968 336.307 18.8158 336.307 19.8613L337.307 19.8613C337.307 18.2643 336.014 16.9688 334.417 16.9663L334.415 17.9663ZM333.994 17.9663H334.416V16.9663H333.994V17.9663ZM332.104 19.8613C332.104 18.8158 332.95 17.968 333.995 17.9663L333.994 16.9663C332.397 16.9688 331.104 18.2643 331.104 19.8613H332.104ZM332.104 52.8983V19.8613H331.104V52.8983H332.104ZM333.995 54.7895C332.951 54.7879 332.105 53.9418 332.104 52.8975L331.104 52.8991C331.106 54.4943 332.398 55.787 333.994 55.7895L333.995 54.7895ZM334.416 54.7895H333.994V55.7895H334.416V54.7895ZM336.307 52.8975C336.305 53.9418 335.459 54.7879 334.415 54.7895L334.417 55.7895C336.012 55.787 337.305 54.4943 337.307 52.8991L336.307 52.8975ZM336.307 43.9433V52.8983H337.307V43.9433H336.307ZM336.769 42.6603C336.469 43.0213 336.306 43.4755 336.307 43.9443L337.307 43.9423C337.307 43.7072 337.389 43.4793 337.539 43.2983L336.769 42.6603ZM340.763 37.822L336.768 42.661L337.539 43.2976L341.534 38.4586L340.763 37.822ZM353.088 53.9972L341.555 37.8497L340.742 38.4309L352.275 54.5785L353.088 53.9972ZM354.629 54.7895C354.018 54.7888 353.444 54.4937 353.088 53.9967L352.275 54.579C352.819 55.3378 353.694 55.7884 354.627 55.7895L354.629 54.7895ZM340.913 37.5485H341.35V36.5485H340.913V37.5485ZM336.872 42.7548L341.3 37.366L340.527 36.7311L336.099 42.1199L336.872 42.7548ZM336.436 43.9482C336.44 43.5126 336.593 43.0916 336.871 42.7559L336.1 42.1188C335.676 42.6314 335.442 43.2741 335.436 43.939L336.436 43.9482ZM336.436 52.8986V43.9436H335.436V52.8986H336.436ZM334.43 54.9049C335.538 54.9049 336.436 54.0066 336.436 52.8986H335.436C335.436 53.4544 334.985 53.9049 334.43 53.9049V54.9049ZM334.008 54.9049H334.43V53.9049H334.008V54.9049ZM332.002 52.8986C332.002 54.0066 332.9 54.9049 334.008 54.9049V53.9049C333.452 53.9049 333.002 53.4544 333.002 52.8986H332.002ZM332.002 19.8616V52.8986H333.002V19.8616H332.002ZM334.008 17.8553C332.9 17.8553 332.002 18.7537 332.002 19.8616H333.002C333.002 19.3058 333.452 18.8553 334.008 18.8553V17.8553ZM334.43 17.8553H334.008V18.8553H334.43V17.8553ZM336.436 19.8616C336.436 18.7537 335.538 17.8553 334.43 17.8553V18.8553C334.985 18.8553 335.436 19.3058 335.436 19.8616H336.436ZM336.436 37.0674V19.8616H335.436V37.0674H336.436ZM336.527 37.3916L336.422 36.951L335.449 37.1837L335.555 37.6243L336.527 37.3916ZM336.689 37.008H336.041V38.008H336.689V37.008ZM351.521 18.5885L336.302 37.1914L337.076 37.8246L352.295 19.2217L351.521 18.5885ZM353.08 17.8516C352.476 17.8498 351.903 18.1207 351.521 18.5889L352.295 19.2214C352.487 18.9865 352.774 18.8507 353.077 18.8516L353.08 17.8516ZM353.324 17.8516H353.079V18.8516H353.324V17.8516ZM355.152 19.005C354.819 18.2956 354.103 17.845 353.319 17.8516L353.328 18.8516C353.721 18.8483 354.08 19.0742 354.247 19.4301L355.152 19.005ZM354.869 21.1519C355.375 20.553 355.485 19.7145 355.152 19.005L354.247 19.4301C354.414 19.7859 354.359 20.2065 354.105 20.5069L354.869 21.1519ZM345.037 32.9885L354.872 21.1489L354.103 20.5099L344.268 32.3495L345.037 32.9885ZM344.957 35.3038C344.455 34.603 344.488 33.6519 345.038 32.9876L344.267 32.3503C343.428 33.3644 343.378 34.8163 344.144 35.8861L344.957 35.3038ZM356.779 51.7215L344.956 35.3028L344.145 35.8871L355.968 52.3058L356.779 51.7215ZM356.943 53.8176C357.289 53.1428 357.225 52.3308 356.777 51.7187L355.97 52.3086C356.194 52.6157 356.226 53.023 356.053 53.3615L356.943 53.8176ZM355.142 54.9086C355.9 54.9144 356.597 54.4923 356.943 53.8176L356.053 53.3615C355.879 53.6999 355.53 53.9116 355.15 53.9087L355.142 54.9086ZM354.634 54.9087H355.146V53.9087H354.634V54.9087ZM352.995 54.066C353.373 54.5964 353.984 54.9105 354.635 54.9087L354.633 53.9087C354.306 53.9096 353.999 53.7521 353.81 53.486L352.995 54.066ZM341.18 37.5237L352.996 54.0666L353.81 53.4854L341.994 36.9425L341.18 37.5237ZM341.043 37.4432L341.28 37.6277L341.894 36.8384L341.657 36.6539L341.043 37.4432Z" fill="#C41C24" mask="url(#path-14-outside-5)"/>
<mask id="path-16-outside-6" maskUnits="userSpaceOnUse" x="361.816" y="16.4663" width="25" height="40" fill="black">
<rect fill="white" x="361.816" y="16.4663" width="25" height="40"/>
<path fill-rule="evenodd" clip-rule="evenodd" d="M365.207 55.2895H383.465C384.104 55.2886 384.716 55.0322 385.165 54.5774C385.614 54.1227 385.863 53.5073 385.856 52.8682V52.6573C385.856 51.336 384.786 50.2643 383.465 50.2623H369.534C368.702 50.2623 368.028 49.5879 368.028 48.756V39.6805C368.028 38.8486 368.702 38.1742 369.534 38.1742H381.985C383.27 38.1232 384.285 37.0668 384.285 35.7811C384.285 34.4953 383.27 33.4389 381.985 33.3879H369.534C368.702 33.3879 368.028 32.7135 368.028 31.8816V23.9735C368.028 23.1416 368.702 22.4672 369.534 22.4672H383.465C384.786 22.4652 385.856 21.3935 385.856 20.0722V19.8613C385.856 18.5401 384.786 17.4684 383.465 17.4663H365.207C363.886 17.4684 362.816 18.5401 362.816 19.8613V52.8983C362.818 54.2181 363.888 55.2875 365.207 55.2895ZM363.701 19.8528C363.701 19.0209 364.375 18.3465 365.207 18.3465L383.465 18.3804C384.296 18.3804 384.971 19.0548 384.971 19.8867V20.0976C384.971 20.9295 384.296 21.6039 383.465 21.6039H369.533C368.212 21.6039 367.141 22.6739 367.138 23.9952V31.9032C367.138 33.226 368.211 34.2983 369.533 34.2983H381.985C382.817 34.2983 383.491 34.9727 383.491 35.8046C383.491 36.6365 382.817 37.3109 381.985 37.3109H369.533C368.211 37.3109 367.138 38.3831 367.138 39.7059V48.7813C367.141 50.1026 368.212 51.1726 369.533 51.1726H383.465C384.296 51.1726 384.971 51.847 384.971 52.6789V52.8898C384.971 53.7217 384.296 54.3961 383.465 54.3961H365.207C364.375 54.3961 363.701 53.7217 363.701 52.8898V19.8528Z"/>
</mask>
<path fill-rule="evenodd" clip-rule="evenodd" d="M365.207 55.2895H383.465C384.104 55.2886 384.716 55.0322 385.165 54.5774C385.614 54.1227 385.863 53.5073 385.856 52.8682V52.6573C385.856 51.336 384.786 50.2643 383.465 50.2623H369.534C368.702 50.2623 368.028 49.5879 368.028 48.756V39.6805C368.028 38.8486 368.702 38.1742 369.534 38.1742H381.985C383.27 38.1232 384.285 37.0668 384.285 35.7811C384.285 34.4953 383.27 33.4389 381.985 33.3879H369.534C368.702 33.3879 368.028 32.7135 368.028 31.8816V23.9735C368.028 23.1416 368.702 22.4672 369.534 22.4672H383.465C384.786 22.4652 385.856 21.3935 385.856 20.0722V19.8613C385.856 18.5401 384.786 17.4684 383.465 17.4663H365.207C363.886 17.4684 362.816 18.5401 362.816 19.8613V52.8983C362.818 54.2181 363.888 55.2875 365.207 55.2895ZM363.701 19.8528C363.701 19.0209 364.375 18.3465 365.207 18.3465L383.465 18.3804C384.296 18.3804 384.971 19.0548 384.971 19.8867V20.0976C384.971 20.9295 384.296 21.6039 383.465 21.6039H369.533C368.212 21.6039 367.141 22.6739 367.138 23.9952V31.9032C367.138 33.226 368.211 34.2983 369.533 34.2983H381.985C382.817 34.2983 383.491 34.9727 383.491 35.8046C383.491 36.6365 382.817 37.3109 381.985 37.3109H369.533C368.211 37.3109 367.138 38.3831 367.138 39.7059V48.7813C367.141 50.1026 368.212 51.1726 369.533 51.1726H383.465C384.296 51.1726 384.971 51.847 384.971 52.6789V52.8898C384.971 53.7217 384.296 54.3961 383.465 54.3961H365.207C364.375 54.3961 363.701 53.7217 363.701 52.8898V19.8528Z" fill="#C41C24"/>
<path d="M383.465 55.2895V55.7895H383.466L383.465 55.2895ZM365.207 55.2895L365.207 55.7895H365.207V55.2895ZM385.165 54.5774L385.521 54.9287H385.521L385.165 54.5774ZM385.856 52.8682H385.356L385.356 52.8737L385.856 52.8682ZM385.856 52.6573H385.356H385.856ZM383.465 50.2623L383.466 49.7623H383.465V50.2623ZM381.985 38.1742V38.6742H381.995L382.005 38.6738L381.985 38.1742ZM381.985 33.3879L382.005 32.8883L381.995 32.8879H381.985V33.3879ZM383.465 22.4672V22.9672L383.466 22.9672L383.465 22.4672ZM385.856 20.0722H385.356V20.0722L385.856 20.0722ZM385.856 19.8613L385.356 19.8613V19.8613H385.856ZM383.465 17.4663L383.466 16.9663H383.465V17.4663ZM365.207 17.4663V16.9663L365.207 16.9663L365.207 17.4663ZM362.816 52.8983H362.316L362.316 52.8991L362.816 52.8983ZM365.207 18.3465L365.208 17.8465H365.207V18.3465ZM383.465 18.3804L383.464 18.8804H383.465V18.3804ZM369.533 21.6039L369.533 22.1039H369.533V21.6039ZM367.138 23.9952L366.638 23.9944V23.9952H367.138ZM367.138 48.7813H366.638L366.638 48.7821L367.138 48.7813ZM369.533 51.1726V50.6726H369.533L369.533 51.1726ZM383.465 54.7895H365.207V55.7895H383.465V54.7895ZM384.81 54.2261C384.454 54.5859 383.97 54.7888 383.464 54.7895L383.466 55.7895C384.238 55.7884 384.978 55.4784 385.521 54.9287L384.81 54.2261ZM385.356 52.8737C385.362 53.3794 385.165 53.8663 384.81 54.2261L385.521 54.9287C386.064 54.379 386.365 53.6352 386.356 52.8627L385.356 52.8737ZM385.356 52.6573V52.8682H386.356V52.6573H385.356ZM383.464 50.7623C384.51 50.7639 385.356 51.6118 385.356 52.6573H386.356C386.356 51.0602 385.063 49.7648 383.466 49.7623L383.464 50.7623ZM369.534 50.7623H383.465V49.7623H369.534V50.7623ZM367.528 48.756C367.528 49.8639 368.426 50.7623 369.534 50.7623V49.7623C368.978 49.7623 368.528 49.3118 368.528 48.756H367.528ZM367.528 39.6805V48.756H368.528V39.6805H367.528ZM369.534 37.6742C368.426 37.6742 367.528 38.5725 367.528 39.6805H368.528C368.528 39.1247 368.978 38.6742 369.534 38.6742V37.6742ZM381.985 37.6742H369.534V38.6742H381.985V37.6742ZM383.785 35.7811C383.785 36.7985 382.982 37.6343 381.966 37.6746L382.005 38.6738C383.558 38.6122 384.785 37.3352 384.785 35.7811H383.785ZM381.966 33.8875C382.982 33.9279 383.785 34.7636 383.785 35.7811H384.785C384.785 34.2269 383.558 32.9499 382.005 32.8883L381.966 33.8875ZM369.534 33.8879H381.985V32.8879H369.534V33.8879ZM367.528 31.8816C367.528 32.9896 368.426 33.8879 369.534 33.8879V32.8879C368.978 32.8879 368.528 32.4374 368.528 31.8816H367.528ZM367.528 23.9735V31.8816H368.528V23.9735H367.528ZM369.534 21.9672C368.426 21.9672 367.528 22.8655 367.528 23.9735H368.528C368.528 23.4177 368.978 22.9672 369.534 22.9672V21.9672ZM383.465 21.9672H369.534V22.9672H383.465V21.9672ZM385.356 20.0722C385.356 21.1177 384.51 21.9656 383.464 21.9672L383.466 22.9672C385.063 22.9647 386.356 21.6692 386.356 20.0722L385.356 20.0722ZM385.356 19.8613V20.0722H386.356V19.8613H385.356ZM383.464 17.9663C384.51 17.968 385.356 18.8158 385.356 19.8613L386.356 19.8613C386.356 18.2643 385.063 16.9688 383.466 16.9663L383.464 17.9663ZM365.207 17.9663H383.465V16.9663H365.207V17.9663ZM363.316 19.8613C363.316 18.8158 364.163 17.968 365.208 17.9663L365.207 16.9663C363.61 16.9688 362.316 18.2643 362.316 19.8613H363.316ZM363.316 52.8983V19.8613H362.316V52.8983H363.316ZM365.208 54.7895C364.164 54.7879 363.318 53.9418 363.316 52.8975L362.316 52.8991C362.319 54.4943 363.611 55.787 365.207 55.7895L365.208 54.7895ZM365.207 17.8465C364.099 17.8465 363.201 18.7448 363.201 19.8528H364.201C364.201 19.297 364.651 18.8465 365.207 18.8465V17.8465ZM383.466 17.8804L365.208 17.8465L365.206 18.8465L383.464 18.8804L383.466 17.8804ZM385.471 19.8867C385.471 18.7787 384.573 17.8804 383.465 17.8804V18.8804C384.02 18.8804 384.471 19.3309 384.471 19.8867H385.471ZM385.471 20.0976V19.8867H384.471V20.0976H385.471ZM383.465 22.1039C384.573 22.1039 385.471 21.2056 385.471 20.0976H384.471C384.471 20.6534 384.02 21.1039 383.465 21.1039V22.1039ZM369.533 22.1039H383.465V21.1039H369.533V22.1039ZM367.638 23.9959C367.64 22.9505 368.488 22.1039 369.533 22.1039L369.533 21.1039C367.936 21.1039 366.641 22.3973 366.638 23.9944L367.638 23.9959ZM367.638 31.9032V23.9952H366.638V31.9032H367.638ZM369.533 33.7983C368.487 33.7983 367.638 32.9499 367.638 31.9032H366.638C366.638 33.5021 367.934 34.7983 369.533 34.7983V33.7983ZM381.985 33.7983H369.533V34.7983H381.985V33.7983ZM383.991 35.8046C383.991 34.6966 383.093 33.7983 381.985 33.7983V34.7983C382.541 34.7983 382.991 35.2487 382.991 35.8046H383.991ZM381.985 37.8109C383.093 37.8109 383.991 36.9125 383.991 35.8046H382.991C382.991 36.3604 382.541 36.8109 381.985 36.8109V37.8109ZM369.533 37.8109H381.985V36.8109H369.533V37.8109ZM367.638 39.7059C367.638 38.6592 368.487 37.8109 369.533 37.8109V36.8109C367.934 36.8109 366.638 38.1071 366.638 39.7059H367.638ZM367.638 48.7813V39.7059H366.638V48.7813H367.638ZM369.533 50.6726C368.488 50.6726 367.64 49.826 367.638 48.7806L366.638 48.7821C366.641 50.3792 367.936 51.6726 369.533 51.6726L369.533 50.6726ZM383.465 50.6726H369.533V51.6726H383.465V50.6726ZM385.471 52.6789C385.471 51.5709 384.573 50.6726 383.465 50.6726V51.6726C384.02 51.6726 384.471 52.1231 384.471 52.6789H385.471ZM385.471 52.8898V52.6789H384.471V52.8898H385.471ZM383.465 54.8961C384.573 54.8961 385.471 53.9978 385.471 52.8898H384.471C384.471 53.4456 384.02 53.8961 383.465 53.8961V54.8961ZM365.207 54.8961H383.465V53.8961H365.207V54.8961ZM363.201 52.8898C363.201 53.9978 364.099 54.8961 365.207 54.8961V53.8961C364.651 53.8961 364.201 53.4456 364.201 52.8898H363.201ZM363.201 19.8528V52.8898H364.201V19.8528H363.201Z" fill="#C41C24" mask="url(#path-16-outside-6)"/>
<mask id="path-18-outside-7" maskUnits="userSpaceOnUse" x="390.723" y="16.4663" width="29" height="40" fill="black">
<rect fill="white" x="390.723" y="16.4663" width="29" height="40"/>
<path fill-rule="evenodd" clip-rule="evenodd" d="M414.518 55.2895H416.588C417.226 55.2935 417.838 55.0435 418.29 54.5947C418.742 54.146 418.997 53.5354 418.998 52.8983V19.8613C418.998 18.5401 417.928 17.4684 416.607 17.4663H416.133C415.498 17.4663 414.889 17.7186 414.44 18.1678C413.99 18.6169 413.738 19.2261 413.738 19.8613V46.5342L398.222 18.6939C397.799 17.9364 396.999 17.4668 396.132 17.4663H394.114C392.793 17.4684 391.723 18.5401 391.723 19.8613V52.8983C391.725 54.2181 392.794 55.2875 394.114 55.2895H394.535C395.855 55.2875 396.924 54.2181 396.926 52.8983V26.2255L412.428 54.0619C412.851 54.8195 413.65 55.2891 414.518 55.2895ZM396.746 24.2776H396.045V52.8898C396.045 53.7217 395.371 54.3961 394.539 54.3961H394.117C393.286 54.3961 392.611 53.7217 392.611 52.8898V19.8528C392.611 19.0209 393.286 18.3465 394.117 18.3465H396.136C396.685 18.3449 397.191 18.6421 397.457 19.1223L413.678 48.2542L413.908 48.4801H414.608V19.8604C414.608 19.0285 415.282 18.3541 416.114 18.3541H416.589C417.42 18.3541 418.095 19.0285 418.095 19.8604V52.9011C418.095 53.733 417.42 54.4074 416.589 54.4074H414.518C413.969 54.409 413.462 54.1118 413.196 53.6316L396.975 24.5035L396.746 24.2776Z"/>
</mask>
<path fill-rule="evenodd" clip-rule="evenodd" d="M414.518 55.2895H416.588C417.226 55.2935 417.838 55.0435 418.29 54.5947C418.742 54.146 418.997 53.5354 418.998 52.8983V19.8613C418.998 18.5401 417.928 17.4684 416.607 17.4663H416.133C415.498 17.4663 414.889 17.7186 414.44 18.1678C413.99 18.6169 413.738 19.2261 413.738 19.8613V46.5342L398.222 18.6939C397.799 17.9364 396.999 17.4668 396.132 17.4663H394.114C392.793 17.4684 391.723 18.5401 391.723 19.8613V52.8983C391.725 54.2181 392.794 55.2875 394.114 55.2895H394.535C395.855 55.2875 396.924 54.2181 396.926 52.8983V26.2255L412.428 54.0619C412.851 54.8195 413.65 55.2891 414.518 55.2895ZM396.746 24.2776H396.045V52.8898C396.045 53.7217 395.371 54.3961 394.539 54.3961H394.117C393.286 54.3961 392.611 53.7217 392.611 52.8898V19.8528C392.611 19.0209 393.286 18.3465 394.117 18.3465H396.136C396.685 18.3449 397.191 18.6421 397.457 19.1223L413.678 48.2542L413.908 48.4801H414.608V19.8604C414.608 19.0285 415.282 18.3541 416.114 18.3541H416.589C417.42 18.3541 418.095 19.0285 418.095 19.8604V52.9011C418.095 53.733 417.42 54.4074 416.589 54.4074H414.518C413.969 54.409 413.462 54.1118 413.196 53.6316L396.975 24.5035L396.746 24.2776Z" fill="#C41C24"/>
<path d="M416.588 55.2895L416.592 54.7895H416.588V55.2895ZM414.518 55.2895L414.517 55.7895H414.518V55.2895ZM418.29 54.5947L417.938 54.2398L417.938 54.2398L418.29 54.5947ZM418.998 52.8983L419.498 52.8991V52.8983H418.998ZM418.998 19.8613L418.498 19.8613V19.8613H418.998ZM416.607 17.4663L416.608 16.9663H416.607V17.4663ZM414.44 18.1678L414.086 17.8143V17.8143L414.44 18.1678ZM413.738 46.5342L413.301 46.7776L414.238 48.4583V46.5342H413.738ZM398.222 18.6939L398.658 18.4505L398.658 18.4503L398.222 18.6939ZM396.132 17.4663L396.132 16.9663H396.132V17.4663ZM394.114 17.4663V16.9663L394.113 16.9663L394.114 17.4663ZM391.723 52.8983H391.223L391.223 52.8991L391.723 52.8983ZM394.114 55.2895L394.113 55.7895H394.114V55.2895ZM394.535 55.2895V55.7895H394.536L394.535 55.2895ZM396.926 52.8983L397.426 52.8991V52.8983H396.926ZM396.926 26.2255L397.363 25.9822L396.426 24.2999V26.2255H396.926ZM412.428 54.0619L411.991 54.3052L411.991 54.3056L412.428 54.0619ZM396.045 24.2776V23.7776H395.545V24.2776H396.045ZM396.746 24.2776L397.096 23.9212L396.95 23.7776H396.746V24.2776ZM396.136 18.3465V18.8465L396.137 18.8465L396.136 18.3465ZM397.457 19.1223L397.02 19.3648L397.02 19.3655L397.457 19.1223ZM413.678 48.2542L413.241 48.4974L413.276 48.5602L413.327 48.6106L413.678 48.2542ZM413.908 48.4801L413.557 48.8365L413.703 48.9801H413.908V48.4801ZM414.608 48.4801V48.9801H415.108V48.4801H414.608ZM414.518 54.4074V53.9074L414.516 53.9074L414.518 54.4074ZM413.196 53.6316L413.633 53.3892L413.633 53.3884L413.196 53.6316ZM396.975 24.5035L397.412 24.2603L397.377 24.1975L397.326 24.1471L396.975 24.5035ZM416.588 54.7895H414.518V55.7895H416.588V54.7895ZM417.938 54.2398C417.58 54.5949 417.096 54.7927 416.592 54.7896L416.585 55.7895C417.355 55.7944 418.096 55.4921 418.642 54.9496L417.938 54.2398ZM418.498 52.8975C418.497 53.4017 418.296 53.8847 417.938 54.2398L418.642 54.9496C419.189 54.4072 419.497 53.6692 419.498 52.8991L418.498 52.8975ZM418.498 19.8613V52.8983H419.498V19.8613H418.498ZM416.607 17.9663C417.652 17.968 418.498 18.8158 418.498 19.8613L419.498 19.8613C419.498 18.2643 418.205 16.9688 416.608 16.9663L416.607 17.9663ZM416.133 17.9663H416.607V16.9663H416.133V17.9663ZM414.793 18.5213C415.148 18.1659 415.63 17.9663 416.133 17.9663V16.9663C415.365 16.9663 414.629 17.2713 414.086 17.8143L414.793 18.5213ZM414.238 19.8613C414.238 19.3587 414.438 18.8767 414.793 18.5213L414.086 17.8143C413.543 18.3572 413.238 19.0935 413.238 19.8613H414.238ZM414.238 46.5342V19.8613H413.238V46.5342H414.238ZM397.785 18.9374L413.301 46.7776L414.175 46.2907L398.658 18.4505L397.785 18.9374ZM396.132 17.9663C396.818 17.9667 397.45 18.3382 397.785 18.9376L398.658 18.4503C398.147 17.5346 397.181 16.9669 396.132 16.9663L396.132 17.9663ZM394.114 17.9663H396.132V16.9663H394.114V17.9663ZM392.223 19.8613C392.223 18.8158 393.069 17.968 394.114 17.9663L394.113 16.9663C392.516 16.9688 391.223 18.2643 391.223 19.8613H392.223ZM392.223 52.8983V19.8613H391.223V52.8983H392.223ZM394.114 54.7895C393.07 54.7879 392.224 53.9418 392.223 52.8975L391.223 52.8991C391.225 54.4943 392.518 55.787 394.113 55.7895L394.114 54.7895ZM394.535 54.7895H394.114V55.7895H394.535V54.7895ZM396.426 52.8975C396.425 53.9418 395.579 54.7879 394.535 54.7895L394.536 55.7895C396.131 55.787 397.424 54.4943 397.426 52.8991L396.426 52.8975ZM396.426 26.2255V52.8983H397.426V26.2255H396.426ZM412.865 53.8186L397.363 25.9822L396.489 26.4687L411.991 54.3052L412.865 53.8186ZM414.518 54.7895C413.832 54.7892 413.199 54.4176 412.864 53.8182L411.991 54.3056C412.502 55.2213 413.469 55.789 414.517 55.7895L414.518 54.7895ZM396.045 24.7776H396.746V23.7776H396.045V24.7776ZM396.545 52.8898V24.2776H395.545V52.8898H396.545ZM394.539 54.8961C395.647 54.8961 396.545 53.9978 396.545 52.8898H395.545C395.545 53.4456 395.095 53.8961 394.539 53.8961V54.8961ZM394.117 54.8961H394.539V53.8961H394.117V54.8961ZM392.111 52.8898C392.111 53.9978 393.009 54.8961 394.117 54.8961V53.8961C393.562 53.8961 393.111 53.4456 393.111 52.8898H392.111ZM392.111 19.8528V52.8898H393.111V19.8528H392.111ZM394.117 17.8465C393.009 17.8465 392.111 18.7448 392.111 19.8528H393.111C393.111 19.297 393.562 18.8465 394.117 18.8465V17.8465ZM396.136 17.8465H394.117V18.8465H396.136V17.8465ZM397.895 18.8798C397.54 18.2403 396.865 17.8444 396.134 17.8465L396.137 18.8465C396.504 18.8454 396.842 19.044 397.02 19.3648L397.895 18.8798ZM414.115 48.0109L397.894 18.879L397.02 19.3655L413.241 48.4974L414.115 48.0109ZM414.258 48.1237L414.029 47.8977L413.327 48.6106L413.557 48.8365L414.258 48.1237ZM414.608 47.9801H413.908V48.9801H414.608V47.9801ZM414.108 19.8604V48.4801H415.108V19.8604H414.108ZM416.114 17.8541C415.006 17.8541 414.108 18.7524 414.108 19.8604H415.108C415.108 19.3045 415.559 18.8541 416.114 18.8541V17.8541ZM416.589 17.8541H416.114V18.8541H416.589V17.8541ZM418.595 19.8604C418.595 18.7524 417.697 17.8541 416.589 17.8541V18.8541C417.144 18.8541 417.595 19.3045 417.595 19.8604H418.595ZM418.595 52.9011V19.8604H417.595V52.9011H418.595ZM416.589 54.9074C417.697 54.9074 418.595 54.0091 418.595 52.9011H417.595C417.595 53.4569 417.144 53.9074 416.589 53.9074V54.9074ZM414.518 54.9074H416.589V53.9074H414.518V54.9074ZM412.759 53.8741C413.113 54.5136 413.788 54.9096 414.519 54.9074L414.516 53.9074C414.15 53.9085 413.811 53.7099 413.633 53.3892L412.759 53.8741ZM396.538 24.7468L412.759 53.8749L413.633 53.3884L397.412 24.2603L396.538 24.7468ZM396.395 24.634L396.625 24.86L397.326 24.1471L397.096 23.9212L396.395 24.634Z" fill="#C41C24" mask="url(#path-18-outside-7)"/>
</svg>
