<svg width="185" height="25" viewBox="0 0 185 25" fill="none" xmlns="http://www.w3.org/2000/svg">
<path d="M172.5 25C165.597 25 160 19.4025 160 12.5C160 5.5975 165.597 0 172.5 0C179.403 0 185 5.5975 185 12.5C185 19.4025 179.403 25 172.5 25Z" fill="#FCCD3F"/>
<path d="M175.751 24.9998V15.3173H179.001L179.488 11.5448H175.751V9.13484C175.751 8.04234 176.053 7.29734 177.621 7.29734H179.618V3.92484C179.273 3.87984 178.086 3.77734 176.706 3.77734C173.826 3.77734 171.853 5.53484 171.853 8.76484V11.5473H168.596V15.3198H171.853V24.9998H175.751Z" fill="#2C2C2C"/>
<path fill-rule="evenodd" clip-rule="evenodd" d="M92.5 25C99.4036 25 105 19.4036 105 12.5C105 5.59644 99.4036 0 92.5 0C85.5964 0 80 5.59644 80 12.5C80 19.4036 85.5964 25 92.5 25Z" fill="#FCCD3F"/>
<path d="M92.5 5.531C94.7701 5.531 95.0396 5.54137 95.9346 5.57939C96.7638 5.6174 97.213 5.75564 97.5136 5.87314C97.911 6.02866 98.1943 6.21183 98.4915 6.50905C98.7886 6.80626 98.9717 7.08965 99.1272 7.48709C99.2447 7.78776 99.3829 8.23704 99.4209 9.06648C99.4624 9.96158 99.4693 10.2311 99.4693 12.5017C99.4693 14.7723 99.4589 15.0419 99.4209 15.937C99.3829 16.7664 99.2447 17.2157 99.1272 17.5164C98.9717 17.9138 98.7886 18.1972 98.4915 18.4944C98.1943 18.7916 97.911 18.9748 97.5136 19.1303C97.213 19.2478 96.7638 19.3861 95.9346 19.4241C95.0396 19.4655 94.7701 19.4725 92.5 19.4725C90.2299 19.4725 89.9604 19.4621 89.0654 19.4241C88.2362 19.3861 87.787 19.2478 87.4864 19.1303C87.089 18.9748 86.8057 18.7916 86.5085 18.4944C86.2114 18.1972 86.0283 17.9138 85.8728 17.5164C85.7553 17.2157 85.6171 16.7664 85.5791 15.937C85.5376 15.0419 85.5307 14.7723 85.5307 12.5017C85.5307 10.2311 85.5411 9.96158 85.5791 9.06648C85.6171 8.23704 85.7553 7.78776 85.8728 7.48709C86.0283 7.08965 86.2114 6.80626 86.5085 6.50905C86.8057 6.21183 87.089 6.02866 87.4864 5.87314C87.787 5.75564 88.2362 5.6174 89.0654 5.57939C89.9638 5.53791 90.2299 5.531 92.5 5.531ZM92.5 4C90.1919 4 89.9016 4.01037 88.9963 4.05184C88.0911 4.09331 87.4726 4.23846 86.9335 4.44582C86.3738 4.66355 85.9004 4.95385 85.427 5.42732C84.9537 5.89734 84.6634 6.37426 84.4457 6.93068C84.235 7.46981 84.0933 8.08843 84.0518 8.9939C84.0104 9.89937 84 10.1897 84 12.4983C84 14.8069 84.0104 15.0972 84.0518 16.0026C84.0933 16.9081 84.2384 17.5267 84.4457 18.0659C84.6634 18.6257 84.9537 19.0992 85.427 19.5727C85.9004 20.0461 86.3738 20.3365 86.9335 20.5542C87.4726 20.765 88.0911 20.9067 88.9963 20.9482C89.9016 20.9896 90.1919 21 92.5 21C94.8081 21 95.0984 20.9896 96.0037 20.9482C96.9089 20.9067 97.5274 20.7615 98.0665 20.5542C98.6262 20.3365 99.0996 20.0461 99.573 19.5727C100.046 19.0992 100.337 18.6257 100.554 18.0659C100.765 17.5267 100.907 16.9081 100.948 16.0026C100.99 15.0972 101 14.8069 101 12.4983C101 10.1897 100.99 9.89937 100.948 8.9939C100.907 8.08843 100.762 7.46981 100.554 6.93068C100.337 6.37426 100.046 5.89734 99.5764 5.42732C99.103 4.95385 98.6297 4.66355 98.0699 4.44582C97.5309 4.23501 96.9124 4.09331 96.0071 4.05184C95.0984 4.01037 94.8081 4 92.5 4Z" fill="#2A2A2A"/>
<path d="M92.5007 8.13672C90.089 8.13672 88.1367 10.0928 88.1367 12.5016C88.1367 14.9105 90.0924 16.8665 92.5007 16.8665C94.9091 16.8665 96.8648 14.9105 96.8648 12.5016C96.8648 10.0928 94.9125 8.13672 92.5007 8.13672ZM92.5007 15.3355C90.9355 15.3355 89.6674 14.0672 89.6674 12.5016C89.6674 10.9361 90.9355 9.66772 92.5007 9.66772C94.066 9.66772 95.3341 10.9361 95.3341 12.5016C95.3341 14.0672 94.066 15.3355 92.5007 15.3355Z" fill="#2A2A2A"/>
<path d="M97.0408 8.98386C97.6037 8.98386 98.0601 8.5274 98.0601 7.96434C98.0601 7.40128 97.6037 6.94482 97.0408 6.94482C96.4778 6.94482 96.0215 7.40128 96.0215 7.96434C96.0215 8.5274 96.4778 8.98386 97.0408 8.98386Z" fill="#2A2A2A"/>
<path fill-rule="evenodd" clip-rule="evenodd" d="M52.5 25C59.4036 25 65 19.4036 65 12.5C65 5.59644 59.4036 0 52.5 0C45.5964 0 40 5.59644 40 12.5C40 19.4036 45.5964 25 52.5 25Z" fill="#FCCD3F"/>
<path d="M61 8.53917C60.4118 8.80062 59.7788 8.97698 59.1146 9.0559C59.7928 8.64992 60.3127 8.00684 60.558 7.23969C59.9237 7.61612 59.2215 7.88927 58.4735 8.03672C57.8749 7.39884 57.0217 7 56.0775 7C54.2649 7 52.7952 8.46966 52.7952 10.2826C52.7952 10.5395 52.8241 10.7899 52.8803 11.0306C50.1521 10.8936 47.7331 9.58693 46.114 7.60086C45.8315 8.08544 45.6697 8.64927 45.6697 9.25143C45.6697 10.3901 46.2491 11.395 47.13 11.9835C46.5921 11.9663 46.0858 11.8185 45.6431 11.5727C45.6428 11.5863 45.6428 11.6003 45.6428 11.6143C45.6428 13.2044 46.7743 14.5308 48.2761 14.8329C48.0007 14.9076 47.7107 14.9479 47.4112 14.9479C47.1995 14.9479 46.9939 14.9274 46.7935 14.8888C47.2115 16.1928 48.4236 17.1421 49.8598 17.1684C48.7364 18.0489 47.3213 18.5738 45.7831 18.5738C45.5184 18.5738 45.2569 18.5582 45 18.5277C46.4531 19.4595 48.1784 20.0025 50.0319 20.0025C56.0701 20.0025 59.3715 15.0008 59.3715 10.663C59.3715 10.5207 59.3686 10.3788 59.3624 10.2378C60.0036 9.77596 60.5602 9.19751 61 8.53917Z" fill="#292929"/>
<path fill-rule="evenodd" clip-rule="evenodd" d="M12.5 25C19.4036 25 25 19.4036 25 12.5C25 5.59644 19.4036 0 12.5 0C5.59644 0 0 5.59644 0 12.5C0 19.4036 5.59644 25 12.5 25Z" fill="#FCCD3F"/>
<path fill-rule="evenodd" clip-rule="evenodd" d="M8.98614 10.9073C8.64722 11.4016 8.47777 11.9967 8.47777 12.6928C8.47777 13.5704 8.72448 14.2488 9.2179 14.728C9.71132 15.2072 10.3418 15.4467 11.1093 15.4467C11.6077 15.4467 12.0264 15.3963 12.3653 15.2954C12.9036 15.1441 13.4518 14.7608 14.0101 14.1454C14.0499 14.1959 14.1197 14.2942 14.2194 14.4405C14.3191 14.5868 14.3913 14.6851 14.4362 14.7356C14.4811 14.786 14.5558 14.8667 14.6605 14.9777C14.7651 15.0886 14.8872 15.2046 15.0268 15.3257C15.1963 15.3963 15.3408 15.3862 15.4604 15.2954C15.5302 15.2349 15.9788 14.8415 16.8061 14.1152C16.8859 14.0546 16.9257 13.984 16.9257 13.9033C16.9257 13.8327 16.8958 13.752 16.836 13.6612C16.6765 13.4494 16.5619 13.2955 16.4921 13.1997C16.4223 13.1039 16.3501 12.9475 16.2753 12.7306C16.2006 12.5137 16.1632 12.2741 16.1632 12.0119V8.35003C16.1632 8.30967 16.1582 8.18105 16.1482 7.96417C16.1382 7.74729 16.1233 7.60605 16.1034 7.54049C16.0834 7.47492 16.0535 7.35638 16.0137 7.18489C15.9738 7.01341 15.9289 6.88226 15.8791 6.79147C15.8292 6.70068 15.7619 6.59729 15.6772 6.48128C15.5931 6.36603 15.5007 6.25728 15.4006 6.15595C14.7627 5.56078 13.8755 5.26318 12.7391 5.26318H12.3653C11.4782 5.31362 10.7031 5.55572 10.0403 5.9895C9.37738 6.42328 8.96122 7.08907 8.79176 7.98687C8.78179 8.02722 8.77681 8.06253 8.77681 8.09279C8.77681 8.23401 8.86153 8.3248 9.031 8.36516L10.7505 8.577C10.91 8.54674 11.0097 8.43072 11.0495 8.22897C11.1193 7.90617 11.2738 7.65397 11.5131 7.47239C11.7523 7.29082 12.0364 7.18489 12.3653 7.15463H12.4849C12.9335 7.15463 13.2625 7.30595 13.4718 7.60858C13.6113 7.83051 13.6811 8.26428 13.6811 8.90989V9.16713C13.0731 9.21756 12.6345 9.25792 12.3653 9.28818C11.5778 9.38907 10.915 9.55551 10.3767 9.78753C9.78856 10.0397 9.32505 10.413 8.98614 10.9073ZM4.2164 16.9902C4.10675 16.9195 4.02701 16.9246 3.97717 17.0053C3.95722 17.0356 3.94727 17.0658 3.94727 17.0961C3.94727 17.1465 3.97717 17.197 4.03698 17.2474C5.13346 18.2461 6.37449 19.0203 7.76006 19.5701C9.14562 20.1199 10.6159 20.3948 12.1709 20.3948C13.1777 20.3948 14.2094 20.2535 15.266 19.9711C16.3227 19.6886 17.2796 19.2902 18.1369 18.7757C18.416 18.6042 18.6452 18.4529 18.8247 18.3217C18.9642 18.2209 18.9916 18.1099 18.9069 17.9888C18.8222 17.8678 18.705 17.8375 18.5555 17.8981C18.5156 17.9182 18.4484 17.9485 18.3537 17.9888C18.259 18.0292 18.1867 18.0595 18.1369 18.0796C16.2329 18.816 14.3041 19.1842 12.3504 19.1842C9.41975 19.1842 6.70842 18.4529 4.2164 16.9902ZM11.0495 12.3902C11.0495 12.7836 11.1467 13.0988 11.3411 13.3359C11.5355 13.5729 11.7971 13.6915 12.1261 13.6915C12.156 13.6915 12.1984 13.6864 12.2532 13.6763C12.308 13.6662 12.3454 13.6612 12.3653 13.6612C12.784 13.5503 13.1079 13.2779 13.3372 12.8441C13.4469 12.6524 13.5291 12.4431 13.5839 12.2161C13.6387 11.9892 13.6686 11.8051 13.6736 11.6638C13.6786 11.5226 13.6811 11.2906 13.6811 10.9678V10.5895C13.103 10.5895 12.6644 10.6299 12.3653 10.7106C11.4881 10.9627 11.0495 11.5226 11.0495 12.3902ZM17.4192 17.1415C17.3793 17.1818 17.3494 17.2222 17.3294 17.2625C17.3195 17.2827 17.3145 17.2978 17.3145 17.3079C17.3045 17.3281 17.3095 17.3483 17.3294 17.3684C17.3494 17.3886 17.3893 17.3987 17.4491 17.3987C17.6584 17.3684 17.8877 17.3382 18.1369 17.3079C18.3661 17.2877 18.5655 17.2777 18.7349 17.2777C19.1935 17.2777 19.4726 17.3382 19.5723 17.4592C19.6121 17.5097 19.6321 17.5904 19.6321 17.7013C19.6321 18.0443 19.4477 18.6546 19.0788 19.5323C19.0489 19.613 19.0639 19.6684 19.1237 19.6987C19.1436 19.7088 19.1636 19.7138 19.1835 19.7138C19.2234 19.7138 19.2682 19.6937 19.3181 19.6533C19.657 19.3608 19.9211 18.9749 20.1105 18.4957C20.2999 18.0166 20.3946 17.6005 20.3946 17.2474V17.1415C20.3946 17.0204 20.3747 16.9296 20.3348 16.8691C20.2451 16.7581 19.976 16.6825 19.5274 16.6421C19.4377 16.622 19.343 16.6169 19.2433 16.627C18.8845 16.6371 18.5156 16.6926 18.1369 16.7934C17.9076 16.854 17.6683 16.97 17.4192 17.1415Z" fill="#2C2C2C"/>
<path d="M132.5 25C125.597 25 120 19.4025 120 12.5C120 5.5975 125.597 0 132.5 0C139.403 0 145 5.5975 145 12.5C145 19.4025 139.403 25 132.5 25Z" fill="#FCCD3F"/>
<path fill-rule="evenodd" clip-rule="evenodd" d="M138.987 6.9999C139.702 7.1924 140.264 7.7574 140.454 8.4774C140.799 9.7799 140.799 12.4999 140.799 12.4999C140.799 12.4999 140.799 15.2199 140.452 16.5224C140.262 17.2424 139.699 17.8074 138.984 17.9999C137.692 18.3499 132.499 18.3499 132.499 18.3499C132.499 18.3499 127.309 18.3499 126.014 17.9999C125.299 17.8074 124.737 17.2424 124.547 16.5224C124.199 15.2199 124.199 12.4999 124.199 12.4999C124.199 12.4999 124.199 9.7799 124.549 8.4774C124.739 7.7574 125.302 7.1924 126.017 6.9999C127.309 6.6499 132.502 6.6499 132.502 6.6499C132.502 6.6499 137.692 6.6499 138.987 6.9999ZM135.139 12.4999L130.802 10.0324V14.9674L135.139 12.4999Z" fill="#2C2C2C"/>
</svg>
