<svg width="36" height="140" viewBox="0 0 36 140" fill="none" xmlns="http://www.w3.org/2000/svg">
<g clip-path="url(#clip0)">
<path d="M8.05102 4.35348C8.07481 4.48559 7.92392 4.72822 7.88655 4.86693C7.81988 5.06023 7.21682 5.81379 7.06319 5.9317C4.84535 7.637 3.49816 9.07906 2.2949 11.8147C2.08403 12.2879 1.89737 12.7875 1.87196 13.2882C1.84655 13.7889 2.01519 14.2961 2.38917 14.4937C2.8778 14.7533 3.50188 14.3997 4.0502 14.1069C6.01455 13.0595 7.51579 10.3005 7.40155 10.7249C6.97922 11.9197 6.66024 13.9313 6.87251 15.0901C6.99592 15.7643 7.05597 16.248 7.42871 16.7542C7.57757 16.9562 7.74404 17.1523 7.9651 17.2461C8.79917 17.5999 9.21746 17.172 9.66505 16.6683C10.7345 15.4631 11.0596 13.6407 11.3351 12.041C11.4644 11.2902 11.4063 10.2459 11.4455 9.27238C11.5182 8.78998 12.3056 11.0057 12.6545 11.6041C12.992 12.1809 13.3357 12.7641 13.7992 13.2062C14.2627 13.6482 14.872 13.9413 15.5261 13.858C16.1803 13.7747 16.8694 13.25 17.1096 12.5192C17.2736 12.0168 17.2142 11.4931 17.1108 11.0158C16.7631 9.39306 16.1002 9.01181 15.0861 7.89633C13.929 6.90765 12.964 6.11822 11.4528 4.15213C11.5753 1.79167 7.84341 2.23978 8.05102 4.35348Z" fill="#5C5C5C"/>
</g>
<path d="M23.4389 26.4921C23.4664 26.6373 23.3202 26.8967 23.286 27.0468C23.2237 27.2554 22.6338 28.0559 22.4816 28.179C20.2846 29.9585 18.9606 31.4832 17.8156 34.4262C17.6148 34.9352 17.4391 35.4739 17.4264 36.0198C17.4137 36.5657 17.5973 37.126 17.9803 37.3559C18.4808 37.6577 19.1023 37.2949 19.6488 36.9956C21.6067 35.9252 23.0522 32.9678 22.9478 33.4271C22.552 34.7164 22.2818 36.9015 22.5263 38.1752C22.6685 38.9163 22.7417 39.4468 23.1315 40.0137C23.2872 40.2399 23.4605 40.4604 23.6863 40.5711C24.5383 40.9887 24.9499 40.537 25.3891 40.0036C26.4386 38.7273 26.7199 36.7489 26.9568 35.0119C27.068 34.1967 26.9823 33.0539 26.9966 31.992C27.0575 31.4678 27.9107 33.9174 28.2788 34.5841C28.6348 35.2268 28.9972 35.8767 29.4771 36.3769C29.9569 36.8771 30.5802 37.22 31.239 37.1535C31.8979 37.087 32.5807 36.5397 32.8045 35.7505C32.9572 35.2079 32.8835 34.6336 32.7667 34.1085C32.3733 32.323 31.6935 31.8817 30.6398 30.6253C29.4449 29.5021 28.4493 28.6037 26.8713 26.3996C26.9339 23.8259 23.1743 24.1756 23.4389 26.4921Z" fill="#5C5C5C"/>
<path d="M8.47016 49.1998C8.49762 49.3449 8.35144 49.6043 8.31726 49.7544C8.25491 49.9631 7.66503 50.7636 7.51284 50.8866C5.31587 52.6662 3.99188 54.1908 2.84687 57.1338C2.64605 57.6428 2.47037 58.1815 2.45768 58.7274C2.44498 59.2734 2.62854 59.8337 3.01158 60.0635C3.51208 60.3654 4.13356 60.0025 4.68006 59.7032C6.63793 58.6328 8.08345 55.6754 7.979 56.1347C7.58321 57.424 7.31302 59.6092 7.55756 60.8828C7.69974 61.6239 7.77296 62.1544 8.16275 62.7214C8.31841 62.9476 8.49171 63.168 8.71753 63.2787C9.56955 63.6964 9.98115 63.2447 10.4204 62.7113C11.4698 61.435 11.7511 59.4565 11.988 57.7196C12.0993 56.9044 12.0135 55.7615 12.0278 54.6997C12.0888 54.1755 12.9419 56.6251 13.31 57.2918C13.6661 57.9345 14.0285 58.5844 14.5083 59.0846C14.9881 59.5847 15.6114 59.9277 16.2703 59.8612C16.9292 59.7947 17.6119 59.2474 17.8358 58.4581C17.9884 57.9156 17.9148 57.3413 17.798 56.8162C17.4045 55.0306 16.7248 54.5894 15.6711 53.333C14.4761 52.2098 13.4805 51.3113 11.9025 49.1072C11.9651 46.5336 8.20557 46.8833 8.47016 49.1998Z" fill="#5C5C5C"/>
<path d="M22.0073 74.0237C22.0347 74.1689 21.8885 74.4283 21.8544 74.5784C21.792 74.787 21.2021 75.5875 21.05 75.7106C18.853 77.4901 17.529 79.0148 16.384 81.9578C16.1832 82.4668 16.0075 83.0055 15.9948 83.5514C15.9821 84.0973 16.1656 84.6576 16.5487 84.8875C17.0492 85.1893 17.6707 84.8265 18.2172 84.5272C20.175 83.4568 21.6206 80.4994 21.5161 80.9587C21.1203 82.248 20.8501 84.4332 21.0947 85.7068C21.2368 86.4479 21.3101 86.9784 21.6999 87.5453C21.8555 87.7716 22.0288 87.992 22.2546 88.1027C23.1067 88.5204 23.5183 88.0686 23.9575 87.5352C25.0069 86.259 25.2882 84.2805 25.5251 82.5436C25.6364 81.7283 25.5506 80.5855 25.565 79.5236C25.6259 78.9994 26.479 81.4491 26.8471 82.1157C27.2032 82.7584 27.5656 83.4084 28.0454 83.9085C28.5253 84.4087 29.1485 84.7516 29.8074 84.6852C30.4663 84.6187 31.149 84.0714 31.3729 83.2821C31.5255 82.7396 31.4519 82.1653 31.3351 81.6401C30.9416 79.8546 30.2619 79.4134 29.2082 78.157C28.0133 77.0337 27.0176 76.1353 25.4396 73.9312C25.5022 71.3576 21.7427 71.7072 22.0073 74.0237Z" fill="#5C5C5C"/>
<path d="M7.14398 99.4346C7.17145 99.5798 7.02527 99.8392 6.99109 99.9893C6.92874 100.198 6.33886 100.998 6.18667 101.121C3.9897 102.901 2.66571 104.426 1.5207 107.369C1.31988 107.878 1.1442 108.416 1.13151 108.962C1.11881 109.508 1.30237 110.069 1.68541 110.298C2.18591 110.6 2.80739 110.237 3.35389 109.938C5.31176 108.868 6.75728 105.91 6.65283 106.37C6.25703 107.659 5.98685 109.844 6.23139 111.118C6.37356 111.859 6.44679 112.389 6.83657 112.956C6.99223 113.182 7.16554 113.403 7.39136 113.514C8.24337 113.931 8.65497 113.48 9.09422 112.946C10.1436 111.67 10.4249 109.691 10.6618 107.954C10.7731 107.139 10.6873 105.996 10.7017 104.935C10.7626 104.41 11.6158 106.86 11.9838 107.527C12.3399 108.169 12.7023 108.819 13.1821 109.319C13.662 109.82 14.2852 110.163 14.9441 110.096C15.603 110.03 16.2857 109.482 16.5096 108.693C16.6622 108.15 16.5886 107.576 16.4718 107.051C16.0783 105.265 15.3986 104.824 14.3449 103.568C13.15 102.445 12.1544 101.546 10.5764 99.3421C10.639 96.7684 6.8794 97.1181 7.14398 99.4346Z" fill="#5C5C5C"/>
<path d="M19.9155 121.842C19.9429 121.987 19.7968 122.246 19.7626 122.397C19.7002 122.605 19.1103 123.406 18.9582 123.529C16.7612 125.308 15.4372 126.833 14.2922 129.776C14.0914 130.285 13.9157 130.824 13.903 131.37C13.8903 131.915 14.0739 132.476 14.4569 132.706C14.9574 133.007 15.5789 132.645 16.1254 132.345C18.0832 131.275 19.5288 128.317 19.4243 128.777C19.0285 130.066 18.7583 132.251 19.0029 133.525C19.145 134.266 19.2183 134.797 19.6081 135.363C19.7637 135.59 19.937 135.81 20.1628 135.921C21.0149 136.338 21.4265 135.887 21.8657 135.353C22.9151 134.077 23.1964 132.099 23.4333 130.362C23.5446 129.546 23.4588 128.404 23.4732 127.342C23.5341 126.818 24.3872 129.267 24.7553 129.934C25.1114 130.577 25.4738 131.226 25.9536 131.727C26.4335 132.227 27.0567 132.57 27.7156 132.503C28.3745 132.437 29.0572 131.889 29.2811 131.1C29.4337 130.558 29.3601 129.983 29.2433 129.458C28.8498 127.673 28.1701 127.231 27.1164 125.975C25.9215 124.852 24.9258 123.953 23.3478 121.749C23.4104 119.176 19.6509 119.525 19.9155 121.842Z" fill="#5C5C5C"/>
<defs>
<clipPath id="clip0">
<rect width="15.1746" height="14.5079" fill="white" transform="matrix(-0.367008 0.930218 -0.890068 -0.455828 19.6973 6.73999)"/>
</clipPath>
</defs>
</svg>
