<svg width="39" height="279" viewBox="0 0 39 279" fill="none" xmlns="http://www.w3.org/2000/svg">
<g clip-path="url(#clip0)">
<path d="M11.051 4.35348C11.0748 4.48559 10.9239 4.72822 10.8865 4.86693C10.8199 5.06023 10.2168 5.81379 10.0632 5.9317C7.84535 7.637 6.49816 9.07906 5.2949 11.8147C5.08403 12.2879 4.89737 12.7875 4.87196 13.2882C4.84655 13.7889 5.01519 14.2961 5.38917 14.4937C5.8778 14.7533 6.50188 14.3997 7.0502 14.1069C9.01455 13.0595 10.5158 10.3005 10.4015 10.7249C9.97922 11.9197 9.66024 13.9313 9.87251 15.0901C9.99592 15.7643 10.056 16.248 10.4287 16.7542C10.5776 16.9562 10.744 17.1523 10.9651 17.2461C11.7992 17.5999 12.2175 17.172 12.6651 16.6683C13.7345 15.4631 14.0596 13.6407 14.3351 12.041C14.4644 11.2902 14.4063 10.2459 14.4455 9.27238C14.5182 8.78998 15.3056 11.0057 15.6545 11.6041C15.992 12.1809 16.3357 12.7641 16.7992 13.2062C17.2627 13.6482 17.872 13.9413 18.5261 13.858C19.1803 13.7747 19.8694 13.25 20.1096 12.5192C20.2736 12.0168 20.2142 11.4931 20.1108 11.0158C19.7631 9.39306 19.1002 9.01181 18.0861 7.89633C16.929 6.90765 15.964 6.11822 14.4528 4.15213C14.5753 1.79167 10.8434 2.23978 11.051 4.35348Z" fill="#5C5C5C"/>
</g>
<path d="M26.4389 26.4921C26.4664 26.6373 26.3202 26.8967 26.286 27.0468C26.2237 27.2554 25.6338 28.0559 25.4816 28.179C23.2846 29.9585 21.9606 31.4832 20.8156 34.4262C20.6148 34.9352 20.4391 35.4739 20.4264 36.0198C20.4137 36.5657 20.5973 37.126 20.9803 37.3559C21.4808 37.6577 22.1023 37.2949 22.6488 36.9956C24.6067 35.9252 26.0522 32.9678 25.9478 33.4271C25.552 34.7164 25.2818 36.9015 25.5263 38.1752C25.6685 38.9163 25.7417 39.4468 26.1315 40.0137C26.2872 40.2399 26.4605 40.4604 26.6863 40.5711C27.5383 40.9887 27.9499 40.537 28.3891 40.0036C29.4386 38.7273 29.7199 36.7489 29.9568 35.0119C30.068 34.1967 29.9823 33.0539 29.9966 31.992C30.0575 31.4678 30.9107 33.9174 31.2788 34.5841C31.6348 35.2268 31.9972 35.8767 32.4771 36.3769C32.9569 36.8771 33.5802 37.22 34.239 37.1535C34.8979 37.087 35.5807 36.5397 35.8045 35.7505C35.9572 35.2079 35.8835 34.6336 35.7667 34.1085C35.3733 32.323 34.6935 31.8817 33.6398 30.6253C32.4449 29.5021 31.4493 28.6037 29.8713 26.3996C29.9339 23.8259 26.1743 24.1756 26.4389 26.4921Z" fill="#5C5C5C"/>
<path d="M11.4702 49.1999C11.4976 49.3451 11.3514 49.6044 11.3173 49.7545C11.2549 49.9632 10.665 50.7637 10.5128 50.8867C8.31587 52.6663 6.99188 54.191 5.84687 57.134C5.64605 57.643 5.47037 58.1816 5.45768 58.7276C5.44498 59.2735 5.62854 59.8338 6.01158 60.0636C6.51208 60.3655 7.13356 60.0026 7.68006 59.7033C9.63793 58.6329 11.0835 55.6755 10.979 56.1349C10.5832 57.4241 10.313 59.6093 10.5576 60.883C10.6997 61.624 10.773 62.1546 11.1627 62.7215C11.3184 62.9477 11.4917 63.1681 11.7175 63.2788C12.5695 63.6965 12.9811 63.2448 13.4204 62.7114C14.4698 61.4351 14.7511 59.4566 14.988 57.7197C15.0993 56.9045 15.0135 55.7616 15.0278 54.6998C15.0888 54.1756 15.9419 56.6252 16.31 57.2919C16.6661 57.9346 17.0285 58.5845 17.5083 59.0847C17.9881 59.5848 18.6114 59.9278 19.2703 59.8613C19.9292 59.7948 20.6119 59.2475 20.8358 58.4583C20.9884 57.9157 20.9148 57.3414 20.798 56.8163C20.4045 55.0308 19.7248 54.5895 18.6711 53.3331C17.4761 52.2099 16.4805 51.3115 14.9025 49.1074C14.9651 46.5337 11.2056 46.8834 11.4702 49.1999Z" fill="#5C5C5C"/>
<path d="M25.0073 74.0239C25.0347 74.169 24.8885 74.4284 24.8544 74.5785C24.792 74.7872 24.2021 75.5877 24.05 75.7107C21.853 77.4903 20.529 79.0149 19.384 81.9579C19.1832 82.4669 19.0075 83.0056 18.9948 83.5515C18.9821 84.0975 19.1656 84.6578 19.5487 84.8876C20.0492 85.1895 20.6707 84.8266 21.2172 84.5273C23.175 83.4569 24.6206 80.4995 24.5161 80.9588C24.1203 82.2481 23.8501 84.4333 24.0947 85.7069C24.2368 86.448 24.3101 86.9785 24.6999 87.5454C24.8555 87.7717 25.0288 87.9921 25.2546 88.1028C26.1067 88.5205 26.5183 88.0687 26.9575 87.5353C28.0069 86.2591 28.2882 84.2806 28.5251 82.5437C28.6364 81.7285 28.5506 80.5856 28.565 79.5237C28.6259 78.9996 29.479 81.4492 29.8471 82.1159C30.2032 82.7586 30.5656 83.4085 31.0454 83.9086C31.5253 84.4088 32.1485 84.7518 32.8074 84.6853C33.4663 84.6188 34.149 84.0715 34.3729 83.2822C34.5255 82.7397 34.4519 82.1654 34.3351 81.6403C33.9416 79.8547 33.2619 79.4135 32.2082 78.1571C31.0133 77.0339 30.0176 76.1354 28.4396 73.9313C28.5022 71.3577 24.7427 71.7074 25.0073 74.0239Z" fill="#5C5C5C"/>
<path d="M10.144 99.4345C10.1714 99.5797 10.0253 99.8391 9.99109 99.9892C9.92874 100.198 9.33886 100.998 9.18667 101.121C6.9897 102.901 5.66571 104.426 4.5207 107.369C4.31988 107.878 4.1442 108.416 4.13151 108.962C4.11881 109.508 4.30237 110.068 4.68541 110.298C5.18591 110.6 5.80739 110.237 6.35389 109.938C8.31176 108.868 9.75728 105.91 9.65283 106.369C9.25703 107.659 8.98685 109.844 9.23139 111.118C9.37356 111.859 9.44679 112.389 9.83657 112.956C9.99223 113.182 10.1655 113.403 10.3914 113.513C11.2434 113.931 11.655 113.479 12.0942 112.946C13.1436 111.67 13.4249 109.691 13.6618 107.954C13.7731 107.139 13.6873 105.996 13.7017 104.934C13.7626 104.41 14.6158 106.86 14.9838 107.527C15.3399 108.169 15.7023 108.819 16.1821 109.319C16.662 109.819 17.2852 110.162 17.9441 110.096C18.603 110.029 19.2857 109.482 19.5096 108.693C19.6622 108.15 19.5886 107.576 19.4718 107.051C19.0783 105.265 18.3986 104.824 17.3449 103.568C16.15 102.444 15.1544 101.546 13.5764 99.342C13.639 96.7683 9.8794 97.118 10.144 99.4345Z" fill="#5C5C5C"/>
<path d="M22.9155 121.842C22.9429 121.987 22.7968 122.246 22.7626 122.396C22.7002 122.605 22.1103 123.406 21.9582 123.529C19.7612 125.308 18.4372 126.833 17.2922 129.776C17.0914 130.285 16.9157 130.823 16.903 131.369C16.8903 131.915 17.0739 132.476 17.4569 132.705C17.9574 133.007 18.5789 132.644 19.1254 132.345C21.0832 131.275 22.5288 128.317 22.4243 128.777C22.0285 130.066 21.7583 132.251 22.0029 133.525C22.145 134.266 22.2183 134.796 22.6081 135.363C22.7637 135.59 22.937 135.81 23.1628 135.921C24.0149 136.338 24.4265 135.887 24.8657 135.353C25.9151 134.077 26.1964 132.098 26.4333 130.362C26.5446 129.546 26.4588 128.403 26.4732 127.342C26.5341 126.817 27.3872 129.267 27.7553 129.934C28.1114 130.576 28.4738 131.226 28.9536 131.727C29.4335 132.227 30.0567 132.57 30.7156 132.503C31.3745 132.437 32.0572 131.889 32.2811 131.1C32.4337 130.558 32.3601 129.983 32.2433 129.458C31.8498 127.673 31.1701 127.231 30.1164 125.975C28.9215 124.852 27.9258 123.953 26.3478 121.749C26.4104 119.176 22.6509 119.525 22.9155 121.842Z" fill="#5C5C5C"/>
<g clip-path="url(#clip1)">
<path d="M8.05102 143.353C8.07481 143.486 7.92392 143.728 7.88655 143.867C7.81988 144.06 7.21682 144.814 7.06319 144.932C4.84535 146.637 3.49816 148.079 2.2949 150.815C2.08403 151.288 1.89737 151.788 1.87196 152.288C1.84655 152.789 2.01519 153.296 2.38917 153.494C2.8778 153.753 3.50188 153.4 4.0502 153.107C6.01455 152.06 7.51579 149.3 7.40155 149.725C6.97922 150.92 6.66024 152.931 6.87251 154.09C6.99592 154.764 7.05597 155.248 7.42871 155.754C7.57757 155.956 7.74404 156.152 7.9651 156.246C8.79917 156.6 9.21746 156.172 9.66505 155.668C10.7345 154.463 11.0596 152.641 11.3351 151.041C11.4644 150.29 11.4063 149.246 11.4455 148.272C11.5182 147.79 12.3056 150.006 12.6545 150.604C12.992 151.181 13.3357 151.764 13.7992 152.206C14.2627 152.648 14.872 152.941 15.5261 152.858C16.1803 152.775 16.8694 152.25 17.1096 151.519C17.2736 151.017 17.2142 150.493 17.1108 150.016C16.7631 148.393 16.1002 148.012 15.0861 146.896C13.929 145.908 12.964 145.118 11.4528 143.152C11.5753 140.792 7.84341 141.24 8.05102 143.353Z" fill="#5C5C5C"/>
</g>
<path d="M23.4389 165.492C23.4664 165.637 23.3202 165.897 23.286 166.047C23.2237 166.255 22.6338 167.056 22.4816 167.179C20.2846 168.959 18.9606 170.483 17.8156 173.426C17.6148 173.935 17.4391 174.474 17.4264 175.02C17.4137 175.566 17.5973 176.126 17.9803 176.356C18.4808 176.658 19.1023 176.295 19.6488 175.996C21.6067 174.925 23.0522 171.968 22.9478 172.427C22.552 173.716 22.2818 175.902 22.5263 177.175C22.6685 177.916 22.7417 178.447 23.1315 179.014C23.2872 179.24 23.4605 179.46 23.6863 179.571C24.5383 179.989 24.9499 179.537 25.3891 179.004C26.4386 177.727 26.7199 175.749 26.9568 174.012C27.068 173.197 26.9823 172.054 26.9966 170.992C27.0575 170.468 27.9107 172.917 28.2788 173.584C28.6348 174.227 28.9972 174.877 29.4771 175.377C29.9569 175.877 30.5802 176.22 31.239 176.154C31.8979 176.087 32.5807 175.54 32.8045 174.751C32.9572 174.208 32.8835 173.634 32.7667 173.109C32.3733 171.323 31.6935 170.882 30.6398 169.625C29.4449 168.502 28.4493 167.604 26.8713 165.4C26.9339 162.826 23.1743 163.176 23.4389 165.492Z" fill="#5C5C5C"/>
<path d="M8.47016 188.2C8.49762 188.345 8.35144 188.604 8.31726 188.755C8.25491 188.963 7.66503 189.764 7.51284 189.887C5.31587 191.666 3.99188 193.191 2.84687 196.134C2.64605 196.643 2.47037 197.182 2.45768 197.728C2.44498 198.273 2.62854 198.834 3.01158 199.064C3.51208 199.365 4.13356 199.003 4.68006 198.703C6.63793 197.633 8.08345 194.676 7.979 195.135C7.58321 196.424 7.31302 198.609 7.55756 199.883C7.69974 200.624 7.77296 201.155 8.16275 201.721C8.31841 201.948 8.49171 202.168 8.71753 202.279C9.56955 202.697 9.98115 202.245 10.4204 201.711C11.4698 200.435 11.7511 198.457 11.988 196.72C12.0993 195.904 12.0135 194.762 12.0278 193.7C12.0888 193.176 12.9419 195.625 13.31 196.292C13.6661 196.935 14.0285 197.584 14.5083 198.085C14.9881 198.585 15.6114 198.928 16.2703 198.861C16.9292 198.795 17.6119 198.248 17.8358 197.458C17.9884 196.916 17.9148 196.341 17.798 195.816C17.4045 194.031 16.7248 193.59 15.6711 192.333C14.4761 191.21 13.4805 190.311 11.9025 188.107C11.9651 185.534 8.20557 185.883 8.47016 188.2Z" fill="#5C5C5C"/>
<path d="M22.0073 213.024C22.0347 213.169 21.8885 213.428 21.8544 213.579C21.792 213.787 21.2021 214.588 21.05 214.711C18.853 216.49 17.529 218.015 16.384 220.958C16.1832 221.467 16.0075 222.006 15.9948 222.552C15.9821 223.097 16.1656 223.658 16.5487 223.888C17.0492 224.189 17.6707 223.827 18.2172 223.527C20.175 222.457 21.6206 219.5 21.5161 219.959C21.1203 221.248 20.8501 223.433 21.0947 224.707C21.2368 225.448 21.3101 225.979 21.6999 226.545C21.8555 226.772 22.0288 226.992 22.2546 227.103C23.1067 227.52 23.5183 227.069 23.9575 226.535C25.0069 225.259 25.2882 223.281 25.5251 221.544C25.6364 220.728 25.5506 219.586 25.565 218.524C25.6259 218 26.479 220.449 26.8471 221.116C27.2032 221.759 27.5656 222.408 28.0454 222.909C28.5253 223.409 29.1485 223.752 29.8074 223.685C30.4663 223.619 31.149 223.071 31.3729 222.282C31.5255 221.74 31.4519 221.165 31.3351 220.64C30.9416 218.855 30.2619 218.413 29.2082 217.157C28.0133 216.034 27.0176 215.135 25.4396 212.931C25.5022 210.358 21.7427 210.707 22.0073 213.024Z" fill="#5C5C5C"/>
<path d="M7.14398 238.435C7.17145 238.58 7.02527 238.839 6.99109 238.989C6.92874 239.198 6.33886 239.998 6.18667 240.121C3.9897 241.901 2.66571 243.426 1.5207 246.369C1.31988 246.878 1.1442 247.416 1.13151 247.962C1.11881 248.508 1.30237 249.068 1.68541 249.298C2.18591 249.6 2.80739 249.237 3.35389 248.938C5.31176 247.868 6.75728 244.91 6.65283 245.369C6.25703 246.659 5.98685 248.844 6.23139 250.118C6.37356 250.859 6.44679 251.389 6.83657 251.956C6.99223 252.182 7.16554 252.403 7.39136 252.513C8.24337 252.931 8.65497 252.479 9.09422 251.946C10.1436 250.67 10.4249 248.691 10.6618 246.954C10.7731 246.139 10.6873 244.996 10.7017 243.934C10.7626 243.41 11.6158 245.86 11.9838 246.527C12.3399 247.169 12.7023 247.819 13.1821 248.319C13.662 248.819 14.2852 249.162 14.9441 249.096C15.603 249.029 16.2857 248.482 16.5096 247.693C16.6622 247.15 16.5886 246.576 16.4718 246.051C16.0783 244.265 15.3986 243.824 14.3449 242.568C13.15 241.444 12.1544 240.546 10.5764 238.342C10.639 235.768 6.8794 236.118 7.14398 238.435Z" fill="#5C5C5C"/>
<path d="M19.9155 260.842C19.9429 260.987 19.7968 261.246 19.7626 261.396C19.7002 261.605 19.1103 262.406 18.9582 262.529C16.7612 264.308 15.4372 265.833 14.2922 268.776C14.0914 269.285 13.9157 269.823 13.903 270.369C13.8903 270.915 14.0739 271.476 14.4569 271.705C14.9574 272.007 15.5789 271.644 16.1254 271.345C18.0832 270.275 19.5288 267.317 19.4243 267.777C19.0285 269.066 18.7583 271.251 19.0029 272.525C19.145 273.266 19.2183 273.796 19.6081 274.363C19.7637 274.59 19.937 274.81 20.1628 274.921C21.0149 275.338 21.4265 274.887 21.8657 274.353C22.9151 273.077 23.1964 271.098 23.4333 269.362C23.5446 268.546 23.4588 267.403 23.4732 266.342C23.5341 265.817 24.3872 268.267 24.7553 268.934C25.1114 269.576 25.4738 270.226 25.9536 270.727C26.4335 271.227 27.0567 271.57 27.7156 271.503C28.3745 271.437 29.0572 270.889 29.2811 270.1C29.4337 269.558 29.3601 268.983 29.2433 268.458C28.8498 266.673 28.1701 266.231 27.1164 264.975C25.9215 263.852 24.9258 262.953 23.3478 260.749C23.4104 258.176 19.6509 258.525 19.9155 260.842Z" fill="#5C5C5C"/>
<defs>
<clipPath id="clip0">
<rect width="15.1746" height="14.5079" fill="white" transform="matrix(-0.367008 0.930218 -0.890068 -0.455828 22.6973 6.73999)"/>
</clipPath>
<clipPath id="clip1">
<rect width="15.1746" height="14.5079" fill="white" transform="matrix(-0.367008 0.930218 -0.890068 -0.455828 19.6973 145.74)"/>
</clipPath>
</defs>
</svg>
