<svg width="61" height="157" viewBox="0 0 61 157" fill="none" xmlns="http://www.w3.org/2000/svg">
<g clip-path="url(#clip0)">
<path d="M30.3797 26.5576C31.7783 25.1627 31.8435 23.382 30.528 21.6352C30.1438 21.1103 29.6978 20.6434 29.2012 20.2461C28.5595 19.7564 28.1187 19.0133 27.9704 18.171L26.9566 12.194C26.7948 11.4883 26.7136 10.7623 26.7146 10.0324L26.723 4.79877C26.7267 4.27432 26.6531 3.75386 26.5053 3.2572C26.2297 2.34905 25.5617 1.10088 23.8275 0.892932C18.5217 0.267213 19.4378 9.08063 17.7505 13.0591L15.7617 17.7468C15.4062 18.6015 14.7931 19.3006 14.0257 19.7261C13.4743 20.0343 12.9606 20.4183 12.4976 20.8687C10.9116 22.3743 10.6818 24.1402 11.8308 25.7469C11.8032 26.2755 11.8051 26.8066 11.7411 27.33C11.6882 27.757 11.3732 28.2338 11.7979 28.5429C11.8462 28.5772 11.9052 28.5891 11.9621 28.5763C12.0191 28.5635 12.0695 28.5269 12.1025 28.4744L13.2707 26.601C14.5586 26.8948 15.7444 26.5329 16.8033 25.7402C17.1143 25.509 18.0894 24.8614 18.1878 24.7611C18.2248 25.6584 19.5518 26.6629 19.5518 26.6629C19.9638 27.1763 20.4895 27.566 21.0801 27.796C21.0776 27.7522 21.0742 27.7072 21.0717 27.6634C21.0742 27.7072 21.0776 27.7522 21.0801 27.796L21.1537 30.0376C21.1558 30.1019 21.181 30.1623 21.2239 30.2059C21.2669 30.2494 21.324 30.2725 21.3831 30.2701C21.8972 30.2425 21.8595 29.6615 22.0242 29.2694C22.227 28.7878 22.4898 28.3357 22.7257 27.8747C23.2635 27.6681 23.7455 27.3148 24.1254 26.8488C24.3592 26.5639 24.615 26.3013 24.8899 26.0641C25.0449 25.9268 25.189 25.7753 25.3206 25.6115L25.4761 25.7362C26.5184 26.5214 27.5002 27.2458 28.8179 27.1687C28.774 27.0689 28.7321 26.9693 28.683 26.8702C28.728 26.9701 28.7689 27.0685 28.8179 27.1687L29.6589 29.2047C29.6709 29.234 29.6881 29.2604 29.7095 29.2823C29.7309 29.3042 29.7562 29.3212 29.7838 29.3323C29.8114 29.3434 29.8408 29.3484 29.8704 29.3471C29.9 29.3458 29.9291 29.3381 29.9561 29.3245C30.4219 29.0894 30.1909 28.5683 30.2092 28.1395C30.227 27.6056 30.3196 27.0824 30.3797 26.5576Z" fill="#403D3E"/>
</g>
<g clip-path="url(#clip1)">
<path d="M58.0511 58.3392C58.9244 56.5674 58.4111 54.8611 56.602 53.6325C56.069 53.2599 55.496 52.962 54.8978 52.7464C54.1322 52.4901 53.4752 51.9291 53.0628 51.1798L50.1733 45.8505C49.7923 45.2348 49.481 44.5739 49.2462 43.8827L47.5642 38.9268C47.3983 38.4293 47.1606 37.9604 46.8603 37.5381C46.3062 36.7676 45.271 35.802 43.5625 36.1652C38.3389 37.2863 42.0519 45.3318 41.7397 49.6419L41.3711 54.7207C41.3107 55.6444 40.9562 56.504 40.3673 57.1546C39.9449 57.6243 39.5828 58.1536 39.29 58.7294C38.2751 60.6665 38.6279 62.412 40.2342 63.5616C40.3787 64.0708 40.552 64.5728 40.6605 65.0888C40.7483 65.51 40.6041 66.063 41.1059 66.2185C41.1626 66.2352 41.2223 66.2275 41.2721 66.197C41.3218 66.1665 41.3577 66.1156 41.372 66.0552L41.8727 63.905C43.1865 63.7671 44.1919 63.0417 44.9381 61.9496C45.1577 61.6303 45.8715 60.7025 45.9323 60.5759C46.257 61.4131 47.8374 61.9353 47.8374 61.9353C48.393 62.2882 49.0164 62.4873 49.6496 62.5142C49.6331 62.4735 49.6154 62.4321 49.5988 62.3914C49.6154 62.4321 49.6331 62.4735 49.6496 62.5142L50.4431 64.6119C50.4658 64.6721 50.5092 64.7212 50.5639 64.7485C50.6186 64.7758 50.6802 64.7792 50.7353 64.7579C51.213 64.5657 50.9897 64.028 51.0189 63.6038C51.0554 63.0825 51.1581 62.5698 51.2325 62.0573C51.6748 61.6881 52.0169 61.1981 52.226 60.6344C52.3552 60.2892 52.5125 59.9581 52.6961 59.6448C52.7985 59.4648 52.886 59.275 52.9576 59.0774L53.145 59.1452C54.385 59.5518 55.5481 59.9203 56.7704 59.4219C56.6966 59.3416 56.6248 59.2609 56.5463 59.183C56.6211 59.263 56.6916 59.3429 56.7704 59.4219L58.2238 61.0773C58.2446 61.1011 58.2693 61.1205 58.2967 61.1343C58.324 61.1481 58.3534 61.156 58.3831 61.1577C58.4129 61.1593 58.4423 61.1545 58.4699 61.1437C58.4974 61.1329 58.5225 61.1162 58.5437 61.0946C58.9087 60.7217 58.5218 60.3031 58.4006 59.8914C58.245 59.3803 58.1638 58.8552 58.0511 58.3392Z" fill="#403D3E"/>
</g>
<g clip-path="url(#clip2)">
<path d="M26.0419 91.1376C27.4899 89.7941 27.6193 88.0169 26.3676 86.2238C26.0026 85.6855 25.5737 85.2028 25.0917 84.7878C24.468 84.2753 24.0544 83.5168 23.9365 82.6697L23.1387 76.6601C23.0026 75.949 22.9475 75.2205 22.9749 74.4911L23.1719 69.2612C23.1944 68.7372 23.1397 68.2145 23.0098 67.7128C22.7672 66.7953 22.1446 65.5239 20.419 65.2535C15.1392 64.437 15.737 73.2777 13.9075 77.1928L11.751 81.8058C11.365 82.6471 10.727 83.3236 9.94482 83.7212C9.38261 84.0093 8.85545 84.3746 8.37647 84.808C6.73726 86.2554 6.44397 88.0119 7.53432 89.659C7.4877 90.1863 7.47045 90.7171 7.38763 91.2378C7.31935 91.6626 6.98735 92.1277 7.40063 92.452C7.44768 92.4879 7.50618 92.502 7.56356 92.4913C7.62094 92.4805 7.67262 92.4458 7.70751 92.3945L8.94249 90.5644C10.219 90.9044 11.417 90.5855 12.5038 89.8315C12.8229 89.6117 13.8208 88.9996 13.9228 88.903C13.9273 89.801 15.2173 90.8527 15.2173 90.8527C15.6105 91.3806 16.1218 91.789 16.7038 92.0401C16.7028 91.9962 16.701 91.9511 16.7001 91.9073C16.701 91.9511 16.7028 91.9962 16.7038 92.0401L16.6965 94.2829C16.6963 94.3472 16.7193 94.4085 16.7606 94.4536C16.802 94.4986 16.8583 94.5238 16.9174 94.5235C17.4322 94.5144 17.4155 93.9325 17.5941 93.5466C17.8142 93.0726 18.0931 92.6303 18.3455 92.1781C18.8904 91.991 19.3848 91.6553 19.7813 91.2033C20.0251 90.927 20.2902 90.6738 20.5735 90.4466C20.7334 90.315 20.8829 90.1689 21.0202 90.0098L21.1711 90.14C22.1844 90.9624 23.1395 91.7216 24.4592 91.6921C24.4189 91.5908 24.3806 91.4898 24.3351 91.389C24.3764 91.4904 24.4138 91.5902 24.4592 91.6921L25.2262 93.7571C25.2371 93.7868 25.2534 93.8138 25.274 93.8364C25.2946 93.8591 25.3192 93.877 25.3464 93.8891C25.3736 93.9012 25.4028 93.9073 25.4324 93.907C25.462 93.9067 25.4914 93.9001 25.5189 93.8875C25.9929 93.6693 25.7808 93.1403 25.8145 92.7124C25.8516 92.1795 25.963 91.6599 26.0419 91.1376Z" fill="#403D3E"/>
</g>
<g clip-path="url(#clip3)">
<path d="M50.8248 121.661C51.9192 120.016 51.6301 118.258 49.9945 116.806C49.5139 116.368 48.9841 115.999 48.4187 115.708C47.6926 115.355 47.1133 114.714 46.8009 113.918L44.6225 108.261C44.3241 107.601 44.1005 106.905 43.9568 106.19L42.9277 101.058C42.8273 100.544 42.6521 100.048 42.4087 99.5905C41.9586 98.755 41.0564 97.664 39.3154 97.8039C33.9908 98.2423 36.6357 106.699 35.7706 110.933L34.7504 115.922C34.5714 116.83 34.109 117.637 33.4412 118.206C32.9617 118.618 32.5344 119.096 32.1698 119.629C30.9138 121.419 31.0386 123.196 32.4833 124.543C32.561 125.066 32.6681 125.586 32.7091 126.112C32.7419 126.541 32.5276 127.071 33.0052 127.29C33.0593 127.314 33.1195 127.314 33.1728 127.29C33.2261 127.266 33.2682 127.22 33.2902 127.162L34.0639 125.094C35.3844 125.127 36.475 124.537 37.3557 123.551C37.6147 123.262 38.4421 122.434 38.5187 122.316C38.7328 123.189 40.2327 123.91 40.2327 123.91C40.7382 124.332 41.3307 124.609 41.9552 124.718C41.9441 124.675 41.9318 124.632 41.9207 124.589C41.9318 124.632 41.9441 124.675 41.9552 124.718L42.4716 126.9C42.4864 126.963 42.5231 127.017 42.5738 127.051C42.6246 127.085 42.6852 127.097 42.7426 127.083C43.241 126.954 43.0889 126.392 43.1726 125.975C43.2759 125.463 43.4439 124.967 43.5838 124.469C44.0699 124.16 44.4724 123.718 44.7524 123.186C44.925 122.86 45.1236 122.552 45.3461 122.265C45.4708 122.1 45.5821 121.923 45.6785 121.736L45.8556 121.827C47.0329 122.391 48.1388 122.906 49.4151 122.569C49.3523 122.48 49.2915 122.391 49.2238 122.303C49.2876 122.392 49.3472 122.481 49.4151 122.569L50.643 124.398C50.6606 124.424 50.6826 124.447 50.708 124.464C50.7333 124.481 50.7614 124.493 50.7907 124.498C50.82 124.504 50.8498 124.503 50.8785 124.496C50.9072 124.489 50.9342 124.475 50.958 124.457C51.368 124.134 51.0383 123.669 50.9712 123.245C50.8828 122.718 50.8699 122.187 50.8248 121.661Z" fill="#403D3E"/>
</g>
<g clip-path="url(#clip4)">
<path d="M19.6086 152.331C20.9458 150.877 20.9341 149.095 19.5445 147.407C19.1381 146.899 18.6723 146.452 18.1591 146.076C17.4968 145.614 17.0244 144.891 16.8399 144.056L15.5693 138.128C15.3773 137.43 15.2648 136.708 15.2343 135.979L15.0171 130.75C14.9981 130.226 14.9022 129.709 14.733 129.219C14.4185 128.324 13.6973 127.106 11.9558 126.973C6.62793 126.576 7.92321 135.342 6.40909 139.389L4.62423 144.159C4.30598 145.028 3.72357 145.753 2.97525 146.211C2.43758 146.543 1.94098 146.948 1.49778 147.418C-0.0218032 148.991 -0.175232 150.765 1.04199 152.321C1.03723 152.85 1.06202 153.381 1.02064 153.906C0.986187 154.335 0.69202 154.825 1.12965 155.116C1.1794 155.148 1.23883 155.157 1.29518 155.142C1.35153 155.127 1.4003 155.088 1.43102 155.034L2.51737 153.112C3.81674 153.35 4.98584 152.937 6.00955 152.1C6.31027 151.855 7.2566 151.166 7.3506 151.062C7.42621 151.957 8.79534 152.903 8.79534 152.903C9.22905 153.398 9.77103 153.765 10.371 153.969C10.3667 153.925 10.3613 153.881 10.3569 153.837C10.3613 153.881 10.3667 153.925 10.371 153.969L10.5412 156.205C10.5461 156.27 10.5739 156.329 10.6187 156.371C10.6634 156.412 10.7215 156.433 10.7804 156.428C11.2929 156.378 11.2302 155.799 11.3778 155.4C11.5597 154.911 11.8027 154.448 12.0185 153.977C12.5469 153.747 13.0133 153.373 13.3727 152.891C13.594 152.597 13.8382 152.323 14.1026 152.074C14.2516 151.931 14.389 151.773 14.5134 151.604L14.6741 151.722C15.7493 152.461 16.7614 153.143 18.0746 153.009C18.0264 152.911 17.9803 152.813 17.927 152.716C17.9762 152.814 18.0213 152.911 18.0746 153.009L19.0026 155.007C19.0159 155.035 19.0342 155.061 19.0565 155.082C19.0789 155.103 19.1048 155.119 19.1329 155.129C19.1609 155.139 19.1906 155.142 19.22 155.14C19.2495 155.137 19.2783 155.128 19.3047 155.113C19.76 154.858 19.5067 154.348 19.5065 153.919C19.5012 153.384 19.5712 152.858 19.6086 152.331Z" fill="#403D3E"/>
</g>
<defs>
<clipPath id="clip0">
<rect width="20.3466" height="29.4676" fill="white" transform="translate(13.0742) rotate(4.75447)"/>
</clipPath>
<clipPath id="clip1">
<rect width="20.3466" height="29.4676" fill="white" transform="translate(33.0957 38.7915) rotate(-14.0846)"/>
</clipPath>
<clipPath id="clip2">
<rect width="20.3466" height="29.4676" fill="white" transform="translate(9.70508 63.9736) rotate(6.81999)"/>
</clipPath>
<clipPath id="clip3">
<rect width="20.3466" height="29.4676" fill="white" transform="translate(28.5977 99.0593) rotate(-6.67829)"/>
</clipPath>
<clipPath id="clip4">
<rect width="20.3466" height="29.4676" fill="white" transform="translate(1.17383 126.543) rotate(2.28307)"/>
</clipPath>
</defs>
</svg>
