<svg width="580" height="365" viewBox="0 0 580 365" fill="none" xmlns="http://www.w3.org/2000/svg">
<path d="M207.701 137.583C205.593 143.237 201.377 149.209 201.377 156.235C201.377 162.439 206.247 165.519 216.133 165.435C218.221 164.925 220.148 163.903 221.741 162.46C231.08 152.775 235.76 135.641 237.488 119.922C231.649 118.719 220.244 113.359 216.197 119.267C211.369 126.442 213.33 130.556 207.701 137.583Z" fill="black"/>
<path d="M252.647 118.74C237.458 131.847 219.562 141.43 200.24 146.803C188.245 150.116 176.335 153.724 166.785 161.721C164.056 164.013 161.569 166.58 159.365 169.381C158.606 170.351 157.594 172.039 157.994 172.757C161.796 173.161 165.624 173.259 169.441 173.052C151.707 186.353 136.061 202.235 123.021 220.169C117.878 227.491 113.092 235.762 113.388 244.709L121.335 243.633C116.064 250.127 112.079 257.567 109.593 265.556C106.111 278.045 104.248 290.93 104.049 303.895C104.049 311.175 110.563 331.558 111.701 342.614L117.815 336.073C120.771 339.086 125.636 331.68 126.226 335.862C134.658 334.638 141.91 344.577 150.321 343.353C151.727 343.003 156.161 331.84 154.537 343.711C155.802 344.45 159.238 335.271 157.994 336.073C163.159 334.934 162.316 344.26 168.197 342.678C176.292 346.539 188.856 330.904 197.647 328.118C234 331.326 267.999 334.468 304 331.326C355.289 326.81 403.901 334.596 455 328.118L452.049 235.087C448.022 220.676 439.759 206.243 432.212 193.498C428.996 187.519 424.708 182.184 419.563 177.758C418.531 176.935 417.455 175.331 418.425 174.508C419.834 174.348 421.26 174.491 422.609 174.928C423.958 175.365 425.198 176.085 426.246 177.04C430.251 173.115 426.436 165.414 422.662 161.257C411.862 149.406 397.361 141.58 381.534 139.06C364.269 136.464 344.832 139.925 330.751 129.586C325.712 125.893 321.939 120.766 317.259 116.609C300.964 102.071 269.195 104.434 252.647 118.74Z" fill="#FE330A"/>
<path d="M240.272 43.032C233.948 54.7427 236.33 69.6817 229.732 81.2447C226.148 87.5748 220.266 92.2802 214.532 96.7956L205.805 103.653C202.411 106.312 200.619 109.667 197.858 112.98C195.581 115.701 191.934 116.672 188.688 118.128C185.441 119.584 182.152 122.222 182.216 125.766C182.321 130.24 187.444 132.603 191.723 133.911L212.804 140.347C218.454 142.202 224.241 143.613 230.111 144.567C238.073 145.654 246.173 145.09 253.908 142.913C261.643 140.735 268.848 136.989 275.076 131.907C276.465 130.463 278.081 129.258 279.861 128.341C290.148 124.256 300.716 120.92 311.483 118.36C317.048 117.01 320.885 113.57 324.827 109.414C334.144 99.5809 335.999 84.8951 335.578 71.433C335.367 65.103 336.126 59.5958 336.084 53.3712C335.923 52.2856 336.008 51.1777 336.333 50.1295C336.658 49.0813 337.214 48.1195 337.96 47.3154C339.857 45.8173 342.598 46.5136 344.916 47.1888C352.885 49.5098 361.444 50.7758 369.475 48.6236C377.507 46.4714 384.864 40.3945 386.614 32.2709C387.12 29.9287 387.795 27.7343 388.09 25.35C389.038 17.9015 388.638 13.1329 383.452 8.46971C381.094 6.16228 377.957 4.82237 374.661 4.71385C356.3 3.70104 351.81 19.4841 345.928 24.1261C340.047 28.7682 332.163 31.7856 325.08 29.4223C322.971 29.7177 321.833 28.7049 319.788 27.9242C304.8 22.1005 289.938 18.1548 274.128 20.3492C268.81 20.9954 263.593 22.2922 258.591 24.2105C246.849 28.0086 239.618 32.9461 230.448 21.3198C226.085 15.7493 222.016 9.73573 216.409 5.51566C210.801 1.2956 202.769 -1.32084 196.867 3.53223C194.53 5.57948 192.674 8.11827 191.431 10.9671C190.188 13.8159 189.59 16.9043 189.678 20.0116C189.878 24.5747 191.164 29.0239 193.431 32.9883C195.989 37.0906 199.794 40.2633 204.287 42.0403C215.309 47.078 227.732 48.1441 239.45 45.0577" fill="#999999"/>
<path d="M216.871 149.568C218.241 152.184 221.72 152.648 224.671 152.754C230.457 153.289 236.293 152.811 241.915 151.34C247.51 149.347 252.563 146.074 256.671 141.782C249.567 141.929 242.442 142.056 235.338 141.782C231.817 141.655 228.297 141.423 224.797 141.043C222.689 140.811 219.527 139.925 217.756 141.571C216.887 142.692 216.344 144.033 216.187 145.444C216.031 146.855 216.268 148.282 216.871 149.568Z" fill="#999999"/>
<path d="M145.809 190.587C159.091 189.985 172.064 186.377 183.754 180.036C186.157 178.728 188.961 177.272 191.49 178.285C193.029 178.918 194.231 180.395 195.896 180.501C197.562 180.606 199.058 179.129 200.112 177.758C202.663 174.677 206.036 166.743 208.039 163.283C211.559 157.121 218.305 144.862 221.404 143.237C222.521 143.385 224.229 144.124 223.891 145.221C225.789 147.183 219.443 158.451 216.302 160.772C214.637 161.996 211.475 161.785 209.704 165.646C208.503 168.241 209.999 171.28 208.039 173.369C206.964 174.487 204.919 175.753 204.687 177.272C204.549 178.033 204.633 178.818 204.928 179.532C205.223 180.247 205.718 180.861 206.352 181.302C208.46 182.484 210.927 181.049 212.424 179.192C215.227 175.88 216.302 171.491 218.094 167.524C221.56 159.331 224.331 150.861 226.379 142.204C227.138 141.697 230.321 151.087 229.794 150.327C228.529 148.512 228.571 149.821 228.614 150.749C228.905 152.622 228.686 154.539 227.981 156.299C226.997 158.128 225.839 159.86 224.524 161.468C222.627 163.684 220.603 168.811 226.168 169.339C226.45 169.58 226.628 169.922 226.663 170.292C226.698 170.662 226.589 171.031 226.358 171.322C225.865 171.887 225.281 172.365 224.629 172.736C223.342 173.768 222.467 175.228 222.163 176.85C221.826 178.222 222.31 180.142 223.723 180.247C224.419 180.226 225.078 179.931 225.557 179.424C229.267 176.133 230.3 171.913 231.101 164.654C231.481 161.067 231.628 153.745 230.005 150.517C229.162 148.85 226.59 144.736 226.59 142.393C227.812 142.33 229.036 142.33 230.258 142.393C230.089 144.292 232.998 147.943 233.568 149.441C237.636 159.991 236.034 165.583 233.863 171.723C231.375 178.559 229.267 184.13 228.824 191.473C228.234 200.947 230.764 206.074 230.932 215.569C230.932 217.532 230.216 220.106 228.234 220.148C226.253 220.19 225.367 217.405 225.283 215.295C225.198 213.185 225.051 210.864 225.051 208.648C225.051 205.926 223.765 202.318 221.067 202.656C219.57 202.867 218.642 204.323 217.926 205.652L206.542 226.246C206.328 226.784 206.01 227.274 205.604 227.687C205.199 228.1 204.715 228.428 204.181 228.652C202.684 229.01 201.356 227.744 200.26 226.647C196.84 223.271 192.64 220.793 188.033 219.431C181.54 217.511 174.563 217.911 168.007 216.245C155.969 213.037 147.959 202.783 145.809 190.587Z" fill="#E7A617"/>
<path d="M200.915 216.329C196.994 214.915 192.693 215.316 188.541 215.168C176.11 214.697 164.337 209.462 155.655 200.546C152.977 197.761 150.637 194.659 147.77 192.106C144.903 189.553 140.73 187.084 136.724 188.118C132.255 189.299 129.746 194.448 130.231 199.111C131.043 203.71 133.251 207.947 136.556 211.244C143.867 219.238 152.659 225.737 162.443 230.382C165.506 231.991 168.736 233.257 172.076 234.159C176.438 235.049 180.886 235.445 185.336 235.34C189.552 235.34 197.078 235.34 200.999 234.032C209.516 231.099 212.088 220.232 200.915 216.329Z" fill="#FF8000"/>
<path d="M168.133 191.262C166.474 192.106 165.107 193.432 164.212 195.065C163.317 196.699 162.935 198.565 163.116 200.419C163.218 201.064 163.479 201.673 163.875 202.192C164.323 202.665 164.87 203.033 165.477 203.268C167.983 204.298 170.689 204.75 173.393 204.589C176.098 204.428 178.731 203.659 181.098 202.34C182.775 201.535 184.224 200.324 185.314 198.816C185.847 198.058 186.186 197.181 186.304 196.262C186.422 195.343 186.313 194.409 185.989 193.541C183.185 187.401 172.666 188.793 168.133 191.262Z" fill="#FF8000"/>
<path d="M194.632 201.664C195.805 200.493 197.277 199.668 198.886 199.277C200.496 198.886 202.182 198.946 203.76 199.449C206.922 200.461 206.395 203.289 206.374 205.399C206.413 206.456 206.187 207.507 205.715 208.454C205.244 209.402 204.543 210.216 203.676 210.822C202.829 211.276 201.908 211.576 200.957 211.708C198.237 212.214 192.524 213.712 190.922 210.611C189.636 207.889 192.862 203.225 194.632 201.664Z" fill="#FF8000"/>
<path d="M206.734 159.358C207.366 158.746 210.296 156.509 211.308 157.902C212.32 159.295 211.034 162.122 210.001 163.114C207.198 165.709 203.93 167.039 201.569 169.95C199.208 172.862 197.016 176.597 197.648 180.353C199.187 181.598 202.033 180.015 203.234 181.598C203.506 182.038 203.607 182.563 203.518 183.072C203.428 183.582 203.155 184.041 202.75 184.362C201.925 184.995 200.939 185.383 199.904 185.48C199.291 185.66 198.64 185.66 198.028 185.48C197.1 185.1 196.657 184.045 195.919 183.37C193.811 180.712 189.595 181.577 186.243 182.653L172.689 187.189C169.316 187.949 167.713 187.189 169.864 186.345C169.864 186.451 188.267 176.175 189.49 175.204C195.666 170.119 201.084 164.57 206.734 159.358Z" fill="#FF8000"/>
<path d="M298.518 271.738C301.539 296.004 305.214 320.171 309.543 344.239C309.553 344.858 309.721 345.464 310.031 345.999C310.341 346.535 310.782 346.982 311.314 347.299C312.553 347.752 313.878 347.925 315.192 347.805L345.464 347.278C351.514 335.672 353.201 321.219 353.897 308.179L356.005 273.173C337.306 273.3 317.364 271.654 298.518 271.738Z" fill="#FF8000"/>
<path d="M209.052 181.471C211.16 180.754 212.783 179.91 214.259 175.415C214.87 173.516 217.105 164.675 218.749 167.524C218.749 170.014 217.21 175.605 217.126 178.074C217.021 178.879 217.021 179.695 217.126 180.5C217.431 181.447 217.849 182.354 218.37 183.201C219.018 184.335 219.38 185.61 219.424 186.915C219.438 187.569 219.279 188.216 218.965 188.79C218.65 189.364 218.191 189.845 217.632 190.185C217.042 190.502 216.367 190.607 215.756 190.882C214.28 191.515 213.352 192.992 211.982 193.836C210.612 194.68 208.251 194.384 208.124 192.781C207.998 191.177 210.001 190.502 211.034 189.32C212.067 188.139 212.804 186.345 212.193 185.375C211.582 184.404 210.085 185.375 208.398 185.564C204.709 186.767 204.625 182.167 208.947 181.344" fill="#FF8000"/>
<path d="M158.035 191.008C159.722 190.207 162.947 189.595 163.348 191.008C164.149 192.464 160.144 195.039 158.605 195.629C157.066 196.22 154.81 197.528 153.714 195.629C153.482 195.271 153.359 194.853 153.359 194.427C153.359 194 153.482 193.582 153.714 193.224C154.03 192.464 156.012 191.599 157.93 191.114" fill="#FF8000"/>
<path d="M166.762 231.901C158.569 232.037 150.432 230.523 142.836 227.449C142.161 227.232 141.557 226.839 141.086 226.309C140.689 225.597 140.527 224.777 140.622 223.967V214.957C140.622 210.737 140.622 206.053 137.839 202.804C133.961 198.183 126.877 198.584 120.975 199.322C118.721 201.624 117.246 204.576 116.759 207.762C116.186 210.836 115.939 213.963 116.021 217.089C115.813 218.194 115.948 219.336 116.408 220.362C116.867 221.388 117.63 222.248 118.593 222.828L128.964 231.099C134.108 235.193 136.069 242.451 139.905 247.79C140.523 248.603 141.086 249.455 141.592 250.343C143.489 253.824 143.7 258.108 145.808 261.399C146.186 264.428 147.392 267.293 149.293 269.679C151.194 272.065 153.715 273.88 156.58 274.925C159.296 275.822 162.071 276.527 164.886 277.035C170.53 278.348 175.738 281.103 180.001 285.032C180.942 286.049 182.055 286.891 183.289 287.521C184.507 287.974 185.816 288.126 187.105 287.965C191.422 287.534 195.529 285.886 198.947 283.212C202.366 280.537 204.955 276.946 206.415 272.857C207.173 271.032 207.473 269.049 207.289 267.081C207.105 265.114 206.443 263.221 205.361 261.568C206.973 259.468 208.069 257.017 208.559 254.415C209.05 251.812 208.922 249.131 208.186 246.587C213.808 246.633 219.323 245.042 224.059 242.008C227.158 240.004 230.088 236.965 230.088 233.273C230.088 227.723 223.764 224.347 218.304 223.777C213.287 223.278 208.224 224.002 203.548 225.887C200.761 227.247 197.879 228.403 194.926 229.348C192.145 229.852 189.318 230.057 186.494 229.96C180.001 230.044 173.381 231.774 166.762 231.901Z" fill="#999999"/>
<path d="M322.93 246.334C308.553 246.334 298.434 247.811 295.841 248.823C293.249 249.836 288.252 265.24 288.147 267.307C287.768 273.448 297.928 276.908 315.826 278.09C335.241 279.377 362.709 279.567 362.709 271.274C362.618 267.438 361.972 263.636 360.791 259.986C359.737 256.04 359.252 252.537 355.647 250.617C353.848 249.743 351.931 249.138 349.956 248.823C341.065 247.006 332.002 246.171 322.93 246.334Z" fill="#F2F2F2"/>
<path d="M287.808 187.253C289.366 188.21 290.994 189.05 292.678 189.764C298.295 192.164 303.627 195.186 308.573 198.774C322.254 209.45 320.062 227.132 320.757 245.722C320.681 248.548 320.878 251.374 321.348 254.162C322.338 256.145 326.28 255.913 327.819 254.331C328.663 253.276 325.985 228.631 324.362 215.949C323.709 210.822 322.992 205.399 320.146 201.179C317.895 198.018 315.026 195.348 311.714 193.33C305.468 189.206 298.953 185.506 292.214 182.252C291.527 181.878 290.733 181.75 289.964 181.889C289.194 182.028 288.495 182.425 287.982 183.015C287.468 183.605 287.171 184.353 287.14 185.135C287.108 185.917 287.344 186.686 287.808 187.316" fill="#E7A617"/>
<path d="M401.666 206.18C397.449 201.601 394.077 196.305 390.303 191.409C386.739 186.277 382.126 181.962 376.769 178.749C374.076 177.16 371.049 176.225 367.929 176.02C364.81 175.815 361.686 176.345 358.809 177.567C351.873 180.944 344.326 178.411 336.758 179.952C333.857 180.36 331.08 181.397 328.621 182.99C327.751 183.748 326.836 184.453 325.881 185.1C324.686 185.768 323.4 186.258 322.065 186.556C316.279 188.263 310.749 190.739 305.622 193.92C303.049 195.19 301.047 197.382 300.015 200.06C299.704 201.491 299.814 202.982 300.33 204.352C300.846 205.722 301.747 206.913 302.924 207.783C305.268 209.482 308.104 210.364 310.998 210.294C310.964 211.833 311.256 213.361 311.854 214.779C312.452 216.197 313.342 217.472 314.467 218.522C315.591 219.572 316.924 220.372 318.379 220.87C319.834 221.369 321.377 221.554 322.908 221.414C323.084 222.975 323.601 224.478 324.423 225.816C325.245 227.155 326.351 228.295 327.663 229.157C328.975 230.019 330.461 230.582 332.015 230.804C333.568 231.027 335.152 230.904 336.653 230.445C337.152 231.624 337.879 232.694 338.791 233.592C339.703 234.49 340.783 235.199 341.97 235.68C343.156 236.16 344.426 236.401 345.705 236.39C346.985 236.379 348.25 236.115 349.428 235.614L350.144 235.277C351.686 234.288 352.999 232.983 353.999 231.448C354.998 229.913 355.66 228.183 355.942 226.373C356.479 222.742 356.479 219.052 355.942 215.421C362.693 215.503 369.441 215.108 376.137 214.24C380.226 221.866 385.247 228.954 391.083 235.34C391.445 235.819 391.924 236.197 392.474 236.437C394.182 237.049 395.658 235.108 396.395 233.441C400.064 224.831 401.86 215.538 401.666 206.18Z" fill="#999999"/>
<path d="M119.479 183.666C119.36 183.593 119.228 183.544 119.091 183.523C118.953 183.502 118.812 183.508 118.677 183.541C118.542 183.575 118.415 183.634 118.303 183.717C118.191 183.8 118.096 183.905 118.025 184.024C117.761 184.538 117.651 185.117 117.708 185.691V194.49C117.634 196.689 117.804 198.89 118.214 201.052C118.631 203.223 119.741 205.2 121.377 206.686C122.061 206.869 122.79 206.778 123.408 206.431C124.026 206.084 124.485 205.509 124.686 204.829V203.563C125.087 197.972 123.253 192.507 121.44 187.189C121.093 185.868 120.419 184.656 119.479 183.666Z" fill="black"/>
<path d="M222.649 232.028C222.111 232.719 221.869 233.596 221.976 234.466C222.083 235.336 222.529 236.129 223.219 236.67C223.679 236.895 224.182 237.017 224.694 237.028C225.811 237.015 226.916 236.808 227.962 236.416C232.188 235.093 236.259 233.317 240.104 231.12C241.559 230.297 243.119 229.137 243.161 227.491C243.179 227.123 243.058 226.762 242.824 226.478C242.531 226.251 242.18 226.111 241.812 226.077C236.457 225.254 226.022 227.174 222.649 232.028Z" fill="black"/>
<path d="M190.542 254.626C191.989 253.429 193.703 252.597 195.538 252.2C196.235 252.023 196.97 252.06 197.646 252.305C198.096 252.566 198.476 252.933 198.751 253.374C199.027 253.816 199.19 254.318 199.227 254.837C199.585 257.221 198.363 259.057 196.423 261.167C196.012 261.529 195.631 261.924 195.285 262.349C196.114 263.602 196.568 265.066 196.592 266.569C195.411 267.57 194.081 268.382 192.65 268.974C192.419 268.199 192.108 267.449 191.722 266.738C191.512 266.379 191.111 265.514 190.689 265.514C190.539 265.513 190.393 265.557 190.268 265.64C188.957 266.41 187.534 266.972 186.052 267.307C185.352 267.524 184.601 267.513 183.908 267.275C183.215 267.038 182.616 266.586 182.196 265.985C181.776 265.384 181.558 264.665 181.573 263.932C181.587 263.199 181.834 262.489 182.278 261.906C183.029 260.782 183.946 259.779 184.998 258.931C185.268 258.717 185.461 258.421 185.546 258.086C185.57 257.705 185.45 257.328 185.208 257.031C184.21 255.169 182.848 253.526 181.203 252.2C183.265 251.596 185.247 250.745 187.106 249.667C188.435 251.185 189.588 252.848 190.542 254.626Z" fill="#FE330A"/>
<path d="M306.992 197.697C306.278 197.224 305.446 196.961 304.589 196.938C300.81 197.043 297.184 198.452 294.323 200.926C291.647 202.862 289.105 204.977 286.713 207.256C286.339 207.54 286.083 207.954 285.996 208.416C286.018 208.718 286.143 209.002 286.351 209.221C286.558 209.44 286.835 209.581 287.134 209.619C287.733 209.657 288.332 209.556 288.884 209.324C294.068 207.571 299.15 205.528 304.104 203.205C305.43 202.772 306.554 201.872 307.267 200.672C307.73 199.449 308.468 198.816 306.992 197.697Z" fill="black"/>
<path d="M317.68 217.532C317.384 219.573 317.215 221.631 317.174 223.693C317.047 227.069 315.298 234.433 317.448 237.324C317.678 237.65 318.022 237.879 318.412 237.964C318.802 238.05 319.21 237.987 319.556 237.788C319.828 237.512 320.024 237.171 320.125 236.796C322.819 229.925 324.488 222.695 325.079 215.337C325.205 213.227 324.278 209.218 321.263 209.893C318.776 210.505 318.038 215.443 317.68 217.532Z" fill="black"/>
<path d="M328.347 232.513C327.524 236.733 325.353 243.97 327.124 248.064C327.233 248.347 327.448 248.577 327.724 248.703C328 248.829 328.314 248.842 328.599 248.739C328.894 248.531 329.115 248.236 329.232 247.895C332.563 240.573 335.957 232.935 335.809 224.896C335.809 220.865 332.015 219.979 329.843 223.25C328.115 225.951 329.021 229.496 328.347 232.513Z" fill="black"/>
<path d="M344.179 228.124C343.943 228.033 343.684 228.027 343.445 228.108C343.206 228.189 343.003 228.351 342.872 228.567C341.684 230.108 341.046 232.002 341.059 233.948C340.865 236.193 340.83 238.449 340.953 240.7C341.08 243.527 340.7 246.545 340.764 249.393C340.723 249.888 340.841 250.383 341.101 250.807C341.252 250.958 341.431 251.078 341.628 251.16C341.825 251.242 342.036 251.284 342.25 251.284C342.463 251.284 342.675 251.242 342.872 251.16C343.069 251.078 343.248 250.958 343.399 250.807C343.98 250.172 344.381 249.392 344.558 248.549C345.212 246.439 345.886 244.139 346.371 241.881C346.943 239.216 347.275 236.504 347.362 233.779C347.584 232.771 347.584 231.727 347.362 230.719C347.138 230.025 346.719 229.411 346.154 228.95C345.589 228.49 344.903 228.203 344.179 228.124Z" fill="black"/>
<path d="M359.189 202.635C358.219 202.618 357.253 202.746 356.322 203.015C355.85 203.177 355.413 203.427 355.036 203.753C354.787 204.087 354.66 204.497 354.677 204.914C354.628 205.364 354.686 205.819 354.846 206.243C355.415 207.446 357.165 207.593 358.472 207.382C359.815 207.213 361.088 206.689 362.161 205.863C362.881 208.909 363.13 212.047 362.899 215.168C364.308 215.239 365.72 215.168 367.115 214.957C367.959 211.578 367.745 208.02 366.504 204.766C367.373 204.71 368.228 204.51 369.033 204.175C369.436 204.01 369.795 203.755 370.084 203.43C370.372 203.104 370.583 202.717 370.699 202.297C370.763 201.633 370.584 200.968 370.197 200.425C369.81 199.882 369.239 199.498 368.591 199.343C367.246 199.115 365.864 199.393 364.712 200.124C364.438 200.272 364.079 200.44 363.805 200.272C363.666 200.16 363.557 200.015 363.489 199.85C363.08 199.168 362.507 198.601 361.822 198.199C361.137 197.797 360.362 197.574 359.568 197.55C358.694 197.47 357.814 197.582 356.987 197.877C356.161 198.172 355.409 198.644 354.783 199.259C355.516 199.578 356.221 199.96 356.891 200.398C358.598 201.664 359.357 202.635 359.189 202.635Z" fill="#F2F2F2"/>
<path d="M330.033 35.8368C334.559 39.0176 339.898 40.8402 345.422 41.0907C346.727 41.2066 348.043 41.0778 349.301 40.7109C350.894 40.0259 352.329 39.0204 353.517 37.7569C355.382 36.1023 357.083 34.2723 358.598 32.2919C360.41 29.7599 361.591 26.8058 363.551 24.4004C365.242 22.3936 367.411 20.8463 369.858 19.902C372.305 18.9578 374.95 18.6471 377.549 18.9987C379.368 19.3717 381.012 20.3348 382.228 21.7387C383.444 23.1427 384.163 24.909 384.274 26.7636C384.927 31.4057 385.201 36.6386 382.566 40.6054C380.318 44.066 377.078 46.7653 373.27 48.3493C370.979 49.2777 368.587 49.9362 366.144 50.3116C360.903 51.1249 355.555 50.9531 350.376 49.8052C345.965 48.6451 341.781 46.7475 338.002 44.1925C334.762 42.0808 332.045 39.2596 330.054 35.9423" fill="#F9838D"/>
<path d="M232.704 39.8459C231.524 39.3206 230.473 38.5427 229.626 37.567C227.736 34.8051 226.078 31.8902 224.672 28.8526C223.437 25.7226 221.383 22.9825 218.727 20.9189C215.707 19.1858 212.219 18.4476 208.756 18.8088C207.117 18.8098 205.497 19.156 204.001 19.8249C202.504 20.4938 201.165 21.4704 200.071 22.6913C198.947 23.995 198.105 25.517 197.597 27.1619C197.09 28.8067 196.927 30.5389 197.12 32.2497C197.358 34.4754 198.098 36.6178 199.285 38.5149C200.472 40.4121 202.074 42.0144 203.971 43.2008C207.96 45.4933 212.382 46.9304 216.957 47.4209C221.18 47.8829 225.451 47.6621 229.605 46.7668C230.458 44.3832 231.494 42.0693 232.704 39.8459Z" fill="#F9838D"/>
<path d="M155.02 291.784C150.451 288.852 146.807 284.682 144.512 279.759C142.217 274.836 141.365 269.362 142.055 263.973C138.113 262.897 134.635 266.653 132.464 270.114C125.609 281.1 121.141 293.409 119.352 306.237L127.594 299.127C125.332 309.387 124.713 319.942 125.76 330.397L133.286 319.151C132.877 322.71 133.201 326.316 134.238 329.746C135.275 333.175 137.003 336.355 139.315 339.091C139.02 329.975 138.718 320.874 138.409 311.787C134.616 313.067 131.257 315.384 128.711 318.476C128.366 309.856 129.246 301.231 131.325 292.86L123.736 296.405C125.527 287.874 129.634 280.004 135.605 273.658C137.637 280.2 141.012 286.244 145.513 291.404C148.396 294.318 151.827 296.633 155.608 298.215C159.388 299.798 163.444 300.617 167.542 300.625C173.613 300.625 186.135 298.705 187.927 291.636C187.927 288.998 178.04 295.096 173.487 295.687C167.067 296.525 160.553 295.148 155.02 291.784Z" fill="#F86775"/>
<path d="M210.886 275.304C216.641 284.399 222.565 294.147 222.438 304.845C222.462 305.207 222.396 305.569 222.249 305.9C221.616 306.955 219.972 306.322 219.066 305.499C218.44 304.982 217.714 304.603 216.933 304.385C216.153 304.167 215.335 304.115 214.533 304.233C214.006 308.875 214.533 313.559 214.343 318.222C213.606 332.191 206.417 340.462 208.019 340.335C209.685 340.884 211.329 339.428 212.235 337.993C217.316 330.883 218.075 321.683 219.066 313.011C219.071 312.509 219.234 312.022 219.529 311.618C220.604 310.457 222.502 312.167 224.041 311.829C225.579 311.491 225.832 309.888 225.98 308.537C226.786 302.207 225.921 295.776 223.471 289.885C222.053 286.869 220.389 283.976 218.496 281.233C216.178 277.668 210.76 273.215 209.094 273.215C209.516 273.975 210.465 274.587 210.886 275.304Z" fill="#F86775"/>
<path d="M262.618 325.586C265.78 326.367 259.034 319.024 257.559 315.922C255.746 312.04 254.102 308.052 252.668 304.001C251.993 303.536 251.298 304.824 250.56 304.781C249.822 304.739 249.59 303.832 249.527 303.114C248.851 297.515 248.605 291.872 248.789 286.234C249.148 281.824 250.054 277.33 250.56 272.857C251.087 268.067 253.111 263.741 250.961 259.458C249.232 255.976 245.332 254.879 242.528 252.221C251.574 243.842 259.598 234.422 266.434 224.157C270.418 217.954 274.17 211.497 278.028 205.357C279.609 202.782 281.232 199.681 278.787 197.887C276.012 195.827 273.536 193.392 271.43 190.65L279.251 190.164C279.667 190.178 280.078 190.068 280.431 189.848C281.275 189.215 280.769 187.865 280.157 187.021C277.223 183.009 273.305 179.824 268.781 177.772C264.257 175.721 259.281 174.873 254.333 175.31C256.48 170.763 257.664 165.82 257.812 160.793C252.617 166.521 245.824 170.557 238.312 172.377C237.026 172.504 236.204 172.82 236.794 173.263C241.367 173.803 245.982 172.704 249.822 170.161L249.506 179.087C255.953 178.198 262.519 178.878 268.647 181.07C271.683 182.146 274.971 184.024 275.583 187.168C274.113 187.359 272.625 187.359 271.156 187.168C269.68 187.168 267.952 188.265 268.141 189.742C268.3 190.418 268.66 191.028 269.174 191.494C270.713 193.224 272.252 194.975 273.812 196.706C274.402 197.402 274.655 197.655 275.224 198.373C275.573 198.894 275.801 199.486 275.892 200.106C275.984 200.727 275.935 201.36 275.751 201.96C275.355 203.155 274.771 204.28 274.023 205.293L265.106 218.84C265.106 218.587 264.558 220.338 264.41 220.57C261.421 225.07 258.132 229.363 254.565 233.42C250.708 237.872 246.407 242.177 242.507 246.566C241.306 247.916 239.703 249.414 238.46 250.786C237.511 251.756 236.52 253.276 237.385 254.331C237.776 254.703 238.254 254.972 238.776 255.111C241.911 256.222 244.732 258.076 246.997 260.513C248.199 261.8 246.997 269.227 246.871 271.063C246.66 274.439 245.943 277.731 245.543 281.086C244.657 288.872 244.763 296.911 244.426 304.718C244.426 305.984 244.847 312.736 248.642 309.571C249.19 309.086 249.843 308.39 250.497 308.706C250.809 308.919 251.028 309.244 251.108 309.613C253.249 316.034 257.302 321.645 262.724 325.692" fill="#F86775"/>
<path d="M393.487 233.884C394.176 232.702 394.68 231.421 394.983 230.086C397.374 221.584 399.212 212.936 400.486 204.196C400.486 203.521 400.907 202.656 401.582 202.719C403.458 213.923 400.169 225.318 396.185 235.952C395.563 238.4 394.062 240.534 391.969 241.945C390.93 242.439 389.788 242.677 388.638 242.641C384.296 242.641 379.742 239.434 379.637 235.108C379.7 232.829 389.882 239.919 393.487 233.884Z" fill="#F86775"/>
<path d="M403.605 200.778C412.606 206.309 419.902 214.225 424.685 223.651C425.544 225.133 426.049 226.794 426.161 228.504L417.982 227.85C415.073 227.238 420.532 232.597 422.092 234.707C426.863 241.004 430.842 247.864 433.94 255.133C438.029 264.353 439.821 275.473 441.234 285.39L437.25 284.314C437.966 287.69 443.763 291.341 444.122 290.032C446.862 269.903 438.367 250.786 426.92 234.032C428.248 234.412 429.745 234.475 431.136 234.855C430.23 226.014 426.098 218.945 420.87 211.792C418.381 208.477 415.555 205.43 412.438 202.698C409.623 200.184 406.042 198.697 402.277 198.478C399.642 198.415 402.74 200.23 403.605 200.778Z" fill="#F86775"/>
<path d="M214.679 128.193C214.703 128.664 214.781 129.132 214.91 129.586C215.001 129.823 215.176 130.019 215.401 130.136C215.627 130.252 215.887 130.282 216.133 130.219C216.345 130.106 216.515 129.929 216.618 129.712C217.219 128.797 217.541 127.727 217.546 126.632C217.536 126.089 217.429 125.553 217.229 125.049C217.08 124.733 216.827 124.477 216.513 124.323C216.199 124.17 215.842 124.128 215.501 124.205C212.549 124.416 214.51 127.243 214.679 128.193Z" fill="#2B2729"/>
<path d="M219.738 120.998C219.84 121.267 220.006 121.506 220.223 121.694C220.337 121.785 220.473 121.844 220.617 121.866C220.761 121.888 220.909 121.873 221.045 121.821C221.17 121.735 221.272 121.619 221.34 121.483C221.829 120.681 221.984 119.718 221.771 118.803C221.558 117.887 220.995 117.092 220.202 116.588C218.663 115.849 216.703 117.094 218.094 118.466C218.497 118.778 218.852 119.148 219.148 119.563C219.388 120.022 219.586 120.502 219.738 120.998Z" fill="#2B2729"/>
<path d="M224.27 130.641C224.333 131.223 224.333 131.81 224.27 132.392C224.196 132.697 224.196 133.015 224.27 133.32C224.335 133.482 224.441 133.623 224.578 133.731C224.715 133.838 224.878 133.908 225.05 133.932C225.236 133.936 225.42 133.901 225.591 133.828C225.762 133.755 225.915 133.647 226.041 133.51C226.577 133.055 226.968 132.453 227.167 131.778C227.365 131.103 227.362 130.385 227.158 129.712C227.055 129.386 226.898 129.079 226.695 128.805C226.275 128.319 225.703 127.991 225.071 127.876C224.376 127.75 223.49 127.876 223.49 128.657C223.49 129.438 224.123 130.008 224.27 130.641Z" fill="#2B2729"/>
<path d="M275.455 109.308C276.661 105.342 279.007 101.819 282.201 99.18C283.489 98.2997 284.938 97.6825 286.464 97.3638C287.991 97.0452 289.565 97.0314 291.097 97.3231C291.709 97.4286 292.468 97.9772 292.13 98.5047C291.988 98.6835 291.786 98.8037 291.561 98.8423C288.448 99.8371 285.615 101.558 283.297 103.864C281.189 105.974 277.816 110.194 274.317 121.019C274.152 121.673 273.783 122.257 273.263 122.686C270.459 124.669 272.42 118.466 272.652 117.601C273.44 114.789 274.375 112.021 275.455 109.308Z" fill="#2B2729"/>
<path d="M248.556 139.038C246.35 142.088 243.462 144.581 240.124 146.318C239.742 146.634 239.302 146.872 238.828 147.016C238.354 147.161 237.856 147.211 237.363 147.162C237.025 146.613 237.616 145.98 237.7 145.347C237.704 145.049 237.621 144.755 237.46 144.504C237.298 144.252 237.067 144.054 236.793 143.934C236.241 143.698 235.644 143.582 235.044 143.596C234.137 143.596 230.511 143.786 230.448 142.646C230.385 141.507 233.8 141.38 234.664 141.275C237.405 140.98 240.356 140.473 242.633 140.03C246.87 139.249 248.852 138.258 248.556 139.038Z" fill="#2B2729"/>
<path d="M349.237 296.721C348.655 296.872 348.131 297.193 347.732 297.645C347.334 298.096 347.08 298.656 347.002 299.253C346.969 299.46 346.978 299.671 347.028 299.874C347.079 300.077 347.171 300.268 347.298 300.435C347.499 300.605 347.737 300.725 347.994 300.783C348.251 300.842 348.518 300.838 348.773 300.772C349.195 300.717 349.601 300.575 349.964 300.353C350.327 300.131 350.64 299.835 350.881 299.485C351.108 299.111 351.2 298.671 351.142 298.237C351.085 297.804 350.881 297.403 350.565 297.101C350.149 296.838 349.665 296.706 349.174 296.721" fill="#FF8000"/>
<path d="M369.601 292.67H368.399C368.015 292.648 367.63 292.691 367.261 292.796C367.078 292.854 366.915 292.958 366.785 293.099C366.656 293.24 366.565 293.412 366.523 293.598C366.497 293.788 366.525 293.982 366.604 294.157C366.682 294.332 366.807 294.482 366.965 294.59C367.296 294.807 367.67 294.951 368.062 295.012C368.494 295.142 368.947 295.185 369.396 295.138C369.845 295.091 370.28 294.955 370.676 294.737C370.907 294.605 371.086 294.396 371.182 294.147C371.249 293.979 371.265 293.795 371.227 293.619C371.19 293.442 371.101 293.28 370.971 293.155C370.568 292.856 370.081 292.694 369.579 292.691" fill="#FF8000"/>
<path d="M362.411 300.329C361.463 300.604 360.409 301.004 360.071 301.933C360.019 302.053 359.992 302.182 359.992 302.313C359.992 302.443 360.019 302.573 360.071 302.693C360.209 302.891 360.403 303.044 360.629 303.131C360.855 303.217 361.101 303.234 361.336 303.178C362.336 303.106 363.278 302.679 363.992 301.975C364.127 301.854 364.241 301.711 364.33 301.553C364.406 301.332 364.403 301.092 364.323 300.873C364.242 300.654 364.088 300.469 363.887 300.35C363.653 300.241 363.397 300.184 363.139 300.184C362.88 300.184 362.625 300.241 362.39 300.35" fill="#FF8000"/>
<path d="M377.928 304.36C377.286 304.243 376.626 304.294 376.01 304.507C375.504 304.739 375.103 305.035 375.082 305.605C375.099 305.898 375.197 306.182 375.364 306.423C375.531 306.665 375.762 306.857 376.031 306.976C376.574 307.195 377.153 307.309 377.738 307.314C378.109 307.396 378.495 307.387 378.862 307.287C379.229 307.188 379.567 307.002 379.846 306.744C380.007 306.471 380.071 306.152 380.029 305.839C379.987 305.525 379.841 305.235 379.614 305.014C379.39 304.793 379.123 304.62 378.829 304.508C378.535 304.395 378.221 304.345 377.907 304.36" fill="#FF8000"/>
<path d="M354.678 305.668C353.943 305.577 353.199 305.741 352.569 306.132C352.442 306.22 352.333 306.333 352.25 306.464C352.166 306.595 352.108 306.741 352.081 306.893C352.054 307.046 352.057 307.203 352.09 307.355C352.123 307.507 352.186 307.65 352.274 307.778L352.422 307.946C352.662 308.073 352.93 308.139 353.202 308.136C354.002 308.189 354.805 308.189 355.605 308.136C356.364 308.136 357.271 307.904 357.439 307.166C357.477 306.875 357.411 306.58 357.253 306.333C357.095 306.086 356.855 305.902 356.575 305.815C355.938 305.633 355.273 305.575 354.614 305.647" fill="#FF8000"/>
<path d="M358.703 291.551C358.153 291.384 357.566 291.384 357.016 291.551C356.561 291.68 356.174 291.983 355.941 292.396C355.709 292.818 355.688 293.303 356.11 293.493C356.508 293.681 356.936 293.796 357.375 293.83C358.077 293.982 358.808 293.931 359.483 293.683C359.637 293.612 359.775 293.512 359.89 293.388C360.005 293.264 360.095 293.118 360.153 292.959C360.212 292.801 360.239 292.632 360.232 292.463C360.226 292.293 360.186 292.127 360.115 291.973C359.71 291.714 359.246 291.562 358.766 291.53" fill="#FF8000"/>
<path d="M340.215 302.503C339.766 302.325 339.286 302.239 338.803 302.249C338.559 302.267 338.327 302.359 338.138 302.514C337.95 302.669 337.813 302.879 337.749 303.114C337.737 303.505 337.881 303.885 338.149 304.169C338.542 304.653 339.041 305.038 339.609 305.294C340.176 305.551 340.795 305.671 341.417 305.647C341.643 305.653 341.868 305.602 342.07 305.499C342.239 305.433 342.389 305.325 342.507 305.187C342.624 305.048 342.705 304.882 342.743 304.704C342.781 304.527 342.773 304.342 342.722 304.168C342.671 303.993 342.577 303.834 342.45 303.705C341.845 303.172 341.122 302.788 340.342 302.587" fill="#FF8000"/>
<path d="M384.717 297.713C384.12 297.58 383.495 297.655 382.946 297.924C382.817 298 382.705 298.101 382.615 298.22C382.525 298.34 382.46 298.476 382.422 298.621C382.385 298.766 382.377 298.917 382.398 299.066C382.419 299.214 382.469 299.356 382.546 299.485C382.834 299.768 383.217 299.934 383.621 299.949L384.358 300.076C384.892 300.203 385.448 300.203 385.982 300.076C386.241 300 386.466 299.836 386.62 299.613C386.773 299.391 386.846 299.122 386.825 298.852C386.656 298.135 385.56 297.839 384.717 297.713Z" fill="#FF8000"/>
<path d="M367.621 310.731C366.985 310.702 366.35 310.818 365.765 311.069C365.478 311.21 365.251 311.449 365.123 311.743C364.996 312.037 364.977 312.366 365.07 312.673C365.407 313.432 366.461 313.453 367.283 313.348H367.81C368.275 313.316 368.727 313.187 369.138 312.968C369.353 312.842 369.53 312.659 369.649 312.44C369.767 312.22 369.824 311.972 369.813 311.723C369.737 311.531 369.614 311.361 369.456 311.229C369.297 311.096 369.109 311.005 368.906 310.964C368.508 310.822 368.084 310.764 367.663 310.795" fill="#FF8000"/>
<path d="M281.717 113.866C280.769 111.861 286.06 114.436 287.746 120.069C287.837 120.793 288.021 121.503 288.294 122.179C288.453 122.5 288.72 122.754 289.048 122.897C289.376 123.04 289.744 123.062 290.086 122.96C290.371 122.806 290.61 122.58 290.782 122.306C292.384 120.344 293.965 118.36 295.546 116.398C296.179 115.617 297.148 114.731 298.055 115.174C298.551 115.519 298.897 116.039 299.024 116.63L300.142 120.027C300.197 120.245 300.323 120.438 300.5 120.576C300.859 120.744 301.217 120.386 301.47 120.09C304.231 116.461 308.089 113.001 312.643 113.191C314.434 113.802 309.691 117.643 307.204 121.631C305.887 122.982 304.346 124.096 302.65 124.922C295.642 129.499 287.639 132.328 279.314 133.173C278.463 133.21 277.611 133.125 276.784 132.919C276.194 131.991 276.025 131.337 277.649 129.923C279.254 128.132 280.525 126.066 281.401 123.825C282.215 122.301 282.666 120.61 282.721 118.882C282.776 117.155 282.433 115.439 281.717 113.866Z" fill="#FE330A"/>
<path d="M380.015 128.699C377.295 87.3426 367.577 66.3267 366.059 63.014C363.798 58.2974 360.826 53.9564 357.247 50.1428C354.001 49.5731 351.619 48.8978 348.373 48.3281C344.156 47.6107 337.664 45.3741 330.939 37.1661C329.358 35.2248 327.587 30.836 329.273 30.836C332.681 30.7885 336.033 29.9659 339.076 28.4305C332.838 23.5988 325.753 19.9776 318.185 17.7538C299.123 10.9848 278.272 11.2542 259.391 18.5134C253.163 20.9983 247.381 24.4834 242.273 28.8314C238.064 32.2798 234.539 36.4883 231.881 41.2384C224.313 55.7554 224.502 81.4978 223.301 89.7692C227.743 86.3423 230.876 81.4935 232.176 76.0329C233.431 72.3263 234.307 68.5015 234.79 64.6176C258.084 60.5452 283.549 62.5075 307.097 64.6176C308.165 59.6529 309.88 54.8501 312.198 50.3327C313.927 48.2226 311.776 61.8956 312.346 65.4194C317.827 67.1211 322.768 70.227 326.68 74.4292C332.478 82.2996 331.255 98.0405 329.189 101.438C326.094 106.457 322.048 110.823 317.278 114.288C308.003 120.217 297.357 123.15 288.166 129.501C278.812 135.666 270.773 143.627 264.514 152.922C263.272 154.801 262.4 156.899 261.942 159.105C261.942 160.603 264.324 168.051 265.799 167.904C273.157 145.284 287.281 131.295 304.208 125.323C297.484 132.624 287.681 138.448 279.249 156.13C276.657 161.899 275.224 168.122 275.033 174.445C288.398 180.944 300.056 180.353 314.791 178.243C329.526 176.133 343.629 171.216 357.479 165.836C366.333 162.396 371.899 155.286 378.138 148.027C381.638 143.87 380.268 133.763 380.015 128.699Z" fill="black"/>
<path d="M218.325 147.521C218.187 148.524 218.29 149.546 218.628 150.5C218.965 151.455 219.527 152.314 220.265 153.007C220.818 153.424 221.321 153.906 221.761 154.442C222.816 156.045 221.761 158.134 221.761 160.054C221.761 160.73 221.888 161.574 222.541 161.742C223.195 161.911 223.954 161.004 224.228 160.202C224.881 158.387 225.577 156.594 226.336 154.843C226.673 154.02 227.116 153.133 227.959 152.88C228.802 152.627 230.594 153.492 231.438 152.606C231.592 152.439 231.7 152.236 231.754 152.015C231.902 151.05 231.817 150.063 231.505 149.138C231.193 148.213 230.664 147.376 229.962 146.698C229.276 145.675 228.445 144.758 227.495 143.976C226.734 143.306 225.805 142.858 224.807 142.68C223.81 142.502 222.782 142.601 221.837 142.967C220.892 143.332 220.065 143.95 219.446 144.753C218.826 145.556 218.439 146.513 218.325 147.521Z" fill="#FF8000"/>
<path d="M215.84 147.88C215.857 148.491 216.08 149.079 216.473 149.546C217.147 150.264 218.307 150.074 219.277 149.842C219.575 147.279 219.631 144.693 219.445 142.119C217.885 141.845 216.557 141.381 214.955 140.98C215.187 143.322 215.545 145.58 215.84 147.88Z" fill="#F2F2F2"/>
<path d="M221.951 150.918C221.928 150.986 221.928 151.06 221.951 151.129C221.951 151.277 222.204 151.298 222.351 151.319C222.679 151.389 223.018 151.387 223.346 151.314C223.673 151.242 223.981 151.099 224.248 150.897C224.492 150.621 224.659 150.287 224.733 149.926C225.47 147.446 226.055 144.924 226.483 142.372H221.55C221.487 143.892 221.866 148.555 221.951 150.918Z" fill="#F2F2F2"/>
<path d="M310.512 261.399C315.007 262.582 319.631 263.199 324.278 263.235C335.43 263.235 342.26 259.986 342.85 261.399C342.814 261.785 342.681 262.156 342.464 262.477C342.246 262.798 341.951 263.059 341.606 263.235C337.086 265.624 332.085 266.959 326.976 267.139C320.775 267.559 314.548 267.375 308.383 266.59C304.849 266.01 301.391 265.033 298.075 263.678C296.896 263.331 295.823 262.692 294.955 261.821C294.612 261.353 294.37 260.819 294.243 260.252C294.116 259.686 294.107 259.1 294.217 258.53C294.233 257.964 294.416 257.416 294.742 256.955C295.068 256.493 295.524 256.138 296.051 255.934C296.993 255.709 297.986 255.844 298.834 256.314C302.525 258.44 306.442 260.146 310.512 261.399Z" fill="#999999"/>
<path d="M185.651 248.127C187.189 247.255 188.814 246.548 190.5 246.017C191.545 245.767 192.61 245.611 193.683 245.553C197.225 245.236 200.766 245.068 204.223 245.025C206.331 245.025 203.844 246.228 203.233 246.481C199.522 248.043 195.159 247.262 191.406 248.718C190.169 249.26 188.972 249.887 187.823 250.596C185.691 251.759 183.425 252.659 181.077 253.276C180.212 253.529 174.268 255.175 173.888 254.246C173.108 251.925 184.386 248.823 185.651 248.127Z" fill="#2B2729"/>
<path d="M321.094 200.883C323.877 199.892 326.934 199.828 329.759 198.942C332.141 198.204 338.57 196.262 336.083 195.102C333.237 195.102 330.749 197.001 327.988 197.592C325.993 197.821 323.987 197.934 321.98 197.929C319.755 198.194 317.641 199.052 315.861 200.415C314.081 201.777 312.699 203.593 311.861 205.673C311.545 206.475 311.292 208.458 312.746 208.247C313.526 208.247 314.349 206.137 314.855 205.462C316.458 203.374 318.622 201.785 321.094 200.883Z" fill="#2B2729"/>
<path d="M347.572 200.018C347.825 200.525 347.277 201.031 346.771 201.284C343.482 203.015 339.54 203.732 336.989 206.412C336.077 207.473 335.298 208.642 334.67 209.893C334.207 210.716 333.047 212.214 332.562 211.455C331.656 208.395 335.682 204.871 337.896 203.268C339.311 202.248 340.866 201.438 342.512 200.862C342.976 200.757 347.319 199.449 347.572 200.018Z" fill="#2B2729"/>
<path d="M373.227 192.823C373.32 193.01 373.346 193.224 373.3 193.427C373.254 193.631 373.139 193.813 372.974 193.942C372.644 194.196 372.263 194.376 371.857 194.469L364.31 196.579C363.454 196.864 362.556 197.007 361.654 197.001C361 196.136 365.87 194.532 366.355 194.385C366.84 194.237 372.616 191.979 373.227 192.823Z" fill="#2B2729"/>
<path d="M186.01 271.485C185.661 271.694 185.354 271.966 185.104 272.287C184.98 272.442 184.895 272.624 184.855 272.818C184.814 273.013 184.82 273.214 184.872 273.405C184.861 273.461 184.861 273.518 184.872 273.574H184.998C185.851 273.67 186.71 273.461 187.423 272.983C188.513 272.357 189.556 271.652 190.542 270.873C191.379 270.318 192.095 269.6 192.651 268.763C192.534 268.321 192.378 267.891 192.187 267.476C191.301 267.968 190.449 268.518 189.636 269.122C188.434 269.987 187.106 270.683 186.01 271.485Z" fill="#2B2729"/>
<path d="M183.522 121.378C182.558 122.57 182.043 124.064 182.068 125.598C182.042 126.604 182.396 127.583 183.058 128.341C183.375 128.657 183.649 127.243 184.07 127.075C185.335 126.547 185.883 128.193 186.326 129.185C186.657 130.243 187.117 131.256 187.696 132.202C187.848 132.431 188.046 132.624 188.279 132.769C188.511 132.915 188.772 133.009 189.043 133.045C189.315 133.081 189.591 133.058 189.853 132.978C190.116 132.898 190.358 132.763 190.563 132.582C191.322 131.696 190.816 130.472 191.238 129.29C191.47 128.657 191.933 127.307 192.945 127.476C195.053 127.813 193.325 131.506 194.105 131.548C196.625 131.516 199.047 130.563 200.914 128.868C202.148 128.099 203.101 126.952 203.633 125.598C203.877 124.8 203.891 123.949 203.675 123.143C203.459 122.337 203.021 121.609 202.411 121.04C201.593 120.283 200.628 119.705 199.575 119.342C198.523 118.979 197.407 118.838 196.297 118.93C194.716 118.93 191.28 119.901 189.804 119.394C188.684 118.995 187.465 118.973 186.331 119.331C185.197 119.689 184.211 120.407 183.522 121.378Z" fill="#2B2729"/>
<path d="M282.159 72.1294C276.309 71.5133 270.399 71.8122 264.641 73.0156C261.769 73.6288 259.079 74.9008 256.781 76.7315C254.484 78.5622 252.643 80.9017 251.402 83.5658C251.065 81.4557 250.917 74.0495 245.879 71.3065C244.599 70.696 243.165 70.4843 241.763 70.6987C240.361 70.9132 239.056 71.5439 238.016 72.5092C236.408 74.5147 235.491 76.9868 235.402 79.5567C235.17 81.2869 235.402 81.6667 235.086 83.3126C233.821 79.3457 233.167 76.9825 229.036 74.6825C226.234 73.2119 223.193 72.2544 220.055 71.8551C210.586 70.3728 201.012 69.6671 191.428 69.7451C192.208 77.2779 195.264 85.6336 202.305 88.3766C204.166 89.0249 206.099 89.443 208.06 89.6216C217.397 90.7426 226.815 91.0322 236.203 90.4867C236.541 90.4972 236.876 90.4171 237.173 90.2546C237.351 90.0911 237.494 89.8923 237.592 89.6708C237.69 89.4492 237.741 89.2097 237.742 88.9675C238.143 85.7391 237.742 82.4264 238.417 79.2191C239.239 74.999 243.139 73.1211 245.837 76.5183C248.535 79.9154 248.451 84.8107 248.24 90.2546C248.24 91.7949 249.547 91.6472 251.086 91.7105C260.994 92.0481 269.806 92.871 279.482 90.7188C284.131 89.6982 288.468 87.5783 292.13 84.5364C294.012 83.2561 295.566 81.5493 296.665 79.5547C297.764 77.5602 298.377 75.3342 298.454 73.0578L282.159 72.1294Z" fill="#FE330A"/>
<path d="M334.419 184.784C334.142 184.642 333.916 184.418 333.772 184.142C333.629 183.866 333.575 183.552 333.618 183.244C333.434 179.629 333.653 176.006 334.271 172.44C334.276 172.208 334.328 171.979 334.426 171.769C334.524 171.558 334.665 171.37 334.84 171.217C335.014 171.064 335.219 170.949 335.441 170.88C335.662 170.811 335.896 170.789 336.126 170.816C338.01 170.856 339.861 171.318 341.544 172.166L346.118 174.086C346.993 174.363 347.783 174.856 348.416 175.521C349.071 176.544 349.388 177.747 349.323 178.96C349.323 180.691 349.47 182.442 349.555 184.193C349.555 184.193 342.64 190.734 342.45 190.755C341.502 190.755 339.984 188.962 339.267 188.392C337.686 187.168 336 185.987 334.419 184.784Z" fill="#F86775"/>
<path d="M341.206 191.009C340.876 191.674 340.728 192.414 340.776 193.155C340.825 193.896 341.067 194.612 341.48 195.229C342.148 195.869 343.023 196.25 343.946 196.305C346.464 196.457 348.981 195.971 351.261 194.891C354.442 193.614 357.475 191.994 360.305 190.059C361.024 189.626 361.643 189.043 362.118 188.35C362.867 187.22 363.168 185.85 362.961 184.51C362.826 184.035 362.554 183.612 362.179 183.292C361.804 182.973 361.342 182.773 360.853 182.716C353.833 181.155 344.03 183.434 341.206 191.009Z" fill="#F9838D"/>
<g filter="url(#filter0_d)">
<rect x="6" y="327" width="568" height="25.8138" rx="12.9069" fill="#111111"/>
</g>
<path d="M304.5 283.5C305.28 289.727 300.605 285.449 301.473 291.663C303.939 309.311 306.758 326.906 309.933 344.448C309.943 345.057 310.109 345.655 310.416 346.182C310.724 346.71 311.162 347.151 311.688 347.463C312.918 347.909 314.231 348.08 315.534 347.962L345.55 347.442C351.549 336.005 353.221 321.762 353.911 308.912L354.956 291.663L353.911 280.999C335.37 281.124 323.186 283.417 304.5 283.5Z" fill="#FF8000"/>
<defs>
<filter id="filter0_d" x="0" y="327" width="580" height="37.8138" filterUnits="userSpaceOnUse" color-interpolation-filters="sRGB">
<feFlood flood-opacity="0" result="BackgroundImageFix"/>
<feColorMatrix in="SourceAlpha" type="matrix" values="0 0 0 0 0 0 0 0 0 0 0 0 0 0 0 0 0 0 127 0"/>
<feOffset dy="6"/>
<feGaussianBlur stdDeviation="3"/>
<feColorMatrix type="matrix" values="0 0 0 0 0 0 0 0 0 0 0 0 0 0 0 0 0 0 0.5 0"/>
<feBlend mode="normal" in2="BackgroundImageFix" result="effect1_dropShadow"/>
<feBlend mode="normal" in="SourceGraphic" in2="effect1_dropShadow" result="shape"/>
</filter>
</defs>
</svg>
