<svg width="36" height="44" viewBox="0 0 36 44" fill="none" xmlns="http://www.w3.org/2000/svg">
<path d="M32.7835 31.9609C33.9086 29.6783 33.2473 27.4801 30.9167 25.8974C30.2299 25.4174 29.4919 25.0336 28.7211 24.7558C27.7349 24.4256 26.8884 23.703 26.3571 22.7376L22.6346 15.8719C22.1438 15.0787 21.7427 14.2273 21.4404 13.3369L19.2735 6.95224C19.0597 6.3113 18.7535 5.70731 18.3666 5.16326C17.6528 4.17061 16.3191 2.92666 14.1181 3.39454C7.38866 4.83884 12.172 15.2037 11.7698 20.7564L11.295 27.2993C11.2172 28.4893 10.7604 29.5967 10.0018 30.4348C9.45762 31.0399 8.99112 31.7218 8.61391 32.4636C7.30649 34.9591 7.76092 37.2078 9.83027 38.6888C10.0165 39.3448 10.2398 39.9915 10.3795 40.6563C10.4926 41.199 10.3068 41.9113 10.9533 42.1116C11.0264 42.1332 11.1033 42.1233 11.1674 42.084C11.2315 42.0447 11.2777 41.9791 11.2961 41.9013L11.9412 39.1312C13.6337 38.9536 14.929 38.0191 15.8903 36.6121C16.1732 36.2008 17.0928 35.0055 17.1711 34.8423C17.5894 35.921 19.6253 36.5937 19.6253 36.5937C20.3412 37.0483 21.1442 37.3048 21.9601 37.3395C21.9388 37.2871 21.9159 37.2337 21.8946 37.1813C21.9159 37.2337 21.9388 37.2871 21.9601 37.3395L22.9822 40.0419C23.0115 40.1195 23.0675 40.1827 23.1379 40.2179C23.2084 40.2531 23.2877 40.2575 23.3587 40.23C23.9741 39.9824 23.6864 39.2897 23.7241 38.7432C23.7711 38.0716 23.9034 37.4111 23.9993 36.7509C24.569 36.2752 25.0098 35.6439 25.2791 34.9178C25.4456 34.4731 25.6482 34.0465 25.8847 33.6429C26.0166 33.411 26.1294 33.1664 26.2216 32.9119L26.463 32.9992C28.0605 33.5231 29.559 33.9978 31.1336 33.3557C31.0385 33.2523 30.946 33.1483 30.845 33.0479C30.9413 33.151 31.0321 33.2539 31.1336 33.3557L33.006 35.4883C33.0327 35.519 33.0647 35.544 33.0999 35.5618C33.1351 35.5796 33.173 35.5898 33.2113 35.5919C33.2496 35.594 33.2875 35.5878 33.323 35.5739C33.3585 35.56 33.3908 35.5385 33.4181 35.5107C33.8883 35.0302 33.3899 34.491 33.2337 33.9606C33.0333 33.3022 32.9286 32.6257 32.7835 31.9609Z" fill="#403D3E"/>
</svg>
