<svg width="30" height="41" viewBox="0 0 30 41" fill="none" xmlns="http://www.w3.org/2000/svg">
<path d="M26.1372 35.0187C27.9391 33.2217 28.023 30.9277 26.3284 28.6772C25.8334 28.0011 25.2588 27.3996 24.619 26.8878C23.7923 26.2568 23.2245 25.2995 23.0334 24.2144L21.7273 16.5144C21.5189 15.6052 21.4143 14.6699 21.4156 13.7295L21.4265 6.98721C21.4311 6.31158 21.3364 5.64108 21.1459 5.00124C20.7909 3.83128 19.9303 2.22329 17.6961 1.9554C10.8608 1.14929 12.041 12.5035 9.8673 17.6288L7.30511 23.668C6.84722 24.769 6.05733 25.6696 5.06873 26.2178C4.35829 26.6148 3.69657 27.1096 3.10003 27.6899C1.05684 29.6294 0.760807 31.9044 2.24106 33.9743C2.20552 34.6553 2.20796 35.3395 2.1255 36.0137C2.05733 36.5639 1.65149 37.1781 2.19862 37.5764C2.26087 37.6205 2.33684 37.6359 2.41021 37.6194C2.48358 37.6029 2.54851 37.5557 2.59105 37.4881L4.09603 35.0746C5.75521 35.4531 7.28287 34.9869 8.647 33.9657C9.04762 33.6678 10.3039 32.8335 10.4307 32.7044C10.4783 33.8603 12.1879 35.1544 12.1879 35.1544C12.7186 35.8158 13.3958 36.3179 14.1567 36.6141C14.1535 36.5577 14.1491 36.4997 14.1459 36.4433C14.1491 36.4997 14.1535 36.5577 14.1567 36.6141L14.2515 39.5019C14.2542 39.5847 14.2867 39.6626 14.342 39.7187C14.3974 39.7748 14.471 39.8045 14.5471 39.8015C15.2094 39.7658 15.1609 39.0174 15.373 38.5123C15.6343 37.8918 15.9729 37.3095 16.2768 36.7156C16.9696 36.4493 17.5906 35.9942 18.08 35.3939C18.3811 35.0268 18.7107 34.6885 19.0648 34.3829C19.2646 34.206 19.4502 34.011 19.6197 33.7998L19.82 33.9605C21.1628 34.9721 22.4276 35.9053 24.1252 35.806C24.0687 35.6775 24.0147 35.5491 23.9515 35.4215C24.0094 35.5501 24.0621 35.6769 24.1252 35.806L25.2087 38.429C25.2241 38.4667 25.2463 38.5007 25.2739 38.5289C25.3015 38.5571 25.334 38.5789 25.3695 38.5933C25.4051 38.6076 25.443 38.6141 25.4811 38.6124C25.5192 38.6106 25.5567 38.6007 25.5915 38.5832C26.1917 38.2803 25.8941 37.609 25.9176 37.0566C25.9405 36.3688 26.0599 35.6948 26.1372 35.0187Z" fill="#403D3E"/>
</svg>
