<svg width="243" height="342" viewBox="0 0 243 342" fill="none" xmlns="http://www.w3.org/2000/svg">
<g filter="url(#filter0_d)">
<rect x="19.5" y="18.5" width="217" height="311" rx="13.5" fill="#390001" stroke="#E46D70"/>
<rect x="17.5" y="16.5" width="217" height="311" rx="13.5" fill="#5A0102" stroke="#E46D70"/>
<rect x="15.5" y="14.5" width="217" height="311" rx="13.5" fill="#850002" stroke="#E46D70"/>
<rect x="13.5" y="12.5" width="217" height="311" rx="13.5" fill="#B80003" stroke="#E46D70"/>
<rect x="11.5" y="10.5" width="217" height="311" rx="13.5" fill="#D5070A" stroke="#E46D70"/>
<rect x="9.5" y="8.5" width="217" height="311" rx="13.5" fill="#D62125" stroke="#E46D70"/>
<path fill-rule="evenodd" clip-rule="evenodd" d="M10 303C10 310.732 16.268 317 24 317H210C217.732 317 224 310.732 224 303V19C224 11.268 217.732 5 210 5H24C16.268 5 10 11.268 10 19V303Z" fill="#D72F32" stroke="#A1191B"/>
<mask id="mask0" mask-type="alpha" maskUnits="userSpaceOnUse" x="10" y="157" width="10" height="26">
<path fill-rule="evenodd" clip-rule="evenodd" d="M10 157H20V182H10V157Z" fill="white"/>
</mask>
<g mask="url(#mask0)">
<path fill-rule="evenodd" clip-rule="evenodd" d="M8.48793 171.49L0.00195312 157.338H3.32657L9.87346 168.68H9.94279L16.5238 157.338H19.8484L11.5902 171.262L17.6309 181.619H14.2997L8.48793 171.49Z" fill="#F7CB36"/>
</g>
<path fill-rule="evenodd" clip-rule="evenodd" d="M26.3417 193.777H23.0105L29.0511 183.42L20.793 169.496H24.1176L30.6986 180.839H30.7679L37.3148 169.496H40.6405L32.1535 183.648L26.3417 193.777Z" fill="#F7CB36"/>
<mask id="mask1" mask-type="alpha" maskUnits="userSpaceOnUse" x="10" y="188" width="6" height="24">
<path fill-rule="evenodd" clip-rule="evenodd" d="M10 188H16V212H10V188Z" fill="white"/>
</mask>
<g mask="url(#mask1)">
<path fill-rule="evenodd" clip-rule="evenodd" d="M3.93519 202.342L-4.55078 188.188H-1.22506L5.32073 199.531H5.39006L11.9711 188.188H15.2968L7.03861 202.114L13.0782 212.47H9.74805L3.93519 202.342Z" fill="#F7CB36"/>
</g>
<path fill-rule="evenodd" clip-rule="evenodd" d="M24.5739 214.5L16.0879 200.347H19.4136L25.9594 211.69H26.0287L32.6097 200.347H35.9355L27.6773 214.271L33.7179 224.628H30.3867L24.5739 214.5Z" fill="#F7CB36"/>
<mask id="mask2" mask-type="alpha" maskUnits="userSpaceOnUse" x="10" y="217" width="4" height="24">
<path fill-rule="evenodd" clip-rule="evenodd" d="M10 217H14V241H10V217Z" fill="white"/>
</mask>
<g mask="url(#mask2)">
<path fill-rule="evenodd" clip-rule="evenodd" d="M-0.974704 241.498H-4.30482L1.73473 231.141L-6.52344 217.217H-3.19772L3.38329 228.56H3.45262L9.99841 217.217H13.3241L4.83815 231.37L-0.974704 241.498Z" fill="#F7CB36"/>
</g>
<path fill-rule="evenodd" clip-rule="evenodd" d="M21.6366 254.872H18.3054L24.3461 244.515L16.0879 230.591H19.4125L25.9935 241.934H26.0628L32.6097 230.591H35.9355L27.4495 244.744L21.6366 254.872Z" fill="#F7CB36"/>
<mask id="mask3" mask-type="alpha" maskUnits="userSpaceOnUse" x="10" y="248" width="6" height="24">
<path fill-rule="evenodd" clip-rule="evenodd" d="M10 248H16V272H10V248Z" fill="white"/>
</mask>
<g mask="url(#mask3)">
<path fill-rule="evenodd" clip-rule="evenodd" d="M3.63051 262.221L-4.85547 248.069H-1.52975L5.01604 259.412H5.08537L11.6664 248.069H14.9921L6.73392 261.993L12.7746 272.349H9.44336L3.63051 262.221Z" fill="#F7CB36"/>
</g>
<path fill-rule="evenodd" clip-rule="evenodd" d="M23.0019 284.507H19.6706L25.7113 274.152L17.4531 260.227H20.7777L27.3587 271.57H27.4281L33.975 260.227H37.2996L28.8136 274.38L23.0019 284.507Z" fill="#F7CB36"/>
<mask id="mask4" mask-type="alpha" maskUnits="userSpaceOnUse" x="10" y="279" width="1" height="24">
<path fill-rule="evenodd" clip-rule="evenodd" d="M10 279H11V303H10V279Z" fill="white"/>
</mask>
<g mask="url(#mask4)">
<path fill-rule="evenodd" clip-rule="evenodd" d="M-0.920275 293.073L-9.40625 278.92H-6.08053L0.465258 290.262H0.534589L7.11559 278.92H10.4402L2.18204 292.844L8.2227 303.201H4.89258L-0.920275 293.073Z" fill="#F7CB36"/>
</g>
<path fill-rule="evenodd" clip-rule="evenodd" d="M19.7184 305.231L11.2324 291.078H14.5581L21.1039 302.421H21.1733L27.7543 291.078H31.08L22.8207 305.002L28.8614 315.359H25.5313L19.7184 305.231Z" fill="#F7CB36"/>
<path fill-rule="evenodd" clip-rule="evenodd" d="M50.068 171.49L41.582 157.338H44.9077L51.4535 168.68H51.5229L58.1039 157.338H61.4285L53.1703 171.262L59.211 181.619H55.8798L50.068 171.49Z" fill="#F7CB36"/>
<path fill-rule="evenodd" clip-rule="evenodd" d="M45.1581 210.646H41.8269L47.8675 200.29L39.6094 186.366H42.934L49.515 197.709H49.5843L56.1312 186.366H59.4569L50.971 200.518L45.1581 210.646Z" fill="#F7CB36"/>
<path fill-rule="evenodd" clip-rule="evenodd" d="M45.4628 241.498H42.1316L48.1722 231.141L39.9141 217.217H43.2387L49.8197 228.56H49.889L56.4359 217.217H59.7616L51.2745 231.37L45.4628 241.498Z" fill="#F7CB36"/>
<path fill-rule="evenodd" clip-rule="evenodd" d="M63.2167 255.48H59.8866L65.9261 245.124L57.668 231.199H60.9926L67.5736 242.542H67.6429L74.1898 231.199H77.5155L69.0296 245.352L63.2167 255.48Z" fill="#F7CB36"/>
<path fill-rule="evenodd" clip-rule="evenodd" d="M88.3121 202.342L79.8262 188.188H83.1519L89.6977 199.531H89.767L96.348 188.188H99.6726L91.4145 202.114L97.4551 212.47H94.125L88.3121 202.342Z" fill="#F7CB36"/>
<path fill-rule="evenodd" clip-rule="evenodd" d="M108.951 214.5L100.465 200.347H103.791L110.336 211.69H110.406L116.987 200.347H120.312L112.053 214.271L118.094 224.628H114.764L108.951 214.5Z" fill="#F7CB36"/>
<path fill-rule="evenodd" clip-rule="evenodd" d="M65.6989 214.5L57.2129 200.347H60.5386L67.0844 211.69H67.1537L73.7347 200.347H77.0605L68.8023 214.271L74.8418 224.628H71.5117L65.6989 214.5Z" fill="#F7CB36"/>
<path fill-rule="evenodd" clip-rule="evenodd" d="M83.4003 241.498H80.0691L86.1097 231.141L77.8516 217.217H81.1762L87.7572 228.56H87.8265L94.3734 217.217H97.6991L89.2132 231.37L83.4003 241.498Z" fill="#F7CB36"/>
<path fill-rule="evenodd" clip-rule="evenodd" d="M106.012 254.872H102.682L108.721 244.515L100.463 230.591H103.789L110.37 241.934H110.439L116.986 230.591H120.31L111.824 244.744L106.012 254.872Z" fill="#F7CB36"/>
<path fill-rule="evenodd" clip-rule="evenodd" d="M45.2125 262.221L36.7266 248.069H40.0512L46.5981 259.412H46.6674L53.2484 248.069H56.573L48.3149 261.993L54.3555 272.349H51.0243L45.2125 262.221Z" fill="#F7CB36"/>
<path fill-rule="evenodd" clip-rule="evenodd" d="M62.914 284.507H59.5838L65.6234 274.152L57.3652 260.227H60.691L67.2709 271.57H67.3402L73.8871 260.227H77.2128L68.7268 274.38L62.914 284.507Z" fill="#F7CB36"/>
<path fill-rule="evenodd" clip-rule="evenodd" d="M40.3026 301.377H36.9714L43.0121 291.021L34.7539 277.097H38.0785L44.6595 288.44H44.7289L51.2758 277.097H54.6015L46.1144 291.25L40.3026 301.377Z" fill="#F7CB36"/>
<path fill-rule="evenodd" clip-rule="evenodd" d="M88.0075 262.221L79.5215 248.069H82.8472L89.393 259.412H89.4623L96.0433 248.069H99.3679L91.1098 261.993L97.1504 272.349H93.8203L88.0075 262.221Z" fill="#F7CB36"/>
<path fill-rule="evenodd" clip-rule="evenodd" d="M107.379 284.507H104.049L110.088 274.152L101.83 260.227H105.155L111.736 271.57H111.805L118.353 260.227H121.678L113.192 274.38L107.379 284.507Z" fill="#F7CB36"/>
<mask id="mask5" mask-type="alpha" maskUnits="userSpaceOnUse" x="35" y="308" width="20" height="9">
<path fill-rule="evenodd" clip-rule="evenodd" d="M35 308H55V317H35V308Z" fill="white"/>
</mask>
<g mask="url(#mask5)">
<path fill-rule="evenodd" clip-rule="evenodd" d="M40.6054 332.229H37.2753L43.3148 321.872L35.0566 307.948H38.3824L44.9634 319.291H45.0327L51.5785 307.948H54.9042L46.4182 322.1L40.6054 332.229Z" fill="#F7CB36"/>
</g>
<path fill-rule="evenodd" clip-rule="evenodd" d="M83.4547 293.073L74.9688 278.92H78.2934L84.8403 290.262H84.9096L91.4906 278.92H94.8152L86.557 292.844L92.5977 303.201H89.2665L83.4547 293.073Z" fill="#F7CB36"/>
<path fill-rule="evenodd" clip-rule="evenodd" d="M104.093 305.231L95.6074 291.078H98.9331L105.479 302.421H105.548L112.129 291.078H115.454L107.196 305.002L113.236 315.359H109.905L104.093 305.231Z" fill="#F7CB36"/>
<path fill-rule="evenodd" clip-rule="evenodd" d="M60.8434 305.231L52.3574 291.078H55.6831L62.2289 302.421H62.2983L68.8793 291.078H72.2039L63.9457 305.002L69.9864 315.359H66.6563L60.8434 305.231Z" fill="#F7CB36"/>
<mask id="mask6" mask-type="alpha" maskUnits="userSpaceOnUse" x="73" y="308" width="20" height="9">
<path fill-rule="evenodd" clip-rule="evenodd" d="M73 312.5C73 310.015 75.0147 308 77.5 308H88.5C90.9853 308 93 310.015 93 312.5C93 314.985 90.9853 317 88.5 317H77.5C75.0147 317 73 314.985 73 312.5Z" fill="white"/>
</mask>
<g mask="url(#mask6)">
<path fill-rule="evenodd" clip-rule="evenodd" d="M78.9587 331.507C78.7027 331.954 78.2276 332.229 77.7133 332.229C76.6052 332.229 75.9147 331.027 76.473 330.069L79.7288 324.487C80.6704 322.873 80.6631 320.875 79.7098 319.268L74.2731 310.101C73.7094 309.151 74.3944 307.948 75.4995 307.948C76.0078 307.948 76.4777 308.219 76.7328 308.658L82.8843 319.261C82.8951 319.28 82.9149 319.291 82.9363 319.291C82.9578 319.291 82.9777 319.279 82.9884 319.261L89.1082 308.658C89.3618 308.219 89.8304 307.948 90.3375 307.948C91.4406 307.948 92.1221 309.151 91.5547 310.097L84.3566 322.1L78.9587 331.507Z" fill="#F7CB36"/>
</g>
<mask id="mask7" mask-type="alpha" maskUnits="userSpaceOnUse" x="6" y="5" width="2" height="6">
<path fill-rule="evenodd" clip-rule="evenodd" d="M6 5H7.86018V10.4912H6V5Z" fill="white"/>
</mask>
<g mask="url(#mask7)">
<path fill-rule="evenodd" clip-rule="evenodd" d="M-6.43955 10.4912H-9.76967L-3.73011 0.134673L-11.9883 -13.7894H-8.66256L-2.08156 -2.44648H-2.01223L4.53356 -13.7894H7.85928L-0.626694 0.36281L-6.43955 10.4912Z" fill="#F7CB36"/>
</g>
<mask id="mask8" mask-type="alpha" maskUnits="userSpaceOnUse" x="30" y="5" width="21" height="6">
<path fill-rule="evenodd" clip-rule="evenodd" d="M30.959 5H50.8065V10.4912H30.959V5Z" fill="white"/>
</mask>
<g mask="url(#mask8)">
<path fill-rule="evenodd" clip-rule="evenodd" d="M36.5077 10.4912H33.1776L39.2172 0.134673L30.959 -13.7894H34.2847L40.8657 -2.44648H40.935L47.4808 -13.7894H50.8065L42.3206 0.36281L36.5077 10.4912Z" fill="#F7CB36"/>
</g>
<mask id="mask9" mask-type="alpha" maskUnits="userSpaceOnUse" x="7" y="0" width="25" height="32">
<path fill-rule="evenodd" clip-rule="evenodd" d="M15.8105 0.896484L31.3732 6.10368L22.9823 31.1814L7.41965 25.9742L15.8105 0.896484Z" fill="white"/>
</mask>
<g mask="url(#mask9)">
<path fill-rule="evenodd" clip-rule="evenodd" d="M14.1012 19.0563L5.61523 4.90405H8.94095L15.4867 16.247H15.5561L22.1371 4.90405H25.4617L17.2035 18.8271L23.2442 29.1847H19.9141L14.1012 19.0563Z" fill="#F7CB36"/>
</g>
<path fill-rule="evenodd" clip-rule="evenodd" d="M34.7418 31.2146L26.2559 17.0624H29.5816L36.1274 28.4053H36.1967L42.7777 17.0624H46.1023L37.8442 30.9854L43.8848 41.343H40.5547L34.7418 31.2146Z" fill="#F7CB36"/>
<mask id="mask10" mask-type="alpha" maskUnits="userSpaceOnUse" x="10" y="34" width="13" height="24">
<path fill-rule="evenodd" clip-rule="evenodd" d="M10 34H23V58H10V34Z" fill="white"/>
</mask>
<g mask="url(#mask10)">
<path fill-rule="evenodd" clip-rule="evenodd" d="M9.19326 58.2125H5.86314L11.9027 47.856L3.64453 33.9319H6.96915L13.5502 45.2737H13.6195L20.1664 33.9319H23.4921L15.0061 48.0841L9.19326 58.2125Z" fill="#F7CB36"/>
</g>
<path fill-rule="evenodd" clip-rule="evenodd" d="M31.8046 71.5864H28.4734L34.514 61.2299L26.2559 47.3058H29.5805L36.1615 58.6487H36.2308L42.7777 47.3058H46.1023L37.6163 61.458L31.8046 71.5864Z" fill="#F7CB36"/>
<mask id="mask11" mask-type="alpha" maskUnits="userSpaceOnUse" x="10" y="65" width="15" height="24">
<path fill-rule="evenodd" clip-rule="evenodd" d="M10 65H25V89H10V65Z" fill="white"/>
</mask>
<g mask="url(#mask11)">
<path fill-rule="evenodd" clip-rule="evenodd" d="M13.7985 78.9353L5.3125 64.7831H8.63822L15.184 76.126H15.2533L21.8343 64.7831H25.159L16.9008 78.7072L22.9415 89.0637H19.6113L13.7985 78.9353Z" fill="#F7CB36"/>
</g>
<path fill-rule="evenodd" clip-rule="evenodd" d="M33.1698 101.222H29.8397L35.8793 90.8659L27.6211 76.9407H30.9468L37.5278 88.2836H37.5971L44.1429 76.9407H47.4687L38.9827 91.094L33.1698 101.222Z" fill="#F7CB36"/>
<mask id="mask12" mask-type="alpha" maskUnits="userSpaceOnUse" x="10" y="96" width="11" height="24">
<path fill-rule="evenodd" clip-rule="evenodd" d="M10 96H21V120H10V96Z" fill="white"/>
</mask>
<g mask="url(#mask12)">
<path fill-rule="evenodd" clip-rule="evenodd" d="M9.24574 109.787L0.759766 95.6346H4.08548L10.6313 106.978H10.7006L17.2816 95.6346H20.6062L12.3481 109.559L18.3887 119.915H15.0575L9.24574 109.787Z" fill="#F7CB36"/>
</g>
<path fill-rule="evenodd" clip-rule="evenodd" d="M29.8864 121.945L21.4004 107.793H24.7261L31.2719 119.136H31.3412L37.9222 107.793H41.2469L32.9887 121.717L39.0293 132.074H35.6992L29.8864 121.945Z" fill="#F7CB36"/>
<mask id="mask13" mask-type="alpha" maskUnits="userSpaceOnUse" x="10" y="125" width="9" height="25">
<path fill-rule="evenodd" clip-rule="evenodd" d="M10 125H19V149H10V125Z" fill="white"/>
</mask>
<g mask="url(#mask13)">
<path fill-rule="evenodd" clip-rule="evenodd" d="M4.33584 148.944H1.00462L7.04528 138.587L-1.21289 124.662H2.11173L8.69273 136.005H8.76206L15.309 124.662H18.6347L10.1476 138.815L4.33584 148.944Z" fill="#F7CB36"/>
</g>
<path fill-rule="evenodd" clip-rule="evenodd" d="M26.9472 162.318H23.6171L29.6566 151.961L21.3984 138.036H24.7242L31.3052 149.379H31.3745L37.9203 138.036H41.246L32.76 152.189L26.9472 162.318Z" fill="#F7CB36"/>
<mask id="mask14" mask-type="alpha" maskUnits="userSpaceOnUse" x="72" y="5" width="21" height="6">
<path fill-rule="evenodd" clip-rule="evenodd" d="M72.3887 5H92.2362V10.4912H72.3887V5Z" fill="white"/>
</mask>
<g mask="url(#mask14)">
<path fill-rule="evenodd" clip-rule="evenodd" d="M77.9374 10.4912H74.6073L80.6468 0.134673L72.3887 -13.7894H75.7133L82.2943 -2.44648H82.3636L88.9105 -13.7894H92.2362L83.7503 0.36281L77.9374 10.4912Z" fill="#F7CB36"/>
</g>
<mask id="mask15" mask-type="alpha" maskUnits="userSpaceOnUse" x="49" y="5" width="21" height="23">
<path fill-rule="evenodd" clip-rule="evenodd" d="M49.7773 5H69.6249V27.3609H49.7773V5Z" fill="white"/>
</mask>
<g mask="url(#mask15)">
<path fill-rule="evenodd" clip-rule="evenodd" d="M55.3261 27.3609H51.996L58.0355 17.0043L49.7773 3.0802H53.1031L59.6841 14.4232H59.7534L66.2992 3.0802H69.6249L61.1389 17.2324L55.3261 27.3609Z" fill="#F7CB36"/>
</g>
<mask id="mask16" mask-type="alpha" maskUnits="userSpaceOnUse" x="116" y="5" width="21" height="6">
<path fill-rule="evenodd" clip-rule="evenodd" d="M116.854 5H136.7V10.4912H116.854V5Z" fill="white"/>
</mask>
<g mask="url(#mask16)">
<path fill-rule="evenodd" clip-rule="evenodd" d="M122.401 10.4912H119.071L125.112 0.134673L116.854 -13.7894H120.178L126.759 -2.44648H126.828L133.375 -13.7894H136.7L128.214 0.36281L122.401 10.4912Z" fill="#F7CB36"/>
</g>
<path fill-rule="evenodd" clip-rule="evenodd" d="M55.6288 58.2125H52.2987L58.3382 47.856L50.0801 33.9319H53.4058L59.9868 45.2737H60.0561L66.6019 33.9319H69.9276L61.4417 48.0841L55.6288 58.2125Z" fill="#F7CB36"/>
<path fill-rule="evenodd" clip-rule="evenodd" d="M73.3847 72.1945H70.0535L76.0941 61.8379L67.8359 47.9138H71.1606L77.7416 59.2557H77.8109L84.3578 47.9138H87.6835L79.1964 62.0661L73.3847 72.1945Z" fill="#F7CB36"/>
<mask id="mask17" mask-type="alpha" maskUnits="userSpaceOnUse" x="89" y="5" width="21" height="25">
<path fill-rule="evenodd" clip-rule="evenodd" d="M89.9941 5H109.841V29.1847H89.9941V5Z" fill="white"/>
</mask>
<g mask="url(#mask17)">
<path fill-rule="evenodd" clip-rule="evenodd" d="M98.4801 19.0563L89.9941 4.90405H93.3188L99.8656 16.247H99.935L106.516 4.90405H109.841L101.582 18.8271L107.623 29.1847H104.292L98.4801 19.0563Z" fill="#F7CB36"/>
</g>
<path fill-rule="evenodd" clip-rule="evenodd" d="M119.117 31.2146L110.631 17.0624H113.957L120.502 28.4053H120.572L127.153 17.0624H130.477L122.219 30.9854L128.261 41.343H124.93L119.117 31.2146Z" fill="#F7CB36"/>
<path fill-rule="evenodd" clip-rule="evenodd" d="M75.8668 31.2146L67.3809 17.0624H70.7066L77.2524 28.4053H77.3217L83.9027 17.0624H87.2273L78.9692 30.9854L85.0098 41.343H81.6797L75.8668 31.2146Z" fill="#F7CB36"/>
<path fill-rule="evenodd" clip-rule="evenodd" d="M93.5683 58.2125H90.237L96.2777 47.856L88.0195 33.9319H91.3441L97.9252 45.2737H97.9945L104.541 33.9319H107.866L99.38 48.0841L93.5683 58.2125Z" fill="#F7CB36"/>
<path fill-rule="evenodd" clip-rule="evenodd" d="M55.3805 78.9353L46.8945 64.7831H50.2202L56.766 76.126H56.8354L63.4164 64.7831H66.7421L58.4839 78.7072L64.5235 89.0637H61.1934L55.3805 78.9353Z" fill="#F7CB36"/>
<path fill-rule="evenodd" clip-rule="evenodd" d="M50.4706 118.092H47.1405L53.18 107.736L44.9219 93.8103H48.2476L54.8286 105.153H54.8979L61.4437 93.8103H64.7694L56.2835 107.964L50.4706 118.092Z" fill="#F7CB36"/>
<path fill-rule="evenodd" clip-rule="evenodd" d="M50.7733 148.944H47.4432L53.4828 138.587L45.2246 124.662H48.5492L55.1302 136.005H55.1996L61.7465 124.662H65.0722L56.5862 138.815L50.7733 148.944Z" fill="#F7CB36"/>
<path fill-rule="evenodd" clip-rule="evenodd" d="M129.383 210.646H126.053L132.092 200.29L123.834 186.366H127.159L133.741 197.709H133.809L140.356 186.366H143.68L135.194 200.518L129.383 210.646Z" fill="#F7CB36"/>
<path fill-rule="evenodd" clip-rule="evenodd" d="M177.088 171.49L168.602 157.338H171.927L178.473 168.68H178.542L185.123 157.338H188.448L180.19 171.262L186.232 181.619H182.9L177.088 171.49Z" fill="#F7CB36"/>
<path fill-rule="evenodd" clip-rule="evenodd" d="M194.941 193.777H191.611L197.651 183.42L189.393 169.496H192.717L199.299 180.839H199.368L205.916 169.496H209.24L200.754 183.648L194.941 193.777Z" fill="#F7CB36"/>
<path fill-rule="evenodd" clip-rule="evenodd" d="M129.686 241.498H126.356L132.397 231.141L124.139 217.217H127.463L134.044 228.56H134.114L140.661 217.217H143.985L135.499 231.37L129.686 241.498Z" fill="#F7CB36"/>
<path fill-rule="evenodd" clip-rule="evenodd" d="M147.443 255.48H144.112L150.153 245.124L141.895 231.199H145.219L151.8 242.542H151.869L158.416 231.199H161.741L153.255 245.352L147.443 255.48Z" fill="#F7CB36"/>
<path fill-rule="evenodd" clip-rule="evenodd" d="M172.537 202.342L164.051 188.188H167.376L173.922 199.531H173.992L180.573 188.188H183.897L175.639 202.114L181.681 212.47H178.349L172.537 202.342Z" fill="#F7CB36"/>
<path fill-rule="evenodd" clip-rule="evenodd" d="M193.175 214.5L184.689 200.347H188.015L194.561 211.69H194.63L201.211 200.347H204.536L196.278 214.271L202.32 224.628H198.987L193.175 214.5Z" fill="#F7CB36"/>
<path fill-rule="evenodd" clip-rule="evenodd" d="M149.923 214.5L141.438 200.347H144.763L151.309 211.69H151.378L157.959 200.347H161.284L153.026 214.271L159.068 224.628H155.736L149.923 214.5Z" fill="#F7CB36"/>
<path fill-rule="evenodd" clip-rule="evenodd" d="M167.625 241.498H164.295L170.334 231.141L162.076 217.217H165.401L171.983 228.56H172.051L178.598 217.217H181.923L173.437 231.37L167.625 241.498Z" fill="#F7CB36"/>
<path fill-rule="evenodd" clip-rule="evenodd" d="M190.238 254.872H186.908L192.948 244.515L184.689 230.591H188.014L194.595 241.934H194.664L201.211 230.591H204.536L196.05 244.744L190.238 254.872Z" fill="#F7CB36"/>
<path fill-rule="evenodd" clip-rule="evenodd" d="M129.437 262.221L120.951 248.069H124.277L130.824 259.412H130.892L137.474 248.069H140.799L132.539 261.993L138.581 272.349H135.25L129.437 262.221Z" fill="#F7CB36"/>
<path fill-rule="evenodd" clip-rule="evenodd" d="M147.139 284.507H143.808L149.848 274.152L141.59 260.227H144.914L151.497 271.57H151.565L158.113 260.227H161.437L152.95 274.38L147.139 284.507Z" fill="#F7CB36"/>
<path fill-rule="evenodd" clip-rule="evenodd" d="M124.526 301.377H121.196L127.237 291.021L118.979 277.097H122.303L128.884 288.44H128.953L135.5 277.097H138.825L130.339 291.25L124.526 301.377Z" fill="#F7CB36"/>
<path fill-rule="evenodd" clip-rule="evenodd" d="M172.233 262.221L163.746 248.069H167.072L173.619 259.412H173.687L180.269 248.069H183.594L175.335 261.993L181.376 272.349H178.045L172.233 262.221Z" fill="#F7CB36"/>
<path fill-rule="evenodd" clip-rule="evenodd" d="M191.603 284.507H188.272L194.313 274.152L186.055 260.227H189.379L195.96 271.57H196.03L202.577 260.227H205.901L197.415 274.38L191.603 284.507Z" fill="#F7CB36"/>
<mask id="mask18" mask-type="alpha" maskUnits="userSpaceOnUse" x="119" y="308" width="20" height="9">
<path fill-rule="evenodd" clip-rule="evenodd" d="M119 308H139V317H119V308Z" fill="white"/>
</mask>
<g mask="url(#mask18)">
<path fill-rule="evenodd" clip-rule="evenodd" d="M124.83 332.229H121.5L127.539 321.872L119.281 307.948H122.606L129.187 319.291H129.256L135.803 307.948H139.128L130.642 322.1L124.83 332.229Z" fill="#F7CB36"/>
</g>
<path fill-rule="evenodd" clip-rule="evenodd" d="M167.679 293.073L159.193 278.92H162.519L169.066 290.262H169.134L175.716 278.92H179.041L170.783 292.844L176.823 303.201H173.492L167.679 293.073Z" fill="#F7CB36"/>
<path fill-rule="evenodd" clip-rule="evenodd" d="M188.318 305.231L179.832 291.078H183.158L189.705 302.421H189.773L196.355 291.078H199.68L191.421 305.002L197.462 315.359H194.131L188.318 305.231Z" fill="#F7CB36"/>
<path fill-rule="evenodd" clip-rule="evenodd" d="M145.068 305.231L136.582 291.078H139.908L146.454 302.421H146.522L153.104 291.078H156.428L148.17 305.002L154.211 315.359H150.88L145.068 305.231Z" fill="#F7CB36"/>
<mask id="mask19" mask-type="alpha" maskUnits="userSpaceOnUse" x="157" y="308" width="20" height="9">
<path fill-rule="evenodd" clip-rule="evenodd" d="M157 308H177V317H157V308Z" fill="white"/>
</mask>
<g mask="url(#mask19)">
<path fill-rule="evenodd" clip-rule="evenodd" d="M162.768 332.229H159.438L165.479 321.872L157.221 307.948H160.545L167.126 319.291H167.196L173.743 307.948H177.067L168.581 322.1L162.768 332.229Z" fill="#F7CB36"/>
</g>
<mask id="mask20" mask-type="alpha" maskUnits="userSpaceOnUse" x="210" y="157" width="14" height="26">
<path fill-rule="evenodd" clip-rule="evenodd" d="M210 157H224V182H210V157Z" fill="white"/>
</mask>
<g mask="url(#mask20)">
<path fill-rule="evenodd" clip-rule="evenodd" d="M218.67 171.49L210.184 157.338H213.509L220.055 168.68H220.123L226.705 157.338H230.03L221.772 171.262L227.813 181.619H224.481L218.67 171.49Z" fill="#F7CB36"/>
</g>
<mask id="mask21" mask-type="alpha" maskUnits="userSpaceOnUse" x="208" y="186" width="16" height="26">
<path fill-rule="evenodd" clip-rule="evenodd" d="M208 186H224V211H208V186Z" fill="white"/>
</mask>
<g mask="url(#mask21)">
<path fill-rule="evenodd" clip-rule="evenodd" d="M213.76 210.646H210.43L216.469 200.29L208.211 186.366H211.536L218.117 197.709H218.186L224.733 186.366H228.057L219.571 200.518L213.76 210.646Z" fill="#F7CB36"/>
</g>
<mask id="mask22" mask-type="alpha" maskUnits="userSpaceOnUse" x="209" y="217" width="15" height="24">
<path fill-rule="evenodd" clip-rule="evenodd" d="M209 217H224V241H209V217Z" fill="white"/>
</mask>
<g mask="url(#mask22)">
<path fill-rule="evenodd" clip-rule="evenodd" d="M214.062 241.498H210.732L216.772 231.141L208.514 217.217H211.838L218.42 228.56H218.489L225.037 217.217H228.361L219.875 231.37L214.062 241.498Z" fill="#F7CB36"/>
</g>
<mask id="mask23" mask-type="alpha" maskUnits="userSpaceOnUse" x="205" y="248" width="19" height="24">
<path fill-rule="evenodd" clip-rule="evenodd" d="M205 248H224V272H205V248Z" fill="white"/>
</mask>
<g mask="url(#mask23)">
<path fill-rule="evenodd" clip-rule="evenodd" d="M213.814 262.221L205.328 248.069H208.654L215.2 259.412H215.269L221.85 248.069H225.175L216.916 261.993L222.958 272.349H219.626L213.814 262.221Z" fill="#F7CB36"/>
</g>
<path fill-rule="evenodd" clip-rule="evenodd" d="M208.902 301.377H205.572L211.612 291.021L203.354 277.097H206.678L213.26 288.44H213.328L219.876 277.097H223.201L214.714 291.25L208.902 301.377Z" fill="#F7CB36"/>
<mask id="mask24" mask-type="alpha" maskUnits="userSpaceOnUse" x="198" y="296" width="28" height="27">
<path fill-rule="evenodd" clip-rule="evenodd" d="M198.475 310.168L215.973 296.741L220.69 302.888L221.869 304.425L223.048 305.961L224.228 307.498L223.048 308C223.048 308 221.355 311.323 219.5 313C218.4 313.995 217.75 314.547 216.453 315.267C214.501 316.354 213 317 211 317C209 317 208 317 208 317L205.244 318.667L204.115 317.251L202.987 315.834L198.475 310.168Z" fill="white"/>
</mask>
<g mask="url(#mask24)">
<path fill-rule="evenodd" clip-rule="evenodd" d="M209.207 332.229H205.876L211.916 321.872L203.658 307.948H206.983L213.564 319.291H213.633L220.18 307.948H223.505L215.019 322.1L209.207 332.229Z" fill="#F7CB36"/>
</g>
<mask id="mask25" mask-type="alpha" maskUnits="userSpaceOnUse" x="221" y="291" width="3" height="24">
<path fill-rule="evenodd" clip-rule="evenodd" d="M221 291H224V315H221V291Z" fill="white"/>
</mask>
<g mask="url(#mask25)">
<path fill-rule="evenodd" clip-rule="evenodd" d="M229.443 305.231L220.957 291.078H224.283L230.83 302.421H230.898L237.48 291.078H240.805L232.546 305.002L238.587 315.359H235.256L229.443 305.231Z" fill="#F7CB36"/>
</g>
<mask id="mask26" mask-type="alpha" maskUnits="userSpaceOnUse" x="156" y="5" width="21" height="6">
<path fill-rule="evenodd" clip-rule="evenodd" d="M156.613 5H176.46V10.4912H156.613V5Z" fill="white"/>
</mask>
<g mask="url(#mask26)">
<path fill-rule="evenodd" clip-rule="evenodd" d="M162.162 10.4912H158.831L164.871 0.134673L156.613 -13.7894H159.938L166.519 -2.44648H166.588L173.135 -13.7894H176.46L167.974 0.36281L162.162 10.4912Z" fill="#F7CB36"/>
</g>
<mask id="mask27" mask-type="alpha" maskUnits="userSpaceOnUse" x="134" y="5" width="20" height="23">
<path fill-rule="evenodd" clip-rule="evenodd" d="M134.002 5H153.848V27.3609H134.002V5Z" fill="white"/>
</mask>
<g mask="url(#mask27)">
<path fill-rule="evenodd" clip-rule="evenodd" d="M139.551 27.3609H136.221L142.26 17.0043L134.002 3.0802H137.327L143.908 14.4232H143.977L150.524 3.0802H153.848L145.362 17.2324L139.551 27.3609Z" fill="#F7CB36"/>
</g>
<mask id="mask28" mask-type="alpha" maskUnits="userSpaceOnUse" x="199" y="5" width="21" height="6">
<path fill-rule="evenodd" clip-rule="evenodd" d="M199.561 5H219.407V10.4912H199.561V5Z" fill="white"/>
</mask>
<g mask="url(#mask28)">
<path fill-rule="evenodd" clip-rule="evenodd" d="M205.109 10.4912H201.779L207.819 0.134673L199.561 -13.7894H202.885L209.467 -2.44648H209.536L216.082 -13.7894H219.407L210.921 0.36281L205.109 10.4912Z" fill="#F7CB36"/>
</g>
<path fill-rule="evenodd" clip-rule="evenodd" d="M139.853 58.2125H136.523L142.563 47.856L134.305 33.9319H137.629L144.211 45.2737H144.28L150.828 33.9319H154.152L145.666 48.0841L139.853 58.2125Z" fill="#F7CB36"/>
<path fill-rule="evenodd" clip-rule="evenodd" d="M157.61 72.1945H154.28L160.321 61.8379L152.062 47.9138H155.387L161.968 59.2557H162.037L168.584 47.9138H171.909L163.423 62.0661L157.61 72.1945Z" fill="#F7CB36"/>
<mask id="mask29" mask-type="alpha" maskUnits="userSpaceOnUse" x="174" y="5" width="21" height="25">
<path fill-rule="evenodd" clip-rule="evenodd" d="M174.217 5H194.063V29.1847H174.217V5Z" fill="white"/>
</mask>
<g mask="url(#mask29)">
<path fill-rule="evenodd" clip-rule="evenodd" d="M182.703 19.0563L174.217 4.90405H177.543L184.088 16.247H184.157L190.739 4.90405H194.063L185.805 18.8271L191.846 29.1847H188.515L182.703 19.0563Z" fill="#F7CB36"/>
</g>
<path fill-rule="evenodd" clip-rule="evenodd" d="M203.343 31.2146L194.857 17.0624H198.183L204.729 28.4053H204.798L211.379 17.0624H214.704L206.446 30.9854L212.486 41.343H209.155L203.343 31.2146Z" fill="#F7CB36"/>
<path fill-rule="evenodd" clip-rule="evenodd" d="M160.091 31.2146L151.605 17.0624H154.931L161.477 28.4053H161.546L168.127 17.0624H171.452L163.194 30.9854L169.236 41.343H165.903L160.091 31.2146Z" fill="#F7CB36"/>
<path fill-rule="evenodd" clip-rule="evenodd" d="M177.793 58.2125H174.463L180.502 47.856L172.244 33.9319H175.569L182.151 45.2737H182.219L188.766 33.9319H192.091L183.605 48.0841L177.793 58.2125Z" fill="#F7CB36"/>
<path fill-rule="evenodd" clip-rule="evenodd" d="M200.406 71.5864H197.075L203.116 61.2299L194.857 47.3058H198.182L204.763 58.6487H204.832L211.379 47.3058H214.704L206.218 61.458L200.406 71.5864Z" fill="#F7CB36"/>
<path fill-rule="evenodd" clip-rule="evenodd" d="M182.4 78.9353L173.914 64.7831H177.24L183.787 76.126H183.855L190.437 64.7831H193.762L185.503 78.7072L191.544 89.0637H188.213L182.4 78.9353Z" fill="#F7CB36"/>
<path fill-rule="evenodd" clip-rule="evenodd" d="M201.77 101.222H198.44L204.481 90.8659L196.223 76.9407H199.547L206.128 88.2836H206.198L212.745 76.9407H216.069L207.583 91.094L201.77 101.222Z" fill="#F7CB36"/>
<path fill-rule="evenodd" clip-rule="evenodd" d="M177.847 109.787L169.361 95.6346H172.687L179.233 106.978H179.302L185.883 95.6346H189.208L180.95 109.559L186.991 119.915H183.66L177.847 109.787Z" fill="#F7CB36"/>
<path fill-rule="evenodd" clip-rule="evenodd" d="M198.486 121.945L190 107.793H193.326L199.872 119.136H199.941L206.522 107.793H209.846L201.588 121.717L207.63 132.074H204.299L198.486 121.945Z" fill="#F7CB36"/>
<path fill-rule="evenodd" clip-rule="evenodd" d="M172.937 148.944H169.607L175.647 138.587L167.389 124.662H170.713L177.295 136.005H177.364L183.912 124.662H187.236L178.75 138.815L172.937 148.944Z" fill="#F7CB36"/>
<path fill-rule="evenodd" clip-rule="evenodd" d="M195.549 162.318H192.219L198.258 151.961L190 138.036H193.325L199.907 149.379H199.975L206.522 138.036H209.846L201.36 152.189L195.549 162.318Z" fill="#F7CB36"/>
<mask id="mask30" mask-type="alpha" maskUnits="userSpaceOnUse" x="218" y="20" width="6" height="7">
<path fill-rule="evenodd" clip-rule="evenodd" d="M218 20H224V27H218V20Z" fill="white"/>
</mask>
<g mask="url(#mask30)">
<path fill-rule="evenodd" clip-rule="evenodd" d="M223.928 27.3609H220.596L226.637 17.0043L218.379 3.0802H221.704L228.285 14.4232H228.354L234.901 3.0802H238.225L229.739 17.2324L223.928 27.3609Z" fill="#F7CB36"/>
</g>
<mask id="mask31" mask-type="alpha" maskUnits="userSpaceOnUse" x="219" y="34" width="5" height="25">
<path fill-rule="evenodd" clip-rule="evenodd" d="M219 34.0001H224V58.0001H219V34.0001Z" fill="white"/>
</mask>
<g mask="url(#mask31)">
<path fill-rule="evenodd" clip-rule="evenodd" d="M224.23 58.2125H220.9L226.94 47.856L218.682 33.9319H222.006L228.588 45.2737H228.657L235.203 33.9319H238.528L230.042 48.0841L224.23 58.2125Z" fill="#F7CB36"/>
</g>
<mask id="mask32" mask-type="alpha" maskUnits="userSpaceOnUse" x="215" y="65" width="9" height="24">
<path fill-rule="evenodd" clip-rule="evenodd" d="M215 65H224V89H215V65Z" fill="white"/>
</mask>
<g mask="url(#mask32)">
<path fill-rule="evenodd" clip-rule="evenodd" d="M223.982 78.9353L215.496 64.7831H218.822L225.368 76.126H225.437L232.018 64.7831H235.343L227.084 78.7072L233.126 89.0637H229.794L223.982 78.9353Z" fill="#F7CB36"/>
</g>
<mask id="mask33" mask-type="alpha" maskUnits="userSpaceOnUse" x="214" y="94" width="10" height="24">
<path fill-rule="evenodd" clip-rule="evenodd" d="M214 94H224V118H214V94Z" fill="white"/>
</mask>
<g mask="url(#mask33)">
<path fill-rule="evenodd" clip-rule="evenodd" d="M219.07 118.092H215.74L221.78 107.736L213.521 93.8103H216.846L223.428 105.153H223.496L230.043 93.8103H233.368L224.882 107.964L219.07 118.092Z" fill="#F7CB36"/>
</g>
<mask id="mask34" mask-type="alpha" maskUnits="userSpaceOnUse" x="214" y="125" width="10" height="25">
<path fill-rule="evenodd" clip-rule="evenodd" d="M214 125H224V149H214V125Z" fill="white"/>
</mask>
<g mask="url(#mask34)">
<path fill-rule="evenodd" clip-rule="evenodd" d="M219.374 148.944H216.044L222.084 138.587L213.826 124.662H217.151L223.732 136.005H223.801L230.348 124.662H233.673L225.187 138.815L219.374 148.944Z" fill="#F7CB36"/>
</g>
<path fill-rule="evenodd" clip-rule="evenodd" d="M89.9301 163.295C91.9792 163.295 93.609 162.737 94.8174 161.625C96.0246 160.512 96.6288 158.876 96.6288 156.719C96.6288 154.561 96.0246 152.925 94.8174 151.812C93.609 150.7 91.9792 150.142 89.9301 150.142H87.4264V163.295H89.9301ZM84.6113 165.852V147.585H89.8596C92.7165 147.585 95.0276 148.38 96.7939 149.972C98.5602 151.564 99.4439 153.813 99.4439 156.719C99.4439 159.624 98.5602 161.873 96.7939 163.465C95.0276 165.057 92.7165 165.852 89.8596 165.852H84.6113Z" fill="#F7CB36"/>
<path fill-rule="evenodd" clip-rule="evenodd" d="M110.192 150.795C110.019 151.335 109.809 151.917 109.567 152.543L107.352 158.31H113.034L110.817 152.543L110.192 150.795ZM101.486 165.852L108.785 147.585H111.601L118.898 165.852H115.927L113.972 160.763H106.412L104.458 165.852H101.486Z" fill="#F7CB36"/>
<path fill-rule="evenodd" clip-rule="evenodd" d="M125.408 150.038V155.701H129.943C132.307 155.701 133.489 154.761 133.489 152.883C133.489 150.986 132.307 150.038 129.943 150.038H125.408ZM133.255 165.852L129.006 158.153H125.408V165.852H122.592V147.585H130.125C132.02 147.585 133.523 148.063 134.636 149.02C135.748 149.977 136.303 151.221 136.303 152.751C136.303 154.039 135.922 155.131 135.156 156.027C134.391 156.924 133.332 157.554 131.977 157.919L136.512 165.852H133.255Z" fill="#F7CB36"/>
<path fill-rule="evenodd" clip-rule="evenodd" d="M141.107 165.852V147.585H153.098V150.038H143.923V155.205H152.368V157.659H143.923V163.399H153.177V165.852H141.107Z" fill="#F7CB36"/>
<path fill-rule="evenodd" clip-rule="evenodd" d="M96.1734 116.478C95.5714 118.022 94.4423 119.657 94.4753 121.578C94.5039 123.273 95.8047 124.117 98.5054 124.092C98.8839 124.088 99.7731 123.549 100.036 123.276C102.588 120.629 103.867 115.95 104.34 111.651C102.747 111.318 99.6279 109.855 98.523 111.47C97.1815 113.432 97.7108 114.554 96.1734 116.478Z" fill="#1A1919"/>
<path fill-rule="evenodd" clip-rule="evenodd" d="M105.081 90.6255C103.373 93.8283 104.004 97.9103 102.225 101.073C101.247 102.813 99.6406 104.091 98.0734 105.323C97.2767 105.95 96.481 106.577 95.6842 107.202C94.7598 107.93 94.269 108.847 93.5141 109.75C92.8923 110.492 91.8919 110.761 91.0082 111.157C90.1245 111.552 89.2188 112.276 89.2386 113.244C89.2639 114.47 90.666 115.115 91.8358 115.473C93.7562 116.059 95.6765 116.647 97.5969 117.234C99.1541 117.71 100.719 118.188 102.33 118.418C106.666 119.039 111.24 117.753 114.619 114.963C115.048 114.61 115.389 114.197 115.905 113.991C118.711 112.874 121.6 111.961 124.538 111.26C126.063 110.896 127.11 109.954 128.189 108.815C130.733 106.128 131.244 102.11 131.126 98.4082C131.071 96.706 131.277 95.1713 131.265 93.468C131.261 92.8675 131.306 92.1822 131.776 91.812C132.296 91.4044 133.044 91.5939 133.677 91.779C135.857 92.4158 138.199 92.7573 140.393 92.1734C142.589 91.5895 144.599 89.9225 145.079 87.7014C145.218 87.058 145.401 86.4575 145.482 85.8053C145.738 83.7714 145.633 82.4681 144.213 81.2032C143.59 80.648 142.941 80.2381 141.809 80.1753C136.794 79.8977 135.565 84.2232 133.958 85.4869C132.35 86.7506 130.194 87.5758 128.254 86.9302C127.66 87.0117 127.367 86.7385 126.808 86.5225C122.736 84.9492 118.676 83.8486 114.353 84.4501C112.688 84.6022 111.494 85.0792 110.104 85.5298C106.895 86.571 104.897 87.9162 102.409 84.7399C101.218 83.2173 100.124 81.5712 98.5742 80.4166C97.0247 79.262 94.8435 78.5524 93.229 79.8778C91.9216 80.9884 91.247 82.6245 91.2492 84.341C91.2503 85.5442 91.7246 86.809 92.2925 87.8678C92.9121 89.0235 94.072 89.7892 95.2617 90.3401C98.2396 91.7173 101.702 92.0148 104.871 91.1653" fill="#989EA0"/>
<path fill-rule="evenodd" clip-rule="evenodd" d="M98.6799 119.756C99.0574 120.468 100.006 120.595 100.81 120.627C102.396 120.691 104.018 120.722 105.532 120.24C107.068 119.752 108.4 118.757 109.548 117.627C107.605 117.664 105.66 117.701 103.718 117.628C102.756 117.59 101.795 117.526 100.838 117.421C100.265 117.358 99.393 117.115 98.9088 117.566C98.3992 118.04 98.3772 119.186 98.6799 119.756Z" fill="#989EA0"/>
<path fill-rule="evenodd" clip-rule="evenodd" d="M129.617 88.657C130.918 89.6167 132.529 89.9946 133.824 90.0629C134.181 90.0805 134.546 90.0761 134.883 89.9604C135.328 89.8073 135.685 89.4756 136.028 89.1528C136.524 88.6846 137.024 88.2141 137.421 87.6588C137.915 86.968 138.239 86.1616 138.777 85.5049C139.681 84.3977 141.186 83.8159 142.599 84.0275C143.677 84.1883 144.289 85.0995 144.437 86.1461C144.616 87.4143 144.691 88.8476 143.971 89.9296C143.342 90.8782 142.483 91.6185 141.429 92.0526C140.748 92.3314 140.208 92.4515 139.484 92.587C138.163 92.8327 136.485 92.739 135.174 92.446C133.973 92.1793 132.827 91.5723 131.791 90.9112C131.054 90.4419 130.141 89.5902 129.617 88.657Z" fill="#E39192"/>
<path fill-rule="evenodd" clip-rule="evenodd" d="M102.983 89.7556C102.681 89.5903 102.33 89.4008 102.14 89.1287C101.619 88.3762 101.179 87.5774 100.787 86.75C100.396 85.9215 99.9229 85.0863 99.1602 84.5795C98.3745 84.0562 97.3807 83.9537 96.4376 83.9945C95.4999 84.0352 94.6834 84.3503 94.0638 85.0555C93.4453 85.7617 93.1427 86.7356 93.2527 87.6688C93.4002 88.9138 94.0957 89.9616 95.15 90.6392C96.2043 91.3167 97.461 91.5955 98.698 91.7916C99.6995 91.9503 101.152 91.8169 102.145 91.6109C102.409 90.9499 102.627 90.4827 102.983 89.7556Z" fill="#E39192"/>
<path fill-rule="evenodd" clip-rule="evenodd" d="M98.0834 113.907C98.1087 114.035 98.0955 114.17 98.1461 114.291C98.1968 114.412 98.3497 114.517 98.4829 114.465C98.5522 114.437 98.5951 114.379 98.6315 114.321C98.7833 114.069 98.8989 113.762 98.8835 113.478C98.878 113.369 98.8549 113.141 98.7954 113.045C98.681 112.859 98.5731 112.791 98.3266 112.811C97.5001 112.88 98.0328 113.653 98.0834 113.907Z" fill="#383A39"/>
<path fill-rule="evenodd" clip-rule="evenodd" d="M99.4686 111.942C99.4972 112.012 99.5336 112.081 99.5974 112.131C99.6612 112.18 99.7581 112.202 99.8252 112.166C99.8615 112.145 99.8835 112.111 99.9033 112.078C100.116 111.702 100.117 110.987 99.5919 110.737C99.1748 110.538 98.6356 110.878 99.0207 111.252C99.1264 111.354 99.2386 111.42 99.3113 111.548C99.3839 111.674 99.4147 111.812 99.4686 111.942Z" fill="#383A39"/>
<path fill-rule="evenodd" clip-rule="evenodd" d="M100.688 114.581C100.708 114.739 100.689 114.899 100.677 115.058C100.671 115.143 100.665 115.231 100.7 115.312C100.735 115.393 100.817 115.466 100.919 115.475C101.025 115.483 101.118 115.423 101.188 115.36C101.48 115.094 101.595 114.702 101.487 114.347C101.461 114.26 101.421 114.174 101.361 114.099C101.258 113.971 101.094 113.879 100.916 113.846C100.728 113.812 100.488 113.877 100.484 114.063C100.48 114.226 100.666 114.407 100.688 114.581Z" fill="#383A39"/>
<path fill-rule="evenodd" clip-rule="evenodd" d="M114.695 108.745C115.099 107.694 115.617 106.621 116.541 105.98C117.24 105.494 118.137 105.306 118.972 105.467C119.141 105.499 119.35 105.646 119.259 105.789C119.224 105.843 119.16 105.866 119.1 105.885C118.287 106.143 117.529 106.607 116.866 107.256C116.287 107.824 115.367 109.014 114.409 111.948C114.351 112.121 114.271 112.298 114.121 112.403C113.354 112.945 113.891 111.233 113.952 111.015C114.161 110.246 114.41 109.489 114.695 108.745Z" fill="#383A39"/>
<path fill-rule="evenodd" clip-rule="evenodd" d="M107.34 116.873C106.799 117.771 105.948 118.297 105.069 118.866C104.841 119.014 104.576 119.153 104.312 119.097C104.219 118.949 104.382 118.774 104.402 118.602C104.421 118.439 104.302 118.286 104.154 118.213C104.008 118.139 103.84 118.13 103.676 118.122C103.431 118.108 102.441 118.176 102.422 117.864C102.405 117.573 103.337 117.516 103.59 117.489C104.34 117.409 105.147 117.266 105.77 117.148C106.884 116.934 107.422 116.64 107.34 116.873Z" fill="#383A39"/>
<path fill-rule="evenodd" clip-rule="evenodd" d="M116.411 109.995C116.148 109.447 117.596 110.147 118.055 111.69C118.111 111.878 118.111 112.083 118.208 112.252C118.304 112.422 118.516 112.549 118.694 112.468C118.775 112.432 118.834 112.36 118.889 112.291C119.323 111.752 119.756 111.212 120.191 110.674C120.363 110.459 120.627 110.221 120.875 110.34C121.021 110.411 121.087 110.582 121.139 110.737C121.242 111.047 121.343 111.356 121.447 111.665C121.467 111.722 121.491 111.786 121.546 111.814C121.642 111.86 121.742 111.765 121.807 111.681C122.566 110.693 123.62 109.747 124.865 109.799C125.353 109.961 124.055 111.016 123.376 112.096C123.15 112.453 122.485 112.766 122.131 112.997C120.225 114.245 118.015 115.028 115.748 115.255C115.678 115.262 115.104 115.244 115.063 115.182C114.901 114.932 114.853 114.752 115.299 114.363C115.719 113.999 116.153 113.1 116.322 112.696C116.659 111.894 116.887 111.222 116.411 109.995Z" fill="#DA5335"/>
<path fill-rule="evenodd" clip-rule="evenodd" d="M143.279 114.05C142.538 102.737 139.883 96.9927 139.469 96.086C138.909 94.8597 137.978 93.5552 137.057 92.5703C136.169 92.4138 135.516 92.2298 134.629 92.0734C133.505 91.8761 131.702 91.2669 129.866 89.0215C129.43 88.4905 128.947 87.2631 129.409 87.2818C130.15 87.2862 131.465 87.0086 132.091 86.612C130.378 85.2072 128.458 84.3798 126.38 83.6923C120.244 81.6629 115.151 82.1124 110.309 83.8961C108.666 84.5021 106.97 85.5995 105.624 86.7199C104.302 87.8206 103.31 89.1052 102.789 90.1045C100.716 94.0752 100.771 101.117 100.438 103.387C101.669 102.52 102.491 101.06 102.865 99.6281C103.275 98.5175 103.329 97.9105 103.579 96.5079C109.948 95.3985 116.911 95.9339 123.351 96.498C123.632 95.2233 124.118 93.7403 124.742 92.5934C125.218 91.9973 124.63 95.751 124.781 96.7195C126.01 97.0478 127.487 97.9105 128.703 99.1808C130.283 101.331 129.952 105.639 129.385 106.564C128.596 107.85 127.522 109.064 126.129 110.078C123.596 111.699 120.685 112.501 118.171 114.237C115.615 116.002 113.399 118.055 111.707 120.663C111.484 121.003 110.999 121.945 111.003 122.352C111.008 122.757 111.653 124.798 112.057 124.759C114.071 118.574 117.933 114.749 122.555 113.114C120.72 115.112 118.041 116.705 115.732 121.54C115.005 123.062 114.658 124.746 114.553 126.545C118.21 128.316 121.395 128.145 125.42 127.593C129.445 127.04 133.306 125.668 137.093 124.195C139.512 123.254 141.032 121.286 142.739 119.33C143.726 118.197 143.369 115.433 143.279 114.05Z" fill="#1A1919"/>
<path fill-rule="evenodd" clip-rule="evenodd" d="M98.412 119.295C98.4362 119.458 98.466 119.634 98.5826 119.752C98.7719 119.944 99.0877 119.893 99.3508 119.83C99.4179 119.157 99.4575 118.391 99.397 117.718C98.9711 117.644 98.6101 117.515 98.1699 117.409C98.2205 118.045 98.3185 118.663 98.412 119.295Z" fill="#F1F1EF"/>
<path fill-rule="evenodd" clip-rule="evenodd" d="M100.068 120.129C100.068 120.15 100.069 120.172 100.08 120.19C100.101 120.226 100.148 120.233 100.189 120.237C100.373 120.251 100.583 120.258 100.712 120.126C100.783 120.054 100.815 119.953 100.844 119.856C101.045 119.174 101.206 118.479 101.324 117.778C101.324 117.776 100.042 117.777 99.9635 117.776C99.9437 118.203 100.045 119.48 100.068 120.129Z" fill="#F1F1EF"/>
<path fill-rule="evenodd" clip-rule="evenodd" d="M89.5632 112.043C89.2748 112.452 89.1758 112.716 89.1681 113.215C89.167 113.282 89.1681 113.704 89.4355 113.968C89.5269 114.057 89.5995 113.668 89.7172 113.62C90.0617 113.477 90.2103 113.93 90.3335 114.208C90.4568 114.485 90.5129 114.799 90.7044 115.036C90.8937 115.273 91.3009 115.379 91.489 115.141C91.7113 114.86 91.5584 114.538 91.6717 114.238C91.7367 114.065 91.8632 113.694 92.1427 113.741C92.7205 113.835 92.244 114.846 92.4597 114.856C93.1673 114.92 93.7418 114.535 94.3217 114.125C94.653 113.891 94.9446 113.575 95.0657 113.188C95.1856 112.8 95.1075 112.313 94.73 111.944C94.2194 111.43 93.6526 111.376 93.0551 111.362C92.627 111.351 91.6882 111.626 91.2822 111.489C90.3599 111.176 89.7503 111.776 89.5632 112.043Z" fill="#383A39"/>
<path fill-rule="evenodd" clip-rule="evenodd" d="M116.531 98.5826C114.927 98.4955 113.29 98.4129 111.739 98.826C110.185 99.2392 108.7 100.238 108.118 101.738C108.029 101.171 107.992 99.1367 106.61 98.382C105.96 98.0262 104.986 98.187 104.46 98.7115C103.965 99.2039 103.845 99.9487 103.749 100.642C103.684 101.114 103.727 101.196 103.662 101.669C103.314 100.581 103.138 99.952 102.006 99.3064C101.249 98.8756 100.4 98.6454 99.5408 98.5076C96.9535 98.0956 94.3321 97.8951 91.7129 97.9116C91.9286 99.9719 92.7606 102.254 94.6886 103.009C95.1894 103.204 95.7275 103.28 96.2613 103.344C98.8111 103.65 101.39 103.731 103.954 103.586C104.046 103.58 104.144 103.572 104.22 103.518C104.327 103.443 104.357 103.3 104.373 103.17C104.482 102.282 104.386 101.378 104.56 100.5C104.787 99.356 105.851 98.8349 106.589 99.7647C107.34 100.709 107.302 102.031 107.255 103.521C107.242 103.943 107.613 103.901 108.034 103.915C110.742 104.011 113.155 104.235 115.798 103.644C117.312 103.306 118.248 102.705 119.228 101.955C120.209 101.205 120.965 100.053 120.927 98.8183C119.462 98.7401 117.996 98.6608 116.531 98.5826Z" fill="#FFFFFE"/>
</g>
<defs>
<filter id="filter0_d" x="0" y="4.5" width="243" height="337.5" filterUnits="userSpaceOnUse" color-interpolation-filters="sRGB">
<feFlood flood-opacity="0" result="BackgroundImageFix"/>
<feColorMatrix in="SourceAlpha" type="matrix" values="0 0 0 0 0 0 0 0 0 0 0 0 0 0 0 0 0 0 127 0"/>
<feOffset dy="6"/>
<feGaussianBlur stdDeviation="3"/>
<feColorMatrix type="matrix" values="0 0 0 0 0 0 0 0 0 0 0 0 0 0 0 0 0 0 0.5 0"/>
<feBlend mode="normal" in2="BackgroundImageFix" result="effect1_dropShadow"/>
<feBlend mode="normal" in="SourceGraphic" in2="effect1_dropShadow" result="shape"/>
</filter>
</defs>
</svg>
