<svg width="28" height="29" viewBox="0 0 28 29" fill="none" xmlns="http://www.w3.org/2000/svg">
<path d="M10.7802 3.83572C10.8284 4.08769 10.5755 4.53848 10.5166 4.79918C10.4091 5.16161 9.38769 6.55336 9.12388 6.76746C5.3157 9.86435 3.02224 12.5158 1.04427 17.629C0.697346 18.5133 0.394154 19.4491 0.373946 20.3969C0.353735 21.3447 0.674289 22.3169 1.34006 22.7146C2.20999 23.2369 3.28773 22.6049 4.2355 22.0835C7.63097 20.2186 10.1306 15.0794 9.95081 15.8772C9.26799 18.1168 8.80626 21.9114 9.23508 24.1218C9.4844 25.4079 9.61331 26.3287 10.2919 27.3116C10.5629 27.7038 10.8645 28.0859 11.2569 28.2773C12.7375 28.9996 13.4506 28.214 14.2114 27.2865C16.029 25.0672 16.5107 21.6315 16.9162 18.6152C17.1066 17.1995 16.9539 15.2157 16.9752 13.3721C17.0792 12.4619 18.5686 16.7118 19.2099 17.868C19.8301 18.9826 20.4615 20.1097 21.2962 20.9764C22.131 21.8432 23.2141 22.4365 24.3578 22.3188C25.5015 22.2012 26.6849 21.2487 27.0709 19.8777C27.3341 18.9353 27.2044 17.9385 26.9998 17.0272C26.3107 13.9287 25.1291 13.1649 23.2956 10.9872C21.2173 9.0412 19.4858 7.48481 16.7389 3.66357C16.8389 -0.804758 10.3131 -0.185063 10.7802 3.83572Z" fill="#5C5C5C"/>
</svg>
