<svg width="580" height="318" viewBox="0 0 580 318" fill="none" xmlns="http://www.w3.org/2000/svg">
<g filter="url(#filter0_d)">
<rect x="6" y="280.186" width="568" height="25.8138" rx="12.9069" fill="#111111"/>
</g>
<path d="M132.033 128.754C144.722 120.244 154.05 115.993 168.565 111.231C168.565 92.1922 164.623 74.3324 166.002 72.9127C178.207 60.334 185.999 55.354 188.601 32.6107C188.756 31.2684 188.049 29.8928 187.123 28.904C184.914 26.5479 180.969 27.7992 178.285 29.5807C174.385 32.1792 171.074 35.5666 168.565 39.5243C165.607 34.9696 162.03 30.3486 156.873 28.6416C151.716 26.9346 144.822 29.694 144.186 35.0884C144.015 36.34 144.025 37.6099 144.217 38.8586C136.466 36.1462 128.79 44.6591 133.445 52.9675C128.592 53.078 125.639 56.9118 126.509 61.6985C127.71 68.2364 131.119 73.0232 138.264 71.8382C134.726 91.8469 132.516 117.535 132.033 128.754Z" fill="white"/>
<path d="M161.445 18.4057L131.403 69.1027C129.018 73.1277 130.347 78.3242 134.372 80.7093L166.575 99.7919C170.6 102.177 175.796 100.848 178.181 96.8226L208.223 46.1256C210.608 42.1006 209.279 36.9042 205.254 34.519L173.051 15.4364C169.026 13.0513 163.83 14.3807 161.445 18.4057Z" fill="#FE0000"/>
<path d="M162.916 54.688L165.109 50.9868L166.173 51.6166C166.7 51.8972 167.101 52.3683 167.294 52.9341C167.419 53.5104 167.322 54.1128 167.021 54.6201C166.72 55.1274 166.238 55.502 165.673 55.6686C165.084 55.7708 164.479 55.6454 163.979 55.3178L162.916 54.688ZM164.297 54.8096C164.648 55.0431 165.075 55.1322 165.49 55.0582C165.892 54.9221 166.232 54.6468 166.448 54.282C166.664 53.9173 166.743 53.4871 166.67 53.0694C166.535 52.6709 166.252 52.3395 165.88 52.1441L165.372 51.8431L163.792 54.5085L164.297 54.8096Z" fill="#FFD200"/>
<path d="M166.336 56.7155L170.01 53.8899L170.581 54.2296L169.869 58.8092L169.267 58.4529L169.482 57.1851L167.949 56.2764L166.941 57.0718L166.336 56.7155ZM169.91 54.7102C169.811 54.7986 169.698 54.8907 169.573 54.9865L168.432 55.8897L169.584 56.5719L169.827 55.1356L169.91 54.7102Z" fill="#FFD200"/>
<path d="M172.784 60.5356L172.847 58.464L172.118 58.0303L171.193 59.5909L170.621 59.254L172.811 55.5527L174.339 56.4587C174.679 56.6354 174.943 56.93 175.082 57.2873C175.137 57.4447 175.155 57.6123 175.136 57.7778C175.117 57.9433 175.061 58.1024 174.971 58.243C174.834 58.4891 174.611 58.6759 174.344 58.7678C174.06 58.8575 173.756 58.8575 173.472 58.7678L173.438 60.9223L172.784 60.5356ZM173.09 56.3924L172.411 57.5414L173.331 58.0939C173.809 58.3774 174.162 58.3296 174.389 57.9502C174.615 57.5709 174.489 57.2367 174.01 56.9476L173.09 56.3924Z" fill="#FFD200"/>
<path d="M174.379 61.4802L176.572 57.7789L179.005 59.2208L178.71 59.7179L176.848 58.6131L176.227 59.6599L177.939 60.6764L177.646 61.1874L175.934 60.1709L175.243 61.3338L177.122 62.4386L176.826 62.9358L174.379 61.4802Z" fill="#FFD200"/>
<path d="M171.19 46.0702C170.884 46.3105 170.458 46.5066 170.232 46.8989C170.033 47.2469 170.196 47.5728 170.748 47.8932C170.881 47.9337 171.021 47.9404 171.157 47.9126C171.986 47.6833 172.814 46.8878 173.428 46.073C173.151 45.8134 172.687 45.1422 172.27 45.3355C171.759 45.5758 171.734 45.8658 171.19 46.0702Z" fill="black"/>
<path d="M176.104 41.9023C175.372 42.347 174.999 43.2502 174.27 43.6756C173.847 43.8834 173.387 44.0063 172.916 44.0374L172.207 44.1313C171.95 44.1888 171.699 44.274 171.461 44.3854C171.237 44.4307 171.006 44.425 170.784 44.3689C170.673 44.3423 170.556 44.3479 170.448 44.3851C170.34 44.4223 170.245 44.4894 170.174 44.5788C170.033 44.8301 170.237 45.1312 170.433 45.3439L171.392 46.3935C171.647 46.6843 171.924 46.9549 172.22 47.2028C172.626 47.525 173.093 47.7605 173.594 47.8945C174.094 48.0285 174.617 48.0581 175.129 47.9817C175.252 47.9479 175.38 47.9339 175.507 47.9403C176.211 48.0512 176.906 48.2127 177.587 48.4236C177.929 48.5104 178.289 48.4911 178.62 48.3684C179.449 48.1308 180.045 47.3768 180.465 46.6117C180.659 46.2609 180.885 45.9736 181.087 45.6284C181.159 45.5068 181.25 45.3715 181.391 45.3522C181.531 45.3328 181.667 45.4599 181.78 45.5731C182.13 45.9822 182.584 46.2886 183.095 46.4598C183.351 46.5416 183.624 46.553 183.886 46.4927C184.148 46.4324 184.389 46.3028 184.584 46.1173C184.689 46.004 184.799 45.9046 184.893 45.7831C185.188 45.4019 185.324 45.1257 185.188 44.6975C185.134 44.4919 185.003 44.3145 184.824 44.2004C183.841 43.5402 183.07 44.2694 182.592 44.3329C182.355 44.3801 182.11 44.3691 181.878 44.3008C181.646 44.2325 181.434 44.1089 181.261 43.9407C181.131 43.8855 181.103 43.7943 181.015 43.6839C180.377 42.8746 179.686 42.1647 178.736 41.7669C178.419 41.6293 178.086 41.531 177.745 41.4742C176.968 41.3002 176.402 41.3305 176.278 40.3887C176.251 39.9335 176.164 39.4839 176.018 39.0518C175.842 38.632 175.485 38.2232 174.999 38.3005C174.803 38.3361 174.618 38.4142 174.456 38.5292C174.293 38.6442 174.158 38.7934 174.06 38.9662C173.925 39.2219 173.852 39.5057 173.847 39.7948C173.854 40.1067 173.962 40.4079 174.154 40.6538C174.599 41.2957 175.253 41.7633 176.004 41.9769" fill="#999999"/>
<path d="M171.307 47.0372C171.307 47.2278 171.475 47.3659 171.635 47.4709C171.94 47.6909 172.28 47.8563 172.641 47.9598C173.016 48.0325 173.403 48.0164 173.77 47.9128C173.373 47.6863 172.972 47.4598 172.588 47.2112C172.398 47.0869 172.21 46.9599 172.036 46.8218C171.928 46.7389 171.779 46.587 171.627 46.6201C171.54 46.653 171.464 46.7095 171.408 46.7831C171.351 46.8568 171.316 46.9448 171.307 47.0372Z" fill="#999999"/>
<path d="M181.321 44.4546C181.469 44.7778 181.707 45.0519 182.006 45.2445C182.074 45.2945 182.151 45.3311 182.232 45.3523C182.342 45.3672 182.454 45.3587 182.561 45.3274C182.719 45.2973 182.873 45.252 183.022 45.1921C183.205 45.112 183.368 44.9877 183.555 44.9158C183.715 44.8596 183.886 44.8448 184.052 44.8728C184.219 44.9008 184.376 44.9708 184.508 45.076C184.595 45.1571 184.654 45.264 184.675 45.3809C184.697 45.4979 184.68 45.6186 184.627 45.7251C184.534 46.0205 184.338 46.2725 184.075 46.435C183.836 46.553 183.568 46.5963 183.304 46.5593C183.147 46.5351 182.993 46.4935 182.845 46.435C182.527 46.3062 182.236 46.1188 181.986 45.8826C181.779 45.6738 181.609 45.4309 181.484 45.1644C181.373 44.9412 181.314 44.6956 181.312 44.4463" fill="#F9838D"/>
<path d="M175.781 41.4743C175.733 41.4059 175.7 41.3277 175.685 41.2451C175.667 41.0309 175.667 40.8157 175.685 40.6015C175.719 40.3874 175.695 40.1679 175.615 39.9662C175.505 39.7709 175.336 39.6154 175.132 39.5215C175.041 39.4678 174.939 39.4339 174.834 39.422C174.729 39.4101 174.623 39.4205 174.522 39.4525C174.417 39.4874 174.32 39.5437 174.238 39.6178C174.155 39.692 174.089 39.7824 174.044 39.8834C173.986 40.0147 173.959 40.1574 173.963 40.3008C173.968 40.4442 174.005 40.5847 174.071 40.712C174.217 40.9696 174.415 41.1943 174.652 41.3721C174.87 41.5355 175.114 41.6632 175.372 41.7505C175.522 41.6483 175.621 41.5765 175.781 41.4743Z" fill="#F9838D"/>
<path d="M171.886 45.7802C171.872 45.8076 171.861 45.8363 171.852 45.8659C171.85 45.8819 171.853 45.8983 171.862 45.9121C171.87 45.9258 171.884 45.9359 171.899 45.9404C171.915 45.9455 171.931 45.9455 171.946 45.9404C172.01 45.9092 172.062 45.8602 172.098 45.7996C172.116 45.7688 172.127 45.7351 172.131 45.7001C172.134 45.6777 172.129 45.6551 172.117 45.636C172.105 45.617 172.086 45.6025 172.065 45.5952C171.891 45.5013 171.905 45.7195 171.886 45.7802Z" fill="#2B2729"/>
<path d="M172.403 45.5483C172.398 45.5655 172.398 45.5835 172.403 45.6007C172.406 45.6094 172.411 45.6171 172.419 45.6229C172.426 45.6288 172.435 45.6325 172.444 45.6339C172.453 45.6365 172.463 45.6365 172.472 45.6339C172.525 45.6051 172.565 45.5567 172.583 45.4989C172.601 45.4411 172.596 45.3785 172.568 45.3245C172.507 45.2334 172.358 45.2389 172.391 45.3604C172.403 45.3905 172.411 45.4221 172.414 45.4543C172.412 45.4859 172.408 45.5172 172.403 45.5483Z" fill="#2B2729"/>
<path d="M172.334 46.2305C172.318 46.2648 172.297 46.2972 172.274 46.3272C172.261 46.3433 172.252 46.3623 172.249 46.3824C172.247 46.3939 172.248 46.4056 172.253 46.4163C172.257 46.427 172.264 46.4363 172.274 46.4432C172.285 46.4478 172.296 46.4502 172.308 46.4502C172.32 46.4502 172.332 46.4478 172.343 46.4432C172.388 46.437 172.431 46.4175 172.465 46.387C172.5 46.3565 172.524 46.3165 172.536 46.272C172.54 46.2501 172.54 46.2276 172.536 46.2057C172.529 46.1646 172.507 46.1274 172.475 46.1007C172.442 46.0703 172.384 46.0565 172.362 46.1007C172.34 46.1449 172.351 46.1919 172.334 46.2305Z" fill="#2B2729"/>
<path d="M175.877 46.7304C176.074 46.5493 176.32 46.431 176.584 46.3907C176.786 46.3779 176.984 46.4454 177.136 46.5785C177.167 46.6061 177.192 46.6614 177.156 46.678C177.142 46.6833 177.126 46.6833 177.112 46.678C176.908 46.6292 176.696 46.6292 176.493 46.678C176.091 46.8077 175.726 47.0322 175.429 47.3326C175.399 47.3635 175.359 47.3838 175.316 47.3906C175.095 47.4072 175.41 47.1144 175.449 47.0895C175.587 46.968 175.73 46.8483 175.877 46.7304Z" fill="#2B2729"/>
<path d="M173.408 47.4956C173.188 47.593 172.948 47.6375 172.707 47.6255C172.643 47.6351 172.577 47.6192 172.525 47.5813C172.525 47.5398 172.577 47.5233 172.602 47.4929C172.613 47.4769 172.618 47.4582 172.618 47.439C172.618 47.4198 172.613 47.4011 172.602 47.3852C172.579 47.3536 172.55 47.3273 172.516 47.3078C172.469 47.2747 172.259 47.1697 172.293 47.1062C172.326 47.0427 172.519 47.1449 172.569 47.1697C172.732 47.2443 172.911 47.3106 173.052 47.3631C173.309 47.4514 173.453 47.457 173.408 47.4956Z" fill="#2B2729"/>
<path d="M176.074 47.1917C176.074 47.0481 176.295 47.3657 176.204 47.7441C176.187 47.7868 176.175 47.8313 176.168 47.8767C176.166 47.8995 176.172 47.9223 176.185 47.941C176.198 47.9597 176.218 47.9731 176.24 47.9789C176.26 47.9835 176.28 47.9835 176.3 47.9789L176.759 47.8077C176.82 47.7856 176.903 47.769 176.938 47.8215C176.946 47.8394 176.95 47.8587 176.95 47.8781C176.95 47.8976 176.946 47.9168 176.938 47.9347L176.889 48.1612C176.883 48.1745 176.883 48.1894 176.889 48.2027C176.889 48.2248 176.936 48.2027 176.958 48.2027C177.089 48.1366 177.234 48.1022 177.38 48.1022C177.527 48.1022 177.672 48.1366 177.803 48.2027C177.883 48.2938 177.494 48.3518 177.226 48.4789C177.108 48.5108 176.986 48.522 176.864 48.512C176.323 48.5279 175.785 48.4132 175.298 48.1778C175.281 48.1778 175.168 48.0977 175.168 48.0811C175.168 48.0121 175.168 47.9679 175.314 47.943C175.462 47.8962 175.601 47.8233 175.723 47.7276C175.819 47.6712 175.9 47.5935 175.961 47.5006C176.022 47.4076 176.061 47.302 176.074 47.1917Z" fill="#FE330A"/>
<path d="M181.038 51.2437C182.248 48.8628 182.397 47.3768 182.419 47.1448C182.448 46.8091 182.425 46.471 182.352 46.1421C182.192 46.004 182.076 45.888 181.919 45.7499C181.578 45.4415 181.364 45.017 181.319 44.5594C181.295 44.3992 181.344 44.0926 181.435 44.1506C181.627 44.2595 181.84 44.3237 182.06 44.3385C181.873 43.8652 181.598 43.4314 181.25 43.0596C180.417 42.0572 179.252 41.3861 177.966 41.1676C177.539 41.0975 177.103 41.0975 176.676 41.1676C176.331 41.2202 175.998 41.3373 175.696 41.5128C174.798 42.0652 173.964 43.5015 173.624 43.9214C173.984 43.8779 174.317 43.7121 174.569 43.4518C174.761 43.2861 174.935 43.101 175.088 42.8994C176.513 43.4518 177.85 44.3854 179.101 45.2748C179.323 45.0345 179.576 44.8246 179.853 44.6506C180.021 44.587 179.45 45.2776 179.364 45.4792C179.612 45.7533 179.785 46.0875 179.864 46.4487C179.927 47.0757 179.342 47.9071 179.115 48.0259C178.779 48.2027 178.411 48.3116 178.033 48.3463C177.325 48.3711 176.638 48.1833 175.92 48.233C175.197 48.2685 174.49 48.4469 173.837 48.7578C173.707 48.8207 173.589 48.9079 173.492 49.0147C173.445 49.0976 173.329 49.5892 173.417 49.6307C174.569 48.6197 175.812 48.3076 176.947 48.5258C176.334 48.7109 175.599 48.7109 174.55 49.4124C174.219 49.647 173.938 49.9435 173.721 50.2853C174.251 51.0835 174.917 51.4316 175.801 51.8044C176.695 52.1504 177.627 52.3905 178.577 52.5198C179.182 52.6193 179.726 52.4038 180.306 52.2132C180.629 52.1387 180.889 51.5338 181.038 51.2437Z" fill="black"/>
<path d="M171.306 46.9101C171.288 46.9449 171.281 46.9845 171.287 47.0233C171.304 47.0841 171.373 47.1117 171.433 47.1311C171.538 46.999 171.631 46.8575 171.71 46.7085C171.632 46.6422 171.574 46.5731 171.497 46.4985C171.431 46.6339 171.364 46.772 171.306 46.9101Z" fill="#F2F2F2"/>
<path d="M171.541 47.28C171.541 47.28 171.541 47.2966 171.558 47.3021C171.573 47.3171 171.592 47.3286 171.612 47.3357C171.633 47.3429 171.655 47.3456 171.676 47.3436C171.699 47.3355 171.718 47.3223 171.734 47.3049C171.858 47.1906 171.974 47.0688 172.082 46.9403L171.806 46.7773C171.748 46.874 171.616 47.1447 171.541 47.28Z" fill="#F2F2F2"/>
<path d="M170.382 44.3772C170.288 44.4125 170.21 44.48 170.161 44.5678C170.126 44.6228 170.114 44.6888 170.125 44.7528C170.125 44.7832 170.194 44.7114 170.225 44.7169C170.31 44.7169 170.288 44.8385 170.28 44.9103C170.263 44.9798 170.254 45.0513 170.255 45.123C170.255 45.1948 170.335 45.2638 170.401 45.239C170.468 45.2141 170.487 45.1257 170.548 45.0788C170.609 45.0318 170.653 44.9904 170.703 45.0346C170.808 45.123 170.589 45.2721 170.634 45.3108C170.775 45.3919 170.941 45.4184 171.1 45.3854C171.201 45.3844 171.298 45.3494 171.377 45.2859C171.417 45.2503 171.446 45.2035 171.46 45.1515C171.475 45.0995 171.473 45.0444 171.457 44.9931C171.436 44.9233 171.4 44.8586 171.353 44.8034C171.305 44.7481 171.246 44.7036 171.18 44.6727C171.095 44.6203 170.871 44.5622 170.805 44.4849C170.756 44.4223 170.689 44.3776 170.612 44.3581C170.535 44.3386 170.455 44.3453 170.382 44.3772Z" fill="#2B2729"/>
<path d="M177.473 44.891C177.169 44.6638 176.83 44.4858 176.471 44.3634C176.29 44.3039 176.099 44.2868 175.911 44.3137C175.723 44.3405 175.544 44.4105 175.388 44.5181C175.438 44.391 175.664 43.9657 175.485 43.6563C175.434 43.5804 175.361 43.5214 175.277 43.487C175.192 43.4525 175.099 43.4442 175.009 43.4629C174.854 43.5219 174.723 43.6295 174.634 43.7695C174.565 43.8579 174.562 43.88 174.493 43.9684C174.537 43.8591 174.555 43.7413 174.546 43.6239C174.536 43.5066 174.5 43.3929 174.44 43.2917C174.335 43.1159 174.198 42.9606 174.037 42.8332C173.562 42.4379 173.054 42.0822 172.521 41.7698C172.316 42.2145 172.211 42.7752 172.521 43.1508C172.602 43.2477 172.695 43.334 172.797 43.4077C173.278 43.777 173.791 44.1033 174.33 44.3827C174.348 44.3946 174.369 44.4013 174.391 44.4021C174.406 44.3986 174.42 44.3922 174.432 44.3832C174.444 44.3742 174.455 44.3627 174.463 44.3496C174.592 44.1839 174.681 43.9878 174.822 43.8303C175.004 43.6259 175.283 43.648 175.322 43.9242C175.36 44.2004 175.195 44.4766 175.004 44.7529C174.951 44.8357 175.032 44.8716 175.114 44.9269C175.609 45.2894 176.15 45.5848 176.722 45.8052C177.012 45.8986 177.319 45.9222 177.62 45.8743C177.765 45.8635 177.906 45.819 178.031 45.7442C178.156 45.6694 178.262 45.5664 178.341 45.4434L177.473 44.891Z" fill="white"/>
<path d="M146.748 49.4346L147.425 49.8351L147.444 47.0123L150.789 45.1838L150.115 44.7832L147.419 46.2914L147.405 46.2831L147.439 43.1978L147.317 43.126L146.77 44.0458L146.787 46.6836L146.748 49.4346Z" fill="#FFD200"/>
<path d="M150.13 51.9951L153.55 50.1472L152.876 49.7467L150.185 51.2576L150.171 51.2493L150.199 48.1612L149.522 47.7607L149.528 51.5752L147.059 52.9452L147.733 53.3457L150.13 51.9951Z" fill="#FFD200"/>
<path d="M142.121 55.1382L142.795 55.5387L142.814 52.7158L146.162 50.8873L145.488 50.4868L142.79 51.9922L142.776 51.9839L142.79 50.763L142.154 51.8347L142.157 52.3871L142.121 55.1382Z" fill="#FFD200"/>
<path d="M145.524 60.4858L145.541 57.6602L148.889 55.8317L148.215 55.4311L145.519 56.9393L145.505 56.931L145.538 53.8457L144.861 53.4452L144.886 57.3342L144.848 60.0825L145.524 60.4858Z" fill="#FFD200"/>
<path d="M142.276 56.5304L141.602 56.1299L138.912 57.6408L138.898 57.6325L138.901 57.3259L137.986 58.8671L138.854 58.3782L142.276 56.5304Z" fill="#FFD200"/>
<path d="M141.837 63.8058L145.259 61.958L144.583 61.5603L141.892 63.0711L141.879 63.0601L141.906 59.972L141.232 59.5715L141.235 63.386L138.766 64.7588L139.442 65.1593L141.837 63.8058Z" fill="#FFD200"/>
<path d="M134.867 67.2335L135.544 67.6341L135.563 64.8084L138.908 62.9827L138.234 62.5822L135.538 64.0875L135.525 64.0792L135.536 63.002L134.903 64.0682L134.906 64.4825L134.867 67.2335Z" fill="#FFD200"/>
<path d="M138.556 69.9735L141.978 68.1256L141.301 67.7279L138.614 69.2388L138.597 69.2305L138.625 66.1397L137.951 65.7419L137.954 69.5537L135.484 70.9264L136.161 71.3269L138.556 69.9735Z" fill="#FFD200"/>
<path d="M130.927 71.9209C130.852 72.3683 130.813 72.8208 130.811 73.2743L130.918 73.3379L130.927 71.9209Z" fill="#FFD200"/>
<path d="M133.61 68.2859L131.828 69.2802C131.656 69.6018 131.505 69.9339 131.375 70.2746L134.284 68.6864L133.61 68.2859Z" fill="#FFD200"/>
<path d="M136.336 73.2302L133.64 74.7355L133.626 74.7272L133.659 71.642L132.985 71.2415L133.007 75.1305L132.969 77.8816L133.645 78.2821L133.662 75.4564L137.01 73.6307L136.336 73.2302Z" fill="#FFD200"/>
<path d="M155.861 54.8373L155.881 52.0116L159.228 50.1831L158.555 49.7826L155.856 51.2907L155.842 51.2824L155.875 48.1971L155.201 47.7966L155.223 51.6857L155.188 54.4367L155.861 54.8373Z" fill="#FFD200"/>
<path d="M149.527 59.0275L151.925 57.6741L155.344 55.8262L154.671 55.4285L151.98 56.9393L151.966 56.9311L151.994 53.8402L151.317 53.4425L151.323 57.2542L148.854 58.627L149.527 59.0275Z" fill="#FFD200"/>
<path d="M145.881 65.314L148.278 63.9606L151.698 62.1155L151.024 61.715L148.334 63.2258L148.32 63.2175L148.348 60.1267L147.671 59.729L147.676 63.5407L145.207 64.9135L145.881 65.314Z" fill="#FFD200"/>
<path d="M150.2 68.9295L153.623 67.0817L152.946 66.6811L150.256 68.192L150.242 68.1837L150.269 65.0957L149.595 64.6952L149.598 68.5097L147.129 69.8824L147.806 70.2829L150.2 68.9295Z" fill="#FFD200"/>
<path d="M159.935 62.8611L163.283 61.0326L162.609 60.6321L159.911 62.1402L159.897 62.1319L159.93 59.0466L159.256 58.6461L159.278 62.5324L159.242 65.2862L159.916 65.684L159.935 62.8611Z" fill="#FFD200"/>
<path d="M162.645 70.6311L162.662 67.8054L166.01 65.9769L165.336 65.5792L162.64 67.0845L162.626 67.0762L162.659 63.991L161.983 63.5905L162.007 67.4795L161.969 70.2306L162.645 70.6311Z" fill="#FFD200"/>
<path d="M153.868 65.43L153.885 62.6044L157.232 60.7786L156.558 60.3781L153.863 61.8835L153.849 61.8752L153.882 58.7899L153.205 58.3894L153.23 62.2785L153.191 65.0295L153.868 65.43Z" fill="#FFD200"/>
<path d="M153.582 69.8769L155.977 68.5235L159.399 66.6756L158.725 66.2779L156.035 67.7888L156.021 67.7805L156.046 64.6897L155.372 64.2892L155.378 68.1037L152.908 69.4764L153.582 69.8769Z" fill="#FFD200"/>
<path d="M161.704 71.7054L159.013 73.2163L159 73.208L159.027 70.1172L158.353 69.7195L158.356 73.5312L155.887 74.904L156.563 75.3045L158.958 73.951L162.38 72.1059L161.704 71.7054Z" fill="#FFD200"/>
<path d="M143.983 72.6334L144 69.8106L147.348 67.982L146.674 67.5815L143.975 69.0896L143.961 69.0814L143.994 65.9933L143.32 65.5956L143.343 69.4819L143.307 72.2329L143.983 72.6334Z" fill="#FFD200"/>
<path d="M149.401 72.5258L146.711 74.0366L146.697 74.0283L146.725 70.9403L146.051 70.5398L146.053 74.3543L143.584 75.727L144.261 76.1275L146.655 74.7741L150.075 72.9263L149.401 72.5258Z" fill="#FFD200"/>
<path d="M142.788 73.2247L140.097 74.7356L140.084 74.7273L140.111 71.6393L139.435 71.2388L139.44 75.0532L136.971 76.426L137.645 76.8265L140.042 75.4731L143.462 73.6252L142.788 73.2247Z" fill="#FFD200"/>
<path d="M152.665 77.7794L152.684 74.9566L156.032 73.128L155.355 72.7275L152.659 74.2356L152.646 74.2274L152.679 71.1421L152.005 70.7416L152.027 74.6279L151.988 77.3789L152.665 77.7794Z" fill="#FFD200"/>
<path d="M155.675 80.1216L159.097 78.2738L158.421 77.8733L155.73 79.3842L155.716 79.3759L155.744 76.2878L155.07 75.8873L155.073 79.7018L152.604 81.0718L153.28 81.4723L155.675 80.1216Z" fill="#FFD200"/>
<path d="M139.144 79.5112L136.454 81.0221L136.44 81.0138L136.468 77.9258L135.791 77.5253L135.797 81.1933L136.584 81.6601L139.818 79.9117L139.144 79.5112Z" fill="#FFD200"/>
<path d="M150.728 78.4313L148.03 79.9366L148.016 79.9283L148.049 76.8431L147.375 76.4453L147.397 80.3316L147.361 83.0827L148.035 83.4832L148.055 80.6575L151.402 78.8318L150.728 78.4313Z" fill="#FFD200"/>
<path d="M153.455 83.3754L150.759 84.8835L150.745 84.8752L150.778 81.7899L150.104 81.3894L150.127 85.2757L150.088 88.0268L150.765 88.4273L150.781 85.6044L154.129 83.7759L153.455 83.3754Z" fill="#FFD200"/>
<path d="M141.984 79.6825L141.967 79.6743L142.003 76.589L141.326 76.1885L141.351 80.0748L141.312 82.8258L141.989 83.2263L142.009 80.4035L145.353 78.5749L144.68 78.1744L141.984 79.6825Z" fill="#FFD200"/>
<path d="M146.843 84.0742L144.153 85.5851L144.139 85.5768L144.164 82.4888L143.49 82.0883L143.493 85.7536L144.283 86.2204L147.517 84.4747L146.843 84.0742Z" fill="#FFD200"/>
<path d="M146.473 87.5157V87.5185L147.147 87.919V87.9162L146.473 87.5157Z" fill="#FFD200"/>
<path d="M149.823 89.5017L149.82 89.5045L150.497 89.905L150.5 89.9022L149.823 89.5017Z" fill="#FFD200"/>
<path d="M171.803 17.4385L174.145 16.1155L173.537 15.7564L173.488 15.7288L171.129 17.038L171.803 17.4385Z" fill="#FFD200"/>
<path d="M160.458 20.957L160.342 21.1504L160.574 21.0261L160.458 20.957Z" fill="#FFD200"/>
<path d="M166.184 19.2284L166.86 19.6289L166.88 16.8032L170.227 14.9747L169.553 14.5742L166.855 16.0796H166.841V14.8698C166.626 14.9305 166.413 14.9941 166.2 15.0714V16.4828L166.184 19.2284Z" fill="#FFD200"/>
<path d="M169.575 21.0207L169.608 17.9354L168.934 17.5349L168.956 21.424L168.92 24.1723L169.597 24.5728L169.613 21.7499L172.961 19.9214L172.287 19.5209L169.588 21.029L169.575 21.0207Z" fill="#FFD200"/>
<path d="M162.927 22.4682L166.349 20.6203L165.672 20.2198L162.982 21.7307L162.968 21.7224L162.996 18.6344L162.322 18.2339L162.325 22.0484L159.855 23.4184L160.532 23.8189L162.927 22.4682Z" fill="#FFD200"/>
<path d="M165.951 27.1497L165.978 24.0616L165.302 23.6611L165.307 27.4756L162.838 28.8484L163.512 29.2489L165.909 27.8954L169.329 26.0476L168.655 25.6499L165.965 27.1607L165.951 27.1497Z" fill="#FFD200"/>
<path d="M156.972 26.8376L156.916 26.9323L157.027 26.871L156.972 26.8376Z" fill="#FFD200"/>
<path d="M159.618 31.7241L159.635 28.8985L162.982 27.0727L162.308 26.6722L159.61 28.1776L159.596 28.1693L159.632 25.084L158.955 24.6863L158.977 28.5726L158.941 31.3236L159.618 31.7241Z" fill="#FFD200"/>
<path d="M160.231 35.417L162.628 34.0636L166.048 32.2185L165.374 31.818L162.683 33.3289L162.67 33.3206L162.697 30.2298L162.02 29.832L162.026 33.6437L159.557 35.0165L160.231 35.417Z" fill="#FFD200"/>
<path d="M154.312 37.0271L154.989 37.4276L155.009 34.6019L158.356 32.7734L157.68 32.3729L154.984 33.881L154.97 33.8728L155.003 30.7875L154.727 30.6245L154.335 31.2902L154.351 34.276L154.312 37.0271Z" fill="#FFD200"/>
<path d="M157.718 42.3718L157.734 39.5462L161.082 37.7177L160.408 37.3199L157.709 38.8253L157.696 38.817L157.729 35.7317L157.055 35.334L157.077 39.2203L157.041 41.9713L157.718 42.3718Z" fill="#FFD200"/>
<path d="M151.047 40.2642L154.469 38.4164L153.792 38.0186L151.105 39.5295L151.091 39.5212L151.113 36.7205L150.442 37.8502L150.445 39.8444L148.68 40.825L148.326 41.4243L148.652 41.6177L151.047 40.2642Z" fill="#FFD200"/>
<path d="M154.03 45.692L157.45 43.8469L156.776 43.4464L154.086 44.9573L154.072 44.949L154.1 41.861L153.426 41.4604L153.428 45.2749L150.959 46.6449L151.633 47.0454L154.03 45.692Z" fill="#FFD200"/>
<path d="M180.207 22.4183L182.549 21.0953L181.892 20.7058L179.533 22.0178L180.207 22.4183Z" fill="#FFD200"/>
<path d="M172.92 22.717L173.597 23.1175L175.991 21.764L179.414 19.9189L178.737 19.5184L176.049 21.0293L176.033 21.021L176.06 17.9302L175.386 17.5325L175.389 21.3442L172.92 22.717Z" fill="#FFD200"/>
<path d="M189.229 27.7657L191.571 26.4427L190.914 26.0532L188.555 27.3652L189.229 27.7657Z" fill="#FFD200"/>
<path d="M169.952 29.4036L172.347 28.0502L175.769 26.2051L175.095 25.8046L172.405 27.3154L172.391 27.3071L172.416 24.2163L171.742 23.8186L171.745 27.6303L169.275 29.0031L169.952 29.4036Z" fill="#FFD200"/>
<path d="M177.02 30.7711L174.33 32.282L174.316 32.2737L174.344 29.1857L173.667 28.7852L173.672 32.5996L171.203 33.9724L171.877 34.3729L174.275 33.0195L177.694 31.1716L177.02 30.7711Z" fill="#FFD200"/>
<path d="M183.987 29.7737L184.004 26.9508L187.352 25.1223L186.678 24.7218L183.982 26.2299L183.968 26.2216L184.001 23.1363L183.327 22.7358L183.349 26.6249L183.311 29.3732L183.987 29.7737Z" fill="#FFD200"/>
<path d="M186.694 31.166L186.727 28.0807L186.053 27.6802L186.075 31.5692L186.039 34.3203L186.716 34.7208L186.732 31.8952L190.08 30.0666L189.406 29.6689L186.707 31.1742L186.694 31.166Z" fill="#FFD200"/>
<path d="M177.92 25.965L177.953 22.8798L177.279 22.4792L177.302 26.3683L177.266 29.1194L177.942 29.5199L177.959 26.6942L181.307 24.8657L180.633 24.468L177.934 25.9733L177.92 25.965Z" fill="#FFD200"/>
<path d="M180.088 31.8677L180.115 28.7797L179.441 28.3792L179.444 32.1936L176.975 33.5664L177.651 33.9669L180.046 32.6135L183.468 30.7656L182.792 30.3679L180.101 31.876L180.088 31.8677Z" fill="#FFD200"/>
<path d="M168.052 36.7234L168.071 33.9005L171.419 32.072L170.742 31.6715L168.046 33.1796L168.032 33.1713L168.066 30.0861L167.392 29.6855L167.414 33.5718L167.375 36.3229L168.052 36.7234Z" fill="#FFD200"/>
<path d="M161.718 40.9164L164.112 39.5629L167.535 37.7151L166.861 37.3146L164.17 38.8254L164.154 38.8172L164.182 35.7291L163.508 35.3286L163.51 39.1431L161.041 40.5131L161.718 40.9164Z" fill="#FFD200"/>
<path d="M158.071 47.2027L160.466 45.8493L163.888 44.0015L163.214 43.6009L160.524 45.1118L160.51 45.1035L160.535 42.0155L159.861 41.615L159.864 45.4295L157.395 46.8022L158.071 47.2027Z" fill="#FFD200"/>
<path d="M168.402 63.5685L168.405 67.383L165.936 68.7557L166.612 69.1562L169.007 67.8028L172.429 65.9549L171.755 65.5544L169.065 67.0653L169.048 67.057L169.076 63.969L168.402 63.5685Z" fill="#FFD200"/>
<path d="M181.634 70.1117L181.65 67.286L184.998 65.4575L184.324 65.057L181.625 66.5651L181.612 66.5568L181.648 63.4716L180.971 63.071L180.993 66.9601L180.957 69.7112L181.634 70.1117Z" fill="#FFD200"/>
<path d="M184.393 71.5314L184.379 71.5231L184.404 68.4351L183.73 68.0345L183.733 71.849L181.264 73.219L181.94 73.6195L184.335 72.2689L187.757 70.421L187.083 70.0205L184.393 71.5314Z" fill="#FFD200"/>
<path d="M162.972 75.4426L165.366 74.0892L168.789 72.2413L168.115 71.8436L165.424 73.3545L165.411 73.3462L165.435 70.2554L164.761 69.8549L164.764 73.6693L162.295 75.0421L162.972 75.4426Z" fill="#FFD200"/>
<path d="M167.29 79.0582L170.71 77.2103L170.036 76.8098L167.345 78.3207L167.332 78.3124L167.359 75.2244L166.685 74.8239L166.688 78.6383L164.219 80.0083L164.895 80.4088L167.29 79.0582Z" fill="#FFD200"/>
<path d="M176.344 68.7748L176.366 72.6611L176.33 75.4121L177.004 75.8126L177.023 72.9898L180.371 71.1612L179.694 70.7607L176.999 72.2689L176.985 72.2578L177.018 69.1753L176.344 68.7748Z" fill="#FFD200"/>
<path d="M179.727 77.2132L179.713 77.2049L179.749 74.1196L179.072 73.7191L179.095 77.6082L179.059 80.3592L179.735 80.7597L179.752 77.9341L183.1 76.1056L182.426 75.7051L179.727 77.2132Z" fill="#FFD200"/>
<path d="M170.958 75.5584L170.975 72.7328L174.322 70.9043L173.648 70.5065L170.95 72.0119L170.936 72.0036L170.972 68.9183L170.295 68.5178L170.317 72.4069L170.281 75.1579L170.958 75.5584Z" fill="#FFD200"/>
<path d="M175.81 76.4037L173.12 77.9146L173.106 77.9063L173.131 74.8182L172.457 74.4177L172.46 78.2322L169.99 79.605L170.667 80.0055L173.062 78.652L176.484 76.8042L175.81 76.4037Z" fill="#FFD200"/>
<path d="M176.101 83.3451L176.087 83.3368L176.115 80.246L175.438 79.8455L175.444 83.6599L172.975 85.0327L173.649 85.4332L176.046 84.0798L179.466 82.2319L178.792 81.8342L176.101 83.3451Z" fill="#FFD200"/>
<path d="M161.068 82.7622L161.088 79.9365L164.435 78.1108L163.759 77.7103L161.063 79.2156L161.049 79.2073L161.082 76.1221L160.408 75.7216L160.43 79.6106L160.395 82.3617L161.068 82.7622Z" fill="#FFD200"/>
<path d="M166.491 82.6545L163.801 84.1654L163.787 84.1571L163.814 81.0691L163.138 80.6686L163.143 84.4831L160.674 85.8531L161.348 86.2536L163.745 84.9029L167.165 83.055L166.491 82.6545Z" fill="#FFD200"/>
<path d="M159.876 83.3533L157.186 84.8641L157.172 84.8559L157.197 81.7651L156.523 81.3673L156.526 85.1818L154.057 86.5518L154.733 86.9523L157.128 85.5989L160.55 83.7538L159.876 83.3533Z" fill="#FFD200"/>
<path d="M172.445 82.8561L169.747 84.3614L169.733 84.3531L169.769 81.2679L169.092 80.8701L169.117 84.7564L169.078 87.5075L169.755 87.908L169.771 85.0823L173.119 83.2566L172.445 82.8561Z" fill="#FFD200"/>
<path d="M172.157 86.016L172.163 89.8277L169.693 91.2005L170.367 91.601L172.765 90.2475L176.184 88.4025L175.51 88.0019L172.82 89.5128L172.806 89.5045L172.834 86.4137L172.157 86.016Z" fill="#FFD200"/>
<path d="M156.236 89.6399L153.546 91.1508L153.532 91.1425L153.557 88.0544L152.883 87.6539L152.886 91.3192L153.676 91.786L156.91 90.0404L156.236 89.6399Z" fill="#FFD200"/>
<path d="M167.815 88.5599L165.12 90.0652L165.106 90.0569L165.139 86.9717L164.465 86.5712L164.487 90.4602L164.451 93.2113L165.125 93.6118L165.144 90.7861L168.492 88.9576L167.815 88.5599Z" fill="#FFD200"/>
<path d="M170.543 93.504L167.844 95.0094L167.83 95.0011L167.866 91.9158L167.19 91.5181L167.212 95.4044L167.176 98.1554L167.853 98.5559L167.869 95.7303L171.217 93.9045L170.543 93.504Z" fill="#FFD200"/>
<path d="M159.071 89.8083L159.057 89.8L159.093 86.7175L158.416 86.317L158.438 90.2033L158.402 92.9544L159.079 93.3549L159.096 90.532L162.443 88.7035L161.769 88.303L159.071 89.8083Z" fill="#FFD200"/>
<path d="M163.933 94.203L161.243 95.7139L161.226 95.7056L161.254 92.6148L160.58 92.217L160.583 95.8824L161.37 96.3492L164.607 94.6035L163.933 94.203Z" fill="#FFD200"/>
<path d="M163.559 97.6445V97.6473L164.235 98.0478V98.045L163.559 97.6445Z" fill="#FFD200"/>
<path d="M190.064 71.5644L190.05 71.5561L190.083 68.4708L189.409 68.0703L189.431 71.9594L189.393 74.7104L189.934 75.0308L190.072 74.7988L190.089 72.2853L192.265 71.0976L192.848 70.1115L192.76 70.059L190.064 71.5644Z" fill="#FFD200"/>
<path d="M186.183 77.2131L186.17 77.2049L186.197 74.1141L185.523 73.7163L185.526 77.528L183.057 78.9008L183.733 79.3013L186.128 77.9479L189.18 76.3016L189.365 75.9923L188.874 75.7023L186.183 77.2131Z" fill="#FFD200"/>
<path d="M182.542 83.4995L182.528 83.4912L182.553 80.4004L181.879 80.0027L181.881 83.8172L179.412 85.1872L180.089 85.5877L182.484 84.2342L185.414 82.6543L185.657 82.2428L185.232 81.9886L182.542 83.4995Z" fill="#FFD200"/>
<path d="M183.803 85.3725L183.982 85.0742L183.803 84.9692V85.3725Z" fill="#FFD200"/>
<path d="M187.419 79.2737L187.687 78.8235L187.416 78.666L187.419 79.2737Z" fill="#FFD200"/>
<path d="M178.171 89.3554L178.204 86.2701L177.53 85.8696L177.552 89.7559L177.514 92.507L178.19 92.9075L178.21 90.0846L181.557 88.2561L180.881 87.8556L178.185 89.3637L178.171 89.3554Z" fill="#FFD200"/>
<path d="M180.256 91.3579L180.496 90.9574L180.256 90.8137V91.3579Z" fill="#FFD200"/>
<path d="M174.307 95.0094L174.293 95.0011L174.318 91.9131L173.644 91.5126L173.647 95.3271L171.178 96.6998L171.854 97.1003L174.249 95.7469L177.671 93.899L176.995 93.4985L174.307 95.0094Z" fill="#FFD200"/>
<path d="M170.002 97.8019V100.152C170.22 100.152 170.438 100.152 170.657 100.152L170.673 98.219L170.002 97.8019Z" fill="#FFD200"/>
<path d="M175.535 96.4622V98.2465C175.763 98.0626 175.982 97.8672 176.19 97.6609V96.8627L175.535 96.4622Z" fill="#FFD200"/>
<path d="M197.298 32.547L199.64 31.2239L198.983 30.8345L196.621 32.1465L197.298 32.547Z" fill="#FFD200"/>
<path d="M190.01 32.8454L190.686 33.246L193.081 31.8925L196.501 30.0447L195.827 29.6469L193.136 31.155L193.123 31.1467L193.15 28.0587L192.476 27.6582L192.479 31.4727L190.01 32.8454Z" fill="#FFD200"/>
<path d="M206.015 37.7094L207.293 36.9885C207.18 36.7979 207.059 36.61 206.929 36.436L205.338 37.3199L206.015 37.7094Z" fill="#FFD200"/>
<path d="M187.042 39.5323L189.437 38.1789L192.859 36.331L192.182 35.9333L189.492 37.4442L189.478 37.4359L189.506 34.3451L188.832 33.9446L188.835 37.7591L186.365 39.1318L187.042 39.5323Z" fill="#FFD200"/>
<path d="M194.107 40.8998L191.417 42.4107L191.403 42.4024L191.428 39.3143L190.754 38.9138L190.756 42.7283L188.287 44.0983L188.964 44.4988L191.359 43.1454L194.781 41.3003L194.107 40.8998Z" fill="#FFD200"/>
<path d="M201.075 39.9026L201.092 37.0797L204.439 35.2512L203.765 34.8507L201.067 36.3588L201.053 36.3505L201.089 33.2625L200.412 32.8647L200.434 36.751L200.398 39.5021L201.075 39.9026Z" fill="#FFD200"/>
<path d="M203.784 41.2946L203.817 38.2093L203.143 37.8088L203.165 41.6979L203.129 44.449L203.803 44.8495L203.822 42.0238L207.17 40.1953L206.496 39.7948L203.797 41.3029L203.784 41.2946Z" fill="#FFD200"/>
<path d="M195.01 36.0934L195.043 33.0082L194.369 32.6077L194.391 36.4967L194.355 39.2478L195.029 39.6483L195.049 36.8226L198.396 34.9941L197.72 34.5936L195.024 36.1017L195.01 36.0934Z" fill="#FFD200"/>
<path d="M197.177 41.9961L197.205 38.9081L196.531 38.5076L196.534 42.322L194.064 43.6948L194.741 44.0953L197.136 42.7419L200.555 40.894L199.881 40.4935L197.191 42.0044L197.177 41.9961Z" fill="#FFD200"/>
<path d="M200.172 47.4347L200.158 47.4264L200.183 44.3356L199.509 43.9351L199.511 47.7495L197.045 49.1223L197.719 49.5228L200.114 48.1694L203.536 46.3215L202.862 45.9238L200.172 47.4347Z" fill="#FFD200"/>
<path d="M193.162 44.96L193.184 48.8462L193.148 51.5973L193.822 51.9978L193.842 49.1722L197.189 47.3464L196.515 46.9459L193.817 48.4513L193.803 48.443L193.836 45.3577L193.162 44.96Z" fill="#FFD200"/>
<path d="M196.894 53.6025L196.88 53.5943L196.905 50.5035L196.231 50.1057L196.234 53.9174L193.768 55.2902L194.442 55.6907L196.836 54.3373L200.259 52.4922L199.585 52.0917L196.894 53.6025Z" fill="#FFD200"/>
<path d="M189.196 57.7015L189.213 54.8759L192.56 53.0474L191.887 52.6496L189.188 54.155L189.174 54.1467L189.21 51.0614L188.533 50.6609L188.555 54.5499L188.52 57.301L189.196 57.7015Z" fill="#FFD200"/>
<path d="M191.918 59.0991L191.905 59.0908L191.938 56.0055L191.264 55.6078L191.286 59.4941L191.25 62.2451L191.924 62.6456L191.943 59.8228L195.291 57.9943L194.614 57.5937L191.918 59.0991Z" fill="#FFD200"/>
<path d="M182.86 61.8916L185.255 60.5382L188.675 58.6931L188.001 58.2926L185.31 59.8035L185.296 59.7952L185.324 56.7044L184.65 56.3066L184.653 60.1184L182.184 61.4911L182.86 61.8916Z" fill="#FFD200"/>
<path d="M188.293 65.2312L188.279 65.2229L188.304 62.1349L187.63 61.7344L187.633 65.5488L185.166 66.9189L185.84 67.3221L188.235 65.9687L191.657 64.1208L190.983 63.7203L188.293 65.2312Z" fill="#FFD200"/>
<path d="M207.804 43.391L208.309 43.1147C208.366 42.8348 208.409 42.5531 208.439 42.2695L207.127 42.9987L207.804 43.391Z" fill="#FFD200"/>
<path d="M205.953 44.0928L205.956 47.9073L203.486 49.2773L204.163 49.6778L205.362 49.001L206.605 46.9018L206.627 44.4933L205.953 44.0928Z" fill="#FFD200"/>
<path d="M202.238 53.4453L202.274 50.36L201.598 49.9595L201.62 53.8458L201.6 55.3428L202.277 54.2021V54.1745L202.302 54.1606L202.954 53.0613L202.255 53.4535L202.238 53.4453Z" fill="#FFD200"/>
<path d="M198.359 59.091L198.387 56.0029L197.713 55.6024L197.715 59.4169L195.246 60.7897L195.923 61.1902L198.318 59.8367L199.229 59.3451L199.873 58.2596L198.373 59.0992L198.359 59.091Z" fill="#FFD200"/>
<path d="M194.718 65.3803L194.746 62.2895L194.072 61.889L194.075 65.7035L191.605 67.0763L192.282 67.4768L194.677 66.1234L195.467 65.698L196.108 64.6152L194.732 65.3886L194.718 65.3803Z" fill="#FFD200"/>
<path d="M410.859 250.552C410.859 265.26 409.917 273.003 406.738 280.09H213.086C219.881 200.492 234.161 181.193 227.386 184.134C211.589 195.246 196.754 204.596 178.472 210.814C172.696 212.777 166.484 214.496 160.568 213.007C154.886 211.576 150.246 207.3 147.166 202.315C144.086 197.329 142.374 191.639 140.771 186.002C140.106 182.687 137.496 187.203 127.635 187.203C121.006 187.203 121.73 178.519 121.636 174.155C121.448 165.637 119.962 141.498 122.312 137.786C124.215 134.784 128.665 131.306 131.499 129.146C145.757 118.236 167.774 111.082 170.461 110.795C178.913 109.897 179.245 112.32 177.408 126.939C176.629 133.135 175.058 148.699 179.477 147.304C189.57 140.88 197.096 131.884 207.148 123.752C216.637 116.149 227.547 110.514 239.241 107.179C250.731 103.939 261.338 101.79 276.123 112.328C279.534 132.016 283.948 154.359 292.229 172.542C297.087 165.008 300.78 156.785 303.184 148.15C303.551 146.829 303.924 145.437 304.879 144.454C305.708 143.592 308.793 141.888 309.931 141.49C327.993 135.176 367.903 118.468 367.903 126.111C368.046 130.13 357.959 134.875 359.475 135.414C362.98 136.463 369.54 139.482 374.501 141.568C385.619 142.396 392.563 140.004 403.503 145.504C407.837 147.686 414.552 155.309 416.209 169.501C419.626 198.426 410.867 225.439 410.859 250.552Z" fill="#80CECE"/>
<path d="M341.201 44.5841C349.057 49.5421 360.812 52.2268 369.985 50.727V71.8875C369.985 75.8953 369.469 79.3066 373.145 83.5878C374.756 85.4633 376.405 87.3084 373.767 89.4518C371.836 91.0179 365.881 95.5478 363.058 97.3708C361.335 98.4756 368.952 108.626 367.381 110.723C363.856 115.418 350.173 116.614 346.369 128.613C341.538 129.994 340.312 130.72 335.597 132.466C312.848 140.882 305.523 142.194 304.109 146.677C300.474 156.466 301.261 160.098 292.232 172.542C289.47 172.542 286.354 162.656 280.488 148.937C267.089 117.592 302.352 140.308 273.433 101.79C271.873 99.713 268.135 94.4733 266.368 92.5702C261.923 87.7835 258.551 87.3222 265.44 82.4692C267.771 80.8285 271.743 79.5524 271.373 76.7267L267.384 72.5118C266.724 71.8157 266.042 71.0782 265.801 70.1502C265.039 67.1754 268.84 65.3772 271.491 63.8498C279.026 59.5299 280.927 49.7851 284.863 42.0457C292.122 27.7684 308.959 19.0208 324.814 21.294C326.7 24.3765 330.172 37.6236 341.201 44.5841Z" fill="white"/>
<path d="M316.414 59.8947C319.306 59.0964 322.41 58.37 325.253 59.3119C326.841 59.8367 328.219 60.8421 329.553 61.853C338.22 68.4243 346.218 75.8351 353.429 83.9775C359.204 90.4989 327.65 99.9536 324.399 100.63C322.104 101.108 319.762 101.492 317.425 101.315C313.456 101.017 309.768 99.1277 306.503 96.8517C300.504 92.6671 288.398 81.2154 288.975 72.9125C289.514 65.2974 310.124 61.6321 316.414 59.8947Z" fill="#FE8013"/>
<path d="M301.713 25.4126C300.547 20.6313 302.21 14.0879 305.983 10.9225C307.896 9.36263 310.199 8.35438 312.644 8.00638C315.088 7.65838 317.581 7.98381 319.854 8.94763C326.939 -0.131429 339.857 -1.37162 349.514 4.04488C354.513 6.85118 358.479 11.1684 363.169 14.4691C367.86 17.7698 373.942 20.0568 379.297 18.0322C381.231 17.303 382.269 18.0322 383.623 19.6038C384.976 21.1755 385.418 23.3216 385.556 25.3877C385.804 29.0853 385.281 32.794 384.022 36.2791C382.762 39.7641 380.792 42.9497 378.237 45.634C376.918 47.0318 375.412 48.2402 373.762 49.2247C372.136 50.144 370.401 50.8548 368.597 51.3405C350.165 56.5471 330.723 42.1012 325.577 24.3878C325.348 23.6034 325.124 22.7499 324.486 22.2361C323.967 21.8163 323.268 21.7086 322.608 21.6257C315.374 20.7087 309.499 21.5622 301.704 25.4153" fill="#FE330A"/>
<path d="M165.869 45.6532C166.698 48.2495 166.584 51.821 164.057 52.8512C160.654 54.2323 152.942 47.2386 149.377 48.1253C147.313 48.639 149.128 51.3431 150.191 53.1827C150.675 54.0113 157.052 61.7866 153.989 64.9935C153.695 65.2791 153.327 65.477 152.926 65.5652C151.76 65.8536 150.538 65.8199 149.39 65.4677C148.242 65.1154 147.211 64.458 146.407 63.5654C145.427 62.4606 144.838 61.0022 143.722 60.0189C142.607 59.0356 140.579 58.7925 139.825 60.0741C139.405 60.784 139.549 61.6955 139.251 62.4689C138.698 63.9218 136.721 65.057 137.339 66.4795C138.005 68.0097 140.408 67.065 141.93 67.7473C142.451 68.0257 142.908 68.4095 143.272 68.8742C145.092 70.8961 146.957 72.9842 149.388 74.2106C151.818 75.437 154.984 75.6221 157.121 73.9344C159.549 72.0009 159.82 68.4571 159.798 65.3498C159.784 63.361 159.674 61.2066 158.417 59.6653C161.61 61.8999 166.253 62.8915 169.269 60.4222C171.333 58.729 172.062 55.873 172.114 53.2048C172.28 45.0842 169.33 38.2535 162.411 32.453C161.939 32.0581 158.677 29.5169 158.061 29.5666C157.257 29.6302 157.301 30.2516 157.398 31.0526C157.561 32.4171 161.044 37.5933 161.977 38.6844C163.719 40.7293 165.042 43.0972 165.869 45.6532Z" fill="#F2F2F2"/>
<path d="M156.875 28.6442C151.718 26.9373 144.824 29.6966 144.188 35.091C144.017 36.3427 144.027 37.6125 144.219 38.8613C136.468 36.1489 128.792 44.6617 133.447 52.9701C128.593 53.0806 125.641 56.9144 126.511 61.7012C127.025 64.4909 149.113 71.8133 156.043 64.6898C157.198 63.5048 156.778 61.0659 158.399 59.6545C161.858 56.6438 167.514 54.2435 167.619 50.0589C167.876 40.3666 158.684 29.2436 156.875 28.6442Z" fill="white"/>
<path d="M165.869 45.6532C166.698 48.2495 166.584 51.821 164.057 52.8512C160.654 54.2323 152.942 47.2386 149.377 48.1253C147.313 48.639 149.128 51.3431 150.191 53.1827C150.675 54.0113 157.052 61.7866 153.989 64.9935C153.695 65.2791 153.327 65.477 152.926 65.5652C151.76 65.8536 150.538 65.8199 149.39 65.4677C148.242 65.1154 147.211 64.458 146.407 63.5654C145.427 62.4606 144.838 61.0022 143.722 60.0189C142.607 59.0356 140.579 58.7925 139.825 60.0741C139.405 60.784 139.549 61.6955 139.251 62.4689C138.698 63.9218 136.721 65.057 137.339 66.4795C138.005 68.0097 140.408 67.065 141.93 67.7473C142.451 68.0257 142.908 68.4095 143.272 68.8742C145.092 70.8961 146.957 72.9842 149.388 74.2106C151.818 75.437 154.984 75.6221 157.121 73.9344C159.549 72.0009 159.82 68.4571 159.798 65.3498C159.784 63.361 159.674 61.2066 158.417 59.6653C161.61 61.8999 166.253 62.8915 169.269 60.4222C171.333 58.729 172.062 55.873 172.114 53.2048C172.28 45.0842 169.33 38.2535 162.411 32.453C161.939 32.0581 158.677 29.5169 158.061 29.5666C157.257 29.6302 157.301 30.2516 157.398 31.0526C157.561 32.4171 161.044 37.5933 161.977 38.6844C163.719 40.7293 165.042 43.0972 165.869 45.6532Z" fill="#F2F2F2"/>
<path d="M316.03 82.6961C323.806 85.2621 332.051 84.6958 340.24 84.3285C340.909 84.2981 342.331 84.1572 342.967 84.3616C344.168 84.7483 343.986 85.5852 343.422 85.9388C341.489 87.1514 332.573 89.2147 326.187 89.1649C321.185 89.1263 316.354 88.444 311.735 86.5188C307.019 84.4961 302.798 81.4716 299.367 77.6552C297.82 75.9261 296.022 73.9319 296.605 73.1972C297.265 72.3824 299.596 73.4734 300.563 74.1556C302.159 75.2577 308.551 80.2268 316.03 82.6961Z" fill="#FE330A"/>
<path d="M297.046 44.1036C296.129 44.0456 295.173 44.0207 294.336 44.3798C293.499 44.7389 292.814 45.6366 292.975 46.5425C293.168 47.6474 294.397 48.1998 295.46 48.5119C301.463 50.288 307.851 50.6001 313.743 52.7103C314.527 53.0259 315.334 53.2799 316.157 53.4699C317.176 53.6209 318.209 53.6497 319.234 53.5555C319.706 53.5307 320.223 53.4865 320.56 53.1578C321.231 52.4976 320.654 51.3486 319.949 50.7244C318.626 49.5505 316.936 48.8903 315.254 48.3048C309.473 46.2718 303.183 44.493 297.046 44.1036Z" fill="black"/>
<path d="M299.567 52.6111C300.134 53.8016 301.128 54.8374 302.393 55.2075C304.434 55.8069 306.688 54.4783 307.663 52.5862C308.24 51.4676 308.45 50.1003 307.939 48.9402C307.428 47.7802 306.34 47.0206 305.158 46.656C303.976 46.2914 302.711 46.2941 301.476 46.3549C301.118 46.3516 300.763 46.4153 300.429 46.5427C298.349 47.4901 298.802 51.0008 299.567 52.6111Z" fill="black"/>
<path d="M336.56 54.1303C335.411 54.6109 334.163 55.724 334.627 56.8731C334.98 57.7293 336.063 57.9614 336.983 58.0553C341.212 58.4917 345.612 58.5331 349.457 60.3451C351.208 61.1737 352.771 62.3365 354.522 63.1817C355.765 63.7839 357.511 64.1015 358.317 62.9801C358.903 62.168 358.629 61.0135 358.121 60.1489C357.066 58.3591 355.196 57.2211 353.34 56.282C348.352 53.785 341.993 51.8599 336.56 54.1303Z" fill="black"/>
<path d="M338.696 59.6599C338.279 60.3097 338.048 61.0618 338.03 61.8337C337.92 64.0075 339.157 66.2531 341.162 67.1094C341.97 67.4411 342.852 67.5519 343.717 67.4306C344.582 67.3092 345.399 66.96 346.085 66.4188C346.384 66.1721 346.656 65.8943 346.897 65.5902C347.6 64.7433 348.026 63.7011 348.118 62.6044C348.159 62.0585 348.09 61.5099 347.916 60.9909C347.742 60.4719 347.466 59.9931 347.104 59.5826C346.459 58.9481 345.674 58.4749 344.811 58.2016C342.856 57.4862 339.983 57.7845 338.696 59.6599Z" fill="black"/>
<path d="M287.103 181.267C286.74 181.863 286.541 182.545 286.526 183.242C286.512 183.94 286.682 184.629 287.02 185.239C287.273 185.703 287.622 186.107 288.043 186.426C288.465 186.744 288.949 186.97 289.464 187.087C289.982 187.196 290.519 187.171 291.024 187.016C291.53 186.861 291.988 186.581 292.356 186.201C292.908 185.587 293.185 184.762 293.373 183.952C293.649 182.756 293.707 181.312 292.781 180.505C291.152 179.083 288.265 179.469 287.103 181.267Z" fill="#F2F2F2"/>
<path d="M311.324 189.86C312.635 189.431 314.054 189.462 315.346 189.946C316.127 194.597 315.655 200.79 315.423 205.966C314.442 206.024 311.28 206.328 311.194 205.339C311.092 204.298 311.106 200.58 311.122 199.652C311.142 198.652 310.816 190.029 311.324 189.86Z" fill="white"/>
<path d="M311.092 197.721C311.186 198.589 315.846 198.666 315.763 197.898C315.846 194.161 315.716 192.976 315.66 189.708C315.556 188.725 311.12 188.706 311.078 189.775C310.918 193.727 311.089 197.716 311.092 197.721Z" fill="#FF8000"/>
<path d="M322.22 205.093C320.911 200.644 319.593 196.197 318.268 191.752C319.552 191.237 320.89 190.866 322.256 190.647C323.893 195.468 325.452 200.315 326.932 205.187C325.339 205.071 323.814 205.22 322.22 205.093Z" fill="white"/>
<path d="M320.238 198.39C321.312 198.486 323.519 198.088 324.466 197.326C323.431 193.757 322.967 192.644 322.108 189.868C321.663 188.432 317.21 189.728 317.688 191.147C318.42 193.183 320.017 197.964 320.238 198.39Z" fill="#FF8000"/>
<path d="M283.558 120.12C284.414 121.667 289.778 127.881 290.041 129.63C288.124 152.953 293.038 170.7 295.14 169.733C288.939 182.527 281.111 161.667 277.628 154.395C274.681 148.241 273.319 141.46 272.228 134.723C271.195 128.332 270.383 121.766 271.653 115.419C272.363 111.867 273.769 110.259 276.136 112.32C278.418 114.308 282.064 117.421 283.558 120.12Z" fill="#8AD2D4"/>
<path d="M282.366 117.512C282.024 117.501 281.683 117.563 281.366 117.695C280.728 118.012 280.493 118.844 280.64 119.542C280.786 120.241 281.225 120.832 281.651 121.404L288.432 130.439C286.167 130.991 283.675 131.71 282.441 133.69C281.082 135.869 281.786 138.706 282.653 141.123C284.018 144.937 285.893 148.169 287.332 151.956C290.962 161.493 293.356 169.962 294.445 169.481C295.166 165.214 291.056 145.305 290.302 141.032C290.092 139.841 289.909 138.399 290.832 137.618C291.754 136.836 293.318 137.203 294.226 136.372C295.229 135.438 294.679 133.776 294.019 132.574C293.327 131.315 292.585 130.084 291.793 128.881C290.915 127.547 289.929 126.064 290.205 124.489C294.825 124.596 299.435 124.958 304.015 125.572C305.695 125.799 309.788 126.318 307.943 123.94C306.653 122.294 288.285 117.311 282.366 117.512Z" fill="#F2F2F2"/>
<path d="M300.767 49.8626C300.619 50.1545 300.547 50.4784 300.555 50.8053C300.564 51.1321 300.654 51.4517 300.816 51.7353C300.888 51.8681 300.981 51.9876 301.093 52.0889C301.364 52.2846 301.689 52.3934 302.023 52.401C302.363 52.4452 302.708 52.4064 303.029 52.2878C303.233 52.1926 303.416 52.0576 303.568 51.8906C303.719 51.7237 303.835 51.5281 303.91 51.3155C304.057 50.8881 304.108 50.4335 304.059 49.9842C304.057 49.8899 304.039 49.7966 304.007 49.708C303.941 49.5795 303.846 49.4679 303.73 49.382C302.78 48.5589 301.405 48.639 300.767 49.8626Z" fill="#2B2729"/>
<path d="M343.016 62.1541C343.215 61.4636 342.87 60.3421 342.188 60.019C341.58 59.7428 340.831 60.0963 340.384 60.4968C340.284 60.5816 340.198 60.6824 340.13 60.7951C340.055 60.9412 340.01 61.1009 339.997 61.2647C339.952 61.5362 339.975 61.8147 340.064 62.0751C340.153 62.3355 340.306 62.5696 340.508 62.7562C340.916 63.0509 341.408 63.205 341.911 63.1954C342.175 63.143 342.418 63.0175 342.613 62.8334C342.809 62.6492 342.948 62.4138 343.016 62.1541Z" fill="#2B2729"/>
<path d="M323.084 159.549C325.067 160.717 327.266 161.933 329.539 161.554C330.973 161.314 332.221 160.463 333.406 159.621C340.009 154.895 346.207 149.629 351.937 143.877C353.072 142.739 354.768 141.156 354.017 139.733C353.428 138.629 349.741 141.485 348.161 142.603C343.189 146.111 333.541 152.746 329.713 153.351C325.294 154.049 318.479 150.547 312.737 148.931C306.304 147.122 308.533 150.312 310.643 151.566C314.588 153.895 319.14 157.22 323.084 159.549Z" fill="#0A51A1"/>
<path d="M358.589 170.374C358.608 171.028 358.727 172.741 359.219 173.174C359.815 173.696 360.533 174.067 361.133 173.547C361.732 173.028 362.006 170.995 362.122 170.211C363.826 158.773 365.121 155.765 368.823 148.964C369.375 147.934 370.612 146.316 369.61 145.705C368.916 145.283 367.953 145.586 367.345 146.136C363.854 149.346 362.042 153.24 360.754 156.933C359.147 161.546 358.426 165.068 358.589 170.374Z" fill="#0A51A1"/>
<path d="M162.591 163.013C163.019 162.289 163.875 161.527 164.541 162.04C165.022 162.413 164.43 165.33 163.928 166.891C163.127 169.376 161.608 171.586 160.014 173.663C159.028 174.993 157.942 176.246 156.766 177.411C153.91 180.151 146.786 183.615 145.913 182.745C144.372 181.204 149.435 179.455 153.923 174.978C157.277 171.605 160.152 167.114 162.591 163.013Z" fill="#0A51A1"/>
<path d="M354.54 210.696C353.305 225.114 352.179 240.47 353.905 254.855C354.529 260.069 347.876 264.012 343.48 267.757C340.226 270.53 336.878 272.935 334.027 276C333.193 276.898 330.63 279.171 331.556 279.943C332.331 280.59 335.787 278.495 337.036 277.666C343.877 273.128 350.389 268.254 356.537 263.071C357.377 262.364 358.233 261.62 358.639 260.684C358.973 259.916 358.979 259.081 358.979 258.263C358.979 250.135 357.608 241.764 357.159 233.656C356.621 224.108 357.105 218.42 357.159 210.599C357.159 210.036 356.976 209.027 356.637 208.538C356.298 208.048 354.863 207.864 354.543 210.694" fill="#0A51A1"/>
<path d="M131.565 170.202C129.508 170.774 128.163 173.18 128.756 175.232C129.35 177.284 131.77 178.602 133.817 177.994C135.863 177.387 137.156 174.956 136.518 172.906C135.966 171.128 133.504 169.636 131.568 170.211" fill="#0A51A1"/>
<path d="M246.996 120.573C245.573 121.045 243.902 121.816 243.761 123.307C243.684 124.136 244.087 124.964 244.62 125.597C246.634 128.014 252.296 129.55 256.343 132.201C279.967 147.669 280.594 167.258 284.166 167.258C285.994 167.258 284.826 155.544 276.807 141.57C270.819 131.124 253.901 125.257 253.901 124.15C253.901 122.581 266.69 118.258 270.333 116.087C274.498 113.601 272.863 112.999 270.057 113.723C267.25 114.446 264.905 114.908 262.505 115.656C257.318 117.22 252.148 118.858 246.996 120.573Z" fill="#0A51A1"/>
<path d="M303.613 211.151C306.235 213.441 314.582 218.97 317.203 221.26C317.466 221.53 317.791 221.731 318.15 221.846C318.658 221.962 319.175 221.724 319.642 221.495L335.11 213.869L336.659 207.074C336.742 206.704 336.808 206.262 336.54 205.994C336.333 205.832 336.077 205.746 335.814 205.751C329.185 205.149 322.57 204.547 315.927 204.419C313.811 204.378 304.326 202.235 304.279 203.718C304.171 207.378 303.677 209.035 303.613 211.151Z" fill="#0A51A1"/>
<path d="M327.094 123.838C328.752 123.139 330.387 122.194 332.188 122.142C332.906 122.122 333.704 122.294 334.121 122.882C334.582 123.542 334.362 124.501 333.823 125.092C333.284 125.683 332.5 126 331.737 126.257C327.612 127.641 323.208 127.982 318.919 127.252C318.09 127.111 315.378 126.735 315.549 125.564C315.687 124.606 318.338 125.072 319.098 125.105C322.023 125.241 324.39 124.978 327.094 123.838Z" fill="#F2F2F2"/>
<defs>
<filter id="filter0_d" x="0" y="280.186" width="580" height="37.8138" filterUnits="userSpaceOnUse" color-interpolation-filters="sRGB">
<feFlood flood-opacity="0" result="BackgroundImageFix"/>
<feColorMatrix in="SourceAlpha" type="matrix" values="0 0 0 0 0 0 0 0 0 0 0 0 0 0 0 0 0 0 127 0"/>
<feOffset dy="6"/>
<feGaussianBlur stdDeviation="3"/>
<feColorMatrix type="matrix" values="0 0 0 0 0 0 0 0 0 0 0 0 0 0 0 0 0 0 0.5 0"/>
<feBlend mode="normal" in2="BackgroundImageFix" result="effect1_dropShadow"/>
<feBlend mode="normal" in="SourceGraphic" in2="effect1_dropShadow" result="shape"/>
</filter>
</defs>
</svg>
