<svg width="893" height="451" viewBox="0 0 893 451" fill="none" xmlns="http://www.w3.org/2000/svg">
<rect x="846.732" y="266.305" width="30.2083" height="19.3333" transform="rotate(-31.5 846.732 266.305)" fill="black"/>
<path d="M861.485 292.694L834.662 303.707L833.163 299.347L832.448 296.267L831.666 288.292L851.384 276.209L861.485 292.694Z" fill="black"/>
<path fill-rule="evenodd" clip-rule="evenodd" d="M1002.1 258.94C1000.97 258.856 1000.41 259.075 999.984 259.242C999.376 259.481 999.035 259.616 997.671 258.618C996.776 257.983 996.322 256.676 995.914 255.503C995.705 254.901 995.508 254.335 995.27 253.912C992.674 249.326 991.776 249.46 986.939 252.069C986.178 252.484 985.057 253.392 983.572 254.595C975.89 260.819 958.461 274.94 930.678 269.56C923.329 268.142 916.346 264.005 909.823 260.141L909.823 260.141C908.079 259.108 906.368 258.094 904.691 257.157L903.817 256.671C889.357 248.628 874.126 240.157 857.613 245.341C839.957 250.895 831.762 267.313 831.525 285.116C831.475 289.218 831.839 293.317 832.611 297.352C833.921 295.909 835.529 294.246 836.939 292.787C837.858 291.837 838.693 290.974 839.307 290.314C839.987 289.583 840.655 288.628 841.348 287.638C842.777 285.596 844.309 283.407 846.257 282.728C847.453 284.018 847.995 287.978 846.824 289.329C845.843 290.479 844.97 289.817 843.949 288.389C843.741 288.628 843.539 288.862 843.34 289.092L843.34 289.092C841.456 291.27 839.914 293.054 837.4 295.104C836.813 295.584 836.062 296.31 835.255 297.088C834.512 297.805 833.723 298.566 832.975 299.221C836.365 314.755 844.876 328.555 851.725 338.819C863.241 356.075 882.883 371.663 902.571 378.538C912.33 381.961 920.277 383.553 930.76 384.533C961.728 387.437 987.288 370.616 998.596 358.776C1013.12 343.569 1021.68 325.699 1020.85 310.189C1020.44 302.627 1020.23 297.768 1020.09 294.502L1020.09 294.502L1020.09 294.502C1019.84 288.807 1019.8 287.959 1019.31 286.077C1019.08 285.226 1018.87 284.386 1018.67 283.554C1017.92 280.527 1017.2 277.615 1015.73 274.703L1015.5 274.234C1012.87 268.983 1008.06 259.385 1002.1 258.94ZM867.382 261.344C866.525 262.085 864.952 263.965 863.197 266.064C859.94 269.958 856.054 274.604 854.95 274.111C852.962 272.242 866.378 258.168 870.218 255.12C874.394 259.81 870.172 266.784 867.382 261.344ZM995.896 308.682C996.004 308.389 996.11 308.1 996.219 307.816L996.21 307.814C996.257 307.366 995.558 308.203 994.726 309.197C993.994 310.073 993.159 311.072 992.643 311.42C992.162 311.748 991.682 312.08 991.202 312.411C989.866 313.334 988.53 314.257 987.154 315.101C986.744 315.352 986.334 315.61 985.923 315.868C984.233 316.93 982.519 318.008 980.669 318.72C979.677 319.099 978.66 319.406 977.643 319.712C976.592 320.028 975.541 320.345 974.522 320.741C972.367 321.634 970.137 322.337 967.857 322.842C967.66 322.881 967.451 322.907 967.246 322.932C966.385 323.04 965.594 323.139 966.047 324.151C966.314 324.744 967.076 325.141 967.854 325.545C968.554 325.909 969.266 326.279 969.642 326.805C970.575 328.102 969.951 328.608 968.684 329.492C965.383 331.793 959.675 331.554 955.861 331.32C951.147 331.028 946.552 330.493 941.826 329.93C940.668 329.791 939.507 329.676 938.344 329.562C935.796 329.31 933.24 329.057 930.695 328.544C926.989 327.796 923.458 325.86 920.343 323.716C920.302 323.687 920.236 323.641 920.15 323.58C918.881 322.688 913.106 318.63 914.152 320.676C919.882 324.933 926.244 328.25 933 330.505C941.804 333.433 950.966 336.358 960.283 334.934C961.268 334.784 962.233 334.678 963.186 334.574C965.77 334.292 968.258 334.02 970.769 332.893C972.426 332.148 975.038 330.934 974.758 328.665C974.53 326.744 972.38 325.665 970.64 324.792C970.216 324.58 969.817 324.379 969.475 324.182C969.956 323.971 970.412 323.735 970.865 323.501C971.826 323.004 972.771 322.516 973.909 322.291C974.459 322.182 975.005 322.081 975.547 321.98C978.139 321.498 980.649 321.032 983.114 319.885C983.223 319.834 983.333 319.783 983.442 319.732C987.196 317.981 990.894 316.255 993.657 313.061C994.754 311.794 995.341 310.194 995.896 308.682Z" fill="white"/>
<path d="M845.501 269.925C844.317 275.904 836.117 280.283 832.106 281.451C826.335 283.113 819.021 283.387 815.056 277.053C809.82 268.696 816.929 260.622 824.734 258.628C814.182 246.377 831.58 233.297 842.886 242.68C846.402 235.872 858.433 237.646 861.483 244.225C856.644 246.661 854.235 249.09 851.501 254.39C850.32 256.649 846.333 264.799 845.531 269.937" fill="#B7433C"/>
<path d="M857.528 289.458C852.698 295.884 848.336 302.661 844.474 309.738C842.327 313.76 838.189 319.476 845.418 319.356C855.666 319.184 865.275 310.668 874.235 307.426C876.067 306.754 876.143 305.925 873.762 306.241C872.045 306.614 870.153 307.615 868.521 308.276C866.143 309.236 863.276 310.906 860.363 311.784C853.176 313.954 852.542 316.268 845.515 316.542C843.418 316.619 851.442 303.849 852.856 300.813C854.422 297.486 859.215 288.913 857.502 289.466" fill="#CC9E4F"/>
<path d="M854.227 309.458C856.394 307.862 858.057 305.629 859.037 304.928C860.724 303.718 862.929 302.024 865.109 302.211C866.932 302.367 870.012 303.284 870.002 300.352C870.008 298.121 867.447 297.573 865.856 297.719C864.264 297.866 862.278 299.166 861.168 300.382C859.919 301.666 858.6 302.874 857.217 304.001C854.541 306.821 851.628 310.188 852.611 310.439C853.272 310.386 853.648 309.805 854.207 309.462" fill="#CC9E4F"/>
<path fill-rule="evenodd" clip-rule="evenodd" d="M684.754 181.191C718.634 163.866 740 144.051 740 123C740 55.069 677 0 370 0C165.655 0 0 55.069 0 123C0 157.013 55.7815 187.802 130 210.068C204.01 232.271 296.354 246 370 246C447.975 246 546.911 230.61 622.854 206.066C625.414 207.933 627.967 210.068 630.5 212.5C668 248.5 802.5 281 802.5 281C725.359 243.439 703.678 211.751 684.754 181.191Z" fill="white"/>
</svg>
