<svg width="224" height="309" viewBox="0 0 224 309" fill="none" xmlns="http://www.w3.org/2000/svg">
<g filter="url(#filter0_d)">
<rect x="19.5" y="13.5" width="198" height="283" rx="13.5" fill="#1C1600" stroke="#DEC46D"/>
<rect x="17.5" y="11.5" width="198" height="283" rx="13.5" fill="#322701" stroke="#DEC46D"/>
<rect x="15.5" y="9.5" width="198" height="283" rx="13.5" fill="#503E02" stroke="#DEC46D"/>
<rect x="13.5" y="7.5" width="198" height="283" rx="13.5" fill="#8C6C00" stroke="#DEC46D"/>
<rect x="11.5" y="5.5" width="198" height="283" rx="13.5" fill="#A68000" stroke="#DEC46D"/>
<rect x="9.5" y="3.5" width="198" height="283" rx="13.5" fill="#C69901" stroke="#DEC46D"/>
<path fill-rule="evenodd" clip-rule="evenodd" d="M7 270.46C7 278.192 13.268 284.46 21 284.46H191.43C199.162 284.46 205.43 278.192 205.43 270.46V15C205.43 7.26802 199.162 1 191.43 1H21C13.268 1 7 7.26801 7 15V270.46Z" fill="#F7CB36" stroke="#ECB600"/>
<path fill-rule="evenodd" clip-rule="evenodd" d="M86.747 146.785L86.144 144.289C85.002 146.17 83.318 147.109 81.095 147.109C78.824 147.109 76.949 146.316 75.469 144.728C73.988 143.141 73.248 141.131 73.248 138.696C73.248 136.292 74.038 134.289 75.619 132.686C77.199 131.083 79.117 130.282 81.373 130.282C82.9 130.282 84.282 130.638 85.517 131.348C86.752 132.059 87.67 133.01 88.272 134.202L86.376 135.53C85.218 133.48 83.535 132.455 81.327 132.455C79.767 132.455 78.446 133.034 77.365 134.19C76.285 135.347 75.744 136.846 75.744 138.686C75.744 140.526 76.242 142.013 77.238 143.145C78.234 144.277 79.535 144.844 81.142 144.844C82.547 144.844 83.646 144.441 84.441 143.635C85.237 142.828 85.727 141.745 85.913 140.383H80.46V138.395H88.411V146.785H86.747Z" fill="#1A1919"/>
<path fill-rule="evenodd" clip-rule="evenodd" d="M96.3295 143.145C97.3725 144.277 98.6955 144.844 100.303 144.844C101.908 144.844 103.232 144.277 104.275 143.145C105.317 142.013 105.839 140.53 105.839 138.696C105.839 136.862 105.317 135.379 104.275 134.246C103.232 133.114 101.908 132.547 100.303 132.547C98.6955 132.547 97.3725 133.114 96.3295 134.246C95.2875 135.379 94.7665 136.862 94.7665 138.696C94.7665 140.53 95.2875 142.013 96.3295 143.145ZM106.045 132.663C107.571 134.25 108.335 136.261 108.335 138.696C108.335 141.131 107.571 143.142 106.045 144.728C104.518 146.316 102.603 147.109 100.303 147.109C98.0015 147.109 96.0875 146.316 94.5605 144.728C93.0335 143.142 92.2695 141.131 92.2695 138.696C92.2695 136.261 93.0335 134.25 94.5605 132.663C96.0875 131.076 98.0015 130.282 100.303 130.282C102.603 130.282 104.518 131.076 106.045 132.663Z" fill="#1A1919"/>
<path fill-rule="evenodd" clip-rule="evenodd" d="M117.878 133.449C117.724 133.927 117.539 134.443 117.323 134.998L115.359 140.106H120.398L118.433 134.998L117.878 133.449ZM110.158 146.785L116.63 130.606H119.127L125.599 146.785H122.964L121.23 142.279H114.526L112.793 146.785H110.158Z" fill="#1A1919"/>
<path fill-rule="evenodd" clip-rule="evenodd" d="M125.615 132.871V130.606H138.096V132.871H133.104V146.785H130.608V132.871H125.615Z" fill="#1A1919"/>
<mask id="mask0" mask-type="alpha" maskUnits="userSpaceOnUse" x="7" y="139" width="13" height="23">
<path fill-rule="evenodd" clip-rule="evenodd" d="M7 139.223H19.5837V161.254H7V139.223Z" fill="white"/>
</mask>
<g mask="url(#mask0)">
<path fill-rule="evenodd" clip-rule="evenodd" d="M9.25983 152.064L1.54883 139.223H4.56983L10.5188 149.514H10.5818L16.5618 139.223H19.5828L12.0788 151.857L17.5678 161.254H14.5408L9.25983 152.064Z" fill="#FFFFFE"/>
</g>
<path fill-rule="evenodd" clip-rule="evenodd" d="M25.4834 172.286H22.4564L27.9454 162.889L20.4414 150.255H23.4624L29.4424 160.547H29.5054L35.4544 150.255H38.4764L30.7644 163.096L25.4834 172.286Z" fill="#FFFFFE"/>
<mask id="mask1" mask-type="alpha" maskUnits="userSpaceOnUse" x="7" y="167" width="9" height="23">
<path fill-rule="evenodd" clip-rule="evenodd" d="M7 167.216H15.4475V189.248H7V167.216Z" fill="white"/>
</mask>
<g mask="url(#mask1)">
<path fill-rule="evenodd" clip-rule="evenodd" d="M5.12311 180.058L-2.58789 167.216H0.434109L6.38211 177.508H6.44511L12.4251 167.216H15.4471L7.94311 179.851L13.4311 189.248H10.4051L5.12311 180.058Z" fill="#FFFFFE"/>
</g>
<path fill-rule="evenodd" clip-rule="evenodd" d="M23.877 191.089L16.166 178.248H19.188L25.136 188.54H25.199L31.179 178.248H34.201L26.697 190.882L32.186 200.279H29.159L23.877 191.089Z" fill="#FFFFFE"/>
<mask id="mask2" mask-type="alpha" maskUnits="userSpaceOnUse" x="7" y="193" width="7" height="23">
<path fill-rule="evenodd" clip-rule="evenodd" d="M7 193.555H13.6546V215.586H7V193.555Z" fill="white"/>
</mask>
<g mask="url(#mask2)">
<path fill-rule="evenodd" clip-rule="evenodd" d="M0.66114 215.586H-2.36486L3.12314 206.189L-4.38086 193.555H-1.35886L4.62114 203.847H4.68414L10.6321 193.555H13.6541L5.94314 206.396L0.66114 215.586Z" fill="#FFFFFE"/>
</g>
<path fill-rule="evenodd" clip-rule="evenodd" d="M21.208 227.721H18.181L23.67 218.324L16.166 205.69H19.187L25.167 215.982H25.23L31.179 205.69H34.201L26.49 218.531L21.208 227.721Z" fill="#FFFFFE"/>
<mask id="mask3" mask-type="alpha" maskUnits="userSpaceOnUse" x="7" y="221" width="9" height="23">
<path fill-rule="evenodd" clip-rule="evenodd" d="M7 221.548H15.1717V243.579H7V221.548Z" fill="white"/>
</mask>
<g mask="url(#mask3)">
<path fill-rule="evenodd" clip-rule="evenodd" d="M4.84772 234.389L-2.86328 221.548H0.158719L6.10672 231.84H6.16972L12.1497 221.548H15.1717L7.66772 234.182L13.1567 243.579H10.1297L4.84772 234.389Z" fill="#FFFFFE"/>
</g>
<path fill-rule="evenodd" clip-rule="evenodd" d="M22.4502 254.61H19.4232L24.9122 245.214L17.4082 232.579H20.4292L26.4092 242.871H26.4722L32.4212 232.579H35.4422L27.7312 245.421L22.4502 254.61Z" fill="#FFFFFE"/>
<mask id="mask4" mask-type="alpha" maskUnits="userSpaceOnUse" x="7" y="249" width="5" height="23">
<path fill-rule="evenodd" clip-rule="evenodd" d="M7 249.541H11.0339V271.572H7V249.541Z" fill="white"/>
</mask>
<g mask="url(#mask4)">
<path fill-rule="evenodd" clip-rule="evenodd" d="M0.711 262.382L-7 249.541H-3.978L1.97 259.832H2.033L8.013 249.541H11.034L3.53 262.175L9.019 271.572H5.993L0.711 262.382Z" fill="#FFFFFE"/>
</g>
<path fill-rule="evenodd" clip-rule="evenodd" d="M19.4649 273.414L11.7539 260.572H14.7759L20.7239 270.864H20.7869L26.7669 260.572H29.7889L22.2839 273.206L27.7729 282.603H24.7469L19.4649 273.414Z" fill="#FFFFFE"/>
<path fill-rule="evenodd" clip-rule="evenodd" d="M47.045 152.064L39.334 139.223H42.356L48.304 149.514H48.367L54.347 139.223H57.368L49.864 151.857L55.353 161.254H52.326L47.045 152.064Z" fill="#FFFFFE"/>
<path fill-rule="evenodd" clip-rule="evenodd" d="M42.583 187.593H39.556L45.045 178.196L37.541 165.562H40.562L46.542 175.854H46.605L52.554 165.562H55.576L47.865 178.403L42.583 187.593Z" fill="#FFFFFE"/>
<path fill-rule="evenodd" clip-rule="evenodd" d="M42.8584 215.586H39.8314L45.3204 206.189L37.8164 193.555H40.8374L46.8174 203.847H46.8804L52.8294 193.555H55.8514L48.1394 206.396L42.8584 215.586Z" fill="#FFFFFE"/>
<path fill-rule="evenodd" clip-rule="evenodd" d="M58.9932 228.272H55.9672L61.4552 218.875L53.9512 206.241H56.9722L62.9522 216.533H63.0152L68.9642 206.241H71.9862L64.2752 219.082L58.9932 228.272Z" fill="#FFFFFE"/>
<path fill-rule="evenodd" clip-rule="evenodd" d="M81.795 180.058L74.084 167.216H77.106L83.054 177.508H83.117L89.097 167.216H92.118L84.614 179.851L90.103 189.248H87.077L81.795 180.058Z" fill="#FFFFFE"/>
<path fill-rule="evenodd" clip-rule="evenodd" d="M100.549 191.089L92.8379 178.248H95.8599L101.808 188.54H101.871L107.851 178.248H110.873L103.368 190.882L108.857 200.279H105.831L100.549 191.089Z" fill="#FFFFFE"/>
<path fill-rule="evenodd" clip-rule="evenodd" d="M61.2481 191.089L53.5371 178.248H56.5591L62.5071 188.54H62.5701L68.5501 178.248H71.5721L64.0681 190.882L69.5561 200.279H66.5301L61.2481 191.089Z" fill="#FFFFFE"/>
<path fill-rule="evenodd" clip-rule="evenodd" d="M77.333 215.586H74.306L79.795 206.189L72.291 193.555H75.312L81.292 203.847H81.355L87.304 193.555H90.326L82.615 206.396L77.333 215.586Z" fill="#FFFFFE"/>
<path fill-rule="evenodd" clip-rule="evenodd" d="M97.8779 227.721H94.8519L100.34 218.324L92.8359 205.69H95.8579L101.838 215.982H101.901L107.85 205.69H110.871L103.16 218.531L97.8779 227.721Z" fill="#FFFFFE"/>
<path fill-rule="evenodd" clip-rule="evenodd" d="M42.6309 234.389L34.9199 221.548H37.9409L43.8899 231.84H43.9529L49.9329 221.548H52.9539L45.4499 234.182L50.9389 243.579H47.9119L42.6309 234.389Z" fill="#FFFFFE"/>
<path fill-rule="evenodd" clip-rule="evenodd" d="M58.7158 254.61H55.6898L61.1778 245.214L53.6738 232.579H56.6958L62.6748 242.871H62.7378L68.6868 232.579H71.7088L63.9978 245.421L58.7158 254.61Z" fill="#FFFFFE"/>
<path fill-rule="evenodd" clip-rule="evenodd" d="M38.169 269.917H35.142L40.631 260.52L33.127 247.886H36.148L42.128 258.178H42.191L48.14 247.886H51.162L43.45 260.728L38.169 269.917Z" fill="#FFFFFE"/>
<path fill-rule="evenodd" clip-rule="evenodd" d="M81.5176 234.389L73.8066 221.548H76.8286L82.7766 231.84H82.8396L88.8196 221.548H91.8406L84.3366 234.182L89.8256 243.579H86.7996L81.5176 234.389Z" fill="#FFFFFE"/>
<path fill-rule="evenodd" clip-rule="evenodd" d="M99.1201 254.61H96.0941L101.582 245.214L94.0781 232.579H97.0991L103.079 242.871H103.142L109.092 232.579H112.113L104.402 245.421L99.1201 254.61Z" fill="#FFFFFE"/>
<mask id="mask5" mask-type="alpha" maskUnits="userSpaceOnUse" x="33" y="275" width="19" height="10">
<path fill-rule="evenodd" clip-rule="evenodd" d="M33.4023 275.879H51.4373V284.46H33.4023V275.879Z" fill="white"/>
</mask>
<g mask="url(#mask5)">
<path fill-rule="evenodd" clip-rule="evenodd" d="M38.4443 297.91H35.4183L40.9063 288.513L33.4023 275.879H36.4243L42.4043 286.171H42.4673L48.4153 275.879H51.4373L43.7263 288.72L38.4443 297.91Z" fill="#FFFFFE"/>
</g>
<path fill-rule="evenodd" clip-rule="evenodd" d="M77.3809 262.382L69.6699 249.541H72.6909L78.6399 259.832H78.7029L84.6829 249.541H87.7039L80.1999 262.175L85.6889 271.572H82.6619L77.3809 262.382Z" fill="#FFFFFE"/>
<path fill-rule="evenodd" clip-rule="evenodd" d="M96.1348 273.414L88.4238 260.572H91.4458L97.3938 270.864H97.4568L103.437 260.572H106.458L98.9538 273.206L104.443 282.603H101.416L96.1348 273.414Z" fill="#FFFFFE"/>
<path fill-rule="evenodd" clip-rule="evenodd" d="M56.834 273.414L49.123 260.572H52.145L58.093 270.864H58.156L64.136 260.572H67.157L59.653 273.206L65.142 282.603H62.116L56.834 273.414Z" fill="#FFFFFE"/>
<mask id="mask6" mask-type="alpha" maskUnits="userSpaceOnUse" x="67" y="275" width="19" height="10">
<path fill-rule="evenodd" clip-rule="evenodd" d="M67.877 275.879H85.912V284.46H67.877V275.879Z" fill="white"/>
</mask>
<g mask="url(#mask6)">
<path fill-rule="evenodd" clip-rule="evenodd" d="M72.919 297.91H69.892L75.381 288.513L67.877 275.879H70.898L76.878 286.171H76.941L82.89 275.879H85.912L78.2 288.72L72.919 297.91Z" fill="#FFFFFE"/>
</g>
<mask id="mask7" mask-type="alpha" maskUnits="userSpaceOnUse" x="7" y="1" width="2" height="5">
<path fill-rule="evenodd" clip-rule="evenodd" d="M7 1H8.6903V5.9824H7V1Z" fill="white"/>
</mask>
<g mask="url(#mask7)">
<path fill-rule="evenodd" clip-rule="evenodd" d="M-4.30175 5.98242H-7.32775L-1.83975 -3.41458L-9.34375 -16.0486H-6.32175L-0.34175 -5.75658H-0.27875L5.66925 -16.0486H8.69125L0.98025 -3.20758L-4.30175 5.98242Z" fill="#FFFFFE"/>
</g>
<mask id="mask8" mask-type="alpha" maskUnits="userSpaceOnUse" x="29" y="1" width="19" height="5">
<path fill-rule="evenodd" clip-rule="evenodd" d="M29.6797 1H47.7147V5.9824H29.6797V1Z" fill="white"/>
</mask>
<g mask="url(#mask8)">
<path fill-rule="evenodd" clip-rule="evenodd" d="M34.7217 5.98242H31.6957L37.1837 -3.41458L29.6797 -16.0486H32.7017L38.6817 -5.75658H38.7447L44.6927 -16.0486H47.7147L40.0037 -3.20758L34.7217 5.98242Z" fill="#FFFFFE"/>
</g>
<mask id="mask9" mask-type="alpha" maskUnits="userSpaceOnUse" x="8" y="0" width="18" height="23">
<path fill-rule="evenodd" clip-rule="evenodd" d="M12.0009 4C19.5005 -1.5 25.0009 0.999999 25.0009 0.999999V23H10.0009C10.0009 23 4.50137 9.5 12.0009 4Z" fill="white"/>
</mask>
<g mask="url(#mask9)">
<path fill-rule="evenodd" clip-rule="evenodd" d="M14.3633 13.7538L6.65234 0.912842H9.67434L15.6223 11.2048H15.6853L21.6653 0.912842H24.6863L17.1823 13.5458L22.6713 22.9438H19.6453L14.3633 13.7538Z" fill="#FFFFFE"/>
</g>
<path fill-rule="evenodd" clip-rule="evenodd" d="M33.1172 24.7857L25.4062 11.9447H28.4283L34.3763 22.2367H34.4392L40.4192 11.9447H43.4403L35.9362 24.5777L41.4252 33.9757H38.3993L33.1172 24.7857Z" fill="#FFFFFE"/>
<mask id="mask10" mask-type="alpha" maskUnits="userSpaceOnUse" x="7" y="27" width="16" height="23">
<path fill-rule="evenodd" clip-rule="evenodd" d="M7 27.2512H22.8939V49.2822H7V27.2512Z" fill="white"/>
</mask>
<g mask="url(#mask10)">
<path fill-rule="evenodd" clip-rule="evenodd" d="M9.90137 49.2822H6.87538L12.3634 39.8852L4.85938 27.2512H7.88037L13.8604 37.5422H13.9234L19.8724 27.2512H22.8944L15.1834 40.0922L9.90137 49.2822Z" fill="#FFFFFE"/>
</g>
<path fill-rule="evenodd" clip-rule="evenodd" d="M30.4482 61.417H27.4213L32.9103 52.02L25.4062 39.386H28.4272L34.4073 49.678H34.4703L40.4192 39.386H43.4403L35.7292 52.227L30.4482 61.417Z" fill="#FFFFFE"/>
<mask id="mask11" mask-type="alpha" maskUnits="userSpaceOnUse" x="7" y="55" width="18" height="23">
<path fill-rule="evenodd" clip-rule="evenodd" d="M7 55.244H24.4099V77.275H7V55.244Z" fill="white"/>
</mask>
<g mask="url(#mask11)">
<path fill-rule="evenodd" clip-rule="evenodd" d="M14.086 68.085L6.375 55.244H9.397L15.345 65.536H15.408L21.388 55.244H24.409L16.905 67.878L22.394 77.275H19.368L14.086 68.085Z" fill="#FFFFFE"/>
</g>
<path fill-rule="evenodd" clip-rule="evenodd" d="M31.6885 88.3071H28.6625L34.1505 78.9101L26.6465 66.2751H29.6685L35.6485 76.5671H35.7115L41.6595 66.2751H44.6815L36.9705 79.1171L31.6885 88.3071Z" fill="#FFFFFE"/>
<mask id="mask12" mask-type="alpha" maskUnits="userSpaceOnUse" x="7" y="83" width="14" height="23">
<path fill-rule="evenodd" clip-rule="evenodd" d="M7 83.2371H20.2732V105.268H7V83.2371Z" fill="white"/>
</mask>
<g mask="url(#mask12)">
<path fill-rule="evenodd" clip-rule="evenodd" d="M9.94928 96.0781L2.23828 83.2371H5.26028L11.2083 93.5291H11.2713L17.2513 83.2371H20.2723L12.7683 95.8711L18.2573 105.268H15.2303L9.94928 96.0781Z" fill="#FFFFFE"/>
</g>
<path fill-rule="evenodd" clip-rule="evenodd" d="M28.7032 107.11L20.9922 94.2689H24.0142L29.9622 104.561H30.0252L36.0052 94.2689H39.0262L31.5222 106.903L37.0112 116.3H33.9852L28.7032 107.11Z" fill="#FFFFFE"/>
<mask id="mask13" mask-type="alpha" maskUnits="userSpaceOnUse" x="7" y="109" width="12" height="23">
<path fill-rule="evenodd" clip-rule="evenodd" d="M7 109.575H18.4813V131.607H7V109.575Z" fill="white"/>
</mask>
<g mask="url(#mask13)">
<path fill-rule="evenodd" clip-rule="evenodd" d="M5.48927 131.607H2.46227L7.95127 122.21L0.447266 109.575H3.46827L9.44827 119.867H9.51127L15.4603 109.575H18.4823L10.7703 122.417L5.48927 131.607Z" fill="#FFFFFE"/>
</g>
<path fill-rule="evenodd" clip-rule="evenodd" d="M26.0342 143.742H23.0082L28.4962 134.345L20.9922 121.71H24.0142L29.9942 132.002H30.0572L36.0052 121.71H39.0272L31.3162 134.552L26.0342 143.742Z" fill="#FFFFFE"/>
<mask id="mask14" mask-type="alpha" maskUnits="userSpaceOnUse" x="67" y="1" width="19" height="5">
<path fill-rule="evenodd" clip-rule="evenodd" d="M67.3262 1H85.3612V5.9824H67.3262V1Z" fill="white"/>
</mask>
<g mask="url(#mask14)">
<path fill-rule="evenodd" clip-rule="evenodd" d="M72.3682 5.98242H69.3422L74.8302 -3.41458L67.3262 -16.0486H70.3472L76.3272 -5.75658H76.3902L82.3392 -16.0486H85.3612L77.6502 -3.20758L72.3682 5.98242Z" fill="#FFFFFE"/>
</g>
<mask id="mask15" mask-type="alpha" maskUnits="userSpaceOnUse" x="46" y="1" width="19" height="21">
<path fill-rule="evenodd" clip-rule="evenodd" d="M46.7793 1H64.8143V21.2891H46.7793V1Z" fill="white"/>
</mask>
<g mask="url(#mask15)">
<path fill-rule="evenodd" clip-rule="evenodd" d="M51.8213 21.2891H48.7953L54.2833 11.8921L46.7793 -0.741943H49.8013L55.7813 9.55006H55.8443L61.7923 -0.741943H64.8143L57.1033 12.0991L51.8213 21.2891Z" fill="#FFFFFE"/>
</g>
<mask id="mask16" mask-type="alpha" maskUnits="userSpaceOnUse" x="107" y="1" width="19" height="5">
<path fill-rule="evenodd" clip-rule="evenodd" d="M107.73 1H125.764V5.9824H107.73V1Z" fill="white"/>
</mask>
<g mask="url(#mask16)">
<path fill-rule="evenodd" clip-rule="evenodd" d="M112.771 5.98242H109.745L115.234 -3.41458L107.73 -16.0486H110.751L116.731 -5.75658H116.794L122.743 -16.0486H125.764L118.053 -3.20758L112.771 5.98242Z" fill="#FFFFFE"/>
</g>
<path fill-rule="evenodd" clip-rule="evenodd" d="M52.0967 49.2822H49.0707L54.5587 39.8852L47.0547 27.2512H50.0767L56.0567 37.5422H56.1197L62.0677 27.2512H65.0897L57.3787 40.0922L52.0967 49.2822Z" fill="#FFFFFE"/>
<path fill-rule="evenodd" clip-rule="evenodd" d="M68.2315 61.9687H65.2045L70.6935 52.5717L63.1895 39.9377H66.2105L72.1905 50.2287H72.2535L78.2025 39.9377H81.2245L73.5125 52.7787L68.2315 61.9687Z" fill="#FFFFFE"/>
<mask id="mask17" mask-type="alpha" maskUnits="userSpaceOnUse" x="83" y="1" width="19" height="22">
<path fill-rule="evenodd" clip-rule="evenodd" d="M83.3223 1H101.356V22.9439H83.3223V1Z" fill="white"/>
</mask>
<g mask="url(#mask17)">
<path fill-rule="evenodd" clip-rule="evenodd" d="M91.0333 13.7538L83.3223 0.912842H86.3433L92.2923 11.2048H92.3553L98.3353 0.912842H101.356L93.8523 13.5458L99.3413 22.9438H96.3143L91.0333 13.7538Z" fill="#FFFFFE"/>
</g>
<path fill-rule="evenodd" clip-rule="evenodd" d="M109.787 24.7857L102.076 11.9447H105.098L111.046 22.2367H111.109L117.089 11.9447H120.11L112.606 24.5777L118.096 33.9757H115.069L109.787 24.7857Z" fill="#FFFFFE"/>
<path fill-rule="evenodd" clip-rule="evenodd" d="M70.4864 24.7857L62.7754 11.9447H65.7974L71.7454 22.2367H71.8084L77.7884 11.9447H80.8094L73.3054 24.5777L78.7944 33.9757H75.7684L70.4864 24.7857Z" fill="#FFFFFE"/>
<path fill-rule="evenodd" clip-rule="evenodd" d="M86.5713 49.2822H83.5443L89.0333 39.8852L81.5293 27.2512H84.5503L90.5303 37.5422H90.5933L96.5423 27.2512H99.5633L91.8523 40.0922L86.5713 49.2822Z" fill="#FFFFFE"/>
<path fill-rule="evenodd" clip-rule="evenodd" d="M51.8712 68.085L44.1602 55.244H47.1822L53.1302 65.536H53.1932L59.1732 55.244H62.1952L54.6912 67.878L60.1792 77.275H57.1532L51.8712 68.085Z" fill="#FFFFFE"/>
<path fill-rule="evenodd" clip-rule="evenodd" d="M47.4092 103.614H44.3832L49.8712 94.2168L42.3672 81.5818H45.3892L51.3692 91.8738H51.4322L57.3802 81.5818H60.4022L52.6912 94.4238L47.4092 103.614Z" fill="#FFFFFE"/>
<path fill-rule="evenodd" clip-rule="evenodd" d="M47.6846 131.607H44.6586L50.1466 122.21L42.6426 109.575H45.6636L51.6436 119.867H51.7066L57.6556 109.575H60.6776L52.9666 122.417L47.6846 131.607Z" fill="#FFFFFE"/>
<path fill-rule="evenodd" clip-rule="evenodd" d="M119.114 187.593H116.088L121.576 178.196L114.072 165.562H117.093L123.074 175.854H123.136L129.085 165.562H132.106L124.395 178.403L119.114 187.593Z" fill="#FFFFFE"/>
<path fill-rule="evenodd" clip-rule="evenodd" d="M162.463 152.064L154.752 139.223H157.774L163.722 149.514H163.785L169.765 139.223H172.786L165.282 151.857L170.772 161.254H167.745L162.463 152.064Z" fill="#FFFFFE"/>
<path fill-rule="evenodd" clip-rule="evenodd" d="M178.687 172.286H175.661L181.149 162.889L173.645 150.255H176.666L182.647 160.547H182.709L188.659 150.255H191.68L183.969 163.096L178.687 172.286Z" fill="#FFFFFE"/>
<path fill-rule="evenodd" clip-rule="evenodd" d="M119.391 215.586H116.365L121.854 206.189L114.35 193.555H117.371L123.351 203.847H123.414L129.363 193.555H132.384L124.673 206.396L119.391 215.586Z" fill="#FFFFFE"/>
<path fill-rule="evenodd" clip-rule="evenodd" d="M135.526 228.272H132.499L137.988 218.875L130.484 206.241H133.505L139.485 216.533H139.548L145.497 206.241H148.518L140.807 219.082L135.526 228.272Z" fill="#FFFFFE"/>
<path fill-rule="evenodd" clip-rule="evenodd" d="M158.326 180.058L150.615 167.216H153.637L159.585 177.508H159.648L165.628 167.216H168.649L161.145 179.851L166.635 189.248H163.607L158.326 180.058Z" fill="#FFFFFE"/>
<path fill-rule="evenodd" clip-rule="evenodd" d="M177.08 191.089L169.369 178.248H172.391L178.339 188.54H178.402L184.382 178.248H187.403L179.899 190.882L185.389 200.279H182.361L177.08 191.089Z" fill="#FFFFFE"/>
<path fill-rule="evenodd" clip-rule="evenodd" d="M137.779 191.089L130.068 178.248H133.09L139.038 188.54H139.101L145.081 178.248H148.102L140.598 190.882L146.088 200.279H143.061L137.779 191.089Z" fill="#FFFFFE"/>
<path fill-rule="evenodd" clip-rule="evenodd" d="M153.864 215.586H150.838L156.326 206.189L148.822 193.555H151.843L157.824 203.847H157.886L163.835 193.555H166.856L159.145 206.396L153.864 215.586Z" fill="#FFFFFE"/>
<path fill-rule="evenodd" clip-rule="evenodd" d="M174.411 227.721H171.385L176.873 218.324L169.369 205.69H172.39L178.37 215.982H178.433L184.382 205.69H187.403L179.692 218.531L174.411 227.721Z" fill="#FFFFFE"/>
<path fill-rule="evenodd" clip-rule="evenodd" d="M119.164 234.389L111.453 221.548H114.475L120.424 231.84H120.486L126.467 221.548H129.488L121.983 234.182L127.473 243.579H124.446L119.164 234.389Z" fill="#FFFFFE"/>
<path fill-rule="evenodd" clip-rule="evenodd" d="M135.249 254.61H132.223L137.711 245.214L130.207 232.579H133.228L139.209 242.871H139.271L145.221 232.579H148.242L140.53 245.421L135.249 254.61Z" fill="#FFFFFE"/>
<path fill-rule="evenodd" clip-rule="evenodd" d="M114.701 269.917H111.675L117.164 260.52L109.66 247.886H112.681L118.661 258.178H118.724L124.673 247.886H127.694L119.983 260.728L114.701 269.917Z" fill="#FFFFFE"/>
<path fill-rule="evenodd" clip-rule="evenodd" d="M158.052 234.389L150.34 221.548H153.362L159.311 231.84H159.373L165.354 221.548H168.375L160.871 234.182L166.36 243.579H163.333L158.052 234.389Z" fill="#FFFFFE"/>
<path fill-rule="evenodd" clip-rule="evenodd" d="M175.653 254.61H172.626L178.115 245.214L170.611 232.579H173.632L179.612 242.871H179.675L185.624 232.579H188.645L180.934 245.421L175.653 254.61Z" fill="#FFFFFE"/>
<mask id="mask18" mask-type="alpha" maskUnits="userSpaceOnUse" x="109" y="275" width="19" height="10">
<path fill-rule="evenodd" clip-rule="evenodd" d="M109.936 275.879H127.97V284.46H109.936V275.879Z" fill="white"/>
</mask>
<g mask="url(#mask18)">
<path fill-rule="evenodd" clip-rule="evenodd" d="M114.978 297.91H111.952L117.44 288.513L109.936 275.879H112.957L118.937 286.171H119L124.949 275.879H127.97L120.259 288.72L114.978 297.91Z" fill="#FFFFFE"/>
</g>
<path fill-rule="evenodd" clip-rule="evenodd" d="M153.914 262.382L146.203 249.541H149.225L155.174 259.832H155.236L161.217 249.541H164.238L156.734 262.175L162.223 271.572H159.196L153.914 262.382Z" fill="#FFFFFE"/>
<path fill-rule="evenodd" clip-rule="evenodd" d="M172.668 273.414L164.957 260.572H167.979L173.928 270.864H173.99L179.971 260.572H182.992L175.488 273.206L180.977 282.603H177.95L172.668 273.414Z" fill="#FFFFFE"/>
<path fill-rule="evenodd" clip-rule="evenodd" d="M133.367 273.414L125.656 260.572H128.678L134.626 270.864H134.688L140.669 260.572H143.69L136.186 273.206L141.675 282.603H138.648L133.367 273.414Z" fill="#FFFFFE"/>
<mask id="mask19" mask-type="alpha" maskUnits="userSpaceOnUse" x="144" y="275" width="19" height="10">
<path fill-rule="evenodd" clip-rule="evenodd" d="M144.41 275.879H162.444V284.46H144.41V275.879Z" fill="white"/>
</mask>
<g mask="url(#mask19)">
<path fill-rule="evenodd" clip-rule="evenodd" d="M149.451 297.91H146.425L151.914 288.513L144.41 275.879H147.431L153.411 286.171H153.474L159.423 275.879H162.444L154.733 288.72L149.451 297.91Z" fill="#FFFFFE"/>
</g>
<mask id="mask20" mask-type="alpha" maskUnits="userSpaceOnUse" x="192" y="139" width="14" height="23">
<path fill-rule="evenodd" clip-rule="evenodd" d="M192.537 139.223H205.43V161.254H192.537V139.223Z" fill="white"/>
</mask>
<g mask="url(#mask20)">
<path fill-rule="evenodd" clip-rule="evenodd" d="M200.248 152.064L192.537 139.223H195.559L201.507 149.514H201.569L207.55 139.223H210.571L203.067 151.857L208.556 161.254H205.529L200.248 152.064Z" fill="#FFFFFE"/>
</g>
<mask id="mask21" mask-type="alpha" maskUnits="userSpaceOnUse" x="190" y="165" width="16" height="23">
<path fill-rule="evenodd" clip-rule="evenodd" d="M190.744 165.562H205.43V187.593H190.744V165.562Z" fill="white"/>
</mask>
<g mask="url(#mask21)">
<path fill-rule="evenodd" clip-rule="evenodd" d="M195.786 187.593H192.76L198.248 178.196L190.744 165.562H193.765L199.745 175.854H199.808L205.757 165.562H208.778L201.067 178.403L195.786 187.593Z" fill="#FFFFFE"/>
</g>
<mask id="mask22" mask-type="alpha" maskUnits="userSpaceOnUse" x="191" y="193" width="15" height="23">
<path fill-rule="evenodd" clip-rule="evenodd" d="M191.02 193.555H205.43V215.586H191.02V193.555Z" fill="white"/>
</mask>
<g mask="url(#mask22)">
<path fill-rule="evenodd" clip-rule="evenodd" d="M196.062 215.586H193.036L198.524 206.189L191.02 193.555H194.041L200.022 203.847H200.084L206.034 193.555H209.055L201.344 206.396L196.062 215.586Z" fill="#FFFFFE"/>
</g>
<mask id="mask23" mask-type="alpha" maskUnits="userSpaceOnUse" x="188" y="221" width="18" height="23">
<path fill-rule="evenodd" clip-rule="evenodd" d="M188.123 221.548H205.429V243.579H188.123V221.548Z" fill="white"/>
</mask>
<g mask="url(#mask23)">
<path fill-rule="evenodd" clip-rule="evenodd" d="M195.834 234.389L188.123 221.548H191.145L197.093 231.84H197.156L203.136 221.548H206.157L198.653 234.182L204.143 243.579H201.115L195.834 234.389Z" fill="#FFFFFE"/>
</g>
<path fill-rule="evenodd" clip-rule="evenodd" d="M191.372 269.917H188.346L193.834 260.52L186.33 247.886H189.351L195.332 258.178H195.394L201.344 247.886H204.365L196.653 260.728L191.372 269.917Z" fill="#FFFFFE"/>
<mask id="mask24" mask-type="alpha" maskUnits="userSpaceOnUse" x="186" y="275" width="19" height="10">
<path fill-rule="evenodd" clip-rule="evenodd" d="M186.607 275.879H204.641C204.641 275.879 203.298 278.597 202 280C200.674 281.433 199.739 282.111 198 283C197.064 283.478 196.508 283.701 195.5 284C194.684 284.241 193.37 284.46 193.37 284.46H191.116H186.607V275.879Z" fill="white"/>
</mask>
<g mask="url(#mask24)">
<path fill-rule="evenodd" clip-rule="evenodd" d="M191.649 297.91H188.622L194.111 288.513L186.607 275.879H189.628L195.608 286.171H195.671L201.62 275.879H204.641L196.93 288.72L191.649 297.91Z" fill="#FFFFFE"/>
</g>
<mask id="mask25" mask-type="alpha" maskUnits="userSpaceOnUse" x="202" y="260" width="4" height="23">
<path fill-rule="evenodd" clip-rule="evenodd" d="M202.326 260.572H205.429V282.603H202.326V260.572Z" fill="white"/>
</mask>
<g mask="url(#mask25)">
<path fill-rule="evenodd" clip-rule="evenodd" d="M210.037 273.414L202.326 260.572H205.348L211.297 270.864H211.359L217.34 260.572H220.361L212.857 273.206L218.346 282.603H215.319L210.037 273.414Z" fill="#FFFFFE"/>
</g>
<mask id="mask26" mask-type="alpha" maskUnits="userSpaceOnUse" x="143" y="1" width="19" height="5">
<path fill-rule="evenodd" clip-rule="evenodd" d="M143.859 1H161.893V5.9824H143.859V1Z" fill="white"/>
</mask>
<g mask="url(#mask26)">
<path fill-rule="evenodd" clip-rule="evenodd" d="M148.901 5.98242H145.874L151.363 -3.41458L143.859 -16.0486H146.88L152.86 -5.75658H152.923L158.872 -16.0486H161.893L154.182 -3.20758L148.901 5.98242Z" fill="#FFFFFE"/>
</g>
<mask id="mask27" mask-type="alpha" maskUnits="userSpaceOnUse" x="123" y="1" width="19" height="21">
<path fill-rule="evenodd" clip-rule="evenodd" d="M123.312 1H141.347V21.2891H123.312V1Z" fill="white"/>
</mask>
<g mask="url(#mask27)">
<path fill-rule="evenodd" clip-rule="evenodd" d="M128.354 21.2891H125.329L130.817 11.8921L123.312 -0.741943H126.333L132.314 9.55006H132.377L138.325 -0.741943H141.347L133.635 12.0991L128.354 21.2891Z" fill="#FFFFFE"/>
</g>
<mask id="mask28" mask-type="alpha" maskUnits="userSpaceOnUse" x="182" y="1" width="19" height="5">
<path fill-rule="evenodd" clip-rule="evenodd" d="M182.885 1H200.919V5.9824H182.885V1Z" fill="white"/>
</mask>
<g mask="url(#mask28)">
<path fill-rule="evenodd" clip-rule="evenodd" d="M187.927 5.98242H184.901L190.389 -3.41458L182.885 -16.0486H185.906L191.887 -5.75658H191.949L197.898 -16.0486H200.919L193.208 -3.20758L187.927 5.98242Z" fill="#FFFFFE"/>
</g>
<path fill-rule="evenodd" clip-rule="evenodd" d="M128.63 49.2822H125.604L131.092 39.8852L123.588 27.2512H126.609L132.59 37.5422H132.652L138.602 27.2512H141.623L133.912 40.0922L128.63 49.2822Z" fill="#FFFFFE"/>
<path fill-rule="evenodd" clip-rule="evenodd" d="M144.764 61.9687H141.738L147.227 52.5717L139.723 39.9377H142.744L148.724 50.2287H148.787L154.736 39.9377H157.757L150.046 52.7787L144.764 61.9687Z" fill="#FFFFFE"/>
<mask id="mask29" mask-type="alpha" maskUnits="userSpaceOnUse" x="159" y="1" width="19" height="22">
<path fill-rule="evenodd" clip-rule="evenodd" d="M159.855 1H177.889V22.9439H159.855V1Z" fill="white"/>
</mask>
<g mask="url(#mask29)">
<path fill-rule="evenodd" clip-rule="evenodd" d="M167.566 13.7538L159.855 0.912842H162.877L168.825 11.2048H168.887L174.868 0.912842H177.889L170.385 13.5458L175.874 22.9438H172.847L167.566 13.7538Z" fill="#FFFFFE"/>
</g>
<path fill-rule="evenodd" clip-rule="evenodd" d="M186.32 24.7857L178.609 11.9447H181.631L187.579 22.2367H187.642L193.622 11.9447H196.643L189.139 24.5777L194.628 33.9757H191.601L186.32 24.7857Z" fill="#FFFFFE"/>
<path fill-rule="evenodd" clip-rule="evenodd" d="M147.02 24.7857L139.309 11.9447H142.331L148.279 22.2367H148.342L154.322 11.9447H157.343L149.839 24.5777L155.329 33.9757H152.301L147.02 24.7857Z" fill="#FFFFFE"/>
<path fill-rule="evenodd" clip-rule="evenodd" d="M163.104 49.2822H160.079L165.567 39.8852L158.062 27.2512H161.083L167.064 37.5422H167.127L173.075 27.2512H176.097L168.385 40.0922L163.104 49.2822Z" fill="#FFFFFE"/>
<path fill-rule="evenodd" clip-rule="evenodd" d="M183.651 61.417H180.624L186.113 52.02L178.609 39.386H181.63L187.61 49.678H187.673L193.622 39.386H196.643L188.932 52.227L183.651 61.417Z" fill="#FFFFFE"/>
<path fill-rule="evenodd" clip-rule="evenodd" d="M167.289 68.085L159.578 55.244H162.6L168.549 65.536H168.611L174.592 55.244H177.613L170.109 67.878L175.598 77.275H172.571L167.289 68.085Z" fill="#FFFFFE"/>
<path fill-rule="evenodd" clip-rule="evenodd" d="M184.893 88.3071H181.867L187.356 78.9101L179.852 66.2751H182.873L188.853 76.5671H188.916L194.865 66.2751H197.886L190.175 79.1171L184.893 88.3071Z" fill="#FFFFFE"/>
<path fill-rule="evenodd" clip-rule="evenodd" d="M163.152 96.0781L155.441 83.2371H158.463L164.411 93.5291H164.474L170.454 83.2371H173.475L165.971 95.8711L171.461 105.268H168.434L163.152 96.0781Z" fill="#FFFFFE"/>
<path fill-rule="evenodd" clip-rule="evenodd" d="M181.906 107.11L174.195 94.2689H177.217L183.165 104.561H183.228L189.208 94.2689H192.229L184.725 106.903L190.215 116.3H187.188L181.906 107.11Z" fill="#FFFFFE"/>
<path fill-rule="evenodd" clip-rule="evenodd" d="M158.69 131.607H155.664L161.152 122.21L153.648 109.575H156.669L162.65 119.867H162.712L168.662 109.575H171.683L163.972 122.417L158.69 131.607Z" fill="#FFFFFE"/>
<path fill-rule="evenodd" clip-rule="evenodd" d="M179.239 143.742H176.213L181.701 134.345L174.197 121.71H177.218L183.199 132.002H183.261L189.21 121.71H192.231L184.52 134.552L179.239 143.742Z" fill="#FFFFFE"/>
<mask id="mask30" mask-type="alpha" maskUnits="userSpaceOnUse" x="200" y="15" width="5" height="6">
<path fill-rule="evenodd" clip-rule="evenodd" d="M200 15H205V21H200V15Z" fill="white"/>
</mask>
<g mask="url(#mask30)">
<path fill-rule="evenodd" clip-rule="evenodd" d="M205.026 21.2891H201.999L207.488 11.8921L199.984 -0.741943H203.005L208.985 9.55006H209.048L214.997 -0.741943H218.018L210.307 12.0991L205.026 21.2891Z" fill="#FFFFFE"/>
</g>
<mask id="mask31" mask-type="alpha" maskUnits="userSpaceOnUse" x="200" y="27" width="6" height="23">
<path fill-rule="evenodd" clip-rule="evenodd" d="M200.26 27.2512H205.431V49.2822H200.26V27.2512Z" fill="white"/>
</mask>
<g mask="url(#mask31)">
<path fill-rule="evenodd" clip-rule="evenodd" d="M205.302 49.2822H202.276L207.764 39.8852L200.26 27.2512H203.281L209.262 37.5422H209.324L215.273 27.2512H218.294L210.583 40.0922L205.302 49.2822Z" fill="#FFFFFE"/>
</g>
<mask id="mask32" mask-type="alpha" maskUnits="userSpaceOnUse" x="197" y="55" width="9" height="23">
<path fill-rule="evenodd" clip-rule="evenodd" d="M197.363 55.244H205.43V77.275H197.363V55.244Z" fill="white"/>
</mask>
<g mask="url(#mask32)">
<path fill-rule="evenodd" clip-rule="evenodd" d="M205.074 68.085L197.363 55.244H200.385L206.333 65.536H206.396L212.376 55.244H215.397L207.893 67.878L213.383 77.275H210.355L205.074 68.085Z" fill="#FFFFFE"/>
</g>
<mask id="mask33" mask-type="alpha" maskUnits="userSpaceOnUse" x="195" y="81" width="11" height="23">
<path fill-rule="evenodd" clip-rule="evenodd" d="M195.57 81.5818H205.43V103.614H195.57V81.5818Z" fill="white"/>
</mask>
<g mask="url(#mask33)">
<path fill-rule="evenodd" clip-rule="evenodd" d="M200.612 103.614H197.586L203.074 94.2168L195.57 81.5818H198.591L204.572 91.8738H204.634L210.583 81.5818H213.604L205.893 94.4238L200.612 103.614Z" fill="#FFFFFE"/>
</g>
<mask id="mask34" mask-type="alpha" maskUnits="userSpaceOnUse" x="195" y="109" width="11" height="23">
<path fill-rule="evenodd" clip-rule="evenodd" d="M195.848 109.575H205.431V131.607H195.848V109.575Z" fill="white"/>
</mask>
<g mask="url(#mask34)">
<path fill-rule="evenodd" clip-rule="evenodd" d="M200.889 131.607H197.863L203.352 122.21L195.848 109.575H198.869L204.849 119.867H204.912L210.861 109.575H213.882L206.171 122.417L200.889 131.607Z" fill="#FFFFFE"/>
</g>
<path fill-rule="evenodd" clip-rule="evenodd" d="M106.617 62.0151C106.808 53.9661 106.522 47.3301 105.364 39.3631C105.045 37.6061 104.283 37.9261 104.016 38.2691C103.749 38.6111 103.659 39.0551 103.578 39.4811C103.283 41.0391 103.006 42.6011 102.74 44.1651C102.888 44.9731 103.045 45.3881 103.387 45.9891C104.092 47.2241 104.696 47.4651 104.618 47.5791C104.034 47.8591 103.058 47.5801 102.343 47.2841C102.303 47.2671 102.263 47.2451 102.235 47.2121C101.983 48.8031 101.751 50.3961 101.529 51.9921C101.654 52.7171 101.842 53.2331 102.292 53.6761C103.395 54.7591 104.034 54.5941 104.034 54.8561C103.662 55.0521 103.163 55.2501 102.682 55.2941C102.169 55.3411 101.571 55.2691 101.125 55.0011C101.118 55.0621 101.109 55.1221 101.101 55.1831C100.937 56.4841 100.784 57.7871 100.639 59.0911C100.794 59.4771 100.894 59.7711 101.181 60.0921C102.3 61.3411 103.624 61.0611 103.408 61.3671C102.302 61.9891 101.527 62.0341 100.371 61.7021C100.325 62.1631 100.274 62.6231 100.23 63.0841C100.085 64.6191 98.996 69.6431 101.595 69.5711C103.655 69.5141 105.818 68.3471 106.442 66.3831C106.708 65.5461 106.596 62.8931 106.617 62.0151Z" fill="#C6C9CA"/>
<path fill-rule="evenodd" clip-rule="evenodd" d="M97.3832 112.958C97.4442 113.116 97.5302 113.295 97.6962 113.328C97.7292 112.533 97.6742 111.735 97.5322 110.953C97.5282 110.926 97.5232 110.899 97.5092 110.876C97.4752 110.815 97.3912 110.797 97.3242 110.816C97.2572 110.835 97.2022 110.883 97.1512 110.93C97.0652 111.009 96.8402 111.165 96.8172 111.284C96.7912 111.413 96.9352 111.683 96.9762 111.807C97.1022 112.194 97.2372 112.578 97.3832 112.958Z" fill="#C6C9CA"/>
<path fill-rule="evenodd" clip-rule="evenodd" d="M110.361 106.088C103.697 106.038 101.127 107.548 98.1562 108.95C97.2442 109.38 97.2442 109.38 97.7162 113.077C97.4952 113.883 96.6352 109.987 96.0942 110.531L94.3052 112.134C94.1322 112.289 93.9452 112.471 93.9382 112.704C93.9302 112.95 94.1242 113.148 94.2782 113.34C95.2992 114.612 94.8542 116.471 94.3612 118.026C94.1522 118.685 93.9422 119.344 93.7332 120.004C92.9802 122.377 96.4452 123.647 97.3952 121.345C97.7462 120.495 98.0912 119.642 98.4322 118.787C99.2932 116.63 100.184 114.371 101.934 112.843C103.965 111.069 106.794 110.134 109.176 109.398C109.766 109.215 110.232 108.767 110.436 108.184C110.751 107.288 111.07 106.093 110.361 106.088Z" fill="#FFFFFE"/>
<path fill-rule="evenodd" clip-rule="evenodd" d="M113.484 93.1362C112.129 97.0982 110.336 102.038 109.331 106.093C106.78 106.188 105.536 106.3 103.09 106.937C102.245 107.157 100.976 107.633 100.361 107.913C98.9828 109.043 98.2528 110.418 96.6948 111.414C94.3678 112.903 90.9528 113.24 88.7978 111.503C87.8838 110.766 87.2878 109.745 86.8218 108.707C84.5888 103.737 85.0448 97.8062 88.0108 93.2302C89.5928 90.7892 91.8228 88.7402 93.2358 86.2102C94.8338 83.3472 95.2838 80.0622 96.1568 76.9342C97.6248 71.6722 100.802 67.7002 106.891 67.2362C111.757 66.8652 116.171 66.9072 118.769 71.3512C119.885 73.2592 120.371 75.4372 120.511 77.6002C120.705 80.5502 119.845 83.3482 118.291 85.8842C117.512 87.1552 116.507 87.7412 115.564 88.7832C114.484 89.9772 113.984 91.6742 113.484 93.1362Z" fill="#C6C9CA"/>
<path fill-rule="evenodd" clip-rule="evenodd" d="M95.0969 100.504C94.1079 100.247 93.0489 101.017 92.7649 101.999C92.4809 102.98 92.8379 104.059 93.4599 104.87C93.5919 105.041 93.7449 105.211 93.9499 105.278C94.5379 105.473 95.0029 104.769 95.2099 104.185C95.3879 103.684 95.5539 103.179 95.7079 102.671C95.8269 102.277 95.9389 101.86 95.8449 101.461C95.7499 101.061 95.5169 100.709 95.0969 100.504Z" fill="#989EA0"/>
<path fill-rule="evenodd" clip-rule="evenodd" d="M85.6241 101.072C84.9611 101.712 84.2491 102.467 84.2761 103.387C84.3091 104.462 85.3171 105.21 86.2231 105.788C86.2171 104.287 86.2111 102.786 86.2051 101.285C85.9201 101.281 85.9091 101.076 85.6241 101.072Z" fill="#C6C9CA"/>
<path fill-rule="evenodd" clip-rule="evenodd" d="M93.2166 78.0571C93.5246 77.8891 93.7806 78.3591 94.1006 78.5051C94.5606 78.7151 94.9996 78.2111 95.3466 77.8421C96.1836 76.9521 97.5556 76.6081 98.7146 76.9991C98.9256 76.7681 98.8276 76.3721 98.5936 76.1641C98.3596 75.9561 98.0376 75.8881 97.7306 75.8261C97.2976 75.7391 96.8646 75.6521 96.4316 75.5651C95.7156 75.4211 94.9796 75.2771 94.2606 75.4071C93.5426 75.5361 92.8746 76.0161 92.6456 76.7101C92.2936 77.7811 92.6886 78.1101 93.2166 78.0571Z" fill="#1A1919"/>
<path fill-rule="evenodd" clip-rule="evenodd" d="M103.281 87.3686C103.288 87.4946 103.301 87.6226 103.349 87.7396C103.449 87.9816 103.695 88.1426 103.952 88.1956C104.335 88.2746 104.747 88.1336 105.029 87.8636C105.312 87.5936 105.469 87.2066 105.494 86.8166C105.536 86.1616 105.038 85.1936 104.245 85.3976C103.482 85.5956 103.247 86.7226 103.281 87.3686Z" fill="#1A1919"/>
<path fill-rule="evenodd" clip-rule="evenodd" d="M96.7881 84.1938C96.4061 83.6468 95.8721 83.9138 95.6101 84.2498C95.4621 84.4408 95.4001 84.6848 95.3741 84.9248C95.3451 85.1938 95.3601 85.4748 95.4761 85.7198C95.5911 85.9648 95.8221 86.1658 96.0921 86.1918C96.5421 86.2338 96.9031 85.7888 96.9971 85.3458C97.0881 84.9248 97.0051 84.5668 96.7881 84.1938Z" fill="#1A1919"/>
<path fill-rule="evenodd" clip-rule="evenodd" d="M108.418 73.4995C106.168 73.9435 103.871 74.1515 101.577 74.1205C99.7236 74.0945 97.7446 73.8615 96.3226 72.6715C94.7766 71.3785 94.2406 69.0175 95.0766 67.1835C95.2906 66.8415 95.9986 67.7965 96.4586 68.1035C97.1766 66.9585 97.3376 66.4165 97.6306 66.6405C98.8916 67.6985 100.774 66.8995 102.261 66.1935C105.213 64.7915 108.541 63.8895 111.749 64.5095C114.958 65.1295 118.523 67.3175 119.03 70.5455C119.125 71.1485 119.145 71.7935 119.478 72.3045C119.712 72.6635 120.085 72.9005 120.411 73.1795C122.327 74.8165 122.785 76.3885 121.937 79.5435C121.821 79.9715 121.522 78.5975 121.104 78.4515C119.158 77.7715 116.792 76.9505 115.472 79.6195C115.002 80.5755 114.565 80.2905 114.456 79.8545C114.346 79.4195 114.513 78.9685 114.652 78.5415C114.887 77.8205 115.046 77.0615 114.975 76.3065C114.615 72.4695 111.16 72.9585 108.418 73.4995Z" fill="#1A1919"/>
<path fill-rule="evenodd" clip-rule="evenodd" d="M117.446 101.71C117.511 102.3 115.807 102.028 115.358 101.535C114.76 100.837 115.59 102.882 114.8 103.364C114.636 103.465 114.436 103.477 114.244 103.48C112.683 103.503 110.773 103.255 110.183 101.811C110.022 101.417 109.991 100.982 109.987 100.557C109.94 95.6214 113.213 91.3444 116.388 87.5654C117.632 86.0854 119.547 84.3764 121.57 85.6734C122.987 86.5824 122.79 88.2074 122.342 89.6274C121.046 93.7404 116.687 97.0644 117.446 101.71Z" fill="#1A1919"/>
<path fill-rule="evenodd" clip-rule="evenodd" d="M118.684 90.9043C118.73 91.9663 118.839 93.0703 119.402 93.9713C120.46 95.6683 122.989 96.0733 124.712 95.0593C126.436 94.0443 127.319 91.9223 127.192 89.9253C127.065 87.9293 126.056 86.0713 124.732 84.5723C124 83.7423 123.153 82.9823 122.677 81.9833C122.08 80.7273 122.108 79.1713 121.213 78.1063C120.219 76.9223 118.286 76.8123 116.999 77.6713C114.77 79.1613 114.725 82.3953 115.88 84.5673C116.314 85.3823 117.023 85.9263 117.577 86.6513C118.552 87.9283 118.618 89.3543 118.684 90.9043Z" fill="#C6C9CA"/>
<path fill-rule="evenodd" clip-rule="evenodd" d="M121.845 85.2446C122.963 86.1366 124.022 87.1956 124.496 88.5436C124.971 89.8926 124.714 91.5836 123.574 92.4466C123.07 92.8276 122.391 93.0186 121.791 92.8206C121.321 92.6646 120.949 92.2896 120.692 91.8676C119.895 90.5566 120.079 88.8366 119.34 87.4936C118.896 86.6836 118.105 85.9306 118.252 85.0186C118.773 85.4516 119.293 85.8836 119.813 86.3156C119.891 86.3806 119.988 86.4496 120.084 86.4216C120.16 86.3996 120.208 86.3236 120.237 86.2486C120.464 85.6376 119.819 85.0836 119.282 84.7116C118.513 84.1796 117.449 83.2356 117.663 82.1846C118.46 82.0626 118.894 82.9126 119.415 83.3646C120.19 84.0346 121.044 84.6066 121.845 85.2446Z" fill="#989EA0"/>
<path fill-rule="evenodd" clip-rule="evenodd" d="M102.328 102.943C102.349 102.818 102.37 102.69 102.438 102.584C102.507 102.478 102.638 102.401 102.759 102.438C102.833 102.46 102.89 102.518 102.943 102.575C103.146 102.793 103.363 103.039 103.37 103.337C103.374 103.524 103.293 103.702 103.208 103.869C102.758 104.75 102.12 105.607 101.336 106.218C101.35 105.764 101.708 105.27 101.852 104.84C102.06 104.222 102.219 103.587 102.328 102.943Z" fill="#989EA0"/>
<path fill-rule="evenodd" clip-rule="evenodd" d="M103.967 102.189C104.002 102.291 104.04 102.397 104.118 102.472C104.196 102.546 104.329 102.576 104.413 102.508C104.479 102.453 104.494 102.358 104.503 102.272C104.547 101.838 104.55 101.386 104.387 100.981C104.224 100.576 103.864 100.226 103.429 100.185C103.141 100.157 102.852 100.267 102.619 100.439C102.487 100.537 102.361 100.671 102.352 100.835C102.349 100.882 102.359 100.932 102.392 100.964C102.43 100.999 102.487 101.001 102.539 101.002C102.941 101.002 103.221 100.96 103.509 101.273C103.74 101.526 103.859 101.871 103.967 102.189Z" fill="#989EA0"/>
<path fill-rule="evenodd" clip-rule="evenodd" d="M107.454 82.4972C107.47 82.1682 107.308 81.7812 106.984 81.7312C106.786 81.7022 106.596 81.8082 106.423 81.9092C105.888 82.2232 105.327 82.5362 104.717 82.6792C104.396 82.7552 104.005 82.7172 103.652 82.7592C103.065 82.7612 102.477 82.7622 101.89 82.7642C101.721 82.7642 101.54 82.7682 101.399 82.8622C101.123 83.0462 101.158 83.4952 101.385 83.7382C101.612 83.9802 101.956 84.0672 102.282 84.1352C103.085 84.3022 103.899 84.4182 104.718 84.4822C105.661 84.5552 106.721 84.5052 107.397 83.8652C107.404 83.8612 107.416 83.8562 107.42 83.8522C107.612 83.7012 107.869 83.2302 107.882 82.9862C107.893 82.7422 107.698 82.4812 107.454 82.4972Z" fill="#1A1919"/>
<path fill-rule="evenodd" clip-rule="evenodd" d="M116.26 66.6768C116.161 63.6478 116.007 60.6188 115.686 57.6048C115.489 55.7528 115.228 53.9078 114.968 52.0638C114.463 48.4778 113.957 44.8918 113.452 41.3058C113.371 40.7378 113.239 40.0898 112.739 39.8078C111.577 39.1538 111.314 45.1168 111.206 45.9548C111.102 46.7668 111.01 47.5808 110.924 48.3968C112.128 50.1248 112.84 50.1128 112.84 50.3168C112.84 50.4948 112.141 50.7868 110.708 50.6088C110.608 51.7238 110.517 52.8418 110.434 53.9598C110.909 55.4118 111.449 56.1398 112.7 56.9748C112.992 57.3268 111.672 57.4828 110.92 57.3168C110.586 57.2428 110.328 57.0638 110.227 56.9238L110.226 56.9228C110.161 57.8968 110.097 58.8708 110.031 59.8438V59.8418C110.448 61.4168 111.227 62.6148 112.887 63.5308C113.336 63.7088 111.032 64.3108 109.798 63.1238C109.798 63.1218 109.797 63.1188 109.797 63.1188C109.771 63.4528 109.747 63.7888 109.72 64.1238C109.595 65.6778 109.476 67.2868 110.002 68.7548C110.648 70.5568 112.297 71.9608 114.179 72.3118C117.512 72.9318 116.327 68.7348 116.26 66.6768Z" fill="#C6C9CA"/>
<path fill-rule="evenodd" clip-rule="evenodd" d="M104.175 86.5879C104.191 86.6409 104.214 86.6929 104.248 86.7359C104.321 86.8259 104.444 86.8709 104.558 86.8559C104.673 86.8409 104.778 86.7709 104.841 86.6729C104.872 86.6269 104.893 86.5739 104.909 86.5209C104.953 86.3679 104.949 86.1949 104.87 86.0569C104.758 85.8629 104.497 85.7679 104.333 85.9429C104.176 86.1119 104.109 86.3649 104.175 86.5879Z" fill="#383A39"/>
<path fill-rule="evenodd" clip-rule="evenodd" d="M96.1631 84.4629C96.0731 84.5689 96.0521 84.7219 96.0861 84.8569C96.1041 84.9309 96.1401 85.0029 96.1951 85.0539C96.2511 85.1069 96.3301 85.1369 96.4051 85.1249C96.4771 85.1139 96.5391 85.0659 96.5801 85.0059C96.6221 84.9469 96.6451 84.8769 96.6621 84.8059C96.6751 84.7519 96.6841 84.6959 96.6831 84.6399C96.6721 84.3529 96.3541 84.2389 96.1631 84.4629Z" fill="#383A39"/>
</g>
<defs>
<filter id="filter0_d" x="0.5" y="0.5" width="223.5" height="308.5" filterUnits="userSpaceOnUse" color-interpolation-filters="sRGB">
<feFlood flood-opacity="0" result="BackgroundImageFix"/>
<feColorMatrix in="SourceAlpha" type="matrix" values="0 0 0 0 0 0 0 0 0 0 0 0 0 0 0 0 0 0 127 0"/>
<feOffset dy="6"/>
<feGaussianBlur stdDeviation="3"/>
<feColorMatrix type="matrix" values="0 0 0 0 0 0 0 0 0 0 0 0 0 0 0 0 0 0 0.5 0"/>
<feBlend mode="normal" in2="BackgroundImageFix" result="effect1_dropShadow"/>
<feBlend mode="normal" in="SourceGraphic" in2="effect1_dropShadow" result="shape"/>
</filter>
</defs>
</svg>
