<?xml version="1.0" standalone="no"?>
<!DOCTYPE svg PUBLIC "-//W3C//DTD SVG 20010904//EN"
 "http://www.w3.org/TR/2001/REC-SVG-20010904/DTD/svg10.dtd">
<svg version="1.0" xmlns="http://www.w3.org/2000/svg"
 width="189.000000pt" height="189.000000pt" viewBox="0 0 189.000000 189.000000"
 preserveAspectRatio="xMidYMid meet">
<metadata>
Created by potrace 1.11, written by Peter Selinger 2001-2013
</metadata>
<g transform="translate(0.000000,189.000000) scale(0.100000,-0.100000)"
fill="#000000" stroke="none">
<path d="M413 1863 c-23 -19 -47 -69 -38 -82 2 -5 -14 -8 -36 -8 -69 0 -109
-36 -109 -98 0 -27 45 -85 65 -85 25 0 28 -21 7 -50 -26 -35 -52 -96 -58 -135
-2 -16 -8 -55 -13 -85 -15 -81 -6 -324 14 -390 9 -30 18 -66 21 -78 17 -84
121 -250 210 -338 161 -158 328 -226 544 -219 182 5 332 64 451 176 41 40 58
65 117 178 55 105 73 167 70 251 -1 57 -5 68 -30 93 -21 22 -28 38 -28 67 0
21 -5 42 -11 46 -6 3 -34 5 -63 4 -28 -1 -64 -2 -81 -3 -16 0 -104 28 -195 62
-183 68 -208 87 -263 192 -98 190 -174 292 -248 330 -27 13 -39 27 -44 49 -8
37 -49 70 -86 70 -20 0 -38 10 -57 31 -35 39 -104 50 -139 22z"/>
<path d="M460 400 c0 -6 26 -35 57 -65 l56 -55 -71 32 c-53 23 -75 29 -83 21
-6 -6 -8 -17 -4 -23 9 -15 128 -70 152 -70 32 -1 -9 -18 -55 -24 -48 -6 -65
-13 -57 -27 9 -14 48 -11 133 11 111 30 173 80 98 80 -51 0 -74 12 -141 74
-57 54 -85 68 -85 46z"/>
<path d="M1060 196 c0 -50 -39 -77 -147 -106 -24 -6 -43 -15 -43 -20 0 -16 53
-11 115 10 67 23 75 24 75 9 0 -14 -18 -31 -57 -54 -42 -25 -42 -39 -1 -31 35
7 84 48 94 78 6 19 34 26 34 8 0 -11 39 -34 47 -27 7 8 -14 45 -59 105 -44 57
-58 64 -58 28z"/>
</g>
</svg>
