<svg width="338" height="480" viewBox="0 0 338 480" fill="none" xmlns="http://www.w3.org/2000/svg">
<path d="M17 0C7.61115 0 0 7.61116 0 17V462.09C0 471.487 7.62318 479.101 17.0197 479.09L321.02 478.738C330.401 478.727 338 471.119 338 461.738V17C338 7.61118 330.389 0 321 0H17Z" fill="#F99AC1"/>
<path d="M107.611 323.874C73.6113 316.303 59.096 359.408 63.0618 366.9C55.1301 370.819 35.1598 380.804 42.6839 403.72C15.597 412.56 -1.00316 451.167 13.6376 479.256H174.686C179.827 459.412 174.686 428.141 165.908 409.676C161.127 399.55 153.634 393.861 145.122 386.995C139.421 382.259 132.996 378.47 126.092 375.772C145.514 352.26 125.199 327.353 107.58 323.874" fill="white"/>
<path d="M70.899 243.714C74.8178 266.755 81.6052 290.095 87.1699 312.807C90.0072 324.422 93.926 336.554 95.9481 348.2C100.384 344.125 99.8042 330.206 100.729 324.579C102.798 312.039 104.428 299.39 106.012 286.787C107.83 272.367 109.774 257.429 109.586 242.899C102.422 242.46 94.0514 229.45 90.0385 224.293C86.4802 225.233 81.8246 233.698 78.7523 236.723C75.9464 239.419 72.9054 242.319 70.1309 244.733C70.8206 244.137 71.6984 243.792 72.4038 243.165" fill="#8AD2D4"/>
<path d="M173.854 330.739C163.713 280.22 159.966 263.84 151.768 258.777C145.498 254.874 137.974 250.689 131.468 247.005C123.458 242.459 115.793 239.168 108.771 228.196C106.842 225.061 105.228 246.911 104.585 250.14C103.018 257.977 98.8794 343.639 97.3276 343.466C96.2617 343.639 77.1064 250.986 74.4103 240.406C72.7487 233.948 69.4726 224.732 70.7423 218.979C63.9548 223.274 51.9319 219.559 36.6485 212.568C26.3341 207.866 10.2983 203.163 7.11617 217.756C5.32918 226.001 5 242.945 5 251.535C5 263.73 5.1254 273.479 5.89349 285.565C6.70861 298.449 8.76207 336.601 9.23233 346.695C9.70259 356.79 10.2983 363.216 14.703 373.859C17.7127 381.117 24.6568 388.829 32.0869 390.553C37.1301 391.618 42.3555 391.457 47.3233 390.083C51.9005 404.848 80.1161 411.478 92.7817 403.814C97.6724 400.381 97.7508 379.361 98.66 382.7C99.3967 385.396 99.914 401.133 107.47 406.008C113.74 410.036 134.259 411.118 141.485 410.428C152.928 409.331 175.297 405.726 186.849 404.613C191.552 404.19 177.758 349.752 173.964 330.833" fill="#2E58A6"/>
<path d="M140.89 308.167C140.216 316.945 143.617 325.535 151.737 330.112C157.349 333.247 162.945 333.842 163.995 341.225C164.356 343.749 163.995 346.022 164.481 348.749C165.051 351.834 166.43 354.712 168.478 357.088C171.723 360.395 173.542 361.665 180.548 361.916C180.737 357.981 181.379 354.078 181.693 350.379C182.006 346.68 182.179 343.827 182.665 340.238C175.078 337.103 171.002 330.629 169.043 328.137C164.34 322.087 161.55 311.475 160.813 304.076C160.629 303.566 160.316 303.113 159.904 302.76C158.07 305.017 154.277 306.396 150.499 307.337C147.082 307.697 143.664 308.105 140.968 308.183" fill="white"/>
<path d="M181.27 361.006C182.335 365.583 184.217 367.527 191.913 367.135C200.033 366.728 207.04 364.674 209.156 359.768C207.637 352.086 206.595 344.318 206.037 336.507C203.345 337.812 200.418 338.563 197.431 338.717C192.288 338.657 187.293 336.985 183.151 333.937C182.759 335.206 180.016 351.57 181.191 361.304" fill="black"/>
<path d="M31.8516 479.239C32.5883 472.06 42.4951 468.863 52.7781 465.791C73.7673 459.521 126.452 452.264 167.067 449.599C194.249 447.814 249.155 446.346 293.608 445.847C309.88 445.665 323.068 458.857 323.068 475.131V475.131C323.068 477.391 321.235 479.224 318.975 479.224H31.8516" fill="#CCCCCC"/>
<path d="M288.378 447.561C288.222 445.062 287.393 442.652 285.98 440.586V440.586H287.751C285.321 437.78 285.886 433.799 282.625 430.978C281.742 430.269 280.731 429.737 279.647 429.41L279.521 428.877C279.6 428.266 280.462 427.639 282.029 427.686C280.153 426.159 278.561 424.312 277.327 422.231L276.935 421.228C277.687 420.758 278.753 421.103 279.631 421.228C278.577 419.099 276.996 417.275 275.038 415.93C275.77 415.289 276.363 414.505 276.778 413.626C273.408 411.416 270.085 405.961 267.122 402.089C266.542 401.337 265.1 398.092 266.135 397.058C264.54 396.58 263.157 395.572 262.213 394.201C261.27 392.83 260.823 391.178 260.946 389.518C260.424 389.656 259.874 389.649 259.355 389.499C258.837 389.348 258.369 389.059 258.001 388.663C257.634 388.267 257.382 387.779 257.271 387.25C257.16 386.721 257.195 386.173 257.372 385.662C255.099 383.922 252.199 381.963 250.099 380.004C250.506 379.502 251.666 379.189 252.325 378.891C250.757 377.182 247.763 377.182 247.089 375.756C246.65 374.831 247.293 373.985 248.061 373.452C245.714 372.225 243.107 371.58 240.459 371.571C238.821 370.349 237.12 369.214 235.364 368.17C227.717 363.407 219.186 360.24 210.284 358.859C210.284 358.859 210.284 358.749 210.284 358.702C210.174 355.36 209.161 352.11 207.352 349.297C205.785 349.768 204.405 350.959 202.791 351.523C201.538 351.967 200.261 352.339 198.966 352.636L197.916 351.774C197.177 352.09 196.348 352.122 195.588 351.865C194.827 351.607 194.188 351.078 193.793 350.379C193.547 350.874 193.373 351.402 193.276 351.946C193.227 352.209 193.113 352.455 192.943 352.66C192.772 352.866 192.553 353.025 192.304 353.122C191.583 353.326 190.925 352.667 190.454 352.072C188.275 354.235 186.269 353.216 184.764 351.805C184.606 351.967 184.411 352.09 184.197 352.163C183.982 352.236 183.753 352.257 183.528 352.225C183.304 352.193 183.09 352.109 182.905 351.978C182.719 351.848 182.567 351.676 182.46 351.476C182.46 352.056 181.676 352.166 180.892 352.181C180.486 352.048 180.101 351.858 179.748 351.617C179.853 351.474 179.993 351.36 180.156 351.288C180.42 351.162 180.709 351.092 181.002 351.084C181.047 350.715 181.047 350.341 181.002 349.971C180.877 350.332 180.736 350.583 180.5 350.598C180.441 350.605 180.381 350.597 180.326 350.575C180.27 350.554 180.22 350.52 180.18 350.475C180.14 350.431 180.112 350.378 180.097 350.32C180.081 350.262 180.08 350.202 180.093 350.144C179.714 350.469 179.432 350.892 179.278 351.366C178.859 351.283 178.427 351.283 178.008 351.366C178.305 351.506 178.576 351.697 178.808 351.931C178.923 352.048 179.007 352.194 179.051 352.353C179.094 352.512 179.097 352.679 179.058 352.84C178.917 353.263 178.416 353.482 178.275 353.906C178.434 353.865 178.601 353.865 178.76 353.906C178.385 354.424 178.198 355.054 178.228 355.693L178.619 355.457C178.316 356.147 178.192 356.902 178.259 357.652C178.314 357.657 178.369 357.644 178.417 357.616C178.465 357.588 178.503 357.546 178.525 357.495L178.275 359.564H178.651C178.558 360.145 178.675 360.739 178.98 361.241C178.573 361.439 178.131 361.551 177.679 361.571C177.444 361.579 177.21 361.522 177.005 361.406C176.801 361.29 176.632 361.119 176.519 360.912C176.47 361.17 176.351 361.41 176.174 361.604C175.996 361.798 175.768 361.938 175.516 362.009C175.5 361.467 175.372 360.933 175.139 360.442C175.048 360.98 174.896 361.506 174.685 362.009C174.639 362.149 174.564 362.277 174.465 362.386C174.32 362.501 174.147 362.576 173.964 362.605C172.878 362.876 171.76 362.997 170.641 362.966C170.605 363.163 170.605 363.364 170.641 363.561H169.371C169.494 363.74 169.555 363.955 169.543 364.173C169.054 364.24 168.578 364.383 168.133 364.596C167.662 364.737 167.02 364.596 166.863 364.173C166.567 364.554 166.2 364.873 165.781 365.113L165.64 364.439C165.192 364.823 164.825 365.292 164.559 365.818C153.586 369.565 146.375 373.201 143.036 375.913C140.293 378.139 135.324 382.183 128.929 387.622C127.361 388.722 125.498 389.323 123.583 389.346C123.301 389.346 122.8 389.346 122.753 389.471L124.43 390.804C123.983 391.315 123.395 391.683 122.74 391.861C122.084 392.04 121.391 392.021 120.746 391.807C121.015 392.471 121.04 393.208 120.816 393.888C120.592 394.569 120.134 395.147 119.523 395.522C118.234 396.701 116.567 397.384 114.821 397.45C114.617 399.205 114.821 400.349 112.877 402.027C110.933 403.704 109.617 403.218 107.532 403.453C107.803 403.958 108.039 404.482 108.237 405.02C105.702 405.836 103.318 407.064 101.183 408.657C101.567 408.884 101.938 409.13 102.296 409.394C102.356 409.424 102.405 409.47 102.44 409.526C102.475 409.583 102.493 409.648 102.493 409.715C102.493 409.781 102.475 409.847 102.44 409.903C102.405 409.96 102.356 410.006 102.296 410.036C101.131 411.311 99.5768 412.165 97.8759 412.466C97.8759 413.208 97.8393 413.95 97.7661 414.692C95.6421 414.881 93.5622 415.411 91.6058 416.259C91.6058 416.463 92.3268 416.729 92.2955 417.827C90.4458 418.254 88.7912 419.285 87.5929 420.758L88.941 421.322L83.3919 424.817C84.4108 425.397 86.0253 426.542 83.8465 427.075C83.0733 427.418 82.2096 427.5 81.3854 427.31C80.0844 426.714 80.5703 426.542 80.006 428.626C79.7866 429.441 78.2974 429.912 77.9212 428.752C77.4081 429.203 76.969 429.732 76.6201 430.319C76.2126 430.868 74.018 430.758 73.344 430.633C73.485 431.375 73.4537 432.14 73.2526 432.868C73.0515 433.596 72.6859 434.269 72.184 434.833C67.1052 434.128 71.2435 434.677 69.049 437.326C67.9857 437.944 67.0638 438.778 66.3429 439.774C65.622 440.77 65.1181 441.907 64.8637 443.11L66.0393 442.733C65.475 444.113 65.3966 445.618 64.9107 447.013C64.0956 449.348 64.6599 447.796 66.2588 447.89C66.3981 447.897 66.5337 447.938 66.6538 448.009C66.774 448.08 66.8751 448.179 66.9485 448.298C66.9485 448.47 66.9485 448.658 67.0425 448.831C66.9513 449.192 66.7346 449.509 66.4312 449.724C66.0135 450.032 65.5081 450.199 64.9891 450.199C64.47 450.199 63.9647 450.032 63.5469 449.724C63.3328 451.33 63.6997 452.959 64.5815 454.317C63.9163 454.403 63.2568 454.529 62.6064 454.693C62.958 456.138 63.5233 457.522 64.2837 458.8C63.6406 459.008 62.9793 459.155 62.3086 459.239C63.0861 460.667 64.154 461.916 65.4437 462.907C66.4312 463.69 67.0112 464.082 64.9891 464.02C65.2941 464.459 65.6896 464.827 66.149 465.101L67.7166 466.245C67.9517 466.418 68.2182 466.637 68.2025 466.935C68.1868 467.233 67.3874 467.186 67.4971 467.437C67.7349 467.644 67.9921 467.827 68.2652 467.985C68.9923 468.471 69.8223 468.783 70.6899 468.894C71.5575 469.006 72.4392 468.914 73.2656 468.628C73.6201 468.662 73.9771 468.662 74.3316 468.628C74.9115 462.483 81.9654 457.248 86.4642 454.019C93.3927 449.05 103.08 446.558 111.843 445.915C118.113 445.445 129.932 449.364 135.904 446.652C138.13 445.633 138.694 444.191 138.083 442.624C137.409 440.382 137.675 439.363 139.227 438.141L136.892 438.517C136.784 438.55 136.67 438.55 136.563 438.517C136.457 438.446 136.38 438.341 136.343 438.219C136.145 437.719 136.033 437.189 136.014 436.652C135.067 437.213 133.979 437.49 132.879 437.451C131.742 437.423 130.644 437.033 129.744 436.338C129.744 434.99 130.841 433.579 133.788 433.078C132.926 432.435 133.427 431.51 133.913 430.742C134.76 429.786 135.669 428.799 136.61 427.78C137.749 426.472 139.044 425.309 140.466 424.316C141.5 424.096 141.845 427.843 141.814 428.203C142.598 427.796 142.723 427.905 142.911 427.043C143.274 428.23 143.291 429.496 142.96 430.692C142.63 431.889 141.966 432.966 141.046 433.799C143.036 433.517 143.569 433.909 143.46 434.896C143.35 435.884 143.46 437.388 141.657 438.031C141.888 438.22 142.161 438.35 142.454 438.407C142.747 438.465 143.049 438.448 143.334 438.36C143.237 439.365 142.857 440.322 142.237 441.119C142.549 441.232 142.822 441.433 143.022 441.698C143.223 441.963 143.343 442.279 143.367 442.61C143.392 442.941 143.321 443.273 143.162 443.564C143.003 443.856 142.764 444.095 142.472 444.254C142.601 444.51 142.798 444.726 143.041 444.878C143.284 445.03 143.565 445.112 143.852 445.116C143.852 445.884 143.852 446.683 143.852 447.404C148.868 447.404 220.331 446.668 225.363 446.668C225.786 442.827 226.1 439.724 226.398 436.95C227.072 435.851 227.674 434.709 228.2 433.532C228.445 432.89 228.551 432.203 228.51 431.517C228.47 430.83 228.284 430.16 227.965 429.551C228.059 429.018 228.812 428.846 229.282 429.128C229.709 429.475 230.007 429.955 230.128 430.492C230.877 432.315 231.234 434.274 231.179 436.244L232.966 436.166C233.171 437.106 233.037 438.088 232.59 438.94C233.328 439.506 234.161 439.936 235.051 440.21C235.296 441.036 235.206 441.926 234.8 442.686C236.367 442.342 237.794 443.909 238.421 445.461C238.797 447.076 239.567 448.573 240.662 449.818C240.917 449.492 241.224 449.212 241.571 448.988C242.294 449.553 242.869 450.284 243.249 451.119C243.432 451.459 243.498 451.851 243.437 452.232C243.399 452.42 243.289 452.586 243.131 452.694C242.973 452.802 242.779 452.845 242.59 452.812C242.964 454.586 243.791 456.233 244.989 457.593H243.609C244.155 459.727 245.495 461.571 247.356 462.75L245.569 463.22C247.038 464.828 248.982 465.926 251.118 466.355C250.585 466.841 250.052 467.421 249.55 467.922L255.35 470.289C255.747 470.432 256.126 470.622 256.479 470.854C257.532 471.854 258.151 473.227 258.203 474.678L259.426 473.628C260.884 475.656 262.956 477.162 265.335 477.923L264.959 475.697C267.043 475.977 269.063 476.613 270.931 477.578C270.555 476.732 271.449 475.744 272.373 475.76C272.834 475.813 273.275 475.976 273.66 476.235C274.044 476.494 274.361 476.842 274.584 477.249C275.303 476.357 275.72 475.259 275.775 474.114C278.896 472.929 281.786 471.211 284.318 469.035C288.221 465.9 289.13 456.496 287.626 447.389C287.845 447.556 288.119 447.634 288.394 447.608" fill="#F0B414"/>
<path d="M109.726 207.568C107.445 208.528 105.006 209.06 102.531 209.135C102.531 211.518 102.646 213.901 102.876 216.283C103.79 216.103 104.631 215.656 105.29 214.998C105.983 214.316 106.598 213.559 107.124 212.741C107.648 211.925 108.119 211.077 108.535 210.201C108.754 209.762 109.334 207.709 109.726 207.537" fill="white"/>
<path d="M36.2253 176.877C35.0026 173.178 32.3535 168.209 31.0054 163.46C29.4758 158.249 29.7576 152.674 31.8048 147.644C34.4696 141.374 39.3917 135.622 47.6839 135.857C49.2515 130.669 54.8005 125.527 58.4215 123.317C64.3816 119.582 71.1954 117.428 78.2195 117.057C85.2436 116.687 92.2462 118.113 98.566 121.201C105.259 124.242 110.558 128.678 118.066 129.462C121.201 129.791 124.336 130.057 127.299 127.628C128.177 134.807 128.694 147.315 123.929 156.234C118.239 166.877 107.47 168.774 95.9952 168.241C96.2781 168.677 96.4722 169.164 96.5663 169.675C96.6605 170.186 96.6528 170.711 96.5439 171.219C89.0824 174.714 77.9529 167.723 71.1342 166.391C65.35 165.262 50.3017 166.313 46.9002 169.824C45.1988 171.62 43.2824 173.199 41.1943 174.526C39.6268 175.482 36.4917 176.485 35.5669 177.88" fill="white"/>
<path d="M48.6252 193.555C46.4464 198.085 52.9359 201.063 56.1337 203.367C60.2406 206.33 56.4786 209.167 53.5786 211.8C54.8421 212.633 56.3428 213.032 57.8533 212.936C59.3638 212.84 60.8017 212.254 61.9493 211.267C62.4743 212.84 62.5739 214.524 62.238 216.149C61.9022 217.773 61.1428 219.279 60.0369 220.515C63.3266 221.362 66.806 221.075 69.9123 219.7C75.1008 217.208 81.2612 208.916 84.1925 204.026C89.0232 195.762 90.7359 186.043 89.0205 176.626C87.453 168.366 81.6845 157.644 72.4674 156.579C68.7767 156.112 65.0282 156.482 61.5004 157.663C57.9726 158.843 54.756 160.803 52.0895 163.397C48.6723 166.532 40.8503 174.871 38.6244 179.072C34.9564 186.031 43.1859 194.448 48.249 194.448" fill="white"/>
<path d="M54.8164 162.802C41.7888 159.766 28.12 161.179 15.9887 166.814C3.79327 172.41 23.3717 183.461 29.6889 184.652C37.7303 186.219 45.2231 183.476 52.4651 180.2C54.0326 179.338 54.0326 183.806 54.3932 185.843C54.8509 188.954 55.6716 192 56.8385 194.919C58.4974 198.862 60.6974 202.555 63.3751 205.891C66.1328 209.487 69.6612 212.419 73.701 214.473C77.7409 216.526 82.1895 217.648 86.7199 217.756C91.2504 217.864 95.7475 216.956 99.8808 215.098C104.014 213.24 107.679 210.48 110.605 207.02C113.63 203.587 115.558 198.508 117.204 194.26C118.85 190.013 119.775 183.837 121.201 179.04C121.687 177.473 124.54 180.436 136.046 179.699C144.009 179.182 147.175 175.686 151.47 172.332C156.267 168.586 159.198 165.717 153.665 160.952C151.102 158.632 147.892 157.15 144.464 156.704C135.37 155.491 126.117 156.786 117.706 160.45C115.26 161.563 112.36 162.676 110.025 163.899C108.63 164.636 107.25 166.156 105.777 166.187C102.642 166.187 98.3624 163.601 95.3371 163.052C88.6437 161.72 82.5774 160.106 75.3511 161.767C72.7176 162.378 68.8928 165.984 66.4632 166.093C64.5037 164.871 63.2341 163.679 61.6508 162.958C59.1271 163.366 58.7196 163.288 58.0612 163.852" fill="black"/>
<path d="M55.8047 161.579C57.8425 165.263 64.6142 168.037 68.3449 169.761C72.0757 171.486 78.5966 172.771 82.9543 173.617C89.6947 174.918 100.667 175.185 105.26 170.639C103.959 169.824 103.693 169.542 102.235 168.774C111.154 170.012 123.663 161.752 125.199 151.845C118.929 152.911 107.063 151.14 101.138 149.071C93.8957 146.547 84.804 141.234 76.888 143.585C72.5302 144.87 69.8654 149.306 67.4828 152.989C65.5077 156.124 65.1628 159.009 63.4229 162.065" fill="white"/>
<path d="M138.82 287.744C135.324 288.637 121.389 293.042 120.511 297.148C119.21 303.418 133.851 307.964 138.083 308.34C146.767 309.092 152.661 307.697 160.436 304.61C160.436 317.572 169.544 335.959 182.836 340.959C197.649 346.539 217.322 343.592 225.363 328.419C228.859 321.852 230.16 314.312 233.201 307.619C246.306 315.221 274.772 313.372 277.656 298.324C278.456 294.186 264.128 287.853 251.008 287.226C248.108 287.085 245.365 286.552 242.355 286.458C238.797 286.349 235.725 287.509 232.558 287.352C226.398 288.919 223.012 291.129 217.055 289.217C211.444 287.414 205.424 287.414 199.436 286.882C187.555 285.847 175.406 284.624 164.089 286.678C159.966 287.43 157.16 288.245 152.975 287.838C148.272 287.399 143.57 286.411 138.961 287.587" fill="black"/>
<path d="M139.918 271.191C142.363 286.16 151.784 292.32 154.606 294.139C158.822 296.85 164.654 297.979 169.529 298.434C179.357 299.358 189.907 299.421 197.18 291.929C202.071 300.644 219.831 303.528 228.531 301.255C239.002 298.512 254.771 288.919 258.941 278.684C245.789 284.703 239.064 277.194 232.073 269.106C224.235 260.031 202.18 252.946 198.434 268.667C195.299 254.795 177.946 256.833 166.864 262.742C158.822 267.022 149.856 280.768 139.949 271.207" fill="white"/>
<path d="M92.4377 447.029C103.943 442.122 119.948 443.69 130.623 443.721C143.304 443.721 168.808 450.587 194.374 443.972C204.751 441.276 218.357 437.592 227.167 436.605C238.673 441.762 223.671 469.616 220.066 469.851C201.71 471.073 195.597 464.208 176.99 464.333C165.077 464.412 145.64 468.017 133.664 470.227C120.214 472.719 104.053 475.008 88.4719 474.443C81.0575 474.146 71.9501 472.108 72.0755 464.13C72.2009 456.151 85.0703 450.022 92.4534 447.076" fill="black"/>
<path d="M71.2285 213.117C68.5637 219.637 65.3973 229.309 63.2341 236.017C61.8704 240.265 59.4407 251.488 62.2623 252.209C67.6546 253.604 87.3428 232.741 88.3617 232.663C89.3806 232.585 100.228 246.159 104.445 248.933C107.689 251.081 113.85 253.761 115.198 250.156C116.483 246.802 105.087 218.603 103.394 213.321C98.9952 216.077 93.9422 217.613 88.7535 217.772C79.5521 217.772 73.8463 215.076 71.2285 213.07" fill="#8AD2D4"/>
<path d="M81.2915 239.685C83.7398 237.868 86.0893 235.922 88.3298 233.854C90.6184 235.814 94.3804 239.34 94.5999 239.074C94.8193 238.807 90.8692 234.622 89.5211 233.243C88.4081 232.099 88.2357 231.581 87.1384 232.71C85.2104 234.685 82.8591 237.412 80.8683 239.34C79.8651 240.563 80.978 239.858 81.1818 239.685" fill="#2E58A6"/>
<path d="M88.298 245.83C88.0097 245.914 87.7425 246.059 87.514 246.254C87.2854 246.449 87.1006 246.69 86.9717 246.961C86.8429 247.232 86.7728 247.528 86.7661 247.828C86.7595 248.129 86.8164 248.427 86.9331 248.704C87.0499 248.981 87.2238 249.23 87.4435 249.434C87.6632 249.639 87.9237 249.795 88.208 249.893C88.4923 249.99 88.7939 250.026 89.0931 249.998C89.3923 249.971 89.6822 249.88 89.944 249.733C92.405 248.573 90.5239 245.03 88.298 245.83Z" fill="white"/>
<path d="M90.0386 263.761C89.698 263.797 89.3785 263.944 89.1289 264.178C88.8793 264.413 88.7134 264.722 88.6565 265.06C88.5997 265.398 88.6549 265.745 88.8139 266.048C88.9729 266.351 89.2269 266.594 89.537 266.74C89.7559 266.842 89.9955 266.893 90.2372 266.887C90.4788 266.882 90.716 266.821 90.93 266.709C91.1441 266.596 91.3294 266.436 91.4713 266.241C91.6132 266.045 91.7079 265.819 91.7481 265.581C91.7882 265.342 91.7727 265.098 91.7027 264.867C91.6327 264.635 91.5102 264.423 91.3447 264.247C91.1791 264.071 90.9751 263.935 90.7486 263.851C90.522 263.767 90.279 263.736 90.0386 263.761" fill="white"/>
<path d="M92.531 280.69C92.3385 280.453 92.0689 280.292 91.7695 280.234C91.47 280.176 91.1596 280.225 90.8926 280.372C90.6256 280.52 90.4189 280.756 90.3086 281.041C90.1984 281.325 90.1916 281.639 90.2894 281.928C91.1046 284.06 93.9104 282.21 92.531 280.69Z" fill="white"/>
<path d="M57.7483 469.286C58.5948 463.785 60.3974 457.703 58.5791 448.157C56.0867 435.037 51.6193 434.677 49.8323 420.554C47.8729 404.88 47.7945 377.637 45.7567 361.978C44.4556 351.994 27.1501 347.417 19.6573 360.834C14.5158 371.602 19.6573 381.039 22.6826 392.512C26.5074 407.137 31.3981 419.786 32.2289 433.188C32.997 445.727 29.376 458.69 26.3977 470.243C25.849 472.39 25.4258 473.863 25.1123 475.415C24.6884 476.646 24.4712 477.938 24.4696 479.24H49.989C52.7215 479.395 55.4284 478.64 57.6856 477.092C58.0621 474.495 58.0937 471.86 57.7797 469.255L57.7483 469.286Z" fill="black"/>
<path d="M232.684 305.691C229 306.725 225.719 308.857 223.279 311.804C218.874 317.572 217.573 322.118 215.817 326.162C210.676 337.934 201.992 341.257 192.445 341.382C194.53 353.169 208.701 361.492 222.542 362.856C243.672 364.925 254.567 346.413 258.721 333.2C260.68 326.93 259.677 317.196 258.282 311.726C248.077 312.384 240.521 312.259 232.652 305.707" fill="white"/>
<path d="M255.381 459.255C259.521 464.343 264.511 468.676 270.131 472.061C274.708 474.725 281.245 475.196 284.631 472.265C286.029 470.966 287.121 469.372 287.826 467.599C288.531 465.826 288.832 463.918 288.706 462.013C288.111 454.364 285.948 444.254 271.902 420.397C264.911 408.532 257.387 398.453 249.393 387.026C245.929 382.104 237.652 370.834 240.411 365.27C242.574 360.944 253.076 354.799 257.544 350.881C271.902 338.341 271.417 323.231 268.799 323.56C259.158 323.685 244.251 315.926 241.555 317.51C238.31 319.422 237.401 331.084 236.006 335.347C232.746 345.332 226.256 348.718 222.306 354C214.97 363.812 236.006 436.291 255.381 459.286" fill="black"/>
<path d="M185.108 304.186C186.676 304.186 181.048 300.706 180.045 299.985C178.67 298.987 177.194 298.136 175.64 297.446C172.742 296.056 169.538 295.425 166.329 295.612C164.762 295.769 161.015 297.493 160.718 299.296C160.247 302.101 163.853 304.092 166.408 304.782C168.373 305.213 170.386 305.386 172.396 305.299C172.819 306.867 173.54 308.732 175.531 308.434C176.356 308.274 177.085 307.797 177.563 307.106C178.041 306.414 178.228 305.563 178.086 304.735C180.437 304.641 182.788 304.437 185.077 304.202" fill="#8AD2D4"/>
<path d="M203.982 303.387C207.012 301.293 210.151 299.362 213.387 297.603C216.068 296.302 220.049 295.095 222.792 296.553C225.238 297.823 227.275 301.522 226.601 304.139C226.351 305.174 225.175 305.707 222.447 305.895C220.122 306.022 217.79 305.97 215.472 305.738C215.485 306.516 215.194 307.269 214.662 307.837C214.129 308.405 213.397 308.742 212.619 308.779C212.203 308.782 211.791 308.691 211.415 308.512C211.038 308.334 210.707 308.074 210.445 307.75C210.183 307.426 209.997 307.048 209.901 306.643C209.805 306.237 209.802 305.816 209.892 305.409C207.723 305.463 205.555 305.305 203.418 304.939C202.524 304.704 202.399 304.547 203.982 303.371" fill="#8AD2D4"/>
<path d="M149.307 357.135C142.78 359.034 137.158 363.225 133.475 368.938C129.495 376.049 128.11 384.321 129.556 392.34C140.764 393.265 151.502 385.945 163.023 385.365C163.838 376.086 161.722 370.521 164.747 365.756C163.791 358.436 156.283 355.881 149.323 357.119" fill="black"/>
<path d="M15.3622 172.817C14.5157 175.545 11.5531 177.52 12.6033 180.764C12.8534 181.632 13.3957 182.387 14.1383 182.901C14.881 183.415 15.7785 183.657 16.6789 183.586C17.5592 183.609 18.4201 183.325 19.1128 182.781C19.8054 182.237 20.2863 181.468 20.4724 180.608C20.1118 180.325 19.5005 180.106 19.1556 179.84C19.0089 180.215 18.7724 180.548 18.4667 180.811C18.161 181.073 17.7955 181.257 17.4024 181.345C17.0093 181.433 16.6005 181.423 16.212 181.317C15.8235 181.21 15.4671 181.01 15.1741 180.733C14.0298 179.604 15.4249 178.1 15.9108 176.814C16.3673 175.543 16.5852 174.199 16.5535 172.849C16.4595 172.002 15.4406 172.002 15.3622 172.849" fill="#F0B414"/>
<path d="M149.605 167.99C149.511 170.592 153.398 172.692 152.019 175.31C151.812 175.711 151.502 176.051 151.122 176.295C150.741 176.539 150.303 176.678 149.852 176.699C149.4 176.72 148.952 176.621 148.55 176.413C148.149 176.205 147.81 175.895 147.567 175.514C147.112 175.89 146.627 176.172 146.141 176.533C147.16 180.216 151.643 179.526 153.32 178.46C154.116 177.974 154.72 177.229 155.032 176.35C155.343 175.471 155.342 174.511 155.029 173.633C154.621 171.642 152.944 169.949 151.313 167.99C150.828 167.206 149.84 166.971 149.605 167.99" fill="#F0B414"/>
<path d="M58.9852 161.406C60.1883 161.817 61.4267 162.116 62.6846 162.3C65.1194 162.752 67.591 162.978 70.0676 162.974C71.4941 162.974 76.087 163.601 76.6983 161.814C76.7799 161.393 76.7568 160.958 76.6311 160.548C76.5053 160.138 76.2808 159.766 75.9772 159.463C77.0902 159.306 78.8928 158.945 80.1625 158.71C84.583 157.927 85.6489 156.782 85.4765 153.788C85.4765 152.66 84.1127 152.064 83.3289 151.5C83.7805 151.79 84.1502 152.19 84.4027 152.663C84.6552 153.137 84.782 153.667 84.771 154.203C84.76 154.74 84.6115 155.264 84.3398 155.727C84.0681 156.189 83.6823 156.574 83.2192 156.845C81.924 157.604 80.4804 158.074 78.9869 158.224C77.4896 158.59 75.9366 158.67 74.4097 158.46C75.1621 159.4 76.4632 160.497 74.8956 161.422C73.6402 161.89 72.2914 162.051 70.9611 161.892C67.4999 161.976 64.0381 161.755 60.6154 161.234C59.8016 161.012 58.9658 160.88 58.123 160.842C58.2171 161.108 58.4209 161.265 58.9852 161.391" fill="#F2F2F2"/>
<path d="M238.045 290.142C243.798 290.941 244.833 287.446 243.375 286.254C243.893 286.285 244.405 286.13 244.819 285.817C245.232 285.503 245.521 285.053 245.632 284.546C245.111 284.929 244.516 285.201 243.885 285.344C243.254 285.487 242.6 285.498 241.964 285.377C243.093 286.756 243.798 288.229 241.964 289.201C240.711 289.789 239.35 290.109 237.967 290.142" fill="#F2F2F2"/>
<path d="M172.898 453.502C173.572 453.502 171.581 455.211 171.91 462.421C171.91 463.989 172.02 465.07 173.478 465.556C174.533 465.788 175.622 465.826 176.691 465.666C178.09 465.618 179.476 465.386 180.814 464.976C182.271 464.427 182.24 463.942 182.381 462.39C182.961 454.333 182.538 453.878 183.071 453.816C185.861 453.581 187.429 452.139 187.601 449.662C187.706 448.368 187.568 447.065 187.194 445.822C186.817 444.803 186.049 444.583 184.999 444.254C181.737 443.288 178.308 443.021 174.935 443.471C173.039 443.643 170.233 443.972 169.418 445.931C168.874 447.57 168.874 449.34 169.418 450.979C170.249 453.032 171.142 453.079 172.929 453.534" fill="#68C5D0"/>
<path d="M176.409 443.925C174.534 443.854 172.687 444.405 171.158 445.492C169.355 447.06 170.923 449.223 172.725 449.771C175.202 450.539 186.833 451.543 185.783 446.135C185.077 444.207 179.419 443.768 176.472 443.909" fill="white"/>
<path d="M226.305 299.782C222.715 293.637 217.824 291.145 211.335 292.179C208.506 292.478 205.804 293.51 203.497 295.173C199.94 297.658 197.371 301.314 196.239 305.503C194.358 305.503 192.43 305.503 190.549 305.503H188.088C186.003 297.807 181.567 294.531 178.197 293.183C175.734 292.243 173.085 291.895 170.463 292.167C167.84 292.439 165.319 293.324 163.102 294.75C161.171 296.04 159.589 297.786 158.495 299.834C157.401 301.882 156.83 304.169 156.832 306.49C156.653 309.025 157.094 311.565 158.115 313.891C159.136 316.217 160.708 318.261 162.694 319.845C164.897 321.347 167.462 322.231 170.123 322.405C172.783 322.579 175.442 322.036 177.821 320.832C180.53 319.663 182.893 317.819 184.686 315.475C186.478 313.131 187.639 310.367 188.057 307.446C189.17 307.446 190.502 307.446 191.803 307.446C193.528 307.446 195.173 307.446 196.208 307.446C196.788 313.168 198.951 317.557 202.478 320.174C205.059 322.024 208.176 322.977 211.35 322.886C213.005 322.875 214.654 322.697 216.272 322.353C218.636 321.82 220.839 320.734 222.7 319.183C224.561 317.633 226.028 315.662 226.979 313.434C227.98 311.267 228.445 308.892 228.336 306.508C228.227 304.124 227.546 301.801 226.352 299.734L226.305 299.782ZM227.01 308.575C226.5 311.746 225.028 314.685 222.793 316.992C220.867 319.011 218.421 320.46 215.724 321.177C212.434 321.877 209.009 321.571 205.895 320.3C201.788 318.497 198.371 312.854 198.058 309.014C197.824 308.039 197.756 307.033 197.854 306.036V305.895C198.857 300.8 203.434 296.082 209.219 294.17C210.769 293.644 212.394 293.368 214.031 293.355C216.835 293.3 219.557 294.308 221.649 296.176C224.784 299.092 227.731 304.531 227.026 308.638L227.01 308.575ZM186.27 305.848C186.17 309.646 184.647 313.269 182.002 315.998C179.357 318.727 175.784 320.363 171.99 320.582C166.644 321.005 160.437 318.544 159.073 310.393C158.133 304.75 159.387 300.471 162.914 297.321C165.99 294.938 169.775 293.653 173.667 293.668C174.753 293.654 175.835 293.796 176.88 294.092C180.015 295.048 183.919 299.578 185.282 302.399C185.896 303.447 186.23 304.634 186.254 305.848" fill="#F99AC1"/>
<path d="M179.732 351.508C179.732 351.351 180.14 351.241 180.297 351.194C180.556 351.119 180.826 351.087 181.096 351.1C181.096 351.492 181.096 351.711 181.096 352.229C180.657 352.103 179.764 351.774 179.779 351.508" fill="#F86775"/>
<path d="M177.523 446.433C177.967 445.979 178.45 445.565 178.965 445.194C179.183 445.051 179.421 444.94 179.671 444.865C179.78 444.865 179.843 444.865 179.796 445.006C179.733 445.126 179.648 445.232 179.545 445.32C179.422 445.453 179.291 445.578 179.153 445.696L178.714 446.104C178.62 446.182 178.495 446.339 178.385 446.354C178.591 446.341 178.795 446.315 178.997 446.276L180.063 446.135C180.626 446.032 181.199 445.99 181.771 446.009C181.85 446.151 181.536 446.229 181.473 446.26L180.674 446.511C179.799 446.741 178.908 446.903 178.009 446.997C177.915 447.31 177.272 447.295 177.147 446.997C177.022 446.699 177.351 446.401 177.523 446.386" fill="#2E58A6"/>
<path d="M194.875 366.821C194.967 366.245 194.967 365.658 194.875 365.081C194.711 365.548 194.417 365.957 194.028 366.263C193.64 366.568 193.172 366.756 192.68 366.806C192.304 366.618 192.132 365.944 192.022 365.505C191.852 365.933 191.808 366.401 191.897 366.853C190.841 366.808 189.791 366.666 188.761 366.429C187.695 366.229 186.646 365.94 185.626 365.567C184.757 365.084 183.85 364.669 182.915 364.329C182.57 364.329 183.134 364.846 183.636 365.301C183.381 365.273 183.125 365.322 182.899 365.442C183.517 365.593 184.105 365.848 184.639 366.194C184.006 366.347 183.423 366.66 182.946 367.104C183.983 366.944 185.032 366.871 186.081 366.884L185.658 367.856C186.434 367.498 187.267 367.281 188.119 367.213H188.307C188.316 367.233 188.32 367.254 188.32 367.276C188.32 367.298 188.316 367.319 188.307 367.339L188.134 367.778L189.702 367.433C192.693 367.665 195.702 367.507 198.653 366.962C199.342 366.665 194.828 366.759 194.828 366.759" fill="#F99AC1"/>
<path d="M95.7439 437.216C95.4402 437.197 95.1438 437.115 94.8738 436.975C94.6038 436.834 94.3663 436.639 94.1764 436.401L93.2045 437.42C93.1818 437.463 93.1479 437.498 93.1065 437.523C93.0651 437.548 93.0177 437.561 92.9694 437.561C92.9211 437.561 92.8737 437.548 92.8323 437.523C92.7909 437.498 92.757 437.463 92.7343 437.42L91.8564 436.574C91.8564 437.154 91.7154 437.843 91.1981 438.141C90.9988 438.22 90.7854 438.258 90.5711 438.251C89.9206 438.29 89.2741 438.126 88.7214 437.781C88.3181 437.388 88 436.918 87.7869 436.397C87.5738 435.877 87.4704 435.318 87.483 434.755C87.4457 435.958 87.1517 437.139 86.6209 438.219C84.7738 437.972 82.8944 438.249 81.1972 439.019C80.7426 439.458 84.5988 438.658 84.975 439.129C80.2517 440.199 75.9135 442.546 72.4347 445.916C71.7137 446.59 69.6132 449.051 70.3185 448.627C72.7678 446.032 75.7163 443.958 78.987 442.53C82.0446 441.084 85.2166 439.894 88.4706 438.972L93.3926 437.875C94.1987 437.722 94.9905 437.502 95.7596 437.216" fill="#F99AC1"/>
<path d="M163.29 367.057C162.967 367.061 162.652 366.955 162.398 366.755C162.144 366.555 161.966 366.275 161.894 365.96C161.748 366.447 161.729 366.963 161.838 367.46C161.948 367.956 162.183 368.417 162.521 368.797C162.132 368.858 161.764 369.013 161.447 369.248C161.13 369.482 160.875 369.79 160.703 370.145C161.119 370.018 161.558 369.986 161.988 370.051C162.204 370.087 162.401 370.192 162.551 370.35C162.701 370.509 162.795 370.712 162.819 370.928C162.819 371.477 162.239 371.9 162.271 372.496C162.288 372.653 162.33 372.807 162.396 372.95C162.91 374.256 163.237 375.628 163.368 377.026C164.544 374.753 164.167 372.01 164.606 369.486C164.785 368.55 165.031 367.628 165.343 366.728C165.432 366.52 165.475 366.295 165.468 366.069C165.464 365.957 165.426 365.849 165.359 365.759C165.292 365.67 165.199 365.603 165.092 365.568C164.638 365.474 164.606 366.132 164.45 366.383C164.333 366.583 164.169 366.752 163.973 366.875C163.776 366.998 163.552 367.071 163.321 367.088" fill="#E7A617"/>
<path d="M77.796 459.615C77.4121 459.208 77.1136 458.728 76.9182 458.204C76.7615 457.671 76.495 456.794 77.1533 456.339C77.8117 455.884 78.5328 456.527 78.7209 457.076C79.0657 455.242 80.3825 453.329 82.2321 453.329C83.3608 453.329 84.2856 453.941 85.618 453.894C84.7559 453.376 84.3483 452.891 84.4737 452.326C84.5688 452.029 84.7337 451.758 84.9546 451.537C85.1754 451.317 85.4459 451.152 85.7434 451.057C86.4844 450.737 87.3074 450.66 88.0947 450.837C90.0729 448.412 92.7665 446.673 95.7913 445.868C92.4412 445.528 89.059 446.024 85.9472 447.31C82.2674 448.701 78.8411 450.687 75.8053 453.188C72.7537 455.72 70.608 459.175 69.6919 463.032C69.3784 464.599 69.4724 466.512 70.8362 467.295C71.0193 467.41 71.2314 467.47 71.4475 467.468C71.9021 467.468 72.4821 467.374 72.5448 466.935C72.2745 466.082 72.2175 465.176 72.3787 464.296C72.5399 463.416 72.9145 462.589 73.4696 461.888C73.9943 461.228 74.6552 460.688 75.4073 460.307C76.1593 459.926 76.9848 459.711 77.8274 459.678" fill="#E7A617"/>
<path d="M75.3977 193.743C75.3383 193.437 75.3607 193.121 75.4625 192.827C75.5643 192.532 75.742 192.27 75.9777 192.066C76.2507 191.867 76.5766 191.753 76.9142 191.739C77.2518 191.725 77.5859 191.812 77.8744 191.988C78.1692 192.149 78.4045 192.4 78.5456 192.705C78.6867 193.01 78.7261 193.352 78.6582 193.681C78.6582 193.837 78.5014 194.025 78.3603 193.978C78.2193 193.931 78.2193 193.853 78.1879 193.759C78.0836 193.421 77.8751 193.125 77.5923 192.912C77.3844 192.775 77.1305 192.726 76.8865 192.776C76.6425 192.826 76.4284 192.971 76.2912 193.179C76.154 193.387 76.105 193.641 76.155 193.885C76.205 194.129 76.3498 194.343 76.5577 194.48C77.0436 194.84 76.8085 195.311 76.2442 194.997C76.0242 194.871 75.8335 194.7 75.6849 194.494C75.5362 194.289 75.433 194.054 75.382 193.806" fill="#4D4D4D"/>
<path d="M94.7423 193.335C94.792 193.209 94.8288 193.077 94.852 192.943C94.8897 192.778 94.9624 192.622 95.0651 192.487C95.1678 192.352 95.2983 192.24 95.4477 192.16C95.5919 192.073 95.7572 192.027 95.9258 192.027C96.0943 192.027 96.2596 192.073 96.4039 192.16C96.5381 192.264 96.634 192.41 96.6766 192.574C96.7191 192.739 96.7059 192.913 96.639 193.069C96.5214 193.255 96.379 193.423 96.2158 193.57C96.1378 193.646 96.0821 193.741 96.0544 193.846C96.0268 193.951 96.0284 194.062 96.059 194.166C96.3098 194.527 97.8617 193.727 97.846 192.128C97.7953 191.861 97.6804 191.61 97.5111 191.397C97.3418 191.184 97.1232 191.015 96.8741 190.906C96.6518 190.808 96.4116 190.758 96.1687 190.758C95.9259 190.758 95.6857 190.808 95.4633 190.906C95.0295 191.108 94.6879 191.466 94.5072 191.909C94.3343 192.309 94.254 192.743 94.272 193.179C94.272 193.476 94.5542 193.696 94.7423 193.304" fill="#4D4D4D"/>
<path d="M198.512 322.024C198.52 321.935 198.52 321.846 198.512 321.758C198.538 321.645 198.588 321.539 198.658 321.447C198.729 321.355 198.818 321.279 198.92 321.225C199.019 321.165 199.133 321.134 199.249 321.134C199.365 321.134 199.478 321.165 199.578 321.225C199.672 321.295 199.74 321.395 199.771 321.509C199.802 321.622 199.795 321.743 199.75 321.852C199.667 321.98 199.567 322.096 199.453 322.196C199.399 322.248 199.36 322.313 199.341 322.385C199.321 322.457 199.322 322.532 199.343 322.604C199.515 322.855 200.581 322.29 200.581 321.193C200.546 321.008 200.466 320.834 200.349 320.687C200.231 320.539 200.08 320.423 199.907 320.347C199.752 320.277 199.584 320.241 199.413 320.241C199.243 320.241 199.075 320.277 198.92 320.347C198.621 320.485 198.385 320.732 198.261 321.037C198.142 321.313 198.088 321.613 198.104 321.914C198.104 322.118 198.293 322.275 198.434 321.993" fill="#4D4D4D"/>
<path d="M183.259 322.071C183.224 321.974 183.197 321.874 183.181 321.773C183.154 321.65 183.1 321.535 183.024 321.435C182.949 321.335 182.852 321.253 182.742 321.193C182.635 321.129 182.514 321.096 182.389 321.096C182.265 321.096 182.143 321.129 182.037 321.193C181.937 321.27 181.866 321.378 181.834 321.5C181.803 321.622 181.814 321.751 181.864 321.867C181.952 322.006 182.057 322.132 182.178 322.243C182.237 322.298 182.28 322.368 182.302 322.445C182.324 322.522 182.325 322.604 182.303 322.682C182.115 322.948 180.971 322.353 180.986 321.115C181.023 320.916 181.108 320.729 181.234 320.57C181.36 320.412 181.522 320.287 181.708 320.205C181.873 320.132 182.052 320.095 182.233 320.095C182.414 320.095 182.592 320.132 182.758 320.205C183.079 320.358 183.331 320.627 183.463 320.958C183.591 321.254 183.65 321.576 183.636 321.898C183.636 322.118 183.432 322.274 183.291 321.992" fill="#4D4D4D"/>
<path d="M186.097 330.238C186.954 330.039 187.797 329.782 188.62 329.469C189.666 329.131 190.773 329.018 191.865 329.14C192.759 329.266 193.872 329.658 194.781 329.752C196.35 330.036 197.966 329.928 199.483 329.438C201.348 328.811 203.081 327.844 204.594 326.585C204.624 326.548 204.662 326.518 204.706 326.496C204.749 326.474 204.796 326.462 204.844 326.46C205.08 326.46 205.001 326.805 204.844 326.962C203.698 328.444 202.329 329.74 200.784 330.802C199.134 331.898 197.119 332.303 195.173 331.93C194.038 331.501 192.876 331.15 191.693 330.88C189.718 330.692 187.837 331.946 185.877 331.727C185.34 331.658 184.813 331.521 184.31 331.319C182.971 330.816 181.706 330.136 180.548 329.297C179.889 328.827 180.626 328.811 181.049 328.999C181.473 329.187 182.1 329.391 182.617 329.642C183.691 330.149 184.884 330.349 186.065 330.222" fill="#4D4D4D"/>
<path d="M86.5578 207.976C87.041 207.682 87.5714 207.476 88.1254 207.364C88.9252 207.396 89.7121 207.576 90.4453 207.897C92.3107 208.352 93.4393 207.897 93.4393 208.117C92.8998 208.498 92.2785 208.747 91.6252 208.845C90.972 208.943 90.3048 208.887 89.6772 208.681C89.4045 208.605 89.1269 208.547 88.8464 208.508C88.3146 208.478 87.7819 208.552 87.2789 208.728C86.2172 209.118 85.0595 209.161 83.9714 208.853C83.6579 208.853 83.1406 208.634 83.1406 208.446C83.1406 208.258 84.7082 208.446 84.7082 208.446C85.3746 208.466 86.0346 208.31 86.6205 207.991" fill="#4D4D4D"/>
<path d="M97.1074 179.887C97.6561 177.896 103.66 172.269 109.256 171.705C111.356 171.485 113.378 171.14 115.777 173.272C117.344 174.683 116.702 177.097 115.557 178.319C113.072 177.892 110.524 177.993 108.08 178.617C107.955 180.451 106.999 181.533 105.478 181.627C104.772 181.575 104.112 181.259 103.63 180.742C103.147 180.225 102.878 179.544 102.876 178.837C100.916 178.959 98.9787 179.322 97.1074 179.918" fill="#F0B414"/>
<path d="M77.8281 179.573C76.6517 177.731 75.1292 176.134 73.345 174.871C71.7861 173.78 70.1021 172.88 68.3289 172.191C65.6327 171.046 61.855 170.451 59.2999 172.191C58.4861 172.735 57.8936 173.552 57.6292 174.495C57.3647 175.437 57.4458 176.444 57.8578 177.332C58.2159 178.357 58.8441 179.267 59.6761 179.965C61.3002 179.334 63.0043 178.933 64.7392 178.774C64.99 180.686 65.7268 181.188 66.6046 181.533C68.0938 182.113 69.5829 180.263 69.7397 178.68C72.4738 178.569 75.2094 178.86 77.8595 179.542" fill="#F0B414"/>
<path d="M268.517 301.114C268.437 301.423 268.43 301.746 268.495 302.059C268.56 302.372 268.697 302.665 268.893 302.917C269.271 303.348 269.776 303.65 270.335 303.779C270.693 303.869 271.066 303.88 271.428 303.813C271.791 303.745 272.135 303.6 272.436 303.387C272.772 303.099 273.012 302.717 273.125 302.29C273.314 301.756 273.32 301.175 273.141 300.639C272.962 300.102 272.609 299.64 272.138 299.327C271.791 299.136 271.402 299.031 271.006 299.022C270.609 299.013 270.217 299.1 269.861 299.276C269.505 299.451 269.198 299.71 268.963 300.03C268.729 300.35 268.576 300.722 268.517 301.114" fill="white"/>
<path d="M269.598 301.537C269.566 301.688 269.572 301.844 269.616 301.992C269.66 302.14 269.74 302.274 269.849 302.383C269.974 302.459 270.118 302.5 270.265 302.5C270.411 302.5 270.555 302.459 270.68 302.383C270.981 302.214 271.222 301.956 271.37 301.645C271.519 301.333 271.568 300.984 271.511 300.643C271.48 300.422 271.375 300.217 271.213 300.063C270.366 299.327 269.645 300.941 269.645 301.631" fill="#F2F2F2"/>
<path d="M100.056 201.204C99.3926 201.66 98.6702 202.024 97.9086 202.286C94.6011 203.32 91.0585 201.157 87.6413 201.675C86.048 202.079 84.4782 202.571 82.9387 203.148C77.4994 204.606 72.7968 200.138 72.5303 200.138C72.2638 200.138 73.4551 201.58 74.2232 202.129L75.6183 203.101C76.2273 203.528 76.8665 203.91 77.5307 204.245C79.4422 205.16 81.6221 205.343 83.6598 204.762C84.7727 204.449 85.87 204.026 86.9673 203.649C88.0216 203.306 89.1578 203.306 90.2121 203.649C91.2623 203.947 92.2498 204.402 93.3471 204.668C94.523 204.983 95.7609 204.983 96.9368 204.668C98.3188 204.173 99.5874 203.406 100.667 202.411C102.118 201.385 103.213 199.933 103.803 198.257C103.583 197.803 102.737 199.229 102.313 199.59C101.616 200.159 100.883 200.682 100.119 201.157" fill="#4D4D4D"/>
<path d="M22.7601 172.269C21.945 173.35 24.5001 172.175 25.2525 171.987C28.7237 171.155 32.2573 170.61 35.8177 170.356C36.2013 170.299 36.593 170.331 36.962 170.45C37.7144 170.748 38.0279 171.689 38.6863 172.175C39.0674 172.387 39.4887 172.518 39.9233 172.559C40.3579 172.599 40.7961 172.548 41.21 172.41C42.0364 172.093 42.9117 171.924 43.7964 171.908C45.7088 172.159 44.4548 173.601 45.0661 174.04C45.4017 174.138 45.7552 174.158 46.0997 174.099C46.4443 174.04 46.7709 173.903 47.0548 173.699C47.3388 173.495 47.5726 173.23 47.7386 172.922C47.9047 172.614 47.9985 172.273 48.0131 171.924C48.0355 171.233 47.8639 170.549 47.5175 169.951C47.1712 169.352 46.6641 168.863 46.0537 168.538C44.8256 167.909 43.4807 167.541 42.1035 167.457C35.2847 166.626 26.4282 168.538 22.7445 172.159" fill="#4D4D4D"/>
<path d="M69.9596 134.117C71.7671 133.864 73.6084 134.182 75.2265 135.026C76.0191 135.48 76.6022 136.227 76.8513 137.106C77.1003 137.984 76.9954 138.926 76.559 139.728C76.3081 140.089 75.9319 140.449 75.9633 140.888C75.9946 141.327 76.4335 141.609 76.7784 141.876C77.437 142.396 77.9443 143.084 78.2475 143.866C78.5507 144.649 78.6388 145.499 78.5027 146.327C78.2362 147.895 76.5589 149.995 77.2487 150.795C77.9384 151.594 79.8978 150.653 81.1205 150.073C82.7466 149.287 84.3178 148.392 85.8231 147.393C86.6104 147.009 87.2969 146.446 87.8277 145.75C88.3585 145.053 88.7188 144.241 88.8797 143.38C88.8797 142.612 88.6446 141.813 89.0365 141.092C89.3494 140.682 89.7661 140.363 90.2435 140.167C91.6747 139.487 92.9018 138.443 93.8016 137.139C94.7013 135.835 95.242 134.317 95.3693 132.737C95.3374 131.577 95.0596 130.436 94.5543 129.39C94.049 128.344 93.3277 127.418 92.438 126.671C90.6278 125.183 88.4712 124.174 86.1679 123.74C79.4746 122.173 72.4677 124.007 66.1035 126.562C64.2147 127.403 62.4269 128.454 60.7739 129.697C58.6033 131.177 56.6465 132.95 54.9584 134.963C53.9395 136.186 52.1995 138.678 52.6854 139.289C53.5319 140.371 57.1686 137.487 60.1469 136.154C63.2274 134.836 66.5313 134.118 69.8813 134.038" fill="#F2F2F2"/>
<path d="M44.7835 468.346C44.9079 468.473 44.9853 468.639 45.0029 468.816C45.146 469.502 45.2195 470.2 45.2224 470.901C46.9624 470.399 47.9185 468.377 48.8904 465.806C49.9407 464.944 48.9688 469.976 51.712 468.785C53.0444 468.205 54.3924 467.672 55.6621 466.966C56.007 467.155 56.0854 467.609 56.1167 468.001C56.2911 468.871 56.2894 469.768 56.1117 470.637C55.934 471.507 55.5839 472.332 55.0822 473.064C54.5135 473.613 53.8424 474.044 53.1071 474.333C46.0081 477.791 38.1764 479.474 30.2838 479.24C29.7822 479.24 27.4309 476.183 28.4968 474.537C32.4157 474.114 35.3783 474.286 37.902 473.346C43.3884 471.246 44.4857 468.095 44.8305 468.393" fill="#4D4D4D"/>
<path d="M140.811 382.731C152.458 377.559 155.86 381.007 156.675 380.474C157.192 380.019 157.608 379.46 157.894 378.834C158.18 378.207 158.331 377.527 158.336 376.838C158.807 373.167 158.87 369.456 158.524 365.771C158.03 367.081 157.112 368.187 155.916 368.915C154.72 369.642 153.315 369.948 151.925 369.784C151.706 369.775 151.496 369.692 151.329 369.549C151.047 369.236 151.58 367.982 151.329 367.652C151.079 367.323 149.762 368.781 149.276 369.33C148.43 370.348 146.909 370.364 145.577 370.49C141.477 370.993 137.743 373.094 135.184 376.336C134.087 377.7 130.81 387.904 131.641 388.264C132.472 388.625 136.171 384.832 140.858 382.747" fill="#4D4D4D"/>
<path d="M212.619 452.499C211.306 456.951 210.59 461.558 210.487 466.198C208.199 466.089 199.389 464.725 196.567 462.452C195.737 461.778 201.756 460.226 200.016 459.599L197.273 458.346C196.897 458.173 196.426 457.828 196.599 457.436C196.771 457.044 197.022 457.107 197.304 457.06L200.941 456.512C202.06 452.11 204.209 448.038 207.211 444.63C207.883 443.804 208.702 443.108 209.625 442.577C213.657 441.523 217.775 440.831 221.93 440.508C217.682 442.389 213.873 448.815 212.525 452.499" fill="#4D4D4D"/>
<path d="M267.028 328.31C266.401 329.391 258.548 336.492 247.309 331.586C245.741 334.015 245.192 335.489 244.832 335.379C244.503 335.63 245.334 331.617 245.522 330.473C245.286 331.131 243.437 335.473 243.499 334.579C243.499 333.31 243.735 331.335 243.86 329.156C242.512 327.714 241.415 327.009 241.289 327.965C240.333 331.225 238.154 337.369 241.289 339.58C244.091 341.387 247.262 342.544 250.569 342.965C257.121 343.42 259.974 342.307 261.119 341.743C262.342 341.004 263.386 340.003 264.175 338.812C267.514 333.482 267.53 329.156 266.95 328.31" fill="#4D4D4D"/>
<path d="M244.003 307.603C243.685 307.32 243.427 306.976 243.247 306.59C243.066 306.205 242.966 305.787 242.952 305.361C243.203 303.465 246.62 303.167 247.247 301.333C247.514 300.549 247.247 299.672 247.498 298.904C247.749 298.136 249.066 297.681 249.991 297.336C257.201 294.53 267.421 296.662 266.199 296.051C259.333 293.543 251.401 294.358 244.488 296.772C241.557 297.791 237.952 299.766 237.732 302.948C237.744 303.582 237.917 304.202 238.235 304.751C238.553 305.299 239.006 305.758 239.551 306.083C240.221 306.602 240.973 307.004 241.777 307.274C242.106 307.384 243.893 307.509 244.003 307.65" fill="#4D4D4D"/>
<path d="M134.54 295.471C135.841 295.392 139.823 295.392 140.811 297.963C140.917 298.34 141.104 298.69 141.359 298.988C141.614 299.285 141.931 299.524 142.287 299.686C142.644 299.849 143.032 299.932 143.424 299.929C143.816 299.927 144.202 299.839 144.557 299.672C144.306 300.706 145.247 301.725 146.375 302.054C147.527 302.297 148.724 302.227 149.839 301.85C151.595 301.364 153.539 300.408 153.727 298.715C153.915 297.023 151.642 295.58 150.2 294.687C145.827 292.226 141.296 292.069 136.28 292.775C129.023 293.794 123.63 297.336 124.963 297.336C126.091 298.057 131.233 295.627 134.572 295.424" fill="#4D4D4D"/>
<path d="M45.4266 299.17C45.1113 299.856 44.9764 300.612 45.0347 301.365C45.2542 302.65 46.5082 303.465 47.6838 304.029C50.221 305.274 52.9002 306.206 55.6626 306.804C57.0107 307.102 58.5782 307.462 59.1268 308.732C59.3062 309.234 59.3861 309.766 59.362 310.299L60.0987 337.495C60.2241 342.197 60.3965 347.087 62.6224 351.225C68.7201 362.605 86.5116 362.652 93.346 373.593C94.9136 375.991 96.9357 380.741 97.8292 380.741C98.9735 380.741 98.5346 364.11 93.1266 358.201C90.1953 355.066 86.3548 352.699 83.8311 349.188C80.9312 345.159 80.0847 340.049 79.3166 335.081C77.7491 325.535 76.3383 315.989 75.3508 306.38C75.1956 303.652 74.6682 300.957 73.7832 298.371C73.3364 297.081 72.6142 295.904 71.6668 294.922C70.7194 293.939 69.5695 293.174 68.2969 292.681C67.0985 292.48 65.943 292.077 64.8797 291.49C64.3284 290.943 63.894 290.291 63.6029 289.571C63.3119 288.852 63.1703 288.08 63.1867 287.305C62.6381 281.223 63.3592 275.157 63.61 269.091C63.7824 264.733 63.2181 252.664 61.9327 253.667C60.8427 255.556 60.0198 257.587 59.4874 259.702C58.249 263.73 56.7755 267.68 55.3334 271.646L45.4109 299.233" fill="#68C5D0"/>
<path d="M111.452 295.44C111.546 297.666 111.452 300.142 109.884 301.71C109.104 302.216 108.36 302.777 107.658 303.387C107.06 304.24 106.718 305.246 106.671 306.287L99.6166 357.072C99.3502 359.016 99.1621 364.188 99.9772 362.84L111.984 323.278C113.207 319.249 114.681 314.892 118.255 312.619C121.39 310.566 128.287 309.719 129.713 306.083C127.764 305.488 125.938 304.549 124.321 303.308C122.33 301.741 120.465 299.86 120.465 298.057C120.465 295.565 123.6 293.355 129.071 291.082C126.663 284.535 123.841 278.148 120.622 271.959C118.114 267.539 115.12 260.799 111.044 257.664C107.909 254.263 110.103 270.58 110.542 275.486C111.154 282.116 111.154 288.794 111.452 295.455" fill="#68C5D0"/>
<path d="M15.0476 351.1C15.6637 351.41 16.1508 351.927 16.4232 352.561C16.6956 353.194 16.7358 353.904 16.5368 354.564C16.2917 355.276 15.8205 355.888 15.195 356.307C14.5695 356.726 13.8241 356.928 13.0726 356.884C13.0102 359.834 13.5433 362.766 14.6401 365.505C15.3372 362.027 16.5247 358.665 18.167 355.52C20.6115 351.341 24.5912 348.282 29.2584 346.993C33.9255 345.705 38.9112 346.29 43.1535 348.623C42.8481 346.044 42.3237 343.496 41.5859 341.006C41.1013 339.147 40.3516 337.368 39.3601 335.723C37.6569 333.277 35.2227 331.433 32.4066 330.456C29.5904 329.479 26.5371 329.419 23.6847 330.284C14.499 333.137 10.784 343.764 11.8656 352.558C11.9588 352.243 12.1159 351.95 12.327 351.698C12.5381 351.446 12.7987 351.24 13.0927 351.093C13.3867 350.946 13.7078 350.861 14.036 350.844C14.3642 350.826 14.6925 350.876 15.0006 350.99" fill="#68C5D0"/>
<path d="M140.419 350.457C139.62 352.166 138.224 355.975 139.102 355.269C143.189 351.872 148.079 349.578 153.304 348.608C155.334 348.147 157.46 348.402 159.323 349.329C161.534 350.551 162.725 352.793 163.289 352.761C164.308 352.683 163.054 350.833 163.493 344.046C163.55 343.412 163.513 342.773 163.383 342.15C163.219 341.868 162.993 341.628 162.721 341.449C162.449 341.27 162.139 341.155 161.816 341.115C157.005 339.71 151.892 339.71 147.081 341.115C143.005 342.447 142.833 345.238 140.372 350.52" fill="#68C5D0"/>
<path d="M56.1785 262.837C55.6969 262.372 55.0879 262.061 54.4291 261.944C53.7702 261.827 53.0914 261.908 52.4791 262.178C52.1237 262.4 51.7305 262.554 51.3191 262.633C50.5511 262.633 49.9711 261.943 49.2657 261.63C48.7664 261.439 48.2123 261.452 47.7227 261.666C47.233 261.88 46.8471 262.278 46.6479 262.774C46.3971 263.464 46.3971 264.467 45.6917 264.639C44.9863 264.812 44.469 263.777 44.1242 263.072C43.9506 262.721 43.702 262.413 43.3958 262.169C43.0897 261.925 42.7336 261.752 42.3529 261.661C41.9698 261.582 41.5719 261.621 41.2111 261.772C40.8503 261.923 40.5435 262.179 40.3308 262.507C39.8448 263.338 40.0799 264.576 39.2962 265.141C38.8365 265.357 38.3437 265.495 37.8384 265.548C37.3847 265.696 36.9892 265.983 36.7079 266.369C36.4265 266.754 36.2736 267.219 36.2708 267.696C36.2708 268.182 36.4276 268.699 36.1611 269.106C35.9776 269.329 35.7544 269.515 35.5028 269.655C35.2091 269.885 34.9652 270.172 34.7862 270.499C34.6072 270.826 34.4967 271.186 34.4615 271.557C34.4263 271.928 34.4671 272.302 34.5814 272.657C34.6958 273.012 34.8813 273.34 35.1265 273.621C35.4046 273.849 35.6522 274.113 35.8633 274.404C36.7411 275.972 33.7001 277.853 34.719 279.326C35.1109 279.891 35.9417 280.047 36.2865 280.674C36.6314 281.301 36.0984 281.96 35.973 282.618C35.9032 283.096 36.0072 283.584 36.266 283.992C36.5248 284.4 36.9214 284.703 37.3838 284.844C37.8384 284.969 38.387 284.953 38.6535 285.345C38.7727 285.583 38.8216 285.849 38.7946 286.113C38.747 287.079 38.9812 288.037 39.4686 288.872C39.7211 289.283 40.0953 289.605 40.5392 289.793C40.9831 289.981 41.4745 290.026 41.9453 289.922C42.2597 289.782 42.5846 289.666 42.9172 289.577C44.4847 289.358 45.1117 292.211 46.7106 292.211C47.0936 292.264 47.4833 292.182 47.8123 291.979C48.1414 291.776 48.3893 291.464 48.5133 291.098C48.9678 290.032 50.0808 286.631 50.3159 286.082C50.457 284.797 48.6543 284.107 47.51 284.029C46.3657 283.95 45.2214 284.264 44.0772 284.154C42.9329 284.044 41.7102 283.245 41.7259 282.085H39.7821C39.9236 281.842 40.1159 281.632 40.3458 281.469C40.5757 281.307 40.8379 281.196 41.1145 281.144C40.7275 281.157 40.3437 281.071 39.9985 280.896C39.6533 280.72 39.3578 280.461 39.1394 280.141C39.4331 280.252 39.7483 280.294 40.0608 280.265C40.3733 280.235 40.6748 280.133 40.9421 279.969C41.3026 279.122 40.1583 277.696 40.0643 276.834C39.9702 275.972 40.9891 274.357 41.1615 273.401C41.4123 271.991 40.4248 271.128 38.9827 270.47C39.4331 270.373 39.9012 270.398 40.339 270.541C40.7769 270.684 41.169 270.941 41.4751 271.285C41.6011 270.755 41.5956 270.203 41.459 269.675C41.3224 269.148 41.0588 268.662 40.6913 268.26C41.5534 268.26 42.2588 269.122 42.588 269.608C42.9172 270.094 43.3404 270.705 43.9361 270.658C44.5317 270.611 44.8609 269.937 45.2998 269.498C45.7728 269.14 46.3158 268.885 46.8937 268.75C47.4716 268.615 48.0715 268.603 48.6543 268.715C48.8848 268.741 49.1182 268.703 49.3284 268.605C50.0494 268.197 49.1716 266.332 49.8143 265.956C50.108 266.754 50.2618 267.597 50.2689 268.448C51.1574 267.702 51.7198 266.64 51.8364 265.486C51.9955 266.481 51.8536 267.502 51.4289 268.417C51.5515 268.437 51.677 268.431 51.7971 268.399C51.9172 268.366 52.0291 268.309 52.1254 268.231C52.2217 268.152 52.3003 268.054 52.3558 267.943C52.4114 267.832 52.4427 267.71 52.4478 267.586C52.6869 268.139 52.8402 268.726 52.9024 269.326C54.6423 269.247 55.0185 272.461 54.4699 272.273C53.2629 271.896 53.2629 271.442 52.3067 270.627C51.3505 269.812 49.783 269.294 48.8895 270.204C48.67 270.423 48.5289 270.69 48.2938 270.893C47.4787 271.599 46.2403 270.893 45.1587 271.034C44.831 271.076 44.5151 271.184 44.2308 271.352C43.9464 271.52 43.6996 271.745 43.5057 272.012C43.3117 272.28 43.1747 272.584 43.1031 272.907C43.0316 273.229 43.027 273.563 43.0896 273.887C43.262 274.577 43.748 275.235 43.5442 275.925C43.3404 276.615 42.4312 276.959 41.9767 277.602C41.8423 277.819 41.763 278.065 41.7456 278.32C41.7282 278.575 41.7731 278.83 41.8766 279.063C41.9801 279.296 42.139 279.501 42.3395 279.658C42.5399 279.816 42.7759 279.923 43.0269 279.969C43.262 279.969 43.5285 279.969 43.6696 280.173C43.7487 280.322 43.7814 280.491 43.7636 280.659C43.7826 280.945 43.8691 281.223 44.0162 281.47C44.1633 281.717 44.3668 281.925 44.61 282.078C44.8531 282.231 45.1291 282.324 45.4152 282.35C45.7013 282.376 45.9895 282.333 46.256 282.226C46.9771 281.865 47.6825 280.972 48.3879 281.364C48.6089 281.521 48.8046 281.712 48.9678 281.928C49.1404 282.156 49.3632 282.34 49.6188 282.467C49.8744 282.594 50.1559 282.66 50.4413 282.66C50.7267 282.66 51.0082 282.594 51.2639 282.467C51.5195 282.34 51.7423 282.156 51.9148 281.928C52.4007 280.361 52.9494 279.075 53.3569 277.915C52.5716 277.876 51.7982 277.707 51.0683 277.414L49.6732 279.781C49.6068 278.862 49.7295 277.939 50.0338 277.069C49.8065 277.545 49.483 277.97 49.0837 278.315C48.6845 278.66 48.218 278.919 47.7138 279.075C47.8842 278.174 48.2656 277.325 48.8268 276.599C48.09 276.85 47.0711 277.273 46.5382 276.756C45.7544 275.988 47.2279 275.047 47.4003 274.906C47.8392 274.577 47.4003 273.558 47.0555 273.166C47.6051 273.402 48.0544 273.824 48.3252 274.357C48.2332 273.393 48.3508 272.42 48.67 271.505L49.2814 273.809C49.639 273.279 50.1241 272.848 50.6921 272.555C50.9805 272.418 51.3091 272.392 51.6155 272.481C51.9218 272.571 52.1846 272.77 52.3537 273.041C52.4061 273.293 52.4272 273.551 52.4164 273.809C52.4346 274.151 52.5506 274.48 52.7507 274.758C52.9508 275.036 53.2265 275.251 53.545 275.376C53.2858 275.428 53.0177 275.414 52.7655 275.334C52.5134 275.255 52.2855 275.113 52.1029 274.922C51.6212 274.465 50.994 274.193 50.3316 274.154C49.6732 274.154 49.1089 275.047 49.5478 275.533C49.7363 275.705 49.9703 275.819 50.2219 275.862L53.451 276.709C54.4856 273.966 55.5358 270.752 56.586 268.009C57.2914 266.16 57.8244 264.373 56.1628 262.695" fill="#F99AC1"/>
<path d="M128.396 164.714C131.507 163.003 134.989 162.078 138.538 162.018C142.238 161.829 147.944 162.974 147.348 164.024C146.987 164.808 142.551 163.224 136.375 164.557C134.759 164.839 133.252 165.56 132.017 166.642C131.343 167.519 131.046 168.695 130.183 169.385C128.945 170.356 126.907 170.027 125.982 171.297C125.711 171.748 125.501 172.233 125.355 172.739C125.011 173.632 124.007 175.153 123.459 174.447C122.91 173.742 123.333 170.952 123.6 170.215C124.49 167.896 126.15 165.954 128.302 164.714" fill="#4D4D4D"/>
<path d="M107.173 149.98C108.155 150.58 108.917 151.48 109.346 152.547C109.776 153.615 109.849 154.792 109.555 155.905C109.143 157.007 108.488 158.001 107.639 158.816C106.789 159.63 105.767 160.242 104.649 160.607C102.486 161.485 100.15 161.861 97.9871 162.755C97.8881 162.786 97.8007 162.846 97.7363 162.927C97.5952 163.147 97.846 163.413 98.0655 163.554C100.488 164.868 103.293 165.294 105.997 164.761C108.349 164.472 110.59 163.599 112.518 162.222C113.487 161.522 114.303 160.631 114.915 159.604C115.527 158.577 115.922 157.435 116.076 156.25C116.215 155.071 116.022 153.877 115.518 152.802C115.014 151.727 114.219 150.815 113.224 150.168C112.91 149.98 112.549 149.807 112.424 149.463C112.393 149.26 112.393 149.054 112.424 148.851C112.351 148.301 112.124 147.782 111.769 147.355C111.414 146.928 110.946 146.61 110.418 146.437C109.712 146.124 108.207 146.014 108.113 146.437C108.019 146.861 109.054 147.644 107.11 149.964" fill="#F2F2F2"/>
<path d="M191.442 335.034C191.809 335.005 192.164 334.895 192.481 334.71C192.799 334.526 193.07 334.272 193.276 333.968C193.559 333.561 193.7 333.075 194.013 332.683C194.303 332.332 194.709 332.098 195.158 332.024C194.347 331.513 193.472 331.112 192.555 330.833C192.448 330.798 192.333 330.798 192.226 330.833C192.134 330.877 192.057 330.948 192.007 331.037C191.703 331.449 191.441 331.89 191.223 332.354C191.194 332.045 191.115 331.743 190.988 331.46C190.92 331.319 190.819 331.197 190.694 331.104C190.568 331.011 190.421 330.95 190.267 330.927C190.106 330.898 189.942 330.898 189.781 330.927C189.013 331.131 187.398 331.554 186.85 331.774C187.21 332.009 188.135 332.213 188.417 332.542C188.614 332.785 188.778 333.054 188.903 333.341C189.081 333.859 189.425 334.304 189.881 334.607C190.337 334.91 190.88 335.055 191.427 335.018" fill="#F99AC1"/>
<path d="M190.736 331.523C190.924 331.97 191.076 332.431 191.191 332.902C191.332 332.557 191.426 332.15 191.567 331.82C191.636 331.628 191.737 331.448 191.865 331.287C192.049 331.091 192.302 330.974 192.57 330.958C192.906 330.973 193.236 331.053 193.542 331.193C192.995 330.71 192.297 330.433 191.567 330.41C190.94 330.41 190 330.41 189.514 330.911C189.702 330.911 189.89 330.802 190.094 330.911C190.297 331.021 190.611 331.319 190.752 331.617" fill="#2B2729"/>
<path d="M163.494 287.743C168.102 288.856 173.463 287.743 176.52 284.154C178.003 285.946 180.01 287.227 182.26 287.818C184.51 288.408 186.888 288.278 189.06 287.446C191.216 286.537 193.148 285.17 194.723 283.441C196.298 281.711 197.479 279.66 198.183 277.43C201.114 282.226 207.337 284.185 212.902 283.511C218.467 282.837 223.53 280.016 228.28 277.038L224.847 272.884C223.325 270.845 221.419 269.125 219.235 267.821C218.133 267.19 216.871 266.891 215.603 266.961C214.335 267.03 213.114 267.465 212.087 268.213C211.052 267.461 209.835 266.999 208.562 266.875C207.289 266.751 206.006 266.969 204.845 267.508C202.537 268.617 200.45 270.136 198.685 271.991C196.291 268.392 193.065 265.424 189.279 263.338C187.315 262.069 184.973 261.516 182.649 261.771C178.746 262.507 176.551 266.583 174.905 270.204C172.303 268.636 168.839 269.749 166.441 271.614C164.042 273.48 162.177 276.019 159.669 277.743C157.161 279.467 154.418 279.671 151.502 280.126C153.963 283.731 159.34 286.725 163.525 287.728" fill="#F2F2F2"/>
<path d="M220.897 326.491C218.06 329.893 216.59 334.229 216.774 338.654C214.927 339.404 213.286 340.582 211.985 342.092C210.685 343.603 209.763 345.401 209.297 347.338C213.967 348.125 218.762 347.693 223.217 346.084C222.151 343.637 222.031 340.882 222.879 338.352C223.728 335.821 225.484 333.695 227.809 332.385C227.427 331.048 227.324 329.647 227.507 328.269C227.691 326.891 228.156 325.565 228.875 324.375C229.611 323.217 230.569 322.217 231.694 321.431C232.818 320.646 234.087 320.091 235.428 319.798C232.888 319.171 230.239 320.566 227.919 321.475C225.2 322.548 222.787 324.277 220.897 326.507" fill="#F2F2F2"/>
</svg>
