<svg width="337" height="480" viewBox="0 0 337 480" fill="none" xmlns="http://www.w3.org/2000/svg">
<path d="M319.184 0H17.7793C8.39046 0 0.779297 7.61115 0.779297 17V462.109C0.779297 471.498 8.39047 479.109 17.7793 479.109H319.184C328.573 479.109 336.184 471.498 336.184 462.109V17C336.184 7.61116 328.573 0 319.184 0Z" fill="#7D9FA7"/>
<path d="M305.186 32.0825H304.096V24.8579L301.91 25.6606V24.6763L305.016 23.5103H305.186V32.0825Z" fill="#7D9FA7"/>
<path d="M126.996 109.22C124.346 108.799 121.632 109.125 119.158 110.161C118.617 110.338 118.166 110.721 117.904 111.227C117.606 111.759 117.904 112.919 117.904 113.531C117.931 116.546 119.044 119.451 121.039 121.713C123.037 123.936 125.319 125.886 127.826 127.512C130.256 129.221 132.795 131.102 135.35 132.638C136.921 133.72 138.716 134.433 140.602 134.723L147.029 136.039C152.139 137.074 156.967 136.039 162.108 135.146C163.127 134.973 164.522 134.848 164.475 133.814C164.475 133.343 163.158 132.481 162.735 132.246C146.386 122.841 141.354 114.832 136.73 112.59C133.647 111.046 130.374 109.913 126.996 109.22" fill="#2B2729"/>
<path d="M94.3928 129.629C97.7473 127.058 107.795 121.964 110.538 123.845C112.231 125.005 112.247 127.983 111.949 130.005C111.527 132.011 110.689 133.907 109.488 135.569C109.056 136.279 108.585 136.965 108.077 137.623C105.981 139.959 103.396 141.806 100.506 143.03C95.8507 145.307 90.9908 147.138 85.9909 148.501C83.114 149.076 80.3398 150.08 77.7613 151.479C75.0954 153.244 73.1708 155.927 72.3533 159.018C71.4285 154.724 75.4884 150.084 77.8554 146.839C80.8012 142.678 84.1339 138.805 87.8092 135.271C89.8949 133.273 92.0874 131.389 94.3771 129.629" fill="#2B2729"/>
<path d="M178.725 461.961C178.716 462.387 178.854 462.802 179.117 463.137C179.507 463.431 179.997 463.56 180.481 463.497L203.728 463.341C206.565 463.341 205.091 454.516 203.947 450.315C202.536 445.142 202.379 440.738 200.42 436.302C200.398 436.154 200.341 436.013 200.253 435.893C200.165 435.772 200.049 435.674 199.915 435.607C199.781 435.541 199.633 435.508 199.483 435.512C199.333 435.516 199.187 435.555 199.056 435.628C196.188 436.443 193.429 437.666 190.576 438.543C188.016 439.212 185.384 439.559 182.738 439.578C180.277 439.735 180.45 442.556 180.042 444.625C178.787 450.313 178.334 456.148 178.694 461.961" fill="#FF8000"/>
<path d="M22.9287 458.136C22.1614 460.822 21.6368 463.571 21.3611 466.35C21.2713 467.044 21.3301 467.749 21.5336 468.419C21.7871 468.987 22.1775 469.483 22.6699 469.864C23.1623 470.244 23.7413 470.496 24.3551 470.598C25.5809 470.788 26.8288 470.788 28.0545 470.598C35.5943 469.873 43.1913 469.988 50.7054 470.942C53.0097 470.942 51.6303 466.24 51.3952 464.767C49.9655 457.034 48.9816 449.226 48.4482 441.38C48.4598 441.266 48.4461 441.151 48.4082 441.042C48.3703 440.934 48.309 440.835 48.2287 440.753C48.0477 440.68 47.8454 440.68 47.6644 440.753C44.0385 441.471 40.4862 442.521 37.0522 443.888C35.2681 444.525 33.4326 445.008 31.5658 445.33C30.3431 445.518 26.8632 445.048 26.2049 445.753C25.2487 446.741 24.9822 450.456 24.6373 451.851L23.0698 458.121" fill="#FF8000"/>
<path d="M95.9746 383.682C91.217 391.996 88.4235 401.287 87.8077 410.846C87.4158 416.724 87.9958 422.994 91.3973 427.806C92.8649 429.724 94.9544 431.07 97.307 431.615C100.135 432.566 103.101 433.042 106.085 433.026C107.541 436.52 109.249 439.905 111.195 443.151C112.151 444.719 113.014 445.973 115.098 445.722C115.284 445.718 115.465 445.658 115.616 445.55C115.706 445.456 115.776 445.343 115.819 445.221C117.437 441.501 118.585 437.594 119.237 433.59C123.173 432.282 126.481 429.555 128.516 425.941C129.645 423.903 130.539 421.411 132.702 420.517C133.424 420.273 134.188 420.178 134.947 420.238C135.707 420.297 136.447 420.509 137.122 420.862C138.469 421.574 139.763 422.38 140.994 423.276C145.186 425.973 150.126 427.269 155.102 426.975C155.71 426.989 156.309 426.826 156.826 426.505C157.657 425.894 157.72 424.703 158.127 423.746C158.535 422.79 159.898 422.038 160.51 422.869C160.306 423.496 160.604 423.558 161.262 423.621C161.594 423.63 161.924 423.557 162.222 423.41C162.519 423.262 162.777 423.044 162.971 422.775C163.352 422.234 163.677 421.656 163.943 421.05C165.118 418.778 167.172 416.959 167.956 414.514C168.317 413.171 168.475 411.782 168.426 410.392C168.537 409.517 168.344 408.631 167.877 407.884C166.937 406.724 165.134 407.037 163.645 407.194C162.517 407.377 161.36 407.185 160.353 406.645C158.786 405.674 158.566 402.648 161.058 403.291C161.717 403.463 162.109 404.09 162.626 404.592C163.143 405.094 163.802 405.533 164.382 405.203C164.589 405.045 164.753 404.837 164.86 404.599C164.967 404.361 165.013 404.1 164.993 403.84C165.053 402.497 164.802 401.158 164.258 399.929C163.714 398.7 162.892 397.613 161.858 396.755C160.381 395.632 158.698 394.812 156.905 394.341C155.884 394.006 154.835 393.77 153.769 393.636C152.484 393.494 151.183 393.636 149.898 393.636C147.945 393.551 146.002 393.326 144.082 392.962C141.527 392.538 139.238 391.002 136.84 390.062C134.303 388.86 131.555 388.168 128.752 388.024C127.404 388.024 126.055 388.322 124.723 388.479C118.746 388.94 112.762 387.678 107.48 384.842C105.645 383.763 103.658 382.965 101.586 382.475C99.4858 382.13 97.0718 382.005 96.0216 383.855" fill="#FF8000"/>
<path d="M79.7971 61.5384C79.9106 64.0984 80.225 66.6455 80.7376 69.1563C83.1046 80.3322 85.4402 87.8247 85.9575 100.505C86.271 108.186 87.525 140.82 88.0893 148.172C89.9233 147.576 92.0552 147.655 93.8892 147.059C97.2287 146.163 100.404 144.739 103.294 142.842C104.47 142.067 105.408 140.982 106.006 139.708C106.403 138.495 106.563 137.218 106.476 135.946C106.476 131.917 104.737 100.239 105.458 91.1164C106.257 81.2257 106.837 76.445 107.025 66.5073C107.128 64.36 106.88 62.2103 106.288 60.1434C105.693 59.0305 104.564 59.1716 103.42 58.5759C97.6357 55.8799 79.7187 57.8863 79.7657 61.4601" fill="#FF8000"/>
<path d="M124.615 87.3701C125.552 92.3005 126.045 97.3051 126.088 102.324C126.417 107.935 127.076 117.998 127.405 123.672C132.084 127.1 137.224 129.849 142.673 131.839C141.732 118.218 142.171 102.715 142.093 89.0002C142.22 86.2903 142.503 83.5898 142.939 80.9122C143.178 77.0809 143.938 73.3 145.196 69.6735C146.294 66.9305 148.018 64.1404 148.331 61.1622C148.41 60.6786 148.366 60.1831 148.204 59.7206C148.043 59.2581 147.769 58.8431 147.407 58.5132C146.811 58.119 146.127 57.8768 145.416 57.8079C140.589 56.8188 135.695 56.1901 130.775 55.9269C128.016 55.8485 122.138 55.1589 120.633 58.2154C118.877 61.7735 120.774 68.6547 121.401 72.3225C122.248 77.3697 123.455 82.3699 124.662 87.3387" fill="#FF8000"/>
<path d="M94.7682 298.397C93.9347 301.301 93.3371 304.268 92.9811 307.269C92.6344 310.295 93.2897 313.351 94.8465 315.968C96.2362 317.812 97.9331 319.403 99.8626 320.671C101.408 322.006 103.211 323.009 105.161 323.617C106.758 323.895 108.392 323.895 109.989 323.617C117.292 322.78 124.505 321.29 131.543 319.166C135.571 317.943 139.788 316.36 142.311 312.99C144.138 310.357 145.042 307.193 144.882 303.993C144.728 300.808 144.202 297.651 143.315 294.588C142.186 290.152 140.713 285.356 136.919 282.816C135.493 281.933 133.938 281.277 132.311 280.873C127.595 279.558 122.736 278.831 117.842 278.71C111.567 278.259 105.31 279.795 99.9567 283.099C95.4108 286.092 95.9908 293.444 94.8308 298.256" fill="#FF8000"/>
<path d="M109.567 124.942C110.183 125.842 110.538 126.896 110.593 127.985C110.648 129.075 110.402 130.159 109.88 131.118C108.803 133.02 107.32 134.663 105.538 135.93C98.9936 141.18 91.5609 145.215 83.5927 147.842C80.4577 148.892 76.9935 149.786 74.6108 152.168C70.2844 156.495 71.0838 163.344 71.0211 168.909C70.9245 176.099 71.8266 183.268 73.7016 190.211C73.8281 190.832 74.0845 191.42 74.454 191.935C76.0215 193.879 79.2664 192.201 81.6647 192.938C82.8665 200.054 83.8122 207.207 84.5019 214.397C85.4738 224.46 87.6369 234.35 88.8753 244.366C90.145 255.244 93.8914 265.793 93.86 276.828C93.86 280.496 91.352 283.255 91.2423 286.938C91.1587 287.475 91.1895 288.024 91.3327 288.548C91.4759 289.072 91.7281 289.56 92.073 289.979C92.9554 290.589 94.0407 290.831 95.0984 290.653L109.865 290.058C112.623 289.948 116.135 289.274 116.715 286.578C116.903 284.822 117.953 285.01 118.627 286.578C118.799 288.866 121.762 289.556 124.066 289.713L145.651 290.465C147.783 290.716 143.3 278.866 143.582 267.643C143.77 260.119 146.404 252.188 147.407 244.554C148.583 235.714 151.012 226.764 151.608 217.986C152.282 208.033 153.254 198.079 154.116 188.204C154.68 181.652 153.818 175.759 154.038 169.175C154.038 167.31 154.257 165.21 155.683 164.003C156.25 163.595 156.842 163.224 157.455 162.89C158.328 162.301 159.024 161.484 159.466 160.528C159.908 159.572 160.08 158.513 159.963 157.466C158.944 149.253 166.499 139.864 164.587 133.955C164.289 134.597 148.708 134.785 140.149 130.992C133.879 128.249 122.906 122.324 119.771 115.647C119.442 114.894 119.256 114.086 119.223 113.264C119.066 110.788 117.781 110.788 117.216 112.433C116.903 130.741 120.618 148.908 121.668 167.169C122.765 186.219 123.147 205.295 122.812 224.397C122.915 225.801 122.628 227.206 121.982 228.457C121.633 229.064 121.058 229.51 120.383 229.695C119.707 229.88 118.986 229.79 118.376 229.444C117.029 219.379 116.808 209.196 117.718 199.082C118.36 194.847 118.428 190.545 117.922 186.292C117.593 184.458 116.997 182.687 116.636 180.853C116.183 178.264 115.932 175.644 115.884 173.016C115.351 161.777 114.395 150.554 113.454 139.347L112.341 126.274C112.36 125.474 112.111 124.691 111.636 124.048C111.087 123.468 108.501 123.155 109.614 125.02" fill="#2E58A6"/>
<path d="M92.5108 210.917C92.5108 214.146 96.2415 222.265 94.0783 220.322L91.0687 212.688C90.8514 211.907 90.3832 211.218 89.7362 210.729C89.1702 210.52 88.5607 210.456 87.9637 210.544C87.3666 210.632 86.8011 210.868 86.319 211.231C79.7703 214.845 74.1238 219.893 69.8023 225.998C65.4807 232.102 62.596 239.105 61.364 246.483C61.1132 248.05 61.0818 249.962 62.3672 250.887C63.6526 251.812 65.659 251.06 67.2422 250.417C72.2493 248.599 77.694 248.364 82.8392 249.743C87.9477 251.123 92.8811 253.085 97.5426 255.59C109.174 261.368 120.533 267.638 131.621 274.399C134.47 276.259 137.451 277.909 140.54 279.337C143.398 280.493 146.351 281.4 149.365 282.048C155.233 283.643 161.324 284.258 167.392 283.867C173.486 283.437 179.202 280.755 183.428 276.343C185.738 273.833 187.121 270.608 187.346 267.204C187.519 262.628 185.074 258.317 181.97 254.947C174.022 246.263 158.159 244.696 146.794 248.129C145.891 250.381 145.428 252.786 145.431 255.213C148.719 253.541 152.303 252.529 155.98 252.235C157.492 252.133 159.006 252.391 160.398 252.988C161.791 253.585 163.022 254.503 163.99 255.668C164.919 256.856 165.405 258.33 165.365 259.838C165.325 261.345 164.762 262.792 163.771 263.929C162.345 265.17 160.548 265.903 158.661 266.013C147.327 267.361 141.026 256.373 137.765 247C135.32 239.946 133.815 232.501 130.163 225.996C125.929 218.8 119.603 213.064 112.027 209.553C107.732 207.469 92.7146 201.199 92.4794 210.98" fill="#E7A617"/>
<path d="M84.3762 310.388C84.3713 311.038 84.5685 311.673 84.9405 312.206C85.3944 312.664 85.9718 312.98 86.6021 313.115C90.5518 314.211 94.6 314.915 98.6878 315.216C111.228 316.501 124.756 317.034 135.603 310.513C137.265 309.526 139.02 308.006 138.832 306.078L128.33 306.987C117.2 307.943 105.569 308.836 95.2078 304.651C88.1226 301.783 83.6395 300.889 84.4076 310.31" fill="#2B2729"/>
<path d="M19.4805 439.311V439.656C19.4805 443.512 20.5307 447.729 24.3555 448.262C25.8362 448.378 27.326 448.24 28.7602 447.854C35.3131 446.668 41.7606 444.959 48.0409 442.744C48.5613 442.607 49.0199 442.298 49.342 441.866C49.524 441.481 49.5997 441.053 49.5614 440.628C49.5614 439.28 49.5614 437.932 49.5614 436.584C43.7145 435.487 37.7108 436.725 31.8012 437.462C27.7257 437.979 23.6187 439.264 19.5118 439.311" fill="#2B2729"/>
<path d="M179.446 431.788C179.278 434.471 179.278 437.161 179.446 439.844C179.398 440.39 179.518 440.937 179.791 441.412C180.082 441.707 180.443 441.924 180.84 442.045C181.237 442.165 181.657 442.185 182.064 442.101C183.843 441.894 185.594 441.49 187.284 440.895L200.608 436.756C200.608 436.239 200.608 435.706 200.608 435.189C193.851 433.622 186.327 432.681 179.461 431.788" fill="#2B2729"/>
<path d="M101.916 405.25C101.586 406.489 100.85 407.931 99.58 407.868C98.3103 407.805 97.6362 405.956 97.2756 404.561C96.9151 403.166 95.4103 401.567 94.2974 402.492C93.9784 402.81 93.7556 403.212 93.6546 403.652C92.9241 405.554 92.4906 407.558 92.3693 409.592C92.3145 410.611 92.4921 411.628 92.8886 412.568C93.2851 413.507 93.8901 414.344 94.6579 415.016C96.5232 416.473 99.1567 416.411 101.304 417.398C105.254 419.232 106.712 424.013 107.48 428.292C108.634 434.691 109.216 441.179 109.22 447.681C109.308 448.289 109.253 448.908 109.06 449.49C108.867 450.072 108.541 450.601 108.107 451.036C106.367 452.258 104.22 450.221 103.091 448.434L101.524 445.957C101.583 447.91 101.1 449.842 100.129 451.537C99.8307 452.055 99.3605 452.619 98.7491 452.54C98.3223 452.427 97.9567 452.152 97.7303 451.772C96.4972 450.205 95.3215 448.596 94.2033 446.945C93.9682 448.81 90.8488 452.807 88.9834 452.54C87.1181 452.274 85.9895 448.873 85.5819 446.49C85.1415 447.467 84.4655 448.319 83.6147 448.97C82.7638 449.621 81.7647 450.051 80.7068 450.221C80.3306 450.311 79.9388 450.314 79.5612 450.23C79.1836 450.146 78.8302 449.976 78.528 449.735C78.0288 449.077 77.8091 448.249 77.9167 447.431V440.158C77.1467 440.4 76.3149 440.354 75.5765 440.028C74.838 439.702 74.2434 439.119 73.9038 438.386C73.2739 436.904 73.0835 435.272 73.3552 433.684C73.8599 428.546 75.3107 423.545 77.6345 418.934L73.4492 423.778C72.5087 424.859 70.8784 426.003 69.8438 425.016C69.5812 424.732 69.3928 424.387 69.2952 424.013C67.9628 419.984 69.1855 415.564 70.9882 411.724C72.7909 407.884 75.1892 404.294 76.3491 400.219C77.0702 398.495 73.3552 401.912 72.3676 400.736C71.3644 399.169 72.3676 397.053 73.3238 395.407L80.0955 384.09C80.3955 383.492 80.811 382.959 81.3182 382.522C81.8777 382.159 82.5082 381.918 83.1678 381.817C86.8252 381.035 90.5898 380.886 94.2974 381.378C97.1973 381.754 103.342 382.585 105.427 384.905C107.292 386.974 104.345 390.986 103.859 393.651C103.076 397.491 102.966 401.488 101.947 405.235" fill="#E7A617"/>
<path d="M214.433 413.385C212.348 416.834 214.559 431.599 215.797 440.032C217.035 448.465 217.913 455.205 219.481 463.356C219.888 465.55 221.268 465.535 221.801 465.519C229.042 465.425 236.3 465.519 243.479 465.519C243.624 465.552 243.774 465.552 243.918 465.519C245 464.986 248.527 416.928 246.568 413.276C245.643 411.599 234.027 410.846 230.453 410.846C219.857 410.846 215.013 412.57 214.48 413.401" fill="#F2F2F2"/>
<path d="M226.27 450.033C228.448 450.12 230.623 449.796 232.681 449.077C235.816 447.635 240.111 447.603 242.572 449.954C242.98 450.346 242.713 461.303 242.572 461.601C242.389 461.809 242.162 461.973 241.907 462.082C241.652 462.19 241.375 462.24 241.098 462.228C235.686 462.756 230.25 463.002 224.812 462.964C224.028 463.036 223.24 462.866 222.555 462.478C221.882 461.914 221.442 461.121 221.316 460.253C219.89 453.544 218.934 451.052 220.485 450.221C221.316 449.766 223.244 450.221 226.301 450.048" fill="#E7A617"/>
<path d="M154.192 421.818C154.196 421.104 154.375 420.402 154.714 419.773C155.053 419.144 155.542 418.609 156.136 418.213C156.471 418.003 156.855 417.882 157.25 417.863C157.646 417.843 158.039 417.926 158.393 418.103C158.722 418.314 158.961 418.639 159.062 419.016C159.164 419.393 159.121 419.794 158.942 420.141C157.876 420.235 156.638 420.455 156.152 421.411C155.946 421.906 155.87 422.446 155.932 422.978C155.932 424.06 157.218 426.113 155.932 426.254C154.177 426.85 154.114 422.994 154.192 421.897" fill="#E7A617"/>
<path d="M110.6 422.9C110.097 422.935 109.615 423.109 109.205 423.402C109.004 423.552 108.865 423.77 108.813 424.015C108.762 424.26 108.8 424.515 108.923 424.734L114.864 425.063C115.502 425.021 116.133 425.216 116.635 425.612C117.403 426.411 116.854 427.743 117.089 428.841C117.652 428.978 118.242 428.945 118.786 428.747C119.33 428.549 119.803 428.194 120.146 427.728C120.819 426.775 121.13 425.613 121.024 424.452C121.032 424.237 120.966 424.027 120.836 423.856C120.708 423.739 120.551 423.657 120.381 423.621L118.532 423.057L118.845 421.489C119.002 420.674 119.112 419.687 118.469 419.169C117.826 418.652 116.447 419.169 115.976 420.094C115.506 421.019 115.679 422.257 114.566 422.79C113.453 423.323 111.619 422.79 110.584 422.963" fill="#2B2729"/>
<path d="M83.4036 416.63C80.9896 420.988 80.8643 425.769 80.9897 430.737C80.9588 431.957 81.1446 433.172 81.5383 434.327C81.6703 434.779 81.892 435.2 82.1901 435.565C82.4882 435.929 82.8566 436.23 83.2734 436.45C83.6903 436.669 84.147 436.802 84.6164 436.842C85.0858 436.881 85.5582 436.825 86.0057 436.678C87.9561 435.993 89.6733 434.77 90.9592 433.151C91.79 432.258 92.5267 431.333 93.3731 430.408C94.1211 429.603 94.7734 428.714 95.3169 427.759C95.8971 426.519 96.2577 425.188 96.3828 423.825C96.8295 420.375 96.7609 416.878 96.1791 413.448C96.02 412.326 95.7143 411.23 95.2699 410.188C94.7683 409.091 93.7023 407.727 92.3699 408.025C91.0651 408.53 89.8721 409.286 88.8586 410.251C86.6235 412.018 84.7637 414.213 83.388 416.709" fill="#FF8000"/>
<path d="M64.4357 246.686C73.5274 240.777 85.1428 238.677 92.6513 230.839C96.4779 226.813 98.8596 221.631 99.4229 216.105C99.611 214.224 100.019 211.952 102.292 212.563C104.561 213.291 106.755 214.236 108.844 215.384C113.13 217.364 116.954 220.221 120.067 223.77C121.453 225.297 122.41 227.162 122.842 229.178C122.701 230.385 121.384 229.037 120.898 228.488C117.904 225.165 112.622 221.999 113.06 224.57C113.97 226.027 117.293 228.049 118.719 229.006C121.878 231.302 124.31 234.458 125.726 238.097C127.128 241.723 128.178 245.476 128.861 249.304C130.274 254.681 132.963 259.639 136.699 263.756C137.2 264.352 137.874 265.198 137.436 265.825C136.511 267.142 136.809 267.753 136.041 268.255C135.94 268.298 135.829 268.313 135.721 268.296C135.613 268.279 135.512 268.232 135.429 268.161C129.034 263.819 124.049 257.659 117.888 252.972C108.985 246.216 92.808 240.04 78.1359 242.972C76.9458 243.24 75.7891 243.639 74.6873 244.163L66.6772 247.737C66.1216 248.069 65.4636 248.186 64.8276 248.066C64.2162 247.862 63.934 247.047 64.467 246.686" fill="#FF8000"/>
<path d="M119.55 304.15C119.555 304.686 119.655 305.217 119.848 305.717C119.95 305.967 120.12 306.183 120.339 306.341C120.558 306.499 120.817 306.592 121.086 306.61C121.35 306.586 121.602 306.488 121.812 306.327C122.023 306.166 122.184 305.949 122.277 305.701C122.459 305.2 122.534 304.666 122.497 304.134C122.459 300.937 121.931 297.765 120.929 294.729C120.613 293.52 120.023 292.399 119.205 291.453C119.016 291.223 118.776 291.041 118.503 290.921C118.231 290.802 117.935 290.747 117.638 290.763C116.07 291.03 118.061 295.372 118.296 296.375C118.886 298.911 119.279 301.49 119.471 304.087" fill="#E7A617"/>
<path d="M106.023 299.557C105.288 299.328 104.501 299.328 103.765 299.557C103.588 299.621 103.426 299.724 103.291 299.857C103.157 299.99 103.052 300.151 102.986 300.328C102.919 300.505 102.891 300.694 102.903 300.883C102.916 301.072 102.97 301.256 103.06 301.422C103.409 301.763 103.874 301.959 104.361 301.97C105.521 302.143 106.681 302.378 107.841 302.488C115.718 302.952 123.583 301.404 130.696 297.989C133.376 296.813 132.028 295.215 130.163 295.983C126.983 297.214 123.712 298.199 120.381 298.93C115.683 300.088 110.798 300.28 106.023 299.494" fill="#E7A617"/>
<path d="M101.556 82.0565L101.916 66.9619C101.211 66.6641 100.443 67.3538 100.239 68.0905C100.035 68.8272 100.239 69.6579 100.035 70.3633C99.8315 71.0686 99.2829 71.9307 98.4677 71.774C98.4677 70.2483 98.4677 68.7175 98.4677 67.1814C98.5267 66.1851 98.2264 65.2006 97.6213 64.407C96.8177 63.7688 95.8089 63.4455 94.7841 63.4978C92.1402 63.3306 89.4963 63.2784 86.8524 63.3411C86.2643 63.3155 85.6773 63.4116 85.128 63.6232C84.7039 63.8449 84.3397 64.166 84.0667 64.5591C83.7937 64.9521 83.62 65.4055 83.5605 65.8804C83.4549 66.8223 83.5026 67.7751 83.7016 68.7018C84.2032 71.8367 84.1562 81.8684 86.9934 83.4829C88.5609 84.392 91.5236 82.9657 93.0754 82.6678C95.8576 82.1299 98.6938 81.9246 101.524 82.0565" fill="#E7A617"/>
<path d="M138.565 81.3668L143.174 67.2597C143.681 66.1883 143.743 64.9597 143.346 63.8426C142.609 62.4319 140.713 62.2752 139.129 62.2752C138.566 62.1975 137.993 62.2458 137.451 62.4166C136.909 62.5874 136.411 62.8763 135.994 63.2627C135.687 63.7358 135.489 64.2712 135.414 64.8301C135.273 65.5825 135.101 66.3192 134.991 67.0716C134.693 69.3444 133.424 72.9966 133.22 70.3006C133.22 68.0957 133.22 65.8856 133.22 63.6702C133.263 63.2944 133.168 62.9159 132.953 62.6044C132.483 62.0714 131.527 62.4163 131.213 63.0432C130.968 63.7091 130.892 64.4256 130.994 65.128C131.039 66.7601 130.673 68.3773 129.928 69.8303C129.803 70.0811 129.536 70.3633 129.285 70.2222C129.035 70.0811 129.097 69.9087 129.097 69.7363C129.097 68.8272 129.097 67.918 129.097 67.0089C129.133 65.6376 128.893 64.2731 128.392 62.9962C127.843 62.1341 126.464 61.4288 125.837 63.2313C125.698 65.6014 125.698 67.9775 125.837 70.3476C126.166 72.7615 125.915 79.5172 128 80.8966C130.085 82.2759 137.875 82.1035 138.644 81.3511" fill="#E7A617"/>
<path d="M189.369 449.233C189.13 449.227 188.891 449.265 188.664 449.343C187.943 449.641 187.786 450.581 187.755 451.365C187.619 454.019 187.572 456.674 187.614 459.328C187.562 459.63 187.582 459.939 187.672 460.232C187.762 460.524 187.919 460.792 188.131 461.013C188.343 461.234 188.603 461.402 188.892 461.504C189.181 461.606 189.489 461.639 189.793 461.601C193.692 462.398 197.712 462.398 201.612 461.601C201.891 461.569 202.161 461.483 202.407 461.347C202.653 461.211 202.87 461.028 203.045 460.808C203.219 460.588 203.349 460.336 203.426 460.066C203.503 459.796 203.526 459.513 203.493 459.234C203.636 456.337 203.281 453.437 202.443 450.66C202.334 450.1 202.116 449.567 201.8 449.092C201.628 448.846 201.388 448.655 201.11 448.541C200.833 448.427 200.528 448.395 200.232 448.45C200.097 448.474 199.975 448.547 199.888 448.653C199.798 448.81 199.764 448.993 199.794 449.171L200.076 454.187C199.897 454.249 199.702 454.246 199.525 454.181C199.348 454.115 199.199 453.99 199.104 453.826C198.923 453.499 198.821 453.134 198.806 452.76C198.805 451.582 198.663 450.409 198.383 449.265C197.975 448.246 197.238 448.7 196.423 448.92C194.076 449.299 191.692 449.393 189.322 449.202" fill="#E7A617"/>
<path d="M37.8363 453.92C38.3158 455.48 38.5743 457.1 38.6044 458.732C38.5257 459.86 38.6317 460.993 38.9179 462.086C39.0276 462.384 39.2471 462.713 39.5606 462.698C39.8741 462.682 40.0466 462.306 40.125 462.008C40.5872 459.608 40.8701 457.177 40.9714 454.735C40.9754 454.507 41.0649 454.289 41.2222 454.124C41.3663 454.027 41.5347 453.973 41.7082 453.967L45.4075 453.575C45.5631 453.548 45.7222 453.548 45.8778 453.575C46.3637 453.701 46.5361 454.28 46.6459 454.766L48.8091 465.331C48.9658 466.068 49.0599 466.898 48.5112 467.463C48.2268 467.678 47.8925 467.819 47.5394 467.87C45.2176 468.322 42.8646 468.594 40.5011 468.685C39.2941 468.685 38.0871 468.842 36.8801 468.826C35.6731 468.811 34.4505 468.732 33.2435 468.638L27.4749 468.199C27.3978 468.219 27.3169 468.219 27.2398 468.199C27.1548 468.128 27.099 468.027 27.0831 467.917C26.5971 466.005 27.4279 464.061 27.8982 462.149C28.4154 459.986 28.4781 457.729 29.0738 455.597C29.5754 453.842 30.9235 454.171 32.4127 454.171C32.8829 454.171 37.758 453.873 37.7893 453.983" fill="#E7A617"/>
<path d="M80.3625 383.776C86.4445 382.45 92.7441 382.482 98.8123 383.87C100.944 384.356 103.045 384.967 105.082 385.532C111.269 387.224 117.539 388.619 123.893 389.717C125.742 390.046 127.906 390.25 129.269 388.949C129.822 388.33 130.175 387.559 130.282 386.737C130.388 385.914 130.243 385.079 129.865 384.34C129.078 382.874 127.935 381.629 126.542 380.719C117.435 373.948 105.772 371.628 94.4389 370.876C90.9589 370.641 87.4947 370.703 84.7829 373.023C83.67 373.979 77.6036 384.356 80.3311 383.776" fill="#2B2729"/>
<path d="M84.3754 310.388C80.3155 312.19 78.3874 317.598 77.4939 321.94C76.3501 326.385 75.8695 330.975 76.0675 335.561C76.1848 337.861 76.8075 340.106 77.8912 342.138C78.9749 344.17 80.493 345.938 82.3376 347.317C84.0953 348.212 85.7509 349.294 87.2753 350.546C82.5727 352.286 77.8701 348.148 75.174 343.947C74.6472 342.953 73.9088 342.086 73.0108 341.408C70.3773 339.84 67.1325 342.019 64.7498 344.025C54.8968 352.31 43.1996 358.11 30.6404 360.938C25.734 362.035 22.1757 367.96 21.6428 372.961C21.6359 375.279 21.463 377.595 21.1255 379.889C20.8119 381.143 20.232 382.303 19.8087 383.525C19.4342 384.707 19.1358 385.911 18.9152 387.13L17.2693 395.171C14.5373 407.929 14.1073 421.073 15.9996 433.982C16.118 435.556 16.7389 437.05 17.771 438.245C18.6628 438.998 19.75 439.481 20.906 439.64C29.7783 441.458 40.751 434.938 49.6389 436.505C52.6642 423.966 51.0654 410.783 48.7611 398.04C48.5969 396.63 48.1317 395.273 47.3972 394.058C46.3186 392.775 44.9769 391.738 43.4628 391.018C41.0079 389.573 38.6843 387.915 36.5187 386.064C41.4721 384.669 45.6104 392.334 50.6265 390.971C50.8773 387.46 51.1228 383.948 51.3632 380.437C53.0247 380.281 53.7144 382.459 54.7647 383.745C56.8652 386.347 60.9407 385.547 64.1699 384.513L74.7194 381.064C76.7258 382.632 79.7824 380.625 81.4911 378.713C83.1997 376.801 84.3283 374.324 86.4445 372.866C88.5618 371.826 90.8746 371.244 93.232 371.158C105.772 370.656 112.669 372.882 121.275 378.682C123.967 380.606 126.89 382.186 129.975 383.384C133.22 384.575 137.327 384.356 139.584 381.723C139.694 382.585 140.54 382.694 141.355 382.992C146.592 384.66 152.005 385.712 157.485 386.127C161.531 386.731 165.633 386.878 169.712 386.566C173.803 386.226 177.663 384.533 180.685 381.754C181.486 380.749 182.484 379.917 183.616 379.309C184.807 378.839 186.516 379.309 186.751 380.61C186.796 381.166 186.647 381.72 186.328 382.177C185.197 383.575 183.834 384.768 182.299 385.704C177.064 389.826 177.299 395.218 177.267 401.269C177.267 408.584 177.241 415.862 177.189 423.103C177.248 425.75 177.806 428.361 178.835 430.8C180.779 434.593 184.98 434.044 189.228 434.232C193.476 434.421 198.194 434.373 201.329 437.242C202.128 437.963 203.241 438.919 204.103 438.276C204.477 437.906 204.696 437.407 204.715 436.881C207.573 418.535 208.784 399.971 208.336 381.409C208.302 378.194 207.575 375.023 206.204 372.114C204.307 367.929 201.893 363.493 197.63 361.769C195.216 360.797 192.472 360.844 190.027 359.966C182.189 357.192 174.712 352.897 167.219 349.433C165.776 348.683 164.227 348.155 162.627 347.866C162.454 351.596 164.006 358.007 162.219 361.205C160.817 359.882 159.9 358.126 159.617 356.22C157.947 349.375 157.57 342.278 158.504 335.295C159.444 328.319 158.504 321.313 159.147 314.369C159.742 308.099 160.714 302.456 156.2 297.378C154.914 295.936 153.645 297.19 152.547 297.848C151.491 298.571 150.5 299.384 149.585 300.278C147.184 302.173 144.55 303.754 141.747 304.98C136.605 307.488 124.504 314.824 105.694 315.513C98.3252 315.657 91.0469 313.874 84.5791 310.341" fill="#F2F2F2"/>
<path d="M184.461 394.325C188.709 393.494 193.867 392.961 197.676 394.968C199.873 396.135 201.609 398.014 202.598 400.297C203.072 401.269 203.257 402.358 203.131 403.432C202.723 406.05 199.431 407.507 196.955 406.567C195.738 406.033 194.686 405.183 193.909 404.105C193.132 403.027 192.657 401.761 192.534 400.438C192.359 398.751 192.532 397.047 193.042 395.429C193.551 393.812 194.387 392.316 195.497 391.033C197.547 388.395 200.31 386.399 203.46 385.281C205.915 384.555 208.518 384.483 211.009 385.075C213.501 385.666 215.794 386.899 217.662 388.651C220.227 390.875 221.838 394.002 222.16 397.382C222.317 398.949 222.38 401.661 221.455 402.915C219.888 405.094 216.141 404.827 214.354 402.789C213.534 401.706 213.029 400.417 212.894 399.065C212.758 397.713 212.998 396.349 213.586 395.125C214.155 393.826 214.984 392.658 216.022 391.693C217.06 390.728 218.285 389.986 219.621 389.513C228.07 386.582 232.161 394.639 233.353 401.629C233.961 405.88 234.15 410.18 233.917 414.467C233.823 419.263 233.541 423.684 233.4 428.48C233.252 435.814 232.528 443.125 231.236 450.346C231.111 451.036 229.763 451.208 229.669 451.177C229.575 451.145 228.728 450.44 228.775 450.08C229.402 445.769 233.149 416.599 231.284 402.648C230.889 399.433 229.571 396.4 227.49 393.918C226.773 393.202 225.898 392.666 224.935 392.35C223.73 391.726 222.351 391.522 221.016 391.77C219.105 392.413 217.4 393.555 216.078 395.078C215.42 395.908 214.385 399.137 215.624 400.83C215.832 401.11 216.099 401.341 216.407 401.506C216.714 401.671 217.054 401.767 217.402 401.786C217.751 401.806 218.099 401.748 218.423 401.618C218.747 401.488 219.038 401.289 219.276 401.034C219.813 400.008 219.963 398.823 219.699 397.695C219.689 396.422 219.532 395.154 219.229 393.918C218.926 392.663 218.194 391.554 217.16 390.783C212.849 387.852 206.971 386.08 202.315 388.463C200.418 389.5 198.707 390.845 197.252 392.444C195.934 394.069 195.092 396.028 194.823 398.103C194.661 398.917 194.672 399.757 194.856 400.567C195.039 401.377 195.391 402.14 195.889 402.805C196.594 403.824 197.785 404.78 199.024 404.373C199.409 404.215 199.739 403.949 199.976 403.606C200.213 403.264 200.345 402.86 200.356 402.445C200.361 401.608 200.103 400.791 199.619 400.109C196.296 394.952 188.553 396.081 183.505 397.303C175.649 399.122 168.127 402.163 161.215 406.316C160.93 406.52 160.603 406.659 160.259 406.724C159.929 406.719 159.609 406.611 159.344 406.414C159.08 406.217 158.884 405.941 158.785 405.627C156.779 400.767 180.731 395.14 184.602 394.388" fill="#2E58A6"/>
<path d="M96.0215 184.506C98.0122 183.22 99.8776 181.715 101.978 180.587C104.023 179.331 106.424 178.78 108.813 179.019C109.995 179.168 111.106 179.666 112.003 180.451C112.899 181.236 113.541 182.272 113.844 183.424C114.051 184.402 113.877 185.422 113.358 186.277C112.089 188.22 109.001 188.612 108.248 190.807C107.966 191.543 107.245 191.355 107.229 190.807C107.386 188.55 110.521 187.39 110.647 185.132C110.592 184.331 110.241 183.578 109.661 183.021C109.081 182.465 108.315 182.145 107.511 182.123C105.885 182.159 104.302 182.66 102.95 183.565C100.128 185.366 97.1664 186.939 94.0934 188.267C91.4286 189.239 87.259 190.556 85.0487 190.336C83.4812 189.788 88.7324 188.189 90.2216 187.593C92.2691 186.777 94.2326 185.764 96.0842 184.568" fill="#7D9FA7"/>
<path d="M139.977 159.489C139.413 159.489 138.629 159.489 138.582 160.131C138.581 160.335 138.647 160.534 138.77 160.696C139.444 161.715 140.777 162.028 141.905 162.514C143.455 163.19 144.758 164.329 145.636 165.774C146.001 166.491 146.415 167.183 146.874 167.843C147.108 168.175 147.422 168.444 147.786 168.625C148.15 168.805 148.553 168.892 148.959 168.878C149.119 168.864 149.275 168.816 149.415 168.737C149.556 168.659 149.678 168.552 149.774 168.423C149.944 168.062 150.01 167.66 149.962 167.263C149.985 166.584 150.167 165.919 150.494 165.323C150.821 164.727 151.283 164.216 151.843 163.831C152.361 163.486 153.035 163.11 153.019 162.483C153.019 160.476 148.504 161.871 147.439 161.777C144.821 161.574 142.579 159.818 139.993 159.473" fill="#7D9FA7"/>
</svg>
