<svg width="337" height="480" viewBox="0 0 337 480" fill="none" xmlns="http://www.w3.org/2000/svg">
<path d="M319.049 0H17.6445C8.25569 0 0.644531 7.61115 0.644531 17V462.109C0.644531 471.498 8.25571 479.109 17.6445 479.109H319.049C328.438 479.109 336.049 471.498 336.049 462.109V17C336.049 7.61116 328.438 0 319.049 0Z" fill="#2E58A6"/>
<path d="M336 358.7H0.65625L0.5 460.613C0.5 475.113 12.5 479.113 16 479.113H274C273.5 479.113 321.5 479.113 321.5 479.113C325 479.113 335.5 474.113 336 462.113L336 358.7Z" fill="#F2F2F2"/>
<path d="M134.467 270.421C121.944 264.65 110.648 256.525 101.193 246.489C97.873 242.969 81.1199 228.981 76.6421 224.874C73.9872 222.691 72.1125 219.706 71.2997 216.366C71.2024 215.326 71.032 214.294 70.7901 213.278C69.4776 209.187 63.5793 208.353 59.9816 210.653C56.384 212.954 54.5466 217.184 52.9099 221.153C48.8799 230.957 44.819 240.854 42.858 251.276C41.7896 255.658 41.7896 260.233 42.858 264.616C44.1705 268.908 47.4903 272.814 51.9835 273.617C53.5276 273.911 55.257 273.787 56.8628 274.127C58.3966 274.529 59.8634 275.154 61.2169 275.98C70.3115 280.982 89.6741 292.392 87.3271 292.963C70.3424 295.912 56.245 297.92 37.0214 301.872C34.3647 302.359 31.6849 302.709 28.9924 302.922C26.9276 302.842 24.8598 302.956 22.8161 303.262C21.2017 303.837 19.7828 304.857 18.7228 306.204C17.6629 307.551 17.005 309.169 16.8252 310.874C15.6517 318.81 20.1913 330.343 23.9896 337.199C28.3931 345.205 34.8396 351.902 42.6728 356.607C44.9101 358.133 47.5196 359.024 50.2232 359.185C51.5664 359.227 52.8882 358.841 53.9982 358.084C55.1082 357.326 55.9489 356.236 56.3995 354.97C56.4849 354.212 56.7046 353.475 57.0481 352.793C57.5983 352.142 58.3561 351.7 59.1941 351.542C72.1488 347.945 80.8111 337.168 80.5795 340.04C75.6077 356.252 81.1972 373.621 86.7558 389.648C88.2998 394.141 87.1108 401.382 90.2606 404.98C93.4105 408.577 97.3943 408.933 101.903 409.21C106.43 409.305 110.941 408.632 115.244 407.219C122.964 405.011 130.684 401.907 136.505 396.411C142.327 390.914 146.187 382.746 144.674 374.795C142.512 363.508 130.283 354.924 131.595 343.498C131.271 345.366 136.228 359.37 136.953 359.37C140.458 359.37 145.09 359.556 150.402 359.556H214.48C216.024 349.659 215.438 344.888 217.43 338.048C217.521 337.54 217.789 337.081 218.186 336.751C218.662 336.508 219.208 336.437 219.73 336.55C227.451 337.214 254.719 345.907 260.756 348.902C261.004 350.067 261.5 351.163 262.212 352.118C262.923 353.072 263.833 353.861 264.879 354.43C269.295 357.518 276.49 356.375 281.863 356.313C291.393 356.181 300.77 353.907 309.301 349.659C312.652 347.991 315.246 345.876 315.478 342.14C315.833 337.739 311.818 335.485 306.383 334.25C300.562 329.772 267.782 304.451 244.111 295.743C242.49 294.369 257.297 283.622 268.446 276.242C269.042 275.79 269.725 275.464 270.453 275.285C271.379 275.115 271.997 276.659 273.742 276.659C279.455 276.659 280.597 273.262 281.925 269.819C283.778 265.064 283.299 253.808 283.268 246.659C283.268 244.359 282.959 242.027 282.79 239.773C281.817 227.529 271.842 220.211 265.682 226.572C263.983 230 262.779 229.814 258.918 230.525C255.187 231.335 251.535 232.472 248.002 233.921C246.257 234.57 244.497 235.234 242.768 235.913C235.433 238.754 217.661 249.099 218.402 246.381C220.817 235.185 223.806 224.121 227.358 213.232C227.905 211.1 228.753 209.057 229.875 207.164C230.477 206.238 232.515 205.527 232.963 204.555C236.051 198.826 233.75 194.256 231.311 189.701C228.871 185.147 224.949 181.626 221.104 178.199C214.231 171.956 206.264 167.036 197.604 163.685C196.986 163.368 196.31 163.179 195.618 163.131C194.925 163.083 194.229 163.177 193.574 163.407C192.676 164.004 191.981 164.86 191.582 165.862C189.868 169.182 188.092 172.903 189.065 176.516C189.507 177.669 189.888 178.844 190.208 180.036C190.34 181.671 190.092 183.315 189.482 184.838L172.158 239.742C168.421 251.585 162.724 262.331 153.521 270.622C151.532 272.687 149.001 274.148 146.218 274.837C142.249 275.516 138.142 272.042 134.483 270.359" fill="#8AD2D4"/>
<path d="M220.118 282.958C216.458 278.758 202.762 269.741 199.86 259.227C199.705 258.656 163.621 227.39 160.98 228.903C160.125 229.489 159.158 229.894 158.139 230.092C156.595 230.262 154.31 229.706 153.769 228.254C142.39 225.614 122.734 236.206 125.019 238.213C110.057 246.628 114.411 253.283 101.194 271.795C100.901 272.212 97.5349 277.322 98.7083 278.311C99.2951 278.805 100.16 278.403 100.808 277.986L108.281 273.061C110.752 271.826 106.228 279.963 105.425 283.143C103.921 289.175 104.038 295.498 105.765 301.47C106.166 302.845 107.093 304.558 108.513 304.281C109.934 304.003 110.273 302.628 110.644 301.424C111.014 300.22 111.895 298.815 113.13 299.062C114.118 299.247 114.566 300.39 114.875 301.347C116.55 306.429 119.311 311.086 122.965 314.996C125.316 317.459 127.948 319.635 130.809 321.481C134.793 324.198 138.035 326.113 142.019 328.799C143.871 330.341 146.139 331.297 148.535 331.547C148.895 331.576 149.253 331.483 149.554 331.285C150.141 330.806 149.971 329.741 150.511 329.262C151.314 328.444 152.627 329.401 153.337 330.297C154.387 331.625 155.453 334.11 156.425 334.249C159.714 334.743 162.833 331.841 164.331 328.861C165.056 326.406 165.875 331.378 167.713 332.211C168.397 332.422 169.119 332.485 169.83 332.394C170.541 332.304 171.225 332.062 171.835 331.686C178.578 328.349 184.499 323.561 189.175 317.667V317.667C192.078 316.663 186.457 324.8 188.465 325.526C192.711 324.491 195.783 320.894 198.872 317.806C201.96 314.718 205.912 311.723 210.251 312.294C213.602 312.896 210.992 305.408 212.953 298.29C213.432 296.576 213.973 293.658 215.856 292.948C217.74 292.237 221.152 293.905 223.468 293.457C225.414 292.948 226.557 290.369 220.072 282.927" fill="black"/>
<path d="M255.709 186.814C256.173 188.895 257.055 190.86 258.303 192.589C260.65 195.445 262.611 197.066 268.201 197.066C275.736 197.066 278.778 197.39 282.9 195.229C288.613 192.141 289.246 186.32 290.25 179.928L292.998 162.419C293.678 158.096 293.755 155.409 291.825 153.155C290.553 151.692 288.869 150.647 286.992 150.16C278.384 147.842 269.345 147.625 260.635 149.527C252.235 151.302 251.216 154.452 251.494 159.377C251.934 168.65 253.347 177.852 255.709 186.829" fill="#8AD2D4"/>
<path d="M258.966 187.956C260.09 190.222 262.041 191.969 264.417 192.835C266.101 193.229 267.832 193.385 269.559 193.299C273.728 193.376 278.437 194.024 281.603 191.291C283.98 189.222 284.691 185.841 284.968 182.691C285.123 181.914 285.026 181.109 284.691 180.391C284.072 179.627 283.18 179.134 282.205 179.017C279.978 178.376 277.665 178.09 275.349 178.167C271.798 178.43 268.447 180.175 264.88 180.236C261.313 180.298 258.025 178.692 254.844 177.148C255.395 178.669 256.029 180.159 256.743 181.611C257.7 183.618 257.885 185.918 258.966 187.925" fill="#E7A617"/>
<path d="M50 419.479C52.3662 438.535 54.6395 452.794 58.846 471.623C59.3873 474.035 60.1606 476.742 62.6196 477.975C64.1982 478.612 65.9403 478.885 67.6765 478.765L112.17 478.953C112.965 479.046 113.773 479.001 114.548 478.822C115.323 478.642 116.05 478.332 116.686 477.908C117.441 477.086 117.874 476.076 117.923 475.026C118.881 468.755 110.623 431.834 109.865 426.005C109.401 422.44 108.628 418.42 105.226 416.437C102.968 415.096 100.107 415.096 97.4006 415.029L69.0067 414.654C63.2846 414.574 49.0722 411.478 50.0619 419.492" fill="#2E58A6"/>
<path d="M218.394 473.189C218.142 474.718 217.434 476.939 218.898 478.043C219.937 478.783 222.975 479.002 225.038 478.977C229.761 478.905 237.507 479.05 242.167 478.977C244.749 478.977 246.669 479.244 248.763 477.946C250.243 477.024 250.684 473.893 251.204 472.146C254.352 461.31 255.486 454.017 257.753 444.564C258.099 443.108 258.304 441.337 256.793 440.427C255.941 440.002 254.941 439.786 253.927 439.808C232.217 438.873 226.738 437.927 225.668 442.053C224.44 446.724 222.676 453.92 221.511 458.543C220.157 463.87 219.244 467.874 218.362 473.25" fill="#E7A617"/>
<path d="M261.746 404.733C262.225 406.36 263.244 407.775 264.634 408.747C265.414 409.094 266.251 409.293 267.104 409.334C278.265 410.491 289.511 410.574 300.688 409.581C301.295 409.588 301.891 409.416 302.402 409.087C302.869 408.646 303.169 408.056 303.251 407.419C304.038 403.729 302.803 399.931 301.599 396.349C301.471 395.529 301.179 394.744 300.74 394.039C300.302 393.335 299.727 392.726 299.048 392.249C298.369 391.772 297.601 391.437 296.79 391.263C295.979 391.089 295.141 391.081 294.326 391.238C284.949 390.857 275.561 390.759 266.163 390.945C263.491 390.945 256.141 389.725 255.956 393.477C255.817 396.38 260.588 401.938 261.746 404.748" fill="#2E58A6"/>
<path d="M298.141 72.8212C299.855 77.8546 301.584 83.1659 300.689 88.4155C300.55 89.1875 300.118 90.1293 299.346 90.0521C299.126 89.9949 298.92 89.8926 298.742 89.7518C298.564 89.6109 298.417 89.4345 298.311 89.2338C297.478 87.9464 296.544 86.7278 295.516 85.59C293.896 83.9661 291.88 82.7941 289.667 82.1901C287.454 81.5861 285.122 81.5712 282.901 82.1469C279.742 82.9819 276.833 84.5714 274.424 86.7788C273.838 87.3192 268.65 92.5533 269.792 94.0973C272 94.4216 274.579 89.4654 280.832 87.5045C282.6 87.045 284.44 86.9297 286.252 87.1648C288.737 87.1554 291.173 87.8515 293.277 89.172C294.854 90.2717 296.098 91.7831 296.875 93.5415C297.497 95.6292 297.448 97.8596 296.736 99.9182C295.64 103.377 291.795 105.291 288.167 105.492C287.055 105.492 285.681 105.307 285.356 104.241C285.032 103.176 286.252 102.08 287.302 101.416C288.713 100.506 290.042 99.4728 291.27 98.3279C291.518 98.1446 291.726 97.9135 291.882 97.6483C292.038 97.383 292.14 97.0891 292.181 96.7839C292.169 96.4202 292.069 96.065 291.888 95.7494C291.402 94.5503 290.589 93.5123 289.541 92.7541C289.016 92.3782 288.387 92.1761 287.742 92.1761C287.096 92.1761 286.467 92.3782 285.943 92.7541C284.723 93.804 284.908 95.6876 284.831 97.2934C284.775 98.7422 284.445 100.167 283.859 101.493C283.457 102.404 282.639 103.408 281.65 103.161C281.117 102.954 280.675 102.566 280.4 102.064L278.393 99.2234C277.99 98.5517 277.466 97.9602 276.849 97.4787C276.529 97.2447 276.151 97.1024 275.757 97.067C275.362 97.0317 274.966 97.1046 274.61 97.278C273.344 98.0345 273.76 100.103 274.903 101.03C276.171 101.78 277.524 102.376 278.933 102.805C279.399 102.985 279.794 103.31 280.06 103.732C280.57 104.705 279.736 105.893 278.748 106.403C276.385 107.607 273.529 106.557 271.167 105.353C269.559 104.588 268.054 103.623 266.689 102.481C265.752 101.63 264.913 100.677 264.187 99.6403C259.351 93.0498 257.054 84.9365 257.718 76.7892C258.188 71.709 259.558 66.7528 261.763 62.1522C263.114 59.7741 264.152 57.2311 264.851 54.5866C264.959 53.424 265.224 52.2814 265.639 51.1899C265.943 50.5806 266.393 50.0563 266.95 49.6636C267.506 49.2709 268.151 49.0222 268.827 48.9396C269.503 48.857 270.189 48.9432 270.824 49.1904C271.458 49.4375 272.021 49.8381 272.463 50.3561C275.146 50.9957 277.786 51.8001 280.369 52.7647C281.569 53.1671 282.727 53.6842 283.828 54.3087C284.937 54.9911 285.972 55.7881 286.916 56.6865C291.862 61.0523 295.686 66.5438 298.064 72.6976" fill="#E7A617"/>
<path d="M277.648 118.894C276.875 121.115 276.245 123.385 275.765 125.687C275.604 126.909 275.758 128.152 276.212 129.297C276.666 130.443 277.405 131.453 278.359 132.234C279.342 132.971 280.563 133.32 281.787 133.215C283.012 133.109 284.155 132.557 284.998 131.663C285.434 131.083 285.773 130.436 286.002 129.748C287.151 126.458 287.283 122.899 286.38 119.533C285.476 116.168 283.58 113.152 280.937 110.88C280.645 110.581 280.294 110.347 279.905 110.193C279.517 110.039 279.1 109.968 278.683 109.985C276.598 110.34 278.034 117.195 277.633 118.894" fill="#E7A617"/>
<path d="M294.08 142.069C295.164 141.935 296.265 142.008 297.322 142.285C298.648 142.693 299.81 143.51 300.643 144.62C301.475 145.729 301.934 147.074 301.954 148.461C301.964 148.992 301.859 149.519 301.646 150.005C301.268 150.73 300.627 151.282 299.854 151.549C298.628 151.897 297.337 151.95 296.087 151.703L291.887 151.209C289.617 150.947 286.992 150.777 285.356 152.383C284.846 152.877 284.398 153.572 283.688 153.649C280.6 153.989 284.985 147.226 285.649 146.469C287.823 143.995 290.838 142.416 294.11 142.038" fill="#E7A617"/>
<path d="M54.1145 262.145C53.2344 263.767 51.922 265.573 50.0691 265.465C47.7685 265.341 46.8267 262.47 46.626 260.184C45.3444 245.362 51.752 231.266 58.0517 217.787C60.3369 212.908 64.3977 212.444 64.9844 217.231C65.3932 222.762 64.9823 228.324 63.7647 233.736C61.3869 245.362 58.9319 253.283 54.099 262.145" fill="#2E58A6"/>
<path d="M196.786 165.568C196.466 165.58 196.163 165.712 195.937 165.938C195.71 166.165 195.578 166.468 195.566 166.788C195.563 167.435 195.763 168.067 196.138 168.595C197.031 169.985 198.066 171.278 199.226 172.455C202.975 176.52 207.072 180.25 211.47 183.602C214.373 185.81 216.658 187.771 219.577 189.948C222.495 192.125 226.942 195.46 230.756 195.831C232.161 195.074 228.903 190.689 227.359 189.052C219.54 180.776 210.735 173.491 201.141 167.359C199.834 166.426 198.327 165.813 196.74 165.568" fill="#2E58A6"/>
<path d="M267.953 233.072C267.181 243.602 268.648 254.363 269.822 264.862C269.991 266.406 271.705 271.656 274.732 271.656C276.415 271.656 277.743 269.155 277.99 267.487C278.724 262.886 279.188 258.246 279.379 253.591C279.689 249.395 279.56 245.177 278.993 241.008C278.499 237.92 278.036 233.041 275.905 230.617C275.309 230.007 274.557 229.574 273.731 229.365C272.905 229.156 272.037 229.178 271.222 229.431C270.408 229.683 269.679 230.155 269.116 230.794C268.553 231.434 268.178 232.217 268.031 233.056" fill="#2E58A6"/>
<path d="M268.044 352.839C267.257 351.928 267.921 349.551 268.801 348.717C271.889 345.629 280.118 343.328 284.365 342.433C291.215 340.919 298.175 339.948 305.178 339.53C306.506 339.453 309.085 340.456 309.579 341.692C309.965 342.649 308.668 344.054 308.035 344.78C305.642 347.59 301.952 348.887 298.4 349.875C293.243 351.311 288.009 351.975 282.79 353.086C279.701 353.735 270.437 355.479 268.09 352.793" fill="#2E58A6"/>
<path d="M134.886 376.276C129.642 375.251 124.232 375.447 119.075 376.848C114.347 378.13 109.875 380.219 105.858 383.024C103.041 385.146 100.549 387.669 98.462 390.512C96.3826 392.651 95.027 395.389 94.5864 398.34C94.5164 398.981 94.5789 399.63 94.7702 400.246C94.9614 400.863 95.2772 401.433 95.6981 401.922C96.479 402.621 97.4434 403.081 98.4775 403.25C102.691 403.971 107.016 403.674 111.093 402.385C119.739 400.146 128.232 396.286 134.254 389.74C136.099 387.962 137.391 385.689 137.975 383.193C138.407 380.692 137.326 376.74 134.886 376.215" fill="#2E58A6"/>
<path d="M32.9154 317.605C24.7627 307.152 18.4783 307.523 19.0187 312.618C19.5592 317.713 21.6745 323.241 23.651 328.058C25.4539 333.129 28.1523 337.836 31.6182 341.954L36.2505 346.972C38.0321 349.073 40.0531 350.959 42.2724 352.592C44.5032 354.224 47.2335 355.027 49.9927 354.862C50.4991 354.834 50.9917 354.686 51.4288 354.429C52.0712 353.925 52.4876 353.186 52.5869 352.376C53.328 348.686 51.3053 345.057 49.3289 341.861C44.182 333.627 38.7416 325.541 33.0079 317.605" fill="#2E58A6"/>
<path d="M104.483 384.074C112.126 396.935 122.857 408.453 134.036 418.412C136.03 420.048 138.147 421.53 140.367 422.843C142.347 424.024 144.411 425.056 146.543 425.931L153.985 429.158C155.908 430.144 158.007 430.737 160.162 430.903C161.228 430.971 162.292 430.729 163.223 430.206C164.155 429.683 164.915 428.9 165.412 427.954C166.74 424.866 163.991 419.941 162.324 416.976C159.76 412.607 159.498 408.978 158.679 403.976C156.61 391.284 150.496 379.642 146.867 367.306C144.706 359.987 142.019 352.576 140.089 345.86C138.159 339.144 138.375 332.89 132.369 329.185C125.914 325.155 118.302 321.604 113.176 315.968C109.717 312.186 108.544 308.248 107.185 303.277C105.641 297.78 105.116 291.882 102.151 287.019C101.697 286.114 100.944 285.395 100.021 284.98C99.2744 284.81 98.4927 284.896 97.801 285.223C97.1093 285.551 96.5478 286.102 96.2068 286.787C95.5598 288.173 95.2425 289.689 95.2802 291.218C94.7892 296.986 94.9394 302.791 95.7281 308.526C96.7163 314.224 97.4883 319.442 101.688 323.41C104.421 325.989 109.408 328.166 112.497 330.312C120.526 335.932 133.249 352.885 129.219 353.812C125.637 353.178 120.495 348.006 118.055 350.724C116.032 353.024 122.548 360.404 124.108 363.075C129.697 372.586 131.473 374.933 137.263 385.865C140.212 391.439 146.265 403.744 145.308 404.393C144.659 405.041 142.39 403.605 141.401 402.416C136.733 397.066 132.342 391.479 128.246 385.679C126.192 382.591 122.641 377.481 121.19 376.323C119.119 376.714 117.091 377.309 115.137 378.098C111.356 379.567 107.805 381.568 104.591 384.043" fill="black"/>
<path d="M1.03125 331.161V352.777C7.42369 349.689 16.5645 345.273 23.9452 341.769C29.6428 339.051 37.7182 335.407 43.4158 332.705C40.0523 326.985 36.2365 321.543 32.0052 316.432C29.7354 316.694 4.21203 329.617 1.03125 331.115" fill="black"/>
<path d="M199.181 172.47C199.984 166.109 201.065 158.049 201.559 151.642C202.192 143.304 203.103 139.104 201.759 133.515C200.926 129.979 199.305 126.305 200.54 122.893C201.775 119.48 204.987 117.859 207.89 116.068C215.149 111.373 221.692 105.652 227.314 99.0842C238.94 85.6268 252.354 73.8241 267.182 64.0048C270.856 61.519 274.809 59.064 279.225 58.7552C284.027 58.431 288.721 58.4464 292.906 60.8396C295.016 62.0015 296.848 63.6088 298.274 65.5498C299.701 67.4909 300.688 69.7191 301.166 72.0798C301.346 72.7482 301.286 73.4583 300.996 74.087C300.706 74.4502 300.337 74.7429 299.917 74.9434C299.497 75.144 299.038 75.2471 298.572 75.245C295.678 75.5503 292.755 75.0703 290.111 73.8554C288.397 73.068 286.39 70.7675 284.568 71.3542C282.02 72.1262 281.649 76.6192 279.766 78.4874C276.94 81.3129 272.2 80.0314 268.293 80.7879C266.304 81.2888 264.447 82.213 262.848 83.4973C261.249 84.7817 259.947 86.396 259.029 88.23C257.226 91.8984 255.968 95.8097 255.292 99.8408L253.331 108.873C253.305 109.252 253.193 109.621 253.006 109.952C252.819 110.283 252.562 110.569 252.251 110.788C251.216 111.297 250.12 110.263 249.425 109.336L244.376 102.543C241.04 106.362 238.696 110.943 237.551 115.883C237.103 117.813 236.084 120.376 234.139 120.005C233.548 119.854 233.012 119.538 232.595 119.094C231.111 117.707 229.996 115.972 229.352 114.045C226.526 116.809 222.79 119.82 219.964 122.584C218.655 123.733 217.53 125.076 216.629 126.567C215.524 129.119 215.063 131.902 215.285 134.673C215.285 151.271 215.502 169.027 213.85 185.532C211.364 183.587 202.763 177.071 199.119 172.455" fill="black"/>
<path d="M267.814 235.45C290.064 227.56 313.457 209.943 336 202.949V217.308C328.758 219.361 320.389 223.484 313.673 226.819C307.149 230.191 301.775 235.425 298.232 241.857C296.688 244.621 294.604 248.852 291.593 249.917C289.817 249.793 290.574 241.996 290.774 238.013C291.361 233.072 276.167 249.701 268.324 250.365C267.802 245.396 267.647 240.395 267.86 235.403" fill="black"/>
<path d="M251.926 162.481C251.278 162.481 250.645 163.685 250.382 164.303C249.044 166.982 248.412 169.958 248.545 172.949C248.826 174.479 249.408 175.938 250.256 177.241C251.104 178.545 252.201 179.668 253.486 180.546C256.432 182.648 259.948 183.808 263.567 183.871C267.187 183.935 270.741 182.899 273.759 180.901C275.674 180.7 271.32 188.482 272.694 188.899C273.265 189.068 273.79 188.451 274.238 188.08C279.225 184.39 285.757 183.278 291.949 183.773C298.115 184.52 304.169 186.003 309.983 188.188C318.475 190.998 327.462 194.272 335.954 197.082V182.012C321.934 176.099 303.915 179.372 290.018 172.301C287.641 171.081 285.309 169.568 282.653 169.29C279.565 168.981 276.6 170.417 273.574 171.189C269.074 172.323 264.327 171.965 260.048 170.17C258.988 169.776 258.025 169.16 257.223 168.364C256.475 167.332 255.784 166.26 255.153 165.152C254.397 164.118 253.609 162.496 251.865 162.512" fill="black"/>
<path d="M208.384 301.826C208.078 301.828 207.78 301.731 207.535 301.548C207.474 301.507 207.406 301.479 207.335 301.465C207.263 301.452 207.189 301.454 207.118 301.471C206.907 301.526 206.685 301.531 206.471 301.486C206.257 301.441 206.056 301.346 205.886 301.21C205.715 301.073 205.578 300.899 205.486 300.7C205.395 300.502 205.351 300.284 205.358 300.066L205.713 290.431C204.935 290.395 204.174 290.19 203.483 289.83C202.793 289.47 202.189 288.964 201.714 288.347C201.233 287.589 200.971 286.712 200.957 285.815C200.99 284.433 201.361 283.081 202.036 281.875C202.712 280.67 203.672 279.647 204.833 278.898C205.548 278.443 206.378 278.202 207.226 278.202C208.074 278.202 208.904 278.443 209.619 278.898C210.316 279.359 210.91 279.96 211.364 280.661C211.818 281.362 212.123 282.15 212.26 282.974C212.477 284.381 212.477 285.813 212.26 287.22C211.764 291.811 210.922 296.358 209.743 300.822C209.665 301.123 209.488 301.389 209.242 301.579C208.997 301.769 208.695 301.872 208.384 301.872" fill="#FF8000"/>
<path d="M260.403 397.708C259.908 397.106 259.507 396.72 258.735 396.766C257.963 396.812 257.067 396.766 256.234 396.766C255.056 396.698 253.874 396.771 252.713 396.982C252.179 397.094 251.689 397.363 251.308 397.754C250.951 398.21 250.757 398.773 250.757 399.352C250.757 399.931 250.951 400.494 251.308 400.95L251.555 401.382C248.017 402.283 244.266 401.768 241.102 399.946C239.994 399.271 238.932 398.523 237.921 397.708C236.497 396.51 234.943 395.474 233.289 394.62C229.877 393.076 225.136 393.323 223.145 396.642C222.539 397.783 222.161 399.032 222.033 400.317C221.953 401.271 221.685 402.2 221.245 403.05C220.041 404.918 216.737 404.748 214.544 403.42C213.304 402.649 212.108 401.809 210.962 400.904C210.144 400.271 209.294 399.638 208.368 399.02C208.164 396.59 207.245 394.274 205.728 392.365C203.302 388.997 200.131 386.234 196.463 384.29C195.043 383.534 193.56 382.916 192.124 382.314C190.59 381.708 189.09 381.017 187.631 380.245C185.886 379.272 182.845 377.157 182.072 374.069C181.239 370.657 185.392 362.891 188.465 358.707C201.528 338.727 208.229 319.674 208.924 300.452C208.931 300.267 208.902 300.083 208.838 299.91C208.774 299.737 208.676 299.578 208.55 299.442C208.425 299.307 208.274 299.198 208.106 299.12C207.938 299.043 207.757 299 207.573 298.993C207.388 298.986 207.204 299.015 207.031 299.079C206.858 299.143 206.699 299.241 206.563 299.366C206.428 299.491 206.319 299.642 206.241 299.81C206.164 299.978 206.121 300.159 206.114 300.344C205.434 319.026 198.887 337.6 186.134 357.132C183.489 360.774 181.383 364.778 179.88 369.02C175.65 361.978 170.453 355.564 164.439 349.968C157.618 343.299 150.042 337.449 141.865 332.536L139.348 331.115C123.367 322.052 113.702 316.586 109.641 303.802C109.409 303.061 108.606 303.401 107.865 303.632C107.124 303.864 106.723 303.91 106.954 304.651C111.355 318.547 121.36 324.152 137.943 333.555L140.46 334.975C152.55 341.846 173.287 359.679 179.201 373.977C179.229 374.247 179.276 374.515 179.339 374.779C180.312 378.763 183.648 381.341 186.273 382.793C187.821 383.616 189.414 384.353 191.044 385.001C192.48 385.603 193.839 386.174 195.151 386.853C198.435 388.598 201.272 391.076 203.442 394.095C204.147 395.042 204.719 396.081 205.141 397.183C202.212 395.726 199.094 394.687 195.877 394.095C186.907 392.569 177.686 393.718 169.365 397.399C167.776 398.116 166.422 399.267 165.458 400.718C164.895 401.576 164.605 402.584 164.627 403.609C164.649 404.635 164.982 405.63 165.582 406.462V406.539C166.4 407.574 168.886 410.693 179.649 411.557C181.115 411.665 182.536 411.712 183.91 411.712C189.849 411.772 195.737 410.605 201.204 408.284C202.683 407.788 204.039 406.979 205.179 405.914C206.319 404.848 207.217 403.551 207.812 402.108L209.217 403.158C210.444 404.123 211.722 405.02 213.046 405.844C216.412 407.867 221.384 407.975 223.562 404.594C224.227 403.422 224.638 402.122 224.766 400.78C224.847 399.852 225.098 398.946 225.507 398.109C226.665 396.179 229.8 396.133 232.038 397.183C233.491 397.939 234.858 398.85 236.115 399.9C237.222 400.795 238.388 401.615 239.604 402.355C243.438 404.56 247.986 405.17 252.266 404.053C252.506 403.99 252.725 403.862 252.899 403.683C253.275 404.253 253.813 404.699 254.443 404.964C255.541 405.214 256.671 405.292 257.793 405.196H262.117C262.489 405.196 262.847 405.048 263.11 404.785C263.374 404.521 263.522 404.164 263.522 403.791C263 401.515 261.941 399.398 260.433 397.615L260.403 397.708ZM200.215 405.721C193.82 408.405 186.861 409.465 179.957 408.809C173.627 408.299 169.566 406.972 167.883 404.841L167.805 404.733C167.578 404.351 167.466 403.912 167.482 403.469C167.498 403.025 167.643 402.595 167.898 402.232C168.588 401.227 169.546 400.435 170.662 399.946C178.424 396.547 187.007 395.474 195.367 396.859C198.925 397.455 202.35 398.678 205.481 400.471C204.894 402.787 203.226 404.455 200.231 405.721" fill="#FF8000"/>
<path d="M104.67 304.42C103.224 302.086 102.366 299.438 102.168 296.7C102.091 295.928 102.554 290.617 104.407 290.2C104.407 292.963 104.484 294.554 104.561 295.326C104.793 297.595 105.395 301.872 106.893 302.768C107.512 303.014 108.193 303.062 108.84 302.904C109.487 302.746 110.07 302.391 110.506 301.888C110.259 303.476 109.563 304.96 108.499 306.165C106.522 307.153 104.947 304.929 104.67 304.42Z" fill="#FF8000"/>
<path d="M285.277 405.829C284.274 405.411 283.411 404.714 282.791 403.822C281.792 402.566 281.219 401.025 281.154 399.421C281.152 398.636 281.322 397.859 281.653 397.147C281.984 396.435 282.467 395.804 283.069 395.299C283.748 394.781 284.525 394.406 285.353 394.197C286.181 393.987 287.043 393.947 287.886 394.079C289.018 394.141 290.1 394.563 290.975 395.283C289.677 397.63 286.342 404.084 285.339 405.829" fill="#FF8000"/>
<path d="M259.261 157.354C269.174 159.655 279.921 159.917 289.108 156.305C290.297 155.841 291.424 153.973 289.741 154.344C280.476 156.32 272.309 157.432 263.415 155.888C260.327 155.347 254.459 153.309 254.151 154.174C253.394 155.625 257.949 157.03 259.323 157.354" fill="#FF8000"/>
<path d="M74.1715 232.825C74.1715 234.647 74.1715 236.453 74.1715 238.275C73.8384 241.943 73.119 245.566 72.0253 249.083C71.2996 251.569 69.771 256.51 68.9373 258.949C68.5821 259.937 69.2153 260.308 69.9873 259.428C74.4012 252.5 77.0956 244.618 77.8463 236.438C78.1983 233.854 78.009 231.225 77.2905 228.718C76.9971 227.869 75.0516 224.256 73.9862 225.892C73.5385 226.603 74.2332 231.543 74.264 232.84" fill="#2E58A6"/>
<path d="M46.8606 322.051C49.6862 327.193 51.9098 332.659 54.72 337.816C54.9825 338.294 55.5537 338.835 55.9706 338.48C56.3875 338.124 55.3377 335.129 54.7355 333.523C51.7863 325.803 48.7908 318.006 43.927 311.29C41.8888 308.449 38.9086 305.593 35.4653 306.118C33.9213 306.365 36.3918 309.205 36.6389 309.375C37.9513 310.626 39.3874 311.707 40.6072 313.065C43.0081 315.805 45.0809 318.816 46.7835 322.036" fill="#2E58A6"/>
<path d="M101.487 375.134C101.799 374.897 102.176 374.757 102.568 374.733C102.992 374.744 103.399 374.905 103.716 375.187C104.032 375.47 104.238 375.856 104.297 376.277C104.544 377.188 105.131 379.149 105.98 378.717C106.536 378.161 105.671 375.366 106.211 373.946C106.445 373.224 106.927 372.609 107.572 372.21C108.217 371.811 108.982 371.655 109.732 371.769C110.936 371.877 111.847 375.86 112.48 375.86C113.113 375.86 112.218 372.355 112.789 371.043C113.361 369.73 115.183 368.928 116.232 369.885C116.666 370.437 117.024 371.045 117.298 371.691C117.668 372.294 118.842 374.069 118.718 372.818C118.538 371.8 118.471 370.764 118.518 369.73C118.537 369.295 118.699 368.878 118.977 368.544C119.256 368.209 119.637 367.975 120.062 367.878C120.584 367.87 121.104 367.792 121.606 367.646C121.915 367.415 121.745 367.137 121.451 366.874C120.913 366.577 120.319 366.393 119.707 366.334C114.966 365.917 110.241 367.692 105.933 369.715C99.9903 372.584 94.8935 376.947 91.1413 382.376C90.4311 383.271 87.0032 387.656 88.609 388.552C89.273 388.938 91.5273 384.784 92.0214 383.92C94.4184 380.237 97.6576 377.178 101.471 374.995" fill="#2E58A6"/>
<path d="M213.494 204.925C216.432 206.716 219.783 207.716 223.222 207.827C225.368 207.827 222.882 205.913 221.94 205.542C220.998 205.172 219.794 204.863 219.531 203.875C219.448 203.409 219.491 202.929 219.655 202.485L221.199 196.881C221.384 194.92 219.269 198.1 217.987 199.675C217.061 200.802 214.56 202.223 213.957 200.895C213.479 199.876 219.701 192.943 218.59 192.712C217.478 192.48 214.837 197.344 212.089 198.425C209.603 199.413 207.024 197.406 205.094 195.537L194.533 185.301C194.008 184.791 192.989 183.494 192.804 183.973C192.325 185.131 198.023 192.835 201.312 196.016C204.946 199.524 209.045 202.516 213.494 204.909" fill="#2E58A6"/>
<path d="M263.228 268.722C263.522 269.34 264.031 270.05 264.772 269.927C265.513 269.803 263.769 265.882 263.074 263.751C262.176 260.824 261.657 257.793 261.53 254.734C261.279 249.131 261.33 243.518 261.684 237.92C261.684 237.04 261.252 234.477 260.14 235.079C259.384 235.496 259.322 237.735 259.306 238.429C259.306 241.795 259.121 245.177 259.199 248.543C259.118 255.485 260.502 262.366 263.259 268.738" fill="#2E58A6"/>
<path d="M271.148 338.48C275.113 337.279 279.209 336.564 283.346 336.349L294.88 335.284C297.026 334.959 295.096 333.74 294.123 333.647C286.215 332.924 278.241 333.705 270.623 335.947C268.266 336.697 266.14 338.036 264.447 339.838C263.289 341.027 258.579 347.357 262.146 344.717C263.536 343.683 264.478 342.247 265.96 341.212C267.522 340.069 269.231 339.139 271.04 338.449" fill="#2E58A6"/>
<path d="M79.8409 438.469C79.2337 438.461 78.6294 438.55 78.0499 438.731C77.7591 438.825 77.4944 438.985 77.2771 439.2C77.0599 439.414 76.896 439.677 76.7991 439.967C76.7464 440.799 76.7464 441.635 76.7991 442.468C76.7991 443.796 75.7029 444.228 74.6683 445.417C73.8712 446.404 73.3397 447.579 73.1243 448.829C72.6741 450.331 72.4556 451.893 72.4759 453.461C72.6438 455.321 73.0806 457.146 73.7729 458.88C74.4023 461.125 75.7878 463.083 77.6948 464.423C78.8392 465.49 80.2545 466.222 81.7864 466.539C83.1143 466.79 84.4884 466.56 85.662 465.89C86.4536 465.377 87.1445 464.723 87.7002 463.96C89.1945 462.07 90.2493 459.87 90.7883 457.522C91.4221 455.195 91.3737 452.735 90.6492 450.435C90.2133 449.368 89.6971 448.336 89.1052 447.347C88.1965 445.916 86.9776 444.707 85.5385 443.811C84.8746 443.394 84.782 442.468 84.6121 441.696C84.4985 440.921 84.1902 440.188 83.7165 439.565C83.1907 439.133 82.5837 438.811 81.9313 438.617C81.279 438.424 80.5945 438.363 79.9182 438.438" fill="#E7A617"/>
<path d="M125.113 269.278C128.845 270.266 132.643 270.988 136.477 271.44C143.441 272.459 150.466 273.602 157.584 272.984C166 272.305 176.252 271.872 184.204 269.247C189.022 267.703 197.9 265.681 200.448 260.524C202.347 256.679 200.525 251.337 199.583 247.771C198.857 245.007 198.039 240.051 195.908 238.028C194.315 236.838 192.321 236.318 190.349 236.577C187.678 236.577 187.261 236.577 184.019 231.945C181.363 228.038 178.012 222.218 173.704 219.747C166.478 215.625 158.727 215.748 150.343 215.331C144.084 214.928 137.848 216.401 132.432 219.562C129.468 221.363 127.038 223.921 125.391 226.973C123.183 230.617 122.21 238.507 120.342 238.63C112.961 238.275 111.525 241.548 109.533 248.079C108.669 250.828 106.445 255.799 106.599 258.656C106.862 264.724 120.496 267.92 125.128 269.278" fill="#F9838D"/>
<path d="M147.024 280.704C147.655 281.079 148.336 281.365 149.046 281.553C149.418 281.623 149.801 281.604 150.163 281.496C150.526 281.389 150.858 281.197 151.131 280.935C152.165 279.901 151.131 278.758 150.004 278.079C147.815 277.011 145.366 276.594 142.948 276.875C139.691 277.185 136.598 278.447 134.054 280.503C133.267 281.26 132.819 282.588 134.965 282.248C135.68 282.045 136.373 281.77 137.034 281.43C137.739 281.165 138.461 280.949 139.196 280.781C140.537 280.41 141.914 280.183 143.303 280.102C144.573 279.987 145.851 280.189 147.024 280.688" fill="#2E58A6"/>
<path d="M159.868 284.286C159.728 284.546 159.653 284.837 159.65 285.133C159.648 285.428 159.717 285.72 159.853 285.983C159.988 286.246 160.185 286.472 160.427 286.642C160.669 286.812 160.949 286.92 161.242 286.957C162.786 287.405 164.176 286.478 165.458 285.953C168.086 284.74 171.022 284.358 173.873 284.857C174.831 285.027 179.154 286.262 179.138 284.61C179.138 283.715 177.764 283.375 176.915 283.066C176.113 282.746 175.293 282.473 174.46 282.248C172.841 281.808 171.165 281.61 169.488 281.661C167.579 281.675 165.674 281.84 163.79 282.155C163.049 282.294 160.579 283.035 159.884 284.348" fill="#2E58A6"/>
<path d="M0.577279 400.903C7.84981 409.163 9.53274 415.864 12.8216 424.819C13.3002 426.147 15.8017 430.409 17.176 430.687C18.5502 430.964 18.3957 427.784 18.2413 425.607C18.1332 424.063 18.2413 420.203 19.2295 419.06C20.403 417.655 22.4721 420.867 22.5802 421.037C27.6447 428.633 29.482 429.482 31.0878 437.542C31.5504 439.678 32.1804 441.774 32.9717 443.81C33.6511 445.478 35.8589 450.249 37.4648 450.388C39.0706 450.527 38.5457 442.668 39.7192 443.409C45.8183 447.053 50.4349 453.491 53.4767 459.914C54.292 462.149 55.5175 464.212 57.0899 465.998C59.6765 468.393 63.0195 469.807 66.5396 469.997C68.5623 470.274 63.9147 465.21 66.1845 465.658C67.8861 466.053 69.6529 466.075 71.3638 465.723C73.0748 465.371 74.6894 464.654 76.0972 463.62C80.0192 461.041 83.3699 456.873 82.9684 451.762C82.814 449.739 77.9964 451.206 75.495 451.608C72.5735 452.276 69.5826 452.592 66.586 452.549C62.7876 452.272 59.4986 449.817 56.8428 447.084C49.7556 439.781 44.7837 431.829 38.4684 423.924C35.72 420.465 29.7446 413.656 26.5792 409.719C20.7581 402.493 17.1296 399.483 10.5519 392.951C7.41438 389.602 4.05624 386.465 0.5 383.564L0.577279 400.903Z" fill="black"/>
<path d="M137.836 219.994C133.018 221.353 129.467 226.463 126.888 230.895C125.659 233.282 124.626 235.766 123.8 238.321C123.09 240.174 122.719 241.023 120.712 240.915C116.173 240.684 115.431 245.547 114.428 249.16C113.98 250.812 110.691 263.365 112.405 263.596C112.636 262.581 112.786 261.548 112.853 260.508C113.1 259.381 113.455 258.378 113.686 257.266C114.165 255.043 114.443 252.943 114.953 250.797C115.485 248.584 116.203 246.42 117.099 244.327C118.396 241.332 120.527 243.648 122.518 242.042C124.51 240.437 126.672 233.411 128.216 230.432C130.289 226.705 133.343 223.618 137.048 221.507C137.573 221.168 138.175 220.766 138.33 220.195C138.005 220.318 138.067 220.071 137.898 219.994" fill="#F86775"/>
<path d="M139.797 222.944C139.123 223.945 138.369 224.89 137.542 225.769C136.688 226.912 135.924 228.12 135.257 229.382C133.957 231.795 132.807 234.285 131.814 236.839C131.206 238.827 130.479 240.776 129.636 242.676C128.803 244.22 127.073 244.683 126.193 246.057C124.201 249.145 123.738 253.113 122.951 256.741C122.626 258.285 120.511 266.299 122.225 267.194C123.213 265.65 123.028 262.176 123.213 260.37C123.561 258.177 124.077 256.014 124.757 253.901C125.329 251.677 125.375 249.377 126.548 247.4C127.722 245.424 129.498 244.559 130.378 242.645C132.03 239.094 132.462 235.218 134.485 231.837C135.355 230.136 136.329 228.491 137.403 226.912C138.515 225.476 139.827 224.148 140.939 222.758C140.445 222.28 139.966 222.65 139.658 223.113" fill="#F86775"/>
<path d="M145.138 224.781C144.165 226.402 144.289 229.413 143.903 231.281C143.394 233.783 143.038 236.191 142.359 238.6C141.741 240.684 141.463 242.614 140.954 244.606C140.506 246.335 139.332 246.798 138.391 248.157C136.337 251.137 136.955 255.877 136.599 259.552C136.445 261.096 135.411 270.205 136.723 270.761C137.943 270.761 137.094 261.312 137.31 256.711C137.395 254.464 137.769 252.238 138.421 250.087C139.116 248.049 141.51 247.107 141.911 245.023C142.56 241.595 142.946 238.229 143.764 234.91C144.783 231.54 145.446 228.073 145.74 224.565C145.648 224.565 145.632 224.565 145.586 224.426C145.54 224.287 145.385 224.426 145.339 224.426C145.349 224.554 145.349 224.684 145.339 224.812C145.339 224.982 145.493 224.673 145.478 224.658" fill="#F86775"/>
<path d="M150.188 226.185C150.188 230.138 150.188 234.214 150.604 238.136C150.959 241.687 150.604 245.362 150.774 248.944C151.824 249.531 151.484 252.835 151.593 254.039C151.839 256.222 151.932 258.42 151.87 260.616C151.778 262.654 151.361 264.646 151.16 266.545C151.006 268.089 150.326 271.826 150.728 271.857C152.272 271.857 151.546 267.456 151.901 265.326C152.256 263.195 152.488 260.694 152.704 258.547C152.979 256.303 152.932 254.031 152.565 251.8C151.953 249.983 151.579 248.094 151.453 246.18C151.623 242.613 151.021 239.139 151.021 235.619C151.219 232.202 151.032 228.774 150.465 225.398C150.126 225.521 150.249 225.707 150.188 226.046" fill="#F86775"/>
<path d="M157.524 224.348C158.471 227.307 159.224 230.324 159.778 233.381C160.087 236.546 160.426 239.68 161.013 242.768C161.476 245.208 161.276 247.107 163.052 248.944C164.684 250.555 165.631 252.735 165.692 255.027C165.822 258.237 166.162 261.435 166.711 264.6C167.004 266.221 167.39 271.347 168.626 271.193C169.567 270.791 167.931 265.557 167.56 262.763C167.143 259.675 167.128 256.494 166.51 253.499C166.296 251.147 165.191 248.965 163.422 247.4C161.585 245.856 162.094 243.185 161.739 240.653C161.276 237.38 160.704 232.933 160.087 229.737C159.732 227.869 159.114 224.796 157.369 223.746C157.278 224.042 157.226 224.348 157.215 224.657C157.463 224.641 157.7 224.549 157.894 224.395" fill="#F86775"/>
<path d="M160.996 220.149C163.914 222.233 165.767 227.189 167.744 230.169C168.603 231.782 169.321 233.466 169.89 235.203C170.43 236.422 171.095 237.611 171.573 238.831C172.33 240.761 172.438 243.278 174.352 244.528C175.392 245.131 176.3 245.939 177.019 246.902C177.738 247.865 178.255 248.965 178.537 250.133C180.436 255.815 179.479 263.566 182.675 267.549C182.675 267.549 182.999 267.549 183.046 267.549C183.416 265.063 181.857 262.331 181.409 259.829C180.868 256.849 180.39 253.839 179.68 250.936C179.077 248.404 178.305 244.992 175.912 243.54C175.155 243.092 174.847 243.324 174.167 242.537C173.38 241.416 172.78 240.175 172.391 238.862C171.017 235.403 169.998 231.343 168.006 228.27C166.589 226.012 165.015 223.855 163.297 221.816C162.586 221.106 162.941 222.804 162.015 221.6C162.123 221.677 162.633 219.562 162.741 219.639" fill="#F86775"/>
<path d="M164.839 219.562C165.761 220.796 166.908 221.844 168.221 222.65C169.486 223.711 170.663 224.873 171.741 226.124C174.189 228.437 176.271 231.107 177.917 234.045C178.705 235.697 179.739 239.511 181.546 240.221C183.738 241.008 185.205 240.916 186.44 243.309C187.338 245.172 187.967 247.152 188.309 249.191C188.726 251.26 189.451 253.314 189.853 255.367C190.208 257.158 190.548 258.965 190.826 260.725C191.026 261.991 191.073 264.431 192.493 264.925C192.647 261.914 191.644 259.119 191.212 256.216C190.938 253.58 190.489 250.965 189.868 248.388C189.282 246.12 188.432 243.928 187.336 241.857C186.379 240.313 184.974 240.097 183.461 239.68C182.756 239.603 182.068 239.415 181.422 239.124C180.635 238.553 180.604 237.179 180.125 236.237C178.917 233.689 177.312 231.349 175.37 229.305C173.849 227.873 172.515 226.255 171.401 224.487C170.166 222.388 168.19 222.619 166.445 221.122C165.611 220.411 165.071 219.006 164.129 218.543C164.298 218.515 164.47 218.515 164.639 218.543" fill="#F86775"/>
<path d="M165.797 217.771C165.507 216.754 164.977 215.823 164.253 215.053C163.836 214.621 162.708 214.389 162.461 213.926C162.214 213.463 162.755 212.706 162.369 211.981C161.92 211.322 161.308 210.79 160.593 210.437C159.213 209.899 157.732 209.672 156.254 209.773C156.139 208.929 155.788 208.136 155.242 207.483C154.695 206.83 153.976 206.345 153.166 206.083C152.317 205.774 148.797 205.033 149.121 206.685C147.412 205.933 145.491 205.812 143.701 206.345C142.975 206.53 141.416 206.963 141.014 207.673C140.613 208.383 141.277 209.001 141.678 209.603C140.947 209.924 140.245 210.306 139.578 210.745C138.775 211.286 137.756 212.289 138.034 213.447C138.22 214.312 138.822 214.42 139.578 213.88C139.378 214.621 138.606 215.146 138.189 215.841C137.622 216.709 137.268 217.698 137.154 218.728C137.154 219.84 137.478 222.495 139.115 221.461C139.124 223.115 139.63 224.729 140.567 226.093C141.292 227.05 142.867 228.517 143.994 227.436C144.844 228.856 145.168 229.798 147.083 230.123C147.748 230.293 148.435 230.366 149.121 230.339C149.986 230.169 150.294 229.335 150.974 228.949C151.482 229.359 152.086 229.631 152.73 229.74C153.374 229.848 154.035 229.788 154.649 229.567C155.328 229.324 155.972 228.991 156.563 228.579C157.212 228.208 157.181 228.332 158.015 228.27C159.865 227.804 161.533 226.793 162.801 225.367C164.067 224.116 163.82 223.314 164.006 221.77C163.882 221.6 163.913 221.538 163.867 221.337C165.735 221.492 166.368 219.315 165.982 217.848" fill="#FE330A"/>
<path d="M61.7586 242.521C48.9276 228.319 36.9062 213.406 25.7512 197.853C22.1536 192.789 14.5413 190.257 11.6539 184.76C8.76655 179.264 9.43049 171.497 14.5413 167.993C19.6522 164.488 26.7703 166.449 32.6995 168.595C43.4303 172.679 54.4358 176.002 65.6343 178.538C77.9867 181.07 85.0122 182.552 95.9287 184.004C99.5573 184.482 110.366 183.031 114.01 183.263C115.415 183.34 119.059 184.529 117.885 185.702C117.221 186.49 109.625 188.373 110.983 188.991C120.17 194.287 131.149 188.003 131.473 190.01C130.877 192.07 129.606 193.87 127.864 195.121C126.123 196.373 124.012 197.003 121.869 196.912C119.676 196.788 118.349 197.328 120.325 198.27C123.169 199.882 126.331 200.852 129.589 201.111C131.067 200.973 132.515 200.609 133.882 200.03C138.884 198.363 144.86 198.486 148.921 201.945C152.982 205.403 154.233 211.101 155.097 216.381C155.391 218.234 155.607 220.318 154.48 221.801C152.766 224.055 149.044 223.345 146.914 221.523C144.783 219.701 143.625 216.891 141.757 214.775C139.896 212.657 137.417 211.177 134.669 210.545C131.998 209.927 129.203 210.159 126.501 209.696C121.668 208.862 117.515 205.898 113.13 203.705C105.502 199.907 96.9632 198.394 88.5635 196.942C78.8977 195.259 69.2629 193.438 59.5662 191.894C48.1865 190.087 40.497 186.613 40.9602 187.972C45.7313 194.024 50.5951 200.077 55.3508 206.114C57.2036 208.461 64.0131 216.922 65.341 219.516C65.2911 227.306 64.1422 235.051 61.9285 242.521" fill="black"/>
<path d="M204.417 264.492C206.239 265.037 208.202 264.843 209.883 263.952C210.547 263.433 211.372 263.165 212.214 263.195C212.817 264.23 212.122 265.496 211.535 266.546C210.763 267.929 210.177 269.409 209.791 270.946C209.588 271.51 209.504 272.109 209.544 272.707C209.584 273.305 209.746 273.888 210.022 274.42C208.93 273.555 207.959 272.547 207.134 271.425L204.402 268.028C203.074 266.391 201.19 264.338 200.896 262.161C201.839 263.236 203.048 264.046 204.402 264.507" fill="black"/>
<path d="M213.817 273.076C215.739 274.057 217.555 275.231 219.237 276.581C219.406 276.72 219.525 276.909 219.577 277.122C219.577 277.708 218.882 277.94 218.357 278.202C217.927 278.44 217.609 278.839 217.473 279.311C217.337 279.782 217.394 280.289 217.631 280.719L208.367 274.543C208.205 274.453 208.068 274.326 207.965 274.173C207.889 273.992 207.863 273.795 207.888 273.601C208.041 271.29 208.997 269.106 210.591 267.425C209.973 267.935 210.961 270.066 211.239 270.513C211.918 271.557 212.82 272.438 213.879 273.092" fill="black"/>
<path d="M189.192 423.955C188.347 425.595 187.862 427.396 187.769 429.239C187.675 431.081 187.976 432.922 188.651 434.639C189.36 436.303 190.415 437.797 191.746 439.022C193.077 440.247 194.654 441.174 196.371 441.742C203.891 444.335 211.426 443.764 216.444 441.325C217.92 440.666 219.241 439.703 220.32 438.499C222.682 435.689 223.501 430.239 222.945 426.147C221.09 428.714 218.643 430.796 215.811 432.215C213.113 433.199 210.301 433.837 207.443 434.114C203.836 434.758 200.128 434.519 196.634 433.419C194.873 432.816 193.313 431.739 192.125 430.306C190.937 428.873 190.168 427.14 189.902 425.298C189.834 424.415 189.923 423.526 190.164 422.673C189.758 423.006 189.423 423.415 189.176 423.878" fill="#FD360C"/>
<path d="M222.928 426.827C222.712 432.524 214.883 436.832 205.449 436.462C196.015 436.091 188.557 431.181 188.788 425.484C189.02 419.787 196.833 415.479 206.267 415.849C215.702 416.22 223.159 421.13 222.928 426.827Z" fill="#E7A617"/>
<path d="M217.353 420.589C217.337 420.58 217.318 420.575 217.299 420.575C217.28 420.575 217.262 420.58 217.245 420.589L197.172 420.203H197.034C197.002 420.202 196.97 420.213 196.945 420.232C196.919 420.252 196.902 420.28 196.895 420.311L196.385 422.288C196.374 422.32 196.377 422.356 196.391 422.387C196.405 422.419 196.431 422.444 196.462 422.457L213.91 429.359V429.529L194.764 429.174C194.732 429.173 194.7 429.183 194.675 429.203C194.65 429.223 194.632 429.251 194.625 429.282L194.378 430.27C194.368 430.289 194.363 430.31 194.363 430.332C194.363 430.353 194.368 430.374 194.378 430.394C194.395 430.401 194.413 430.404 194.432 430.404C194.45 430.404 194.469 430.401 194.486 430.394V430.394L214.898 430.78C214.93 430.78 214.962 430.77 214.987 430.75C215.012 430.731 215.03 430.703 215.037 430.671L215.516 428.68C215.526 428.645 215.521 428.608 215.504 428.576C215.487 428.544 215.458 428.521 215.423 428.51L198.053 421.624V421.454L216.998 421.855C217.03 421.856 217.061 421.846 217.087 421.826C217.112 421.806 217.13 421.778 217.137 421.747L217.369 420.713C217.377 420.693 217.382 420.672 217.382 420.651C217.382 420.63 217.377 420.609 217.369 420.589" fill="#FD360C"/>
<path d="M143.222 288.439C142.111 288.544 141.022 288.82 139.995 289.258C138.53 289.913 137.294 290.992 136.447 292.356C135.6 293.719 135.181 295.304 135.242 296.908C135.304 298.512 135.843 300.061 136.792 301.355C137.741 302.65 139.055 303.631 140.566 304.173C141.336 304.441 142.134 304.622 142.944 304.713C143.734 304.802 144.532 304.802 145.322 304.713C147.212 304.457 148.956 303.559 150.263 302.171C151.57 300.782 152.36 298.987 152.502 297.086C152.548 295.882 152.351 294.682 151.921 293.557C151.491 292.432 150.838 291.405 150.001 290.539C149.165 289.617 148.102 288.931 146.918 288.549C145.734 288.167 144.47 288.102 143.253 288.362" fill="#2E58A6"/>
<path d="M167.651 288.702C165.917 288.952 164.31 289.755 163.067 290.99C161.825 292.226 161.014 293.829 160.754 295.561C160.494 297.294 160.799 299.064 161.624 300.609C162.449 302.155 163.751 303.394 165.335 304.142C166.86 304.852 168.549 305.134 170.222 304.958C171.895 304.781 173.488 304.152 174.831 303.138C175.882 302.371 176.73 301.359 177.301 300.189C177.772 299.128 178.029 297.984 178.058 296.823C178.076 295.718 177.866 294.621 177.441 293.601C177.016 292.581 176.385 291.659 175.587 290.894C173.904 288.995 170.6 288.424 167.635 288.733" fill="#2E58A6"/>
<path d="M121.006 288.362C121.127 287.817 121.13 287.253 121.015 286.706C120.9 286.16 120.669 285.644 120.339 285.194C120.008 284.744 119.586 284.369 119.099 284.096C118.612 283.822 118.073 283.655 117.516 283.607C116.677 283.669 115.864 283.922 115.138 284.348C114.324 284.818 113.722 285.586 113.46 286.489C113.199 287.393 113.296 288.363 113.733 289.196C114.138 289.919 114.744 290.509 115.478 290.895C115.791 291.063 116.123 291.193 116.466 291.281C116.958 291.408 117.47 291.432 117.972 291.352C118.473 291.272 118.953 291.089 119.38 290.815C119.808 290.541 120.174 290.182 120.457 289.76C120.739 289.338 120.931 288.862 121.021 288.362" fill="#2E58A6"/>
<path d="M123.939 292.299C123.848 292.842 123.872 293.397 124.01 293.929C124.149 294.461 124.398 294.958 124.742 295.387C125.076 295.795 125.491 296.128 125.962 296.364C126.433 296.601 126.948 296.736 127.475 296.762C128.27 296.793 129.055 296.583 129.729 296.159C130.183 295.876 130.573 295.502 130.876 295.061C131.179 294.62 131.388 294.122 131.489 293.596C131.582 293.053 131.557 292.496 131.416 291.963C131.274 291.431 131.02 290.934 130.671 290.508C130.198 289.966 129.583 289.565 128.896 289.35C128.209 289.136 127.475 289.116 126.777 289.294C126.08 289.472 125.445 289.84 124.944 290.356C124.442 290.873 124.095 291.519 123.939 292.222" fill="#2E58A6"/>
<path d="M183.817 288.687C183.301 288.894 182.836 289.209 182.452 289.611C182.069 290.014 181.776 290.493 181.593 291.018C181.42 291.524 181.357 292.061 181.408 292.594C181.458 293.126 181.621 293.642 181.887 294.106C182.291 294.78 182.888 295.318 183.6 295.65C184.078 295.883 184.599 296.015 185.13 296.039C185.661 296.063 186.191 295.978 186.688 295.789C187.193 295.579 187.646 295.263 188.019 294.864C188.392 294.465 188.675 293.99 188.85 293.473C189.062 292.783 189.077 292.047 188.894 291.349C188.711 290.651 188.338 290.017 187.816 289.518C187.293 289.02 186.643 288.677 185.936 288.527C185.23 288.378 184.496 288.428 183.817 288.671" fill="#2E58A6"/>
<path d="M194.765 289.922C195.315 289.832 195.839 289.626 196.302 289.317C196.765 289.008 197.157 288.603 197.452 288.131C197.732 287.673 197.912 287.161 197.978 286.628C198.045 286.096 197.997 285.555 197.838 285.043C197.561 284.147 196.973 283.38 196.18 282.879C195.388 282.378 194.442 282.176 193.514 282.31C192.978 282.403 192.468 282.61 192.018 282.916C191.568 283.222 191.189 283.621 190.905 284.085C190.551 284.712 190.378 285.425 190.405 286.145C190.432 286.864 190.658 287.562 191.058 288.16C191.458 288.759 192.017 289.234 192.671 289.534C193.325 289.835 194.05 289.947 194.765 289.86" fill="#2E58A6"/>
<path d="M177.72 308.943C176.014 310.836 173.919 312.337 171.58 313.344C169.24 314.351 166.71 314.841 164.163 314.78C160.164 314.656 156.35 313.236 152.382 312.711C148.003 312.212 143.574 312.973 139.612 314.903C139.381 315.011 136.725 316.308 137.698 317.111C138.189 317.436 138.758 317.626 139.346 317.661C139.934 317.697 140.521 317.576 141.048 317.312L142.592 321.079C142.793 321.558 143.272 322.623 143.72 322.314C144.291 320.871 144.745 319.384 145.078 317.868C145.167 317.502 145.313 317.153 145.511 316.833C145.778 316.597 146.103 316.437 146.452 316.37C147.899 315.998 149.378 315.76 150.868 315.66C153.753 315.566 156.637 315.873 159.438 316.571C162.25 317.267 165.197 317.203 167.977 316.385C168.132 317.858 168.411 319.314 168.811 320.74C168.811 320.894 169.227 322.006 169.305 322.16C169.552 322.67 169.845 322.453 170.293 320.616C170.617 319.319 170.926 317.528 171.111 316.478C171.112 316.304 171.164 316.134 171.26 315.988C171.356 315.843 171.492 315.729 171.652 315.66C174.091 314.116 176.871 312.834 178.122 310.271C178.399 309.7 178.291 308.187 177.751 308.851" fill="#2B2729"/>
<path d="M169.305 298.413C168.792 298.961 168.51 299.686 168.518 300.436C168.562 300.841 168.686 301.234 168.883 301.592C169.079 301.949 169.344 302.265 169.662 302.52C169.981 302.775 170.346 302.965 170.738 303.079C171.129 303.193 171.54 303.229 171.946 303.184C172.351 303.14 172.744 303.016 173.101 302.819C173.459 302.623 173.774 302.358 174.03 302.04C174.285 301.721 174.475 301.356 174.589 300.964C174.703 300.572 174.739 300.162 174.694 299.757C174.608 299.335 174.416 298.942 174.138 298.614C173.876 298.326 173.561 298.09 173.211 297.919C172.601 297.564 171.891 297.42 171.19 297.509C170.489 297.599 169.838 297.916 169.336 298.413" fill="black"/>
<path d="M140.337 298.799C139.87 299.469 139.687 300.296 139.828 301.1C139.965 301.662 140.267 302.171 140.697 302.559C141.126 302.947 141.663 303.197 142.236 303.277C142.809 303.309 143.378 303.163 143.864 302.859C144.351 302.555 144.731 302.107 144.954 301.578C145.199 301.065 145.27 300.486 145.156 299.928C145.042 299.371 144.748 298.866 144.321 298.49C144.067 298.203 143.751 297.977 143.397 297.83C143.042 297.683 142.659 297.619 142.276 297.643C141.893 297.666 141.521 297.777 141.187 297.967C140.854 298.157 140.569 298.42 140.353 298.737" fill="black"/>
<path d="M126.673 295.804C126.86 295.882 127.058 295.934 127.259 295.958C127.439 295.98 127.62 295.98 127.8 295.958C128.139 295.913 128.453 295.757 128.693 295.513C128.933 295.27 129.086 294.954 129.128 294.615C129.175 294.318 129.14 294.013 129.026 293.734C128.913 293.455 128.725 293.212 128.484 293.032C128.243 292.852 127.957 292.741 127.657 292.712C127.357 292.683 127.055 292.736 126.783 292.866C126.512 292.996 126.281 293.197 126.115 293.449C125.95 293.701 125.856 293.993 125.845 294.294C125.834 294.595 125.905 294.893 126.05 295.156C126.196 295.42 126.411 295.638 126.673 295.789" fill="black"/>
<path d="M116.543 287.173C116.293 287.268 116.072 287.426 115.902 287.632C115.731 287.837 115.617 288.084 115.57 288.347C115.527 288.554 115.526 288.767 115.569 288.975C115.611 289.182 115.696 289.378 115.817 289.551C115.953 289.723 116.123 289.865 116.318 289.966C116.512 290.067 116.726 290.126 116.944 290.138H117.284C117.534 290.083 117.767 289.967 117.961 289.8C118.155 289.633 118.305 289.42 118.396 289.181C118.482 288.944 118.514 288.69 118.49 288.439C118.466 288.188 118.386 287.946 118.257 287.729C118.075 287.458 117.807 287.256 117.495 287.158C117.183 287.06 116.847 287.07 116.543 287.189" fill="black"/>
<path d="M184.465 292.716C184.311 292.909 184.212 293.139 184.176 293.383C184.141 293.628 184.172 293.877 184.265 294.105C184.382 294.346 184.539 294.565 184.728 294.754C184.876 294.873 185.043 294.967 185.222 295.032C185.576 295.125 185.948 295.125 186.302 295.032C186.534 294.931 186.73 294.765 186.868 294.554C187.005 294.342 187.077 294.095 187.074 293.843C187.062 293.548 186.965 293.263 186.796 293.022C186.626 292.78 186.391 292.592 186.118 292.48C185.845 292.368 185.546 292.336 185.256 292.389C184.966 292.442 184.697 292.577 184.481 292.777" fill="black"/>
<path d="M193.251 287.559C193.202 287.892 193.262 288.232 193.424 288.528C193.586 288.823 193.84 289.058 194.147 289.195C194.344 289.272 194.553 289.314 194.765 289.319C194.991 289.332 195.218 289.295 195.429 289.211C195.671 289.083 195.872 288.889 196.009 288.651C196.145 288.413 196.212 288.142 196.201 287.868C196.207 287.694 196.181 287.522 196.123 287.358C195.991 287.076 195.776 286.841 195.508 286.684C195.239 286.526 194.929 286.454 194.619 286.475C194.308 286.497 194.011 286.612 193.767 286.806C193.523 286.999 193.343 287.261 193.251 287.559" fill="black"/>
<path fill-rule="evenodd" clip-rule="evenodd" d="M277.137 421.531C282.125 411.094 297.689 381.279 298.414 380.569L298.43 380.6C299.89 379.14 288.565 366.546 280.075 357.106C275.637 352.171 271.973 348.097 271.316 346.926C275.428 344.118 281.569 342.95 285.115 342.276C285.684 342.168 286.186 342.072 286.603 341.985C288.437 343.805 290.502 346.199 292.827 348.894C297.702 354.547 303.719 361.525 311.153 367.306C312.004 367.967 313.251 368.593 314.61 369.274C317.343 370.645 320.528 372.242 321.838 374.81C323.598 378.284 322.27 381.264 320.093 384.46C319.022 385.93 317.706 387.204 316.202 388.227C314.92 389.156 313.646 389.596 312.403 390.026C311.144 390.461 309.917 390.885 308.744 391.794C307.388 392.78 306.554 395.752 306.091 397.406L306.088 397.414C305.356 400.086 304.78 403.42 304.231 406.6C303.299 412.002 302.443 416.961 301.024 417.486C300.042 417.669 299.297 415.98 298.564 414.318C297.752 412.476 296.954 410.668 295.867 411.48C293.72 415.399 291.715 421.671 289.602 428.28C288.218 432.605 286.789 437.075 285.244 441.124C284.888 442.097 283.931 443.255 283.097 442.668C282.686 442.27 282.599 441.203 282.513 440.149C282.389 438.632 282.267 437.144 281.183 437.728C270.992 450.018 264.816 460.177 266.36 473.61C266.566 474.585 266.54 475.596 266.282 476.559C266.05 477.223 265.261 478.436 264.213 479H262.618C262.531 478.682 262.55 478.136 262.571 477.516C262.614 476.289 262.666 474.768 261.928 474.135C261.461 473.733 260.925 475.586 260.519 476.988C260.348 477.579 260.201 478.09 260.091 478.319C260.002 478.549 259.907 478.776 259.807 479H253.915C253.667 478.543 253.372 478.266 252.999 478.319C251.977 478.507 250.95 478.745 249.922 479H229.805C229.091 478.721 229.275 478.189 229.766 477.192C230.147 476.51 230.736 475.969 231.448 475.648C233.563 474.57 235.949 474.434 238.348 474.297C240.345 474.183 242.352 474.069 244.218 473.409C248.587 471.881 251.367 467.681 253.776 463.728C262.271 450.066 270.068 435.983 277.137 421.531Z" fill="black"/>
</svg>
