<svg width="337" height="480" viewBox="0 0 337 480" fill="none" xmlns="http://www.w3.org/2000/svg">
<path d="M318.801 0H17.3965C8.00764 0 0.396484 7.61115 0.396484 17V462.109C0.396484 471.498 8.00767 479.109 17.3965 479.109H318.801C328.19 479.109 335.801 471.498 335.801 462.109V17C335.801 7.61116 328.19 0 318.801 0Z" fill="#737D31"/>
<path d="M303.711 32.0825H298.121V31.3032L301.074 28.022C301.512 27.5259 301.812 27.1235 301.977 26.8149C302.145 26.5024 302.229 26.1802 302.229 25.8481C302.229 25.4028 302.094 25.0376 301.824 24.7524C301.555 24.4673 301.195 24.3247 300.746 24.3247C300.207 24.3247 299.787 24.479 299.486 24.7876C299.189 25.0923 299.041 25.5181 299.041 26.0649H297.957C297.957 25.2798 298.209 24.645 298.713 24.1606C299.221 23.6763 299.898 23.4341 300.746 23.4341C301.539 23.4341 302.166 23.6431 302.627 24.061C303.088 24.4751 303.318 25.0278 303.318 25.7192C303.318 26.5591 302.783 27.5591 301.713 28.7192L299.428 31.1978H303.711V32.0825Z" fill="#737D31"/>
<path d="M192.441 479.2C185.127 472.15 175.958 465.382 168.644 458.332L142.695 433.264C109.246 401.006 76.2016 366.1 45.7928 330.927C43.6096 328.405 41.4887 327.982 39.3055 325.46L21.6372 305.093C15.3995 297.839 11.7037 296.241 10.3314 286.699C9.50489 280.934 10.0351 274.385 14.23 270.359C17.3488 267.429 21.6529 266.426 25.8166 265.659C43.9527 262.619 62.4629 263.074 80.8486 263.528L103.008 264.076L167.615 265.643C177.564 265.894 193.003 265.345 202.624 267.727C210.515 269.669 248.471 305.657 263.333 320.995C279.478 337.549 295.322 354.391 310.864 371.521C318.224 379.636 328.595 388.754 336.002 396.839V462.104C336.002 471.487 328.399 479.096 319.015 479.103L192.441 479.2Z" fill="#CCCCCC"/>
<path d="M12.6371 292.944V461.179L12.5435 473.126C12.5174 476.458 15.2112 479.173 18.5433 479.173H194.643C187.746 470.521 182.103 460.944 175.174 452.291C169.71 445.059 163.711 438.248 157.226 431.914C151.74 426.836 145.658 422.51 139.983 417.65C133.431 412.133 127.443 406.051 121.346 399.969L95.6223 374.122C81.2323 359.655 67.924 343.651 54.2238 328.509L49.7719 323.587C39.0657 311.769 28.6417 292.896 12.6842 292.896" fill="#CCCCCC"/>
<path d="M11.6948 272.3C7.11762 281.344 7.97973 286.611 13.0272 295.404C15.1659 299.312 17.7601 302.953 20.7552 306.251C47.4032 336.032 74.8349 365.109 103.63 392.79C108.856 397.806 114.081 402.79 119.306 407.744C142.411 429.578 171.473 457.338 194.547 479.173H223.265C210.348 462.15 61.8088 324.339 39.6439 300.733C28.6712 289.103 17.0872 279.259 16.3347 268.883C15.018 267.754 11.9613 271.579 11.6321 272.3" fill="#FF8000"/>
<path d="M75.1173 329.7C87.344 330.39 98.5204 326.644 110.684 325.28C111.011 325.302 111.338 325.256 111.645 325.143C111.953 325.031 112.233 324.855 112.468 324.628C112.703 324.4 112.887 324.126 113.009 323.822C113.132 323.519 113.189 323.193 113.177 322.866C113.491 321.299 113.82 318.603 114.133 317.082C103.866 316.8 93.9277 316.079 84.162 310.922C83.5036 310.577 82.8138 310.044 82.0927 310.248C81.7635 310.342 77.3902 324.528 75.1016 329.716" fill="#F9838D"/>
<path d="M302.081 354.419C302.081 333.102 289.243 340.406 288.49 319.308C288.24 312.192 288.741 295.216 288.302 288.1C283.728 288.194 279.172 288.719 274.696 289.668C274.696 291.313 274.696 293.194 274.696 295.201C276.745 295.729 278.85 296.013 280.966 296.047C282.032 296.047 280.668 296.784 280.073 297.003C278.33 297.632 276.529 298.084 274.696 298.351C274.696 298.963 274.696 299.59 274.696 300.201C276.746 300.703 278.866 300.852 280.966 300.64C282.988 300.483 278.286 302.458 274.696 302.693C274.696 308.508 274.822 314.418 274.822 318.571C274.822 341.738 261.309 332.679 261.309 352.914C261.309 369.122 261.168 400.095 262.877 414.233C265.448 414.547 268.881 414.077 271.467 414.233C277.831 414.61 279.947 411.992 282.142 421.804C282.56 424.305 282.842 426.828 282.988 429.359C288.302 429.892 295.858 429.359 300.388 426.554C304.369 424.093 302.05 368.432 302.05 354.451" fill="#F86775"/>
<path d="M178.779 264.18C163.7 245.888 143.667 223.724 123.101 211.937C117.457 208.708 110.983 205.965 104.619 207.234C98.6627 208.457 93.8661 213.081 90.9818 218.426C88.0976 223.771 86.8278 229.806 85.5894 235.762L82.5485 250.418C79.147 266.751 75.4476 283.334 72.2184 299.636C71.7829 301.056 71.7829 302.574 72.2184 303.994C72.822 305.118 73.722 306.056 74.8206 306.705C86.9623 315.208 101.724 319.134 116.486 317.787C126.518 285.247 122.756 270.763 125.452 275.685C132.678 292.927 142.992 304.934 155.235 316.016C142.021 316.016 64.8511 324.653 52.4362 335.092C48.117 338.765 45.2309 343.844 44.2851 349.434C42.451 365.532 43.8461 384.639 44.6769 400.831C46.0093 426.772 44.0029 443.435 44.0029 479.204H86.3263C92.8629 456.256 97.832 403.308 89.4614 373.965C126.659 381.003 158.527 379.451 195.082 378.338C211.525 377.836 229.457 375.564 241.7 364.576C256.121 351.66 257.265 338.728 258.159 331.659C259.382 321.988 256.215 312.395 251.795 303.711C250.353 300.89 246.418 295.623 244.615 293.021C243.847 295.012 239.223 295.357 234.991 296.627C218.673 301.564 206.524 299.119 189.532 299.401C184.83 298.523 179.923 278.083 178.952 264.259" fill="#2E58A6"/>
<path d="M178.497 278.178L178.121 277.739C178.213 277.911 178.341 278.061 178.497 278.178Z" fill="#8AD2D4"/>
<path d="M333.609 233.249C333.177 232.983 332.652 232.858 332.235 232.592C331.062 231.827 330.861 230.233 330.213 228.982C329.877 228.353 329.413 227.804 328.851 227.37C328.29 226.936 327.644 226.628 326.956 226.466L326.508 226.357L325.921 225.638C325.607 223.916 324.665 222.377 323.282 221.325C322.834 221.059 322.325 220.872 321.877 220.606L320.642 219.043C320.164 217.918 319.979 216.558 319.099 215.808C318.599 215.457 318.039 215.202 317.447 215.058L314.776 211.855C314.704 211.747 314.621 211.648 314.529 211.558C311.874 208.432 309.188 205.307 306.456 202.337C302.582 198.134 298.29 193.711 292.749 192.648L292.363 192.414C292.074 192.248 291.754 192.147 291.424 192.117C291.094 192.088 290.761 192.13 290.449 192.242C290.108 192.391 289.81 192.626 289.583 192.924C289.356 193.222 289.208 193.573 289.152 193.945C289.127 194.163 289.127 194.384 289.152 194.602L289.044 194.821C288.303 196.54 287.485 198.217 286.589 199.853C286.302 200.085 286.114 200.421 286.065 200.79C285.241 202.238 284.362 203.65 283.425 205.025C283.044 205.07 282.681 205.209 282.366 205.429C282.051 205.65 281.794 205.946 281.619 206.291C281.491 206.804 281.408 207.327 281.372 207.854L280.415 209.057L279.983 209.307C279.057 209.807 277.822 209.87 277.22 210.745C276.943 211.349 276.721 211.976 276.556 212.62C276.376 212.983 276.109 213.294 275.781 213.526C275.452 213.758 275.071 213.903 274.673 213.949C274.211 213.999 273.765 214.149 273.365 214.389C272.966 214.629 272.622 214.953 272.357 215.34C271.925 216.09 271.956 217.09 271.385 217.731C270.227 219.028 267.772 217.84 266.491 219.028C266.154 219.426 265.868 219.868 265.642 220.34C265.364 220.778 264.747 220.965 264.268 221.2C263.731 221.396 263.157 221.468 262.588 221.412C262.019 221.355 261.47 221.17 260.98 220.872C260.049 220.285 259.08 219.763 258.078 219.309C257.044 218.121 256.041 216.73 255.145 215.605C254.868 215.261 247.736 216.293 245.884 216.34C245.22 216.34 244.17 214.652 244.016 214.167C243.136 211.167 241.777 202.962 240.836 204.885C239.894 206.807 237.378 208.635 236.004 207.088C232.315 202.9 228.008 198.696 225.646 193.633C224.705 191.121 223.575 188.687 222.266 186.35C220.614 183.881 217.203 181.475 217.357 178.537L216.385 179.115L217.126 178.302C215.921 178.302 214.224 178.021 213.02 178.005C212.697 177.985 212.373 178.022 212.063 178.115C210.967 178.49 210.75 179.959 209.978 180.818C208.666 182.272 206.166 181.678 204.545 182.787C203.77 183.458 203.14 184.282 202.692 185.21C202.466 185.673 202.148 186.084 201.757 186.418C201.367 186.751 200.913 186.999 200.423 187.147C199.506 187.261 198.605 187.482 197.737 187.804C196.806 188.151 196.036 188.836 195.576 189.726C195.437 190.038 195.345 190.382 195.19 190.695C194.418 191.833 193.277 192.662 191.964 193.039C190.729 193.586 189.386 194.367 189.062 195.696C188.892 196.43 188.043 196.711 187.302 196.836C187.025 196.836 186.747 196.836 186.469 196.836C185.126 197.071 184.585 198.727 183.52 199.571C182.51 200.16 181.391 200.532 180.232 200.665C179.106 200.947 177.886 201.681 177.778 202.853C177.639 204.541 175.324 205.025 173.734 205.572C172.144 206.119 170.384 206.994 170.014 208.698C169.963 209.082 169.891 209.463 169.798 209.839C169.556 210.405 169.146 210.88 168.624 211.198C167.546 211.831 166.515 212.541 165.537 213.324C165.044 213.728 164.686 214.277 164.512 214.895C164.338 215.513 164.356 216.17 164.565 216.777C164.889 217.449 164.565 217.887 164.148 218.481C163.731 219.075 163.083 219.496 162.604 220.043C162.222 220.383 161.958 220.839 161.852 221.344C161.747 221.848 161.805 222.373 162.018 222.841C162.187 223.091 162.419 223.294 162.558 223.544C162.74 223.961 162.794 224.424 162.712 224.872C162.659 225.45 162.572 226.024 162.45 226.591C162.334 226.976 162.292 227.379 162.326 227.779C162.522 228.429 162.944 228.984 163.515 229.342C164.163 229.873 163.885 230.561 163.885 231.405C163.799 232.244 163.83 233.091 163.978 233.921C164.416 235.055 165.236 235.996 166.293 236.577C166.69 236.788 167.026 237.101 167.266 237.484C167.378 237.78 167.451 238.09 167.482 238.406C167.615 239.063 167.917 239.673 168.359 240.173C168.802 240.673 169.367 241.045 169.998 241.25C170.404 241.31 170.792 241.46 171.133 241.69C171.475 241.92 171.762 242.223 171.974 242.578C172.123 242.988 172.293 243.39 172.483 243.782C172.825 244.173 173.266 244.463 173.758 244.62C174.25 244.777 174.776 244.795 175.277 244.673C175.726 244.553 176.201 244.598 176.62 244.798C176.84 244.983 176.993 245.236 177.057 245.519C177.121 245.801 177.092 246.096 176.975 246.36C176.742 246.901 176.468 247.424 176.157 247.923C175.913 248.402 175.768 248.927 175.734 249.465C175.699 250.002 175.775 250.542 175.957 251.049C176.204 251.736 176.435 252.252 176.698 252.94C176.96 253.627 176.373 254.799 176.126 255.737C175.963 256.704 176.005 257.695 176.25 258.644C176.351 259.08 176.351 259.535 176.25 259.972C176.116 260.315 175.95 260.644 175.756 260.956C175.442 261.601 175.345 262.331 175.479 263.036C175.613 263.741 175.97 264.383 176.497 264.863C177.222 265.488 177.068 266.426 176.898 267.317C176.626 268.245 176.658 269.238 176.991 270.145C177.306 270.572 177.59 271.021 177.84 271.489C178.226 272.615 177.238 273.74 177.13 274.912C177.125 275.888 177.502 276.827 178.179 277.522C178.179 277.522 178.179 277.522 178.179 277.522C178.224 277.512 178.27 277.514 178.313 277.528C178.356 277.542 178.395 277.566 178.426 277.6C178.712 277.933 178.905 278.338 178.987 278.771C179.068 279.205 179.034 279.653 178.889 280.069C178.596 280.903 178.596 281.814 178.889 282.648C179.214 283.241 179.862 283.601 180.186 284.21C180.865 285.461 179.847 287.039 180.186 288.414C180.474 289.212 181.018 289.888 181.73 290.336C182.718 291.102 181.267 293.118 181.9 294.212C182.208 294.743 182.857 294.946 183.227 295.431C183.598 295.915 183.567 296.994 183.783 297.9C184.088 298.599 184.54 299.221 185.108 299.723C185.676 300.225 186.346 300.595 187.071 300.807V300.807C189.463 301.932 193.894 301.323 196.255 301.198C209.006 300.572 219.487 300.541 231.759 297.197C234.847 296.353 237.78 295.415 240.944 294.634C241.607 294.518 242.235 294.25 242.781 293.853C243.368 293.252 243.784 292.501 243.985 291.68L245.683 286.586C246.995 282.648 247.227 278.397 248.153 274.365C248.786 271.646 249.419 268.708 250.036 265.739C251.055 264.973 252.367 264.363 252.83 263.504C253.004 263.179 253.114 262.824 253.154 262.457C253.278 261.066 252.12 259.675 252.645 258.394C252.851 257.986 253.116 257.612 253.432 257.284C254.077 256.479 254.527 255.533 254.746 254.521C254.966 253.509 254.95 252.459 254.698 251.455C254.621 250.947 254.675 250.428 254.857 249.949C255.038 249.469 255.34 249.046 255.732 248.72C256.458 248.111 257.384 247.642 257.754 246.767C258.217 245.641 257.584 244.251 258.125 243.157C258.311 242.802 258.606 242.519 258.965 242.35C259.325 242.181 259.728 242.135 260.116 242.219C261.49 242.547 261.999 244.297 263.203 245.016C264.174 245.462 265.274 245.529 266.291 245.204C266.963 244.986 267.686 244.986 268.359 245.204C269.193 245.563 269.532 246.563 270.119 247.267C270.65 247.868 271.373 248.259 272.162 248.37C272.95 248.482 273.752 248.307 274.426 247.876C275.012 247.47 275.846 248.236 276.309 248.783C276.709 249.408 277.235 249.94 277.853 250.345C279.072 250.939 280.662 250.08 281.804 250.799C282.468 251.22 282.792 252.064 283.471 252.439C284.49 253.018 285.818 252.346 286.898 252.752C288.365 253.315 288.951 255.627 290.51 255.534C291.02 255.534 291.483 255.174 292.054 255.143C293.737 254.987 294.339 257.518 295.882 258.269C296.379 258.443 296.9 258.538 297.426 258.55C299.834 258.769 301.578 259.347 301.717 261.675C301.435 262.181 301.183 262.703 300.961 263.238C300.827 263.687 300.814 264.164 300.922 264.62C301.031 265.076 301.257 265.494 301.578 265.832C302.067 266.397 302.414 267.072 302.592 267.801C302.769 268.53 302.771 269.291 302.597 270.02C302.458 270.818 302.072 271.583 302.01 272.349C302.056 273.689 302.551 274.974 303.415 275.99C303.77 276.506 303.585 277.084 303.631 277.725C303.663 278.042 303.626 278.362 303.525 278.664C303.424 278.966 303.26 279.243 303.045 279.475C302.813 279.694 302.52 279.866 302.381 280.147C302.041 280.835 302.736 281.538 303.137 282.194C303.392 282.618 303.527 283.105 303.527 283.601C303.527 284.097 303.392 284.584 303.137 285.007C302.854 285.363 302.596 285.739 302.366 286.133C302.245 286.483 302.196 286.855 302.22 287.225C302.243 287.595 302.34 287.957 302.504 288.289C302.767 288.951 303.12 289.572 303.554 290.133C303.941 290.745 304.125 291.465 304.081 292.19C304.037 292.915 303.766 293.607 303.307 294.165C302.89 294.614 302.569 295.147 302.366 295.728C302.34 296.265 302.441 296.8 302.659 297.291C302.902 298.069 303.027 298.881 303.029 299.697C303.084 300.199 303.009 300.706 302.811 301.169C302.614 301.632 302.3 302.035 301.902 302.338C301.64 302.495 301.331 302.573 301.084 302.729C300.405 303.182 300.266 304.12 299.834 304.823C299.753 305.005 299.627 305.163 299.469 305.283C299.311 305.403 299.126 305.481 298.93 305.509C298.735 305.537 298.535 305.514 298.35 305.444C298.166 305.373 298.002 305.256 297.874 305.104C298.331 305.999 299.055 306.726 299.942 307.183C303.135 312.843 307.412 317.8 312.523 321.763C313.628 322.559 314.97 322.944 316.323 322.853C317.676 322.762 318.957 322.201 319.948 321.263C323.421 324.795 333.84 333.578 335.801 335V235.937C335.504 234.84 334.824 233.891 333.887 233.264" fill="#8AD2D4"/>
<path d="M293.028 289.592C293.378 290.355 293.601 291.173 293.69 292.012C293.69 293.074 292.908 294.074 293.103 295.135C293.299 296.197 294.442 296.853 294.607 297.915C294.773 298.977 294.232 299.601 294.171 300.46C294.162 300.902 294.243 301.34 294.409 301.746C294.575 302.153 294.822 302.518 295.134 302.818C295.755 303.44 296.459 303.965 297.224 304.38C297.468 304.517 297.678 304.711 297.837 304.947C297.997 305.182 298.101 305.453 298.142 305.738C298.236 306.384 298.271 307.037 298.247 307.69C298.247 307.846 298.278 308 298.337 308.143C298.462 308.352 298.646 308.515 298.864 308.611C299.577 308.931 300.214 309.411 300.729 310.017C301.059 310.501 300.638 311.578 300.849 312.14C300.945 312.382 301.094 312.597 301.285 312.768C301.476 312.939 301.702 313.061 301.947 313.124C302.886 313.387 303.699 313.998 304.233 314.842C304.549 315.669 304.94 316.653 305.737 316.825C306.019 316.845 306.301 316.881 306.579 316.934C307.105 317.106 307.361 317.715 307.587 318.246C308.233 319.729 309.467 321.213 311.016 321.088C311.268 321.029 311.53 321.029 311.783 321.088C312.098 321.213 312.249 321.556 312.414 321.853C313.211 323.414 314.369 324.82 316.595 324.273C317.422 323.976 317.618 323.539 318.205 323.102C318.501 322.872 318.839 322.707 319.198 322.616C319.557 322.524 319.93 322.509 320.295 322.571C321.092 322.571 321.588 323.461 321.799 324.242C322.01 325.023 322.28 325.944 323.017 326.287C323.754 326.631 324.205 326.381 324.747 326.615C325.8 327.084 325.86 328.677 326.777 329.379C327.469 329.91 328.462 329.801 329.123 330.363C329.734 331.128 330.292 331.937 330.793 332.783C332.748 335.297 334.868 334.001 335.801 336V331.69C334.297 329.895 331.364 327.615 329.785 325.991C327.89 324.117 325.799 322.477 323.935 320.588C321.93 318.479 320.089 316.207 318.43 313.795C318.164 313.323 317.75 312.96 317.257 312.765C316.815 312.706 316.366 312.759 315.949 312.921C314.331 313.35 312.62 313.184 311.106 312.453C309.073 311.244 307.354 309.54 306.098 307.487C303.601 304.036 301.074 300.601 298.578 297.134C296.638 294.417 296.653 290.31 296.533 287C296.533 287.328 291.87 286.157 292.968 289.686" fill="#8AD2D4"/>
<path d="M301.359 306.423C302.653 306.482 303.935 306.162 305.049 305.502C306.163 304.842 307.06 303.871 307.629 302.708C308.029 301.559 308.241 300.352 308.256 299.134C308.508 294.32 308.06 289.494 306.924 284.808C306.344 282.441 295.951 282.41 295.951 284.808C295.951 292.551 297.284 305.545 301.453 306.423" fill="#2E58A6"/>
<path d="M219.064 66.4614C217.483 67.3667 216.114 68.6016 215.051 70.0822C211.18 75.777 208.268 82.0674 206.43 88.7036C204.408 95.0832 202.856 101.024 197.291 105.35C196.839 105.663 196.432 106.037 196.084 106.463C195.018 107.921 195.739 109.958 196.398 111.635C200.097 121.04 201.1 130.821 202.668 140.586L203.828 147.812C204.643 152.844 205.395 158.017 204.329 163.001C203.69 165.493 202.814 167.918 201.712 170.243C197.589 179.742 193.874 188.488 191.711 198.629C206.141 189.62 221.536 182.259 237.608 176.685C238.741 176.36 239.804 175.828 240.743 175.118C241.357 174.526 241.885 173.85 242.311 173.111C249.224 162.609 255.4 150.242 252.813 137.937C252.568 136.434 251.99 135.004 251.12 133.752C249.745 132.374 248.273 131.096 246.715 129.928C243.188 126.479 243.016 120.946 243.016 116.009C243.016 99.0593 242.191 82.1307 240.539 65.2231C240.398 63.8594 237.749 63.7654 236.385 63.6556C233.893 63.4989 231.589 62.3233 229.144 62.8406C225.641 63.7049 222.229 64.9016 218.955 66.4144" fill="#F86775"/>
<path d="M235.587 70.3958C238.507 62.6263 243.454 55.78 249.914 50.5675C250.889 49.6389 252.16 49.0839 253.504 49C254.805 49 255.479 50.928 255.651 51.4766C257.353 56.8768 258.519 62.4315 259.131 68.0603C261.364 70.2847 263.89 72.1938 266.64 73.7345C266.013 73.374 270.7 66.9004 275.528 64.126C280.897 61.1512 286.724 59.0906 292.77 58.0286C300.216 57.1194 300.467 57.9345 300.232 65.0508C299.824 76.4148 299.15 78.4995 296.689 83.9543C293.318 90.9067 288.291 96.9244 282.048 101.478C281.374 101.949 281.531 115.821 281.359 117.623C281.191 121.739 280.3 125.793 278.725 129.599C275.026 138.047 270.151 146.668 261.796 151.277C254.903 155.193 247.176 157.412 239.255 157.75C232.828 157.935 226.469 156.398 220.836 153.299C212.856 149.521 205.277 144.947 198.217 139.646C193.514 135.916 188.216 131.26 187.761 128.987C186.868 124.551 189.329 110.319 191.21 110.601C205.004 110.601 208.155 106.965 209.628 99.2057C210.867 93.5177 213.147 88.1078 216.353 83.2489C217.614 81.3873 218.991 79.6073 220.476 77.9196C221.622 76.4965 222.926 75.2081 224.363 74.0793C225.895 72.7285 227.685 71.7039 229.626 71.0679C231.566 70.4319 233.616 70.1979 235.65 70.3801" fill="#F9838D"/>
<path d="M218.656 66.6336C225.6 84.0324 225.6 90.9449 223.781 104.848C223.66 105.606 223.792 106.383 224.158 107.058C224.529 107.585 225.018 108.02 225.584 108.328C231.071 111.839 234.535 113.14 240.021 116.651C242.106 118.783 240.021 132.984 238.861 139.881C237.604 146.134 235.61 152.217 232.92 158.001C228.5 168.471 219.471 175.086 213.138 184.209C206.303 194.041 201.36 205.06 198.56 216.702C197.701 221.104 197.229 225.572 197.149 230.057C197.046 230.386 197.022 230.734 197.078 231.074C197.134 231.414 197.269 231.736 197.471 232.014C197.674 232.293 197.939 232.521 198.245 232.679C198.551 232.837 198.889 232.921 199.234 232.925C205.426 234.493 217.229 237.22 235.569 232.016C238.987 231.044 239.049 230.997 239.833 229.351C240.216 228.017 240.396 226.633 240.366 225.245C240.852 218.52 240.366 206.952 241.698 206.608C243.031 206.263 243.407 212.015 244.206 215.479C244.3 216.067 244.568 216.613 244.975 217.047C245.284 217.255 245.632 217.399 245.999 217.469C246.365 217.539 246.742 217.534 247.106 217.454C250.238 217.164 253.338 216.598 256.37 215.761C253.518 210.087 251.448 203.034 253 197.187C255.461 187.908 263.973 185.431 271.607 186.92C277.516 188.065 282.58 191.811 287.941 194.46C288.524 194.826 289.221 194.966 289.9 194.852C290.699 194.616 291.138 193.754 291.859 193.284C293.239 192.469 294.995 193.519 296.201 194.538C302.189 199.46 323.412 222.846 331.5 232.016C331.979 220.934 328.676 205.973 324.166 195.839C318.241 182.296 311.265 178.503 302.33 163.926C298.694 158.001 295.292 152.201 294.195 145.336C292.8 136.527 296.186 127.89 297.408 119.065C298.631 110.24 296.186 99.1897 290.809 94.0954C285.997 96.4466 279.617 94.0954 276.09 90.1141C272.563 86.1328 269.914 77.5744 269.663 72.2764C269.491 68.734 268.581 69.4864 265.525 67.6681C251.542 59.3136 233.359 59.533 218.656 66.5395" fill="#F86775"/>
<path d="M286.782 189.836C279.9 185.792 272.219 182.578 264.507 184.663C261.144 185.474 258.11 187.295 255.812 189.882C253.514 192.468 252.063 195.696 251.654 199.131C251.152 204.617 253.221 210.871 256.356 215.887C253.503 216.608 248.518 217.125 246.449 217.611C250.321 220.119 254.6 221.624 262.454 222.674C264.146 222.849 265.855 222.67 267.474 222.149C269.093 221.629 270.586 220.777 271.859 219.649C277.039 215.617 281.835 211.115 286.186 206.2C289.095 203.046 291.146 199.198 292.143 195.024C290.847 192.835 288.984 191.037 286.75 189.82" fill="#F9838D"/>
<path d="M304.777 261.939C292.212 260.499 279.566 259.882 266.921 260.09C246.543 260.513 238.031 282.034 230.444 298.085C229.722 299.572 229.377 301.214 229.441 302.865C229.441 306.251 236.573 311.189 239.897 313.414C241.746 314.653 254.522 321.017 260.384 318.885C261.121 317.788 261.168 313.932 261.403 312.615C262.349 306.241 264.169 300.028 266.811 294.15C267.275 292.823 268.114 291.658 269.225 290.796C270.26 290.242 271.407 289.931 272.58 289.887L306.674 285.984C306.977 277.912 306.341 269.832 304.777 261.908" fill="#F9838D"/>
<path d="M202.84 422.227C201.633 417.791 200.285 413.355 197.557 413.418C194.422 413.418 193.639 419.562 193.513 421.506C193.03 426.848 193.072 432.224 193.638 437.557C194.008 440.504 194.648 443.411 195.551 446.241C195.857 447 196.31 447.693 196.883 448.278C197.176 448.568 197.547 448.766 197.95 448.85C198.353 448.933 198.772 448.898 199.156 448.749C199.64 448.453 200.027 448.023 200.269 447.51C201.102 446.083 201.75 444.555 202.197 442.965C202.542 441.758 203.435 436.852 204.204 435.989C204.972 435.127 207.605 435.159 208.749 435.143C210.96 435.143 231.087 435.143 239.755 435.002C240.996 434.867 242.25 435.062 243.392 435.566C244.814 436.965 246.134 438.463 247.342 440.049C248.282 441.102 249.421 441.959 250.693 442.57C251.966 443.18 253.347 443.533 254.756 443.607C263.759 444.655 272.867 444.353 281.78 442.714C284.116 433.309 284.837 426.161 283.003 416.678C282.93 415.883 282.606 415.131 282.078 414.531C281.395 414.037 280.57 413.778 279.727 413.794C272.046 413.12 261.653 413.073 254.192 415.048C244.536 417.603 245.523 425.487 241.95 428.481C240.507 429.688 221.995 429.579 220.004 429.579C217.042 429.579 209.502 430.221 206.79 429.014C203.655 427.635 203.749 425.362 202.903 422.211" fill="#8AD2D4"/>
<path d="M280.449 430.425C281.554 430.611 282.597 431.062 283.489 431.739C284.382 432.416 285.098 433.299 285.575 434.312C287.143 438.466 284.274 440.049 286.265 441.46C288.476 441.604 290.64 442.162 292.645 443.105C293.707 443.655 294.609 444.468 295.265 445.467C295.922 446.467 296.309 447.618 296.391 448.811C296.303 449.376 296.385 449.954 296.626 450.473C296.9 450.808 297.273 451.05 297.692 451.162C299.62 451.868 311.643 452.181 310.875 457.15C310.326 460.677 299.166 459.721 295.607 459.783C290.246 459.893 292.002 456.852 291.814 455.943C291.391 453.952 286.014 454.375 283.443 454.375C280.879 454.407 278.315 454.302 275.762 454.062C269.241 453.466 267.251 450.41 269.947 448.137C271.264 447.024 274.649 446.57 276.217 446.146C279.352 445.378 282.926 443.309 282.691 441.616C282.393 439.438 277.424 439.767 275.245 439.563C272.267 439.281 274.602 436.726 269.226 436.428C265.558 436.428 258.394 436.663 255.463 434.437C248.158 428.889 273.803 429.484 280.434 430.503" fill="#F86775"/>
<path d="M169.719 314.167C174.382 313.394 179.162 313.733 183.67 315.155C186.615 316.065 189.465 317.256 192.181 318.713C196.226 321.064 202.057 325.594 203.327 330.03C203.624 331.064 204.534 333.698 205.208 332.444C205.691 330.055 205.313 327.573 204.142 325.437C202.971 323.325 201.45 321.427 199.643 319.826C194.58 315.123 188.2 311.393 181.271 310.86C180.237 310.86 178.857 310.436 178.889 309.402C178.919 309.119 179.01 308.847 179.155 308.603L181.193 304.496C181.836 303.179 182.949 301.831 181.021 301.941C179.594 302.035 177.886 304.323 177.071 305.311C175.817 306.878 169.719 313.822 169.719 314.183" fill="#8AD2D4"/>
<path d="M208.577 250.324C209.228 250.761 209.77 251.342 210.161 252.021C210.552 252.7 210.783 253.46 210.834 254.243C202.538 249.189 192.776 247.089 183.136 248.286C181.96 248.443 180.001 248.584 179.797 246.484C179.735 246.224 179.728 245.954 179.774 245.691C179.82 245.428 179.92 245.177 180.067 244.954C180.213 244.731 180.404 244.54 180.627 244.394C180.851 244.247 181.102 244.147 181.365 244.101C184.358 243.365 187.464 243.2 190.519 243.615C197.054 244.044 203.32 246.376 208.546 250.324" fill="#2E58A6"/>
<path d="M257.813 264.494C257.311 264.792 257.311 266.171 257.296 266.767C257.155 272.849 259.036 277.175 261.199 282.034C260.431 283.335 259.631 284.401 258.863 285.733C257.423 287.899 256.584 290.409 256.434 293.006C256.419 293.27 256.485 293.532 256.622 293.758C256.772 293.927 256.975 294.039 257.197 294.076C257.42 294.113 257.648 294.073 257.844 293.962C258.231 293.733 258.558 293.416 258.801 293.037L261.121 289.903C262.023 288.512 263.229 287.343 264.648 286.485C265.243 287.177 265.995 287.714 266.842 288.053C267.406 288.272 268.174 288.335 268.41 287.802C268.645 287.269 268.41 286.846 268.112 286.423L264.083 280.028C263.695 279.388 263.349 278.723 263.049 278.037C261.481 274.667 260.023 273.57 258.738 267.3C258.519 266.203 258.299 264.165 257.766 264.416" fill="#F86775"/>
<path d="M253.394 298.414C251.944 300.863 250.757 303.459 249.851 306.157C249.255 308.32 249.773 310.969 251.81 306.611C252.892 304.307 254.679 300.922 255.604 298.555C257.015 294.981 254.648 296.313 253.409 298.414" fill="#F86775"/>
<path d="M277.517 79.0949C276.912 79.9172 276.558 80.8972 276.498 81.9163C276.488 82.4235 276.662 82.9171 276.988 83.306C277.314 83.695 277.769 83.953 278.27 84.0324C278.647 84.0116 279.014 83.9064 279.345 83.7246C279.676 83.5429 279.962 83.2892 280.182 82.9822C281.182 81.5254 281.988 79.9446 282.58 78.2798C283.619 76.1044 285.123 74.1835 286.985 72.6527C287.393 72.3235 289.337 71.3046 289.321 70.709C289.321 69.8312 288.192 69.8312 287.581 69.9409C285.653 70.3015 283.302 72.5586 281.891 73.8439C280.203 75.3769 278.731 77.1329 277.517 79.0636" fill="#F86775"/>
<path d="M214.956 142.122C215.416 142.085 215.878 142.133 216.32 142.263C216.541 142.333 216.734 142.47 216.872 142.656C217.01 142.842 217.085 143.067 217.088 143.298C217.051 143.533 216.954 143.754 216.806 143.941C216.257 144.724 215.458 145.508 215.536 146.464C215.951 146.552 216.381 146.536 216.788 146.419C217.195 146.301 217.568 146.085 217.872 145.79C219.016 144.92 220.002 143.86 220.787 142.655C221.211 142.09 221.467 141.416 221.524 140.712C221.537 140.545 221.493 140.379 221.399 140.241C221.281 140.119 221.127 140.037 220.96 140.006C219.617 139.713 218.238 139.623 216.869 139.74C214.168 139.79 211.469 139.569 208.812 139.082C208.247 138.987 207.15 139.082 207.432 139.944C207.62 140.508 208.718 140.774 209.204 140.962C211.022 141.72 212.971 142.115 214.941 142.122" fill="#F86775"/>
<path d="M212.95 112.592C212.73 113.382 212.791 114.224 213.123 114.974C213.237 115.301 213.418 115.6 213.656 115.852C213.823 116.01 214.013 116.142 214.22 116.244C214.704 116.486 215.235 116.621 215.776 116.64C216.317 116.658 216.855 116.561 217.355 116.354C217.66 116.233 217.937 116.052 218.17 115.821C218.491 115.452 218.703 115.002 218.782 114.52C218.948 113.77 218.877 112.986 218.578 112.278C218.434 111.937 218.22 111.629 217.95 111.375C217.68 111.121 217.36 110.927 217.01 110.805C216.241 110.546 215.403 110.586 214.662 110.917C213.922 111.248 213.333 111.846 213.013 112.592" fill="#F86775"/>
<path d="M213.436 103.626C213.315 103.505 213.164 103.418 212.999 103.374C212.834 103.33 212.66 103.33 212.495 103.375C212.368 103.425 212.252 103.502 212.155 103.599C212.057 103.696 211.981 103.812 211.931 103.939C211.835 104.195 211.782 104.465 211.774 104.739C211.692 105.463 211.692 106.193 211.774 106.917C211.812 107.459 212.021 107.975 212.37 108.391C212.553 108.591 212.804 108.714 213.074 108.737C213.344 108.761 213.613 108.682 213.828 108.516C214.08 108.197 214.198 107.792 214.157 107.388C214.157 106.228 214.329 104.519 213.389 103.641" fill="#F86775"/>
<path d="M216.101 103.187C215.885 103.609 215.777 104.077 215.788 104.551C215.661 105.541 215.725 106.547 215.976 107.513C216.08 107.814 216.293 108.066 216.572 108.219C216.817 108.325 217.094 108.33 217.344 108.233C217.593 108.136 217.794 107.945 217.904 107.702C218.115 107.244 218.227 106.747 218.233 106.244C218.233 105.565 218.233 104.885 218.233 104.206C218.239 103.974 218.213 103.742 218.155 103.516C218.096 103.303 217.977 103.11 217.812 102.963C217.646 102.816 217.441 102.719 217.222 102.686C217.003 102.653 216.779 102.684 216.577 102.776C216.376 102.868 216.205 103.016 216.086 103.203" fill="#F86775"/>
<path d="M219.862 105.899C219.65 106.402 219.498 106.928 219.408 107.466C219.341 107.76 219.341 108.065 219.408 108.359C219.446 108.502 219.515 108.635 219.61 108.749C219.704 108.863 219.823 108.955 219.957 109.018C220.109 109.073 220.271 109.092 220.432 109.073C220.593 109.054 220.747 108.997 220.881 108.908C221.151 108.733 221.38 108.503 221.555 108.234C222.108 107.437 222.457 106.517 222.574 105.554C222.644 105.228 222.594 104.889 222.433 104.598C222.345 104.48 222.235 104.38 222.108 104.305C221.981 104.23 221.841 104.181 221.695 104.161C221.549 104.14 221.401 104.149 221.259 104.186C221.116 104.224 220.983 104.289 220.866 104.378C220.389 104.797 220.036 105.34 219.847 105.946" fill="#F86775"/>
<path d="M333.196 265.293C331.918 264.861 330.58 264.629 329.231 264.604C328.305 264.475 327.403 264.216 326.55 263.835C326.049 263.616 325.563 263.255 324.983 263.005C323.486 262.234 321.909 261.63 320.28 261.202C317.317 260.235 314.238 259.666 311.125 259.509C310.514 259.509 309.15 259.509 308.915 260.089C308.555 261.014 313.477 262.456 314.417 262.77C317.082 263.663 320.327 264.604 322.333 266.563C325.594 269.994 327.441 274.527 327.506 279.259C327.484 279.798 327.586 280.334 327.804 280.827C327.923 281.074 328.132 281.267 328.388 281.366C328.645 281.465 328.929 281.463 329.183 281.36C329.449 281.164 329.638 280.881 329.716 280.56C330.234 278.876 330.473 277.118 330.422 275.356C330.422 274.29 330.422 273.193 330.422 272.112C330.246 271.213 330.407 270.281 330.877 269.494C331.417 268.747 332.119 268.131 332.93 267.691C333.447 267.394 334.059 267.033 334.09 266.453C334.121 265.873 333.635 265.481 333.149 265.246" fill="#2E58A6"/>
<path d="M273.552 440.833C274.172 440.907 274.802 440.854 275.401 440.676C275.821 440.486 276.196 440.211 276.504 439.869C276.812 439.526 277.045 439.123 277.188 438.685C277.623 437.325 277.798 435.894 277.706 434.469C277.706 432.536 277.706 430.608 277.706 428.685C277.569 427.475 277.798 426.252 278.364 425.174C280.904 421.491 283.725 424.375 283.756 425.096C283.905 430.083 283.706 435.074 283.161 440.033C283.163 440.752 282.996 441.46 282.675 442.103C282.436 442.392 282.121 442.609 281.766 442.73C279.225 443.332 276.615 443.59 274.006 443.498C272.439 443.498 263.033 444.234 262.908 442.197C262.689 439.218 272.11 440.786 273.552 440.849" fill="#8AD2D4"/>
<path d="M0.142578 419.437C6.01565 419.51 11.8835 419.479 17.7461 419.343V479.251H17.2436C7.87045 479.251 0.265795 471.665 0.243675 462.292L0.142578 419.453" fill="#CCCCCC"/>
<path d="M0.201172 368.526C6.98718 369.019 13.7022 370.228 20.2343 372.132C24.2036 373.176 27.956 374.917 31.3167 377.273C34.6955 379.668 36.9891 383.302 37.6966 387.383C38.2609 391.709 36.2231 394.421 32.6804 397.54C30.1646 399.756 27.1374 401.313 23.8709 402.07C16.1083 403.875 8.1836 404.893 0.216862 405.111L0.201172 368.526Z" fill="#CCCCCC"/>
<path d="M24.2941 418.936C27.8367 417.776 31.9907 416.161 34.389 413.293C38.9819 407.838 38.496 401.803 38.496 393.652C38.496 391.756 38.496 386.818 37.6025 386.818C35.8469 392.9 29.5454 397.195 21.6451 399.718C14.6983 401.814 7.4517 402.741 0.201172 402.462V422.196C8.35159 422.347 16.477 421.247 24.2941 418.936Z" fill="#FF8000"/>
<path d="M214.362 218.254C213.468 221.515 211.352 223.474 211.995 219.963C215.49 200.181 229.896 176.434 234.598 168.44C239.113 160.791 243.392 153.064 245.853 144.474C248.198 136.564 249.639 128.413 250.148 120.178C251.057 103.203 246.402 86.243 238.345 70.8349C237.89 69.9258 238.987 69.4869 240.398 71.3835C242.289 73.8969 243.971 76.5599 245.43 79.3462C247.944 84.1854 250.082 89.2108 251.825 94.3781C252.75 97.1368 256.136 106.589 256.857 113.642C258.048 125.32 257.406 128.69 255.493 136.605C253.874 142.765 251.505 148.703 248.44 154.286C246.7 157.625 237.733 170.98 233.768 177.579C230.46 183.08 221.008 194.068 214.393 218.254" fill="#F9838D"/>
<path d="M255.462 340.124C256.167 340.171 256.874 340.171 257.578 340.124C257.7 340.082 257.833 340.082 257.954 340.124C258.047 340.216 258.103 340.338 258.111 340.469C258.22 341.763 257.993 343.064 257.453 344.246C254.931 350.487 251.606 356.373 247.562 361.755C245.792 364.142 243.679 366.255 241.292 368.025C238.421 369.78 235.288 371.066 232.012 371.833C231.51 371.975 230.852 372.053 230.554 371.63C230.449 371.437 230.395 371.222 230.397 371.003L229.222 357.476C229.018 355.218 228.595 354.529 230.1 352.773C231.478 351.244 232.76 349.632 233.94 347.945C238.517 341.221 240.022 335.045 241.401 335.108C241.713 335.137 242.014 335.239 242.279 335.406C246.306 337.905 250.823 339.509 255.525 340.108" fill="#8AD2D4"/>
<path d="M252.468 345.171C252.506 345.459 252.602 345.737 252.75 345.988C252.898 346.238 253.095 346.456 253.33 346.629C253.568 346.766 253.838 346.839 254.114 346.839C254.389 346.839 254.659 346.766 254.897 346.629C255.186 346.41 255.417 346.125 255.571 345.798C257.641 342.052 251.794 341.503 252.436 345.108" fill="#2E58A6"/>
<path d="M261.388 367.1C274.956 369.056 288.739 368.982 302.285 366.88C303.882 376.533 304.035 386.369 302.74 396.066C300.599 397.187 298.24 397.829 295.827 397.947C286.422 398.689 276.959 398.966 267.439 398.778C265.5 398.863 263.565 398.553 261.749 397.869C259.711 389.389 260.087 376.802 261.388 367.1" fill="#CCCCCC"/>
<path d="M285.558 463.436C286.107 463.214 286.558 462.802 286.828 462.276C286.96 461.805 286.92 461.302 286.716 460.857C286.513 460.412 286.158 460.054 285.715 459.846C284.818 459.456 283.839 459.289 282.862 459.36H273.771C273.146 459.337 272.52 459.384 271.905 459.501C271.082 459.69 270.333 460.121 269.758 460.74C269.512 460.967 269.329 461.254 269.225 461.572C269.121 461.89 269.099 462.229 269.162 462.558C269.46 463.53 270.73 463.765 271.748 463.812C275.965 464.031 281.624 465.379 285.558 463.451" fill="#F86775"/>
<path d="M17.4801 423.794C18.9091 425.935 19.6024 428.482 19.4552 431.052C19.612 434.531 19.8314 437.996 19.9725 441.46V479.329H35.0678C34.817 472.229 36.0868 464.736 35.836 457.636C35.836 446.554 36.2748 435.394 35.0992 424.421C34.8191 422.46 33.9591 420.627 32.6296 419.158C31.3001 417.689 29.5616 416.65 27.6377 416.177C20.7562 415.189 12.7931 418.606 6.66406 420.754C10.8807 421.443 14.7839 420.377 17.4801 423.779" fill="#FF8000"/>
<path d="M288.271 376.285C286.155 375.59 283.926 375.303 281.703 375.439C279.022 375.439 276.028 375.58 274.147 377.492C273.393 378.308 272.855 379.299 272.58 380.376C272.037 382.312 272.147 384.372 272.892 386.239C273.637 388.106 274.976 389.675 276.702 390.706C278.43 391.542 280.317 391.996 282.236 392.038C283.844 392.2 285.469 392.073 287.032 391.662C293.788 389.608 295.262 379.122 288.271 376.285ZM279.571 385.69C279.524 385.949 279.434 386.198 279.304 386.426C279.163 386.601 278.986 386.743 278.785 386.843C278.583 386.943 278.363 386.998 278.139 387.006C277.914 387.013 277.691 386.972 277.484 386.886C277.276 386.799 277.09 386.669 276.937 386.505C276.326 385.831 275.967 384.968 275.919 384.06C275.761 383.263 275.799 382.44 276.028 381.661C276.137 381.261 276.359 380.9 276.668 380.622C276.976 380.344 277.358 380.161 277.768 380.094C280.433 379.874 279.931 384.091 279.571 385.596V385.69ZM288.443 385.737C288.362 386.049 288.179 386.325 287.924 386.523C287.669 386.72 287.355 386.827 287.032 386.827C286.71 386.827 286.396 386.72 286.141 386.523C285.885 386.325 285.703 386.049 285.622 385.737C285.397 385.147 285.29 384.518 285.308 383.887C285.308 383.401 285.308 382.915 285.308 382.429C285.232 382.027 285.25 381.612 285.362 381.217C285.473 380.823 285.675 380.46 285.951 380.157C288.71 378.041 288.725 382.586 288.725 383.856C288.763 384.471 288.684 385.088 288.49 385.674" fill="#F86775"/>
<path d="M293.977 66.0856C294 66.4865 294.129 66.874 294.353 67.2076C294.576 67.5412 294.885 67.8088 295.247 67.9822C295.581 68.1485 295.948 68.2396 296.321 68.2489C296.695 68.2582 297.065 68.1856 297.408 68.0362C297.75 67.8867 298.055 67.6641 298.302 67.384C298.549 67.1039 298.731 66.773 298.837 66.4148C298.914 66.1504 298.94 65.8739 298.915 65.5997C298.903 65.2599 298.822 64.9262 298.677 64.6189C298.531 64.3116 298.325 64.0374 298.069 63.813C297.814 63.5886 297.515 63.4188 297.192 63.3141C296.868 63.2093 296.527 63.1719 296.188 63.204C295.85 63.2362 295.522 63.3372 295.224 63.5009C294.926 63.6646 294.665 63.8875 294.456 64.156C294.247 64.4244 294.096 64.7327 294.011 65.0618C293.926 65.391 293.909 65.734 293.962 66.0699" fill="#FCC2C2"/>
<path d="M179.986 247.22C180.272 247.63 180.687 247.931 181.165 248.076C181.642 248.221 182.155 248.201 182.62 248.02C182.871 247.874 183.112 247.712 183.341 247.534C183.746 247.262 184.206 247.082 184.688 247.007C185.169 246.931 185.662 246.961 186.131 247.095C186.702 247.337 187.289 247.541 187.887 247.706C188.514 247.746 189.143 247.688 189.752 247.534C190.813 247.304 191.921 247.448 192.887 247.942C194.188 248.71 195.803 247.377 197.261 247.769C198.295 248.051 199.016 249.039 200.051 249.337C201.399 249.697 202.684 249.337 203.907 250.183C204.283 250.449 204.612 250.794 205.004 251.061C205.632 251.485 206.379 251.699 207.136 251.672C207.736 251.719 208.317 251.909 208.829 252.225C209.342 252.541 209.772 252.975 210.083 253.49C210.209 253.663 210.334 253.851 210.538 253.866C210.742 253.882 210.945 253.6 210.773 253.49C210.914 253.783 210.979 254.106 210.961 254.431C210.359 254.521 209.743 254.434 209.19 254.18C205.961 253.004 203.045 251.045 199.784 250.011C196.511 249.163 193.132 248.793 189.752 248.913C189.152 248.87 188.55 248.87 187.949 248.913C187.244 249.007 186.57 249.211 185.865 249.337C184.678 249.531 183.477 249.62 182.275 249.603C181.975 249.625 181.673 249.599 181.382 249.525C180.519 249.258 180.222 248.051 179.955 247.173" fill="#8AD2D4"/>
<path d="M308.961 260.074C309.029 260.308 309.171 260.515 309.366 260.662C309.561 260.808 309.798 260.888 310.043 260.889C310.531 260.883 311.018 260.841 311.5 260.763C311.743 260.731 311.989 260.775 312.206 260.889C312.435 261.088 312.627 261.327 312.77 261.594C312.964 261.828 313.202 262.02 313.471 262.16C313.741 262.3 314.035 262.385 314.338 262.409C314.94 262.458 315.546 262.426 316.14 262.315C316.43 262.243 316.732 262.242 317.021 262.313C317.311 262.384 317.579 262.525 317.802 262.723C317.99 262.927 318.131 263.162 318.304 263.365C318.839 263.894 319.522 264.249 320.263 264.384C320.999 264.52 321.715 264.746 322.395 265.058C323.79 265.826 323.461 267.425 324.432 268.507C325.012 269.134 325.89 269.416 326.455 270.074C327.086 271.065 327.3 272.265 327.05 273.413C326.971 273.806 327.026 274.215 327.207 274.573C327.709 275.45 329.041 276.548 328.774 277.708C328.686 277.94 328.57 278.161 328.43 278.366C328.11 278.877 327.952 279.472 327.975 280.074C327.986 280.38 328.064 280.679 328.205 280.95C328.346 281.222 328.546 281.458 328.79 281.642C328.645 281.749 328.469 281.807 328.289 281.807C328.108 281.807 327.932 281.749 327.787 281.642C327.492 281.436 327.246 281.169 327.066 280.858C325.457 278.694 324.101 276.354 323.022 273.883C322.292 271.91 321.767 269.866 321.454 267.786C321.415 267.364 321.281 266.957 321.062 266.594C320.745 266.221 320.317 265.957 319.84 265.842C317.379 265.058 314.682 265.638 312.143 265.168C312.018 264.98 311.657 264.635 311.532 264.447C311.302 264.087 311.051 263.742 310.779 263.412C310.56 263.162 310.309 262.911 310.074 262.644C309.494 261.905 309.125 261.022 309.008 260.089" fill="#8AD2D4"/>
<path d="M188.607 244.101C188.847 244.358 189.135 244.566 189.454 244.713C189.94 244.869 190.457 244.713 191.021 244.713C191.978 244.713 192.683 245.685 193.624 245.841C194.488 245.815 195.337 245.607 196.116 245.23C197.547 244.97 199.023 245.15 200.348 245.747C200.348 245.496 200.066 245.34 199.831 245.23C197.648 244.042 195.334 243.116 192.934 242.471C190.439 241.947 187.84 242.307 185.582 243.49C186.122 243.381 186.678 243.384 187.217 243.497C187.756 243.61 188.267 243.832 188.717 244.148" fill="#8AD2D4"/>
<path d="M324.904 264.573C326.015 265.063 327.26 265.157 328.431 264.839C329.525 264.707 330.63 264.707 331.723 264.839C329.748 263.711 327.35 263.507 325.453 262.347C324.983 262.065 324.544 261.735 324.089 261.469C322.673 260.628 321.027 260.255 319.387 260.403C320.186 260.403 321.487 261.438 322.255 261.767C324.215 262.613 323.917 263.883 324.92 264.557" fill="#8AD2D4"/>
<path d="M116.484 317.803C116.322 318.467 116.222 319.143 116.186 319.825L115.12 319.966C115.042 319.449 115.12 318.885 114.979 318.399C114.974 318.291 114.935 318.187 114.869 318.101C114.773 318.021 114.649 317.982 114.525 317.991C114.092 317.974 113.66 318.016 113.239 318.117C113.154 318.128 113.073 318.16 113.004 318.211C112.946 318.273 112.903 318.348 112.879 318.43C112.675 319.042 112.44 319.747 112.283 320.374C111.374 320.515 110.59 320.593 109.681 320.734C109.855 320.3 109.981 319.848 110.057 319.386C110.111 319.202 110.111 319.006 110.057 318.822C110.022 318.731 109.962 318.65 109.885 318.59C109.808 318.529 109.715 318.49 109.618 318.477C109.362 318.484 109.116 318.584 108.928 318.759C108.75 318.931 108.611 319.14 108.521 319.371C108.288 319.879 108.089 320.403 107.925 320.938C105.401 321.361 103.019 321.675 100.338 322.098C101.213 320.914 101.754 319.518 101.906 318.054C101.906 317.38 101.389 317.631 101.216 317.929C101.078 318.176 100.957 318.432 100.856 318.697C100.254 319.807 99.8208 321.001 99.5703 322.239L98.6298 322.396C99.2701 321.042 99.6123 319.567 99.633 318.07C99.6421 317.854 99.599 317.639 99.5075 317.443C99.4722 317.337 99.4072 317.244 99.3204 317.174C99.2335 317.105 99.1286 317.061 99.0178 317.05C98.9071 317.038 98.7954 317.059 98.696 317.109C98.5966 317.159 98.5137 317.237 98.4574 317.333C98.3362 317.51 98.246 317.706 98.1908 317.913C97.695 319.446 97.3332 321.02 97.1093 322.615L96.4038 322.725C96.5292 321.314 96.686 319.872 96.8114 318.462C96.872 318.159 96.8595 317.846 96.775 317.549C96.6905 317.251 96.5365 316.979 96.3256 316.753C96.232 316.66 96.1184 316.589 95.9936 316.545C95.8687 316.502 95.7357 316.487 95.6044 316.502C95.2752 316.502 95.0558 316.894 94.899 317.192C94.2843 318.799 93.5778 320.369 92.7829 321.894C92.5164 322.318 91.858 322.286 92.0931 321.722C92.7489 320.256 93.2734 318.735 93.6606 317.176C93.7944 316.785 93.7944 316.361 93.6606 315.969C93.5548 315.794 93.4016 315.652 93.2184 315.561C93.0353 315.469 92.8297 315.432 92.626 315.452C92.046 315.452 91.6542 316.063 91.3407 316.565C90.559 317.734 89.8573 318.954 89.2403 320.217C88.6916 321.408 87.8609 323.65 87.3279 323.352C86.795 323.054 89.4597 318.65 89.4127 316.126C89.4127 315.938 89.4127 315.719 89.1932 315.672C88.9738 315.624 88.817 315.891 88.7699 316.11C88.4982 317.155 88.1953 318.2 87.8608 319.245C87.6571 319.857 87.4376 320.907 87.0143 320.907C86.5911 320.907 86.8732 320.139 87.0143 319.763C87.3174 318.425 87.657 317.103 88.0333 315.797C88.156 315.454 88.2248 315.095 88.237 314.731C88.2409 314.548 88.2 314.367 88.118 314.203C88.0361 314.039 87.9155 313.897 87.7667 313.791C87.5821 313.693 87.3736 313.65 87.1653 313.666C86.957 313.683 86.7577 313.759 86.5911 313.885C86.2671 314.145 86.0093 314.478 85.8387 314.856C84.8825 316.69 84.5846 318.822 83.6441 320.672C83.5734 320.835 83.4662 320.98 83.3307 321.095C83.258 321.148 83.17 321.177 83.0798 321.177C82.9896 321.177 82.9016 321.148 82.8289 321.095C82.8182 320.513 82.9139 319.934 83.1112 319.386L84.6787 314.088C84.8041 313.814 84.8476 313.509 84.8041 313.211C84.6786 312.787 84.2241 312.552 83.8165 312.38L81.6378 311.471C81.5451 311.448 81.4483 311.448 81.3556 311.471C80.7129 311.471 80.4465 312.693 80.2427 313.179C79.8874 314.036 79.5634 314.903 79.2708 315.781C79.2319 315.927 79.1683 316.065 79.0827 316.189C79.0209 316.259 78.9449 316.315 78.8598 316.353C78.7747 316.392 78.6823 316.412 78.5888 316.412C78.4954 316.412 78.4032 316.392 78.3181 316.353C78.233 316.315 78.1569 316.259 78.0952 316.189C77.9467 315.974 77.8851 315.711 77.9228 315.452C78.0215 314.763 78.2221 314.092 78.5182 313.461C78.8318 312.617 79.0424 311.738 79.1453 310.844C79.1453 310.562 78.9415 310.421 78.722 310.248L77.8443 309.511C77.7052 309.366 77.5246 309.268 77.3271 309.229C77.2288 309.227 77.1311 309.247 77.0416 309.288C76.9521 309.329 76.8729 309.389 76.8097 309.464C76.6837 309.62 76.5833 309.795 76.5119 309.982L75.9476 311.267C75.885 311.432 75.7949 311.586 75.6811 311.722C75.6245 311.789 75.5519 311.842 75.4698 311.875C75.3877 311.908 75.2987 311.92 75.2109 311.91C75.0841 311.874 74.9738 311.794 74.8994 311.685C74.8249 311.577 74.7909 311.445 74.8033 311.314C74.8286 311.052 74.9031 310.796 75.0228 310.562C75.3068 309.861 75.4351 309.107 75.399 308.352C75.3437 308.001 75.2145 307.665 75.0199 307.368C74.8253 307.071 74.5698 306.818 74.2703 306.627C74.1742 306.53 74.0593 306.454 73.9327 306.402C73.806 306.351 73.6702 306.326 73.5336 306.33C73.2671 306.33 73.079 306.627 72.9379 306.862L71.3704 309.198C71.292 309.323 71.0882 309.449 71.0255 309.308C70.3515 309.308 71.1823 306.737 72.4363 304.041C73.6501 305.765 75.2638 307.169 77.139 308.132C77.5779 308.414 78.4087 308.884 78.8632 309.135C80.4308 310.013 85.0237 312.066 86.3404 312.662C87.6571 313.258 88.6758 313.712 89.8828 314.135C92.9486 315.26 96.0919 316.161 99.288 316.831C101.881 317.313 104.497 317.659 107.126 317.866C110.297 318.141 113.485 318.141 116.656 317.866" fill="#8AD2D4"/>
<path d="M28.8587 371.25C24.8772 355.199 20.3522 339.295 15.2838 323.537C15.0188 322.251 14.3286 321.091 13.3244 320.245C12.5098 319.793 11.5913 319.56 10.6595 319.571C10.6595 318.536 10.5498 317.486 10.4558 316.436C10.3438 315.21 10.1129 313.997 9.76613 312.815C9.20182 310.856 8.19858 308.567 7.10131 307.925C6.23018 307.336 5.20582 307.014 4.15433 307C2.93166 307 1.72463 307 0.501953 307V311.514C1.53244 311.434 2.56466 311.646 3.48031 312.126C3.84407 312.422 4.14288 312.79 4.35812 313.207C5.48194 315.146 6.11174 317.331 6.19211 319.571C4.26238 319.764 2.35642 320.148 0.501953 320.715V393.336C8.01044 389.762 16.9924 385.498 24.5009 381.987C26.0956 381.389 27.506 380.384 28.5921 379.072C30.1597 376.83 29.5484 373.821 28.9057 371.234" fill="#F86775"/>
<path d="M193.64 114.034C193.662 118.312 193.071 122.572 191.884 126.683C191.524 127.279 191.069 126.479 190.975 125.398C190.975 124.692 190.128 124.677 189.58 124.99C189.364 125.117 189.194 125.309 189.094 125.539C188.745 126.259 188.62 127.067 188.733 127.859C188.921 129.426 188.373 130.147 187.965 129.599C185.755 125.257 187.354 113.814 190.865 110.789C191.429 110.303 193.452 110.679 193.655 114.049" fill="#F86775"/>
<path d="M246.527 218.755C248.056 218.324 249.686 218.423 251.151 219.038C251.837 219.589 252.577 220.067 253.362 220.464C254.271 220.621 255.204 220.568 256.089 220.307C257.039 220.137 258.014 220.185 258.942 220.448C260.029 220.883 261.077 221.407 262.077 222.016C262.574 222.315 263.132 222.5 263.709 222.557C264.287 222.614 264.87 222.542 265.416 222.345C265.886 222.125 266.529 221.937 266.811 221.483C267.04 221.008 267.33 220.566 267.673 220.166C268.959 218.975 271.451 220.166 272.627 218.865C273.207 218.222 273.175 217.298 273.614 216.467C273.883 216.08 274.232 215.754 274.638 215.514C275.044 215.273 275.497 215.122 275.966 215.072C276.37 215.026 276.757 214.881 277.091 214.648C277.425 214.416 277.695 214.103 277.878 213.74C278.046 213.094 278.272 212.464 278.552 211.859C279.163 210.981 280.417 210.918 281.358 210.417C281.887 210.204 282.337 209.832 282.643 209.351C282.91 208.739 282.769 208.003 283.019 207.391C283.197 207.045 283.457 206.748 283.777 206.527C284.097 206.305 284.467 206.166 284.853 206.122C285.156 206.084 285.455 206.021 285.747 205.934C286.03 205.815 286.286 205.64 286.499 205.419C286.711 205.198 286.877 204.935 286.985 204.648C287.201 204.079 287.338 203.483 287.393 202.877C287.534 201.733 287.518 201.027 288.615 200.651C289.073 200.556 289.519 200.414 289.948 200.228C290.252 199.991 290.493 199.682 290.649 199.329C290.805 198.977 290.871 198.591 290.841 198.206C290.697 197.136 290.665 196.054 290.747 194.977C290.804 194.604 290.955 194.252 291.185 193.953C291.415 193.654 291.718 193.418 292.064 193.269C292.142 194.381 292.973 195.839 292.864 196.952C292.79 197.414 292.636 197.86 292.409 198.269C290.515 202.2 288.871 206.247 287.487 210.385C286.578 213.097 285.778 215.856 284.681 218.489C284.267 219.624 283.669 220.684 282.91 221.624C282 222.561 280.941 223.34 279.775 223.928C277.419 225.266 274.979 226.449 272.47 227.47C269.115 228.834 265.338 229.916 261.92 228.693C260.938 228.301 259.989 227.829 259.083 227.282C256.244 225.703 253.294 224.331 250.258 223.176C248.549 222.517 246.606 221.749 245.994 220.041C245.806 219.508 245.994 218.74 246.559 218.771" fill="#8AD2D4"/>
<path d="M10.1863 347.044C10.2059 347.833 10.0598 348.617 9.75737 349.346C9.45497 350.075 9.00299 350.733 8.43066 351.276C6.59666 352.562 2.06652 349.787 0.201172 348.565V352.938C2.53802 354.595 5.21587 355.709 8.03878 356.198C8.71539 356.296 9.40574 356.22 10.0453 355.979C10.6513 355.667 11.1608 355.195 11.5187 354.615C13.4311 351.841 13.6035 348.267 13.7132 344.897C14.0546 336.384 13.7402 327.858 12.7727 319.394C12.3495 315.852 10.5626 316.259 10.4685 320.491C10.3588 325.68 10.8134 341.919 10.2647 347.138" fill="#E7A617"/>
<path d="M260.809 221.373C264.031 220.12 266.68 217.727 268.254 214.649C269.8 211.59 270.964 208.352 271.719 205.009L273.694 197.673C274.47 194.392 276.161 191.397 278.569 189.037C279.614 187.892 281.019 187.14 282.55 186.905C283.304 186.821 284.062 187.013 284.684 187.446C285.307 187.878 285.751 188.521 285.936 189.256C285.027 188.786 284.823 188.535 284.369 188.613C283.799 188.758 283.265 189.02 282.801 189.381C278.773 192.313 276.531 197.219 275.543 202.062C275.011 204.554 274.462 207.094 273.835 209.555C273.158 212.123 271.969 214.527 270.339 216.624C269.227 218.034 268.017 219.365 266.718 220.605C265.809 221.54 264.65 222.193 263.379 222.486C262.492 222.25 261.65 221.869 260.887 221.358" fill="#FCC2C2"/>
</svg>
