<svg width="337" height="481" viewBox="0 0 337 481" fill="none" xmlns="http://www.w3.org/2000/svg">
<path d="M319.367 0H17.9629C8.57405 0 0.962891 7.61115 0.962891 17V462.109C0.962891 471.498 8.57407 479.109 17.9629 479.109H319.368C328.756 479.109 336.368 471.498 336.368 462.109V17C336.368 7.61116 328.756 0 319.367 0Z" fill="#0A51A1"/>
<path d="M187.217 461.275C187.217 463.469 189.944 464.253 197.97 467.137C209.566 471.333 221.454 474.675 233.537 477.137C235.07 477.548 236.653 477.743 238.24 477.717C239.49 477.467 240.665 476.931 241.673 476.15C251.366 470.193 260.732 463.72 269.732 456.76C270.923 455.804 272.193 454.127 271.221 452.951C270.751 452.503 270.143 452.227 269.497 452.168C256.094 449.503 245.012 447.92 230.7 443.923C228.281 443.222 225.786 442.816 223.27 442.716C221.543 442.744 219.849 443.191 218.332 444.017C206.513 450.537 187.311 459.456 187.311 461.259" fill="black"/>
<path d="M247.16 479.081C254.496 473.313 264.999 464.88 271.222 458.955C272.66 457.699 274.173 456.532 275.752 455.459C277.805 453.892 285.032 456.666 291.772 458.594C300.346 461.024 305.739 461.886 313.937 464.864C315.802 465.554 318.091 466.04 318.828 467.889C319.392 469.331 313.369 473.438 305.5 479.081H247.16Z" fill="#F2F2F2"/>
<path d="M156.508 479.081C163.248 475.068 171.885 470.868 177.215 467.874C178.687 466.901 180.368 466.289 182.121 466.087C183.244 466.087 184.36 466.262 185.429 466.604C199.223 470.429 212.317 474.504 225.5 479.081H156.508Z" fill="#F2F2F2"/>
<path d="M174.236 463.877C175.208 463.328 178.657 461.729 176.321 460.742C167.261 456.572 155.943 453.155 143.607 448.061C141.002 446.941 138.223 446.278 135.393 446.102C133.623 446.206 131.883 446.614 130.251 447.308C119.206 451.36 108.682 456.711 98.9008 463.25C98.0073 463.845 97.0041 464.707 97.1608 465.773C97.3803 466.451 97.8594 467.015 98.4932 467.341C101.828 469.458 105.472 471.045 109.294 472.043C117.511 474.587 125.959 476.314 134.515 477.2C140.503 477.952 144.641 477.106 151.758 474.535C159.483 471.465 166.993 467.877 174.236 463.798" fill="black"/>
<path d="M79.0918 464.775C80.0637 464.226 83.5122 462.628 81.1766 461.64C72.1163 457.471 60.7987 454.054 48.4622 448.959C45.8571 447.839 43.0785 447.177 40.2484 447C38.478 447.104 36.7388 447.513 35.1069 448.207C24.0612 452.258 13.5369 457.609 3.75626 464.148C2.86277 464.744 1.85955 465.606 2.0163 466.672C2.23206 467.347 2.7051 467.91 3.33302 468.239C6.66797 470.356 10.3115 471.942 14.1333 472.941C22.3506 475.485 30.7987 477.212 39.3549 478.098C45.3428 478.851 49.4811 478.004 56.5977 475.434C64.3228 472.363 71.8325 468.776 79.0761 464.697" fill="black"/>
<path d="M171.808 455.537C174.582 456.764 177.558 457.465 180.587 457.606C184.976 457.606 188.957 455.146 192.704 452.826C198.268 449.377 204.993 446.18 210.558 442.747C211.263 442.308 213.552 441.524 211.561 440.772C200.134 437.073 188.628 433.656 176.95 430.913C175.59 430.536 174.191 430.321 172.78 430.27C170.239 430.46 167.763 431.169 165.507 432.355C158.547 435.49 150.365 438.452 143.405 441.524C139.847 443.092 143.515 444.659 145.333 445.553C147.821 446.699 150.369 447.709 152.967 448.578L171.777 455.553" fill="#F2F2F2"/>
<path d="M306.757 454.735C304.59 453.604 302.206 452.947 299.766 452.807C298.59 452.666 297.367 452.572 296.129 452.509C295.291 452.769 294.577 453.326 294.123 454.076C293.543 455.001 293.198 456.067 292.555 456.961C292.414 457.18 292.085 457.4 291.912 457.196C291.885 457.109 291.885 457.016 291.912 456.929C291.885 456.405 291.916 455.879 292.006 455.362C292.152 454.653 292.351 453.956 292.602 453.277C292.77 452.905 293.035 452.585 293.37 452.352C292.006 452.352 290.611 452.352 289.185 452.352C288.637 452.535 288.131 452.825 287.695 453.204C287.259 453.583 286.902 454.045 286.646 454.562C286.08 455.818 285.588 457.106 285.172 458.418C285.062 458.685 284.811 458.998 284.561 458.873C284.484 458.824 284.424 458.753 284.388 458.669C284.256 458.325 284.197 457.956 284.216 457.588C284.171 456.953 284.208 456.316 284.326 455.691C284.55 454.463 285.199 453.353 286.16 452.556L282.711 452.775C281.931 453.196 281.213 453.724 280.579 454.343C279.764 455.198 279.134 456.212 278.729 457.321C278.494 458.089 277.883 457.917 277.711 457.008C277.685 455.594 278.195 454.222 279.137 453.167L279.294 452.964C273.635 453.481 268.039 454.186 263.07 454.688C263.195 450.346 263.728 444.468 264.293 438.308C257.129 438.621 247.88 439.875 246.078 437.148C244.15 438.182 241.375 439.421 239.416 440.455C237.394 441.756 239.651 442.54 240.638 442.728C244.457 443.207 248.331 443.011 252.081 442.148C252.482 446.142 252.618 450.158 252.489 454.171C252.489 455.315 248.492 455.221 242.849 455.957C243.57 456.852 244.002 457.946 244.087 459.092C244.284 459.964 244.284 460.869 244.087 461.741C243.147 461.992 242.739 460.096 242.676 459.86C242.35 458.934 241.781 458.111 241.03 457.478C240.78 457.18 240.106 456.835 239.745 456.506C237.744 456.86 235.766 457.331 233.82 457.917C234.154 457.98 234.474 458.108 234.76 458.293C237.206 459.86 238.193 463.763 237.284 463.763C237.033 463.758 236.786 463.702 236.558 463.6C236.329 463.498 236.123 463.351 235.952 463.168C235.627 462.79 235.333 462.386 235.074 461.961C234.37 460.928 233.385 460.118 232.236 459.625C231.488 459.382 230.703 459.27 229.917 459.296C229.337 459.531 228.772 459.782 228.192 460.049C221.922 462.964 219.696 469.751 227.299 471.397C237.064 473.497 251.595 467.776 256.925 463.936C263.63 471.535 272.263 477.183 281.912 480.284C284.592 481.052 287.711 481.507 290 479.892C291.048 479.026 291.811 477.865 292.191 476.56C292.571 475.255 292.55 473.866 292.132 472.572C291.237 469.989 289.602 467.727 287.429 466.068C291.834 466.177 294.75 466.303 298.81 466.381C301.176 466.438 303.534 466.093 305.785 465.362C306.946 465.102 307.995 464.483 308.784 463.592C309.572 462.702 310.06 461.586 310.178 460.402C310.296 459.218 310.038 458.028 309.441 456.999C308.844 455.971 307.937 455.156 306.851 454.672L306.757 454.735ZM267.663 462.839C267.334 463.168 265.515 464.03 266.095 462.666C266.469 461.995 266.988 461.416 267.615 460.971C268.241 460.526 268.959 460.227 269.716 460.096C270.303 459.97 270.903 459.912 271.503 459.923C272.605 459.887 273.707 459.998 274.779 460.252C275.014 460.252 275.312 460.566 275.155 460.754C275.082 460.819 274.987 460.852 274.889 460.848C273.776 460.958 272.663 460.989 271.55 461.13C270.898 461.194 270.256 461.336 269.638 461.553C268.906 461.839 268.244 462.277 267.694 462.839H267.663ZM283.918 464.72C281.718 464.077 279.387 464.028 277.162 464.578C275.877 464.974 274.698 465.654 273.713 466.569C273.086 467.165 272.506 468.372 271.487 468.372C270.955 468.372 271.895 466.256 272.35 465.707C273.37 464.332 274.778 463.295 276.394 462.729C278.461 462.142 280.662 462.247 282.664 463.027C283.228 463.23 285.015 464.484 283.871 464.72" fill="#FE8013"/>
<path d="M172.921 159.018C179.17 154.737 186.044 151.448 193.299 149.269C193.299 138.673 191.104 128.751 191.872 127.951C198.659 120.96 203.002 118.186 204.412 105.537C204.428 105.156 204.364 104.777 204.223 104.423C204.083 104.069 203.87 103.749 203.597 103.483C202.375 102.167 200.18 102.872 198.691 103.859C196.521 105.305 194.678 107.19 193.283 109.393C191.715 106.853 189.646 104.283 186.778 103.342C183.909 102.402 180.069 103.922 179.724 106.932C179.622 107.628 179.622 108.336 179.724 109.032C178.696 108.712 177.595 108.716 176.57 109.042C175.544 109.369 174.644 110.003 173.99 110.858C173.337 111.713 172.962 112.748 172.917 113.824C172.871 114.899 173.157 115.962 173.736 116.869C173.135 116.855 172.539 116.98 171.994 117.235C171.45 117.49 170.972 117.868 170.598 118.339C170.224 118.81 169.965 119.361 169.84 119.949C169.716 120.537 169.729 121.146 169.88 121.728C170.554 125.365 172.435 127.998 176.416 127.371C174.678 137.848 173.522 148.413 172.952 159.018" fill="white"/>
<path d="M144.8 81.6803C139.565 88.2322 135.238 92.8876 130.457 99.4709C128.89 101.54 126.648 105.647 126.507 108.202C126.272 112.7 128.529 115.694 131.21 119.252C135.285 124.503 140.897 129.409 147.512 130.068C148.756 130.222 150.018 130.117 151.219 129.758C152.42 129.399 153.533 128.795 154.488 127.983C156.786 129.653 159.399 130.842 162.168 131.478C164.567 131.886 172.044 134.112 181.23 127.215C180.335 126.708 179.543 126.038 178.894 125.24C177.922 126.588 177.091 127.434 175.759 127.387C171.495 127.513 170.461 124.158 169.724 120.788C167.232 120.961 164.19 121.886 162.529 120.005C168.548 113.578 175.916 103.311 181.919 96.8846C183.095 97.1981 183.565 101.43 183.236 103.233C187.939 102.324 190.807 105.976 192.563 108.437C194.318 110.898 196.247 115.224 195.557 106.117C195.362 102.933 194.696 99.7953 193.582 96.8062C190.447 97.684 187.751 95.2388 186.873 92.1038C184.302 93.8437 177.703 93.6713 176.856 89.1727C176.746 88.5457 169.238 88.4203 166.51 88.3263C156.4 87.9814 150.412 85.3011 147.293 83.0283C146.352 82.3386 145.255 80.9592 144.785 81.6489" fill="#FE8013"/>
<path d="M209.413 256.405L211.921 267.659C212.447 268.923 212.544 270.324 212.199 271.649C211.854 272.973 211.084 274.148 210.009 274.995L195.242 290.45C193.8 292.017 192.201 293.585 190.665 295.152C182.725 302.568 175.386 310.603 168.72 319.181C159.801 330.686 149.361 340.828 140.504 352.333C131.648 363.838 122.822 374.795 113.95 386.488C110.956 389.482 125.55 400.862 127.462 402.163C132.541 405.486 136.382 399.968 140.159 396.567L154.063 384.027C173.532 366.519 214.601 328.633 215.072 328.241C223.333 321.282 237.315 307.551 237.456 310.874C239.243 333.931 239.509 357.694 239.431 380.829C239.431 396.927 240.089 412.68 240.481 428.762C240.56 432.211 240.654 432.947 240.826 436.396C240.826 439.17 243.961 440.879 266.879 438.136C267.791 438.025 268.636 437.599 269.268 436.933C269.9 436.266 270.28 435.4 270.343 434.483C272.287 423.245 274.497 412.696 275.343 401.3C276.221 389.388 277.428 377.501 278.964 365.641C280.234 355.813 280.642 345.875 281.3 335.985C282.178 322.755 283.212 310.56 284.858 297.409C286.128 287.331 286.927 277.738 285.454 267.628C285.093 265.135 284.889 263.317 284.654 260.809C284.656 260.378 284.525 259.956 284.278 259.602C284.065 259.392 283.808 259.232 283.526 259.132C276.378 255.997 268.446 255.496 260.687 254.978L247.786 254.101C245.952 253.975 243.867 253.944 242.55 255.213C241.234 256.483 241.124 258.348 239.792 259.305C239.039 258.129 238.851 257.204 238.099 256.029C237.925 255.62 237.619 255.281 237.229 255.068C236.839 254.855 236.389 254.779 235.951 254.853C227.251 254.853 218.52 254.539 209.805 254.649C208.864 254.649 209.397 255.981 209.46 256.311" fill="#FFCC17"/>
<path d="M253.068 149.88C254.965 160.852 257.426 173.251 262.019 183.361C264.721 179.174 266.777 174.603 268.116 169.802C268.253 169.05 268.577 168.344 269.057 167.749C269.91 167.071 270.855 166.517 271.863 166.103C281.91 162.592 304.107 153.297 304.107 157.545C304.185 159.771 298.573 162.42 299.404 162.718C301.348 163.297 305 164.975 307.759 166.135C313.935 166.605 317.807 165.257 323.873 168.329C326.287 169.536 330.018 173.784 330.943 181.668C332.84 197.75 327.965 212.782 327.965 226.748C327.965 242.783 325.958 243.99 316.49 256.655C317.87 259.649 316.961 259.68 316.239 262.925C315.779 264.897 314.749 266.691 313.277 268.082C313.418 269.649 314.421 269.038 313.763 271.86C313.104 274.681 308.527 277.816 306.756 279.807C302.774 284.289 299.608 286.076 295.877 288.71C294.31 289.823 292.382 290.998 290.579 290.277C289.302 289.607 288.314 288.492 287.804 287.142C284.042 279.634 282.569 272.925 280.986 262.22C280.453 258.583 280.798 258.63 273.383 257.235C264.162 255.536 254.833 254.489 245.465 254.1C241.876 253.991 241.97 259.351 239.697 259.351C237.863 259.351 237.659 254.9 235.856 254.9C226.796 254.9 223.457 254.743 217.124 254.743C220.354 200.728 229.994 188.016 225.918 189.788C217.14 195.963 208.879 201.167 198.722 204.631C195.587 205.729 192.06 206.685 188.768 205.854C185.61 204.905 182.938 202.778 181.306 199.913C179.71 197.067 178.518 194.013 177.764 190.838C177.388 189.004 175.945 191.512 170.459 191.512C166.76 191.512 167.167 186.684 167.12 184.254C167.011 179.552 166.195 166.088 167.496 164.034C168.953 162.187 170.675 160.565 172.607 159.222C179.191 154.602 186.534 151.17 194.301 149.081C199.004 148.579 199.192 149.927 198.173 158.062C197.734 161.511 196.872 170.163 199.317 169.379C204.929 165.805 209.114 160.805 214.71 156.275C219.989 152.045 226.059 148.912 232.565 147.059C238.96 145.256 244.854 144.065 253.084 149.927" fill="#80CECE"/>
<path d="M289.248 112.214C294.051 115.111 299.686 116.314 305.252 115.631C305.252 119.55 305.252 123.474 305.252 127.403C305.252 129.629 304.97 131.525 307.008 133.908C307.902 134.958 308.826 135.977 307.353 137.168C306.287 138.03 302.98 140.554 301.396 141.573C300.44 142.184 304.672 147.842 303.795 149.002C301.835 151.62 294.233 152.278 292.117 158.956C289.436 159.724 288.746 160.131 286.129 161.103C273.479 165.805 269.403 166.511 268.619 168.94C266.597 174.379 267.052 176.401 262.02 183.33C260.452 183.33 258.744 177.828 255.483 170.194C248.022 152.764 267.632 165.398 251.565 143.971C250.702 142.811 248.618 139.895 247.63 138.845C245.153 136.181 243.288 135.93 247.113 133.234C248.414 132.325 250.624 131.666 250.405 130.099L248.194 127.763C247.794 127.407 247.492 126.953 247.317 126.447C246.893 124.785 248.994 123.798 250.452 122.936C254.637 120.537 255.703 115.098 257.882 110.803C259.982 106.859 263.23 103.645 267.196 101.585C271.161 99.5255 275.659 98.7171 280.094 99.2669C281.144 100.991 283.072 108.343 289.217 112.214" fill="white"/>
<path d="M280.705 260.119C275.329 266.844 269.811 272.158 265.5 279.603C263.901 281.989 262.861 284.706 262.459 287.55C262.404 290.395 262.888 293.224 263.886 295.889C265.218 299.807 267.444 303.867 271.535 304.4C274.028 302.08 277.539 298.883 280.031 296.563C282.958 293.794 285.687 290.825 288.198 287.675C290.299 285.105 285.627 276.374 283.966 270.621C281.426 261.781 281.536 259.649 280.705 260.104" fill="white"/>
<path d="M275.468 120.725C277.041 120.137 278.752 120.022 280.39 120.396C281.262 120.731 282.072 121.208 282.788 121.807C287.608 125.462 292.055 129.583 296.065 134.111C299.2 137.732 281.722 142.999 279.92 143.375C278.653 143.682 277.35 143.809 276.048 143.751C273.828 143.474 271.723 142.608 269.95 141.243C266.611 138.923 259.887 132.544 260.2 127.936C260.498 123.703 271.957 121.666 275.452 120.694" fill="#FE8013"/>
<path d="M267.287 101.555C266.978 100.115 267.04 98.6203 267.468 97.2109C267.896 95.8015 268.675 94.5241 269.733 93.4987C270.796 92.6311 272.077 92.0704 273.436 91.877C274.795 91.6837 276.181 91.865 277.445 92.4015C281.395 87.3543 288.574 86.6646 293.935 89.6741C296.71 91.2416 298.92 93.6398 301.522 95.4737C304.124 97.3076 307.51 98.6086 310.488 97.4487C311.57 97.0412 312.15 97.4487 312.887 98.3265C313.579 99.2555 313.958 100.381 313.968 101.54C314.104 103.596 313.813 105.657 313.111 107.594C312.41 109.532 311.314 111.302 309.893 112.794C309.145 113.579 308.29 114.254 307.353 114.8C306.45 115.311 305.487 115.706 304.485 115.976C294.233 118.876 283.417 110.835 280.564 100.991C280.486 100.541 280.272 100.126 279.953 99.7999C279.641 99.5904 279.278 99.471 278.903 99.4551C274.9 98.876 270.818 99.6132 267.271 101.555" fill="#FE330A"/>
<path d="M151.147 74.2974C148.918 76.6482 146.825 79.1235 144.877 81.7115C148.263 84.8464 155.082 86.6646 157.95 84.5486C162.778 80.9904 167.199 76.6172 172.873 74.7049C169.393 72.3381 163.938 68.9837 159.596 68.8896C155.724 68.8896 153.671 71.5543 151.21 74.2817" fill="#FE330A"/>
<path d="M146.821 79.8931C150.364 81.7584 158.483 81.3822 160.929 79.4855C163.374 77.5889 165.631 75.1907 168.578 74.0308C174.284 71.7736 178.579 74.3286 178.266 77.4635L183.909 76.3036C187.154 75.6296 190.586 74.9713 193.706 76.0842C196.825 77.1971 199.302 80.7865 197.985 83.8431C197.586 84.4955 197.299 85.211 197.139 85.9591C197.232 86.9056 197.554 87.815 198.079 88.6081C198.677 90.1588 198.635 91.8834 197.962 93.403C197.289 94.9225 196.04 96.1127 194.49 96.7119C191.355 97.7151 186.166 96.273 186.871 92.1506C186.45 93.0693 185.743 93.8277 184.857 94.3133C183.97 94.7989 182.951 94.9859 181.949 94.8466C178.814 94.5958 176.996 92.7776 176.886 89.2194C176.432 88.1849 170.224 91.8684 156.508 88.4514C152.141 87.1129 148.137 84.7972 144.799 81.68C145.425 81.0228 146.101 80.415 146.821 79.8617" fill="#FFCC17"/>
<path d="M168.893 73.9369C165.522 72.5575 156.509 70.5825 153.217 74.893C152.424 76.2207 152.054 77.7588 152.158 79.3019C152.262 80.8451 152.833 82.32 153.797 83.5297C156.091 86.4248 159.214 88.5518 162.748 89.6271C157.951 90.5832 146.21 84.9247 144.251 84.3604C144.138 83.438 144.325 82.5037 144.784 81.6958C147.308 78.5608 149.565 75.1908 152.308 72.1186C153.147 71.1047 154.161 70.2499 155.302 69.595C157.044 68.8047 158.985 68.5641 160.867 68.9053C162.595 69.2073 164.276 69.7343 165.867 70.4728C167.889 71.3035 169.222 72.3224 171.275 73.3569C170.453 73.4993 169.645 73.7144 168.861 73.9995" fill="#FF8000"/>
<path d="M191.746 112.81C192.216 114.252 192.138 116.243 190.742 116.807C188.846 117.575 184.566 113.672 182.576 114.174C181.431 114.456 182.435 115.961 183.03 116.995C183.297 117.465 186.839 121.776 185.146 123.563C184.981 123.721 184.775 123.829 184.551 123.876C183.903 124.036 183.224 124.017 182.586 123.821C181.948 123.625 181.376 123.259 180.93 122.763C180.451 122.071 179.927 121.412 179.362 120.788C178.751 120.24 177.622 120.099 177.199 120.788C176.964 121.18 177.042 121.682 176.885 122.121C176.588 122.936 175.475 123.563 175.819 124.346C176.164 125.13 177.528 124.676 178.375 125.052C178.667 125.206 178.923 125.419 179.127 125.679C180.078 126.893 181.247 127.919 182.576 128.704C183.235 129.081 183.987 129.265 184.745 129.238C185.504 129.21 186.24 128.971 186.871 128.547C187.446 127.919 187.877 127.172 188.134 126.36C188.391 125.548 188.468 124.69 188.36 123.845C188.46 122.744 188.189 121.64 187.592 120.71C189.363 121.948 191.949 122.513 193.627 121.133C194.158 120.614 194.572 119.987 194.842 119.296C195.113 118.604 195.233 117.862 195.194 117.12C195.298 114.885 194.861 112.657 193.919 110.627C192.978 108.597 191.56 106.824 189.786 105.459C189.052 104.835 188.241 104.308 187.372 103.891C186.918 103.891 186.949 104.267 186.996 104.722C187.648 106.246 188.502 107.674 189.535 108.97C190.511 110.109 191.252 111.43 191.714 112.857" fill="#F2F2F2"/>
<path d="M275.25 133.406C279.577 134.833 284.17 134.519 288.715 134.316C289.236 134.246 289.763 134.246 290.283 134.316C290.957 134.535 290.847 134.99 290.534 135.193C287.471 136.366 284.22 136.971 280.94 136.98C278.189 137.021 275.457 136.521 272.899 135.507C270.274 134.379 267.926 132.695 266.018 130.569C265.155 129.613 264.152 128.5 264.45 128.093C264.748 127.685 266.112 128.25 266.66 128.626C269.275 130.61 272.17 132.195 275.25 133.328" fill="#FE330A"/>
<path d="M264.699 111.948C264.172 111.869 263.633 111.923 263.131 112.104C262.893 112.198 262.691 112.366 262.555 112.583C262.42 112.801 262.358 113.056 262.379 113.311C262.489 113.923 263.178 114.236 263.774 114.409C267.113 115.396 270.671 115.569 273.947 116.744C274.385 116.921 274.836 117.062 275.295 117.167C275.863 117.236 276.437 117.236 277.004 117.167C277.268 117.185 277.53 117.107 277.741 116.948C278.117 116.587 277.741 115.945 277.396 115.6C276.624 114.987 275.74 114.529 274.794 114.252C271.533 113.022 268.122 112.236 264.652 111.916" fill="black"/>
<path d="M266.094 116.682C266.271 117.135 266.58 117.524 266.981 117.798C267.383 118.073 267.857 118.219 268.344 118.219C268.83 118.219 269.305 118.073 269.706 117.798C270.107 117.524 270.417 117.135 270.593 116.682C270.78 116.385 270.893 116.049 270.922 115.7C270.951 115.351 270.895 115 270.76 114.677C270.625 114.354 270.413 114.068 270.144 113.844C269.875 113.62 269.556 113.464 269.214 113.39C268.544 113.214 267.85 113.155 267.16 113.218C266.962 113.217 266.765 113.254 266.58 113.327C265.42 113.844 265.671 115.804 266.094 116.697" fill="black"/>
<path d="M286.677 117.528C286.035 117.794 285.345 118.421 285.611 119.095C285.878 119.769 286.411 119.707 286.928 119.754C289.298 119.784 291.645 120.214 293.872 121.023C294.844 121.478 295.722 122.136 296.694 122.591C297.384 122.92 298.355 123.108 298.81 122.481C298.931 122.233 298.985 121.958 298.966 121.682C298.947 121.407 298.855 121.142 298.7 120.913C298.035 119.958 297.111 119.213 296.036 118.766C293.261 117.371 289.765 116.305 286.63 117.559" fill="black"/>
<path d="M287.853 120.6C287.619 120.96 287.489 121.378 287.477 121.807C287.453 122.411 287.605 123.01 287.914 123.53C288.222 124.05 288.675 124.47 289.217 124.738C289.666 124.924 290.157 124.988 290.639 124.922C291.122 124.856 291.577 124.662 291.96 124.362C292.127 124.227 292.279 124.074 292.415 123.907C292.804 123.436 293.039 122.856 293.089 122.246C293.112 121.943 293.073 121.638 292.976 121.35C292.88 121.062 292.726 120.796 292.524 120.569C292.169 120.215 291.733 119.951 291.255 119.801C290.674 119.565 290.033 119.517 289.423 119.663C288.814 119.81 288.265 120.143 287.853 120.616" fill="black"/>
<path d="M259.166 188.267C258.97 188.603 258.867 188.984 258.867 189.372C258.867 189.761 258.97 190.142 259.166 190.477C259.307 190.737 259.501 190.963 259.737 191.141C259.972 191.319 260.242 191.446 260.529 191.512C260.811 191.565 261.1 191.548 261.374 191.463C261.647 191.379 261.895 191.229 262.097 191.026C262.39 190.664 262.585 190.232 262.661 189.772C262.779 189.452 262.81 189.108 262.752 188.772C262.695 188.436 262.55 188.122 262.332 187.86C262.1 187.678 261.834 187.545 261.549 187.468C261.265 187.391 260.968 187.372 260.675 187.411C260.383 187.45 260.102 187.548 259.848 187.698C259.594 187.847 259.373 188.046 259.197 188.283" fill="#F2F2F2"/>
<path d="M270.593 270.026C265.156 269.16 259.652 268.793 254.149 268.928C252.582 268.928 243.521 267.972 239.023 267.721C230.903 267.11 223.488 266.154 215.917 265.198C214.4 264.943 212.856 264.891 211.324 265.041C209.757 265.355 209.271 272.878 210.823 273.302C211.716 273.568 229.978 275.026 235.903 275.418H236.279C241.719 275.825 260.106 276.734 265.31 276.985C265.682 277.07 266.071 277.032 266.418 276.876C266.766 276.721 267.054 276.456 267.238 276.123L271.188 271.044C271.314 270.912 271.391 270.74 271.408 270.559C271.408 270.182 270.938 269.994 270.561 269.932" fill="black"/>
<path d="M164.707 81.4453C165.592 80.3484 166.772 79.5273 168.109 79.0784C168.779 78.8746 169.498 78.9013 170.152 79.1541C170.805 79.407 171.355 79.8715 171.714 80.4735C171.886 80.834 172.059 81.3042 172.451 81.3042C172.577 81.2937 172.7 81.2563 172.811 81.1945C174.084 80.6157 175.428 80.2098 176.808 79.9875C178.264 79.6807 179.777 79.8005 181.166 80.3324C181.843 80.623 182.423 81.1 182.84 81.7077C183.256 82.3155 183.491 83.029 183.517 83.7651C183.921 83.4995 184.388 83.3464 184.87 83.3216C185.352 83.2968 185.832 83.4012 186.261 83.6241C186.683 83.8563 187.051 84.1743 187.343 84.5576C187.634 84.941 187.842 85.3812 187.954 85.8498C188.078 86.2002 188.093 86.5804 187.995 86.9392C187.896 87.298 187.691 87.618 187.405 87.8562C187.17 87.0695 186.713 86.3673 186.088 85.8342C185.085 85.1445 183.753 85.4266 182.546 85.3639C182.37 85.3742 182.196 85.3183 182.06 85.2072C181.985 85.0902 181.947 84.9539 181.95 84.8153C181.848 83.9827 181.559 83.1841 181.103 82.4798C180.729 82.1289 180.283 81.8643 179.795 81.7045C179.308 81.5447 178.791 81.4937 178.282 81.555C176.448 81.6032 174.652 82.0925 173.046 82.9814C172.769 83.1826 172.433 83.2872 172.09 83.2792C171.479 83.1695 171.291 82.4014 170.946 81.8842C170.622 81.4853 170.186 81.1938 169.693 81.0483C169.2 80.9028 168.675 80.91 168.187 81.0691C167.213 81.4207 166.315 81.9524 165.538 82.6366C164.777 83.3243 163.837 83.7811 162.826 83.9532C162.513 82.856 164.002 82.1663 164.644 81.4766" fill="#FF8000"/>
<path d="M214.413 275.669C210.196 280.371 205.431 285.074 201.104 289.964C196.778 294.854 193.408 299.181 189.097 304.071C180.46 314.04 171.995 324.166 163.374 334.213C155.223 343.696 144.783 353.023 136.851 362.145C129.766 370.233 123.653 377.93 116.724 386.159C116.332 386.613 114.859 388.479 116.034 387.726C122.963 380.829 130.299 371.346 137.274 363.619C143.012 357.349 148.012 352.537 153.498 346.675C158.201 341.627 162.715 336.298 167.167 331C172.842 324.26 179.206 317.112 185.131 310.451C186.918 308.429 189.536 305.247 191.401 303.225C199.035 294.619 205.384 286.798 213.018 278.145C214.182 277.162 215.023 275.851 215.431 274.383C215.431 273.819 214.726 275.214 214.475 275.528" fill="#FF8000"/>
<path d="M117.68 390.971C117.367 390.735 119.091 389.152 119.828 388.353C123.982 383.917 127.18 379.575 131.255 375.202C135.676 370.5 139.924 366.189 144.548 362.02C146.673 360.125 148.605 358.025 150.316 355.75C157.48 346.706 166.117 338.508 173.61 329.777C180.867 321.25 188.094 312.974 195.101 304.243C198.925 299.462 203.769 294.164 208.001 289.321C211.497 285.308 216.435 282.001 217.877 276.922C218.143 275.951 218.614 273.96 218.77 275.449C218.676 280.151 215.431 282.816 212.187 286.123C204.54 294.102 197.369 302.523 190.712 311.344C188.909 313.664 187.232 315.529 185.413 317.833C183.846 319.745 179.535 324.62 179.143 325.153L178.563 325.952C176.165 329.045 173.59 331.997 170.851 334.793C166.854 339.229 163.154 343.633 158.875 347.819C156.633 350.013 154.674 351.847 152.605 354.323C151.852 355.217 150.834 356.502 150.05 357.364C148.71 359.028 147.259 360.599 145.708 362.067C141.695 365.452 132.29 375.563 130.283 377.616C127.462 380.5 125.502 382.977 122.257 386.425C120.69 387.992 118.072 391.268 117.727 390.908" fill="#FF8000"/>
<path d="M120.407 393.604C127.085 387.946 132.728 380.391 139.014 374.795C149.689 365.39 158.702 354.716 168.045 343.963C175.522 335.357 183.312 327.097 190.633 318.351C197.326 310.357 204.505 302.582 211.309 294.682C216.45 288.822 220.876 282.371 224.492 275.465C225.322 274.399 224.021 278.239 221.498 282.252C214.224 293.867 204.647 303.554 195.743 313.962C192.89 317.3 189.802 320.906 186.871 324.182C185.507 325.749 183.986 327.316 182.67 328.884C180.177 331.846 177.779 334.464 175.067 337.379C170.788 341.988 166.446 346.972 162.339 351.722C159.909 354.527 158.122 356.534 155.802 358.995C153.482 361.456 151.601 363.697 149.391 365.97C145.848 369.747 142.588 372.569 139.014 376.143C138.34 376.817 137.243 377.82 136.584 378.525C123.041 392.82 119.921 395.172 120.423 393.494" fill="#FF8000"/>
<path d="M124.452 397.1C124.06 396.708 152.181 370.562 169.158 352.129C178.72 341.753 189.536 332.975 198.941 322.457C207.061 313.444 213.441 302.645 220.886 293.099C225.103 287.707 228.896 276.233 229.9 276.233C231.138 276.233 224.633 290.497 218.927 297.66C216.795 300.356 214.914 303.256 212.908 306.046C204.662 317.551 196.245 329.244 184.927 337.74C184.081 338.367 183.657 338.806 182.874 339.511C178.16 343.769 173.676 348.274 169.44 353.007C164.878 357.976 156.006 366.989 154.439 368.682C150.833 372.443 140.331 382.789 136.804 385.924C132.713 389.654 124.812 397.664 124.264 397.115" fill="#FF8000"/>
<path d="M129.954 399.874C140.311 391.259 149.956 381.824 158.797 371.659C159.8 370.547 161.602 368.775 162.668 367.725C175.428 354.95 188.705 342.646 202.546 331.094C212.688 322.614 223.05 311.297 229.461 299.415C235.198 288.772 236.828 278.161 237.957 278.161C239.085 278.161 237.502 282.863 236.922 284.43C234.663 291.215 231.81 297.788 228.395 304.071C221.404 316.61 210.321 326.125 199.474 335.42C193.502 340.545 187.906 345.64 181.824 350.624C175.13 356.126 169.534 363.164 163.28 369.105C160.333 371.926 155.724 377.271 155.442 377.616C151.178 381.926 147.212 386.08 142.729 390.155C141.867 390.924 132.728 399.012 131.757 399.56C129.343 401.128 129.437 400.203 129.985 399.858" fill="#FF8000"/>
<path d="M245.029 297.143C245.029 297.817 245.452 299.886 245.812 298.82C246.33 296.563 246.549 278.631 245.326 278.631C244.37 278.631 244.809 285.497 244.84 287.174C244.84 290.466 244.84 293.883 245.013 297.159" fill="#FF8000"/>
<path d="M244.323 340.561C244.323 359.716 246.016 379.748 246 398.981C246 410.266 245.671 423.715 245.263 434.672C245.263 436.615 245.781 437.211 245.781 436.239C245.922 419.169 247.129 403.322 246.502 386.347C246.126 376.519 246.157 370.986 245.436 362.835C244.48 352.02 246.188 340.718 245.718 329.918C245.357 321.783 246.298 314.808 246.22 306.219C246.22 305.795 245.906 305.215 245.483 305.215C243.915 305.215 244.307 328.978 244.307 340.53" fill="#FF8000"/>
<path d="M253.507 279.995C253.695 301.485 253.397 321.752 252.942 343.226C252.707 353.963 252.253 365.17 252.159 375.908C252.08 386.033 252.786 395.015 253.036 405.125C253.155 413.643 252.631 422.157 251.469 430.596C251.124 433.167 250.387 437.038 251.046 437.038C251.704 437.038 251.579 435.925 251.735 434.703C253.666 419.001 254.138 403.154 253.146 387.366C252.566 377.209 253.35 368.321 253.366 358.148C253.366 349.778 253.867 341.423 253.946 333.069C254.087 316.344 254.243 298.977 254.463 282.252C254.463 280.449 253.71 278.412 253.491 280.011" fill="#FF8000"/>
<path d="M258.838 296.093C257.663 297.268 262.161 304.824 269.545 306.814C269.903 306.883 270.234 307.052 270.501 307.3C270.711 307.568 270.847 307.887 270.893 308.225C271.32 310.181 271.52 312.18 271.488 314.181C271.316 326.063 271.488 337.693 270.313 349.559C269.545 357.804 268.087 365.97 266.645 374.121C264.309 387.288 265.971 399.608 266.754 412.962C267.193 420.596 262.35 436.239 263.76 436.239C264.419 436.239 264.513 434.374 264.858 432.901C265.735 429.139 266.754 424.718 267.272 421.301C268.091 415.462 268.091 409.538 267.272 403.699C266.707 398.652 266.645 392.993 266.3 387.93C266.291 384.089 266.621 380.255 267.287 376.472C268.98 365.719 270.61 359.042 271.52 348.775C272.601 336.471 272.397 324.762 272.554 312.41C272.502 310.741 272.228 309.085 271.739 307.488C271.081 306.031 270.172 305.733 268.604 305.137C261.676 302.331 259.199 295.732 258.823 296.093" fill="#FF8000"/>
<path d="M261.894 315.419C260.875 314.4 261.173 316.375 261.157 316.987C260.875 330.362 260.588 343.738 260.295 357.114C260.029 369.653 258.148 383.76 259.025 395.783C260.373 414.216 258.21 435.722 258.853 435.722C260.42 435.722 260.577 404.2 260.091 388.322C259.762 377.679 261.267 366.989 261.345 356.33C261.471 339.778 262.474 326.423 261.878 315.404" fill="#FF8000"/>
<path d="M276.911 336.815C275.077 356.706 268.979 376.174 272.208 395.893C273.415 395.893 271.566 390.485 272.679 375.735C273.259 368.07 274.45 361.518 275.579 353.916C276.253 349.339 277.428 343.806 277.71 339.182C278.196 331.11 279.842 322.065 279.827 313.35C279.827 312.034 279.184 311.156 278.745 313.006C278.024 321.674 277.82 327.677 276.974 336.8" fill="#FF8000"/>
<path d="M212.188 256.875C211.043 256.013 212.423 258.865 212.783 259.571C214.429 262.706 214.351 264.634 215.135 264.634C215.918 264.634 213.881 259.116 212.188 256.875Z" fill="#FF8000"/>
<path d="M218.49 258.192C218.605 258.733 218.668 259.284 218.678 259.838C218.68 261.04 218.473 262.233 218.067 263.364C217.706 264.462 218.161 264.634 218.662 264.007C219.248 262.48 219.495 260.843 219.383 259.211C219.41 258.795 219.378 258.379 219.289 257.972C219.164 257.533 218.552 256.53 218.035 256.734C217.518 256.938 218.396 257.8 218.49 258.192" fill="#FF8000"/>
<path d="M223.018 257.47C223.598 257.22 224.006 259.806 224.1 261.154C224.162 261.807 224.287 262.453 224.476 263.082C224.852 264.163 225.479 265.339 224.774 265.339C224.068 265.339 223.551 262.878 223.316 261.734C223.081 260.59 222.454 257.705 223.018 257.439" fill="#FF8000"/>
<path d="M230.025 256.938C230.302 257.415 230.458 257.953 230.48 258.505C230.927 260.031 231.133 261.618 231.091 263.207C231.091 264.383 231.091 266.671 230.245 266.671C229.759 266.671 229.853 264.806 229.853 264.743C229.973 263.791 229.973 262.827 229.853 261.875C229.367 258.975 229.242 257.047 229.947 257.047" fill="#FF8000"/>
<path d="M235.842 260.37C235.607 259.884 234.165 257.439 234.87 257.235C235.576 257.032 236.438 259.336 236.438 259.54C237.175 261.421 238.005 262.769 238.523 264.681C238.695 265.245 239.259 267.157 238.679 267.157C238.099 267.157 237.457 265.167 237.253 264.414C236.899 263.047 236.422 261.714 235.826 260.433" fill="#FF8000"/>
<path d="M248.555 256.937C248.683 256.731 248.857 256.556 249.063 256.429C249.27 256.301 249.504 256.223 249.746 256.201C250.263 256.201 249.307 257.768 249.009 258.364C248.311 259.867 247.785 261.445 247.442 263.066C246.987 264.822 247.144 267.502 246.501 267.502C244.557 267.377 247.928 258.097 248.57 256.969" fill="#FF8000"/>
<path d="M257.536 256.687C258.179 256.687 257.128 258.678 256.909 259.195C255.341 263.004 255.733 267.471 254.965 267.471C254.197 267.471 254.652 263.317 254.965 262.236C255.42 260.371 256.611 256.687 257.583 256.687" fill="#FF8000"/>
<path d="M266.282 256.373C267.176 256.373 266.69 259.869 266.392 261.828C265.843 265.59 263.994 268.098 263.257 268.098C262.52 268.098 263.508 266.671 263.837 266.06C264.404 265.064 264.871 264.014 265.232 262.925C265.906 260.793 265.593 256.326 266.22 256.326" fill="#FF8000"/>
<path d="M273.479 259.069C274.027 258.379 274.686 258.552 274.325 259.069C272.551 261.52 271.316 264.319 270.704 267.283C270.516 267.925 270.281 268.85 269.67 268.85C268.635 268.85 271.331 261.593 273.479 258.959" fill="#FF8000"/>
<path d="M243.806 269.352C244.303 270.966 244.303 272.691 243.806 274.305C243.753 274.552 243.634 274.78 243.461 274.963C243.259 275.117 243.022 275.219 242.771 275.261C240.514 275.657 238.211 275.715 235.937 275.434C235.937 275.731 235.482 276.358 235.482 276.656C237.57 276.809 239.665 276.809 241.753 276.656C242.677 276.776 243.615 276.583 244.417 276.108C244.794 275.728 245.092 275.278 245.294 274.783C245.496 274.288 245.597 273.758 245.593 273.224C245.718 272.158 246.048 269.43 245.076 268.208C244.648 267.723 244.11 267.347 243.508 267.11C242.859 266.898 242.193 266.74 241.517 266.64C241.294 266.565 241.059 266.537 240.824 266.555C240.59 266.574 240.362 266.64 240.154 266.75C239.292 267.377 237.63 267.549 238.132 267.612C241.862 268.161 243.289 268.192 243.869 269.305" fill="#E7A617"/>
<path d="M128.387 405.972C126.998 404.804 125.549 403.711 124.045 402.696C123.703 402.47 123.423 402.163 123.23 401.802C123.058 401.426 123.512 400.642 124.327 399.717C121.02 396.837 117.879 393.771 114.922 390.532L109.843 396.003C109.559 398.017 109.786 400.07 110.502 401.975C110.721 402.46 111.583 404.435 110.752 403.871C109.62 403.288 108.671 402.404 108.009 401.316C107.625 400.581 107.315 399.809 107.084 399.012L99.09 407.774C98.2592 408.683 97.0679 410 95.955 409.342C94.3874 408.464 89.6848 394.608 84.8882 388.291C84.1037 386.997 82.8706 386.037 81.4239 385.595C79.5899 385.265 77.897 386.566 76.4705 387.773C75.5835 386.132 74.4042 384.665 72.9906 383.447C71.9005 382.601 70.5784 382.107 69.2005 382.032C67.8227 381.956 66.4545 382.302 65.2784 383.024C63.0054 384.591 64.1027 389.482 63.7108 390.281C63.319 391.081 61.2812 389.498 60.0428 388.886C56.9078 387.319 55.1835 386.535 52.4403 386.457C50.6328 386.225 48.7986 386.577 47.2047 387.46C46.4378 388.046 45.8577 388.843 45.5349 389.753C45.2121 390.663 45.1605 391.647 45.3864 392.585C45.8875 394.185 46.7635 395.641 47.9415 396.833C53.9608 403.84 61.626 409.122 68.6956 415.063C75.7651 421.003 87.647 432.305 89.6692 433.982C97.7263 440.44 105.047 438.042 106.787 434.499C108.527 430.957 108.088 423.151 109.31 419.718C110.533 416.285 112.696 412.79 116.192 411.755C121.615 410.188 124.876 410.329 130.535 410.658C133.027 410.799 129.579 407.147 128.277 405.956L128.387 405.972ZM74.8717 410.172C72.2696 407.163 70.6863 405.094 68.6015 402.335C67.2848 400.533 66.8145 399.2 66.2973 400.266C66.3551 400.868 66.2538 401.474 66.0034 402.024C65.7531 402.575 65.3625 403.049 64.8708 403.401C63.793 404.465 62.3555 405.085 60.8422 405.141C60.5914 405.141 60.2623 405.062 60.2936 404.812C60.323 404.695 60.3959 404.594 60.4974 404.53C61.6524 403.632 62.676 402.576 63.5384 401.395C64.428 399.877 64.9638 398.179 65.1059 396.426C65.0908 396.301 65.0908 396.175 65.1059 396.05C65.3254 395.705 65.874 396.05 66.3443 396.567C67.4328 397.736 68.4286 398.989 69.3226 400.313C69.9339 401.316 73.7587 406.395 75.8749 409.718C76.5175 410.799 75.5144 411.019 74.8403 410.235L74.8717 410.172ZM75.6711 401.097C74.9657 401.52 73.8057 402.664 73.0376 402.429C72.5203 402.225 73.6019 400.329 73.8684 400.015C75.8905 397.523 78.571 399.153 80.6559 400.533C79.8598 399.086 79.148 397.594 78.524 396.065C77.6932 394.247 77.3327 393.26 78.0851 392.93C78.8375 392.601 83.8222 401.583 82.145 402.225C81.4553 402.523 77.6148 399.937 75.6868 401.112L75.6711 401.097ZM85.2174 408.072C85.0449 408.276 84.1671 407.915 83.7595 407.884C83.3594 407.797 82.9442 407.811 82.5505 407.923C82.1569 408.035 81.7969 408.242 81.5023 408.527C81.0007 408.997 80.1229 410.407 79.9348 409.796C79.8319 409.419 79.8137 409.024 79.8814 408.639C79.9492 408.255 80.1012 407.89 80.3267 407.57C80.543 407.269 80.8187 407.015 81.1367 406.823C81.4548 406.632 81.8085 406.507 82.1764 406.458C82.7716 406.356 83.3832 406.416 83.9477 406.63C84.4336 406.802 85.5152 407.711 85.233 408.072" fill="#FE8013"/>
<path d="M272.631 192.97C273.356 192.715 274.147 192.715 274.872 192.97C275.154 195.931 275.154 198.912 274.872 201.873C274.324 201.873 272.568 202.077 272.521 201.528C272.474 200.979 272.521 198.879 272.521 198.393C272.416 196.58 272.453 194.761 272.631 192.954" fill="white"/>
<path d="M272.506 197.374C272.506 197.86 275.155 197.907 275.108 197.468C275.108 195.384 275.108 194.725 275.108 192.907C275.108 192.358 272.584 192.358 272.553 192.907C272.459 195.102 272.553 197.327 272.553 197.327" fill="#FF8000"/>
<path d="M278.698 201.481C277.967 199.004 277.235 196.533 276.504 194.067C277.221 193.781 277.967 193.576 278.73 193.456C279.639 196.141 280.506 198.837 281.332 201.544C280.438 201.544 279.592 201.544 278.714 201.544" fill="white"/>
<path d="M277.57 197.75C278.395 197.79 279.214 197.583 279.921 197.155C279.341 195.164 279.09 194.553 278.604 193.001C278.353 192.201 275.877 192.923 276.143 193.706C276.551 194.835 277.444 197.499 277.57 197.735" fill="#FF8000"/>
<path d="M257.191 154.222C257.661 155.084 260.655 158.532 260.797 159.504C259.731 172.467 262.458 182.342 263.634 181.809C260.185 188.925 255.796 177.326 253.899 173.282C252.377 169.787 251.363 166.092 250.89 162.31C250.146 158.778 250.04 155.142 250.576 151.573C250.968 149.598 251.752 148.705 253.069 149.849C254.653 151.093 256.042 152.567 257.191 154.222Z" fill="#8AD2D4"/>
<path d="M256.532 152.78C256.345 152.773 256.158 152.805 255.983 152.874C255.814 152.981 255.684 153.139 255.61 153.325C255.537 153.511 255.525 153.715 255.576 153.909C255.685 154.291 255.878 154.644 256.14 154.943L259.902 159.959C258.6 160.111 257.405 160.756 256.563 161.762C256.278 162.418 256.142 163.129 256.163 163.845C256.185 164.56 256.364 165.262 256.689 165.9C257.441 168.016 258.491 169.818 259.291 171.919C261.313 177.217 262.645 181.935 263.241 181.668C263.649 179.301 261.36 168.219 260.937 165.853C260.827 165.194 260.717 164.395 261.235 163.956C261.752 163.517 262.63 163.721 263.116 163.266C263.602 162.812 263.366 161.824 263.006 161.15C262.645 160.476 262.207 159.771 261.768 159.097C261.174 158.422 260.855 157.55 260.874 156.652C263.443 156.709 266.008 156.907 268.555 157.247C269.496 157.373 271.69 157.655 270.734 156.338C270.013 155.413 259.761 152.639 256.516 152.764" fill="#F2F2F2"/>
<path d="M266.768 115.161C266.683 115.32 266.639 115.498 266.639 115.678C266.639 115.858 266.683 116.036 266.768 116.195C266.808 116.272 266.861 116.341 266.925 116.399C267.077 116.506 267.257 116.566 267.442 116.571C267.628 116.617 267.821 116.617 268.007 116.571C268.12 116.517 268.222 116.441 268.305 116.346C268.389 116.252 268.452 116.142 268.493 116.023C268.573 115.786 268.6 115.535 268.571 115.286C268.58 115.234 268.58 115.181 268.571 115.129C268.535 115.055 268.481 114.99 268.414 114.941C268.3 114.821 268.158 114.73 268.001 114.677C267.844 114.624 267.677 114.61 267.513 114.636C267.349 114.662 267.194 114.728 267.062 114.828C266.929 114.927 266.823 115.058 266.753 115.208" fill="#2B2729"/>
<path d="M290.267 121.995C290.32 121.772 290.304 121.538 290.22 121.325C290.136 121.112 289.988 120.929 289.796 120.804C289.621 120.75 289.434 120.747 289.257 120.794C289.08 120.841 288.919 120.937 288.793 121.07C288.737 121.119 288.689 121.178 288.652 121.242C288.634 121.33 288.634 121.421 288.652 121.509C288.627 121.66 288.639 121.815 288.688 121.96C288.737 122.105 288.822 122.235 288.934 122.34L289.122 122.449C289.304 122.549 289.511 122.593 289.718 122.575C289.864 122.545 289.998 122.474 290.106 122.372C290.214 122.269 290.291 122.139 290.329 121.995" fill="#2B2729"/>
<path d="M279.137 176.151C280.169 176.925 281.438 177.319 282.727 177.264C283.516 177.07 284.25 176.7 284.875 176.182C288.544 173.557 291.988 170.631 295.173 167.436C295.8 166.809 296.741 165.868 296.333 165.131C295.926 164.395 293.951 166.103 293.073 166.699C290.314 168.658 284.937 172.342 282.805 172.671C280.344 173.063 276.535 171.103 273.4 170.21C269.826 169.207 271.065 170.978 272.24 171.668C274.435 172.969 276.943 174.803 279.169 176.104" fill="#0A51A1"/>
<path d="M298.919 182.17C298.919 182.53 298.919 183.486 299.264 183.737C299.609 183.988 300.001 184.239 300.33 183.941C300.653 183.375 300.84 182.742 300.879 182.091C301.819 175.727 302.54 174.05 304.61 170.273C304.923 169.693 305.613 168.799 305.049 168.454C304.841 168.36 304.609 168.332 304.384 168.375C304.16 168.417 303.954 168.527 303.795 168.69C302.084 170.349 300.823 172.414 300.126 174.693C299.221 177.078 298.811 179.621 298.919 182.17" fill="#0A51A1"/>
<path d="M189.913 178.079C190.148 177.671 190.634 177.248 190.994 177.53C191.355 177.812 190.994 179.364 190.65 180.226C190.144 181.596 189.407 182.868 188.471 183.988C187.924 184.728 187.321 185.425 186.668 186.073C185.101 187.64 181.119 189.521 180.633 189.035C179.771 188.173 182.592 187.201 185.085 184.709C186.957 182.691 188.578 180.454 189.913 178.047" fill="#0A51A1"/>
<path d="M296.616 204.914C295.651 214.954 295.53 225.058 296.255 235.119C296.616 238.693 292.807 241.389 290.314 243.944C288.408 245.718 286.607 247.602 284.922 249.586C284.452 250.198 282.978 251.75 283.511 252.282C284.044 252.815 285.925 251.295 286.646 250.715C290.55 247.61 294.267 244.276 297.776 240.73C298.274 240.35 298.665 239.847 298.91 239.27C299.155 238.692 299.244 238.061 299.171 237.439C299.171 231.874 298.387 226.153 298.136 220.604C297.838 214.068 298.136 210.181 298.136 204.836C298.136 204.35 298.035 203.869 297.838 203.425C297.65 203.096 296.819 202.97 296.647 204.898" fill="#0A51A1"/>
<path d="M311.287 266.091C311.412 266.389 311.616 266.75 311.945 266.718C312.274 266.687 312.431 266.06 312.352 265.637C311.06 259.708 308.714 254.059 305.424 248.959C304.28 247.078 301.395 243.426 300.721 244.257C300.314 244.774 302.665 248.458 302.743 248.583C303.788 250.453 304.833 252.35 305.878 254.273C307.874 258.108 309.703 262.026 311.365 266.029" fill="#0A51A1"/>
<path d="M312.776 252.36C312.978 252.777 313.231 253.166 313.528 253.52C313.763 253.709 313.998 253.897 314.249 253.74C314.923 253.254 313.826 251.028 313.152 249.602C312.901 249.1 312.635 248.458 312.368 247.956C311.522 246.388 310.895 245.871 310.565 246.059C309.484 246.671 312.274 251.451 312.776 252.329" fill="#0A51A1"/>
<path d="M172.671 181.997C172.239 182.114 171.851 182.356 171.557 182.693C171.262 183.03 171.075 183.447 171.018 183.891C170.961 184.335 171.038 184.786 171.238 185.186C171.438 185.587 171.753 185.918 172.142 186.139C172.531 186.361 172.977 186.461 173.424 186.428C173.87 186.395 174.297 186.23 174.649 185.954C175.001 185.678 175.264 185.304 175.403 184.878C175.542 184.453 175.551 183.996 175.43 183.565C175.232 183.018 174.845 182.56 174.339 182.273C173.834 181.986 173.242 181.888 172.671 181.997" fill="#0A51A1"/>
<path d="M296.081 280.214C295.591 279.887 295 279.745 294.415 279.814C293.83 279.883 293.288 280.159 292.888 280.591C292.487 281.023 292.254 281.585 292.231 282.173C292.207 282.762 292.394 283.34 292.758 283.804C293.069 284.149 293.473 284.399 293.921 284.522C294.37 284.645 294.844 284.637 295.289 284.498C295.733 284.359 296.128 284.096 296.426 283.74C296.725 283.383 296.915 282.948 296.974 282.487C297.027 282.062 296.971 281.631 296.812 281.234C296.653 280.836 296.396 280.486 296.065 280.214" fill="#0A51A1"/>
<path d="M236.813 154.473C236.014 154.739 235.089 155.162 235.011 156.04C234.996 156.508 235.165 156.964 235.481 157.31C236.594 158.658 239.745 159.504 242.002 160.978C255.138 169.583 255.482 180.477 257.473 180.477C258.492 180.477 257.834 173.956 253.382 166.181C250.043 160.366 240.638 157.106 240.638 156.495C240.638 155.617 247.755 153.219 249.777 152.012C252.097 150.632 251.187 150.287 249.62 150.695C248.052 151.103 246.751 151.353 245.419 151.761C242.535 152.639 239.661 153.553 236.798 154.504" fill="#0A51A1"/>
<path d="M268.352 204.851C269.809 206.12 274.449 209.193 275.907 210.478C276.054 210.63 276.238 210.744 276.44 210.807C276.73 210.841 277.023 210.774 277.271 210.619L285.861 206.371L286.723 202.594C286.771 202.502 286.796 202.399 286.796 202.296C286.796 202.192 286.771 202.09 286.723 201.998C286.608 201.904 286.464 201.854 286.315 201.857C282.632 201.528 278.948 201.183 275.249 201.12C274.073 201.12 268.791 199.898 268.775 200.728C268.775 202.766 268.446 203.675 268.414 204.866" fill="#0A51A1"/>
<path d="M281.41 156.291C282.289 155.806 283.251 155.487 284.247 155.351C284.444 155.328 284.644 155.354 284.83 155.424C285.015 155.495 285.181 155.61 285.313 155.758C285.423 155.955 285.466 156.183 285.435 156.406C285.404 156.63 285.3 156.837 285.14 156.997C284.814 157.306 284.415 157.527 283.98 157.639C281.685 158.408 279.234 158.597 276.848 158.188C276.394 158.109 274.873 157.906 274.967 157.247C275.061 156.589 276.535 156.981 276.942 156.997C278.461 157.117 279.987 156.875 281.394 156.291" fill="#F2F2F2"/>
<path d="M146.196 90.6929C146.54 90.1286 147.042 89.486 147.763 89.5487C148.114 89.6052 148.429 89.7964 148.641 90.0816C148.969 90.5257 149.19 91.0402 149.285 91.5843C149.38 92.1284 149.348 92.6873 149.19 93.2165C148.837 94.28 148.307 95.2763 147.622 96.1634C144.015 101.98 139.697 107.324 134.768 112.073C134.314 112.481 133.451 112.872 133.357 111.963C133.357 111.383 136.712 107.01 137.652 105.49C139.581 102.355 141.32 99.2199 143.107 95.9909C144.111 94.204 145.13 92.4171 146.243 90.6616" fill="#FFCC17"/>
<path d="M160.239 97.9817C161.364 96.4078 163.045 95.3207 164.942 94.9408C165.317 94.8917 165.7 94.936 166.054 95.0699C166.409 95.2037 166.725 95.423 166.974 95.7083C167.224 95.9935 167.399 96.3359 167.485 96.7051C167.571 97.0744 167.564 97.459 167.465 97.825C167.266 98.8271 166.83 99.7673 166.196 100.568C162.857 104.887 158.926 108.712 154.517 111.932L145.222 119.409C144.766 119.871 144.16 120.155 143.513 120.208C141.209 120.099 143.843 117.324 144.281 116.776C145.504 115.229 146.742 113.698 147.997 112.183C150.515 109.111 153.086 106.08 155.709 103.092C157.214 101.378 158.734 99.6746 160.27 97.9817" fill="#FFCC17"/>
<path d="M240.402 270.903H239.493C239.182 270.848 238.862 270.916 238.599 271.092C238.496 271.183 238.416 271.297 238.364 271.425C238.312 271.553 238.291 271.691 238.301 271.828C238.306 272.035 238.39 272.231 238.537 272.377C238.645 272.461 238.776 272.51 238.913 272.518C239.559 272.585 240.21 272.585 240.856 272.518C241.045 272.518 241.452 272.518 241.578 272.189C242.063 271.013 240.7 270.919 240.402 270.903Z" fill="#E7A617"/>
<path d="M202.861 91.2572C203.54 92.1239 204.412 92.8194 205.409 93.2876C206.405 93.7559 207.498 93.9838 208.598 93.9532C209.128 93.9567 209.652 93.8498 210.138 93.6393C210.624 93.4287 211.06 93.1193 211.42 92.7306C211.77 92.3299 211.983 91.8269 212.025 91.2961C212.068 90.7653 211.938 90.235 211.655 89.7838C211.293 89.377 210.836 89.0676 210.323 88.8841C209.811 88.7006 209.261 88.6488 208.723 88.7336C207.783 88.7336 206.858 89.0941 205.918 89.0941C202.783 89.0941 202.281 87.1191 201.717 87.0094C200.776 86.8526 201.717 89.8308 202.783 91.2258" fill="#E7A617"/>
</svg>
