<svg width="336" height="480" viewBox="0 0 336 480" fill="none" xmlns="http://www.w3.org/2000/svg">
<path d="M318.865 0H17.4609C8.0721 0 0.460938 7.61115 0.460938 17V462.109C0.460938 471.498 8.07211 479.109 17.461 479.109H318.865C328.254 479.109 335.865 471.498 335.865 462.109V17C335.865 7.61116 328.254 0 318.865 0Z" fill="#359CA8"/>
<path fill-rule="evenodd" clip-rule="evenodd" d="M301.076 479C298.657 448.116 295.955 416.997 294.015 400.348L294.292 400.224C298.158 398.546 302.532 395.928 303.718 391.877C304.047 390.329 304.047 388.728 303.718 387.18C303.195 383.407 302.178 379.387 299.421 376.846C297.564 375.393 295.423 374.344 293.137 373.766C268.695 365.881 242.312 367.606 216.853 371.487C210.138 372.503 203.177 373.75 197.663 377.724C195.731 379.079 194.095 380.812 192.853 382.819C191.612 384.826 190.79 387.064 190.44 389.398C190.07 392.663 190.24 399.008 193.274 400.917C193.891 401.274 194.535 401.583 195.199 401.842C192.984 418.785 189.852 448.996 187.014 479H200.589C204.053 452.836 207.394 428.001 211.217 405.815C220.674 407.199 230.214 407.945 239.771 408.048V408.063C239.476 429.787 239.31 454.299 239.469 479H253.548C254.243 454.507 254.998 430.329 256.174 407.956C264.149 407.81 272.092 406.897 279.892 405.23C283.331 427.764 286.3 452.602 289.304 479H301.076Z" fill="#2B2729"/>
<path d="M330.486 197.685C331.561 186.22 331.47 164.153 331.47 152.32C331.47 136.824 321.164 143.748 321.118 125.975C321.118 122.789 321.256 109.232 321.256 107.97C321.256 105.37 310.736 105.385 310.736 107.77C310.399 113.233 310.921 121.066 310.736 126.529C310.153 142.717 300.324 137.116 300.324 153.474C300.324 155.397 300.324 158.367 300.185 161.922C296.53 157.736 292.108 155.043 291.678 142.948C291.432 135.885 291.923 119.035 291.478 111.971C291.478 108.894 277.932 110.156 277.993 113.51C277.993 115.141 278.224 138.132 278.209 142.21C278.209 165.215 264.816 156.259 264.816 176.295C264.816 186.559 264.817 202.794 265.155 216.843C175.45 243.004 86.5431 268.348 1 291.646V354C67.0386 337.596 302.812 269.61 336 259.761V196.038L330.456 197.669" fill="#4D4D4D"/>
<path d="M1 372V353.77C108.996 324.292 222.398 291.639 336 258V277.57C302.812 287.432 67.1154 355.512 1 371.938" fill="#2B2729"/>
<path d="M205.487 220.974C195.784 224.47 189.469 233.973 185.973 243.675C182.477 253.378 181.091 263.696 177.456 273.399C175.916 277.434 173.621 281.684 169.555 283.132C163.255 285.365 156.063 279.051 149.533 280.606C144.989 281.684 143.372 287.29 142.972 291.941C142.617 295.499 142.972 298.764 140.076 300.858C138.074 302.306 135.302 301.659 132.93 300.935C133.452 303.121 134.669 305.079 136.398 306.515C138.127 307.951 140.275 308.789 142.52 308.901C144.764 309.014 146.985 308.396 148.849 307.141C150.714 305.885 152.121 304.059 152.86 301.936C153.676 299.595 154.061 296.484 156.448 295.776C157.988 295.314 159.636 296.284 161.068 297.039C170.309 301.844 184.694 297.901 191.178 289.708C194.382 285.658 200.111 279.744 205.379 261.802C207.304 255.241 208.459 248.819 211.539 242.705C213.711 238.346 216.945 233.695 221.797 233.218C219.502 226.334 212.279 218.51 205.456 220.897" fill="#F9838D"/>
<path d="M214.975 159.079C213.558 165.239 216.238 170.059 216.223 176.327C216.207 182.596 215.406 185.953 211.109 190.512C210.078 191.605 208.414 194.47 209.292 195.686C213.075 197.857 215.864 201.414 217.07 205.604C232.056 208.115 247.981 210.348 262.073 204.619C263.944 204.061 265.572 202.889 266.694 201.292C268.896 197.38 265.154 191.928 267.572 188.186C268.511 186.754 272.038 185.83 272.87 184.336C273.702 182.842 267.603 181.887 269.127 180.994C272.346 178.776 280.494 175.496 277.09 173.663C272.1 171.014 268.434 167.949 266.879 162.374C265.323 156.799 262.643 144.787 250.938 140.274C232.102 133.02 218.194 145.449 215.037 159.079" fill="#FF8000"/>
<path d="M231.915 190.496C231.179 191.332 230.651 192.329 230.374 193.407C230.301 194.974 230.793 196.515 231.761 197.75C232.842 199.448 234.046 201.065 235.364 202.586C235.642 202.996 236.002 203.345 236.421 203.61C236.839 203.874 237.308 204.05 237.798 204.126C238.334 204.052 238.845 203.857 239.294 203.556C239.742 203.254 240.116 202.854 240.385 202.386C241.954 200.335 243.249 198.088 244.236 195.702C244.515 195.136 244.663 194.515 244.667 193.884C244.56 193.136 244.257 192.429 243.789 191.836C242.634 190.128 241.363 188.502 239.985 186.969C238.953 185.814 237.043 184.151 235.503 185.306C233.963 186.461 232.9 189.079 231.868 190.496" fill="#E7A617"/>
<path d="M239.185 194.931C239.632 194.438 240.109 193.514 240.895 194.084C241.68 194.654 240.125 198.15 238.507 199.366C238.215 199.649 237.843 199.836 237.441 199.902C237.039 199.968 236.627 199.91 236.259 199.736C236.044 199.564 235.862 199.355 235.72 199.12L233.825 196.394C233.396 195.887 233.142 195.255 233.102 194.592C233.102 193.237 236.367 197.95 239.262 194.931" fill="#FF8000"/>
<path d="M248.074 191.02C247.743 191.377 247.54 191.835 247.498 192.32C247.456 192.805 247.578 193.291 247.843 193.7C248.104 193.925 248.418 194.079 248.755 194.146C249.093 194.214 249.442 194.193 249.769 194.085C250.431 193.915 251.047 193.576 251.725 193.407C253.789 192.883 255.282 193.9 257.362 193.407C257.857 193.183 258.271 192.811 258.547 192.342C258.823 191.874 258.947 191.331 258.902 190.789C258.914 190.29 258.782 189.799 258.523 189.373C258.263 188.947 257.887 188.605 257.439 188.386C257.027 188.245 256.595 188.173 256.16 188.171C253.388 188.017 249.815 188.54 248.059 190.958" fill="#E7A617"/>
<path d="M216.976 193.16C218.686 195.07 220.857 193.16 222.336 193.53C222.876 193.761 223.392 194.044 223.876 194.377C224.703 194.764 225.638 194.856 226.525 194.639C226.83 194.584 227.107 194.426 227.311 194.192C227.427 194.017 227.502 193.816 227.526 193.607C227.628 192.888 227.524 192.156 227.227 191.493C226.93 190.831 226.452 190.267 225.847 189.864C222.336 187.57 215.297 188.694 216.991 193.191" fill="#E7A617"/>
<path d="M226.158 170.783C225.57 170.909 225.023 171.179 224.566 171.568C224.109 171.958 223.756 172.456 223.539 173.016C223.12 174.145 222.896 175.338 222.877 176.543V177.498C222.709 178.865 222.735 180.25 222.954 181.61C223.071 182.288 223.329 182.935 223.711 183.508C224.093 184.081 224.591 184.567 225.172 184.936C225.77 185.271 226.463 185.397 227.141 185.294C227.819 185.191 228.443 184.864 228.915 184.366C229.238 183.902 229.468 183.379 229.592 182.826C230.248 180.561 230.544 178.207 230.47 175.85C230.47 173.663 228.93 170.367 226.25 170.752" fill="black"/>
<path d="M249.506 171.245C248.172 172.908 247.453 174.981 247.473 177.113C247.473 178.653 247.797 183.119 249.46 184.813C249.745 185.156 250.103 185.431 250.508 185.618C250.913 185.804 251.355 185.898 251.801 185.891C253.233 185.737 253.988 184.136 254.342 182.734C254.863 180.646 255.086 178.494 255.004 176.343C255.076 174.688 254.581 173.058 253.603 171.722C253.374 171.414 253.086 171.154 252.755 170.96C252.424 170.765 252.057 170.638 251.676 170.588C251.296 170.538 250.908 170.565 250.538 170.667C250.168 170.769 249.822 170.945 249.522 171.183" fill="black"/>
<path d="M272.839 367.42C271.962 369.231 271.613 371.252 271.834 373.252C272.055 375.252 272.836 377.149 274.086 378.725C275.354 380.219 276.919 381.432 278.683 382.286C280.447 383.14 282.37 383.616 284.328 383.684C285.606 383.629 286.882 383.822 288.086 384.253C288.917 384.782 289.632 385.474 290.188 386.286C290.743 387.099 291.129 388.016 291.321 388.981C291.668 390.949 292.615 392.762 294.031 394.172C295.571 395.388 298.513 394.911 298.821 392.955C299.105 393.48 299.529 393.916 300.045 394.215C300.562 394.514 301.151 394.664 301.747 394.649C302.279 394.567 302.773 394.324 303.161 393.952C303.55 393.58 303.814 393.097 303.919 392.57C304.712 392.847 305.576 392.845 306.369 392.565C307.161 392.285 307.834 391.744 308.278 391.03C309.122 389.565 309.553 387.899 309.525 386.209C309.733 383.924 309.508 381.62 308.863 379.418C307.457 375.786 304.696 372.843 301.162 371.209C297.666 369.597 293.95 368.518 290.135 368.006C288.256 367.682 286.161 367.097 286.253 365.203C281.85 366.306 277.363 367.047 272.839 367.42" fill="#FF8000"/>
<path d="M107.948 410.142C104.452 416.411 100.494 422.879 96.9977 429.147C96.809 429.567 96.5177 429.932 96.1506 430.21C95.5523 430.484 94.878 430.544 94.2408 430.379C84.9075 429.132 75.4972 429.886 66.9494 434.106C65.4273 434.76 64.0659 435.737 62.9602 436.971C62.4169 437.593 62.0469 438.348 61.8875 439.159C61.728 439.97 61.7844 440.809 62.0514 441.591C62.8831 443.578 65.2706 444.286 67.319 444.933C74.6809 447.289 84.0911 443.809 82.9668 444.656C79.5168 446.765 74.7733 451.37 73.1254 455.051C72.0816 456.874 71.5047 458.927 71.4465 461.027C71.4122 461.968 71.5914 462.905 71.9703 463.768C72.956 465.724 75.5126 466.34 77.6996 466.155C82.9361 465.724 87.3409 462.197 91.1759 458.593C93.1958 456.315 95.078 453.919 96.8127 451.417C97.937 450.292 95.8116 458.362 95.6114 460.903C95.3071 463.348 95.3071 465.821 95.6114 468.265C95.9396 470.729 97.1686 472.984 99.0613 474.595C100.02 475.367 101.189 475.834 102.416 475.935C103.643 476.037 104.873 475.768 105.946 475.165C107.297 474.131 108.307 472.714 108.841 471.099C110.895 465.703 111.567 459.88 110.797 454.158C110.036 448.479 108.636 442.905 106.624 437.54C111.506 431.488 116.465 424.588 120.639 418.49C116.072 416.222 111.799 413.403 107.917 410.096" fill="#E7A617"/>
<path d="M80.1345 260.631C81.0407 261.783 82.1405 262.768 83.3844 263.542C85.7114 264.861 88.2859 265.684 90.9465 265.96C93.3337 266.391 97.8157 266.237 98.0005 268.47C98.0005 273.984 98.093 279.805 98.093 285.319C98.093 288.984 97.7696 292.264 97.7079 295.93C97.8215 296.458 97.8265 297.003 97.723 297.533C97.6195 298.063 97.4094 298.567 97.1056 299.013C96.8017 299.459 96.4104 299.839 95.9553 300.13C95.5003 300.421 94.9908 300.616 94.4581 300.704L86.2184 303.584C85.2019 303.938 84.0007 304.524 83.939 305.586C83.862 306.957 85.6178 307.573 87.0194 307.727C96.206 308.707 105.484 308.407 114.588 306.834C115.054 306.82 115.512 306.701 115.925 306.485C116.339 306.269 116.698 305.961 116.975 305.586C117.391 304.785 116.667 303.753 115.173 303.291C114.311 303.014 108.027 301.182 105.932 299.303C103.329 296.962 103.807 291.464 103.637 288.229C103.483 285.38 103.56 282.516 103.637 279.651C103.714 276.032 104.007 273.368 104.269 269.764C104.279 269.391 104.347 269.022 104.469 268.67C104.9 267.577 106.21 267.13 107.365 266.899C110.83 266.083 114.049 266.222 117.453 265.144C119.841 264.555 122.021 263.319 123.752 261.571C125.412 259.357 126.245 256.633 126.108 253.87C126.108 248.957 123.028 247.263 118.593 246.57C112.861 245.675 107.066 245.253 101.266 245.307C95.1717 245.434 89.1195 246.35 83.2611 248.033C83.014 248.082 82.7881 248.205 82.6143 248.388C82.1523 248.988 82.9685 249.727 83.677 250.005C88.6671 251.976 95.9061 251.991 101.266 252.115C107.436 252.294 113.612 252.042 119.748 251.36C121.95 251.36 119.208 252.731 118.392 252.9C110.652 254.824 102.635 255.376 94.7047 254.532C91.7938 254.301 85.4635 253.639 83.2148 251.683C82.5218 251.067 81.4131 249.419 80.3504 249.743C79.2877 250.066 78.8101 252.469 78.6715 253.254C78.3909 254.528 78.3831 255.846 78.6485 257.123C78.914 258.4 79.4467 259.606 80.2116 260.662" fill="#F9838D"/>
<path d="M209.692 204.973C209.923 206.07 210.285 207.135 210.77 208.146C211.186 206.683 211.663 202.909 211.956 201.985C211.181 200.514 210.229 199.144 209.122 197.904C208.651 197.412 208.084 197.021 207.456 196.756C206.829 196.491 206.153 196.358 205.472 196.364C203.454 196.364 203.67 197.119 204.825 198.15C207.117 199.896 208.816 202.305 209.692 205.05" fill="#E7A617"/>
<path d="M285.036 383.668C285.839 383.628 286.641 383.774 287.378 384.095C288.115 384.415 288.769 384.902 289.287 385.516C289.795 386.052 290.198 386.679 290.473 387.364C291.058 389.413 291.582 392.339 293.184 393.756C293.689 394.297 294.345 394.675 295.066 394.843C295.788 395.01 296.542 394.959 297.235 394.695C296.485 394.318 295.823 393.787 295.292 393.137C294.762 392.487 294.374 391.732 294.154 390.922C293.6 389.382 293.399 387.842 292.922 386.302C292.731 385.519 292.384 384.784 291.902 384.138C291.421 383.493 290.814 382.95 290.119 382.544C289.146 382.137 288.09 381.968 287.039 382.051C284.941 382.058 282.845 381.909 280.77 381.604C278.791 381.174 276.862 380.544 275.01 379.726C277.52 382.806 281.17 383.499 285.067 383.714" fill="#E7A617"/>
<path d="M303.872 384.285C303.872 384.562 303.964 385.486 304.01 385.825C304.103 386.472 304.688 386.518 304.688 385.578C304.688 384.639 304.688 383.761 304.688 382.852C304.735 381.818 304.642 380.782 304.411 379.772C304.173 378.748 303.564 377.848 302.701 377.247C302.356 377.038 301.989 376.868 301.608 376.738C299.671 376.025 297.654 375.554 295.601 375.337C294.831 375.522 295.786 375.768 296.033 375.845C299.975 377.123 303.394 379.973 303.733 384.362" fill="#E7A617"/>
<path d="M298.343 387.627C298.759 388.181 298.497 384.854 298.204 383.499C298.11 382.824 297.842 382.185 297.426 381.645C297.011 381.105 296.461 380.682 295.832 380.419C294.785 380.419 296.911 382.313 297.25 383.068C297.848 384.542 298.211 386.101 298.328 387.688" fill="#E7A617"/>
<path d="M253.816 340.315C254.171 341.101 254.664 341.439 254.802 340.608C255.018 338.821 252.199 320.587 251.491 323.96C251.167 325.5 253.57 339.807 253.801 340.315" fill="#8AD2D4"/>
<path d="M240.848 337.558C240.941 338.651 241.511 340.915 241.988 340.53C242.358 339.837 241.541 333.831 241.31 330.458C241.203 328.918 241.418 326.238 240.432 326.238C239.015 326.238 240.617 334.755 240.848 337.543" fill="#8AD2D4"/>
<path d="M226.032 328.395C226.071 330.564 226.236 332.729 226.525 334.879C226.848 337.173 225.493 338.852 225.416 336.157C225.262 333.138 225.262 330.125 225.416 327.117C225.57 325.7 226.125 326.439 226.078 328.395" fill="#8AD2D4"/>
<path d="M232.686 327.055C232.417 327.241 232.199 327.489 232.048 327.779C231.898 328.069 231.821 328.391 231.824 328.718C231.632 329.624 231.751 330.568 232.163 331.398C232.271 331.597 232.419 331.772 232.597 331.912C232.776 332.051 232.981 332.153 233.2 332.211C233.419 332.269 233.648 332.281 233.872 332.247C234.096 332.213 234.311 332.134 234.503 332.014C234.944 331.519 235.245 330.916 235.375 330.266C235.504 329.616 235.459 328.944 235.243 328.318C235.211 328.036 235.109 327.766 234.946 327.534C234.782 327.301 234.564 327.113 234.309 326.988C234.055 326.862 233.773 326.802 233.489 326.814C233.205 326.826 232.929 326.908 232.686 327.055" fill="#8AD2D4"/>
<path fill-rule="evenodd" clip-rule="evenodd" d="M220.438 330.88C220.447 328.19 220.459 324.624 221.643 322.158L221.659 322.143C227.369 325.266 232.817 322.956 238.683 320.468C240.047 319.889 241.433 319.301 242.851 318.77C243.015 318.708 243.179 318.647 243.344 318.585C250.723 315.813 258.709 312.814 266.046 318.554C269.097 320.937 270.548 324.743 271.937 328.389C272.083 328.774 272.229 329.156 272.376 329.535C275.949 338.745 279.583 348.139 279.968 358.011C280.354 367.883 276.95 378.463 268.91 384.192C262.934 388.443 255.28 389.521 247.949 389.598C239.524 389.778 231.113 388.804 222.952 386.703C213.906 390.795 204.567 394.208 195.014 396.913C195.942 401.798 196.92 406.717 197.903 411.66C202.144 432.976 206.474 454.744 207.212 476.197C207.319 476.948 207.167 477.714 206.781 478.368C206.557 478.618 206.296 478.831 206.008 479H173.796C173.75 478.883 173.707 478.765 173.667 478.645C164.519 456.869 155.832 397.283 155.832 392.185C153.26 395.524 149.994 399.261 146.675 403.059C142.523 407.81 138.289 412.655 135.225 416.934C134.531 418.029 133.656 418.998 132.638 419.799C129.773 421.816 125.83 420.8 122.611 419.429C116.155 416.655 110.29 412.672 105.331 407.694C104.793 407.272 104.352 406.741 104.036 406.136C103.72 405.53 103.536 404.864 103.498 404.183C103.624 403.426 103.925 402.709 104.376 402.088C106.871 398.038 136.611 350.049 150.473 330.274C151.827 328.541 153.519 327.102 155.446 326.043C157.374 324.984 159.496 324.328 161.685 324.114C166.061 323.715 170.471 323.917 174.792 324.714L190.655 326.901C200.62 328.257 210.847 329.72 219.641 334.602C220.424 334.911 220.43 333.23 220.438 330.88Z" fill="#2E58A6"/>
<path d="M217.793 349.094C203.932 345.582 191.333 340.885 177.642 336.311C175.917 336.095 176.225 336.804 177.026 337.25C180.587 338.902 184.262 340.297 188.022 341.424C211.217 349.54 235.767 356.717 260.07 353.082C261.225 352.913 261.765 351.773 254.865 352.297C251.045 352.589 247.318 352.759 243.467 352.805C234.789 352.627 226.166 351.381 217.793 349.094" fill="#8AD2D4"/>
<path d="M256.636 363.632C249.675 366.096 240.219 365.588 231.763 365.172C212.106 364.504 192.784 359.89 174.947 351.604C173.745 351.034 170.896 350.48 172.575 349.633C174.469 349.633 182.448 353.776 185.913 355.085C191.4 357.154 197.012 358.877 202.716 360.244C213.859 362.863 225.247 364.303 236.692 364.541C249.013 364.864 260.764 360.136 256.714 363.601" fill="#8AD2D4"/>
<path d="M152.785 343.565C138.708 361.584 127.68 378.617 115.544 398.006C114.512 399.654 111.678 402.765 112.31 404.598C113.341 405.584 116.114 399.223 116.93 398.006C128.851 378.771 137.43 365.187 150.136 348.632C153.308 344.504 158.945 339.853 159.377 337.728C159.731 334.524 154.156 341.886 152.846 343.58" fill="#8AD2D4"/>
<path d="M135.119 396.513C131.191 402.334 125.154 414.193 126.17 415.225C126.94 415.995 128.218 412.068 128.711 410.989C133.31 400.914 139.051 391.401 145.823 382.637C148.256 379.418 154.355 373.766 153.246 372.657C152.137 371.548 146.731 379.279 145.052 381.759L135.103 396.513" fill="#8AD2D4"/>
<path d="M243.869 355.254C244.265 356.702 244.538 358.18 244.685 359.674C244.713 363.731 244.089 367.766 242.837 371.625C242.133 373.608 241.247 375.52 240.188 377.339L236.676 383.838C235.706 385.732 238.617 384.577 239.326 383.514C243.077 377.857 245.374 371.36 246.01 364.602C246.472 359.766 243.885 349.078 241.39 347.923C238.679 346.383 243.145 351.388 243.884 355.238" fill="#8AD2D4"/>
<path d="M216.993 372.241C215.761 374.521 213.096 378.833 213.912 379.572C214.359 379.957 215.606 377.832 216.115 377.123C218.062 374.401 219.526 371.364 220.443 368.145C220.98 366.563 221.387 364.941 221.659 363.293C222.907 355.947 223.199 349.664 219.642 342.225C219.318 341.563 218.81 340.454 218.517 340.962C217.978 341.655 219.873 345.798 220.288 347.985C220.815 350.766 221.022 353.597 220.905 356.425C220.85 361.923 219.516 367.333 217.008 372.226" fill="#8AD2D4"/>
<path d="M193.413 364.756C193.366 365.41 193.434 366.066 193.613 366.697C193.813 366.989 194.506 367.066 194.614 365.696C194.917 360.028 195.784 354.405 197.201 348.909C197.725 347.107 199.835 340.577 199.219 339.175C198.203 336.85 196.308 344.366 196.016 345.628C194.488 351.897 193.615 358.307 193.413 364.756" fill="#8AD2D4"/>
<path d="M172.049 352.02C171.853 353.294 171.539 354.546 171.11 355.762C170.755 356.162 170.062 356.409 170.062 354.746C170.605 348.515 172.39 342.456 175.314 336.927C177.009 333.446 178.842 331.244 179.073 331.336C179.208 331.406 179.314 331.522 179.37 331.664C179.427 331.805 179.431 331.962 179.381 332.106C177.163 338.143 173.482 343.996 172.065 352.02" fill="#8AD2D4"/>
<path d="M118.085 408.633C116.761 407.216 117.146 406.138 119.025 408.017C121.366 410.527 127.311 414.285 126.726 415.348C124.939 415.794 119.949 410.589 118.116 408.633" fill="#8AD2D4"/>
<path d="M128.063 393.94C130.607 396.76 133.831 398.881 137.428 400.101C139.076 400.855 138.506 399.854 137.905 399.161C137.304 398.468 135.21 398.068 134.424 397.621C130.248 394.881 126.666 391.331 123.89 387.179C122.996 385.855 121.533 381.404 121.04 383.114C120.455 386.379 125.584 391.492 128.079 394.033" fill="#8AD2D4"/>
<path d="M146.978 382.452C148.225 383.838 149.965 386.071 151.09 386.071C152.214 386.071 150.15 384.531 149.55 383.884C144.282 377.862 140.586 373.981 135.919 368.129C134.379 366.25 132.947 364.787 133.902 367.128C134.754 368.838 135.877 370.398 137.228 371.748C140.971 375.706 143.389 378.555 146.931 382.421" fill="#8AD2D4"/>
<path d="M151.506 350.31C153.985 354.33 154.94 359.027 156.249 363.755C156.511 364.71 156.973 367.112 157.312 368.052C157.651 368.991 157.682 371.394 158.175 369.946C158.637 364.756 156.049 357.533 153.415 351.542C151.721 347.692 148.795 341.947 148.04 342.779C147.286 343.611 149.75 347.492 151.506 350.31" fill="#8AD2D4"/>
<path d="M178.564 367.42C173.667 370.193 168.492 373.257 165.966 378.293C163.917 382.375 163.933 387.149 163.994 391.723C164.118 401.425 166.335 411.374 167.876 420.984C169.611 431.796 171.51 442.576 173.574 453.326C174.267 456.945 174.606 459.163 175.284 462.782C175.838 465.77 177.625 476.104 179.118 477.706C180.274 478.861 177.979 468.249 177.471 465.893C177.07 464.03 176.685 461.073 176.362 459.194C175.191 452.248 173.62 446.534 172.465 439.589C171.202 432.027 169.785 422.987 168.677 415.44C167.521 407.601 165.966 402.057 165.858 394.002C165.705 389.698 165.989 385.39 166.705 381.143C168.297 376.816 171.489 373.266 175.622 371.224C178.703 369.684 180.366 368.144 184.016 366.943C184.278 366.851 186.558 366.512 185.71 365.403C185.31 364.864 179.766 366.804 178.564 367.482" fill="#8AD2D4"/>
<path d="M190.793 377.785C187.712 379.633 184.032 382.19 182.907 385.716C182.003 389.331 181.897 393.099 182.599 396.759C183.97 407.678 186.865 418.212 188.405 429.008C190.1 440.836 192.625 451.062 195.028 463.675C195.028 464.753 195.86 465.662 196.214 465.539C197.061 465.231 195.952 459.532 195.475 456.96C193.935 448.752 191.886 441.39 190.377 433.182C188.036 420.491 185.51 409.018 184.139 396.22C183.662 391.769 183.677 385.809 186.865 382.682C188.944 380.649 194.566 378.293 194.566 377.215C194.658 375.675 191.902 377.061 190.762 377.831" fill="#8AD2D4"/>
<path d="M188.73 459.502C193.135 459.502 197.879 459.379 201.36 456.668C201.714 456.391 202.084 455.96 201.883 455.544C200.944 454.712 199.142 456.252 196.462 457.192C195.283 457.518 194.067 457.694 192.843 457.715C186.512 458.166 180.149 457.881 173.883 456.868C172.959 456.73 171.25 457.053 173.776 457.962C175.292 458.374 176.836 458.678 178.396 458.87C181.835 459.344 185.306 459.55 188.777 459.486" fill="#8AD2D4"/>
<path d="M186.928 439.512C190.497 439.717 194.068 439.155 197.401 437.864C198.387 437.402 199.141 436.832 198.741 435.816C198.341 434.799 195.907 437.14 194.367 437.463C186.936 438.748 179.323 438.539 171.973 436.847C171.08 436.678 167.152 434.876 167.152 436.339C167.152 437.479 172.081 438.464 172.82 438.588C177.49 439.276 182.208 439.591 186.928 439.527" fill="#8AD2D4"/>
<path d="M182.708 420.291C185.173 420.291 190.039 419.629 191.949 418.12C192.133 418.004 192.274 417.831 192.35 417.627C192.519 416.965 191.518 416.718 190.81 416.795C184.002 417.627 177.087 418.674 170.325 417.473C169.601 417.35 168.646 417.288 168.338 417.966C167.291 420.168 180.952 420.338 182.647 420.291" fill="#8AD2D4"/>
<path d="M173.314 399.1C174.946 399.793 176.564 400.486 178.196 401.148C182.108 402.75 186.072 404.223 190.086 405.568C192.089 406.846 189.609 407.108 188.423 406.8C185.959 406.107 164.504 399.654 164.381 397.19C164.227 394.279 171.897 398.499 173.314 399.1Z" fill="#8AD2D4"/>
<path d="M182.707 377.354C185.499 379.109 188.083 381.176 190.408 383.515C191.84 385.055 195.028 389.582 195.875 389.582C197.523 388.966 194.504 385.563 193.719 384.5L190.777 380.542C190.22 379.738 189.58 378.995 188.868 378.324C186.055 376.519 183.122 374.908 180.089 373.504C177.979 372.611 172.188 368.453 173.697 372.272C174.113 373.319 181.013 376.184 182.769 377.416" fill="#8AD2D4"/>
<path d="M260.779 380.342C261.597 379.905 262.447 379.529 263.32 379.218C265.985 378.54 265.6 379.664 260.764 381.635C254.48 384.192 246.625 384.947 239.849 384.962C238.822 385.088 237.783 385.051 236.768 384.854C236.183 384.5 239.402 383.699 239.633 383.099C239.463 384.084 245.054 383.33 248.997 383.006C253.067 382.867 257.074 381.963 260.81 380.342" fill="#8AD2D4"/>
<path d="M209.555 385.593C210.633 385.516 211.85 386.117 207.537 387.01C204.596 387.611 202.285 388.057 199.328 388.55C197.953 388.739 196.604 389.085 195.308 389.582C194.261 390.059 192.644 391.276 192.398 392.4C192.213 393.232 192.629 395.604 191.735 394.803C189.333 390.86 193.537 388.565 196.109 387.795C200.475 386.479 204.996 385.749 209.555 385.624" fill="#8AD2D4"/>
<path d="M172.483 339.869C176.396 340.427 180.128 341.882 183.387 344.119C183.88 344.412 184.45 345.012 184.095 345.475C183.418 346.137 179.475 343.01 177.057 342.225C174.639 341.44 170.311 340.546 168.016 341.563C164.72 343.01 160.315 351.527 159.345 350.126C158.544 348.97 163.257 343.611 164.15 342.795C165.258 341.752 166.572 340.953 168.007 340.449C169.442 339.945 170.967 339.747 172.483 339.869" fill="#8AD2D4"/>
<path d="M226.525 173.216C226.045 174.315 225.864 175.521 226.002 176.712C226.002 177.236 226.264 177.852 226.772 178.006C226.956 178.05 227.149 178.041 227.328 177.981C227.508 177.922 227.667 177.813 227.788 177.667C228.026 177.371 228.19 177.023 228.266 176.651C228.455 175.901 228.522 175.127 228.466 174.356C228.466 173.906 228.32 173.468 228.05 173.109C227.68 172.693 226.787 172.647 226.51 173.216" fill="#2B2729"/>
<path d="M250.875 175.08C250.816 175.828 250.921 176.579 251.183 177.282C251.384 177.729 251.799 178.145 252.261 178.052C252.4 178.018 252.528 177.951 252.635 177.858C252.742 177.764 252.825 177.646 252.878 177.513C253.163 176.74 253.298 175.919 253.278 175.095C253.326 174.574 253.257 174.048 253.078 173.555C253.028 173.406 252.946 173.269 252.837 173.155C252.727 173.041 252.594 172.953 252.447 172.897C252.299 172.841 252.141 172.818 251.984 172.831C251.827 172.844 251.674 172.891 251.538 172.97C250.937 173.417 250.906 174.51 250.891 175.126" fill="#2B2729"/>
<path d="M107.085 429.023C107.655 429.331 108.395 429.732 108.271 430.363C108.206 430.573 108.071 430.754 107.889 430.877C107.707 431 107.489 431.058 107.27 431.041C106.837 430.993 106.42 430.846 106.054 430.61C104.985 430.087 103.99 429.424 103.097 428.638C102.249 427.822 100.601 426.128 101.556 425.558C103.451 424.65 104.421 427.622 107.055 429.039" fill="#FF8000"/>
<path d="M82.7047 453.434C83.7058 454.743 84.3526 456.314 85.3537 457.623C85.4615 457.762 85.6001 457.9 85.7542 457.869C85.9082 457.839 86.0005 457.669 86.0621 457.515C86.3495 456.292 86.2418 455.008 85.7542 453.85C84.826 452.083 83.2715 450.726 81.3954 450.046C80.4251 449.645 78.0225 449.753 79.1468 451.124C79.4394 451.478 80.687 451.648 81.1183 451.925C81.7191 452.343 82.2406 452.864 82.6584 453.465" fill="#FF8000"/>
<path d="M89.5592 452.124C89.7132 452.294 89.9136 452.478 90.1293 452.386C90.2093 452.337 90.2733 452.266 90.3143 452.181C90.3552 452.096 90.3712 452.002 90.3601 451.908C90.3525 451.585 90.3006 451.263 90.206 450.954C90.1285 449.839 89.9166 448.737 89.5746 447.673C89.2651 447.146 88.8537 446.685 88.3646 446.317C87.8755 445.95 87.3182 445.683 86.7252 445.533C83.306 444.932 83.8761 447.565 84.6461 447.889C86.5897 448.901 88.2715 450.351 89.5592 452.124" fill="#FF8000"/>
<path d="M99.894 462.197C99.0315 462.52 98.1844 463.337 98.3538 464.23C99.3395 465.493 103.098 463.152 107.826 464.076C109.921 464.476 105.254 460.195 99.8631 462.197" fill="#FF8000"/>
<path d="M101.587 456.514C100.632 457.022 100.139 457.761 101.186 458.346C101.371 458.439 101.386 458.623 101.51 458.654C103.265 459.209 105.206 459.732 106.761 458.331C106.871 458.244 106.952 458.126 106.992 457.992C107.021 457.821 106.997 457.645 106.923 457.488C106.848 457.331 106.727 457.2 106.576 457.114C105.836 456.664 105.009 456.375 104.149 456.266C103.289 456.157 102.416 456.231 101.587 456.483" fill="#FF8000"/>
<path d="M71.8496 438.618C71.9728 439.973 71.8495 443.084 72.8505 443.238C73.0661 443.438 73.3435 443.084 73.4205 442.807C73.8287 441.051 74.0148 439.25 73.9748 437.448C74.004 436.778 73.9315 436.108 73.7593 435.461C73.6738 435.136 73.5232 434.832 73.3168 434.568C73.1103 434.303 72.8521 434.083 72.558 433.921C72.4025 433.853 72.2347 433.818 72.0651 433.818C71.8955 433.818 71.7279 433.853 71.5725 433.921C70.556 434.337 71.5724 435.63 71.865 438.541" fill="#FF8000"/>
<path d="M118.916 232.262C118.581 232.327 118.274 232.494 118.038 232.74C116.098 234.385 114.551 236.442 113.51 238.762C112.994 239.912 112.626 241.123 112.416 242.365C112.332 242.839 112.275 243.317 112.247 243.798C111.406 243.984 110.608 244.323 109.89 244.799C109.123 245.374 108.52 246.14 108.142 247.021C107.764 247.902 107.623 248.867 107.734 249.819C107.767 250.778 108.075 251.708 108.621 252.497C109.167 253.286 109.928 253.902 110.814 254.27C112.755 253.962 116.189 253.439 117.653 253.007C118.2 252.203 118.567 251.289 118.726 250.329C118.886 249.369 118.835 248.386 118.577 247.448C118.345 246.669 117.932 245.957 117.373 245.368C116.813 244.779 116.123 244.331 115.358 244.059C114.568 243.781 113.73 243.661 112.893 243.705H112.801C113.17 242.04 113.728 240.423 114.464 238.885C115.497 236.684 117.09 234.793 119.085 233.402C119.3 233.264 119.547 233.079 119.578 232.817C119.609 232.555 119.239 232.216 118.9 232.247" fill="#FE330A"/>
<path d="M231.069 206.759C240.528 208.672 250.362 206.933 258.591 201.893L261.749 211.641C262.765 214.721 264.09 218.264 267.124 219.542C270.229 220.985 273.637 221.656 277.058 221.498C280.277 221.19 283.003 219.126 286.222 218.418C289.068 217.639 292.092 217.812 294.831 218.91C296.601 219.767 298.194 220.947 299.529 222.391C307.368 230.338 308.477 241.734 309.909 252.253C310.987 260.2 309.17 269.456 308.138 277.418C306.937 286.659 303.641 296.361 301.269 305.401C299.128 313.548 298.743 324.237 297.064 332.399C294.723 343.703 288.763 361.891 286.283 365.28C285.898 365.803 277.042 367.698 272.869 367.451C270.351 360.296 268.913 352.806 268.602 345.228C268.294 336.342 271.02 325.53 268.171 321.218C265.722 317.522 260.47 316.105 255.727 315.843C252.608 315.867 249.52 316.451 246.609 317.568C239.432 320.232 236.444 322.08 230.422 323.436C227.454 324.15 224.325 323.721 221.659 322.234C220.734 319.524 219.225 311.669 218.332 308.959C217.857 307.406 217.613 305.793 217.608 304.169C217.839 302.491 213.881 309.051 205.918 314.95C203.526 316.898 200.803 318.4 197.879 319.385C194.577 320.526 191.063 320.921 187.59 320.54C184.51 320.54 181.137 318.107 178.873 315.92C175.131 312.301 172.543 309.005 173.328 303.861C175.086 293.182 178.364 282.81 183.062 273.06C185.295 268.27 188.098 262.941 189.9 257.967C192.303 251.329 193.458 245.646 196.184 240.472C199.604 233.926 203.177 228.474 210.138 226.026C217.949 222.7 226.136 220.342 234.519 219.003C235.005 219.004 235.476 218.829 235.843 218.51C236.321 217.971 236.09 217.155 235.843 216.477C235.597 215.8 235.166 214.691 234.796 213.813C233.769 211.377 232.526 209.037 231.084 206.821" fill="#FE330A"/>
<path d="M214.173 198.181C212.278 197.15 210.138 195.794 209.937 193.638C209.975 192.692 210.253 191.771 210.747 190.962C211.24 190.153 211.932 189.484 212.756 189.018C214.42 188.101 215.936 186.938 217.253 185.568C218.576 183.494 219.03 180.982 218.516 178.576C217.997 176.201 217.648 173.793 217.469 171.369C217.428 169.916 217.708 168.472 218.292 167.14C218.875 165.809 219.746 164.623 220.842 163.668C221.034 162.998 221.438 162.408 221.993 161.986C222.548 161.565 223.225 161.333 223.922 161.327C225.319 161.354 226.691 161.707 227.927 162.359C229.162 163.008 230.511 163.411 231.9 163.545C234.632 163.409 237.215 162.255 239.139 160.311C240.061 158.834 240.541 157.124 240.525 155.383C240.504 153.645 240.753 151.915 241.264 150.254C242.635 146.727 246.377 146.342 248.072 149.838C248.8 151.741 249.1 153.782 248.95 155.814C248.801 157.85 249.189 159.889 250.074 161.728C252.076 165.147 256.789 165.794 259.684 168.52C263.581 172.185 262.334 175.311 262.765 180.64C263.073 183.936 259.684 188.34 257.266 190.45C254.594 192.457 252.219 194.832 250.213 197.504C248.835 199.336 247.844 201.428 247.298 203.655C246.753 205.881 246.665 208.195 247.04 210.456C248.58 218.726 258.113 222.777 266.199 223.038C262.919 221.96 255.634 219.111 252.446 216.062C251.07 214.413 250.024 212.515 249.366 210.471C248.103 204.696 252.369 199.953 254.602 199.337C252.729 201.95 251.835 205.14 252.076 208.346C252.507 211.857 255.157 217.941 257.96 220.081C260.095 221.573 262.555 222.534 265.137 222.884C273.454 224.424 282.694 222.407 288.609 216.385C294.523 210.363 296.094 199.968 290.95 193.284C288.978 190.697 286.237 188.802 285.236 185.584C283.372 179.685 287.577 173.91 286.114 168.381C285.359 165.532 282.602 163.761 280.569 161.651C275.564 156.353 277.196 148.776 273.484 142.8C271.975 140.162 270.171 137.703 268.109 135.469C264.665 132.08 260.13 130.022 255.311 129.663C248.811 129.186 244.221 126.26 238.199 124.627C232.195 122.991 225.8 123.599 220.21 126.337C217.324 127.861 214.656 129.768 212.278 132.004C209.336 134.43 206.986 137.495 205.409 140.967C201.667 150.408 207.689 161.774 203.453 170.999C202.241 173.283 200.818 175.448 199.203 177.467C195.475 182.387 193.211 188.259 192.672 194.408C192.438 197.478 192.928 200.56 194.102 203.406C195.276 206.253 197.103 208.783 199.434 210.795C204.239 214.614 211.678 215.184 216.483 211.38C217.621 210.531 218.518 209.4 219.086 208.1C220.257 205.189 219.086 201.015 214.127 198.289" fill="#E7A617"/>
<path d="M264.213 174.71C263.795 172.182 262.594 169.85 260.779 168.042C259.219 166.294 257.235 164.978 255.018 164.222C252.169 163.468 247.133 163.314 244.469 165.593C242.066 167.58 240.033 169.382 239.14 172.6C238.877 173.554 238.692 174.528 238.585 175.511C238.072 175.476 237.558 175.476 237.045 175.511C236.628 172.676 235.505 169.991 233.78 167.703C232.557 166.404 231.093 165.358 229.468 164.623C222.645 162.189 214.482 163.283 210.046 169.027C208.747 170.722 207.857 172.694 207.445 174.79C207.034 176.886 207.112 179.048 207.674 181.108C208.236 183.169 209.267 185.071 210.685 186.668C212.104 188.264 213.873 189.511 215.853 190.311C219.698 191.844 223.978 191.883 227.85 190.419C230.446 189.611 232.683 187.929 234.18 185.66C235.117 184.412 235.883 183.045 236.46 181.594C236.819 180.549 237.046 179.462 237.138 178.36H238.524C238.572 179.592 238.748 180.815 239.047 182.01C239.833 184.772 241.624 187.141 244.068 188.648C248.873 192.098 256.266 192.159 260.594 187.863C262.225 186.124 263.411 184.018 264.052 181.723C264.693 179.427 264.769 177.011 264.275 174.679L264.213 174.71ZM233.087 181.456C232.477 182.977 231.557 184.355 230.385 185.5C229.213 186.646 227.815 187.534 226.279 188.109C224.297 188.665 222.213 188.751 220.192 188.36C218.171 187.97 216.268 187.114 214.636 185.86C213.076 184.58 211.891 182.903 211.205 181.006C210.52 179.108 210.359 177.061 210.739 175.08C211.198 173.232 212.113 171.529 213.398 170.124C214.684 168.72 216.301 167.66 218.101 167.041C219.973 166.318 221.99 166.047 223.986 166.251C225.983 166.454 227.903 167.126 229.591 168.211C230.961 169.152 232.146 170.337 233.087 171.707C234.873 174.51 234.411 178.53 233.087 181.471V181.456ZM260.486 183.011C260.155 183.851 259.681 184.628 259.085 185.306C257.817 186.758 256.107 187.754 254.218 188.14C252.83 188.381 251.417 188.443 250.013 188.325C248.921 188.21 247.868 187.852 246.933 187.277C245.281 186.291 243.906 184.902 242.936 183.241C241.966 181.579 241.434 179.698 241.388 177.775C241.402 175.489 242.134 173.264 243.479 171.416C244.825 169.567 246.717 168.188 248.889 167.472C250.196 167.046 251.584 166.929 252.944 167.129C254.304 167.329 255.599 167.842 256.728 168.627C258.994 170.134 260.594 172.456 261.194 175.111C261.773 177.76 261.504 180.524 260.424 183.011" fill="#2E58A6"/>
<path d="M219.98 166.825C219.83 167.249 219.83 167.711 219.98 168.134C220.183 168.449 220.494 168.678 220.853 168.78C221.213 168.882 221.598 168.85 221.936 168.689C222.579 168.323 223.131 167.818 223.553 167.21C224.439 166.075 225.579 165.163 226.88 164.546C228.143 164.038 229.714 163.884 230.438 162.729C230.702 162.161 230.797 161.53 230.712 160.911C230.627 160.291 230.366 159.708 229.96 159.233C229.747 158.888 229.437 158.614 229.067 158.447C228.882 158.371 228.677 158.362 228.486 158.421C228.294 158.48 228.13 158.604 228.02 158.771C227.866 159.063 227.943 159.464 227.712 159.695C227.481 159.926 226.634 159.541 226.049 159.51C225.603 159.551 225.19 159.76 224.893 160.095C222.63 161.798 220.907 164.119 219.934 166.779" fill="black"/>
<path d="M256.836 162.99C255.404 161.318 253.388 160.254 251.199 160.018C250.949 159.963 250.689 159.966 250.441 160.028C250.193 160.089 249.962 160.207 249.766 160.372C249.397 160.803 249.505 161.45 249.458 162.005C249.412 162.559 248.935 163.237 248.411 163.021C248.544 162.614 248.518 162.172 248.338 161.783C248.158 161.395 247.837 161.089 247.441 160.927C246.626 160.657 245.745 160.657 244.93 160.927C244.129 161.111 243.205 161.512 243.082 162.313C243.289 163.352 243.686 164.344 244.253 165.239C244.324 165.497 244.447 165.737 244.614 165.946C244.78 166.155 244.988 166.329 245.223 166.456C245.916 166.702 246.609 166.132 247.24 165.732C248.25 165.238 249.352 164.964 250.475 164.927C251.598 164.89 252.716 165.09 253.756 165.516C254.442 165.788 255.174 165.924 255.912 165.917C256.273 165.894 256.617 165.756 256.895 165.523C257.172 165.29 257.367 164.975 257.452 164.623C257.453 164.336 257.396 164.052 257.285 163.787C257.174 163.523 257.011 163.283 256.805 163.083" fill="black"/>
<path d="M222.227 234.85C217.677 233.619 213.553 231.159 210.309 227.738C207.065 224.318 204.826 220.07 203.838 215.461C203.269 212.213 203.113 208.906 203.376 205.62C203.389 204.279 203.634 202.95 204.1 201.692C204.339 201.062 204.722 200.496 205.22 200.041C205.717 199.587 206.315 199.255 206.964 199.074C207.701 198.974 208.451 199.062 209.143 199.332C209.836 199.601 210.448 200.042 210.923 200.614C211.863 201.763 212.598 203.065 213.094 204.464C213.242 203.278 213.696 202.15 214.412 201.191C215.127 200.233 216.08 199.477 217.176 198.997C217.73 198.799 218.32 198.72 218.906 198.764C219.493 198.808 220.064 198.975 220.582 199.253C221.101 199.532 221.555 199.917 221.915 200.382C222.275 200.847 222.534 201.383 222.674 201.954C223.286 201.526 224.003 201.27 224.748 201.213C225.493 201.156 226.239 201.301 226.909 201.631C228.249 202.288 229.333 203.371 229.99 204.711C231.155 207.541 231.61 210.613 231.314 213.659C231.314 216.739 231.314 220.343 233.594 222.406C235.134 223.746 237.321 224.177 238.676 225.671C240.032 227.165 240.217 229.83 240.124 232.093C240.17 232.616 240.108 233.142 239.944 233.639C239.78 234.137 239.516 234.596 239.169 234.989C238.714 235.327 238.187 235.553 237.629 235.651C231.411 237.075 224.893 236.342 219.147 233.572" fill="#FF8000"/>
<path d="M220.797 201.384C221.384 202.298 221.649 203.382 221.551 204.464C221.551 206.343 221.551 208.227 221.551 210.116C221.798 210.902 221.921 208.391 222.044 207.437C222.115 206.022 222.352 204.621 222.753 203.263C222.984 202.614 223.432 202.065 224.021 201.709C224.611 201.352 225.305 201.21 225.987 201.307C225.441 201.047 224.844 200.912 224.239 200.912C223.634 200.912 223.037 201.047 222.491 201.307C222.273 200.666 221.889 200.094 221.377 199.65C220.866 199.206 220.245 198.907 219.58 198.781C218.639 198.569 217.657 198.649 216.762 199.009C215.868 199.369 215.105 199.994 214.574 200.799C216.299 199.998 219.087 199.259 220.735 201.292" fill="#E7A617"/>
<path d="M210.354 222.776C210.178 222.078 210.16 221.349 210.301 220.643C210.442 219.937 210.739 219.271 211.171 218.695C211.85 217.989 212.718 217.494 213.671 217.267C214.624 217.041 215.622 217.092 216.546 217.416C218.387 218.096 220.044 219.199 221.382 220.635C221.762 220.264 222.229 219.993 222.74 219.848C223.251 219.703 223.79 219.687 224.308 219.804C225.35 220.07 226.305 220.6 227.081 221.344C228.933 222.908 230.279 224.988 230.947 227.319C229.935 227.018 229.048 226.397 228.42 225.548C227.811 224.805 227.05 224.201 226.187 223.777C225.754 223.572 225.269 223.5 224.794 223.572C224.32 223.643 223.877 223.854 223.523 224.177C223.323 224.393 223.138 224.686 222.83 224.716C222.627 224.716 222.431 224.645 222.275 224.516C221.259 223.823 220.396 222.976 219.349 222.268C218.847 221.908 218.266 221.673 217.655 221.585C217.044 221.497 216.421 221.556 215.837 221.759C215.348 222.02 214.928 222.393 214.612 222.848C214.295 223.304 214.093 223.828 214.02 224.378C213.886 225.482 213.933 226.6 214.159 227.689C214.159 227.951 212.927 227.427 212.85 227.381C212.536 227.057 212.271 226.688 212.064 226.287C211.264 225.27 210.677 224.102 210.339 222.853" fill="#E7A617"/>
<path d="M327.974 245.6C331.219 251.989 332.807 259.09 332.594 266.253C332.769 273.535 330.165 280.612 325.309 286.043C321.129 290.975 315.189 294.08 308.753 294.698C286.575 297.67 268.123 289.431 249.026 267.516C244.911 262.903 241.05 258.07 237.459 253.039C238.583 249.42 240.847 238.085 239.199 235.035C239.841 233.2 240.149 231.265 240.108 229.322C243.481 231.585 247.655 234.142 250.889 236.406C262.913 244.813 276.202 251.244 290.255 255.457C295.584 257.089 301.375 258.352 306.658 256.596C311.941 254.841 314.282 251.868 313.527 244.923C313.019 240.302 309.261 235.451 305.95 232.941C304.612 229.534 302.701 226.383 300.297 223.623C296.878 219.403 289.424 217.217 286.22 218.356C288.031 217.008 289.594 215.356 290.841 213.474C309.784 219.942 322.66 233.926 327.974 245.616" fill="#F9838D"/>
<path d="M200.957 234.404C203.639 232.982 206.761 232.635 209.689 233.433C211.967 234.259 214.095 235.45 215.989 236.96C216.759 235.312 217.098 234.773 217.837 233.279C213.813 231.263 210.34 228.298 207.718 224.639C207.195 224.537 206.653 224.613 206.178 224.855C203.549 227.211 201.208 229.868 199.201 232.771C197.538 235.174 195.443 239.193 195.273 242.012C197.014 238.639 198.046 236.175 200.849 234.434" fill="#F9838D"/>
<path d="M291.44 212.581C291.817 212.912 292.302 213.095 292.803 213.095C293.305 213.095 293.79 212.912 294.166 212.581C294.973 211.886 295.934 211.395 296.969 211.148C295.968 211.718 296.477 213.258 297.108 214.229C297.986 215.584 299.187 217.109 300.804 217.016C300.713 216.447 300.766 215.865 300.958 215.322C301.062 215.054 301.26 214.832 301.515 214.699C301.77 214.566 302.065 214.53 302.344 214.598C302.164 214.859 302.082 215.176 302.113 215.492C302.144 215.808 302.286 216.102 302.514 216.323C302.986 216.749 303.429 217.207 303.838 217.694C304.239 218.325 304.27 219.234 304.732 219.757C306.118 221.513 309.568 219.557 310.969 221.298C309.922 221.436 309.614 222.992 310.276 223.808C310.655 224.178 311.111 224.46 311.612 224.633C312.113 224.806 312.645 224.866 313.172 224.809C314.199 224.694 315.239 224.741 316.252 224.948C315.957 225.188 315.715 225.487 315.542 225.826C315.369 226.165 315.27 226.537 315.25 226.917C315.229 227.297 315.289 227.678 315.424 228.033C315.56 228.389 315.768 228.712 316.037 228.983C317.13 229.984 319.117 229.999 318.131 228.151C317.869 227.689 317.561 227.042 318.131 227.119C318.957 227.485 319.687 228.036 320.264 228.731C320.841 229.426 321.25 230.244 321.458 231.123C321.472 232.025 321.575 232.922 321.766 233.803C322.721 236.56 326.925 236.883 328.219 239.455C328.388 240.194 325.709 239.809 326.679 242.042C326.837 242.305 327.046 242.534 327.293 242.715C327.539 242.897 327.82 243.028 328.118 243.101C328.415 243.174 328.724 243.188 329.027 243.141C329.33 243.094 329.621 242.988 329.883 242.828C329.883 244.168 328.758 245.446 329.174 246.709C329.59 247.972 331.022 248.249 332.008 249.004C332.565 249.447 332.982 250.042 333.208 250.717C333.435 251.392 333.462 252.118 333.286 252.808C333.102 252.486 332.831 252.223 332.504 252.049C332.177 251.875 331.808 251.796 331.438 251.822C331.068 252.607 332.501 255.164 332.839 255.549C333.387 256.089 333.809 256.743 334.075 257.464C334.341 258.185 334.445 258.956 334.38 259.723C334.2 259.481 333.968 259.282 333.702 259.141C333.435 259 333.141 258.92 332.839 258.906C331.962 259.399 332.177 260.6 332.67 261.494C333.225 262.353 333.948 263.092 334.796 263.665C335.088 263.896 335.427 264.235 335.288 264.589C335.174 264.797 334.988 264.956 334.765 265.036C333.902 265.498 333.071 266.329 333.225 267.284C333.379 268.239 334.98 269.055 334.888 269.61C334.796 270.164 333.548 270.549 333.117 270.919C332.685 271.289 331.669 272.567 333.671 273.753C334.765 274.4 334.487 277.202 334.287 277.341C334.087 277.48 333.64 276.925 333.348 276.648C333.023 276.401 332.614 276.294 332.209 276.348C331.805 276.403 331.439 276.616 331.191 276.941C330.723 277.62 330.526 278.449 330.637 279.266C330.746 280.072 330.788 280.886 330.761 281.699C330.066 281.711 329.384 281.891 328.774 282.223C328.186 282.735 327.718 283.37 327.404 284.084C327.09 284.797 326.937 285.571 326.956 286.351C326.871 287.759 326.57 289.146 326.063 290.463C325.863 290.632 325.739 290.278 325.632 290.047C325.573 289.793 325.532 289.536 325.508 289.277C325.277 288.353 323.968 288.183 323.075 288.584C321.535 289.246 321.427 291.494 321.412 292.403C320.719 292.634 320.025 291.895 319.286 291.941C318.547 291.987 318.008 293.096 317.746 293.959C317.484 294.821 316.498 295.745 315.774 295.206C315.601 295.048 315.451 294.866 315.328 294.667C315.085 294.393 314.782 294.18 314.443 294.043C314.103 293.907 313.737 293.852 313.372 293.881C313.007 293.911 312.655 294.026 312.342 294.215C312.029 294.405 311.765 294.665 311.57 294.975C311.311 295.716 311.121 296.479 311 297.254C310.769 298.009 310.061 298.794 309.306 298.533C309.465 298.122 309.48 297.671 309.348 297.251C309.217 296.831 308.947 296.468 308.582 296.222C307.837 295.753 306.994 295.463 306.118 295.375C305.597 295.308 305.068 295.349 304.564 295.498C304.06 295.646 303.592 295.898 303.192 296.238C302.587 296.937 302.069 297.708 301.651 298.533C301.235 299.358 300.58 300.039 299.772 300.488C299.894 299.709 299.776 298.91 299.436 298.198C299.095 297.486 298.546 296.894 297.863 296.5C296.492 295.745 295.814 295.976 293.935 297.1C293.55 297.331 292.503 297.963 292.164 297.67C291.825 297.378 292.272 296.638 292.164 296.253C291.625 294.005 288.699 294.621 288.067 294.883C287.468 295.203 286.901 295.58 286.373 296.007C285.803 296.376 284.325 296.9 283.724 296.577C283.979 296.249 284.144 295.859 284.201 295.447C284.258 295.036 284.206 294.616 284.05 294.231C283.894 293.846 283.64 293.508 283.312 293.252C282.985 292.996 282.596 292.831 282.184 292.773C280.597 292.558 278.983 292.668 277.44 293.096C276.938 293.232 276.421 293.31 275.9 293.327C275.376 293.142 275.762 292.649 276.054 291.695C276.249 291.168 276.249 290.589 276.054 290.062C275.654 289.184 274.514 289.539 273.497 289.585C272.481 289.631 271.341 289.8 270.91 289.292C271.082 289.115 271.216 288.905 271.304 288.675C271.392 288.444 271.432 288.199 271.422 287.952C271.412 287.706 271.352 287.464 271.245 287.242C271.139 287.019 270.988 286.821 270.802 286.659C269.816 285.735 267.568 285.966 266.274 286.366C265.535 286.597 263.44 287.167 262.809 286.736C263.203 286.538 263.542 286.247 263.796 285.887C264.05 285.527 264.212 285.111 264.267 284.674C264.321 284.237 264.268 283.793 264.11 283.382C263.953 282.97 263.696 282.604 263.363 282.316C262.994 281.946 262.393 281.992 261.823 281.807C260.514 281.314 260.16 279.682 259.282 278.604C258.404 277.526 257.049 276.078 255.786 276.232C255.187 276.363 254.629 276.636 254.157 277.027C253.686 277.418 253.314 277.917 253.075 278.481C251.843 280.714 251.535 280.021 251.535 279.882C251.535 278.927 251.828 276.479 251.704 275.524C251.242 271.781 250.965 270.626 248.793 270.488C248.27 270.488 247.253 271.088 246.868 270.688C246.483 270.288 247.192 269.317 247.33 268.809C247.654 267.716 248.131 266.976 247.33 266.175C246.178 265.323 244.79 264.849 243.357 264.82C240.908 264.82 240.122 264.451 240.076 263.912C240.03 263.373 240.307 263.326 240.523 263.095C240.816 262.768 241.06 262.4 241.247 262.002C241.399 261.741 241.471 261.442 241.455 261.141C241.439 260.84 241.334 260.55 241.154 260.308C240.969 260.154 240.739 260.077 240.554 259.923C240.424 259.821 240.32 259.689 240.25 259.54C240.18 259.39 240.147 259.225 240.153 259.06C240.153 258.845 240.23 258.644 240.153 258.429C240.112 258.198 240.018 257.979 239.88 257.789C239.741 257.6 239.56 257.445 239.352 257.335C238.929 257.13 238.544 256.854 238.213 256.519C237.788 255.342 237.463 254.132 237.242 252.9C237.473 252.099 242.494 255.842 244.805 258.413C247.483 261.261 250.382 263.892 253.475 266.283L258.989 270.765C261.546 272.844 264.087 274.923 266.813 276.771C276.963 283.671 289.115 287.121 301.297 288.722C302.533 288.938 303.792 288.984 305.04 288.861C306.59 288.56 308.082 288.014 309.46 287.244C315.343 284.333 321.643 281.083 324.538 275.154C327.85 268.424 325.739 260.416 323.552 253.254C321.791 246.855 319.467 240.624 316.606 234.635C315.405 232.294 313.002 230.261 311.293 228.259C308.258 224.204 304.119 221.108 299.372 219.342L293.119 216.462C291.979 215.938 290.485 215.445 289.33 214.922C289.176 214.629 289.423 214.259 289.7 214.059C290.342 213.616 290.895 213.057 291.332 212.411" fill="#F9838D"/>
<path d="M240.048 229.322C240.818 229.737 241.711 229.198 242.45 228.736C243.137 228.186 243.975 227.859 244.853 227.797C244.745 228.706 244.653 229.599 244.545 230.507C244.465 230.81 244.465 231.129 244.545 231.431C244.71 231.679 244.944 231.873 245.217 231.99C245.49 232.108 245.792 232.144 246.085 232.094C246.688 231.941 247.312 231.884 247.933 231.924C247.795 232.266 247.74 232.636 247.775 233.004C247.81 233.371 247.933 233.725 248.133 234.034C248.549 234.637 249.071 235.159 249.674 235.574C250.787 236.637 252.248 237.26 253.786 237.33C254.741 237.33 255.649 236.822 256.604 236.806C256.693 236.796 256.782 236.804 256.867 236.831C256.952 236.857 257.031 236.901 257.097 236.96C257.436 237.33 256.774 237.807 256.681 238.285C256.589 238.762 257.143 239.193 257.651 239.147C258.145 239.049 258.597 238.802 258.945 238.439C258.831 239.279 258.993 240.133 259.407 240.872C259.67 241.327 260.043 241.707 260.493 241.976C260.943 242.246 261.455 242.396 261.979 242.412C263.104 242.412 264.212 242.197 265.337 242.197C265.898 242.142 266.463 242.243 266.971 242.487C267.479 242.731 267.91 243.11 268.217 243.583C267.416 243.506 266.353 243.583 266.199 244.399C266.045 245.215 267 245.677 267.74 245.631C268.491 245.455 269.264 245.392 270.034 245.446C269.946 245.783 269.945 246.136 270.032 246.473C270.118 246.809 270.289 247.119 270.527 247.371C271.015 247.87 271.626 248.231 272.298 248.419C272.711 248.615 273.171 248.689 273.624 248.631C274.077 248.574 274.505 248.388 274.855 248.095C275.146 247.611 275.379 247.094 275.548 246.555C275.795 246.062 276.441 245.662 276.888 245.985C275.887 247.741 277.042 249.527 278.336 250.605C278.682 250.853 279.084 251.01 279.506 251.064C279.928 251.118 280.357 251.066 280.754 250.913C281.585 250.667 283.834 249.466 283.942 249.574C284.05 249.681 283.865 250.344 283.849 250.621C283.81 251.167 283.981 251.708 284.327 252.132C284.674 252.556 285.17 252.831 285.713 252.9C288.116 252.9 289.317 251.268 289.24 252.253C289.188 253.187 289.491 254.105 290.087 254.825C290.547 255.312 291.149 255.642 291.806 255.769C292.464 255.896 293.145 255.814 293.753 255.534C295.909 254.579 295.016 253.532 295.293 253.316C295.986 252.823 296.987 254.933 297.31 255.534C297.443 255.751 297.617 255.94 297.823 256.09C298.029 256.24 298.263 256.347 298.511 256.406C298.759 256.464 299.016 256.473 299.267 256.432C299.518 256.391 299.759 256.3 299.975 256.165C300.16 256.042 300.73 255.349 300.945 255.272C301.5 255.025 301.161 255.749 301.946 256.104C303.302 256.689 305.504 255.056 305.504 253.485C305.504 253.147 305.027 252.5 305.242 252.238C305.458 251.976 308.415 252.777 309.432 252.808C310.161 252.923 310.909 252.784 311.548 252.414C312.188 252.044 312.68 251.465 312.943 250.775C313.238 250.047 313.321 249.251 313.185 248.478C313.049 247.704 312.698 246.985 312.173 246.401C311.511 245.585 310.633 245.431 310.448 245.061C310.263 244.692 310.448 243.891 310.802 243.336C311.434 242.12 312.142 241.011 311.618 239.732C310.309 237.761 309.678 238.947 309.016 238.008C308.709 237.385 308.447 236.742 308.23 236.083C307.568 234.388 306.336 233.772 305.735 232.787C307.738 233.695 309.462 234.003 310.818 235.744C313.775 239.548 316.547 243.891 316.547 248.711C316.547 255.364 310.956 261.032 304.549 262.895C298.142 264.759 291.227 263.188 285.128 260.539C279.029 257.89 273.469 254.148 267.555 251.129C262.934 248.757 258.037 246.848 253.462 244.353C248.716 241.583 244.162 238.496 239.832 235.112C239.54 234.897 239.185 234.85 239.031 234.527C239.7 232.808 239.973 230.96 239.832 229.121" fill="#F9838D"/>
<path d="M212.679 237.207C212.486 237.463 212.27 237.7 212.032 237.915C211.248 238.362 210.323 238.494 209.445 238.285C209.122 238.131 211.108 236.899 209.907 235.39C209.547 235.015 209.078 234.762 208.567 234.668C208.055 234.574 207.528 234.643 207.058 234.866C206.785 235.104 206.472 235.291 206.133 235.42C205.829 235.447 205.524 235.383 205.256 235.235C204.604 234.884 203.93 234.575 203.238 234.311C202.891 234.181 202.516 234.138 202.148 234.187C201.781 234.235 201.43 234.373 201.128 234.589C200.787 234.996 200.572 235.494 200.509 236.022C200.447 236.55 200.538 237.085 200.774 237.561C201.113 238.562 200.774 240.965 200.497 240.272C199.265 238.731 198.679 238.731 197.416 239.64C197.076 239.908 196.788 240.237 196.569 240.61L194.321 243.968C194.09 242.208 194.268 240.42 194.839 238.74C195.411 237.06 196.361 235.534 197.616 234.281C198.158 233.716 198.807 233.266 199.526 232.956C200.188 232.732 200.877 232.597 201.575 232.556C204.164 232.086 206.824 232.191 209.368 232.864C210.977 233.652 212.634 234.341 214.327 234.927C215.128 235.097 216.93 235.312 215.991 236.93C215.174 237.499 213.634 236.052 212.617 237.176" fill="#F9838D"/>
<path d="M205.179 219.866C203.346 221.668 196.369 221.852 196.153 222.946C196.015 223.624 197.355 223.701 197.155 224.363C196.662 226.026 194.783 226.796 193.15 227.443C191.517 228.09 189.685 228.983 189.484 230.769C190.809 231.216 190.763 233.234 189.869 234.327C188.976 235.421 187.621 236.021 186.789 237.115C185.249 239.086 185.572 241.92 185.249 244.445C185.091 245.575 184.875 246.695 184.602 247.803C184.325 248.896 183.894 250.159 183.17 250.529C182.446 250.898 181.322 249.99 182.107 251.761C183.293 254.456 181.738 259.461 179.027 260.555C178.268 260.789 177.547 261.131 176.886 261.571C175.885 262.572 177.718 262.695 178.195 264.035C179.135 266.684 178.195 273.815 175.978 275.463C175.469 275.832 173.698 273.014 173.806 273.923C173.844 274.569 173.844 275.217 173.806 275.863C173.773 277.692 173.091 279.45 171.88 280.822C171.556 281.241 171.105 281.545 170.595 281.689C170.085 281.833 169.543 281.81 169.047 281.623C168.207 281.135 167.511 280.434 167.029 279.59C166.567 278.866 164.426 278.45 165.027 278.866C165.418 279.186 165.708 279.612 165.864 280.092C166.02 280.573 166.034 281.088 165.905 281.577C165.304 282.609 163.964 282.424 163.887 281.962C163.795 281.068 163.21 278.373 162.871 279.405C162.674 279.864 162.369 280.269 161.982 280.584C161.594 280.899 161.136 281.115 160.646 281.213C160.157 281.312 159.651 281.29 159.172 281.149C158.692 281.009 158.255 280.754 157.896 280.406C155.463 277.958 153.276 276.618 153.522 277.326C153.804 277.611 153.978 277.985 154.015 278.384C154.051 278.783 153.948 279.182 153.722 279.513C151.35 278.774 148.27 278.327 146.807 280.329C146.175 281.192 145.991 282.362 145.159 283.009C144.602 283.311 143.983 283.48 143.35 283.504C142.717 283.528 142.087 283.406 141.509 283.148C140.569 282.701 140.862 283.825 141.909 284.811C142.494 285.365 143.449 286.182 143.28 286.982C143.179 287.337 143.006 287.668 142.772 287.953C141.94 289.262 142.14 290.94 141.77 292.45C141.401 293.959 139.768 295.453 138.459 294.637C137.797 294.159 138.737 296.885 139.784 296.808C140.119 297.159 140.321 297.615 140.354 298.099C140.388 298.583 140.252 299.063 139.969 299.457C139.682 299.866 139.267 300.166 138.79 300.311C138.312 300.457 137.8 300.438 137.335 300.258C136.241 299.58 136.195 298.856 136.01 298.933C135.806 299.596 135.733 300.291 135.795 300.982C135.163 300.843 132.93 300.535 132.945 300.982C134.901 304.062 138.875 302.522 140.954 302.368C141.617 303.908 139.845 305.71 138.12 305.71C136.395 305.71 141.001 308.359 143.265 308.959C151.166 308.359 151.597 295.283 155.586 293.559C156.772 293.05 157.881 295.468 159.02 296.069C160.614 296.948 161.955 298.22 162.917 299.765C163.718 300.997 165.181 302.414 166.521 301.813C165.304 300.643 165.951 299.842 166.706 299.534C167.633 299.183 168.629 299.051 169.616 299.149C170.041 299.204 170.471 299.204 170.895 299.149C171.511 299.072 171.28 298.672 171.372 298.056C171.867 294.391 172.932 290.826 174.529 287.491C175.685 285.104 177.102 282.87 178.149 280.391C180.983 273.815 181.044 266.222 184.51 259.954C188.653 252.469 189.022 243.598 193.165 236.114C196.488 230.703 201.301 226.366 207.027 223.624C206.141 222.523 205.487 221.256 205.102 219.897" fill="#F9838D"/>
<path d="M303.546 227.766C301.883 224.217 299.692 220.941 297.047 218.048C294.375 215.147 290.816 213.214 286.928 212.55C284.461 212.222 281.952 212.589 279.683 213.609C277.414 214.63 275.475 216.263 274.083 218.326C273.468 219.463 272.794 220.568 272.066 221.637C271.694 222.168 271.205 222.606 270.636 222.916C270.066 223.226 269.433 223.4 268.785 223.423C271.034 225.549 274.515 225.456 277.61 225.379C280.28 225.318 282.955 225.369 285.634 225.533C288.376 225.509 291.075 226.21 293.458 227.566C294.849 228.615 296.07 229.872 297.078 231.293L306.873 243.752C306.457 243.229 306.873 240.164 306.765 239.348C306.565 237.808 306.041 236.483 305.826 235.02C305.483 232.492 304.718 230.04 303.562 227.766" fill="#FE330A"/>
<path d="M273.038 305.201C273.938 302.583 274.345 299.821 274.239 297.054C274.239 295.93 274.239 293.774 273.5 293.974C272.761 294.174 272.53 296.839 272.237 298.271C271.466 300.655 270.514 302.977 269.388 305.217C268.795 307.068 268.504 309.002 268.525 310.946L268.31 316.12C268.31 317.522 268.171 318.723 268.972 318.723C269.773 318.723 270.266 315.52 270.805 313.225C271.402 310.528 272.143 307.865 273.023 305.247" fill="#F9838D"/>
<path d="M180.583 295.345C179.859 296.454 178.642 298.425 179.304 299.041C179.658 299.288 180.136 299.041 180.49 298.795C182.708 297.162 186.204 291.572 186.019 292.634C184.899 295.918 184.317 299.361 184.294 302.83C184.294 303.477 184.464 304.37 185.095 304.37C185.727 304.37 186.389 303.569 186.435 302.83C187.267 288.969 194.213 285.889 193.474 285.889C190.655 285.319 182.847 291.787 180.567 295.268" fill="#F9838D"/>
<path d="M221.505 292.804C224.62 290.964 227.9 289.418 231.301 288.184C236.783 286.012 255.743 291.834 255.743 290.232C255.743 289.015 247.58 287.429 240.849 285.442C238.743 284.748 236.551 284.349 234.335 284.256C228.99 284.256 224.185 287.26 219.734 290.216C218.702 290.91 217.547 291.88 217.763 293.096C217.763 294.144 219.642 293.943 221.428 292.819" fill="#F9838D"/>
<path d="M293.506 263.589C292.616 263.502 291.76 263.196 291.016 262.699C290.272 262.202 289.662 261.529 289.24 260.74C288.978 260.37 288.239 259.2 287.946 259.492C287.654 259.785 288.069 260.262 288.116 260.509C288.152 260.896 288.041 261.283 287.804 261.592C287.566 261.9 287.221 262.108 286.838 262.172C286.061 262.281 285.27 262.146 284.574 261.787C283.074 261.139 281.694 260.244 280.492 259.138C279.999 258.768 279.938 260.986 276.75 259.338C275.64 258.575 274.419 257.988 273.13 257.598C272.884 257.598 272.576 257.598 272.514 257.829C272.453 258.06 272.637 258.168 272.776 258.291C274.963 260.077 277.473 261.464 279.676 263.25C281.216 264.559 282.756 266.068 284.389 267.316C285.99 268.73 287.982 269.627 290.103 269.888C290.457 269.795 289.856 269.01 290.103 268.717C290.349 268.425 291.643 268.255 294.015 269.087C295.093 269.457 294.692 270.288 295 270.165C295.912 269.832 296.866 269.629 297.834 269.564C298.851 269.441 299.883 269.472 300.914 269.426C303.504 269.334 306.067 268.868 308.523 268.04C308.77 267.932 309.039 267.885 309.308 267.901C310.032 268.009 310.509 269.025 311.218 268.841C311.163 268.5 311.225 268.151 311.392 267.849C311.56 267.548 311.824 267.311 312.142 267.177C312.774 266.912 313.429 266.706 314.098 266.561C315.324 266.169 316.371 265.356 317.055 264.266C316.54 264.341 316.015 264.304 315.515 264.159C316.87 262.264 318.78 260.016 319.027 257.706C319.196 257.136 317.656 258.614 317.841 258.06C318.718 256 319.108 253.765 318.98 251.53C318.888 251.053 318.518 251.73 318.364 251.792C318.21 251.853 318.087 251.438 318.087 251.268C318.11 250.178 318.069 249.088 317.964 248.003C317.922 247.11 317.657 246.242 317.194 245.478C317.055 245.293 316.917 245.585 316.793 245.678C316.547 244.553 315.253 242.243 315.253 242.598C315.654 245.57 317.178 248.481 316.562 251.422C316.377 251.946 315.885 250.052 315.746 250.683C315.577 251.592 315.407 252.778 315.161 253.671C314.914 254.564 314.499 255.457 313.621 255.611C313.112 255.688 312.08 255.842 311.942 256.166C311.803 256.489 313.343 256.535 313.189 257.444C313.126 257.733 312.994 258.002 312.804 258.229C312.478 258.819 312.037 259.338 311.509 259.755C310.98 260.173 310.373 260.482 309.724 260.663C309.82 260.278 309.82 259.876 309.724 259.492C309.627 259.108 309.437 258.753 309.17 258.46C308.977 259.294 308.544 260.053 307.926 260.643C307.308 261.234 306.53 261.632 305.689 261.787C305.516 261.833 305.336 261.844 305.159 261.821C304.982 261.797 304.811 261.738 304.657 261.648C304.133 261.263 304.256 260.432 303.902 259.877C303.865 259.799 303.799 259.739 303.718 259.708C303.44 259.708 303.379 260.062 303.379 260.339C303.36 260.689 303.252 261.027 303.066 261.324C302.88 261.62 302.622 261.864 302.316 262.033C301.696 262.362 301.014 262.556 300.314 262.603C299.556 262.778 298.767 262.777 298.009 262.601C297.251 262.425 296.543 262.078 295.94 261.587C295.74 261.387 295.493 261.125 295.231 261.217C294.97 261.31 294.923 261.648 294.985 261.926C295.098 262.174 295.171 262.439 295.201 262.711C295.201 263.358 294.215 263.604 293.568 263.543" fill="#F86775"/>
<path d="M267.588 202.124C267.492 202.046 267.426 201.937 267.403 201.816C267.399 201.697 267.431 201.579 267.495 201.477L268.219 199.937C269.778 200.76 271.56 201.057 273.301 200.784C275.05 200.501 276.666 199.677 277.922 198.428C278.868 197.409 279.479 196.124 279.672 194.747C279.865 193.37 279.63 191.967 279 190.728C278.626 190.036 278.159 189.399 277.614 188.833C276.253 187.331 274.453 186.296 272.47 185.876C271.992 185.753 272.008 185.645 272.038 185.199C272.008 184.63 272.153 184.065 272.454 183.582C272.55 183.553 272.651 183.553 272.747 183.582C274.198 183.514 275.647 183.756 276.998 184.29C278.516 184.962 279.851 185.986 280.894 187.278C282.523 189.094 283.398 191.462 283.343 193.9C283.412 196.353 282.603 198.75 281.064 200.661C279.468 202.557 277.21 203.774 274.749 204.065C273.494 204.239 272.217 204.162 270.993 203.837C269.768 203.511 268.621 202.945 267.618 202.17" fill="#FE330A"/>
</svg>
