<svg width="338" height="480" viewBox="0 0 338 480" fill="none" xmlns="http://www.w3.org/2000/svg">
<path d="M321 0H17C7.61116 0 0 7.61114 0 17V462.11C0 471.499 7.61115 479.11 17 479.11H321C330.389 479.11 338 471.499 338 462.11V17C338 7.61116 330.389 0 321 0Z" fill="#FCCD3F"/>
<g clip-path="url(#clip0)">
<path d="M105.798 277.671C105.159 277.019 104.39 276.498 103.536 276.139C102.681 275.78 101.76 275.591 100.828 275.583C67.4622 273.552 34.0487 272.607 0.587502 272.749L9.17774 272.597L0.0793922 272.673C0.0793922 283.674 0.0793922 290.637 0.0793922 301.867C16.7835 302.537 30.9312 302.674 51.4461 302.674C60.5127 302.674 70.7543 302.476 79.027 298.911C83.0103 296.984 86.7413 294.611 90.1419 291.841L104.067 281.419C104.026 283.59 103.619 285.741 102.861 287.788C100.622 292.359 90.3483 298.957 85.6006 301.882C80.3608 305.097 75.5178 308.373 69.4523 309.714C56.3208 312.609 6.38313 309.988 0 309.714V313.294C6.93888 313.66 17.4663 314.178 28.5812 314.422C22.8649 322.696 12.02 333.864 0.20642 343.372V349.467C15.021 338.557 29.645 321.599 34.0592 314.559C48.9691 314.772 63.8789 314.392 71.3736 312.426C78.4712 310.582 82.8537 307.169 88.8398 303.131C94.1432 299.581 99.2402 296.473 102.892 292.313C106.544 288.154 108.497 281.16 105.75 277.716" fill="white"/>
<path fill-rule="evenodd" clip-rule="evenodd" d="M237.559 122.866C238.419 123.554 239.367 124.105 240.375 124.544C239.529 126.11 238.792 127.771 238.154 129.511L237.798 129.442C236.12 129.012 234.374 128.888 232.649 129.077C231.795 129.202 230.992 129.542 230.319 130.062C229.647 130.582 229.131 131.263 228.822 132.037C227.981 134.479 228.922 135.229 230.184 135.094V135.132C230.663 134.877 231.098 135.266 231.529 135.651L231.53 135.652C231.748 135.847 231.966 136.042 232.188 136.151C233.193 136.598 234.164 135.634 234.971 134.832L234.978 134.825L234.982 134.821C235.04 134.763 235.097 134.707 235.153 134.652C235.681 134.126 236.284 133.681 236.94 133.326C236.475 134.99 236.057 136.667 235.639 138.342L235.639 138.342C234.321 143.626 233.009 148.887 230.244 153.646C228.384 156.852 225.925 159.713 223.463 162.576C221.495 164.864 219.527 167.154 217.862 169.622C214.397 174.809 212.325 180.739 211.832 186.882C211.807 187.189 211.787 187.496 211.77 187.803C211.077 188.368 210.489 189.043 210.031 189.8C209.483 190.706 209.134 191.71 209.005 192.75C209.005 194.804 210.749 196.341 212.58 197.556C213.135 200.044 213.957 202.479 215.038 204.824C216.056 207.27 217.662 209.45 219.726 211.187C223.077 213.785 227.713 214.348 232.061 213.472C231.989 213.626 231.938 213.789 231.909 213.956C231.993 214.512 232.276 215.022 232.711 215.398C233.298 216.101 233.681 216.882 233.907 217.712C227.707 220.016 221.599 222.547 215.597 225.298C213.38 226.256 211.316 227.512 209.467 229.028C207.83 230.621 206.416 232.411 205.259 234.353C196.488 247.712 189.316 255.048 176.94 267.708L176.94 267.708L176.939 267.708L176.925 267.723L176.921 267.728L176.91 267.739C174.511 270.193 171.916 272.847 169.077 275.784C161.223 283.877 144.014 279.494 101.119 258.885C100.735 258.738 100.254 258.776 99.7034 258.97C99.5416 258.867 99.3722 258.774 99.1962 258.692C98.8907 258.503 96.0383 256.813 95.425 256.494L94.6352 255.869L94.6345 255.868L94.6246 255.86L94.6203 255.857C93.7592 255.175 92.8988 254.493 92.0428 253.81L92.1426 253.906C85.8402 248.877 79.5378 243.849 73.0609 239.044C73.6612 238.797 74.3229 238.607 75.0192 238.448C78.4562 237.862 81.7139 236.549 84.5557 234.603C87.3606 232.392 87.7813 228.855 87.3606 225.567L87.3005 225.606C86.2679 225.04 84.2641 224.64 81.8615 224.358C81.8551 224.123 81.8194 223.889 81.7551 223.662C83.8524 222.862 86.8154 221.653 87.2361 221.472C87.4006 221.405 87.5595 221.34 87.7126 221.277C89.7403 220.45 90.7621 220.033 90.7621 219.3C90.7621 218.512 89.0792 219.165 88.7587 219.3L83.6899 221.434L83.401 221.568L83.4002 221.569C82.6387 221.923 81.9738 222.233 81.2112 222.602C79.5702 220.501 75.7172 221.212 74.5152 223.588H74.5753C74.5375 223.669 74.504 223.751 74.4748 223.834C70.6348 223.683 67.0934 223.683 65.6029 223.683C54.2233 223.683 47.0509 224.414 44.807 225.356C44.5696 226.899 44.683 228.473 45.1395 229.969C45.596 231.466 46.3848 232.85 47.4516 234.027C49.5228 236.053 52.2085 237.398 55.1248 237.872C56.7901 238.095 58.4419 238.404 60.0734 238.794C60.9136 238.987 61.7033 239.345 62.3928 239.844C63.0823 240.344 63.6569 240.975 64.0803 241.697C64.5052 242.706 64.7294 243.782 64.7414 244.87C64.7764 245.601 64.8473 246.68 64.9332 247.987L64.9332 247.987L64.9333 247.988C65.1633 251.489 65.501 256.628 65.5444 261.113C64.7882 261.7 63.9971 262.246 63.1747 262.749L63.1947 262.787C62.7593 263.01 62.3772 263.318 62.0728 263.691C61.9113 263.988 61.8269 264.317 61.8269 264.652C61.8269 264.987 61.9113 265.317 62.0728 265.613C62.9531 266.779 63.9537 267.851 65.0572 268.815C65.0211 268.968 64.9827 269.113 64.9418 269.247C64.298 271.227 59.1238 272.519 56.1299 273.267C55.0242 273.544 54.2159 273.746 54.0429 273.88L53.9684 273.938L53.9084 273.985L53.9043 273.988C53.2913 274.46 52.606 274.988 52.941 275.649C53.1955 275.983 53.5311 276.252 53.9187 276.433C54.3063 276.614 54.7341 276.701 55.1649 276.687C63.0968 277.601 71.1142 277.601 79.0462 276.687C79.2374 276.7 79.4276 276.669 79.6016 276.597C80.0147 276.759 80.4292 276.917 80.8452 277.071C80.8544 277.062 80.8635 277.052 80.8725 277.042C80.8856 277.028 80.8985 277.013 80.9112 276.999C81.5401 277.261 82.1573 277.516 82.7686 277.765C82.7878 277.895 82.821 278.023 82.868 278.148C83.0685 278.481 83.3686 278.749 83.7295 278.917L86.0134 280.301C86.2011 280.437 86.4113 280.54 86.6341 280.606C86.8893 281.279 87.3078 281.847 87.9166 282.282C118.65 304.256 150.024 320.175 169.277 316.176C175.153 314.963 185.673 309.497 192.366 303.47C191.365 305.728 190.206 307.872 188.831 309.851L171.401 334.978C171.042 335.408 170.709 335.856 170.403 336.318C164.895 335.566 159.193 335.008 153.072 334.556C133.615 332.794 114.053 332.344 94.5309 333.21C90.165 333.297 85.8449 334.084 81.7488 335.536C77.7725 337.136 74.1488 339.445 71.0703 342.342C49.656 362.516 38.0765 377.838 15.7606 407.367L15.7604 407.367L15.76 407.367L15.7598 407.368L15.7596 407.368C10.8517 413.862 5.4245 421.043 -0.74078 429.114C-1.97457 429.91 -3.30692 430.757 -4.69617 431.639L-4.70866 431.647L-4.71341 431.65C-13.7594 437.398 -25.2082 444.673 -27.5638 449.392L-27.5438 449.45C-30.6042 455.654 -23.8264 456.561 -13.7508 457.908C-8.58977 458.599 -2.56343 459.405 3.44918 461.098L3.59554 461.139C9.52105 462.807 13.2705 463.863 18.0794 461.098C22.0406 458.823 26.0536 454.171 28.8649 445.903C29.9058 446.275 30.6108 446.485 30.8608 446.485C38.807 442.531 49.3029 427.799 60.268 412.408C66.7614 403.294 73.4193 393.949 79.8096 386.475C80.0143 410.853 93.7027 458.031 109.217 502.545C109.357 502.943 109.887 503.233 110.719 503.429C107.918 512.902 101.022 539.24 107.035 542.784L107.014 542.861C109.646 544.414 112.049 543.186 115.521 541.412C115.865 541.237 116.218 541.056 116.584 540.872L116.121 543.431L116.119 543.442C112.653 562.585 109.987 577.318 109.175 581.561L109.195 581.581H118.531C123.469 565.173 127.274 550.571 130.535 536.678C131.995 536.548 133.561 536.494 135.243 536.536C138.224 536.802 139.068 533.26 139.596 531.044C139.944 529.58 140.155 528.695 140.753 529.865L140.794 529.951C141.748 531.931 142.226 532.922 142.937 532.979C145.24 533.219 147.565 533.219 149.869 532.979C150.97 532.64 146.368 512.146 141.92 499.179C142.19 499.064 142.436 498.949 142.655 498.835C143.957 498.162 145.42 496.912 145.38 496.047C145.039 489.705 144.275 483.241 143.223 476.81C146.847 459.356 150.963 440.545 156.677 418.325C159.189 418.366 161.633 418.396 163.938 418.423H163.938L163.947 418.424C166.641 418.456 169.144 418.486 171.345 418.531C174.812 418.601 178.228 418.631 181.618 418.638C181.612 418.921 181.613 419.213 181.621 419.512C182.222 441.641 186.63 549.225 189.976 581.6V581.581H198.691C200.168 547.05 199.937 441.289 198.35 418.559C203.313 418.523 208.309 418.496 213.418 418.531C217.423 418.63 221.427 418.531 225.413 418.234C234.22 453.495 247.015 511.322 255.165 548.153L255.165 548.154L255.166 548.158L255.166 548.159L255.167 548.16L255.168 548.167L255.17 548.175L255.172 548.185L255.176 548.201C258.97 565.35 261.756 577.938 262.659 581.561H271.675C269.537 570.297 265.796 549.552 261.618 526.378L261.617 526.377L261.614 526.357L261.61 526.336L261.598 526.272L261.598 526.267L261.597 526.263L261.596 526.258C253.597 481.894 244.002 428.681 240.978 416.048C242.496 415.733 244.008 415.389 245.513 415.015C245.564 415.018 245.614 415.018 245.665 415.012C245.701 415.008 245.736 415.002 245.772 414.994C252.203 413.417 266.668 404.228 274.942 385.81C280.511 373.102 284.473 359.799 286.743 346.187C288.285 337.535 290.109 326.673 290.75 317.926C290.85 316.651 291.184 314.411 291.572 311.814L291.572 311.814L291.572 311.812L291.572 311.811C292.417 306.142 293.516 298.776 292.994 296.047C292.953 295.75 292.888 295.458 292.8 295.172C292.902 295.432 292.987 295.698 293.054 295.969C293.624 296.178 294.199 296.377 294.791 296.581L294.792 296.581C295.323 296.765 295.868 296.953 296.434 297.157C296.264 297.744 296.086 298.329 295.899 298.912C318.238 313.408 324.789 316.599 342.7 323.905C349.392 326.419 356.53 327.66 363.717 327.557C370.869 327.557 378.462 320.982 380.886 314.1C384.186 304.672 378.386 295.227 374.226 288.453L374.22 288.442L374.215 288.435L374.208 288.424L374.187 288.389C373.992 288.071 373.8 287.759 373.614 287.454C368.233 278.322 362.257 269.525 355.723 261.115C333.043 232.508 321.884 221.588 310.144 216.07L310.118 216.079L310.141 216.012C302.036 211.958 293.489 208.773 284.657 206.515C282.251 205.843 279.781 205.405 277.284 205.208C275.055 205.082 272.711 205.277 270.312 205.689C270.367 205.529 270.463 205.285 270.583 204.982L270.583 204.981C271.331 203.091 272.973 198.938 270.897 198.922L270.837 198.883C270.002 198.877 269.194 198.881 268.412 198.894C269.129 196.096 270.021 193.114 271.005 190.065C272.805 192.559 276.788 192.961 280.111 192.961L280.139 192.962L280.163 192.963L280.185 192.964C281.158 196.774 283.497 200.136 286.802 202.452C290.288 204.895 294.598 206 298.893 205.55C303.166 204.897 307.179 203.146 310.509 200.481C313.838 197.816 316.359 194.337 317.805 190.412C320.593 182.469 320.581 173.871 317.772 165.951C315.999 161.696 314.85 157.223 314.357 152.66C314.319 150.333 314.769 148.001 315.216 145.683L315.216 145.682C315.881 142.236 316.54 138.82 315.582 135.497C314.47 132.456 312.273 129.896 309.381 128.272C306.489 126.647 303.089 126.064 299.785 126.625C299.058 126.739 298.353 126.896 297.67 127.091C296.934 126 295.939 124.977 294.677 123.943C293.853 123.404 293.111 122.757 292.474 122.02C291.831 120.773 291.47 119.411 291.412 118.021C290.17 110.677 281.755 105.698 274.142 104.295C266.529 102.891 258.635 104.948 251.643 108.14C248.117 109.716 243.629 111.639 240.664 109.139C240.106 108.769 239.793 109.3 239.04 110.579C238.739 111.091 238.366 111.723 237.879 112.465C237.518 112.235 237.091 111.839 236.663 111.443C235.806 110.652 234.947 109.857 234.614 110.37C233.664 112.484 233.437 114.832 233.966 117.078C234.496 119.323 235.753 121.35 237.559 122.866ZM284.156 291.728C284.062 291.821 283.968 291.915 283.874 292.009C284.566 291.615 285.314 291.31 286.102 291.106C286.876 290.99 287.666 291.019 288.428 291.193C287.641 290.934 286.796 290.873 285.975 291.018C285.322 291.134 284.703 291.376 284.156 291.728ZM241.586 388.732C241.522 388.767 241.457 388.802 241.393 388.836C245.368 385.137 248.811 377.439 250.821 370.713C251.601 371.159 252.381 371.603 253.162 372.044C255.787 373.537 262.694 350.263 265.334 324.077C266.127 323.212 266.895 322.331 267.664 321.45L267.665 321.449L267.665 321.449L267.665 321.449L267.666 321.448C268.83 320.113 269.997 318.775 271.256 317.483C271.337 317.402 271.43 317.307 271.534 317.199C271.626 317.104 271.726 317 271.835 316.887C274.033 314.606 279.53 308.903 281.995 310.12C284.719 311.466 280.111 345.36 277.407 355.915C273.622 370.784 264.591 398.991 247.499 405.158L247.485 405.088C251.995 401.776 244.981 385.474 241.586 388.732ZM139.339 417.738C138.28 422.922 136.723 431.028 134.865 440.928C132.333 432.169 129.744 424.182 127.583 417.513L127.583 417.512L127.261 416.52C130.705 417.083 134.872 417.469 139.339 417.738ZM267.744 198.908C266.37 198.927 264.999 198.995 263.632 199.109C264.92 199.011 266.287 198.943 267.744 198.908ZM238.774 210.79C238.745 210.808 238.716 210.827 238.686 210.845C238.893 211.313 239.099 211.821 239.296 212.317L239.247 212.172C239.218 212.087 239.19 212.003 239.162 211.918C239.134 211.84 239.089 211.736 239.039 211.621L239.039 211.62C238.919 211.342 238.77 210.999 238.774 210.79ZM190.205 340.124L190.135 340.106C190.135 339.272 190.135 338.161 190.124 336.992C190.178 338.035 190.205 339.079 190.205 340.124ZM190.115 340.053L190.125 340.104L190.091 340.095C190.101 340.088 190.108 340.08 190.111 340.071C190.114 340.066 190.115 340.06 190.115 340.053ZM240.841 214.86C240.842 214.821 240.843 214.782 240.843 214.743L240.845 214.633L240.865 214.783C240.857 214.811 240.849 214.837 240.841 214.86ZM-44.2532 308.178C-39.6051 308.178 -34.2358 308.178 -29.6479 308.005C-26.2085 308.149 -22.8049 307.284 -19.891 305.525C-18.6 304.572 -17.6311 303.304 -16.6596 302.033C-15.8672 300.996 -15.0731 299.957 -14.101 299.085C-10.2228 295.6 -4.51414 295.449 0.90929 295.306C1.64954 295.287 2.38448 295.267 3.10873 295.24C17.5136 294.778 19.1364 293.317 19.1364 291.51C19.1364 291.48 19.1309 291.45 19.1202 291.421C19.6378 289.578 14.8035 288.528 8.41791 287.569C0.602016 286.524 -7.24675 285.743 -15.1138 285.228C-14.7758 284.748 -14.4315 284.218 -14.0496 283.63L-14.0485 283.628C-13.8505 283.324 -13.6425 283.004 -13.4198 282.667C-12.7587 281.667 -11.9573 280.283 -11.4164 279.264C-10.5303 277.613 -9.12955 276.269 -7.40945 275.419C-5.22697 274.296 -1.96113 272.838 1.47926 271.302L1.47983 271.302C9.17426 267.867 17.7415 264.043 17.0151 262.701C17.0152 262.691 17.0144 262.681 17.0128 262.672C16.6205 260.402 2.59196 261.499 -12.8256 263.535C-10.1981 260.215 -6.2043 259.442 -2.79979 259.097C0.265667 258.779 3.19794 258.549 6.1056 258.321H6.10585C10.4194 257.983 14.6787 257.648 19.2383 257.04C21.1808 256.779 24.1967 256.319 23.8673 254.609C23.8678 254.601 23.8681 254.593 23.8684 254.585L23.8686 254.574L23.8688 254.559C23.8688 253.79 23.0874 253.232 21.5848 252.886C20.9523 252.747 20.3193 252.615 19.6858 252.49C19.7509 252.445 19.8149 252.397 19.8777 252.348H19.9378C20.2584 252.118 18.0546 249.83 17.1931 249.119C8.01722 241.679 -36.1992 222.473 -44.2532 220.55V234.296L-44.2078 234.318V246.851L-44.229 246.849V252.119L-44.2715 252.118V276.053L-44.2532 276.056V277.245V282.146V284.532V290.472V294.182L-44.2025 294.185L-44.2532 308.178Z" fill="#FFFFFE"/>
</g>
<defs>
<clipPath id="clip0">
<rect width="337.718" height="479.11" fill="white"/>
</clipPath>
</defs>
</svg>
