<svg width="337" height="480" viewBox="0 0 337 480" fill="none" xmlns="http://www.w3.org/2000/svg">
<path d="M319.232 0H17.8281C8.43929 0 0.828125 7.61115 0.828125 17V462.109C0.828125 471.498 8.43929 479.109 17.8281 479.109H319.232C328.621 479.109 336.232 471.498 336.232 462.109V17C336.232 7.61116 328.621 0 319.232 0Z" fill="#7D52A7"/>
<path d="M299.973 27.2896H300.787C301.299 27.2817 301.701 27.147 301.994 26.8853C302.287 26.6235 302.434 26.27 302.434 25.8247C302.434 24.8247 301.936 24.3247 300.939 24.3247C300.471 24.3247 300.096 24.4595 299.814 24.729C299.537 24.9946 299.398 25.3481 299.398 25.7896H298.314C298.314 25.1138 298.561 24.5532 299.053 24.1079C299.549 23.6587 300.178 23.4341 300.939 23.4341C301.744 23.4341 302.375 23.647 302.832 24.0728C303.289 24.4985 303.518 25.0903 303.518 25.8481C303.518 26.2192 303.396 26.5786 303.154 26.9263C302.916 27.2739 302.59 27.5337 302.176 27.7056C302.645 27.854 303.006 28.1001 303.26 28.4438C303.518 28.7876 303.646 29.2075 303.646 29.7036C303.646 30.4692 303.396 31.0767 302.896 31.5259C302.396 31.9751 301.746 32.1997 300.945 32.1997C300.145 32.1997 299.492 31.9829 298.988 31.5493C298.488 31.1157 298.238 30.5435 298.238 29.8325H299.328C299.328 30.2817 299.475 30.6411 299.768 30.9106C300.061 31.1802 300.453 31.3149 300.945 31.3149C301.469 31.3149 301.869 31.1782 302.146 30.9048C302.424 30.6313 302.562 30.2388 302.562 29.7271C302.562 29.231 302.41 28.8501 302.105 28.5845C301.801 28.3188 301.361 28.1821 300.787 28.1743H299.973V27.2896Z" fill="#7D52A7"/>
<path d="M131.431 219.31C126.995 218.73 124.267 212.742 124.847 208.604C124.934 207.019 125.37 205.472 126.123 204.074C126.876 202.676 127.929 201.461 129.205 200.516C130.333 199.685 133.908 198.149 130.443 196.817C127.904 195.829 122.245 200.689 122.292 208.259C122.292 209.654 123.53 215.109 123.295 215.501C120.646 218.464 117.511 208.181 116.304 203.385C113.984 198.463 113.812 206.99 116.461 215.062C107.056 212.068 97.6504 223.934 93.8883 231.317C88.9976 241.113 87.4769 250.377 88.0412 261.6C88.5585 271.741 90.2045 283.247 93.6061 292.087C93.9823 293.075 95.2989 295.332 96.8508 295.034C98.4027 294.736 98.4183 293.796 98.4183 292.448C98.7789 284.61 100.801 277.008 101.914 270.754C102.904 264.89 104.393 259.122 106.366 253.512C108.015 248.482 110.229 243.654 112.965 239.123C115.892 234.431 119.285 230.046 123.092 226.034C124.769 224.342 131.415 219.686 131.399 219.341" fill="#8AD2D4"/>
<path d="M94.421 343.155C89.0627 343.04 83.7025 343.25 78.3695 343.782C75.9754 344.045 73.6489 344.741 71.5037 345.835C65.2335 348.782 63.9795 354.331 64.6692 361.04C65.4844 369.159 68.8546 377.247 70.9394 385.257C81.5516 424.757 101.867 474.931 103.434 479.148H135.412C136.431 475.088 130.96 392.702 127.731 382.482C124.847 373.407 117.338 343.719 94.3425 343.186" fill="#E7A617"/>
<path d="M168.643 420.321C159.457 419.961 136.085 421.23 120.645 428.394C105.205 435.557 98.6054 443.096 101.944 455.73C105.988 471.028 119.422 477.518 123.106 479.116H319.04C328.429 479.116 336.04 471.512 336.04 462.123C336.04 445.978 336.04 425.516 336.04 418.174C321.054 418.017 183.989 420.885 168.69 420.29" fill="#2B2729"/>
<path d="M272.116 317.59C273.009 315.568 276.661 311.477 278.386 308.875C281.395 304.47 293.951 282.228 295.754 275.268C298.795 263.528 297.322 248.449 293.951 236.991C287.415 215.047 281.192 196.582 270.642 176.064C268.212 171.362 265.218 165.828 259.544 164.214C255.374 163.023 247.474 163.383 243.069 163.885C221.124 166.361 239.934 186.127 249.59 218.887C252.725 229.389 255.186 239.703 247.521 251.067C244.684 255.283 242.082 259.296 241.094 264.233C240.404 267.698 242.145 271.397 243.32 274.547C244.888 278.67 246.063 282.886 247.756 286.805C252.271 297.244 259.403 307.291 266.034 316.179C268.244 319.126 269.655 320.709 272.069 316.712C271.63 316.994 271.896 317.261 271.708 317.59" fill="#8AD2D4"/>
<path d="M289.892 171.707C288.058 176.581 287.337 177.114 269.812 178.65C263.997 179.152 255.705 179.528 249.811 179.528C238.195 179.528 228.524 180.437 216.892 179.904C212.989 179.716 205.402 179.716 201.327 179.23C202.001 176.456 202.659 173.682 203.224 170.092C203.71 166.957 207.926 146.58 205.465 144.464C200.951 140.577 199.477 147.599 199.336 163.18C199.336 168.133 200.778 175.719 196.875 178.494C193.395 180.923 192.172 164.794 192.298 161.706C192.972 144.919 198.286 137.505 202.612 137.944C205.747 138.257 208.036 138.806 211.202 139.292C216.689 140.138 258.793 144.48 267.101 145.326C285.911 147.254 288.309 146.737 290.237 153.477C292.043 159.45 291.889 165.843 289.799 171.722" fill="#8AD2D4"/>
<path d="M226.345 136C230.797 136.188 237.788 141 242.522 141C248.071 141 253.964 139.245 256.237 138.931C260.94 138.931 263.558 140.499 266.536 144.402C269.514 148.305 269.671 155.06 268.103 159.872C265.486 168.478 257.836 182.475 247.475 180.453C240.249 179.027 233.477 167.396 228.962 162.051C223.366 155.436 214.087 136.799 226.313 136" fill="#8AD2D4"/>
<path d="M277.54 310.113C272.147 316.712 262.319 294.548 255.594 284.329C252.418 279.339 249.746 274.046 247.616 268.529C246.722 266.303 243.101 259.343 245.766 253.763C243.712 251.193 234.589 262.133 233.461 263.905C230.686 268.262 228.257 273.2 227.943 278.404C227.771 281.382 228.084 283.639 226.956 286.053C226.109 287.855 203.239 312.7 198.63 317.919C194.915 322.167 215.873 364.3 220.482 381.338C225.796 374.473 244.684 346.274 250.265 340.914C252.208 339.346 253.933 340.224 255.5 341.509C259.984 346.071 283.058 313.436 277.446 310.16" fill="#FE330A"/>
<path d="M210.544 290.583C214.698 294.344 219.651 298.577 224.056 302.433C228.022 305.912 231.063 306.32 228.915 311.978C227.348 316.289 225.624 320.521 224.056 324.847C222.677 328.672 220.435 332.152 225.969 332.873C231.925 334.048 230.06 335.584 229.323 346.478C228.691 356.126 228.608 365.803 229.072 375.46C230.326 403.016 231.063 415.822 230.53 419.772H228.837C226.11 419.945 226.031 405.838 225.389 402.53C224.62 398.596 223.915 392.044 223.414 388.157C221.924 376.479 222.426 371.887 220.811 364.081C218.241 351.541 215.795 341.65 212.613 329.471C210.896 323.754 209.999 317.822 209.948 311.853C209.948 308.263 209.008 289.501 210.56 290.551" fill="#E7A617"/>
<path d="M197.03 213.213C196.858 216.159 194.773 217.366 193.817 219.874C193.371 221.062 193.215 222.338 193.363 223.598C193.51 224.857 193.956 226.064 194.663 227.116C208.191 248.12 210.339 270.096 210.95 276.945C212.016 289.861 213.192 300.457 212.518 318.483C212.47 324.234 211.829 329.965 210.605 335.584C211.091 322.841 192.155 311.43 181.935 308.436C177.483 307.119 172.969 307.385 168.454 306.727C163.94 306.069 159.3 304.439 154.613 304.094C143.813 303.294 133.169 301.413 122.353 300.473C118.513 300.144 114.673 299.909 110.832 299.595C107.885 299.344 101.145 300.018 98.5741 298.498C97.6023 269.484 106.553 243.01 118.952 229.216C125.922 221.726 134.549 215.972 144.142 212.413C147.653 211.159 152.513 210.329 155.507 207.805C159.896 204.09 160.821 198.243 163.25 193.463C167.169 185.735 175.383 185.171 178.926 193.29C182.061 199.294 181.324 203.871 188.331 206.159C192.171 207.413 197.375 208.009 197.062 213.244" fill="#2E1DD6"/>
<path d="M228.805 419.804C226.956 413.079 222.708 369.159 222.708 361.62C222.708 354.692 222.378 347.842 222.049 340.976C222.154 339.968 222.006 338.95 221.617 338.013C221.228 337.077 220.612 336.253 219.823 335.616C214.243 329.064 211.641 326.901 208.741 318.374C206.923 313.06 207.032 304.658 200.653 303.091C180.525 298.122 108.654 289.924 95.9414 293.232C92.9161 294.015 92.3987 293.859 91.3955 297.182C90.5441 300.207 90.2991 303.371 90.6745 306.492C90.9724 311.195 93.935 315.897 97.3679 319.032C97.4933 318.938 97.4776 318.907 97.3679 318.907C93.675 322.434 91.1622 327.016 90.173 332.026C88.4644 338.813 90.5648 347.042 93.982 353.014C97.3438 359.291 101.196 365.292 105.503 370.962C113.153 380.178 121.696 384.316 121.602 385.304C121.508 386.291 113.623 383.737 105.472 375.821C104.045 374.41 97.2581 367.2 94.4992 360.146C93.496 361.259 96.976 377.859 97.7441 380.523C101.788 394.85 108.325 424.631 116.351 430.431C129.769 422.939 148.093 421.136 162.922 420.18C168.236 419.835 173.095 426.716 177.406 429.757C181.356 432.531 195.511 437.171 204.65 431.089C207.413 429.165 209.838 426.798 211.829 424.083C213.052 422.515 213.71 420.587 215.168 419.898C218.632 419.898 223.444 420.133 228.868 419.694" fill="#FE330A"/>
<path d="M151.933 264.908C159.661 270.425 164.787 280.99 168.628 289.454C172.907 298.859 177.61 307.527 184.758 315.192C192.909 323.938 202.094 333.609 208.741 345.24C214.305 354.958 219.713 369.441 218.569 392.655C218.262 399.054 216.662 405.325 213.867 411.089C211.813 415.148 207.847 421.058 202.894 420.964C200.379 421.056 197.879 420.533 195.612 419.44C193.345 418.347 191.379 416.718 189.883 414.694C187.781 411.673 186.192 408.326 185.181 404.788C184.256 401.802 183.574 398.745 183.143 395.649C180.494 368.156 167.624 355.146 158.063 346.666C152.392 341.895 147.234 336.547 142.669 330.709C138.359 324.926 133.484 319.408 131.462 312.433C127.982 300.379 129.596 288.137 134.424 276.789C136.29 272.416 139.017 266.71 143.563 264.61C144.83 263.896 146.271 263.548 147.724 263.606C149.178 263.664 150.586 264.126 151.792 264.939" fill="#8AD2D4"/>
<path d="M336.172 409.502C332.221 406.445 320.496 404.126 313.082 408.138C308.05 410.881 275.116 445.099 273.705 451.604C273.296 454.072 273.501 456.603 274.302 458.973C275.103 461.343 276.475 463.48 278.298 465.194C279.745 466.338 281.417 467.165 283.205 467.618C284.994 468.072 286.858 468.143 288.675 467.827C293.691 466.589 300.056 462.435 306.388 458.846C313.787 454.66 320.057 449.848 326.939 445.005C329.118 443.437 333.883 440.036 336.109 438.641C336.109 434.816 336.109 414.941 336.109 409.502" fill="#8AD2D4"/>
<path d="M278.418 359.661C277.571 377.671 275.941 391.856 274.107 408.847C273.386 415.619 272.367 427.986 271.16 435.855C270.094 442.846 267.853 444.131 256.488 444.131C249.904 444.131 245.108 444.256 244.136 437.861C242.929 429.804 236.549 370.304 236.157 363.908C235.843 358.767 240.107 355.867 244.261 355.272C253.776 353.908 278.418 353.062 278.418 359.692" fill="#8AD2D4"/>
<path d="M258.368 479.132C258.838 473.74 256.346 465.432 251.047 464.523C245.279 463.536 178.157 457.501 177.029 457.924C174.097 459.006 172.326 464.805 171.762 467.407C170.81 471.233 170.414 475.177 170.586 479.116C174.05 479.116 176.966 479.116 179.239 479.116C178.924 476.693 178.746 474.255 178.706 471.812C178.596 469.241 180.509 464.601 182.39 468.677C183.55 471.2 182.248 476.373 182.703 479.147H258.368" fill="#8AD2D4"/>
<path d="M331.055 433.158C325.334 433.158 320.239 432.155 316.32 427.797C311.226 422.139 313.781 413.91 312.574 413.471C310.395 412.421 310.536 422.515 311.006 424.443C312.119 429.381 315.239 431.763 312.997 433.237C310.756 434.349 308.53 433.409 306.962 435.713C305.128 438.409 308.091 439.6 307.715 441.732C307.338 443.864 298.31 450.071 304.329 451.764C307.809 452.736 310.599 447.062 313.295 446.482C317.042 445.604 319.111 448.943 321.854 444.522C324.08 440.933 322.261 436.936 327.701 436.951C329.656 437.013 331.602 436.655 333.407 435.901C336.322 433.832 333.266 433.048 331.071 433.174" fill="#E7A617"/>
<path d="M266.598 359.237C266.598 346.275 279.906 335.914 291.678 340.428C305.316 345.601 309.47 366.746 296.632 376.244C294.316 377.9 291.621 378.946 288.794 379.285C286.662 379.567 282.352 380.288 280.392 379.285C278.433 378.282 279.217 366.166 280.627 359.645C282.728 356.118 287.509 364.191 289.594 366.26C291.161 367.827 296.836 369.395 295.127 364.833C293.873 361.448 289.939 359.535 287.289 357.937C282.477 354.99 286.506 352.78 288.23 349.174C288.716 348.14 289.938 344.739 288.731 344.018C286.929 342.936 285.753 346.322 285.33 347.293C283.543 351.353 284.092 354.896 278.934 353.83C277.367 353.501 273.73 349.707 272.021 350.209C269.435 350.961 271.222 353.516 271.692 354.911C273.26 359.614 266.504 363.391 266.504 359.3" fill="#E7A617"/>
<path d="M275.455 363.062C274.75 377.592 268.699 370.225 267.523 368.125C265.736 364.99 266.457 363.751 269.357 362.56C271.033 361.742 272.835 361.212 274.687 360.993C275.439 360.993 275.439 361.761 275.439 362.999" fill="#E7A617"/>
<path d="M273.34 383.925C272.666 394.427 271.898 396.856 271.145 408.314C270.738 417.052 269.632 425.742 267.838 434.303C266.552 440.102 262.022 440.917 258.025 440.729C254.639 440.557 250.955 440.275 248.808 437.265C246.66 434.256 244.575 414.333 244.105 409.6C243.243 400.838 241.91 391.903 241.879 383.172C241.879 379.348 247.961 378.846 252.852 378.062C261.489 376.714 274.171 378.642 273.23 383.909" fill="#E7A617"/>
<path d="M166.575 479.132C165.462 476.53 156.229 478.223 156.198 474.9C156.747 471.765 166.167 474.163 167.484 470.981C169.522 466.06 162.782 463.144 158.925 462.47C154.59 461.868 150.213 461.617 145.836 461.718C143.691 461.935 141.524 461.83 139.41 461.404C137.246 460.683 135.977 459.367 133.735 459.006C131.259 458.599 127.638 458.536 125.772 460.213C123.39 462.36 123.735 463.944 124.205 466.06C124.581 468.897 122.073 470.26 126.07 472.329C128.39 473.536 131.729 473.254 134.159 473.066C136.102 472.925 138.861 472.737 140.288 473.991C143.611 476.875 137.388 476.953 137.058 479.116C141.291 478.991 163.565 479.116 166.528 479.116" fill="#E7A617"/>
<path d="M145.288 449.005C147.137 449.491 149.442 450.228 149.99 451.529C151.166 454.006 148.141 454.664 146.197 455.385C143.454 456.31 135.224 456.952 134.629 452.72C134.3 449.868 137.764 447.266 145.21 449.005" fill="#E7A617"/>
<path d="M229.495 175.014C227.339 174.881 225.205 174.508 223.131 173.901C220.843 173.259 218.021 172.522 215.78 171.989C212.503 171.205 206.28 169.936 204.29 173.776C202.064 178.102 216.062 177.616 218.742 177.475C220.843 177.366 225.341 177.052 227.755 176.801C230.169 176.55 231.721 175.328 229.48 175.014" fill="#E7A617"/>
<path d="M196.092 183.04C198.334 189.153 203.538 198.855 196.766 203.714C193.631 205.956 190.386 205.282 188.678 201.833C186.342 197.131 190.355 189.294 190.527 188.949C192.377 184.936 193.866 179.544 195.23 181.394C195.537 181.894 195.804 182.419 196.029 182.961" fill="#E7A617"/>
<path d="M198.035 175.563C196.373 176.394 195.825 175.563 195.997 174.56C196.02 174.287 196.102 174.022 196.239 173.784C196.375 173.547 196.562 173.342 196.787 173.185C197.011 173.028 197.267 172.922 197.537 172.875C197.807 172.828 198.084 172.841 198.349 172.914C198.528 173.345 198.593 173.815 198.538 174.279C198.483 174.743 198.31 175.185 198.035 175.563" fill="#E7A617"/>
<path d="M238.321 296.398C239.089 299.533 239.355 304.533 240.108 307.887C240.859 311.715 241.908 315.477 243.243 319.142C244.465 322.277 245.578 325.412 247.083 328.547C248.306 331.086 251.347 334.346 250.218 335.788C246.174 337.983 240.108 320.333 239.152 317.308C236.978 310.052 235.89 302.515 235.923 294.94C235.923 293.169 237.49 293.906 238.29 296.508" fill="#E7A617"/>
<path d="M173.487 380.727C171.81 382.608 170.352 386.872 169.6 389.364C168.685 392.421 168.158 395.58 168.032 398.769C167.813 404.286 169.678 409.365 169.678 414.349C169.678 415.744 168.487 416.214 167.829 414.349C164.885 406.302 164.192 397.604 165.822 389.191C166.606 385.32 167.562 381.354 170.525 378.407C174.036 375.006 175.713 377.702 173.44 380.821" fill="#E7A617"/>
<path d="M130.396 320.772C128.829 317.637 124.816 314.079 122.119 312.12C119.115 309.862 115.671 308.26 112.009 307.417C109.752 306.947 100.628 306.273 105.096 309.643C106.883 310.991 110.77 310.505 113.184 311.43C116.34 312.578 119.296 314.212 121.947 316.273C124.486 318.28 129.895 324.393 130.694 323.954C131.493 323.515 130.882 321.681 130.396 320.819" fill="#E7A617"/>
<path d="M115.457 317.496C117.196 318.449 118.782 319.659 120.159 321.085C122.15 323.201 121.366 323.938 118.717 322.872C116.554 321.994 113.2 318.311 105.644 317.355C103.982 317.151 103.653 315.239 110.347 315.944C112.12 316.135 113.839 316.667 115.41 317.511" fill="#E7A617"/>
<path d="M157.795 205.219C156.073 205.554 154.384 206.042 152.748 206.677C147.81 208.73 151.619 212.022 154.174 213.479C155.445 214.048 156.499 215.01 157.179 216.224C157.86 217.438 158.131 218.839 157.952 220.219C157.567 222.03 156.479 223.614 154.927 224.624C153.124 225.486 150.224 224.624 151.463 222.445C152.356 220.878 154.598 221.74 154.237 218.981C154.033 217.179 152.184 216.238 150.773 215.329C147.481 213.197 144.675 211.395 145.082 206.88C145.6 201.175 151.666 201.567 156.259 201.567C158.908 201.567 159.394 201.285 160.758 199.31C160.252 201.486 159.237 203.512 157.795 205.219" fill="#8AD2D4"/>
<path d="M139.566 223.966C140.419 224.7 141.154 225.562 141.745 226.521C144.425 226.254 146.729 227.038 146.353 227.539C145.977 228.041 144.002 227.963 143.547 228.95C143.433 229.387 143.431 229.846 143.541 230.284C143.65 230.722 143.868 231.126 144.174 231.458C145.412 231.624 146.611 232.006 147.717 232.587C148.501 233.198 146.855 233.668 146.149 234.248C145.444 234.828 144.331 235.095 144.582 236.599C144.911 236.819 145.005 237.054 145.366 237.242C146.933 238.057 148.015 239.045 145.491 239.672C142.967 240.299 142.356 243.951 141.337 243.214C140.506 242.854 142.027 239.593 142.513 237.838C143.011 235.967 143.112 234.013 142.811 232.101C142.6 230.461 141.998 228.897 141.055 227.539C140.24 226.427 137.654 223.966 138.5 223.574C138.766 223.339 139.158 223.574 139.676 223.966" fill="#8AD2D4"/>
<path d="M180.087 204.153C179.722 205.161 179.661 206.254 179.912 207.296C180.162 208.338 180.714 209.284 181.497 210.015C182.971 211.849 182.955 213.636 180.04 211.849C178.777 211.174 177.771 210.102 177.176 208.8C176.582 207.497 176.431 206.035 176.748 204.639C177.297 202.413 180.102 201.676 180.102 204.153" fill="#8AD2D4"/>
<path d="M91.2537 362.2C88.1186 362.2 86.0025 363.03 82.8518 363.187C80.234 363.313 76.2368 362.168 76.8795 365.962C77.0205 365.962 83.8079 365.366 87.4759 365.288C88.8812 365.355 90.2896 365.271 91.677 365.037C94.138 364.441 93.9655 362.309 91.238 362.2" fill="#FF8000"/>
<path d="M76.6916 359.488C77.6792 364.284 79.4348 369.833 79.8267 374.52C79.013 374.575 78.2111 374.744 77.444 375.021C76.8954 370.147 74.309 365.617 74.168 360.585C74.168 358.312 75.5945 357.764 76.6448 359.488" fill="#FF8000"/>
<path d="M82.6172 387.138C82.0842 392.154 87.6179 398.926 84.6708 399.38C82.241 398.079 81.9432 394.192 81.3318 391.637C81.128 390.775 80.3128 389.286 80.7047 388.188C81.0966 387.091 84.5768 386.449 86.0503 386.496" fill="#FF8000"/>
<path d="M90.7696 412.327C90.8794 413.455 94.375 428.926 90.2524 425.399C88.5282 423.926 87.6191 413.33 88.5439 411.684C89.8449 411.449 90.4876 412.374 90.519 413.565" fill="#FF8000"/>
<path d="M96.6936 435.29C98.3395 436.137 101.772 447.109 99.8286 448.629C97.5557 450.479 93.6526 437.328 93.5586 435.149C94.0166 434.868 94.5485 434.732 95.0852 434.757C95.6218 434.782 96.1385 434.968 96.5683 435.29" fill="#FF8000"/>
<path d="M101.632 424.428C101.726 425.76 105.269 435.227 101.946 433.503C100.018 432.5 97.98 424.318 99.6572 423.064C100.849 423.55 102.541 424.271 102.134 425.917" fill="#FF8000"/>
<path d="M95.9107 399.787C96.2399 401.088 101.444 410.995 98.3876 411.152C96.0362 411.261 92.6501 401.026 93.4496 399.145C93.6848 397.703 94.8447 397.828 95.9107 399.787" fill="#FF8000"/>
<path d="M89.7812 375.79C91.2924 379.201 92.1178 382.876 92.2107 386.605C88.5427 388.862 86.7872 376.997 86.8028 374.896C87.179 373.987 89.3266 373.47 89.7812 375.79Z" fill="#FF8000"/>
<path d="M84.5923 353.563C84.7804 355.303 88.3073 363.987 86.3165 364.441C83.009 365.194 82.3193 356.73 82.3506 354.911C82.3506 354.911 82.5388 354.175 82.6015 353.924C82.6955 353.762 82.7793 353.594 82.8523 353.422C83.7302 353.046 84.2003 353.171 84.3414 353.814" fill="#FF8000"/>
<path d="M109.753 433.77C107.809 435.337 103.671 434.302 100.912 435.039C99.5483 435.415 93.1683 438.488 93.717 434.898C94.1088 433.064 110.96 429.334 109.753 433.754" fill="#FF8000"/>
<path d="M104.657 421.653C105.832 420.979 108.701 420.65 108.246 422.892C107.682 425.697 100.408 426.026 98.1826 426.152C96.1316 426.404 94.0573 426.404 92.0063 426.152C90.1566 425.729 88.6832 424.584 90.7053 423.33C92.7275 422.076 96.756 422.688 98.9193 422.641C100.882 422.751 102.844 422.414 104.657 421.653" fill="#FF8000"/>
<path d="M103.858 410.289C106.272 412.452 98.654 412.311 95.2211 413.298C93.732 413.722 91.4278 415.085 89.7819 414.552C87.8381 413.91 88.418 412.703 88.5434 411.684C90.7066 410.117 95.1114 410.775 97.7448 410.461C99.1556 410.305 102.447 409.662 103.858 410.289" fill="#FF8000"/>
<path d="M97.9167 396.276C99.7663 396.59 99.1393 397.938 97.9167 398.737C96.6941 399.537 94.139 399.411 92.7439 399.49C90.6121 399.599 84.1541 400.885 83.5898 398.11C85.853 397.386 88.2058 396.98 90.5808 396.903C93.0438 396.9 95.5026 396.696 97.9324 396.292" fill="#FF8000"/>
<path d="M91.7564 385.9C94.233 385.9 98.6222 387.013 96.9606 388.69C96.2082 389.442 91.8974 388.988 90.7688 389.16C88.7153 389.489 86.6777 390.069 84.5928 390.399C80.2978 391.057 78.934 387.499 83.1663 386.84C85.3452 386.496 87.869 386.354 90.0949 386.088C90.5495 386.088 91.1138 385.916 91.5214 385.9" fill="#FF8000"/>
<path d="M89.5303 373.313C90.706 372.827 92.2577 372.263 93.1826 373.172C94.9852 375.774 87.1476 375.774 85.5801 375.774C83.4169 375.774 76.8804 376.495 76.4258 373.893C76.4258 371.824 81.5986 373.752 83.2759 373.673C85.371 373.655 87.4637 373.529 89.546 373.297" fill="#FF8000"/>
<path d="M89.5289 353.046C92.2564 355.303 85.5159 355.836 83.6035 355.977C81.8049 356.267 79.9755 356.314 78.1643 356.118C76.3302 355.538 76.5967 354.316 78.1643 353.642C79.7318 352.968 88.0396 352.152 89.5914 353.046" fill="#FF8000"/>
<path d="M110.943 218.997C111.275 219.29 111.528 219.662 111.68 220.078C112.244 221.458 112.322 223.025 112.918 224.404C113.668 225.557 114.199 226.837 114.485 228.182C114.521 228.31 114.521 228.446 114.485 228.574C114.423 228.664 114.336 228.735 114.235 228.778C113.929 228.862 113.607 228.869 113.297 228.798C112.988 228.727 112.702 228.58 112.463 228.37C110.482 227.183 108.933 225.392 108.043 223.26C107.697 222.415 107.626 221.483 107.839 220.595C108.168 219.467 109.783 218.072 110.974 219.028" fill="#2E1DD6"/>
<path d="M103.089 226.975C103.452 226.925 103.821 226.961 104.167 227.081C104.513 227.201 104.826 227.401 105.08 227.665C105.582 228.202 105.995 228.815 106.302 229.483L108.607 233.872C108.703 234.01 108.771 234.165 108.806 234.329C108.841 234.494 108.842 234.663 108.811 234.828C108.704 235.017 108.54 235.166 108.343 235.253C108.145 235.341 107.924 235.362 107.713 235.314C106.785 235.102 105.949 234.596 105.331 233.872C104.327 232.9 99.515 227.712 103.073 226.975" fill="#2E1DD6"/>
<path d="M103.2 236.835C103.968 237.274 104.767 237.869 104.877 238.763C104.893 238.875 104.882 238.989 104.844 239.096C104.806 239.202 104.742 239.298 104.658 239.374C104.531 239.456 104.385 239.505 104.234 239.515C102.915 239.791 101.546 239.71 100.268 239.28C99.9217 239.15 99.6103 238.941 99.3592 238.669C99.0215 238.218 98.8498 237.664 98.8732 237.101C98.8732 234.719 102.149 236.239 103.184 236.835" fill="#2E1DD6"/>
<path d="M103.512 265.723C103.871 266.629 104.443 267.436 105.179 268.074C105.916 268.713 106.796 269.164 107.744 269.39C108.529 269.336 109.317 269.405 110.08 269.594C110.502 269.825 110.892 270.109 111.24 270.441C116.366 274.406 120.645 271.82 120.049 272.996C119.845 273.319 119.563 273.586 119.229 273.772C118.895 273.958 118.519 274.058 118.137 274.061C116.84 274.224 115.523 274.108 114.274 273.721C113.026 273.335 111.874 272.686 110.895 271.82C110.62 271.533 110.303 271.29 109.955 271.099C109.171 270.915 108.355 270.915 107.572 271.099C106.541 271.067 105.538 270.759 104.667 270.208C103.796 269.656 103.089 268.881 102.618 267.964C101.709 266.105 101.202 264.076 101.129 262.008C101.057 261.568 101.084 261.119 101.208 260.691C101.364 260.283 101.96 259.594 102.211 259.97C102.462 260.346 103.073 264.845 103.528 265.817" fill="#8AD2D4"/>
<path d="M125.097 280.065C125.011 279.961 124.905 279.875 124.784 279.814C124.408 279.642 124 279.955 123.687 280.222C122.82 280.926 121.809 281.431 120.726 281.702C119.642 281.972 118.513 282.002 117.416 281.789C117.228 282.009 117.542 282.306 117.824 282.4C118.596 282.657 119.414 282.749 120.224 282.671C121.033 282.592 121.818 282.345 122.527 281.946C123.248 281.538 124.094 280.958 124.8 281.225C125.06 281.332 125.299 281.486 125.505 281.679C126.383 282.416 127.527 283.357 128.734 283.059C129.126 282.557 127.95 282.369 127.057 281.883C126.335 281.353 125.7 280.713 125.176 279.986" fill="#8AD2D4"/>
<path d="M198.975 266.522C197.244 266.767 195.482 266.671 193.787 266.24C193.516 266.168 193.236 266.136 192.956 266.146C192.634 266.194 192.322 266.295 192.032 266.444C188.732 267.902 185.055 268.275 181.529 267.51C180.871 267.368 184.319 270.644 190.26 268.591C190.856 268.387 191.389 268.011 191.985 267.823C193.334 267.634 194.709 267.741 196.013 268.137C196.999 268.288 198.007 268.202 198.953 267.886C199.899 267.57 200.756 267.032 201.452 266.318C202.126 265.707 202.832 264.594 202.252 264.751C201.97 264.845 201.217 265.597 200.872 265.785C200.278 266.106 199.639 266.333 198.975 266.459" fill="#8AD2D4"/>
<path d="M178.771 279.062C176.701 281.256 173.441 281.821 170.431 281.852C169.883 281.962 169.836 282.401 170.431 282.479C172.986 282.761 175.871 282.949 177.846 281.288C177.982 281.144 178.156 281.041 178.347 280.99C178.588 280.987 178.822 281.07 179.006 281.225C180.676 282.327 182.572 283.04 184.555 283.31C185.119 283.31 188.552 283.106 188.27 282.369C188.082 281.883 186.42 282.369 185.887 282.369C184.971 282.296 184.066 282.117 183.191 281.836C179.617 280.708 179.272 278.576 178.755 279.109" fill="#8AD2D4"/>
<path d="M200.246 287.683C198.879 289.23 197.017 290.254 194.978 290.58C192.939 290.906 190.851 290.514 189.07 289.469C188.317 288.78 185.699 292.463 179.147 290.457C178.41 290.3 179.351 291.57 180.84 291.868C182.827 292.385 184.93 292.22 186.812 291.397C187.06 291.254 187.323 291.139 187.596 291.053C188.093 290.964 188.604 290.996 189.085 291.147C190.592 291.582 192.134 291.881 193.694 292.04C195.27 292.195 196.845 291.728 198.083 290.739C198.711 290.241 199.382 289.8 200.089 289.422C201.014 288.952 201.406 289.532 202.425 289.767C203.993 290.159 206.814 289.689 207.786 288.106C207.99 287.667 205.356 288.811 204.494 288.843C201.578 288.968 200.622 287.275 200.246 287.667" fill="#8AD2D4"/>
<path d="M268.778 157.192C268.618 162.505 266.81 167.638 263.605 171.879C261.222 175.186 259.106 177.898 254.2 179.873C250.233 181.183 245.921 180.977 242.098 179.293C237.216 176.739 233.083 172.958 230.107 168.321C228.423 165.814 227.069 163.101 226.078 160.248C224.887 156.751 224.289 153.08 224.307 149.386C224.307 145.06 223.978 141.549 222.395 140.561C222.99 139.887 223.727 140.248 224.134 140.875C224.549 141.729 224.824 142.645 224.95 143.586C225.483 146.721 225.984 153.101 227.755 158.461C228.878 161.74 230.577 164.792 232.772 167.474C234.871 170.215 237.402 172.597 240.264 174.528C242.789 176.185 245.725 177.108 248.745 177.193C251.86 177.253 254.901 176.234 257.35 174.308C259.326 172.741 264.263 169.073 267.085 157.16C267.179 156.753 267.32 154.997 267.743 154.997C268.715 154.997 268.715 155.734 268.715 157.145" fill="#2E1DD6"/>
<path d="M260.344 144.919C261.372 147.066 262.055 149.362 262.366 151.722C262.69 154.636 262.816 157.569 262.742 160.5C262.742 161.691 262.46 163.635 261.833 163.635C261.206 163.635 261.441 159.794 261.394 157.882C261.299 154.521 260.772 151.187 259.827 147.96C257.648 141.048 254.638 141.69 255.422 140.812C256.864 139.01 259.89 143.947 260.36 144.903" fill="#2E1DD6"/>
<path d="M243.101 152.756L244.245 159.151C245.108 163.979 246.565 173.713 245.578 173.713C244.59 173.713 244.747 172.036 244.606 171.126C243.038 161.001 242.694 150.42 237.207 141.345C237.207 140.624 238.445 140.796 239.37 142.473C239.887 143.341 240.358 144.236 240.781 145.154C241.814 147.612 242.592 150.17 243.101 152.787" fill="#2E1DD6"/>
<path d="M257.022 386.84C257.24 387.247 257.323 387.712 257.258 388.169C257.193 388.626 256.984 389.05 256.661 389.38C256.247 389.647 255.756 389.768 255.266 389.724C254.997 389.746 254.727 389.697 254.482 389.583C254.325 389.483 254.187 389.356 254.075 389.207C253.732 388.783 253.529 388.262 253.495 387.718C253.467 387.45 253.508 387.18 253.615 386.933C253.723 386.685 253.892 386.47 254.106 386.307C254.328 386.138 254.583 386.018 254.854 385.953C255.125 385.888 255.407 385.881 255.681 385.931C255.956 385.981 256.217 386.088 256.447 386.244C256.678 386.401 256.874 386.604 257.022 386.84" fill="#FF8000"/>
<path d="M263.135 388.141C263.404 388.418 263.575 388.776 263.621 389.16C263.621 389.394 263.57 389.626 263.469 389.837C263.369 390.049 263.222 390.235 263.041 390.383C262.853 390.525 262.632 390.617 262.399 390.65C262.166 390.683 261.928 390.656 261.708 390.571C261.481 390.475 261.286 390.318 261.144 390.116C261.012 389.913 260.926 389.683 260.893 389.442C260.851 389.257 260.851 389.064 260.893 388.878C261.018 388.535 261.271 388.255 261.599 388.094C261.84 387.946 262.115 387.859 262.398 387.844C262.537 387.835 262.675 387.859 262.803 387.913C262.931 387.968 263.045 388.051 263.135 388.157" fill="#FF8000"/>
<path d="M260.265 380.884C260.633 380.878 260.993 380.99 261.294 381.202C261.595 381.413 261.82 381.715 261.939 382.064C262.057 382.412 262.062 382.789 261.953 383.14C261.844 383.491 261.626 383.799 261.331 384.019C261.059 384.24 260.725 384.372 260.375 384.395C260.016 384.43 259.655 384.377 259.321 384.241C258.988 384.104 258.693 383.888 258.462 383.611C258.223 383.248 258.125 382.809 258.189 382.378C258.253 381.947 258.473 381.555 258.807 381.276C259.01 381.143 259.232 381.042 259.466 380.978C259.642 380.916 259.828 380.889 260.014 380.9C260.098 380.889 260.182 380.889 260.265 380.9" fill="#FF8000"/>
<path d="M266.019 402.138C266.059 402.359 266.032 402.587 265.943 402.794C265.854 403 265.706 403.175 265.517 403.298C265.239 403.428 264.93 403.483 264.624 403.455H264.358L264.154 403.345C263.922 403.186 263.729 402.977 263.589 402.734C263.508 402.604 263.45 402.461 263.417 402.311C263.387 402.151 263.393 401.987 263.434 401.83C263.475 401.673 263.549 401.527 263.652 401.402C263.836 401.224 264.065 401.101 264.314 401.043C264.563 400.986 264.823 400.997 265.066 401.076C265.309 401.155 265.526 401.298 265.694 401.491C265.862 401.684 265.974 401.918 266.019 402.17" fill="#FF8000"/>
<path d="M267.586 383.658C267.859 383.764 268.097 383.946 268.272 384.181C268.448 384.416 268.554 384.695 268.578 384.987C268.603 385.28 268.545 385.573 268.411 385.834C268.277 386.095 268.072 386.313 267.821 386.464C267.569 386.654 267.277 386.783 266.967 386.843C266.657 386.903 266.338 386.891 266.034 386.809C265.839 386.761 265.654 386.681 265.485 386.573C265.201 386.368 264.981 386.088 264.848 385.764C264.715 385.44 264.675 385.085 264.733 384.739C264.77 384.446 264.889 384.169 265.078 383.94C265.417 383.644 265.838 383.457 266.286 383.404C266.733 383.351 267.186 383.434 267.586 383.642" fill="#FF8000"/>
<path d="M162.058 467.486C162.332 467.593 162.57 467.774 162.745 468.009C162.921 468.244 163.027 468.523 163.051 468.816C163.076 469.108 163.018 469.401 162.884 469.662C162.75 469.923 162.545 470.141 162.293 470.292C162.042 470.483 161.751 470.615 161.442 470.678C161.132 470.74 160.812 470.731 160.507 470.652C160.312 470.605 160.126 470.525 159.958 470.417C159.674 470.212 159.453 469.931 159.32 469.607C159.188 469.283 159.148 468.929 159.205 468.583C159.243 468.289 159.362 468.012 159.55 467.784C159.89 467.488 160.311 467.301 160.758 467.248C161.206 467.195 161.659 467.278 162.058 467.486" fill="#FF8000"/>
<path d="M158 276.585C158.874 284.249 161.148 291.687 164.709 298.53C167.414 303.179 170.638 307.507 174.318 311.43L191.561 330.804C200.371 340.694 207.613 352.184 211.108 364.974C213.284 373.753 214.072 382.818 213.444 391.84C212.971 398.411 211.605 404.887 209.384 411.089C208.465 414.416 206.822 417.499 204.572 420.117C203.004 420.979 204.885 417.97 205.387 416.982C207.79 410.711 209.632 404.238 210.889 397.64C212.238 388.307 211.978 378.812 210.121 369.567C209.125 363.763 207.304 358.131 204.713 352.842C201.173 346.786 197.158 341.02 192.705 335.6C190.981 333.39 183.52 324.628 178.958 319.581C176.575 316.963 173.848 313.718 171.465 311.085C168.026 307.071 165.093 302.649 162.734 297.918C159.129 291.178 156.715 276.711 156.731 274.313C156.731 272.886 157.389 271.82 158.032 276.538" fill="#2E1DD6"/>
<path d="M152.09 269.344C148.955 289.266 158.737 309.424 173.236 323.437C182.642 332.544 191.655 341.792 197.392 353.579C201.747 362.569 204.333 372.313 205.01 382.279C205.606 390.116 203.756 406.763 202.565 412.688C202.079 415.133 200.167 419.208 199.273 419.208C198.536 418.472 200.997 415.211 201.875 407.327C202.487 401.762 202.957 396.198 203.223 390.602C203.772 379.222 203.349 368.517 197.376 356.761C195.071 352.096 192.452 347.592 189.539 343.281C186.73 339.687 183.704 336.269 180.478 333.045C177.859 329.744 174.936 326.695 171.747 323.938C167.217 320.537 159.818 310.317 158 306.336C155.284 300.49 153.122 294.402 151.542 288.153C150.528 283.061 150.086 277.872 150.225 272.682C149.997 270.865 150.395 269.024 151.353 267.463C151.792 267.102 152.31 267.776 152.059 269.328" fill="#2E1DD6"/>
<path d="M143.986 269.563C142.541 276.382 142.197 283.388 142.967 290.316C144.833 306.367 154.034 319.314 164.756 331.399C173.519 341.29 186.059 349.55 192.972 360.836C197.564 368.36 197.674 379.316 197.894 388.125C198.254 399.098 196.64 417.358 195.244 417.358C193.849 417.358 197.831 394.662 196.138 379.473C195.605 374.771 194.915 368.767 192.846 364.488C191.311 361.114 189.346 357.953 186.999 355.083C178.848 345.569 166.418 335.835 161.621 329.847C160.759 328.766 159.662 327.904 158.768 326.838C155.226 322.659 152.077 318.163 149.363 313.405C145.334 306.288 142.246 298.749 141.525 292.714C140.727 286.933 140.785 281.065 141.698 275.3C141.996 273.309 142.184 271.318 142.607 269.359C143.03 267.4 144.488 266.695 143.971 269.485" fill="#2E1DD6"/>
<path d="M133.969 288.811C133.263 306.9 142.951 324.001 155.491 337.058C160.491 342.246 166.464 346.353 171.856 351.165C176.292 355.068 181.716 359.598 184.161 364.974C190.055 377.89 191.779 391.229 191.732 405.305C191.732 407.092 191.732 412.578 189.945 410.806C190.792 393.878 189.365 375.57 179.913 361.494C176.339 356.165 166.37 348.563 161.965 345.381C152.779 338.719 142.574 325.709 139.361 318.06C137.237 313.264 135.451 308.324 134.016 303.279C132.986 299.422 132.537 295.434 132.683 291.445C132.683 290.018 132.589 287.369 133.436 287.369C134.282 287.369 133.953 288.466 133.937 288.937" fill="#2E1DD6"/>
<path d="M267.209 179.732C271.232 187.726 274.89 195.882 278.182 204.2C280.22 209.263 281.599 214.451 283.323 219.624C287.493 232.054 290.628 243.214 290.957 256.412C291.35 265.996 289.665 275.551 286.019 284.422C283.726 289.826 281.06 295.063 278.041 300.097C276.473 302.558 272.868 306.853 272.288 306.367C271.708 305.881 273.369 304.455 274.263 303.232C284.363 289.75 289.745 273.319 289.578 256.475C289.324 248.841 288.274 241.255 286.443 233.841C284.17 225.078 281.395 217.335 278.95 209.811C274.686 196.645 270.548 191.127 265.955 180.719C265.406 179.481 265.955 177.585 267.288 179.716" fill="#2E1DD6"/>
<path d="M260.767 181.362C263.21 186.439 265.305 191.676 267.037 197.037C270.736 207.554 274.639 218.26 278.088 228.856C285.549 251.741 283.904 274.312 271.175 294.987C270.705 295.755 268.495 299.69 267.648 299.454C266.739 299.454 272.257 290.05 272.601 289.407C277.318 280.819 280.12 271.311 280.815 261.538C281.322 254.885 280.931 248.195 279.655 241.647C278.417 234.405 272.664 217.288 271.395 213.777C267.178 202.068 264.56 192.648 259.951 181.926C259.465 180.782 260.171 180.281 260.751 181.394" fill="#2E1DD6"/>
<path d="M252.522 182.538C255.945 190.15 258.913 197.96 261.41 205.924C265.172 217.727 271.238 230.063 272.476 242.415C273.636 254.092 271.583 268.011 265.752 278.356C264.294 280.943 260.767 288.106 260.156 287.495C259.544 286.883 263.385 280.3 265.172 276.131C266.497 273.109 267.669 270.022 268.683 266.883C270.449 260.74 271.289 254.369 271.175 247.979C271.175 239.797 268.808 231.819 266.018 224.138C264.372 219.592 262.428 214.279 260.861 209.702C257.036 198.51 255.108 193.494 251.565 184.184C250.688 181.879 252.365 182.209 252.506 182.522" fill="#2E1DD6"/>
<path d="M244.386 183.651L250.656 199.137C253.712 206.899 256.001 214.942 257.491 223.15C259.325 232.351 261.363 239.813 260.814 249.186C260.15 257.644 257.917 265.904 254.23 273.544C253.885 274.25 253.086 275.112 252.49 274.563C251.816 273.795 252.631 272.619 253.274 271.24C253.917 269.861 254.685 267.792 255.343 266.412C256.623 262.688 257.67 258.887 258.478 255.033C259.513 249.515 260.626 243.433 254.936 218.762C253.76 213.652 252.443 209.357 251.189 205.501C248.681 197.507 247.004 194.717 243.822 186.691C243.329 185.746 242.966 184.739 242.74 183.698C242.74 182.397 243.649 181.973 244.308 183.698" fill="#2E1DD6"/>
<path d="M253.399 168.823C253.399 169.371 253.164 171.142 252.772 170.249C252.208 168.478 253.258 154.715 248.07 145.326C247.673 144.704 247.397 144.013 247.254 143.289C246.91 140.624 248.195 141.549 249.198 142.975C250.706 145.378 251.768 148.033 252.333 150.812C253.379 156.75 253.758 162.785 253.462 168.807" fill="#2E1DD6"/>
<path d="M234.495 163.729C234.495 165.296 233.648 164.669 233.539 163.274C232.896 154.7 230.498 147.317 229.071 139.605C228.899 138.681 229.855 138.461 230.639 138.978C231.281 139.783 231.707 140.738 231.877 141.753C232.41 144.073 232.786 147.443 233.115 149.809C233.774 154.512 234.338 158.932 234.542 163.713" fill="#2E1DD6"/>
<path d="M156.667 468.505C157.113 468.505 157.547 468.362 157.906 468.097C158.226 467.852 158.472 467.524 158.618 467.148C158.764 466.772 158.803 466.364 158.732 465.967C158.661 465.57 158.481 465.201 158.214 464.899C157.947 464.597 157.601 464.375 157.216 464.257C156.87 464.142 156.496 464.142 156.15 464.257H156.009C155.592 464.367 155.218 464.601 154.938 464.929C154.658 465.256 154.485 465.662 154.442 466.091C154.411 466.5 154.498 466.909 154.692 467.27C154.887 467.631 155.18 467.929 155.539 468.129C155.869 468.313 156.242 468.41 156.62 468.411" fill="#FF8000"/>
</svg>
